/* XPM */
static char * close_inactive_xpm[] = {
"24 26 25 1",
" 	c None",
".	c #E5E5E5",
"+	c #E4E4E4",
"@	c #B2B2B2",
"#	c #AFAFAF",
"$	c #E1E1E1",
"%	c #DFDFDF",
"&	c #ABABAB",
"*	c #B8B8B8",
"=	c #A5A5A5",
"-	c #999999",
";	c #DEDEDE",
">	c #A6A6A6",
",	c #ACACAC",
"'	c #DCDCDC",
")	c #A2A2A2",
"!	c #A8A8A8",
"~	c #A4A4A4",
"{	c #DDDDDD",
"]	c #A1A1A1",
"^	c #E0E0E0",
"/	c #A3A3A3",
"(	c #A9A9A9",
"_	c #DBDBDB",
":	c #AEAEAE",
"                        ",
"                        ",
"                        ",
"                        ",
"                        ",
"                        ",
"                        ",
"........................",
"........................",
"........................",
"........................",
"........................",
".......+@#$..%&*........",
"........=-&$;>-,........",
"........')-!=-~{........",
".........']--~{.........",
".........%~--!^.........",
"........%>-//-(^........",
"........!->;_)-:........",
"........&!;.._~@........",
"........................",
"........................",
"........................",
"........................",
"........................",
"........................"};
