/* XPM */
static char * close_prelight_xpm[] = {
"24 26 38 1",
" 	c None",
".	c #E5E5E5",
"+	c #E5E1E2",
"@	c #E5E3E3",
"#	c #E5E3E4",
"$	c #E5E4E4",
"%	c #E5E4E5",
"&	c #F64E4E",
"*	c #F74545",
"=	c #E6D9D9",
"-	c #E7D2D2",
";	c #F83B3B",
">	c #F46060",
",	c #FA2424",
"'	c #FF0000",
")	c #F83434",
"!	c #E7D1D1",
"~	c #FA2727",
"{	c #F83939",
"]	c #E8CACA",
"^	c #FB1D1D",
"/	c #F92F2F",
"(	c #FA2626",
"_	c #FA2323",
":	c #E7CECE",
"<	c #FB1A1A",
"[	c #FB2222",
"}	c #F92D2D",
"|	c #E6D8D8",
"1	c #FA2828",
"2	c #FB1F1F",
"3	c #FB1B1B",
"4	c #F93333",
"5	c #E8C8C8",
"6	c #F74444",
"7	c #F83737",
"8	c #E7D0D0",
"9	c #F64C4C",
"                        ",
"                        ",
"                        ",
"                        ",
"                        ",
"                        ",
"                        ",
"........................",
".........+@##$$.........",
".......%$.......%.......",
"........................",
"......@.................",
"......@.&*=..-;>........",
"......$.,')=!~'{........",
"........]^'/('_:........",
".........]<''[:.........",
".........-_''}|.........",
"........-1'23'4|........",
"......../'~!53'6........",
"........7}8..5[9........",
"........................",
"........................",
"........................",
"........................",
"........................",
"........................"};
