/* XPM */
static char * close_active_xpm[] = {
"24 26 36 1",
" 	c None",
".	c #E5E5E5",
"+	c #E5E4E4",
"@	c #DD4E4E",
"#	c #DB4545",
"$	c #E4D9D9",
"%	c #E4D2D2",
"&	c #DC3B3B",
"*	c #DE6060",
"=	c #DA2424",
"-	c #D90000",
";	c #DB3434",
">	c #E4D1D1",
",	c #DB2727",
"'	c #DC3939",
")	c #E4CACA",
"!	c #DA1D1D",
"~	c #DB2F2F",
"{	c #DB2626",
"]	c #DA2323",
"^	c #E3CECE",
"/	c #D91A1A",
"(	c #DA2121",
"_	c #DB2323",
":	c #DA2D2D",
"<	c #E4D8D8",
"[	c #DB2828",
"}	c #DA1F1F",
"|	c #DA1B1B",
"1	c #DA3333",
"2	c #E3C8C8",
"3	c #DC4444",
"4	c #DB3737",
"5	c #DC2D2D",
"6	c #DA2222",
"7	c #DD4C4C",
"                        ",
"                        ",
"                        ",
"                        ",
"                        ",
"                        ",
"                        ",
"........................",
"........................",
".........+++............",
"........................",
"........................",
"........@#$..%&*........",
"........=-;$>,-'........",
"........)!-~{-]^........",
".........)/--(^.........",
".........%_--:<.........",
"........%[-}|-1<........",
"........~-,>2|-3........",
"........45>..267........",
"........................",
"........................",
"........................",
"........................",
"........................",
"........................"};
