/* XPM */
static char * hide_inactive_xpm[] = {
"24 26 5 1",
" 	c None",
".	c #E5E5E5",
"+	c #E4E4E4",
"@	c #E3E3E3",
"#	c #999999",
"                        ",
"                        ",
"                        ",
"                        ",
"                        ",
"                        ",
"                        ",
"........................",
"........................",
"..........++++..........",
"........@+.....+........",
"........+...............",
".......+................",
"........................",
"........................",
"........................",
"........................",
"........................",
"........#########.......",
"........#########.......",
"........................",
"........................",
"........................",
"........................",
"........................",
"........................"};
