/* XPM */
static char * hide_prelight_xpm[] = {
"24 26 12 1",
" 	c None",
".	c #E5E5E5",
"+	c #E1E5DE",
"@	c #E1E4DF",
"#	c #E3E4E1",
"$	c #E3E4E2",
"%	c #E3E4E3",
"&	c #E4E5E3",
"*	c #E4E4E3",
"=	c #E4E4E4",
"-	c #E4E5E4",
";	c #00EA00",
"                        ",
"                        ",
"                        ",
"                        ",
"                        ",
"                        ",
"                        ",
"........................",
".........+@#$%&.........",
"........*...............",
".......=................",
"......-.................",
"........................",
"........................",
"........................",
"........................",
"........................",
"........................",
"........;;;;;;;;;.......",
"........;;;;;;;;;.......",
"........................",
"........................",
"........................",
"........................",
"........................",
"........................"};
