/* XPM */
static char * hide_active_xpm[] = {
"24 26 8 1",
" 	c None",
".	c #E5E5E5",
"+	c #E4E5E4",
"@	c #E4E4E4",
"#	c #E3E4E2",
"$	c #E2E5DF",
"%	c #E3E4E3",
"&	c #00D900",
"                        ",
"                        ",
"                        ",
"                        ",
"                        ",
"                        ",
"                        ",
"........................",
"........................",
".........+@...+.........",
"........@...............",
".......+........+.......",
".......@........@.......",
"................@.......",
"........................",
".......#@...............",
".......$%...............",
"........@...............",
"........&&&&&&&&&.......",
"........&&&&&&&&&.......",
"........................",
"........................",
"........................",
"........................",
"........................",
"........................"};
