/* XPM */
static char * maximize_active_xpm[] = {
"24 26 5 1",
" 	c None",
".	c #E5E5E5",
"+	c #E3E4E5",
"@	c #E4E4E5",
"#	c #0075FD",
"                        ",
"                        ",
"                        ",
"                        ",
"                        ",
"                        ",
"                        ",
"........................",
"........................",
".........++...@.........",
"........@...............",
".......#########........",
".......#########........",
".......##.....##........",
".......##.....##........",
".......##.....##........",
".......##.....##........",
".......##.....##........",
".......#########........",
".......#########........",
"........................",
"........................",
"........................",
"........................",
"........................",
"........................"};
