/* XPM */
static char * maximize_inactive_xpm[] = {
"24 26 4 1",
" 	c None",
".	c #E5E5E5",
"+	c #E4E4E4",
"@	c #999999",
"                        ",
"                        ",
"                        ",
"                        ",
"                        ",
"                        ",
"                        ",
"........................",
"........................",
"..........++++..........",
"........+...............",
".......@@@@@@@@@........",
".......@@@@@@@@@........",
".......@@.....@@........",
".......@@.....@@........",
".......@@.....@@........",
".......@@.....@@........",
".......@@.....@@........",
".......@@@@@@@@@........",
".......@@@@@@@@@........",
"........................",
"........................",
"........................",
"........................",
"........................",
"........................"};
