<?xml version="1.0" encoding="UTF-8" standalone="no"?>
<svg
   xmlns:dc="http://purl.org/dc/elements/1.1/"
   xmlns:cc="http://creativecommons.org/ns#"
   xmlns:rdf="http://www.w3.org/1999/02/22-rdf-syntax-ns#"
   xmlns:svg="http://www.w3.org/2000/svg"
   xmlns="http://www.w3.org/2000/svg"
   xmlns:xlink="http://www.w3.org/1999/xlink"
   xmlns:sodipodi="http://sodipodi.sourceforge.net/DTD/sodipodi-0.dtd"
   xmlns:inkscape="http://www.inkscape.org/namespaces/inkscape"
   width="48"
   viewBox="0 0 13.546667 13.546667"
   height="48"
   id="svg2"
   version="1.1"
   inkscape:version="0.48.4 r9939"
   sodipodi:docname="lightsoff.svg">
  <metadata
     id="metadata62">
    <rdf:RDF>
      <cc:Work
         rdf:about="">
        <dc:format>image/svg+xml</dc:format>
        <dc:type
           rdf:resource="http://purl.org/dc/dcmitype/StillImage" />
        <dc:title></dc:title>
      </cc:Work>
    </rdf:RDF>
  </metadata>
  <sodipodi:namedview
     pagecolor="#ffffff"
     bordercolor="#666666"
     borderopacity="1"
     objecttolerance="10"
     gridtolerance="10"
     guidetolerance="10"
     inkscape:pageopacity="0"
     inkscape:pageshadow="2"
     inkscape:window-width="1366"
     inkscape:window-height="716"
     id="namedview60"
     showgrid="false"
     inkscape:zoom="5.6568543"
     inkscape:cx="18.261184"
     inkscape:cy="32.518342"
     inkscape:window-x="0"
     inkscape:window-y="28"
     inkscape:window-maximized="1"
     inkscape:current-layer="g38"
     showguides="true"
     inkscape:guide-bbox="true" />
  <defs
     id="defs4">
    <linearGradient
       id="linearGradient3922">
      <stop
         style="stop-color:#004455;stop-opacity:1;"
         offset="0"
         id="stop3924" />
      <stop
         style="stop-color:#005b72;stop-opacity:1;"
         offset="1"
         id="stop3926" />
    </linearGradient>
    <clipPath
       clipPathUnits="userSpaceOnUse"
       id="clipPath6">
      <rect
         width="20"
         x="1"
         y="1"
         rx="2"
         height="20"
         style="fill:#fff;fill-rule:evenodd"
         id="rect8" />
    </clipPath>
    <clipPath
       clipPathUnits="userSpaceOnUse"
       id="clipPath10">
      <rect
         width="84"
         x="6"
         y="6"
         rx="6"
         height="84"
         style="fill:#fff"
         id="rect12" />
    </clipPath>
    <clipPath
       clipPathUnits="userSpaceOnUse"
       id="clipPath14">
      <path
         d="M 54.1,12.5 12.9,54.7 C -2.7,70.3 23,69 32.3,74.9 36.6,77.7 18.5,81.3 22.2,85 c 3.6,3.7 21.7,7.1 25.3,10.7 3.6,3.7 -7.3,7.6 -3.7,11.3 3.5,3.7 11.9,0.2 13.4,8.6 1.1,6.2 15.4,3.1 21.8,-2.2 4,-3.4 -6.9,-3.4 -3.3,-7.1 9,-9.1 17,-4.1 20.3,-12.5 1.8,-4.5 -13.6,-7.7 -9.5,-10.6 9.8,-6.9 45.8,-10.4 29.2,-27 L 73,12.5 c -5.3,-5 -14,-5 -18.9,0 z m -9.9,64.7 c 0.9,0 30.8,4 19.3,7.1 -4.4,1.2 -24.6,-7.1 -19.3,-7.1 z m 57.2,16.6 c 0,2.1 16.3,3.3 15.4,-0.5 -1.3,-6.4 -13.6,-5.9 -15.4,0.5 z m -69.5,11.1 c 3.7,3.2 9.3,-0.7 11.1,-5.2 -3.6,-4.7 -16.9,0.3 -11.1,5.2 z m 67.5,-6.7 c -4.6,4.2 0.8,8.6 5.3,5.7 1.2,-0.8 -0.1,-4.7 -5.3,-5.7 z"
         id="path16" />
    </clipPath>
    <clipPath
       clipPathUnits="userSpaceOnUse"
       id="clipPath18">
      <rect
         width="96"
         x="-100"
         y="-0"
         height="96"
         style="fill:#fff"
         id="rect20" />
    </clipPath>
    <clipPath
       clipPathUnits="userSpaceOnUse"
       id="clipPath22">
      <path
         d="M 95.311,352.545 L 476.403,352.545 L 476.403,71.4229 L 95.311,71.4229 L 95.311,352.545 z"
         id="path24" />
    </clipPath>
    <clipPath
       clipPathUnits="userSpaceOnUse"
       id="clipPath26">
      <path
         d="M 93.311,354.545 L 478.511,354.545 L 478.511,69.1846 L 93.311,69.1846 L 93.311,354.545 z"
         id="path28" />
    </clipPath>
    <clipPath
       clipPathUnits="userSpaceOnUse"
       id="clipPath30">
      <path
         d="M 93.311,69.185 L 478.511,69.185 L 478.511,354.545 L 93.311,354.545 L 93.311,69.185 z"
         id="path32" />
    </clipPath>
    <clipPath
       clipPathUnits="userSpaceOnUse"
       id="clipPath34">
      <path
         d="M 92.311,355.545 L 479.511,355.545 L 479.511,68.1846 L 92.311,68.1846 L 92.311,355.545 z"
         id="path36" />
    </clipPath>
    <linearGradient
       inkscape:collect="always"
       xlink:href="#linearGradient2251"
       id="linearGradient2258"
       x1="21.5"
       y1="43.467159"
       x2="21.5"
       y2="47.532516"
       gradientUnits="userSpaceOnUse" />
    <linearGradient
       inkscape:collect="always"
       id="linearGradient2251">
      <stop
         style="stop-color:#729fcf;stop-opacity:1;"
         offset="0"
         id="stop2253" />
      <stop
         style="stop-color:#729fcf;stop-opacity:0;"
         offset="1"
         id="stop2255" />
    </linearGradient>
    <linearGradient
       gradientTransform="matrix(0.13,0,0,0.14103,2.41492,-32.46617)"
       xlink:href="#linearGradient3896"
       id="linearGradient3006"
       x1="5.3039999"
       gradientUnits="userSpaceOnUse"
       x2="61.748001" />
    <linearGradient
       id="linearGradient3896">
      <stop
         offset="0"
         style="stop-color:#5dac12"
         id="stop9" />
      <stop
         offset="1"
         style="stop-color:#76c925"
         id="stop11" />
    </linearGradient>
    <linearGradient
       inkscape:collect="always"
       xlink:href="#linearGradient6963-199-896"
       id="linearGradient6457"
       gradientUnits="userSpaceOnUse"
       gradientTransform="matrix(4.895429,-1.3086414,1.1623533,4.3761806,-614.63541,-97.40367)"
       x1="15.194299"
       y1="13.018784"
       x2="14.486301"
       y2="26.07235" />
    <linearGradient
       inkscape:collect="always"
       id="linearGradient6963-199-896">
      <stop
         offset="0"
         id="stop7684"
         style="stop-color:#a2c6ff;stop-opacity:1" />
      <stop
         offset="1"
         id="stop7686"
         style="stop-color:#9f7e42;stop-opacity:1" />
    </linearGradient>
    <linearGradient
       id="linearGradient2911-613-519">
      <stop
         offset="0"
         id="stop7648"
         style="stop-color:#ffffe0;stop-opacity:1;" />
      <stop
         offset="1"
         id="stop7650"
         style="stop-color:#ffe588;stop-opacity:0;" />
    </linearGradient>
    <linearGradient
       id="linearGradient2911-198-956">
      <stop
         offset="0"
         id="stop7654"
         style="stop-color:#ffffe0;stop-opacity:1;" />
      <stop
         offset="1"
         id="stop7656"
         style="stop-color:#ffe588;stop-opacity:0;" />
    </linearGradient>
    <linearGradient
       id="linearGradient2911-977-39">
      <stop
         offset="0"
         id="stop7660"
         style="stop-color:#ffffe0;stop-opacity:1;" />
      <stop
         offset="1"
         id="stop7662"
         style="stop-color:#ffe588;stop-opacity:0;" />
    </linearGradient>
    <linearGradient
       inkscape:collect="always"
       xlink:href="#linearGradient2782-839-396"
       id="linearGradient7090"
       gradientUnits="userSpaceOnUse"
       gradientTransform="matrix(4.9036558,0,0,4.3816704,-363.57105,-134.91588)"
       x1="20"
       y1="13.577349"
       x2="17.269999"
       y2="32.698772" />
    <linearGradient
       inkscape:collect="always"
       id="linearGradient2782-839-396">
      <stop
         offset="0"
         id="stop7582"
         style="stop-color:#8dc5ff;stop-opacity:1" />
      <stop
         offset="1"
         id="stop7584"
         style="stop-color:#f2c600;stop-opacity:1" />
    </linearGradient>
    <linearGradient
       inkscape:collect="always"
       xlink:href="#linearGradient6963-199-896-0"
       id="linearGradient6457-9"
       gradientUnits="userSpaceOnUse"
       gradientTransform="matrix(4.895429,-1.3086414,1.1623533,4.3761806,-614.63541,-97.40367)"
       x1="15.194299"
       y1="13.018784"
       x2="14.486301"
       y2="26.07235" />
    <linearGradient
       inkscape:collect="always"
       id="linearGradient6963-199-896-0">
      <stop
         offset="0"
         id="stop7684-1"
         style="stop-color:#a2c6ff;stop-opacity:1" />
      <stop
         offset="1"
         id="stop7686-7"
         style="stop-color:#9f7e42;stop-opacity:1" />
    </linearGradient>
    <filter
       color-interpolation-filters="sRGB"
       inkscape:collect="always"
       id="filter3522">
      <feGaussianBlur
         inkscape:collect="always"
         stdDeviation="7.7237026"
         id="feGaussianBlur3524" />
    </filter>
  </defs>
  <g
     style="fill-rule:evenodd"
     id="g38">
    <rect
       width="11.746"
       x=".9"
       y=".901"
       rx="5.873"
       height="11.746"
       style="fill:#374548;stroke-width:0.02822222000000000;stroke-miterlimit:4;stroke-dasharray:none;stroke:none;stroke-opacity:1;fill-opacity:1"
       id="rect42" />
    <g
       transform="matrix(0.11531627,0,0,0.11531627,3.9211615,3.8898451)"
       id="layer1" />
    <g
       id="g3389"
       style="fill:#f9f9f9;stroke:#f9f9f9;stroke-linejoin:round"
       transform="matrix(0.93639221,0.01779363,-0.01779363,0.93639221,0.58795522,0.39238226)">
      <g
         id="g3393"
         style="fill-opacity:0;stroke-width:0.58899999" />
    </g>
    <path
       style="fill:#f2f2f2"
       inkscape:connector-curvature="0"
       id="text4736"
       d="m 8.8307247,10.491272 -0.9630833,0 0,-0.6298359 C 7.4837203,10.370565 6.97736,10.625158 6.3485435,10.625158 c -0.5030555,0 -0.9018524,-0.135552 -1.196405,-0.406654 C 4.8608956,9.9440711 4.715275,9.5787621 4.7152755,9.1225221 c -5e-7,-0.310811 0.059571,-0.580249 0.1787169,-0.808397 0.1224537,-0.228121 0.3044786,-0.413258 0.5460777,-0.555414 0.244904,-0.142183 0.5626214,-0.238054 0.953152,-0.287641 l 1.4744193,-0.198374 c 0,-0.390144 -0.082748,-0.682723 -0.2482145,-0.8777954 -0.162179,-0.195072 -0.4054376,-0.292608 -0.7297702,-0.292608 -0.2680773,0 -0.554355,0.051252 -0.8588305,0.1537546 C 5.7296556,6.3585222 5.4599273,6.5073098 5.2216386,6.7023821 l 0,-0.9769888 c 0.618888,-0.3107774 1.2013721,-0.4661662 1.7474467,-0.4661718 0.6023356,5.6e-6 1.0623578,0.1669655 1.3800836,0.500888 0.3210278,0.3339423 0.4815558,0.8067206 0.4815558,1.4183526 l 0,3.3128099 m -0.9630833,-1.9192529 0,-0.580249 c -0.8274022,0.105805 -1.2940482,0.166963 -1.3999549,0.183501 -0.1025963,0.01654 -0.2300168,0.05786 -0.3822503,0.12398 -0.1489315,0.06612 -0.254841,0.153755 -0.3177173,0.262862 -0.059577,0.109079 -0.08936,0.267773 -0.08936,0.476109 0,0.234696 0.082739,0.426466 0.2482144,0.575254 0.1687887,0.145485 0.388874,0.218214 0.6602617,0.218214 0.3375745,0 0.6354347,-0.120707 0.8935805,-0.362063 0.2581374,-0.241356 0.3872259,-0.54054 0.3872259,-0.897608 M 8.2846247,2.9977917 6.9492281,4.624436 l -0.6602532,0 1.077262,-1.6266443 0.9183878,0" />
  </g>
</svg>
