<?xml version="1.0" encoding="UTF-8" standalone="no"?>
<svg
   xmlns:dc="http://purl.org/dc/elements/1.1/"
   xmlns:cc="http://creativecommons.org/ns#"
   xmlns:rdf="http://www.w3.org/1999/02/22-rdf-syntax-ns#"
   xmlns:svg="http://www.w3.org/2000/svg"
   xmlns="http://www.w3.org/2000/svg"
   xmlns:sodipodi="http://sodipodi.sourceforge.net/DTD/sodipodi-0.dtd"
   xmlns:inkscape="http://www.inkscape.org/namespaces/inkscape"
   width="48"
   viewBox="0 0 13.546667 13.546667"
   height="48"
   id="svg2"
   version="1.1"
   inkscape:version="0.48.4 r9939"
   sodipodi:docname="gparted.svg">
  <metadata
     id="metadata62">
    <rdf:RDF>
      <cc:Work
         rdf:about="">
        <dc:format>image/svg+xml</dc:format>
        <dc:type
           rdf:resource="http://purl.org/dc/dcmitype/StillImage" />
        <dc:title></dc:title>
      </cc:Work>
    </rdf:RDF>
  </metadata>
  <sodipodi:namedview
     pagecolor="#ffffff"
     bordercolor="#666666"
     borderopacity="1"
     objecttolerance="10"
     gridtolerance="10"
     guidetolerance="10"
     inkscape:pageopacity="0"
     inkscape:pageshadow="2"
     inkscape:window-width="1366"
     inkscape:window-height="716"
     id="namedview60"
     showgrid="false"
     inkscape:zoom="2.4583333"
     inkscape:cx="114.27349"
     inkscape:cy="56.215209"
     inkscape:window-x="0"
     inkscape:window-y="28"
     inkscape:window-maximized="1"
     inkscape:current-layer="g38" />
  <defs
     id="defs4">
    <clipPath
       clipPathUnits="userSpaceOnUse"
       id="clipPath6">
      <rect
         width="20"
         x="1"
         y="1"
         rx="2"
         height="20"
         style="fill:#fff;fill-rule:evenodd"
         id="rect8" />
    </clipPath>
    <clipPath
       clipPathUnits="userSpaceOnUse"
       id="clipPath10">
      <rect
         width="84"
         x="6"
         y="6"
         rx="6"
         height="84"
         style="fill:#fff"
         id="rect12" />
    </clipPath>
    <clipPath
       clipPathUnits="userSpaceOnUse"
       id="clipPath14">
      <path
         d="M 54.1,12.5 12.9,54.7 C -2.7,70.3 23,69 32.3,74.9 36.6,77.7 18.5,81.3 22.2,85 c 3.6,3.7 21.7,7.1 25.3,10.7 3.6,3.7 -7.3,7.6 -3.7,11.3 3.5,3.7 11.9,0.2 13.4,8.6 1.1,6.2 15.4,3.1 21.8,-2.2 4,-3.4 -6.9,-3.4 -3.3,-7.1 9,-9.1 17,-4.1 20.3,-12.5 1.8,-4.5 -13.6,-7.7 -9.5,-10.6 9.8,-6.9 45.8,-10.4 29.2,-27 L 73,12.5 c -5.3,-5 -14,-5 -18.9,0 z m -9.9,64.7 c 0.9,0 30.8,4 19.3,7.1 -4.4,1.2 -24.6,-7.1 -19.3,-7.1 z m 57.2,16.6 c 0,2.1 16.3,3.3 15.4,-0.5 -1.3,-6.4 -13.6,-5.9 -15.4,0.5 z m -69.5,11.1 c 3.7,3.2 9.3,-0.7 11.1,-5.2 -3.6,-4.7 -16.9,0.3 -11.1,5.2 z m 67.5,-6.7 c -4.6,4.2 0.8,8.6 5.3,5.7 1.2,-0.8 -0.1,-4.7 -5.3,-5.7 z"
         id="path16" />
    </clipPath>
    <clipPath
       clipPathUnits="userSpaceOnUse"
       id="clipPath18">
      <rect
         width="96"
         x="-100"
         y="-0"
         height="96"
         style="fill:#fff"
         id="rect20" />
    </clipPath>
    <clipPath
       clipPathUnits="userSpaceOnUse"
       id="clipPath22">
      <path
         d="M 95.311,352.545 L 476.403,352.545 L 476.403,71.4229 L 95.311,71.4229 L 95.311,352.545 z"
         id="path24" />
    </clipPath>
    <clipPath
       clipPathUnits="userSpaceOnUse"
       id="clipPath26">
      <path
         d="M 93.311,354.545 L 478.511,354.545 L 478.511,69.1846 L 93.311,69.1846 L 93.311,354.545 z"
         id="path28" />
    </clipPath>
    <clipPath
       clipPathUnits="userSpaceOnUse"
       id="clipPath30">
      <path
         d="M 93.311,69.185 L 478.511,69.185 L 478.511,354.545 L 93.311,354.545 L 93.311,69.185 z"
         id="path32" />
    </clipPath>
    <clipPath
       clipPathUnits="userSpaceOnUse"
       id="clipPath34">
      <path
         d="M 92.311,355.545 L 479.511,355.545 L 479.511,68.1846 L 92.311,68.1846 L 92.311,355.545 z"
         id="path36" />
    </clipPath>
    <clipPath
       id="clipPath4104"
       clipPathUnits="userSpaceOnUse">
      <path
         inkscape:connector-curvature="0"
         style="opacity:0.2;color:#bebebe"
         d="m 328,-238 c -7.73199,0 -14,-6.26801 -14,-14 0,-7.73199 6.26801,-14 14,-14 7.73199,0 14,6.26801 14,14 0,7.73199 -6.26801,14 -14,14 z m 0,-9 c 2.7552,0 4.99121,-2.21357 5,-4.96875 L 333,-252 c 0,-2.76142 -2.23858,-5 -5,-5 -2.76142,0 -5,2.23858 -5,5 0,2.76142 2.23858,5 5,5 z"
         id="path7" />
    </clipPath>
    <clipPath
       id="clipPath4114"
       clipPathUnits="userSpaceOnUse">
      <path
         inkscape:connector-curvature="0"
         style="opacity:0.2;color:#bebebe"
         d="m 328,242 c -7.73199,0 -14,6.26801 -14,14 0,7.73199 6.26801,14 14,14 7.73199,0 14,-6.26801 14,-14 0,-7.73199 -6.26801,-14 -14,-14 z m 0,9 c 2.7552,0 4.99121,2.21357 5,4.96875 L 333,256 c 0,2.76142 -2.23858,5 -5,5 -2.76142,0 -5,-2.23858 -5,-5 0,-2.76142 2.23858,-5 5,-5 z"
         id="path10" />
    </clipPath>
    <clipPath
       id="clipPath4098"
       clipPathUnits="userSpaceOnUse">
      <path
         inkscape:connector-curvature="0"
         style="opacity:0.2;color:#bebebe"
         d="m 328,242 c -7.73199,0 -14,6.26801 -14,14 0,7.73199 6.26801,14 14,14 7.73199,0 14,-6.26801 14,-14 0,-7.73199 -6.26801,-14 -14,-14 z m 0,9 c 2.7552,0 4.99121,2.21357 5,4.96875 L 333,256 c 0,2.76142 -2.23858,5 -5,5 -2.76142,0 -5,-2.23858 -5,-5 0,-2.76142 2.23858,-5 5,-5 z"
         id="path13" />
    </clipPath>
  </defs>
  <g
     style="fill-rule:evenodd"
     id="g38">
    <rect
       width="11.746"
       x=".9"
       y=".901"
       rx="5.873"
       height="11.746"
       style="fill:#f9f9f9;stroke-width:0.02822222000000000;stroke-miterlimit:4;stroke-dasharray:none;stroke:none;stroke-opacity:1;fill-opacity:1"
       id="rect42" />
    <g
       style="fill:#8dd35f"
       id="g18"
       transform="translate(0.04557371,-0.24847511)">
      <path
         d="m 9.4363776,5.3622223 c -0.2438301,0 -0.4052663,0.2139379 -0.4052663,0.4777089 l 0,1.8668045 c 0,0.2638615 0.1614362,0.4777089 0.4052663,0.4777089 0.2438302,0 0.4414004,-0.2138293 0.4414004,-0.4777089 l 0,-1.8668045 C 9.8777953,5.5761602 9.6802251,5.3622223 9.4363776,5.3622223 z m -5.3259503,0 c -0.2439679,0 -0.4415383,0.2139379 -0.4415383,0.4777089 l 0,1.8668045 c 0,0.2638615 0.1975528,0.4777089 0.4415383,0.4777089 0.2439336,0 0.4051284,-0.2138293 0.4051284,-0.4777089 l 0,-1.8668045 C 4.5154189,5.5761602 4.3542748,5.3622223 4.1104273,5.3622223 z"
         id="path20"
         inkscape:connector-curvature="0"
         sodipodi:nodetypes="ssssscsssssscs"
         style="fill:#8dd35f" />
      <path
         style="fill:#8dd35f"
         d="m 4.79774,5.36218 c 0.00322,1.1264326 -0.00653,2.2531631 0.00505,3.379408 0.019395,0.2092159 0.2354228,0.3396598 0.4316901,0.2895234 0.1366557,0 0.2733115,0 0.4099672,0 0.013176,0.3986168 -0.030105,0.8022818 0.029759,1.1973786 0.1080279,0.283844 0.5272995,0.261378 0.6926724,0.04534 0.1971732,-0.222235 0.1038818,-0.5359874 0.1242328,-0.8052443 0,-0.1458251 0,-0.2916502 0,-0.4374753 0.1881481,0 0.3762961,0 0.5644442,0 0.00877,0.3513283 -0.018419,0.7053461 0.015274,1.0549256 0.082127,0.279462 0.4614937,0.465919 0.7100116,0.277748 0.2010671,-0.256333 0.095066,-0.5975353 0.1213823,-0.8951401 0,-0.1458445 0,-0.291689 0,-0.4375335 0.2645401,-0.040305 0.6681115,0.1236505 0.8068375,-0.192157 0.0791,-0.2489012 0.026378,-0.5140688 0.03976,-0.7712176 0,-0.9018533 0,-1.8037066 0,-2.7055599 -1.3170277,3.1e-6 -2.6340582,-2.5e-6 -3.9510841,6.1e-6 z m 1.9423546,1.3584912 c 0.088686,0.020662 0.1996468,-0.1241319 0.1621078,0.049717 0.024369,0.1413341 0.2849425,0.321264 0.3599143,0.1319069 -0.3378837,0.056016 -0.1177315,0.0055 -0.41716,0.1705176 -0.00789,0.1144294 -0.2620716,0.1241394 -0.160647,0.1341454 0.3292236,-0.064121 -0.3461651,-0.1645682 -0.0071,-0.142355 0.099355,0.1259731 0.7131625,0.045513 0.6255046,0.074842 -0.1250915,0.00806 -0.2612992,0.010963 -0.057623,0.016186 0.1085544,-0.00738 0.4015936,0.1440834 0.1410417,0.030575 C 6.9996362,7.0082009 7.3488515,7.0651748 6.9547912,6.9041407 7.3097667,7.0763957 6.9302223,7.0138425 7.3041927,7.1423219 7.1485795,7.0491716 6.8829759,6.8226533 6.7339191,7.0124056 6.6717271,7.1686542 6.8126505,6.4297206 6.6619367,6.5534675 6.7495604,6.4296522 6.9013217,7.2243836 6.9251485,7.1009949 6.8215917,7.1627998 6.6364308,6.6348134 6.7872004,6.5474061 6.8995435,6.511864 7.4580693,7.2134161 7.378362,7.060005 7.1042262,6.9589467 7.1230165,6.9158761 6.8823073,6.9910726 6.9889137,6.8766293 6.9819866,7.125089 6.8116505,7.1484549 6.7709482,7.4175509 6.6808545,7.0003405 6.8053412,7.0841123 7.0089932,7.1078171 7.1061292,7.29549 7.0204958,7.061349 6.8679027,6.9384921 7.188654,6.7970559 7.1435899,6.8487144 7.0417257,6.7090795 6.7824401,6.7240599 6.7126421,6.5453112 c -0.068973,-0.00977 -0.1049715,0.1551592 0.027452,0.17536 z m 0.033185,-0.00913 c -0.3034833,-0.03714 0.1830273,0.046708 0.4425776,0.2380325 0.2173193,0.1946904 -0.04585,0.409451 -0.063259,0.092803 C 7.1450808,6.8530451 7.51704,7.176691 7.332941,7.1851037 z"
         id="path22"
         inkscape:connector-curvature="0"
         sodipodi:nodetypes="cccccccccccccccccccccccccccccccccccccccccccccc" />
      <path
         d="M 7.7098227,3.7247438 8.074799,3.2049284 C 8.096378,3.1740104 8.091075,3.1335334 8.062753,3.1143164 8.034379,3.0952334 7.993976,3.1046064 7.972188,3.1355924 L 7.5930349,3.6754289 C 7.3433735,3.5788246 7.0658064,3.5250569 6.7733156,3.5250569 c -0.2924041,0 -0.5701272,0.053768 -0.8197886,0.150372 L 5.5743723,3.1355929 c -0.021787,-0.030918 -0.062207,-0.040393 -0.090564,-0.021276 -0.028356,0.019117 -0.033729,0.05966 -0.012063,0.090612 l 0.364977,0.5198156 C 5.256698,3.9894809 4.849603,4.4926906 4.7977779,5.0800001 H 8.7488891 C 8.6970469,4.4926906 8.2899518,3.9894976 7.7098236,3.7247438 z M 5.9398858,4.5438636 c -0.1207231,0 -0.2186879,-0.096002 -0.2186879,-0.2145015 0,-0.1183156 0.097879,-0.2144178 0.2186879,-0.2144178 0.1208092,0 0.218445,0.096102 0.218445,0.2144178 0,0.1184161 -0.097757,0.2145015 -0.218445,0.2145015 z m 1.6941752,0 c -0.1208096,0 -0.2185491,-0.096002 -0.2185491,-0.2145015 0,-0.1183156 0.097757,-0.2144178 0.2185491,-0.2144178 0.1208269,0 0.2185665,0.096102 0.2185665,0.2144178 0,0.1184161 -0.097757,0.2145015 -0.2185665,0.2145015 z"
         id="path24-2"
         inkscape:connector-curvature="0"
         style="fill:#8dd35f" />
    </g>
    <rect
       style="fill:#8dd35f;fill-opacity:1;stroke:none"
       id="rect3119"
       width="3.7118645"
       height="4.0677967"
       x="23.44068"
       y="21.711863"
       transform="scale(0.28222223,0.28222223)"
       rx="5.8730001" />
    <rect
       style="fill:#8dd35f;fill-opacity:1;stroke:none"
       id="rect3121"
       width="6.762712"
       height="5.5932207"
       x="21.305086"
       y="20.542372"
       transform="scale(0.28222223,0.28222223)"
       rx="1.6574912" />
    <ellipse
       sodipodi:ry="2.0000615"
       sodipodi:rx="2.0013857"
       sodipodi:cy="-182.23662"
       sodipodi:cx="713.8111"
       style="fill:none;stroke:none"
       id="ellipse3270"
       cx="713.8111"
       cy="-182.23662"
       rx="2.0013857"
       ry="2.0000615"
       transform="matrix(0,0.14111112,-0.14111112,0,-18.535415,-89.650139)"
       d="m 715.81248,-182.23662 c 0,1.10461 -0.89605,2.00006 -2.00138,2.00006 -1.10534,0 -2.00139,-0.89545 -2.00139,-2.00006 0,-1.1046 0.89605,-2.00006 2.00139,-2.00006 1.10533,0 2.00138,0.89546 2.00138,2.00006 z" />
    <path
       inkscape:connector-curvature="0"
       style="fill:#333333;fill-opacity:0.57207211;stroke:none"
       d="m 10.194708,8.9877555 c -0.415635,2.5e-5 -0.8285235,0.171207 -1.1222051,0.465088 -0.2936813,0.293881 -0.4646744,0.7068395 -0.4646744,1.1224125 0,0.415573 0.1709931,0.828531 0.4646744,1.122412 0.2936816,0.293881 0.7065701,0.465063 1.1222051,0.465088 0.415636,2.5e-5 0.82877,-0.170998 1.122826,-0.464881 0.294056,-0.293883 0.465294,-0.707 0.465294,-1.122619 0,-0.415619 -0.171238,-0.8287365 -0.465294,-1.1226195 -0.294056,-0.293883 -0.70719,-0.464906 -1.122826,-0.464881 z m 2.12e-4,0.635 c 0.249381,-1.5e-5 0.49722,0.102723 0.673654,0.279053 0.176429,0.1763305 0.279255,0.4240765 0.279255,0.6734475 0,0.249372 -0.102826,0.497118 -0.27926,0.673447 -0.176433,0.17633 -0.424273,0.279068 -0.673654,0.279053 C 9.9455336,11.527742 9.6976766,11.425032 9.5214679,11.248703 9.3452592,11.072374 9.2428286,10.8246 9.2428286,10.575256 c 0,-0.249344 0.1024306,-0.497118 0.2786393,-0.6734475 0.1762087,-0.176329 0.4240657,-0.279038 0.6734471,-0.279053 z"
       id="ellipse3292" />
    <rect
       style="fill:#333333;fill-opacity:0.57207211;fill-rule:evenodd;stroke:none"
       id="rect3307"
       width="0.74083334"
       height="0.21166676"
       x="9.8249111"
       y="8.9877748" />
    <ellipse
       sodipodi:ry="1.0000308"
       sodipodi:rx="1.0006928"
       sodipodi:cy="699.8125"
       sodipodi:cx="204.23592"
       transform="matrix(0.10583334,0,0,0.10583334,-11.419714,-64.969903)"
       style="fill:#333333;fill-opacity:0.57207211;stroke:none"
       id="ellipse3311"
       cx="204.23592"
       cy="699.8125"
       rx="1.0006928"
       ry="1.0000308"
       d="m 205.23661,699.8125 c 0,0.5523 -0.44803,1.00003 -1.00069,1.00003 -0.55267,0 -1.0007,-0.44773 -1.0007,-1.00003 0,-0.5523 0.44803,-1.00003 1.0007,-1.00003 0.55266,0 1.00069,0.44773 1.00069,1.00003 z" />
    <path
       style="fill:#333333;fill-opacity:0.57207211;fill-rule:evenodd;stroke:none"
       d="m 10.036578,8.6703014 0.317499,0 0.211667,0.3174541 -0.7408332,0 z"
       id="rect3313"
       inkscape:connector-curvature="0"
       sodipodi:nodetypes="ccccc" />
    <rect
       y="-12.162801"
       x="9.8249111"
       height="0.21166676"
       width="0.74083334"
       id="rect3328"
       style="fill:#333333;fill-opacity:0.57207211;fill-rule:evenodd;stroke:none"
       transform="scale(1,-1)" />
    <ellipse
       sodipodi:ry="1.0000308"
       sodipodi:rx="1.0006928"
       sodipodi:cy="727.8125"
       sodipodi:cx="204.23592"
       transform="matrix(0.10583334,0,0,0.10583334,-11.419714,-64.969903)"
       ry="1.0000308"
       rx="1.0006928"
       cy="727.8125"
       cx="204.23592"
       id="ellipse3318"
       style="fill:#333333;fill-opacity:0.57207211;stroke:none"
       d="m 205.23661,727.8125 c 0,0.5523 -0.44803,1.00003 -1.00069,1.00003 -0.55267,0 -1.0007,-0.44773 -1.0007,-1.00003 0,-0.5523 0.44803,-1.00003 1.0007,-1.00003 0.55266,0 1.00069,0.44773 1.00069,1.00003 z" />
    <path
       sodipodi:nodetypes="ccccc"
       inkscape:connector-curvature="0"
       id="path3330"
       d="m 10.036578,12.480256 0.317499,0 0.211667,-0.317455 -0.7408332,0 z"
       style="fill:#333333;fill-opacity:0.57207211;fill-rule:evenodd;stroke:none" />
    <rect
       y="-5.1292748"
       x="13.885703"
       height="0.21166676"
       width="0.74083334"
       id="rect3332"
       style="fill:#333333;fill-opacity:0.57207211;fill-rule:evenodd;stroke:none"
       transform="matrix(0.5,0.8660254,-0.8660254,0.5,0,0)" />
    <path
       sodipodi:nodetypes="ccccc"
       inkscape:connector-curvature="0"
       id="path3334"
       d="m 11.765711,9.4853075 0.15875,0.274964 -0.16909,0.3420355 -0.370416,-0.6415805 z"
       style="fill:#333333;fill-opacity:0.57207211;fill-rule:evenodd;stroke:none" />
    <rect
       transform="matrix(0.5,0.8660254,0.8660254,-0.5,0,0)"
       style="fill:#333333;fill-opacity:0.57207211;fill-rule:evenodd;stroke:none"
       id="rect3336"
       width="0.74083334"
       height="0.21166676"
       x="13.885703"
       y="1.9542495" />
    <path
       style="fill:#333333;fill-opacity:0.57207211;fill-rule:evenodd;stroke:none"
       d="m 8.4661939,11.390285 0.15875,0.274963 0.3807565,0.02458 -0.3704165,-0.641581 z"
       id="path3338"
       inkscape:connector-curvature="0"
       sodipodi:nodetypes="ccccc" />
    <rect
       transform="matrix(-0.5,0.8660254,-0.8660254,-0.5,0,0)"
       style="fill:#333333;fill-opacity:0.57207211;fill-rule:evenodd;stroke:none"
       id="rect3340"
       width="0.74083334"
       height="0.21166676"
       x="3.6903794"
       y="-15.704553" />
    <path
       style="fill:#333333;fill-opacity:0.57207211;fill-rule:evenodd;stroke:none"
       d="m 11.924461,11.390285 -0.15875,0.274963 -0.380756,0.02458 0.370415,-0.641581 z"
       id="path3342"
       inkscape:connector-curvature="0"
       sodipodi:nodetypes="ccccc" />
    <rect
       y="12.529528"
       x="3.6903794"
       height="0.21166676"
       width="0.74083334"
       id="rect3344"
       style="fill:#333333;fill-opacity:0.57207211;fill-rule:evenodd;stroke:none"
       transform="matrix(-0.5,0.8660254,0.8660254,0.5,0,0)" />
    <path
       sodipodi:nodetypes="ccccc"
       inkscape:connector-curvature="0"
       id="path3346"
       d="m 8.6249439,9.4853075 -0.15875,0.274964 0.16909,0.3420355 0.3704165,-0.6415815 z"
       style="fill:#333333;fill-opacity:0.57207211;fill-rule:evenodd;stroke:none" />
    <ellipse
       sodipodi:ry="1.0000308"
       sodipodi:rx="1.0006928"
       sodipodi:cy="166.03214"
       sodipodi:cx="720.29742"
       ry="1.0000308"
       rx="1.0006928"
       cy="166.03214"
       cx="720.29742"
       id="ellipse3324"
       style="fill:#333333;fill-opacity:0.57207211;stroke:none"
       transform="matrix(0.05291667,0.09165436,-0.09165436,0.05291667,-11.419714,-64.969903)"
       d="m 721.29812,166.03214 c 0,0.5523 -0.44803,1.00003 -1.0007,1.00003 -0.55266,0 -1.00069,-0.44773 -1.00069,-1.00003 0,-0.55231 0.44803,-1.00004 1.00069,-1.00004 0.55267,0 1.0007,0.44773 1.0007,1.00004 z" />
    <ellipse
       sodipodi:ry="1.0000308"
       sodipodi:rx="1.0006928"
       sodipodi:cy="194.03214"
       sodipodi:cx="720.29742"
       style="fill:#333333;fill-opacity:0.57207211;stroke:none"
       id="ellipse3326"
       cx="720.29742"
       cy="194.03214"
       rx="1.0006928"
       ry="1.0000308"
       transform="matrix(0.05291667,0.09165436,-0.09165436,0.05291667,-11.419714,-64.969903)"
       d="m 721.29812,194.03214 c 0,0.5523 -0.44803,1.00003 -1.0007,1.00003 -0.55266,0 -1.00069,-0.44773 -1.00069,-1.00003 0,-0.55231 0.44803,-1.00004 1.00069,-1.00004 0.55267,0 1.0007,0.44773 1.0007,1.00004 z" />
    <ellipse
       sodipodi:ry="1.0000308"
       sodipodi:rx="1.0006928"
       sodipodi:cy="-547.78009"
       sodipodi:cx="-516.06201"
       transform="matrix(0.05291667,-0.09165436,-0.09165436,-0.05291667,-11.419714,-64.969903)"
       style="fill:#333333;fill-opacity:0.57207211;stroke:none"
       id="ellipse3348"
       cx="-516.06201"
       cy="-547.78009"
       rx="1.0006928"
       ry="1.0000308"
       d="m -515.06132,-547.78009 c 0,0.5523 -0.44802,1.00003 -1.00069,1.00003 -0.55267,0 -1.00069,-0.44773 -1.00069,-1.00003 0,-0.5523 0.44802,-1.00003 1.00069,-1.00003 0.55267,0 1.00069,0.44773 1.00069,1.00003 z" />
    <ellipse
       sodipodi:ry="1.0000308"
       sodipodi:rx="1.0006928"
       sodipodi:cy="-519.78009"
       sodipodi:cx="-516.06201"
       transform="matrix(0.05291667,-0.09165436,-0.09165436,-0.05291667,-11.419714,-64.969903)"
       ry="1.0000308"
       rx="1.0006928"
       cy="-519.78009"
       cx="-516.06201"
       id="ellipse3350"
       style="fill:#333333;fill-opacity:0.57207211;stroke:none"
       d="m -515.06132,-519.78009 c 0,0.5523 -0.44802,1.00003 -1.00069,1.00003 -0.55267,0 -1.00069,-0.44773 -1.00069,-1.00003 0,-0.5523 0.44802,-1.00003 1.00069,-1.00003 0.55267,0 1.00069,0.44773 1.00069,1.00003 z" />
  </g>
</svg>
