<?xml version="1.0" encoding="UTF-8" standalone="no"?>
<svg
   xmlns:dc="http://purl.org/dc/elements/1.1/"
   xmlns:cc="http://creativecommons.org/ns#"
   xmlns:rdf="http://www.w3.org/1999/02/22-rdf-syntax-ns#"
   xmlns:svg="http://www.w3.org/2000/svg"
   xmlns="http://www.w3.org/2000/svg"
   xmlns:xlink="http://www.w3.org/1999/xlink"
   xmlns:sodipodi="http://sodipodi.sourceforge.net/DTD/sodipodi-0.dtd"
   xmlns:inkscape="http://www.inkscape.org/namespaces/inkscape"
   width="48"
   viewBox="0 0 13.546667 13.546667"
   height="48"
   id="svg2"
   version="1.1"
   inkscape:version="0.48.4 r9939"
   sodipodi:docname="help.svg">
  <metadata
     id="metadata62">
    <rdf:RDF>
      <cc:Work
         rdf:about="">
        <dc:format>image/svg+xml</dc:format>
        <dc:type
           rdf:resource="http://purl.org/dc/dcmitype/StillImage" />
        <dc:title></dc:title>
      </cc:Work>
    </rdf:RDF>
  </metadata>
  <sodipodi:namedview
     pagecolor="#ffffff"
     bordercolor="#666666"
     borderopacity="1"
     objecttolerance="10"
     gridtolerance="10"
     guidetolerance="10"
     inkscape:pageopacity="0"
     inkscape:pageshadow="2"
     inkscape:window-width="1366"
     inkscape:window-height="716"
     id="namedview60"
     showgrid="false"
     inkscape:zoom="2.4583333"
     inkscape:cx="-25.976843"
     inkscape:cy="7.6485472"
     inkscape:window-x="0"
     inkscape:window-y="28"
     inkscape:window-maximized="1"
     inkscape:current-layer="g38" />
  <defs
     id="defs4">
    <clipPath
       clipPathUnits="userSpaceOnUse"
       id="clipPath6">
      <rect
         width="20"
         x="1"
         y="1"
         rx="2"
         height="20"
         style="fill:#fff;fill-rule:evenodd"
         id="rect8" />
    </clipPath>
    <clipPath
       clipPathUnits="userSpaceOnUse"
       id="clipPath10">
      <rect
         width="84"
         x="6"
         y="6"
         rx="6"
         height="84"
         style="fill:#fff"
         id="rect12" />
    </clipPath>
    <clipPath
       clipPathUnits="userSpaceOnUse"
       id="clipPath14">
      <path
         d="M 54.1,12.5 12.9,54.7 C -2.7,70.3 23,69 32.3,74.9 36.6,77.7 18.5,81.3 22.2,85 c 3.6,3.7 21.7,7.1 25.3,10.7 3.6,3.7 -7.3,7.6 -3.7,11.3 3.5,3.7 11.9,0.2 13.4,8.6 1.1,6.2 15.4,3.1 21.8,-2.2 4,-3.4 -6.9,-3.4 -3.3,-7.1 9,-9.1 17,-4.1 20.3,-12.5 1.8,-4.5 -13.6,-7.7 -9.5,-10.6 9.8,-6.9 45.8,-10.4 29.2,-27 L 73,12.5 c -5.3,-5 -14,-5 -18.9,0 z m -9.9,64.7 c 0.9,0 30.8,4 19.3,7.1 -4.4,1.2 -24.6,-7.1 -19.3,-7.1 z m 57.2,16.6 c 0,2.1 16.3,3.3 15.4,-0.5 -1.3,-6.4 -13.6,-5.9 -15.4,0.5 z m -69.5,11.1 c 3.7,3.2 9.3,-0.7 11.1,-5.2 -3.6,-4.7 -16.9,0.3 -11.1,5.2 z m 67.5,-6.7 c -4.6,4.2 0.8,8.6 5.3,5.7 1.2,-0.8 -0.1,-4.7 -5.3,-5.7 z"
         id="path16" />
    </clipPath>
    <clipPath
       clipPathUnits="userSpaceOnUse"
       id="clipPath18">
      <rect
         width="96"
         x="-100"
         y="-0"
         height="96"
         style="fill:#fff"
         id="rect20" />
    </clipPath>
    <clipPath
       clipPathUnits="userSpaceOnUse"
       id="clipPath22">
      <path
         d="M 95.311,352.545 L 476.403,352.545 L 476.403,71.4229 L 95.311,71.4229 L 95.311,352.545 z"
         id="path24" />
    </clipPath>
    <clipPath
       clipPathUnits="userSpaceOnUse"
       id="clipPath26">
      <path
         d="M 93.311,354.545 L 478.511,354.545 L 478.511,69.1846 L 93.311,69.1846 L 93.311,354.545 z"
         id="path28" />
    </clipPath>
    <clipPath
       clipPathUnits="userSpaceOnUse"
       id="clipPath30">
      <path
         d="M 93.311,69.185 L 478.511,69.185 L 478.511,354.545 L 93.311,354.545 L 93.311,69.185 z"
         id="path32" />
    </clipPath>
    <clipPath
       clipPathUnits="userSpaceOnUse"
       id="clipPath34">
      <path
         d="M 92.311,355.545 L 479.511,355.545 L 479.511,68.1846 L 92.311,68.1846 L 92.311,355.545 z"
         id="path36" />
    </clipPath>
    <linearGradient
       x1="27.310438"
       y1="2.9783683"
       x2="43.830559"
       y2="49.820267"
       id="linearGradient5031"
       xlink:href="#linearGradient563"
       gradientUnits="userSpaceOnUse"
       gradientTransform="matrix(0.8031806,0,0,0.8923175,-33.085487,-2.1007032)" />
    <linearGradient
       id="linearGradient563">
      <stop
         style="stop-color:#d9cce6;stop-opacity:1.0000000;"
         offset="0.0000000"
         id="stop564" />
      <stop
         style="stop-color:#73667f;stop-opacity:1.0000000;"
         offset="1.0000000"
         id="stop565" />
    </linearGradient>
  </defs>
  <g
     style="fill-rule:evenodd"
     id="g38">
    <rect
       width="11.746"
       x=".9"
       y=".901"
       rx="5.873"
       height="11.746"
       style="fill:#44a5ca;stroke-width:0.02822222000000000;stroke-miterlimit:4;stroke-dasharray:none;stroke:none;stroke-opacity:1;fill-opacity:1"
       id="rect42" />
    <path
       inkscape:connector-curvature="0"
       style="color:#000000;fill:#88c9e0;fill-opacity:1"
       d="m 6.7025262,8.798288 c -2.610162,0 -4.191609,0.304475 -5.159375,0.705556 0.989514,1.885563 2.962408,3.166181 5.247569,3.166181 2.292185,0 4.2699168,-1.288737 5.2563898,-3.18382 C 11.058638,9.096739 9.4295322,8.798288 6.7025262,8.798288 z"
       id="path3805" />
    <path
       transform="matrix(-0.04022927,0.01069209,0.0063086,0.04209484,2.2005688,15.242117)"
       d="m -62.755724,-226.57303 a 25.986174,25.986174 0 1 1 -51.972346,0 25.986174,25.986174 0 1 1 51.972346,0 z"
       sodipodi:ry="25.986174"
       sodipodi:rx="25.986174"
       sodipodi:cy="-226.57303"
       sodipodi:cx="-88.741898"
       id="path5385"
       style="color:#000000;fill:#1c202a;fill-opacity:1;fill-rule:evenodd;stroke:none;stroke-width:9.69999981;marker:none;visibility:visible;display:inline;overflow:visible;enable-background:accumulate"
       sodipodi:type="arc" />
    <path
       transform="matrix(0.01646411,0.02325458,-0.03182661,0.02306477,-0.68019713,13.547147)"
       d="m -152.73506,-237.26802 a 8.3085051,9.4575529 0 1 1 -16.61701,0 8.3085051,9.4575529 0 1 1 16.61701,0 z"
       sodipodi:ry="9.4575529"
       sodipodi:rx="8.3085051"
       sodipodi:cy="-237.26802"
       sodipodi:cx="-161.04356"
       id="path5387"
       style="opacity:0.76381908;color:#000000;fill:#ffffff;fill-opacity:1;fill-rule:evenodd;stroke:none;stroke-width:9.69999981;marker:none;visibility:visible;display:inline;overflow:visible;enable-background:accumulate"
       sodipodi:type="arc" />
    <path
       sodipodi:type="arc"
       style="color:#000000;fill:#1c202a;fill-opacity:1;fill-rule:evenodd;stroke:none;stroke-width:9.69999981;marker:none;visibility:visible;display:inline;overflow:visible;enable-background:accumulate"
       id="path5391"
       sodipodi:cx="-88.741898"
       sodipodi:cy="-226.57303"
       sodipodi:rx="25.986174"
       sodipodi:ry="25.986174"
       d="m -62.755724,-226.57303 a 25.986174,25.986174 0 1 1 -51.972346,0 25.986174,25.986174 0 1 1 51.972346,0 z"
       transform="matrix(0.04022927,0.01069209,-0.0063086,0.04209484,11.561895,15.242117)" />
    <path
       sodipodi:type="arc"
       style="opacity:0.76381908;color:#000000;fill:#ffffff;fill-opacity:1;fill-rule:evenodd;stroke:none;stroke-width:9.69999981;marker:none;visibility:visible;display:inline;overflow:visible;enable-background:accumulate"
       id="path5393"
       sodipodi:cx="-161.04356"
       sodipodi:cy="-237.26802"
       sodipodi:rx="8.3085051"
       sodipodi:ry="9.4575529"
       d="m -152.73506,-237.26802 a 8.3085051,9.4575529 0 1 1 -16.61701,0 8.3085051,9.4575529 0 1 1 16.61701,0 z"
       transform="matrix(-0.02437392,-0.0147565,0.01998389,-0.03384614,9.9399948,-6.0774329)" />
    <path
       style="color:#000000;fill:#f1d000;fill-opacity:1"
       inkscape:connector-curvature="0"
       d="m 6.7659108,7.1602145 0,0.0011 c 0.02393,0.0019 0.323885,0.02732 0.658166,0.08064 0.320716,0.05113 0.520996,0.129016 0.520996,0.129016 0,0 -0.02753,0.249702 -0.489534,0.51859 -0.346501,0.201659 -0.541184,0.23725 -0.650615,0.239346 -0.01508,0 -0.02731,-0.0011 -0.03901,-0.0017 -4.01e-4,-2.6e-5 -8.61e-4,2.7e-5 -0.0013,0 -0.09727,0.0059 -0.294444,-0.0033 -0.697181,-0.237657 -0.461997,-0.268867 -0.489531,-0.518578 -0.489531,-0.518578 0,0 0.20028,-0.07786 0.520994,-0.129007 0.334283,-0.05331 0.634222,-0.07865 0.658168,-0.08064 l 0,-0.0011 c 0,0 0.0036,-8e-6 0.0038,0 2.8e-4,-1.8e-5 0.005,0 0.005,0 z"
       id="path3799" />
    <path
       style="color:#000000;fill:#f1d000;fill-opacity:1"
       inkscape:connector-curvature="0"
       d="m 5.3503948,7.3394305 c 0,0 0.03265,-0.48405 0.583469,-1.004902 0.550821,-0.520851 0.77888,-0.468238 0.874905,-0.455085 0.09602,0.01315 -0.02401,0.657649 -0.02401,0.657649 l -0.01801,1.210094 c 0,0 -0.380331,-0.05024 -0.795403,-0.157782 -0.382373,-0.09907 -0.620959,-0.249974 -0.620959,-0.249974 z"
       id="path3801" />
    <path
       style="color:#000000;fill:#f1d000;fill-opacity:1"
       inkscape:connector-curvature="0"
       d="m 6.8132698,5.8712225 c 0.130471,0.0041 0.362582,0.07301 0.775698,0.463644 0.550821,0.520848 0.583649,1.004564 0.583649,1.004564 0,0 -0.238784,0.150844 -0.621157,0.249903 -0.415072,0.10754 -0.795206,0.157853 -0.795206,0.157853 l -0.0075,-0.504764 0,-1.366268 c 0.01846,-0.0022 0.03885,-0.0057 0.06452,-0.0049 z"
       id="path3803" />
  </g>
</svg>
