<?xml version="1.0" encoding="UTF-8" standalone="no"?>
<svg
   xmlns:dc="http://purl.org/dc/elements/1.1/"
   xmlns:cc="http://creativecommons.org/ns#"
   xmlns:rdf="http://www.w3.org/1999/02/22-rdf-syntax-ns#"
   xmlns:svg="http://www.w3.org/2000/svg"
   xmlns="http://www.w3.org/2000/svg"
   xmlns:sodipodi="http://sodipodi.sourceforge.net/DTD/sodipodi-0.dtd"
   xmlns:inkscape="http://www.inkscape.org/namespaces/inkscape"
   width="48"
   viewBox="0 0 13.546667 13.546667"
   height="48"
   id="svg2"
   version="1.1"
   inkscape:version="0.48.4 r9939"
   sodipodi:docname="base.svg">
  <metadata
     id="metadata62">
    <rdf:RDF>
      <cc:Work
         rdf:about="">
        <dc:format>image/svg+xml</dc:format>
        <dc:type
           rdf:resource="http://purl.org/dc/dcmitype/StillImage" />
        <dc:title></dc:title>
      </cc:Work>
    </rdf:RDF>
  </metadata>
  <sodipodi:namedview
     pagecolor="#ffffff"
     bordercolor="#666666"
     borderopacity="1"
     objecttolerance="10"
     gridtolerance="10"
     guidetolerance="10"
     inkscape:pageopacity="0"
     inkscape:pageshadow="2"
     inkscape:window-width="1366"
     inkscape:window-height="716"
     id="namedview60"
     showgrid="false"
     inkscape:zoom="3.4766082"
     inkscape:cx="142.72329"
     inkscape:cy="4.6168333"
     inkscape:window-x="0"
     inkscape:window-y="28"
     inkscape:window-maximized="1"
     inkscape:current-layer="g38" />
  <defs
     id="defs4">
    <clipPath
       clipPathUnits="userSpaceOnUse"
       id="clipPath6">
      <rect
         width="20"
         x="1"
         y="1"
         rx="2"
         height="20"
         style="fill:#fff;fill-rule:evenodd"
         id="rect8" />
    </clipPath>
    <clipPath
       clipPathUnits="userSpaceOnUse"
       id="clipPath10">
      <rect
         width="84"
         x="6"
         y="6"
         rx="6"
         height="84"
         style="fill:#fff"
         id="rect12" />
    </clipPath>
    <clipPath
       clipPathUnits="userSpaceOnUse"
       id="clipPath14">
      <path
         d="M 54.1,12.5 12.9,54.7 C -2.7,70.3 23,69 32.3,74.9 36.6,77.7 18.5,81.3 22.2,85 c 3.6,3.7 21.7,7.1 25.3,10.7 3.6,3.7 -7.3,7.6 -3.7,11.3 3.5,3.7 11.9,0.2 13.4,8.6 1.1,6.2 15.4,3.1 21.8,-2.2 4,-3.4 -6.9,-3.4 -3.3,-7.1 9,-9.1 17,-4.1 20.3,-12.5 1.8,-4.5 -13.6,-7.7 -9.5,-10.6 9.8,-6.9 45.8,-10.4 29.2,-27 L 73,12.5 c -5.3,-5 -14,-5 -18.9,0 z m -9.9,64.7 c 0.9,0 30.8,4 19.3,7.1 -4.4,1.2 -24.6,-7.1 -19.3,-7.1 z m 57.2,16.6 c 0,2.1 16.3,3.3 15.4,-0.5 -1.3,-6.4 -13.6,-5.9 -15.4,0.5 z m -69.5,11.1 c 3.7,3.2 9.3,-0.7 11.1,-5.2 -3.6,-4.7 -16.9,0.3 -11.1,5.2 z m 67.5,-6.7 c -4.6,4.2 0.8,8.6 5.3,5.7 1.2,-0.8 -0.1,-4.7 -5.3,-5.7 z"
         id="path16" />
    </clipPath>
    <clipPath
       clipPathUnits="userSpaceOnUse"
       id="clipPath18">
      <rect
         width="96"
         x="-100"
         y="-0"
         height="96"
         style="fill:#fff"
         id="rect20" />
    </clipPath>
    <clipPath
       clipPathUnits="userSpaceOnUse"
       id="clipPath22">
      <path
         d="M 95.311,352.545 L 476.403,352.545 L 476.403,71.4229 L 95.311,71.4229 L 95.311,352.545 z"
         id="path24" />
    </clipPath>
    <clipPath
       clipPathUnits="userSpaceOnUse"
       id="clipPath26">
      <path
         d="M 93.311,354.545 L 478.511,354.545 L 478.511,69.1846 L 93.311,69.1846 L 93.311,354.545 z"
         id="path28" />
    </clipPath>
    <clipPath
       clipPathUnits="userSpaceOnUse"
       id="clipPath30">
      <path
         d="M 93.311,69.185 L 478.511,69.185 L 478.511,354.545 L 93.311,354.545 L 93.311,69.185 z"
         id="path32" />
    </clipPath>
    <clipPath
       clipPathUnits="userSpaceOnUse"
       id="clipPath34">
      <path
         d="M 92.311,355.545 L 479.511,355.545 L 479.511,68.1846 L 92.311,68.1846 L 92.311,355.545 z"
         id="path36" />
    </clipPath>
  </defs>
  <g
     style="fill-rule:evenodd"
     id="g38">
    <rect
       width="11.746"
       x=".9"
       y=".901"
       rx="5.873"
       height="11.746"
       style="fill:#f2f2f2;stroke-width:0.02822222000000000;stroke-miterlimit:4;stroke-dasharray:none;stroke:none;stroke-opacity:1;fill-opacity:1"
       id="rect42" />
    <rect
       style="fill:#5b5e6c;fill-opacity:1;fill-rule:evenodd;stroke:none"
       id="rect3425"
       width="1.128889"
       height="1.128889"
       x="3.0885394"
       y="3.0785723"
       ry="0.56444448" />
    <circle
       sodipodi:ry="1.5"
       sodipodi:rx="1.5"
       sodipodi:cy="1015.8622"
       sodipodi:cx="42.5"
       transform="matrix(0.28222223,0,0,0.28222223,-8.3414585,-283.05588)"
       cy="1015.8622"
       cx="42.5"
       id="circle3417"
       style="fill:#222021;fill-opacity:1;fill-rule:evenodd;stroke:none"
       r="1.5"
       d="m 44,1015.8622 c 0,0.8284 -0.671573,1.5 -1.5,1.5 -0.828427,0 -1.5,-0.6716 -1.5,-1.5 0,-0.8284 0.671573,-1.5 1.5,-1.5 0.828427,0 1.5,0.6716 1.5,1.5 z" />
    <circle
       sodipodi:ry="0.5"
       sodipodi:rx="0.5"
       sodipodi:cy="1014.8622"
       sodipodi:cx="43.5"
       transform="matrix(0.28222223,0,0,0.28222223,-8.3414585,-283.05588)"
       r="0.5"
       style="fill:#5b5e6c;fill-opacity:1;fill-rule:evenodd;stroke:none"
       id="circle3419"
       cx="43.5"
       cy="1014.8622"
       d="m 44,1014.8622 c 0,0.2761 -0.223858,0.5 -0.5,0.5 -0.276142,0 -0.5,-0.2239 -0.5,-0.5 0,-0.2762 0.223858,-0.5 0.5,-0.5 0.276142,0 0.5,0.2238 0.5,0.5 z" />
    <rect
       style="fill:#ffffff;fill-opacity:1;fill-rule:evenodd;stroke:none"
       id="rect3427"
       width="6.7733335"
       height="6.7733335"
       x="3.5832019"
       y="3.7469811"
       ry="3.3866668" />
    <circle
       sodipodi:ry="1"
       sodipodi:rx="1"
       sodipodi:cy="1028.3622"
       sodipodi:cx="1"
       transform="matrix(0.28222223,0,0,0.28222223,0.19653455,-282.66969)"
       style="fill:none;stroke:none"
       id="circle3308"
       cx="1"
       cy="1028.3622"
       r="1"
       d="m 2,1028.3622 c 0,0.5523 -0.4477153,1 -1,1 -0.55228475,0 -1,-0.4477 -1,-1 0,-0.5523 0.44771525,-1 1,-1 0.5522847,0 1,0.4477 1,1 z" />
    <rect
       ry="2.8222222"
       y="4.3114257"
       x="4.1476474"
       height="5.6444445"
       width="5.6444445"
       id="rect3429"
       style="fill:#000000;fill-opacity:1;fill-rule:evenodd;stroke:none" />
    <rect
       style="fill:#435564;fill-opacity:1;fill-rule:evenodd;stroke:none"
       id="rect3431"
       width="4.5155559"
       height="4.5155559"
       x="4.7120891"
       y="4.8758702"
       ry="2.2577779" />
    <rect
       ry="1.6933334"
       y="5.4403138"
       x="5.2765346"
       height="3.3866668"
       width="3.3866668"
       id="rect3433"
       style="fill:#103151;fill-opacity:1;fill-rule:evenodd;stroke:none" />
    <rect
       style="fill:#202332;fill-opacity:1;fill-rule:evenodd;stroke:none"
       id="rect3435"
       width="2.2577779"
       height="2.2577779"
       x="5.8409801"
       y="6.0047584"
       ry="1.128889" />
    <rect
       ry="0.56444448"
       y="6.0047584"
       x="6.9698672"
       height="1.128889"
       width="1.128889"
       id="rect3437"
       style="fill:#8ea6bb;fill-opacity:1;fill-rule:evenodd;stroke:none" />
    <rect
       style="fill:#8ea6bb;fill-opacity:1;fill-rule:evenodd;stroke:none"
       id="rect3439"
       width="0.56444448"
       height="0.56444448"
       x="5.8409801"
       y="7.698092"
       ry="0.28222224" />
  </g>
</svg>
