<?xml version="1.0" encoding="UTF-8" standalone="no"?>
<svg
   xmlns:dc="http://purl.org/dc/elements/1.1/"
   xmlns:cc="http://creativecommons.org/ns#"
   xmlns:rdf="http://www.w3.org/1999/02/22-rdf-syntax-ns#"
   xmlns:svg="http://www.w3.org/2000/svg"
   xmlns="http://www.w3.org/2000/svg"
   xmlns:xlink="http://www.w3.org/1999/xlink"
   xmlns:sodipodi="http://sodipodi.sourceforge.net/DTD/sodipodi-0.dtd"
   xmlns:inkscape="http://www.inkscape.org/namespaces/inkscape"
   width="48"
   viewBox="0 0 13.546667 13.546667"
   height="48"
   id="svg2"
   version="1.1"
   inkscape:version="0.48.4 r9939"
   sodipodi:docname="gnome-tetravex.svg">
  <metadata
     id="metadata62">
    <rdf:RDF>
      <cc:Work
         rdf:about="">
        <dc:format>image/svg+xml</dc:format>
        <dc:type
           rdf:resource="http://purl.org/dc/dcmitype/StillImage" />
        <dc:title></dc:title>
      </cc:Work>
    </rdf:RDF>
  </metadata>
  <sodipodi:namedview
     pagecolor="#ffffff"
     bordercolor="#666666"
     borderopacity="1"
     objecttolerance="10"
     gridtolerance="10"
     guidetolerance="10"
     inkscape:pageopacity="0"
     inkscape:pageshadow="2"
     inkscape:window-width="1366"
     inkscape:window-height="716"
     id="namedview60"
     showgrid="false"
     inkscape:zoom="11.313709"
     inkscape:cx="18.353956"
     inkscape:cy="21.399747"
     inkscape:window-x="0"
     inkscape:window-y="28"
     inkscape:window-maximized="1"
     inkscape:current-layer="g3245"
     showguides="true"
     inkscape:guide-bbox="true" />
  <defs
     id="defs4">
    <linearGradient
       id="linearGradient3922">
      <stop
         style="stop-color:#004455;stop-opacity:1;"
         offset="0"
         id="stop3924" />
      <stop
         style="stop-color:#005b72;stop-opacity:1;"
         offset="1"
         id="stop3926" />
    </linearGradient>
    <clipPath
       clipPathUnits="userSpaceOnUse"
       id="clipPath6">
      <rect
         width="20"
         x="1"
         y="1"
         rx="2"
         height="20"
         style="fill:#fff;fill-rule:evenodd"
         id="rect8" />
    </clipPath>
    <clipPath
       clipPathUnits="userSpaceOnUse"
       id="clipPath10">
      <rect
         width="84"
         x="6"
         y="6"
         rx="6"
         height="84"
         style="fill:#fff"
         id="rect12" />
    </clipPath>
    <clipPath
       clipPathUnits="userSpaceOnUse"
       id="clipPath14">
      <path
         d="M 54.1,12.5 12.9,54.7 C -2.7,70.3 23,69 32.3,74.9 36.6,77.7 18.5,81.3 22.2,85 c 3.6,3.7 21.7,7.1 25.3,10.7 3.6,3.7 -7.3,7.6 -3.7,11.3 3.5,3.7 11.9,0.2 13.4,8.6 1.1,6.2 15.4,3.1 21.8,-2.2 4,-3.4 -6.9,-3.4 -3.3,-7.1 9,-9.1 17,-4.1 20.3,-12.5 1.8,-4.5 -13.6,-7.7 -9.5,-10.6 9.8,-6.9 45.8,-10.4 29.2,-27 L 73,12.5 c -5.3,-5 -14,-5 -18.9,0 z m -9.9,64.7 c 0.9,0 30.8,4 19.3,7.1 -4.4,1.2 -24.6,-7.1 -19.3,-7.1 z m 57.2,16.6 c 0,2.1 16.3,3.3 15.4,-0.5 -1.3,-6.4 -13.6,-5.9 -15.4,0.5 z m -69.5,11.1 c 3.7,3.2 9.3,-0.7 11.1,-5.2 -3.6,-4.7 -16.9,0.3 -11.1,5.2 z m 67.5,-6.7 c -4.6,4.2 0.8,8.6 5.3,5.7 1.2,-0.8 -0.1,-4.7 -5.3,-5.7 z"
         id="path16" />
    </clipPath>
    <clipPath
       clipPathUnits="userSpaceOnUse"
       id="clipPath18">
      <rect
         width="96"
         x="-100"
         y="-0"
         height="96"
         style="fill:#fff"
         id="rect20" />
    </clipPath>
    <clipPath
       clipPathUnits="userSpaceOnUse"
       id="clipPath22">
      <path
         d="M 95.311,352.545 L 476.403,352.545 L 476.403,71.4229 L 95.311,71.4229 L 95.311,352.545 z"
         id="path24" />
    </clipPath>
    <clipPath
       clipPathUnits="userSpaceOnUse"
       id="clipPath26">
      <path
         d="M 93.311,354.545 L 478.511,354.545 L 478.511,69.1846 L 93.311,69.1846 L 93.311,354.545 z"
         id="path28" />
    </clipPath>
    <clipPath
       clipPathUnits="userSpaceOnUse"
       id="clipPath30">
      <path
         d="M 93.311,69.185 L 478.511,69.185 L 478.511,354.545 L 93.311,354.545 L 93.311,69.185 z"
         id="path32" />
    </clipPath>
    <clipPath
       clipPathUnits="userSpaceOnUse"
       id="clipPath34">
      <path
         d="M 92.311,355.545 L 479.511,355.545 L 479.511,68.1846 L 92.311,68.1846 L 92.311,355.545 z"
         id="path36" />
    </clipPath>
    <linearGradient
       inkscape:collect="always"
       xlink:href="#linearGradient2251"
       id="linearGradient2258"
       x1="21.5"
       y1="43.467159"
       x2="21.5"
       y2="47.532516"
       gradientUnits="userSpaceOnUse" />
    <linearGradient
       inkscape:collect="always"
       id="linearGradient2251">
      <stop
         style="stop-color:#729fcf;stop-opacity:1;"
         offset="0"
         id="stop2253" />
      <stop
         style="stop-color:#729fcf;stop-opacity:0;"
         offset="1"
         id="stop2255" />
    </linearGradient>
    <linearGradient
       gradientTransform="matrix(0.13,0,0,0.14103,2.41492,-32.46617)"
       xlink:href="#linearGradient3896"
       id="linearGradient3006"
       x1="5.3039999"
       gradientUnits="userSpaceOnUse"
       x2="61.748001" />
    <linearGradient
       id="linearGradient3896">
      <stop
         offset="0"
         style="stop-color:#5dac12"
         id="stop9" />
      <stop
         offset="1"
         style="stop-color:#76c925"
         id="stop11" />
    </linearGradient>
    <linearGradient
       inkscape:collect="always"
       xlink:href="#linearGradient6963-199-896"
       id="linearGradient6457"
       gradientUnits="userSpaceOnUse"
       gradientTransform="matrix(4.895429,-1.3086414,1.1623533,4.3761806,-614.63541,-97.40367)"
       x1="15.194299"
       y1="13.018784"
       x2="14.486301"
       y2="26.07235" />
    <linearGradient
       inkscape:collect="always"
       id="linearGradient6963-199-896">
      <stop
         offset="0"
         id="stop7684"
         style="stop-color:#a2c6ff;stop-opacity:1" />
      <stop
         offset="1"
         id="stop7686"
         style="stop-color:#9f7e42;stop-opacity:1" />
    </linearGradient>
    <linearGradient
       id="linearGradient2911-613-519">
      <stop
         offset="0"
         id="stop7648"
         style="stop-color:#ffffe0;stop-opacity:1;" />
      <stop
         offset="1"
         id="stop7650"
         style="stop-color:#ffe588;stop-opacity:0;" />
    </linearGradient>
    <linearGradient
       id="linearGradient2911-198-956">
      <stop
         offset="0"
         id="stop7654"
         style="stop-color:#ffffe0;stop-opacity:1;" />
      <stop
         offset="1"
         id="stop7656"
         style="stop-color:#ffe588;stop-opacity:0;" />
    </linearGradient>
    <linearGradient
       id="linearGradient2911-977-39">
      <stop
         offset="0"
         id="stop7660"
         style="stop-color:#ffffe0;stop-opacity:1;" />
      <stop
         offset="1"
         id="stop7662"
         style="stop-color:#ffe588;stop-opacity:0;" />
    </linearGradient>
    <linearGradient
       inkscape:collect="always"
       xlink:href="#linearGradient2782-839-396"
       id="linearGradient7090"
       gradientUnits="userSpaceOnUse"
       gradientTransform="matrix(4.9036558,0,0,4.3816704,-363.57105,-134.91588)"
       x1="20"
       y1="13.577349"
       x2="17.269999"
       y2="32.698772" />
    <linearGradient
       inkscape:collect="always"
       id="linearGradient2782-839-396">
      <stop
         offset="0"
         id="stop7582"
         style="stop-color:#8dc5ff;stop-opacity:1" />
      <stop
         offset="1"
         id="stop7584"
         style="stop-color:#f2c600;stop-opacity:1" />
    </linearGradient>
    <linearGradient
       inkscape:collect="always"
       xlink:href="#linearGradient6963-199-896-0"
       id="linearGradient6457-9"
       gradientUnits="userSpaceOnUse"
       gradientTransform="matrix(4.895429,-1.3086414,1.1623533,4.3761806,-614.63541,-97.40367)"
       x1="15.194299"
       y1="13.018784"
       x2="14.486301"
       y2="26.07235" />
    <linearGradient
       inkscape:collect="always"
       id="linearGradient6963-199-896-0">
      <stop
         offset="0"
         id="stop7684-1"
         style="stop-color:#a2c6ff;stop-opacity:1" />
      <stop
         offset="1"
         id="stop7686-7"
         style="stop-color:#9f7e42;stop-opacity:1" />
    </linearGradient>
    <filter
       color-interpolation-filters="sRGB"
       id="filter4151"
       height="1.5849116"
       y="-0.29245582"
       width="1.7616652"
       x="-0.38083261">
      <feGaussianBlur
         id="feGaussianBlur4153"
         stdDeviation="1.1246601"
         inkscape:collect="always" />
    </filter>
    <filter
       color-interpolation-filters="sRGB"
       id="filter4143"
       height="1.5933753"
       y="-0.29668766"
       width="1.747875"
       x="-0.37393752">
      <feGaussianBlur
         id="feGaussianBlur4145"
         stdDeviation="1.1424092"
         inkscape:collect="always" />
    </filter>
    <clipPath
       id="clipPath3247">
      <path
         inkscape:connector-curvature="0"
         d="m 56.515,519.306 217.484,0 0,80.332 -217.484,0 0,-80.332 z"
         id="path3249" />
    </clipPath>
  </defs>
  <g
     style="fill-rule:evenodd"
     id="g38">
    <rect
       width="11.746"
       x=".9"
       y=".901"
       rx="5.873"
       height="11.746"
       style="fill:#002255;stroke-width:0.02822222000000000;stroke-miterlimit:4;stroke-dasharray:none;stroke:none;stroke-opacity:1;fill-opacity:1"
       id="rect42" />
    <g
       transform="matrix(0.11531627,0,0,0.11531627,3.9211615,3.8898451)"
       id="layer1"
       style="fill:#1a1a1a" />
    <g
       id="g3389"
       style="fill:#1a1a1a;stroke:#f9f9f9;stroke-linejoin:round"
       transform="matrix(0.93639221,0.01779363,-0.01779363,0.93639221,0.58795522,0.39238226)">
      <g
         id="g3393"
         style="fill-opacity:0;stroke-width:0.58899999000000003;fill:#1a1a1a" />
    </g>
    <path
       sodipodi:type="star"
       style="fill:#ffd42a;fill-opacity:1;fill-rule:nonzero;stroke:none"
       id="path3913"
       sodipodi:sides="10"
       sodipodi:cx="12"
       sodipodi:cy="13.25"
       sodipodi:r1="23.985998"
       sodipodi:r2="11.992999"
       sodipodi:arg1="0.48229347"
       sodipodi:arg2="0.79645273"
       inkscape:flatsided="false"
       inkscape:rounded="0"
       inkscape:randomized="0"
       d="M 33.25,24.375 20.386068,21.823557 22.6525,34.74075 13.745061,25.115361 7.9861074,36.897765 6.4375001,23.875 -5.1471147,30.022137 1.2546248,18.57625 -11.730722,16.740122 0.17611766,11.243054 -9.2499996,2.1250001 3.6139317,4.6764427 1.3475,-8.2407504 10.254939,1.3846392 16.013893,-10.397765 17.5625,2.6250002 29.147115,-3.5221366 22.745375,7.92375 35.730722,9.7598776 23.823882,15.256946 z"
       transform="matrix(0.22275878,0,0,0.22275878,4.2413377,3.7512244)" />
    <g
       id="g3243"
       transform="matrix(0.08331356,0,0,-0.08331356,-3.7539896,52.659297)">
      <g
         clip-path="url(#clipPath3247)"
         id="g3245">
        <g
           transform="translate(79.3814,563.3391)"
           id="g3251">
          <path
             d="m 0,0 -10.266,-2.008 c 0,0 -5.824,-13.799 -4.98,-23.615 0,0 0.911,-8.942 14.124,-16.383 l 36.621,6.166 3.078,5.954 0.422,-4.908 12.232,1.917 0.431,-1.226 11.591,3.104 24.388,4.255 -0.258,6.455 7.58,-4.96 24.182,4.215 c 0,0 -19.524,6.344 -21.21,16.016 l 13.247,2.311 0.16,25.16 -14.999,-2.183 -0.22,-3.721 -8.831,-1.54 0.201,1.334 -9.88,-1.724 -0.432,1.226 L 57.508,14.363 56.36,3.547 55.791,9.298 35.99,6.06 35.926,5.182 30.248,9.174 15.265,4.398 15.221,5.905 -0.128,3.227 0,0 z"
             id="path3253"
             style="fill:#ffffff;fill-opacity:1;fill-rule:nonzero;stroke:none"
             inkscape:connector-curvature="0" />
        </g>
        <g
           transform="translate(91.1401,546.5223)"
           id="g3255"
           style="fill:#806600">
          <path
             d="m 0,0 -8.269,-1.376 0.023,13.79 c -2.449,-8.21 -3.346,-14.135 -2.732,-17.831 0.767,-4.606 4.691,-8.741 11.715,-12.357 l -11.465,-1.908 c -5.764,3.879 -8.989,7.297 -9.805,12.208 -0.817,4.91 0.452,11.208 3.31,19.28 l 9.022,1.501 0.041,3.233 8.082,1.345 L 0,0 z"
             id="path3257"
             style="fill:#806600;fill-opacity:1;fill-rule:nonzero;stroke:none"
             inkscape:connector-curvature="0" />
        </g>
        <g
           transform="translate(108.8105,552.6358)"
           id="g3259">
          <path
             d="m 0,0 c -0.522,3.138 -1.554,5.569 -3.569,7.521 -1.468,-6.85 -1.793,-12.732 -0.968,-17.692 0.472,-2.835 1.392,-5.752 2.73,-8.859 C 0.225,-11.512 0.868,-5.215 0,0 M 9.35,3.012 C 10.344,-2.962 8.745,-10.771 4.445,-20.33 l -12.451,-2.072 c -3.368,4.278 -5.387,7.999 -5.978,11.543 -0.825,4.962 -0.034,10.659 2.291,17.29 l 7.752,1.29 c -1.939,1.498 -3.955,2.88 -6.096,4.135 L 0.954,15.454 C 5.779,11.99 8.524,7.974 9.35,3.012"
             id="path3261"
             style="fill:#806600;fill-opacity:1;fill-rule:nonzero;stroke:none"
             inkscape:connector-curvature="0" />
        </g>
        <g
           transform="translate(151.5493,538.6765)"
           id="g3263">
          <path
             d="m 0,0 -7.236,-1.203 -1.243,25.753 -0.094,-0.016 -2.093,-26.308 -6.772,-1.96 -4.26,24.732 0.554,-24.516 -6.672,-1.109 -2.642,32.128 12.216,2.032 3.916,-24.113 1.906,28.308 12.128,0.82 L 0,0 z"
             id="path3265"
             style="fill:#806600;fill-opacity:1;fill-rule:nonzero;stroke:none"
             inkscape:connector-curvature="0" />
        </g>
        <g
           transform="translate(162.9203,540.5691)"
           id="g3267">
          <path
             d="m 0,0 -7.847,-1.306 -1.93,33.652 9.539,1.587 L 0,0 z"
             id="path3269"
             style="fill:#806600;fill-opacity:1;fill-rule:nonzero;stroke:none"
             inkscape:connector-curvature="0" />
        </g>
        <g
           transform="translate(184.8311,562.1108)"
           id="g3271">
          <path
             d="m 0,0 -8.27,-1.376 0.023,13.791 c -2.448,-8.212 -3.346,-14.135 -2.731,-17.831 0.767,-4.606 4.691,-8.741 11.714,-12.358 l -11.465,-1.908 c -5.764,3.879 -8.988,7.297 -9.805,12.208 -0.817,4.91 0.453,11.208 3.311,19.28 l 9.021,1.501 0.042,3.233 8.082,1.345 L 0,0 z"
             id="path3273"
             style="fill:#806600;fill-opacity:1;fill-rule:nonzero;stroke:none"
             inkscape:connector-curvature="0" />
        </g>
        <g
           transform="translate(124.62518,692.46363)"
           id="g3287">
          <path
             d="m 0,0 6.506,1.889 -0.315,1.364 5.561,0.63 11.648,3.254 0.21,-0.841 5.98,1.993 -0.209,1.049 8.394,2.625 1.679,-18.679 -22.561,-6.717 -7.03,-2.725 L 8.92,-15.32 3.673,-16.894 0,0 z"
             id="path3289"
             style="fill:#000000;fill-opacity:1;fill-rule:nonzero;stroke:none"
             inkscape:connector-curvature="0" />
        </g>
      </g>
    </g>
  </g>
</svg>
