<?xml version="1.0" encoding="UTF-8" standalone="no"?>
<svg
   xmlns:dc="http://purl.org/dc/elements/1.1/"
   xmlns:cc="http://creativecommons.org/ns#"
   xmlns:rdf="http://www.w3.org/1999/02/22-rdf-syntax-ns#"
   xmlns:svg="http://www.w3.org/2000/svg"
   xmlns="http://www.w3.org/2000/svg"
   xmlns:xlink="http://www.w3.org/1999/xlink"
   xmlns:sodipodi="http://sodipodi.sourceforge.net/DTD/sodipodi-0.dtd"
   xmlns:inkscape="http://www.inkscape.org/namespaces/inkscape"
   width="48"
   viewBox="0 0 13.546667 13.546667"
   height="48"
   id="svg2"
   version="1.1"
   inkscape:version="0.48.4 r9939"
   sodipodi:docname="corebird.svg">
  <metadata
     id="metadata112">
    <rdf:RDF>
      <cc:Work
         rdf:about="">
        <dc:format>image/svg+xml</dc:format>
        <dc:type
           rdf:resource="http://purl.org/dc/dcmitype/StillImage" />
        <dc:title />
      </cc:Work>
    </rdf:RDF>
  </metadata>
  <sodipodi:namedview
     pagecolor="#ffffff"
     bordercolor="#666666"
     borderopacity="1"
     objecttolerance="10"
     gridtolerance="10"
     guidetolerance="10"
     inkscape:pageopacity="0"
     inkscape:pageshadow="2"
     inkscape:window-width="1366"
     inkscape:window-height="716"
     id="namedview110"
     showgrid="false"
     inkscape:zoom="13.906433"
     inkscape:cx="15.545572"
     inkscape:cy="25.517617"
     inkscape:window-x="0"
     inkscape:window-y="28"
     inkscape:window-maximized="1"
     inkscape:current-layer="g86" />
  <defs
     id="defs4">
    <clipPath
       clipPathUnits="userSpaceOnUse"
       id="clipPath6">
      <path
         style="fill:#729fcf"
         d="m -317.14586,654.26767 c -17.00009,19.30163 -31.02633,41.79278 -41.26613,66.58253 -8.04021,23.54776 -12.21493,49.18161 -12.21493,76.02201 0,114.50701 142.26245,207.45349 207.4535,207.45349 67.720759,0 207.451002,-92.94648 207.451002,-207.45349 0,-27.65912 -4.641115,-54.04072 -13.441743,-78.17401 -8.60386,-20.27999 -19.750231,-38.99031 -32.989533,-55.63205 0,0 -215.016776,61.83861 -314.992166,-8.79848 z"
         id="path8" />
    </clipPath>
    <clipPath
       clipPathUnits="userSpaceOnUse"
       id="clipPath10">
      <path
         style="fill:#729fcf"
         d="m -317.14586,654.26767 c -17.00009,19.30163 -31.02633,41.79278 -41.26613,66.58253 -8.04021,23.54776 -12.21493,49.18161 -12.21493,76.02201 0,114.50701 142.26245,207.45349 207.4535,207.45349 67.720759,0 207.451002,-92.94648 207.451002,-207.45349 0,-27.65912 -4.641115,-54.04072 -13.441743,-78.17401 -8.60386,-20.27999 -19.750231,-38.99031 -32.989533,-55.63205 0,0 -215.016776,61.83861 -314.992166,-8.79848 z"
         id="path12" />
    </clipPath>
    <clipPath
       clipPathUnits="userSpaceOnUse"
       id="clipPath14">
      <path
         style="fill:url(#radialGradient5898)"
         d="m -317.14586,654.26767 c -17.00009,19.30163 -31.02633,41.79278 -41.26613,66.58253 -8.04021,23.54776 -12.21493,49.18161 -12.21493,76.02201 0,114.50701 142.26245,207.45349 207.4535,207.45349 67.720759,0 207.451002,-92.94648 207.451002,-207.45349 0,-27.65912 -4.641115,-54.04072 -13.441743,-78.17401 -8.60386,-20.27999 -19.750231,-38.99031 -32.989533,-55.63205 0,0 -215.016776,61.83861 -314.992166,-8.79848 z"
         id="path16" />
    </clipPath>
    <clipPath
       clipPathUnits="userSpaceOnUse"
       id="clipPath18">
      <path
         style="fill:#729fcf"
         d="m -317.14586,654.26767 c -17.00009,19.30163 -31.02633,41.79278 -41.26613,66.58253 -8.04021,23.54776 -12.21493,49.18161 -12.21493,76.02201 0,114.50701 142.26245,207.45349 207.4535,207.45349 67.720759,0 207.451002,-92.94648 207.451002,-207.45349 0,-27.65912 -4.641115,-54.04072 -13.441743,-78.17401 -8.60386,-20.27999 -19.750231,-38.99031 -32.989533,-55.63205 0,0 -215.016776,61.83861 -314.992166,-8.79848 z"
         id="path20" />
    </clipPath>
    <clipPath
       clipPathUnits="userSpaceOnUse"
       id="clipPath22">
      <path
         style="fill:#fff"
         d="m -221.69556,708.46218 c -43.12933,0 -78.1553,40.49759 -78.1553,90.3966 0,49.899 35.02597,90.39385 78.1553,90.39385 25.34249,0 47.83141,-13.99943 62.10743,-35.66131 14.27604,21.6783 36.81426,35.66131 62.170421,35.66131 43.123863,0 78.152565,-40.49758 78.152565,-90.39385 0,-49.90175 -35.028702,-90.3966 -78.152565,-90.3966 -25.353441,0 -47.894381,13.98849 -62.170421,35.66406 -14.27602,-21.65641 -36.77043,-35.66406 -62.10743,-35.66406 z"
         id="path24" />
    </clipPath>
    <clipPath
       clipPathUnits="userSpaceOnUse"
       id="clipPath26">
      <path
         style="fill:url(#radialGradient5898-1)"
         d="m -317.14586,654.26767 c -17.00009,19.30163 -31.02633,41.79278 -41.26613,66.58253 -8.04021,23.54776 -12.21493,49.18161 -12.21493,76.02201 0,114.50701 142.26245,207.45349 207.4535,207.45349 67.720759,0 207.451002,-92.94648 207.451002,-207.45349 0,-27.65912 -4.641115,-54.04072 -13.441743,-78.17401 -8.60386,-20.27999 -19.750231,-38.99031 -32.989533,-55.63205 0,0 -215.016776,61.83861 -314.992166,-8.79848 z"
         id="path28" />
    </clipPath>
    <clipPath
       clipPathUnits="userSpaceOnUse"
       id="clipPath30">
      <path
         style="fill:url(#radialGradient5944-9)"
         d="m -147.99318,571.83543 c -14.66351,0 -27.37954,5.68461 -33.72096,13.98079 -5.73658,-2.11442 -12.27479,-3.31933 -19.2126,-3.31933 -17.95567,0 -33.21547,8.02436 -38.86486,19.21259 -6.22657,-7.25801 -16.77109,-12.02436 -28.73097,-12.02436 -19.13581,0 -34.66622,12.2107 -34.66622,27.28014 0,1.34386 0.13539,2.66497 0.37369,3.95683 -8.14432,7.05312 -13.2334,16.99932 -13.2334,28.02754 0,21.38805 19.09935,38.71098 42.64583,38.71098 6.51942,0 12.69804,-1.31679 18.22339,-3.69304 21.37577,8.86141 51.31756,14.35448 84.45631,14.35448 40.02986,0 75.372932,8.80372 96.612586,-3.47275 7.494986,7.20693 18.725099,-5.05642 31.280935,-5.05642 22.56538,0 40.8652535,-14.79098 40.8652535,-33.03951 0,-14.3297 -11.2894805,-26.52642 -27.0603185,-31.10507 0.02582,-0.52495 0.04399,-1.05178 0.04399,-1.58272 0,-18.64097 -16.056963,-33.74297 -35.875251,-33.74297 -7.547702,0 -14.554706,2.19139 -20.333703,5.93525 -5.604898,-3.63114 -13.994215,-5.93525 -23.367262,-5.93525 -1.0102,0 -2.00457,0.0355 -2.9896,0.0879 -4.65359,-10.73522 -19.20276,-18.57511 -36.4468,-18.57511 z"
         id="path32" />
    </clipPath>
    <clipPath
       clipPathUnits="userSpaceOnUse"
       id="clipPath34">
      <path
         style="fill:url(#radialGradient5944-9)"
         d="m -147.99318,571.83543 c -14.66351,0 -27.37954,5.68461 -33.72096,13.98079 -5.73658,-2.11442 -12.27479,-3.31933 -19.2126,-3.31933 -17.95567,0 -33.21547,8.02436 -38.86486,19.21259 -6.22657,-7.25801 -16.77109,-12.02436 -28.73097,-12.02436 -19.13581,0 -34.66622,12.2107 -34.66622,27.28014 0,1.34386 0.13539,2.66497 0.37369,3.95683 -8.14432,7.05312 -13.2334,16.99932 -13.2334,28.02754 0,21.38805 19.09935,38.71098 42.64583,38.71098 6.51942,0 12.26127,3.05094 17.78662,0.67469 21.37577,8.86141 51.75433,9.98675 84.89308,9.98675 40.02986,0 75.372932,8.80372 96.612586,-3.47275 7.494986,7.20693 18.725099,-5.05642 31.280935,-5.05642 22.56538,0 40.8652535,-14.79098 40.8652535,-33.03951 0,-14.3297 -11.2894805,-26.52642 -27.0603185,-31.10507 0.02582,-0.52495 0.04399,-1.05178 0.04399,-1.58272 0,-18.64097 -16.056963,-33.74297 -35.875251,-33.74297 -7.547702,0 -14.554706,2.19139 -20.333703,5.93525 -5.604898,-3.63114 -13.994215,-5.93525 -23.367262,-5.93525 -1.0102,0 -2.00457,0.0355 -2.9896,0.0879 -4.65359,-10.73522 -19.20276,-18.57511 -36.4468,-18.57511 z"
         id="path36" />
    </clipPath>
    <clipPath
       clipPathUnits="userSpaceOnUse"
       id="clipPath38">
      <path
         style="fill:#fff"
         d="m -221.69556,708.46218 c -43.12933,0 -78.1553,40.49759 -78.1553,90.3966 0,49.899 35.02597,90.39385 78.1553,90.39385 25.34249,0 47.83141,-13.99943 62.10743,-35.66131 14.27604,21.6783 36.81426,35.66131 62.170421,35.66131 43.123863,0 78.152565,-40.49758 78.152565,-90.39385 0,-49.90175 -35.028702,-90.3966 -78.152565,-90.3966 -25.353441,0 -47.894381,13.98849 -62.170421,35.66406 -14.27602,-21.65641 -36.77043,-35.66406 -62.10743,-35.66406 z"
         id="path40" />
    </clipPath>
    <clipPath
       clipPathUnits="userSpaceOnUse"
       id="clipPath42">
      <path
         style="fill:url(#radialGradient5944)"
         d="m -147.99318,571.83543 c -14.66351,0 -27.37954,5.68461 -33.72096,13.98079 -5.73658,-2.11442 -12.27479,-3.31933 -19.2126,-3.31933 -17.95567,0 -33.21547,8.02436 -38.86486,19.21259 -6.22657,-7.25801 -16.77109,-12.02436 -28.73097,-12.02436 -19.13581,0 -34.66622,12.2107 -34.66622,27.28014 0,1.34386 0.13539,2.66497 0.37369,3.95683 -8.14432,7.05312 -13.2334,16.99932 -13.2334,28.02754 0,21.38805 19.09935,38.71098 42.64583,38.71098 6.51942,0 12.69804,-1.31679 18.22339,-3.69304 21.37577,8.86141 51.31756,14.35448 84.45631,14.35448 40.02986,0 75.372932,8.80372 96.612586,-3.47275 7.494986,7.20693 18.725099,-5.05642 31.280935,-5.05642 22.56538,0 40.8652535,-14.79098 40.8652535,-33.03951 0,-14.3297 -11.2894805,-26.52642 -27.0603185,-31.10507 0.02582,-0.52495 0.04399,-1.05178 0.04399,-1.58272 0,-18.64097 -16.056963,-33.74297 -35.875251,-33.74297 -7.547702,0 -14.554706,2.19139 -20.333703,5.93525 -5.604898,-3.63114 -13.994215,-5.93525 -23.367262,-5.93525 -1.0102,0 -2.00457,0.0355 -2.9896,0.0879 -4.65359,-10.73522 -19.20276,-18.57511 -36.4468,-18.57511 z"
         id="path44" />
    </clipPath>
    <clipPath
       clipPathUnits="userSpaceOnUse"
       id="clipPath46">
      <path
         style="fill:#729fcf"
         d="m -317.14586,654.26767 c -17.00009,19.30163 -31.02633,41.79278 -41.26613,66.58253 -8.04021,23.54776 -12.21493,49.18161 -12.21493,76.02201 0,114.50701 142.26245,207.45349 207.4535,207.45349 67.720759,0 207.451002,-92.94648 207.451002,-207.45349 0,-27.65912 -4.641115,-54.04072 -13.441743,-78.17401 -8.60386,-20.27999 -19.750231,-38.99031 -32.989533,-55.63205 0,0 -215.016776,61.83861 -314.992166,-8.79848 z"
         id="path48" />
    </clipPath>
    <clipPath
       clipPathUnits="userSpaceOnUse"
       id="clipPath50">
      <path
         style="fill:url(#radialGradient5944)"
         d="m -147.99318,571.83543 c -14.66351,0 -27.37954,5.68461 -33.72096,13.98079 -5.73658,-2.11442 -12.27479,-3.31933 -19.2126,-3.31933 -17.95567,0 -33.21547,8.02436 -38.86486,19.21259 -6.22657,-7.25801 -16.77109,-12.02436 -28.73097,-12.02436 -19.13581,0 -34.66622,12.2107 -34.66622,27.28014 0,1.34386 0.13539,2.66497 0.37369,3.95683 -8.14432,7.05312 -13.2334,16.99932 -13.2334,28.02754 0,21.38805 19.09935,38.71098 42.64583,38.71098 6.51942,0 12.26127,3.05094 17.78662,0.67469 21.37577,8.86141 51.75433,9.98675 84.89308,9.98675 40.02986,0 75.372932,8.80372 96.612586,-3.47275 7.494986,7.20693 18.725099,-5.05642 31.280935,-5.05642 22.56538,0 40.8652535,-14.79098 40.8652535,-33.03951 0,-14.3297 -11.2894805,-26.52642 -27.0603185,-31.10507 0.02582,-0.52495 0.04399,-1.05178 0.04399,-1.58272 0,-18.64097 -16.056963,-33.74297 -35.875251,-33.74297 -7.547702,0 -14.554706,2.19139 -20.333703,5.93525 -5.604898,-3.63114 -13.994215,-5.93525 -23.367262,-5.93525 -1.0102,0 -2.00457,0.0355 -2.9896,0.0879 -4.65359,-10.73522 -19.20276,-18.57511 -36.4468,-18.57511 z"
         id="path52" />
    </clipPath>
    <linearGradient
       id="linearGradient5751-3">
      <stop
         offset="0"
         style="stop-color:#729fcf"
         id="stop55" />
      <stop
         offset="1"
         style="stop-color:#3465a4"
         id="stop57" />
    </linearGradient>
    <linearGradient
       id="linearGradient6270"
       xlink:href="#linearGradient5954"
       y1="105.439"
       y2="132.012"
       x2="0"
       gradientUnits="userSpaceOnUse" />
    <linearGradient
       id="linearGradient5813-5">
      <stop
         offset="0"
         style="stop-color:#ea6ba2"
         id="stop61" />
      <stop
         offset="1"
         style="stop-color:#e5458a"
         id="stop63" />
    </linearGradient>
    <linearGradient
       id="linearGradient5751">
      <stop
         offset="0"
         style="stop-color:#729fcf"
         id="stop66" />
      <stop
         offset="1"
         style="stop-color:#3465a4"
         id="stop68" />
    </linearGradient>
    <linearGradient
       id="linearGradient5954">
      <stop
         offset="0"
         style="stop-color:#edd400"
         id="stop71" />
      <stop
         offset="1"
         style="stop-color:#fce94f"
         id="stop73" />
    </linearGradient>
    <linearGradient
       id="linearGradient5813">
      <stop
         offset="0"
         style="stop-color:#ea6ba2"
         id="stop76" />
      <stop
         offset="1"
         style="stop-color:#e5458a"
         id="stop78" />
    </linearGradient>
    <radialGradient
       cx="6.7729998"
       cy="6.7729998"
       gradientTransform="matrix(1.28571,0,0,1.2381,-1.93524,-1.6127)"
       xlink:href="#linearGradient5751"
       id="radialGradient4155"
       r="5.927"
       gradientUnits="userSpaceOnUse" />
    <radialGradient
       cx="-157.647"
       cy="658.033"
       gradientTransform="matrix(0 .94264 -1.64064 0 921.34182 790.80876)"
       r="147.535"
       id="radialGradient5944"
       xlink:href="#linearGradient5813"
       gradientUnits="userSpaceOnUse" />
    <radialGradient
       cx="-159.431"
       cy="691.024"
       gradientTransform="matrix(-.00003 2.47657 -2.57427 -0 1619.4445 1107.4769)"
       r="207.452"
       id="radialGradient5898-1"
       xlink:href="#linearGradient5751-3"
       gradientUnits="userSpaceOnUse" />
    <radialGradient
       cx="-159.431"
       cy="691.024"
       gradientTransform="matrix(-.00003 2.47657 -2.57427 -0 1619.4445 1107.4769)"
       r="207.452"
       id="radialGradient5898"
       xlink:href="#linearGradient5751"
       gradientUnits="userSpaceOnUse" />
    <radialGradient
       cx="-157.647"
       cy="658.033"
       gradientTransform="matrix(0 .94264 -1.64064 0 921.34182 790.80876)"
       r="147.535"
       id="radialGradient5944-9"
       xlink:href="#linearGradient5813-5"
       gradientUnits="userSpaceOnUse" />
    <radialGradient
       cx="6.769"
       cy="2.779"
       gradientTransform="matrix(1 0 0 .38152 0 1.71874)"
       xlink:href="#linearGradient5813-5"
       id="radialGradient4567"
       r="5.084"
       gradientUnits="userSpaceOnUse" />
  </defs>
  <g
     style="fill-rule:evenodd"
     id="g86">
    <rect
       width="11.853"
       x=".847"
       y=".847"
       rx="5.926"
       height="11.853"
       style="fill:#3465a4;fill-opacity:1"
       id="rect90" />
  </g>
  <path
     style="fill:url(#radialGradient4567)"
     d="m 6.7733335,0.83917927 c -2.1682437,0 -4.0692326,1.12888893 -5.0888196,2.87838453 0.2622492,0.3227434 0.6797766,0.54356 1.1553473,0.54356 0.2201404,0 0.4396068,0.07142 0.6261806,-0.00882 0.7217932,0.2992228 1.7208689,0.3615978 2.8398612,0.3615978 1.3516833,0 2.5459975,0.2998854 3.2631945,-0.1146528 0.2530822,0.2433557 0.6343625,-0.1675694 1.0583335,-0.1675694 0.539026,0 0.998805,-0.2649525 1.225903,-0.6293556 C 10.839059,1.9680682 8.9305093,0.83917927 6.7733335,0.83917927 z"
     id="path92" />
  <path
     style="fill:#f9f9f9"
     d="m 4.7066757,2.6351298 c -1.4749454,0 -2.6727738,1.3754759 -2.6727738,3.0702642 0,1.6947891 1.1978284,3.0701713 2.6727738,3.0701713 0.866677,0 1.6357569,-0.4754818 2.1239714,-1.2112142 0.4882144,0.7362904 1.2589859,1.2112142 2.1261218,1.2112142 1.4747671,0 2.6726881,-1.3754751 2.6726881,-3.0701713 0,-1.694882 -1.197921,-3.0702642 -2.6726881,-3.0702642 -0.8670424,0 -1.6379074,0.4751103 -2.1261218,1.2113079 C 6.3424326,3.110891 5.5731657,2.6351298 4.7066757,2.6351298 z"
     id="path96"
     inkscape:connector-curvature="0" />
  <g
     style="fill:url(#linearGradient6270)"
     transform="matrix(.10249 0 0 .10179 -13.19564 -2.27272)"
     id="g98">
    <path
       d="m 194.694,95.631301 c -9.361,0 -19.538,9.381999 -19.13,15.304999 0.406,5.924 16.689,30.611 20.352,30.611 3.665,0 17.911,-24.193 17.503,-31.105 -0.406,-6.911 -12.616,-15.303999 -18.725,-14.810999 z"
       id="path100"
       style="fill-opacity:1;fill:#edd400" />
  </g>
  <g
     style="line-height:normal;color:#000000;fill:#090909;fill-opacity:1"
     id="g104"
     transform="translate(0.04439392,0.14967094)">
    <path
       d="m 5.5333408,4.9021831 c -0.5075519,0 -0.9222244,0.4117879 -0.9222244,0.9158622 0,0.5039992 0.4146725,0.9157652 0.9222244,0.9157652 0.5074415,0 0.9220715,-0.4116909 0.9220715,-0.9157652 0,-0.5040743 -0.4146045,-0.9158622 -0.9220715,-0.9158622 z M 5.2539459,5.3494622 c 0.110789,1.022e-4 0.2006765,0.089366 0.2006765,0.1994001 0,0.1101274 -0.089794,0.199352 -0.2006765,0.199352 -0.1108825,0 -0.2007275,-0.089225 -0.2007275,-0.199352 0,-0.1101274 0.089845,-0.1994001 0.2007275,-0.1994001 z"
       id="path106"
       style="fill:#090909;fill-opacity:1"
       inkscape:connector-curvature="0" />
    <path
       d="m 8.1415997,4.9021831 c -0.5075435,0 -0.922216,0.4117879 -0.922216,0.9158622 0,0.5039984 0.4146725,0.9157652 0.922216,0.9157652 0.5074499,0 0.9220714,-0.4116909 0.9220714,-0.9157652 0,-0.5040743 -0.4146045,-0.9158622 -0.9220714,-0.9158622 z m -0.279395,0.4472791 c 0.1107975,9.97e-5 0.2006765,0.089366 0.2006765,0.1994001 0,0.1101274 -0.089785,0.199352 -0.2006765,0.199352 -0.1108825,0 -0.200719,-0.089225 -0.200719,-0.199352 0,-0.1101274 0.089836,-0.1994001 0.200719,-0.1994001 z"
       id="path108"
       style="fill:#090909;fill-opacity:1"
       inkscape:connector-curvature="0"
       sodipodi:nodetypes="ssssscsssc" />
  </g>
</svg>
