<?xml version="1.0" encoding="UTF-8" standalone="no"?>
<svg
   xmlns:dc="http://purl.org/dc/elements/1.1/"
   xmlns:cc="http://creativecommons.org/ns#"
   xmlns:rdf="http://www.w3.org/1999/02/22-rdf-syntax-ns#"
   xmlns:svg="http://www.w3.org/2000/svg"
   xmlns="http://www.w3.org/2000/svg"
   xmlns:xlink="http://www.w3.org/1999/xlink"
   xmlns:sodipodi="http://sodipodi.sourceforge.net/DTD/sodipodi-0.dtd"
   xmlns:inkscape="http://www.inkscape.org/namespaces/inkscape"
   width="48"
   viewBox="0 0 13.546667 13.546667"
   height="48"
   id="svg2"
   version="1.1"
   inkscape:version="0.48.4 r9939"
   sodipodi:docname="document-print-preview.svg">
  <metadata
     id="metadata62">
    <rdf:RDF>
      <cc:Work
         rdf:about="">
        <dc:format>image/svg+xml</dc:format>
        <dc:type
           rdf:resource="http://purl.org/dc/dcmitype/StillImage" />
        <dc:title></dc:title>
      </cc:Work>
    </rdf:RDF>
  </metadata>
  <sodipodi:namedview
     pagecolor="#ffffff"
     bordercolor="#666666"
     borderopacity="1"
     objecttolerance="10"
     gridtolerance="10"
     guidetolerance="10"
     inkscape:pageopacity="0"
     inkscape:pageshadow="2"
     inkscape:window-width="1366"
     inkscape:window-height="716"
     id="namedview60"
     showgrid="false"
     inkscape:zoom="11.313709"
     inkscape:cx="20.645419"
     inkscape:cy="22.310871"
     inkscape:window-x="0"
     inkscape:window-y="28"
     inkscape:window-maximized="1"
     inkscape:current-layer="g38"
     showguides="true"
     inkscape:guide-bbox="true" />
  <defs
     id="defs4">
    <linearGradient
       id="linearGradient3922">
      <stop
         style="stop-color:#004455;stop-opacity:1;"
         offset="0"
         id="stop3924" />
      <stop
         style="stop-color:#005b72;stop-opacity:1;"
         offset="1"
         id="stop3926" />
    </linearGradient>
    <clipPath
       clipPathUnits="userSpaceOnUse"
       id="clipPath6">
      <rect
         width="20"
         x="1"
         y="1"
         rx="2"
         height="20"
         style="fill:#fff;fill-rule:evenodd"
         id="rect8" />
    </clipPath>
    <clipPath
       clipPathUnits="userSpaceOnUse"
       id="clipPath10">
      <rect
         width="84"
         x="6"
         y="6"
         rx="6"
         height="84"
         style="fill:#fff"
         id="rect12" />
    </clipPath>
    <clipPath
       clipPathUnits="userSpaceOnUse"
       id="clipPath14">
      <path
         d="M 54.1,12.5 12.9,54.7 C -2.7,70.3 23,69 32.3,74.9 36.6,77.7 18.5,81.3 22.2,85 c 3.6,3.7 21.7,7.1 25.3,10.7 3.6,3.7 -7.3,7.6 -3.7,11.3 3.5,3.7 11.9,0.2 13.4,8.6 1.1,6.2 15.4,3.1 21.8,-2.2 4,-3.4 -6.9,-3.4 -3.3,-7.1 9,-9.1 17,-4.1 20.3,-12.5 1.8,-4.5 -13.6,-7.7 -9.5,-10.6 9.8,-6.9 45.8,-10.4 29.2,-27 L 73,12.5 c -5.3,-5 -14,-5 -18.9,0 z m -9.9,64.7 c 0.9,0 30.8,4 19.3,7.1 -4.4,1.2 -24.6,-7.1 -19.3,-7.1 z m 57.2,16.6 c 0,2.1 16.3,3.3 15.4,-0.5 -1.3,-6.4 -13.6,-5.9 -15.4,0.5 z m -69.5,11.1 c 3.7,3.2 9.3,-0.7 11.1,-5.2 -3.6,-4.7 -16.9,0.3 -11.1,5.2 z m 67.5,-6.7 c -4.6,4.2 0.8,8.6 5.3,5.7 1.2,-0.8 -0.1,-4.7 -5.3,-5.7 z"
         id="path16" />
    </clipPath>
    <clipPath
       clipPathUnits="userSpaceOnUse"
       id="clipPath18">
      <rect
         width="96"
         x="-100"
         y="-0"
         height="96"
         style="fill:#fff"
         id="rect20" />
    </clipPath>
    <clipPath
       clipPathUnits="userSpaceOnUse"
       id="clipPath22">
      <path
         d="M 95.311,352.545 L 476.403,352.545 L 476.403,71.4229 L 95.311,71.4229 L 95.311,352.545 z"
         id="path24" />
    </clipPath>
    <clipPath
       clipPathUnits="userSpaceOnUse"
       id="clipPath26">
      <path
         d="M 93.311,354.545 L 478.511,354.545 L 478.511,69.1846 L 93.311,69.1846 L 93.311,354.545 z"
         id="path28" />
    </clipPath>
    <clipPath
       clipPathUnits="userSpaceOnUse"
       id="clipPath30">
      <path
         d="M 93.311,69.185 L 478.511,69.185 L 478.511,354.545 L 93.311,354.545 L 93.311,69.185 z"
         id="path32" />
    </clipPath>
    <clipPath
       clipPathUnits="userSpaceOnUse"
       id="clipPath34">
      <path
         d="M 92.311,355.545 L 479.511,355.545 L 479.511,68.1846 L 92.311,68.1846 L 92.311,355.545 z"
         id="path36" />
    </clipPath>
    <linearGradient
       inkscape:collect="always"
       xlink:href="#linearGradient2251"
       id="linearGradient2258"
       x1="21.5"
       y1="43.467159"
       x2="21.5"
       y2="47.532516"
       gradientUnits="userSpaceOnUse" />
    <linearGradient
       inkscape:collect="always"
       id="linearGradient2251">
      <stop
         style="stop-color:#729fcf;stop-opacity:1;"
         offset="0"
         id="stop2253" />
      <stop
         style="stop-color:#729fcf;stop-opacity:0;"
         offset="1"
         id="stop2255" />
    </linearGradient>
    <linearGradient
       gradientTransform="matrix(0.13,0,0,0.14103,2.41492,-32.46617)"
       xlink:href="#linearGradient3896"
       id="linearGradient3006"
       x1="5.3039999"
       gradientUnits="userSpaceOnUse"
       x2="61.748001" />
    <linearGradient
       id="linearGradient3896">
      <stop
         offset="0"
         style="stop-color:#5dac12"
         id="stop9" />
      <stop
         offset="1"
         style="stop-color:#76c925"
         id="stop11" />
    </linearGradient>
    <linearGradient
       inkscape:collect="always"
       xlink:href="#linearGradient6963-199-896"
       id="linearGradient6457"
       gradientUnits="userSpaceOnUse"
       gradientTransform="matrix(4.895429,-1.3086414,1.1623533,4.3761806,-614.63541,-97.40367)"
       x1="15.194299"
       y1="13.018784"
       x2="14.486301"
       y2="26.07235" />
    <linearGradient
       inkscape:collect="always"
       id="linearGradient6963-199-896">
      <stop
         offset="0"
         id="stop7684"
         style="stop-color:#a2c6ff;stop-opacity:1" />
      <stop
         offset="1"
         id="stop7686"
         style="stop-color:#9f7e42;stop-opacity:1" />
    </linearGradient>
    <linearGradient
       id="linearGradient2911-613-519">
      <stop
         offset="0"
         id="stop7648"
         style="stop-color:#ffffe0;stop-opacity:1;" />
      <stop
         offset="1"
         id="stop7650"
         style="stop-color:#ffe588;stop-opacity:0;" />
    </linearGradient>
    <linearGradient
       id="linearGradient2911-198-956">
      <stop
         offset="0"
         id="stop7654"
         style="stop-color:#ffffe0;stop-opacity:1;" />
      <stop
         offset="1"
         id="stop7656"
         style="stop-color:#ffe588;stop-opacity:0;" />
    </linearGradient>
    <linearGradient
       id="linearGradient2911-977-39">
      <stop
         offset="0"
         id="stop7660"
         style="stop-color:#ffffe0;stop-opacity:1;" />
      <stop
         offset="1"
         id="stop7662"
         style="stop-color:#ffe588;stop-opacity:0;" />
    </linearGradient>
    <linearGradient
       inkscape:collect="always"
       xlink:href="#linearGradient2782-839-396"
       id="linearGradient7090"
       gradientUnits="userSpaceOnUse"
       gradientTransform="matrix(4.9036558,0,0,4.3816704,-363.57105,-134.91588)"
       x1="20"
       y1="13.577349"
       x2="17.269999"
       y2="32.698772" />
    <linearGradient
       inkscape:collect="always"
       id="linearGradient2782-839-396">
      <stop
         offset="0"
         id="stop7582"
         style="stop-color:#8dc5ff;stop-opacity:1" />
      <stop
         offset="1"
         id="stop7584"
         style="stop-color:#f2c600;stop-opacity:1" />
    </linearGradient>
    <linearGradient
       inkscape:collect="always"
       xlink:href="#linearGradient6963-199-896-0"
       id="linearGradient6457-9"
       gradientUnits="userSpaceOnUse"
       gradientTransform="matrix(4.895429,-1.3086414,1.1623533,4.3761806,-614.63541,-97.40367)"
       x1="15.194299"
       y1="13.018784"
       x2="14.486301"
       y2="26.07235" />
    <linearGradient
       inkscape:collect="always"
       id="linearGradient6963-199-896-0">
      <stop
         offset="0"
         id="stop7684-1"
         style="stop-color:#a2c6ff;stop-opacity:1" />
      <stop
         offset="1"
         id="stop7686-7"
         style="stop-color:#9f7e42;stop-opacity:1" />
    </linearGradient>
    <filter
       color-interpolation-filters="sRGB"
       id="filter4151"
       height="1.5849116"
       y="-0.29245582"
       width="1.7616652"
       x="-0.38083261">
      <feGaussianBlur
         id="feGaussianBlur4153"
         stdDeviation="1.1246601"
         inkscape:collect="always" />
    </filter>
    <filter
       color-interpolation-filters="sRGB"
       id="filter4143"
       height="1.5933753"
       y="-0.29668766"
       width="1.747875"
       x="-0.37393752">
      <feGaussianBlur
         id="feGaussianBlur4145"
         stdDeviation="1.1424092"
         inkscape:collect="always" />
    </filter>
  </defs>
  <g
     style="fill-rule:evenodd"
     id="g38">
    <rect
       width="11.746"
       x=".9"
       y=".901"
       rx="5.873"
       height="11.746"
       style="fill:#1a1a1a;stroke-width:0.02822222000000000;stroke-miterlimit:4;stroke-dasharray:none;stroke:none;stroke-opacity:1;fill-opacity:1"
       id="rect42" />
    <g
       transform="matrix(0.11531627,0,0,0.11531627,3.9211615,3.8898451)"
       id="layer1"
       style="fill:#1a1a1a" />
    <g
       id="g3389"
       style="fill:#1a1a1a;stroke:#f9f9f9;stroke-linejoin:round"
       transform="matrix(0.93639221,0.01779363,-0.01779363,0.93639221,0.58795522,0.39238226)">
      <g
         id="g3393"
         style="fill-opacity:0;stroke-width:0.58899999000000003;fill:#1a1a1a" />
    </g>
    <path
       style="fill:#f2f2f2;fill-opacity:1;fill-rule:evenodd"
       d="m 4.0349661,7.4223459 5.8993543,0 c 0.7374206,0 0.7374206,0 0.7374206,0.589935 l 0,1.7698078 c 0,0.5899353 0,0.5899353 -0.7374206,0.5899353 l -5.8993543,0 c -0.7374192,0 -0.7374192,0 -0.7374192,-0.5899353 l 0,-1.7698078 c 0,-0.589935 0,-0.589935 0.7374192,-0.589935 z"
       id="path24-4"
       inkscape:connector-curvature="0" />
    <path
       style="fill:#ffffff;fill-opacity:1;stroke:none"
       d="m 4.6648448,2.7520231 c -0.3501683,0 -0.6298787,0.2765568 -0.6298787,0.6222099 l 0,4.163347 c 0,0.3456531 0.2797104,0.6221854 0.6298787,0.6221854 l 4.6395973,0 c 0.3501683,0 0.6298793,-0.2765323 0.6298793,-0.6221854 l 0,-3.5565246 -1.2290329,-1.2290323 -4.0404437,0 z"
       id="rect3118"
       inkscape:connector-curvature="0" />
    <path
       sodipodi:type="arc"
       style="opacity:0.9;fill:#1a1a1a;fill-opacity:1;stroke:none"
       id="path3847"
       sodipodi:cx="-109.09966"
       sodipodi:cy="18.389288"
       sodipodi:rx="3.8810158"
       sodipodi:ry="4.5997224"
       d="m -105.21865,18.389288 a 3.8810158,4.5997224 0 1 1 -7.76203,0 3.8810158,4.5997224 0 1 1 7.76203,0 z"
       transform="matrix(0.06333559,0,0,0.05343942,10.944859,8.6518944)" />
    <path
       transform="matrix(0.06333559,0,0,0.05343942,11.928083,8.6518944)"
       d="m -105.21865,18.389288 a 3.8810158,4.5997224 0 1 1 -7.76203,0 3.8810158,4.5997224 0 1 1 7.76203,0 z"
       sodipodi:ry="4.5997224"
       sodipodi:rx="3.8810158"
       sodipodi:cy="18.389288"
       sodipodi:cx="-109.09966"
       id="path3849"
       style="opacity:0.9;fill:#1a1a1a;fill-opacity:1;stroke:none"
       sodipodi:type="arc" />
    <path
       sodipodi:type="arc"
       style="opacity:0.9;fill:#1a1a1a;fill-opacity:1;stroke:none"
       id="path3851"
       sodipodi:cx="-109.09966"
       sodipodi:cy="18.389288"
       sodipodi:rx="3.8810158"
       sodipodi:ry="4.5997224"
       d="m -105.21865,18.389288 a 3.8810158,4.5997224 0 1 1 -7.76203,0 3.8810158,4.5997224 0 1 1 7.76203,0 z"
       transform="matrix(0.06333559,0,0,0.05343942,12.911309,8.6518944)" />
    <rect
       style="fill:#ffffff;fill-opacity:1;stroke:none"
       id="rect3888"
       width="5.8993549"
       height="1.9664518"
       x="4.0349665"
       y="6.9307284" />
    <rect
       style="fill:#cccccc;fill-opacity:1;stroke:none"
       id="rect3826"
       width="6.3909683"
       height="0.24580647"
       x="3.7891593"
       y="8.8971815" />
    <rect
       style="opacity:0.9;fill:#333333;fill-opacity:1;stroke:none"
       id="rect3841"
       width="3.9329035"
       height="0.49161294"
       x="5.0181928"
       y="4.4726644" />
    <rect
       y="5.9475026"
       x="5.0181928"
       height="0.49161294"
       width="3.9329035"
       id="rect3843"
       style="opacity:0.9;fill:#333333;fill-opacity:1;stroke:none" />
    <rect
       style="opacity:0.9;fill:#333333;fill-opacity:1;stroke:none"
       id="rect3845-0"
       width="3.9329035"
       height="0.49161294"
       x="5.0181928"
       y="7.4223409" />
    <path
       style="fill:#f9f9f9;fill-opacity:1;stroke:none"
       d="m 8.7052885,2.7520231 0,1.2290323 1.2290329,0 z"
       id="path3892"
       inkscape:connector-curvature="0"
       sodipodi:nodetypes="cccc" />
    <path
       sodipodi:nodetypes="cccc"
       inkscape:connector-curvature="0"
       id="path3894"
       d="m 9.9343214,5.2100878 0,-1.2290324 -1.2290329,0 z"
       style="fill:#f2f2f2;fill-opacity:1;stroke:none" />
    <rect
       y="3.6258397"
       x="4.0734043"
       height="8.4666672"
       width="8.4666672"
       id="rect3274"
       style="fill:none;stroke:none" />
    <rect
       y="3.6258397"
       x="4.0734043"
       height="5.3622222"
       width="5.3622222"
       id="rect3276"
       style="fill:none;stroke:none" />
    <path
       inkscape:connector-curvature="0"
       style="fill:#4d4d4d;fill-opacity:1;fill-rule:evenodd;stroke:none;opacity:0.56578947"
       d="m 6.7534114,3.6258358 c -0.701962,4.16e-5 -1.399634,0.289149 -1.8956291,0.7854817 -0.4959952,0.4963327 -0.7843794,1.1937727 -0.7843794,1.8956295 0,0.7018567 0.2883842,1.3992967 0.7843794,1.8956294 0.4959951,0.4963327 1.1936671,0.7854403 1.8956291,0.7854818 0.701962,4.14e-5 1.399553,-0.2891466 1.896181,-0.7854818 0.496628,-0.4963352 0.786033,-1.1936945 0.786033,-1.8956294 0,-0.701935 -0.289405,-1.3992942 -0.786033,-1.8956295 C 8.1529644,3.9149823 7.4553734,3.6257942 6.7534114,3.6258358 z m 5.65e-4,1.1288889 c 0.812784,-4.82e-5 1.55276,0.7394556 1.55276,1.5522223 0,0.8127667 -0.739976,1.5522705 -1.552774,1.5522222 -0.812798,-4.82e-5 -1.551671,-0.7395461 -1.551671,-1.5522222 0,-0.8126761 0.738873,-1.552174 1.551671,-1.5522223 z"
       id="path3296" />
    <path
       transform="matrix(0.28222223,0,0,0.28222223,-123.12819,-127.87099)"
       d="m 462.21428,482.93362 a 2.0013857,2.0000615 0 1 1 -4.00278,0 2.0013857,2.0000615 0 1 1 4.00278,0 z"
       sodipodi:ry="2.0000615"
       sodipodi:rx="2.0013857"
       sodipodi:cy="482.93362"
       sodipodi:cx="460.21289"
       id="path3298"
       style="fill:none;stroke:none"
       sodipodi:type="arc" />
    <rect
       style="fill:#4d4d4d;fill-opacity:1;fill-rule:evenodd;stroke:none;opacity:0.56578947"
       id="rect3302"
       width="1.1288944"
       height="4.8066988"
       x="-1.5986706"
       y="10.873618"
       transform="matrix(0.60609325,-0.7953936,0.79400462,0.60791173,0,0)" />
  </g>
</svg>
