<?xml version="1.0" encoding="UTF-8" standalone="no"?>
<svg
   xmlns:dc="http://purl.org/dc/elements/1.1/"
   xmlns:cc="http://creativecommons.org/ns#"
   xmlns:rdf="http://www.w3.org/1999/02/22-rdf-syntax-ns#"
   xmlns:svg="http://www.w3.org/2000/svg"
   xmlns="http://www.w3.org/2000/svg"
   xmlns:xlink="http://www.w3.org/1999/xlink"
   xmlns:sodipodi="http://sodipodi.sourceforge.net/DTD/sodipodi-0.dtd"
   xmlns:inkscape="http://www.inkscape.org/namespaces/inkscape"
   width="48"
   viewBox="0 0 13.546667 13.546667"
   height="48"
   id="svg2"
   version="1.1"
   inkscape:version="0.48.4 r9939"
   sodipodi:docname="eog.svg">
  <metadata
     id="metadata62">
    <rdf:RDF>
      <cc:Work
         rdf:about="">
        <dc:format>image/svg+xml</dc:format>
        <dc:type
           rdf:resource="http://purl.org/dc/dcmitype/StillImage" />
        <dc:title></dc:title>
      </cc:Work>
    </rdf:RDF>
  </metadata>
  <sodipodi:namedview
     pagecolor="#ffffff"
     bordercolor="#666666"
     borderopacity="1"
     objecttolerance="10"
     gridtolerance="10"
     guidetolerance="10"
     inkscape:pageopacity="0"
     inkscape:pageshadow="2"
     inkscape:window-width="1366"
     inkscape:window-height="716"
     id="namedview60"
     showgrid="false"
     inkscape:zoom="8"
     inkscape:cx="32.025332"
     inkscape:cy="28.657854"
     inkscape:window-x="0"
     inkscape:window-y="28"
     inkscape:window-maximized="1"
     inkscape:current-layer="g38" />
  <defs
     id="defs4">
    <linearGradient
       id="linearGradient3922">
      <stop
         style="stop-color:#004455;stop-opacity:1;"
         offset="0"
         id="stop3924" />
      <stop
         style="stop-color:#005b72;stop-opacity:1;"
         offset="1"
         id="stop3926" />
    </linearGradient>
    <clipPath
       clipPathUnits="userSpaceOnUse"
       id="clipPath6">
      <rect
         width="20"
         x="1"
         y="1"
         rx="2"
         height="20"
         style="fill:#fff;fill-rule:evenodd"
         id="rect8" />
    </clipPath>
    <clipPath
       clipPathUnits="userSpaceOnUse"
       id="clipPath10">
      <rect
         width="84"
         x="6"
         y="6"
         rx="6"
         height="84"
         style="fill:#fff"
         id="rect12" />
    </clipPath>
    <clipPath
       clipPathUnits="userSpaceOnUse"
       id="clipPath14">
      <path
         d="M 54.1,12.5 12.9,54.7 C -2.7,70.3 23,69 32.3,74.9 36.6,77.7 18.5,81.3 22.2,85 c 3.6,3.7 21.7,7.1 25.3,10.7 3.6,3.7 -7.3,7.6 -3.7,11.3 3.5,3.7 11.9,0.2 13.4,8.6 1.1,6.2 15.4,3.1 21.8,-2.2 4,-3.4 -6.9,-3.4 -3.3,-7.1 9,-9.1 17,-4.1 20.3,-12.5 1.8,-4.5 -13.6,-7.7 -9.5,-10.6 9.8,-6.9 45.8,-10.4 29.2,-27 L 73,12.5 c -5.3,-5 -14,-5 -18.9,0 z m -9.9,64.7 c 0.9,0 30.8,4 19.3,7.1 -4.4,1.2 -24.6,-7.1 -19.3,-7.1 z m 57.2,16.6 c 0,2.1 16.3,3.3 15.4,-0.5 -1.3,-6.4 -13.6,-5.9 -15.4,0.5 z m -69.5,11.1 c 3.7,3.2 9.3,-0.7 11.1,-5.2 -3.6,-4.7 -16.9,0.3 -11.1,5.2 z m 67.5,-6.7 c -4.6,4.2 0.8,8.6 5.3,5.7 1.2,-0.8 -0.1,-4.7 -5.3,-5.7 z"
         id="path16" />
    </clipPath>
    <clipPath
       clipPathUnits="userSpaceOnUse"
       id="clipPath18">
      <rect
         width="96"
         x="-100"
         y="-0"
         height="96"
         style="fill:#fff"
         id="rect20" />
    </clipPath>
    <clipPath
       clipPathUnits="userSpaceOnUse"
       id="clipPath22">
      <path
         d="M 95.311,352.545 L 476.403,352.545 L 476.403,71.4229 L 95.311,71.4229 L 95.311,352.545 z"
         id="path24" />
    </clipPath>
    <clipPath
       clipPathUnits="userSpaceOnUse"
       id="clipPath26">
      <path
         d="M 93.311,354.545 L 478.511,354.545 L 478.511,69.1846 L 93.311,69.1846 L 93.311,354.545 z"
         id="path28" />
    </clipPath>
    <clipPath
       clipPathUnits="userSpaceOnUse"
       id="clipPath30">
      <path
         d="M 93.311,69.185 L 478.511,69.185 L 478.511,354.545 L 93.311,354.545 L 93.311,69.185 z"
         id="path32" />
    </clipPath>
    <clipPath
       clipPathUnits="userSpaceOnUse"
       id="clipPath34">
      <path
         d="M 92.311,355.545 L 479.511,355.545 L 479.511,68.1846 L 92.311,68.1846 L 92.311,355.545 z"
         id="path36" />
    </clipPath>
    <linearGradient
       inkscape:collect="always"
       xlink:href="#linearGradient2251"
       id="linearGradient2258"
       x1="21.5"
       y1="43.467159"
       x2="21.5"
       y2="47.532516"
       gradientUnits="userSpaceOnUse" />
    <linearGradient
       inkscape:collect="always"
       id="linearGradient2251">
      <stop
         style="stop-color:#729fcf;stop-opacity:1;"
         offset="0"
         id="stop2253" />
      <stop
         style="stop-color:#729fcf;stop-opacity:0;"
         offset="1"
         id="stop2255" />
    </linearGradient>
    <linearGradient
       inkscape:collect="always"
       xlink:href="#linearGradient3619"
       id="linearGradient3588"
       gradientUnits="userSpaceOnUse"
       gradientTransform="translate(-6.676487,1.334465)"
       x1="20.29458"
       y1="28.568218"
       x2="13.14384"
       y2="14.963111" />
    <linearGradient
       id="linearGradient3619"
       inkscape:collect="always">
      <stop
         id="stop3621"
         offset="0"
         style="stop-color:#82a02b;stop-opacity:1" />
      <stop
         id="stop3623"
         offset="1"
         style="stop-color:#e6edab;stop-opacity:1" />
    </linearGradient>
  </defs>
  <g
     style="fill-rule:evenodd"
     id="g38">
    <rect
       width="11.746"
       x=".9"
       y=".901"
       rx="5.873"
       height="11.746"
       style="fill:#ececec;stroke-width:0.02822222000000000;stroke-miterlimit:4;stroke-dasharray:none;stroke:none;stroke-opacity:1;fill-opacity:1"
       id="rect42" />
    <g
       transform="matrix(0.11531627,0,0,0.11531627,3.9211615,3.8898451)"
       id="layer1" />
    <g
       id="g3389"
       style="fill:#f9f9f9;stroke:#f9f9f9;stroke-linejoin:round"
       transform="matrix(0.93639221,0.01779363,-0.01779363,0.93639221,0.58795522,0.39238226)">
      <g
         id="g3393"
         style="fill-opacity:0;stroke-width:0.58899999" />
    </g>
    <g
       style="fill:#ffffff"
       transform="matrix(0.05756099,0,0,0.05756099,-1.2957649,10.862229)"
       id="g4">
      <rect
         style="fill:#d6e592;fill-opacity:1;fill-rule:nonzero;stroke:#ffffff;stroke-width:6.89655399;stroke-miterlimit:4;stroke-opacity:1;stroke-dasharray:none;display:inline"
         id="rect2780"
         width="172.41396"
         height="117.24147"
         x="67.103638"
         y="-97.2901"
         transform="matrix(0.9668183,-0.25546501,0.25546501,0.9668183,0,0)" />
      <path
         inkscape:connector-curvature="0"
         sodipodi:nodetypes="ccscscscscscscscscscc"
         id="path3361"
         d="m 184.98346,-28.62071 c -15.55319,7.725567 -29.0594,-12.079448 -28.88686,-14.014 -0.2738,2.246403 2.39008,23.982109 -16.66329,23.7337 -21.56491,-0.279126 -16.44019,-21.611528 -14.56148,-23.56478 -0.80667,2.706587 -17.59058,22.920867 -31.542001,14.484016 -17.205383,-10.404607 6.893111,-24.137092 9.739041,-25.448242 -2.78764,1.937796 -30.715115,14.746557 -35.514019,-0.243399 -5.563755,-17.379104 26.265588,-21.065148 27.370105,-20.094329 -1.925325,-0.315854 -29.169783,-4.146843 -27.644636,-18.310655 1.969688,-18.292261 31.531592,-4.394771 36.11336,-2.483598 -1.71434,-2.417404 -17.203419,-18.387843 -1.58931,-26.143673 15.55319,-7.72556 21.99101,10.70722 25.09692,13.83717 -1.41325,-3.49889 -3.2757,-21.92431 15.77737,-21.65313 18.97871,0.27014 16.47858,18.51854 13.39422,23.64785 3.12391,-5.0831 15.56491,-23.84952 30.77378,-14.06596 14.47679,9.31262 -2.63477,25.358641 -7.25623,27.786526 4.70996,0.186858 30.13192,-8.257832 35.28211,3.894616 5.49195,12.958868 -23.83608,15.774458 -26.79423,15.772081 2.32231,-0.467813 34.53952,4.378621 29.01405,17.509063 -7.12876,16.940341 -34.97702,1.631117 -36.1412,-0.09163 2.2969,0.828547 19.6464,17.692413 4.0323,25.448238 z"
         style="fill:#ffffff;fill-opacity:1;fill-rule:nonzero;stroke:none;display:inline" />
      <path
         transform="matrix(7.324892,1.691826,-2.6022868,4.8489233,-288.27433,-272.91039)"
         d="m 70.5625,18.25 c 0,2.899495 -2.364496,5.25 -5.28125,5.25 C 62.364496,23.5 60,21.149495 60,18.25 60,15.350505 62.364496,13 65.28125,13 c 2.916754,0 5.28125,2.350505 5.28125,5.25 z"
         sodipodi:ry="5.25"
         sodipodi:rx="5.28125"
         sodipodi:cy="18.25"
         sodipodi:cx="65.28125"
         id="path3358"
         style="fill:#ffee5c;fill-opacity:1;fill-rule:nonzero;stroke:none;display:inline"
         sodipodi:type="arc" />
    </g>
    <rect
       y="4.6007714"
       x="4.9494252"
       height="6.0324998"
       width="6.0324998"
       id="rect3276"
       style="fill:none;stroke:none" />
    <path
       transform="matrix(0.31750001,0,0,0.31750001,-138.15236,-143.33317)"
       d="m 462.21428,482.93362 a 2.0013857,2.0000615 0 1 1 -4.00278,0 2.0013857,2.0000615 0 1 1 4.00278,0 z"
       sodipodi:ry="2.0000615"
       sodipodi:rx="2.0013857"
       sodipodi:cy="482.93362"
       sodipodi:cx="460.21289"
       id="path3298"
       style="fill:none;stroke:none"
       sodipodi:type="arc" />
  </g>
</svg>
