<?xml version="1.0" encoding="UTF-8" standalone="no"?>
<svg
   xmlns:dc="http://purl.org/dc/elements/1.1/"
   xmlns:cc="http://creativecommons.org/ns#"
   xmlns:rdf="http://www.w3.org/1999/02/22-rdf-syntax-ns#"
   xmlns:svg="http://www.w3.org/2000/svg"
   xmlns="http://www.w3.org/2000/svg"
   xmlns:xlink="http://www.w3.org/1999/xlink"
   xmlns:sodipodi="http://sodipodi.sourceforge.net/DTD/sodipodi-0.dtd"
   xmlns:inkscape="http://www.inkscape.org/namespaces/inkscape"
   width="48"
   viewBox="0 0 13.546667 13.546667"
   height="48"
   id="svg2"
   version="1.1"
   inkscape:version="0.48.4 r9939"
   sodipodi:docname="pgadmin.svg">
  <metadata
     id="metadata62">
    <rdf:RDF>
      <cc:Work
         rdf:about="">
        <dc:format>image/svg+xml</dc:format>
        <dc:type
           rdf:resource="http://purl.org/dc/dcmitype/StillImage" />
        <dc:title></dc:title>
      </cc:Work>
    </rdf:RDF>
  </metadata>
  <sodipodi:namedview
     pagecolor="#636363"
     bordercolor="#666666"
     borderopacity="1"
     objecttolerance="10"
     gridtolerance="10"
     guidetolerance="10"
     inkscape:pageopacity="0.73333333"
     inkscape:pageshadow="2"
     inkscape:window-width="1366"
     inkscape:window-height="716"
     id="namedview60"
     showgrid="false"
     inkscape:zoom="2.8284271"
     inkscape:cx="-4.4700965"
     inkscape:cy="-8.4659569"
     inkscape:window-x="0"
     inkscape:window-y="28"
     inkscape:window-maximized="1"
     inkscape:current-layer="g38"
     showguides="true"
     inkscape:guide-bbox="true" />
  <defs
     id="defs4">
    <linearGradient
       id="linearGradient3922">
      <stop
         style="stop-color:#004455;stop-opacity:1;"
         offset="0"
         id="stop3924" />
      <stop
         style="stop-color:#005b72;stop-opacity:1;"
         offset="1"
         id="stop3926" />
    </linearGradient>
    <clipPath
       clipPathUnits="userSpaceOnUse"
       id="clipPath6">
      <rect
         width="20"
         x="1"
         y="1"
         rx="2"
         height="20"
         style="fill:#fff;fill-rule:evenodd"
         id="rect8" />
    </clipPath>
    <clipPath
       clipPathUnits="userSpaceOnUse"
       id="clipPath10">
      <rect
         width="84"
         x="6"
         y="6"
         rx="6"
         height="84"
         style="fill:#fff"
         id="rect12" />
    </clipPath>
    <clipPath
       clipPathUnits="userSpaceOnUse"
       id="clipPath14">
      <path
         d="M 54.1,12.5 12.9,54.7 C -2.7,70.3 23,69 32.3,74.9 36.6,77.7 18.5,81.3 22.2,85 c 3.6,3.7 21.7,7.1 25.3,10.7 3.6,3.7 -7.3,7.6 -3.7,11.3 3.5,3.7 11.9,0.2 13.4,8.6 1.1,6.2 15.4,3.1 21.8,-2.2 4,-3.4 -6.9,-3.4 -3.3,-7.1 9,-9.1 17,-4.1 20.3,-12.5 1.8,-4.5 -13.6,-7.7 -9.5,-10.6 9.8,-6.9 45.8,-10.4 29.2,-27 L 73,12.5 c -5.3,-5 -14,-5 -18.9,0 z m -9.9,64.7 c 0.9,0 30.8,4 19.3,7.1 -4.4,1.2 -24.6,-7.1 -19.3,-7.1 z m 57.2,16.6 c 0,2.1 16.3,3.3 15.4,-0.5 -1.3,-6.4 -13.6,-5.9 -15.4,0.5 z m -69.5,11.1 c 3.7,3.2 9.3,-0.7 11.1,-5.2 -3.6,-4.7 -16.9,0.3 -11.1,5.2 z m 67.5,-6.7 c -4.6,4.2 0.8,8.6 5.3,5.7 1.2,-0.8 -0.1,-4.7 -5.3,-5.7 z"
         id="path16" />
    </clipPath>
    <clipPath
       clipPathUnits="userSpaceOnUse"
       id="clipPath18">
      <rect
         width="96"
         x="-100"
         y="-0"
         height="96"
         style="fill:#fff"
         id="rect20" />
    </clipPath>
    <clipPath
       clipPathUnits="userSpaceOnUse"
       id="clipPath22">
      <path
         d="M 95.311,352.545 L 476.403,352.545 L 476.403,71.4229 L 95.311,71.4229 L 95.311,352.545 z"
         id="path24" />
    </clipPath>
    <clipPath
       clipPathUnits="userSpaceOnUse"
       id="clipPath26">
      <path
         d="M 93.311,354.545 L 478.511,354.545 L 478.511,69.1846 L 93.311,69.1846 L 93.311,354.545 z"
         id="path28" />
    </clipPath>
    <clipPath
       clipPathUnits="userSpaceOnUse"
       id="clipPath30">
      <path
         d="M 93.311,69.185 L 478.511,69.185 L 478.511,354.545 L 93.311,354.545 L 93.311,69.185 z"
         id="path32" />
    </clipPath>
    <clipPath
       clipPathUnits="userSpaceOnUse"
       id="clipPath34">
      <path
         d="M 92.311,355.545 L 479.511,355.545 L 479.511,68.1846 L 92.311,68.1846 L 92.311,355.545 z"
         id="path36" />
    </clipPath>
    <linearGradient
       inkscape:collect="always"
       xlink:href="#linearGradient2251"
       id="linearGradient2258"
       x1="21.5"
       y1="43.467159"
       x2="21.5"
       y2="47.532516"
       gradientUnits="userSpaceOnUse" />
    <linearGradient
       inkscape:collect="always"
       id="linearGradient2251">
      <stop
         style="stop-color:#729fcf;stop-opacity:1;"
         offset="0"
         id="stop2253" />
      <stop
         style="stop-color:#729fcf;stop-opacity:0;"
         offset="1"
         id="stop2255" />
    </linearGradient>
    <linearGradient
       gradientTransform="matrix(0.13,0,0,0.14103,2.41492,-32.46617)"
       xlink:href="#linearGradient3896"
       id="linearGradient3006"
       x1="5.3039999"
       gradientUnits="userSpaceOnUse"
       x2="61.748001" />
    <linearGradient
       id="linearGradient3896">
      <stop
         offset="0"
         style="stop-color:#5dac12"
         id="stop9" />
      <stop
         offset="1"
         style="stop-color:#76c925"
         id="stop11" />
    </linearGradient>
    <linearGradient
       inkscape:collect="always"
       xlink:href="#linearGradient6963-199-896"
       id="linearGradient6457"
       gradientUnits="userSpaceOnUse"
       gradientTransform="matrix(4.895429,-1.3086414,1.1623533,4.3761806,-614.63541,-97.40367)"
       x1="15.194299"
       y1="13.018784"
       x2="14.486301"
       y2="26.07235" />
    <linearGradient
       inkscape:collect="always"
       id="linearGradient6963-199-896">
      <stop
         offset="0"
         id="stop7684"
         style="stop-color:#a2c6ff;stop-opacity:1" />
      <stop
         offset="1"
         id="stop7686"
         style="stop-color:#9f7e42;stop-opacity:1" />
    </linearGradient>
    <linearGradient
       id="linearGradient2911-613-519">
      <stop
         offset="0"
         id="stop7648"
         style="stop-color:#ffffe0;stop-opacity:1;" />
      <stop
         offset="1"
         id="stop7650"
         style="stop-color:#ffe588;stop-opacity:0;" />
    </linearGradient>
    <linearGradient
       id="linearGradient2911-198-956">
      <stop
         offset="0"
         id="stop7654"
         style="stop-color:#ffffe0;stop-opacity:1;" />
      <stop
         offset="1"
         id="stop7656"
         style="stop-color:#ffe588;stop-opacity:0;" />
    </linearGradient>
    <linearGradient
       id="linearGradient2911-977-39">
      <stop
         offset="0"
         id="stop7660"
         style="stop-color:#ffffe0;stop-opacity:1;" />
      <stop
         offset="1"
         id="stop7662"
         style="stop-color:#ffe588;stop-opacity:0;" />
    </linearGradient>
    <linearGradient
       inkscape:collect="always"
       xlink:href="#linearGradient2782-839-396"
       id="linearGradient7090"
       gradientUnits="userSpaceOnUse"
       gradientTransform="matrix(4.9036558,0,0,4.3816704,-363.57105,-134.91588)"
       x1="20"
       y1="13.577349"
       x2="17.269999"
       y2="32.698772" />
    <linearGradient
       inkscape:collect="always"
       id="linearGradient2782-839-396">
      <stop
         offset="0"
         id="stop7582"
         style="stop-color:#8dc5ff;stop-opacity:1" />
      <stop
         offset="1"
         id="stop7584"
         style="stop-color:#f2c600;stop-opacity:1" />
    </linearGradient>
    <linearGradient
       inkscape:collect="always"
       xlink:href="#linearGradient6963-199-896-0"
       id="linearGradient6457-9"
       gradientUnits="userSpaceOnUse"
       gradientTransform="matrix(4.895429,-1.3086414,1.1623533,4.3761806,-614.63541,-97.40367)"
       x1="15.194299"
       y1="13.018784"
       x2="14.486301"
       y2="26.07235" />
    <linearGradient
       inkscape:collect="always"
       id="linearGradient6963-199-896-0">
      <stop
         offset="0"
         id="stop7684-1"
         style="stop-color:#a2c6ff;stop-opacity:1" />
      <stop
         offset="1"
         id="stop7686-7"
         style="stop-color:#9f7e42;stop-opacity:1" />
    </linearGradient>
    <linearGradient
       xlink:href="#linearGradient3758"
       id="linearGradient3764"
       y1="3.3870001"
       y2="10.16"
       x2="0"
       gradientUnits="userSpaceOnUse" />
    <linearGradient
       id="linearGradient3758">
      <stop
         offset="0"
         style="stop-color:#e4f1cb"
         id="stop9-4" />
      <stop
         offset="1"
         style="stop-color:#e9f4d6"
         id="stop11-0" />
    </linearGradient>
  </defs>
  <g
     style="fill-rule:evenodd"
     id="g38">
    <rect
       width="11.746"
       x="0.78735667"
       y="1.2877067"
       rx="5.8730001"
       height="11.746"
       style="fill:#d2f4f9;fill-opacity:1;stroke:#ffffff;stroke-opacity:1;stroke-width:0.16933334000000000;stroke-miterlimit:4;stroke-dasharray:none"
       id="rect42" />
    <g
       transform="matrix(0.11531627,0,0,0.11531627,3.9211615,3.8898451)"
       id="layer1" />
    <g
       id="g3389"
       style="fill:#f9f9f9;stroke:#f9f9f9;stroke-linejoin:round"
       transform="matrix(0.93639221,0.01779363,-0.01779363,0.93639221,0.58795522,0.39238226)">
      <g
         id="g3393"
         style="fill-opacity:0;stroke-width:0.58899999" />
    </g>
    <rect
       style="fill:none;stroke:none"
       id="rect3421"
       width="5.0799999"
       height="5.0799999"
       x="5.3321376"
       y="0.13162446"
       ry="0"
       transform="matrix(0.70137908,0.71278846,-0.71278846,0.70137908,0,0)" />
    <rect
       style="fill:none;stroke:none"
       id="rect3491"
       width="3.668889"
       height="3.668889"
       x="5.3321376"
       y="0.13162446"
       transform="matrix(0.70137908,0.71278846,-0.71278846,0.70137908,0,0)" />
    <g
       transform="matrix(-0.59050077,-0.75853022,0.75892475,-0.59080791,8.8697271,13.342075)"
       id="g30">
      <path
         inkscape:connector-curvature="0"
         style="fill:#edc66e;fill-opacity:1"
         d="M 4.2672692,2.5530347 C 3.8329676,3.2601569 3.8093007,3.613718 4.250123,3.9672791 4.6909454,3.613718 4.6050692,3.355498 4.3821774,2.6483759 l -0.031698,0.2582199 z"
         id="path32-4" />
      <path
         inkscape:connector-curvature="0"
         style="fill:#3d6090;fill-opacity:1"
         d="m 4.2333334,3.9511112 c -0.8466667,0.5644445 -0.2329819,4.7977781 0,5.6444446 0.2822223,-0.8466667 0.8466667,-5.0800001 0,-5.6444446 z"
         id="path34" />
      <path
         inkscape:connector-curvature="0"
         style="fill:#f9f9f9"
         d="m 15,14 c -0.810925,0.540617 -1.222646,2.053415 -1.40625,4 l 2.84375,0 C 16.238738,16.053415 15.810925,14.540617 15,14 z"
         transform="scale(0.28222,0.28222)"
         id="path36-0" />
    </g>
    <path
       inkscape:connector-curvature="0"
       style="fill:#42629a;fill-opacity:1;fill-rule:evenodd;stroke:none"
       d="m 10.538716,11.319228 c 0.236053,-0.324814 0.620787,-0.524762 0.838217,-0.830075 L 1.9611908,10.5357 c 0.2212185,0.303176 0.4145742,0.627672 0.7166379,0.893032 2.077427,1.824999 5.2646138,2.032131 7.2994997,0.454504 0.4002226,-0.310289 0.4103196,-0.356135 0.5613876,-0.564008 z"
       id="path22"
       sodipodi:nodetypes="sccsss" />
    <path
       style="fill:#9eda6f;fill-opacity:1;stroke:none"
       d="m 1.9253166,10.478758 c 3.4237493,0.121876 6.4056365,-0.05445 9.4407794,0.01063 -0.446708,0.713935 -0.910053,1.130164 -0.998749,1.083601 L 2.7810739,11.513864 C 2.5414636,11.365723 2.1918833,10.950684 1.9253166,10.478758 z"
       id="path5810"
       inkscape:connector-curvature="0"
       sodipodi:nodetypes="ccccc" />
    <path
       sodipodi:type="star"
       style="fill:#46b969;fill-opacity:1;fill-rule:evenodd;stroke:none"
       id="path3391"
       sodipodi:sides="3"
       sodipodi:cx="202.2366"
       sodipodi:cy="713.59796"
       sodipodi:r1="6.8981791"
       sodipodi:r2="3.4490895"
       sodipodi:arg1="0.26179939"
       sodipodi:arg2="1.3089969"
       inkscape:flatsided="true"
       inkscape:rounded="0"
       inkscape:randomized="0"
       d="m 208.89973,715.38334 -11.54088,3.09237 3.09237,-11.54088 z"
       inkscape:transform-center-y="-0.19907062"
       transform="matrix(0.41068846,0.10588949,-0.11004369,0.39518503,0.30723773,-294.05499)" />
    <path
       transform="matrix(0.34224046,0.07765226,-0.09170304,0.28980198,3.7432397,-212.7674)"
       inkscape:transform-center-y="-0.14610919"
       d="m 208.89973,715.38334 -11.54088,3.09237 3.09237,-11.54088 z"
       inkscape:randomized="0"
       inkscape:rounded="0"
       inkscape:flatsided="true"
       sodipodi:arg2="1.3089969"
       sodipodi:arg1="0.26179939"
       sodipodi:r2="3.4490895"
       sodipodi:r1="6.8981791"
       sodipodi:cy="713.59796"
       sodipodi:cx="202.2366"
       sodipodi:sides="3"
       id="path3393"
       style="fill:#82ca9c;fill-opacity:1;fill-rule:evenodd;stroke:none"
       sodipodi:type="star" />
    <path
       sodipodi:type="arc"
       style="fill:#ffe680;fill-opacity:1;stroke:none"
       id="path5821"
       sodipodi:cx="-69.296463"
       sodipodi:cy="20.776388"
       sodipodi:rx="8.1317282"
       sodipodi:ry="7.4246211"
       d="m -61.164735,20.776388 a 8.1317282,7.4246211 0 1 1 -16.263456,0 8.1317282,7.4246211 0 1 1 16.263456,0 z"
       transform="matrix(0.17810333,0,0,0.17810333,21.621529,0.56672488)" />
  </g>
</svg>
