<?xml version="1.0" encoding="UTF-8" standalone="no"?>
<svg
   xmlns:dc="http://purl.org/dc/elements/1.1/"
   xmlns:cc="http://creativecommons.org/ns#"
   xmlns:rdf="http://www.w3.org/1999/02/22-rdf-syntax-ns#"
   xmlns:svg="http://www.w3.org/2000/svg"
   xmlns="http://www.w3.org/2000/svg"
   xmlns:xlink="http://www.w3.org/1999/xlink"
   xmlns:sodipodi="http://sodipodi.sourceforge.net/DTD/sodipodi-0.dtd"
   xmlns:inkscape="http://www.inkscape.org/namespaces/inkscape"
   width="48"
   viewBox="0 0 13.546667 13.546667"
   height="48"
   id="svg2"
   version="1.1"
   inkscape:version="0.48.4 r9939"
   sodipodi:docname="network-workgroup.svg">
  <metadata
     id="metadata62">
    <rdf:RDF>
      <cc:Work
         rdf:about="">
        <dc:format>image/svg+xml</dc:format>
        <dc:type
           rdf:resource="http://purl.org/dc/dcmitype/StillImage" />
        <dc:title></dc:title>
      </cc:Work>
    </rdf:RDF>
  </metadata>
  <sodipodi:namedview
     pagecolor="#ffffff"
     bordercolor="#666666"
     borderopacity="1"
     objecttolerance="10"
     gridtolerance="10"
     guidetolerance="10"
     inkscape:pageopacity="0"
     inkscape:pageshadow="2"
     inkscape:window-width="1366"
     inkscape:window-height="716"
     id="namedview60"
     showgrid="false"
     inkscape:zoom="8"
     inkscape:cx="32.025332"
     inkscape:cy="28.657854"
     inkscape:window-x="0"
     inkscape:window-y="28"
     inkscape:window-maximized="1"
     inkscape:current-layer="g38" />
  <defs
     id="defs4">
    <linearGradient
       id="linearGradient3922">
      <stop
         style="stop-color:#004455;stop-opacity:1;"
         offset="0"
         id="stop3924" />
      <stop
         style="stop-color:#005b72;stop-opacity:1;"
         offset="1"
         id="stop3926" />
    </linearGradient>
    <clipPath
       clipPathUnits="userSpaceOnUse"
       id="clipPath6">
      <rect
         width="20"
         x="1"
         y="1"
         rx="2"
         height="20"
         style="fill:#fff;fill-rule:evenodd"
         id="rect8" />
    </clipPath>
    <clipPath
       clipPathUnits="userSpaceOnUse"
       id="clipPath10">
      <rect
         width="84"
         x="6"
         y="6"
         rx="6"
         height="84"
         style="fill:#fff"
         id="rect12" />
    </clipPath>
    <clipPath
       clipPathUnits="userSpaceOnUse"
       id="clipPath14">
      <path
         d="M 54.1,12.5 12.9,54.7 C -2.7,70.3 23,69 32.3,74.9 36.6,77.7 18.5,81.3 22.2,85 c 3.6,3.7 21.7,7.1 25.3,10.7 3.6,3.7 -7.3,7.6 -3.7,11.3 3.5,3.7 11.9,0.2 13.4,8.6 1.1,6.2 15.4,3.1 21.8,-2.2 4,-3.4 -6.9,-3.4 -3.3,-7.1 9,-9.1 17,-4.1 20.3,-12.5 1.8,-4.5 -13.6,-7.7 -9.5,-10.6 9.8,-6.9 45.8,-10.4 29.2,-27 L 73,12.5 c -5.3,-5 -14,-5 -18.9,0 z m -9.9,64.7 c 0.9,0 30.8,4 19.3,7.1 -4.4,1.2 -24.6,-7.1 -19.3,-7.1 z m 57.2,16.6 c 0,2.1 16.3,3.3 15.4,-0.5 -1.3,-6.4 -13.6,-5.9 -15.4,0.5 z m -69.5,11.1 c 3.7,3.2 9.3,-0.7 11.1,-5.2 -3.6,-4.7 -16.9,0.3 -11.1,5.2 z m 67.5,-6.7 c -4.6,4.2 0.8,8.6 5.3,5.7 1.2,-0.8 -0.1,-4.7 -5.3,-5.7 z"
         id="path16" />
    </clipPath>
    <clipPath
       clipPathUnits="userSpaceOnUse"
       id="clipPath18">
      <rect
         width="96"
         x="-100"
         y="-0"
         height="96"
         style="fill:#fff"
         id="rect20" />
    </clipPath>
    <clipPath
       clipPathUnits="userSpaceOnUse"
       id="clipPath22">
      <path
         d="M 95.311,352.545 L 476.403,352.545 L 476.403,71.4229 L 95.311,71.4229 L 95.311,352.545 z"
         id="path24" />
    </clipPath>
    <clipPath
       clipPathUnits="userSpaceOnUse"
       id="clipPath26">
      <path
         d="M 93.311,354.545 L 478.511,354.545 L 478.511,69.1846 L 93.311,69.1846 L 93.311,354.545 z"
         id="path28" />
    </clipPath>
    <clipPath
       clipPathUnits="userSpaceOnUse"
       id="clipPath30">
      <path
         d="M 93.311,69.185 L 478.511,69.185 L 478.511,354.545 L 93.311,354.545 L 93.311,69.185 z"
         id="path32" />
    </clipPath>
    <clipPath
       clipPathUnits="userSpaceOnUse"
       id="clipPath34">
      <path
         d="M 92.311,355.545 L 479.511,355.545 L 479.511,68.1846 L 92.311,68.1846 L 92.311,355.545 z"
         id="path36" />
    </clipPath>
    <linearGradient
       inkscape:collect="always"
       xlink:href="#linearGradient2251"
       id="linearGradient2258"
       x1="21.5"
       y1="43.467159"
       x2="21.5"
       y2="47.532516"
       gradientUnits="userSpaceOnUse" />
    <linearGradient
       inkscape:collect="always"
       id="linearGradient2251">
      <stop
         style="stop-color:#729fcf;stop-opacity:1;"
         offset="0"
         id="stop2253" />
      <stop
         style="stop-color:#729fcf;stop-opacity:0;"
         offset="1"
         id="stop2255" />
    </linearGradient>
  </defs>
  <g
     style="fill-rule:evenodd"
     id="g38">
    <rect
       width="11.746"
       x=".9"
       y=".901"
       rx="5.873"
       height="11.746"
       style="fill:#cccccc;stroke-width:0.02822222000000000;stroke-miterlimit:4;stroke-dasharray:none;stroke:none;stroke-opacity:1;fill-opacity:1"
       id="rect42" />
    <g
       transform="matrix(0.11531627,0,0,0.11531627,3.9211615,3.8898451)"
       id="layer1" />
    <rect
       style="fill:#d4d8d0;fill-opacity:1;fill-rule:evenodd;stroke:#888a85;stroke-width:0.28222176;stroke-miterlimit:4;stroke-opacity:1;stroke-dasharray:none"
       id="rect2396"
       width="0.55487573"
       height="1.4111091"
       x="12.327869"
       y="2.6357474"
       rx="0.27743787"
       ry="0.27743787"
       transform="matrix(0.8660253,0.50000017,-0.50000017,0.8660253,0,0)" />
    <path
       inkscape:connector-curvature="0"
       style="fill:#cccccc;fill-opacity:1;fill-rule:evenodd;stroke:#888a85;stroke-width:0.28222220999999997;stroke-miterlimit:4;stroke-opacity:1"
       d="m 10.445326,8.7247137 c 0,0.472219 -0.383102,0.85547 -0.8551374,0.85547 -0.4720359,0 -0.8551376,-0.383251 -0.8551376,-0.85547 0,-0.472219 0.3831017,-0.855469 0.8551376,-0.855469 0.4720354,0 0.8551374,0.38325 0.8551374,0.855469 z"
       id="path2192" />
    <rect
       style="fill:#d4d8d0;fill-opacity:1;fill-rule:evenodd;stroke:#888a85;stroke-width:0.28222176;stroke-miterlimit:4;stroke-opacity:1;stroke-dasharray:none"
       id="rect2394"
       width="0.55487573"
       height="1.4111091"
       x="10.245959"
       y="2.7282329"
       rx="0.27743787"
       ry="0.27743787"
       transform="matrix(0.8660253,0.50000017,-0.50000017,0.8660253,0,0)" />
    <path
       inkscape:connector-curvature="0"
       style="fill:#cccccc;fill-opacity:1;fill-rule:evenodd;stroke:#888a85;stroke-width:0.28222220999999997;stroke-miterlimit:4;stroke-opacity:1"
       d="m 7.9053286,8.7247137 c 0,0.472219 -0.3831017,0.85547 -0.855137,0.85547 -0.4720359,0 -0.8551376,-0.383251 -0.8551376,-0.85547 0,-0.472219 0.3831017,-0.855469 0.8551376,-0.855469 0.4720353,0 0.855137,0.38325 0.855137,0.855469 z"
       id="path2388" />
    <path
       inkscape:connector-curvature="0"
       style="fill:#888a85;fill-opacity:1;fill-rule:evenodd;stroke:none"
       d="m 2.3850446,7.4458667 0,0.282222 0,2.257778 0,0.2822223 2.8222223,0 0,-0.2822223 0,-2.257778 0,-0.282222 -2.8222223,0 z m 0.2822223,0.282222 0.5644444,0 0,0.564444 -0.5644444,0 0,-0.564444 z m 0.8466666,0 0.5644445,0 0,0.564444 -0.5644445,0 0,-0.564444 z m 0.8466667,0 0.5644445,0 0,0.564444 -0.5644445,0 0,-0.564444 z m -1.6933333,0.846667 0.5644444,0 0,0.564444 -0.5644444,0 0,-0.564444 z m 0.8466666,0 0.5644445,0 0,0.564444 -0.5644445,0 0,-0.564444 z m 0.8466667,0 0.5644445,0 0,0.564444 -0.5644445,0 0,-0.564444 z m -1.6933333,0.846666 0.5644444,0 0,0.564445 -0.5644444,0 0,-0.564445 z m 0.8466666,0 0.5644445,0 0,0.564445 -0.5644445,0 0,-0.564445 z m 0.8466667,0 0.5644445,0 0,0.564445 -0.5644445,0 0,-0.564445 z"
       id="rect3988" />
    <path
       inkscape:connector-curvature="0"
       style="fill:#fcaf3e;fill-opacity:1;fill-rule:evenodd;stroke:none;stroke-width:0.20938936000000000;stroke-miterlimit:4;stroke-opacity:1"
       d="m 3.8615702,2.8446367 5.8328432,0 c 0.124288,0 0.224346,0.1000589 0.224346,0.224347 l 0,2.9000878 c 0,0.1242881 -0.100058,0.224347 -0.224346,0.224347 l -5.8328432,0 c -0.124288,0 -0.224347,-0.1000589 -0.224347,-0.224347 l 0,-2.9000878 c 0,-0.1242881 0.100059,-0.224347 0.224347,-0.224347 z"
       id="rect2190" />
    <path
       inkscape:connector-curvature="0"
       style="opacity:0.9;fill:#eeeeec;fill-opacity:1;fill-rule:evenodd;stroke:none"
       d="m 4.370014,3.5760935 0,0.2093891 0,0.4187777 -0.6281676,0 0,0.2093898 0.6281676,0 0.2093891,0 0,-0.6281675 0.2093889,0 0,1.0469455 0,0.2093889 0.6281678,0 0,-0.2093889 0,-0.418778 0.4187777,0 0.6281677,0 0.209389,0 0,-0.6281675 0.209389,0 0,1.0469455 0,0.2093889 0.6281677,0 0,-0.2093889 0,-0.418778 0.4187787,0 0.4187779,0 0.2093889,0 0,-0.6281675 0.2093894,0 0,1.0469455 0,0.2093889 0.6281676,0 0,-0.2093889 0,-0.418778 0.418777,0 0,-0.2093898 -0.6281669,0 0,0.2093898 0,0.418778 -0.2093893,0 0,-1.0469455 0,-0.2093891 -0.6281667,0 0,0.2093891 0,0.4187777 -0.4187779,0 -0.6281678,0 0,0.2093898 0,0.418778 -0.2093888,0 0,-1.0469455 0,-0.2093891 -0.6281678,0 0,0.2093891 0,0.4187777 -0.6281677,0 -0.6281669,0 0,0.2093898 0,0.418778 -0.2093897,0 0,-1.0469455 0,-0.2093891 -0.6281669,0 z"
       id="rect2221" />
    <rect
       style="fill:#eeeeec;fill-opacity:1;fill-rule:evenodd;stroke:none"
       id="rect3103"
       width="0.20938915"
       height="0.20938903"
       x="9.1859636"
       y="5.6699848" />
    <rect
       style="fill:#eeeeec;fill-opacity:1;fill-rule:evenodd;stroke:none"
       id="rect3105"
       width="0.20938915"
       height="0.4187783"
       x="8.7671862"
       y="5.4605961" />
    <rect
       style="fill:#eeeeec;fill-opacity:1;fill-rule:evenodd;stroke:none"
       id="rect3107"
       width="0.20938915"
       height="0.62816751"
       x="8.3484077"
       y="5.2512064" />
    <rect
       style="fill:#eeeeec;fill-opacity:1;fill-rule:evenodd;stroke:none"
       id="rect3109"
       width="0.20938915"
       height="0.41877845"
       x="7.9296298"
       y="5.4605961" />
    <rect
       style="fill:#eeeeec;fill-opacity:1;fill-rule:evenodd;stroke:none"
       id="rect3111"
       width="0.20938915"
       height="0.20938915"
       x="7.5108514"
       y="5.6699848" />
    <rect
       style="fill:#196ea6;fill-opacity:1;fill-rule:evenodd;stroke:none"
       id="rect2340"
       width="0.84666669"
       height="1.0936111"
       x="5.6091671"
       y="12.347223" />
    <rect
       style="fill:#7719a6;fill-opacity:1;fill-rule:evenodd;stroke:none"
       id="rect2348"
       width="0.84666669"
       height="1.0146829"
       x="7.020278"
       y="12.426151" />
    <rect
       style="fill:#cccccc;fill-opacity:1;fill-rule:evenodd;stroke:#555753;stroke-width:0.15489096999999999;stroke-miterlimit:4;stroke-opacity:1;stroke-dasharray:none"
       id="rect2239"
       width="1.0626276"
       height="0.6917758"
       x="6.9122963"
       y="12.071891"
       rx="0.35919216"
       ry="0.28659284" />
    <rect
       style="fill:#cccccc;fill-opacity:1;fill-rule:evenodd;stroke:#555753;stroke-width:0.15489096999999999;stroke-miterlimit:4;stroke-opacity:1;stroke-dasharray:none"
       id="rect2239-6"
       width="1.0626276"
       height="0.6917758"
       x="5.5011864"
       y="12.036613"
       rx="0.35919216"
       ry="0.28659287" />
    <rect
       style="fill:#196ea6;fill-opacity:1;fill-rule:evenodd;stroke:none"
       id="rect2340-1"
       width="0.84666669"
       height="1.0936111"
       x="-7.7797303"
       y="-1.2306619"
       transform="matrix(-0.99978824,0.02057857,-0.02057857,-0.99978824,0,0)" />
    <rect
       style="fill:#7719a6;fill-opacity:1;fill-rule:evenodd;stroke:none"
       id="rect2348-4"
       width="0.84666669"
       height="1.0146829"
       x="-6.3686185"
       y="-1.1517339"
       transform="matrix(-0.99978824,0.02057857,-0.02057857,-0.99978824,0,0)" />
    <rect
       style="fill:#cccccc;fill-opacity:1;fill-rule:evenodd;stroke:#555753;stroke-width:0.15489097;stroke-miterlimit:4;stroke-opacity:1;stroke-dasharray:none"
       id="rect2239-7"
       width="1.0626276"
       height="0.6917758"
       x="-6.4766011"
       y="-1.5059944"
       rx="0.35919216"
       ry="0.28659287"
       transform="matrix(-0.99978824,0.02057857,-0.02057857,-0.99978824,0,0)" />
    <rect
       style="fill:#cccccc;fill-opacity:1;fill-rule:evenodd;stroke:#555753;stroke-width:0.15489097;stroke-miterlimit:4;stroke-opacity:1;stroke-dasharray:none"
       id="rect2239-6-4"
       width="1.0626276"
       height="0.6917758"
       x="-7.8877106"
       y="-1.5412718"
       rx="0.35919216"
       ry="0.28659287"
       transform="matrix(-0.99978824,0.02057857,-0.02057857,-0.99978824,0,0)" />
  </g>
</svg>
