<?xml version="1.0" encoding="UTF-8" standalone="no"?>
<svg
   xmlns:dc="http://purl.org/dc/elements/1.1/"
   xmlns:cc="http://creativecommons.org/ns#"
   xmlns:rdf="http://www.w3.org/1999/02/22-rdf-syntax-ns#"
   xmlns:svg="http://www.w3.org/2000/svg"
   xmlns="http://www.w3.org/2000/svg"
   xmlns:sodipodi="http://sodipodi.sourceforge.net/DTD/sodipodi-0.dtd"
   xmlns:inkscape="http://www.inkscape.org/namespaces/inkscape"
   width="48"
   viewBox="0 0 13.546667 13.546667"
   height="48"
   id="svg2"
   version="1.1"
   inkscape:version="0.48.4 r9939"
   sodipodi:docname="application-default-icon.svg">
  <metadata
     id="metadata62">
    <rdf:RDF>
      <cc:Work
         rdf:about="">
        <dc:format>image/svg+xml</dc:format>
        <dc:type
           rdf:resource="http://purl.org/dc/dcmitype/StillImage" />
        <dc:title></dc:title>
      </cc:Work>
    </rdf:RDF>
  </metadata>
  <sodipodi:namedview
     pagecolor="#ffffff"
     bordercolor="#666666"
     borderopacity="1"
     objecttolerance="10"
     gridtolerance="10"
     guidetolerance="10"
     inkscape:pageopacity="0"
     inkscape:pageshadow="2"
     inkscape:window-width="1366"
     inkscape:window-height="716"
     id="namedview60"
     showgrid="false"
     inkscape:zoom="2.4583333"
     inkscape:cx="114.27349"
     inkscape:cy="56.011819"
     inkscape:window-x="0"
     inkscape:window-y="28"
     inkscape:window-maximized="1"
     inkscape:current-layer="g38" />
  <defs
     id="defs4">
    <clipPath
       clipPathUnits="userSpaceOnUse"
       id="clipPath6">
      <rect
         width="20"
         x="1"
         y="1"
         rx="2"
         height="20"
         style="fill:#fff;fill-rule:evenodd"
         id="rect8" />
    </clipPath>
    <clipPath
       clipPathUnits="userSpaceOnUse"
       id="clipPath10">
      <rect
         width="84"
         x="6"
         y="6"
         rx="6"
         height="84"
         style="fill:#fff"
         id="rect12" />
    </clipPath>
    <clipPath
       clipPathUnits="userSpaceOnUse"
       id="clipPath14">
      <path
         d="M 54.1,12.5 12.9,54.7 C -2.7,70.3 23,69 32.3,74.9 36.6,77.7 18.5,81.3 22.2,85 c 3.6,3.7 21.7,7.1 25.3,10.7 3.6,3.7 -7.3,7.6 -3.7,11.3 3.5,3.7 11.9,0.2 13.4,8.6 1.1,6.2 15.4,3.1 21.8,-2.2 4,-3.4 -6.9,-3.4 -3.3,-7.1 9,-9.1 17,-4.1 20.3,-12.5 1.8,-4.5 -13.6,-7.7 -9.5,-10.6 9.8,-6.9 45.8,-10.4 29.2,-27 L 73,12.5 c -5.3,-5 -14,-5 -18.9,0 z m -9.9,64.7 c 0.9,0 30.8,4 19.3,7.1 -4.4,1.2 -24.6,-7.1 -19.3,-7.1 z m 57.2,16.6 c 0,2.1 16.3,3.3 15.4,-0.5 -1.3,-6.4 -13.6,-5.9 -15.4,0.5 z m -69.5,11.1 c 3.7,3.2 9.3,-0.7 11.1,-5.2 -3.6,-4.7 -16.9,0.3 -11.1,5.2 z m 67.5,-6.7 c -4.6,4.2 0.8,8.6 5.3,5.7 1.2,-0.8 -0.1,-4.7 -5.3,-5.7 z"
         id="path16" />
    </clipPath>
    <clipPath
       clipPathUnits="userSpaceOnUse"
       id="clipPath18">
      <rect
         width="96"
         x="-100"
         y="-0"
         height="96"
         style="fill:#fff"
         id="rect20" />
    </clipPath>
    <clipPath
       clipPathUnits="userSpaceOnUse"
       id="clipPath22">
      <path
         d="M 95.311,352.545 L 476.403,352.545 L 476.403,71.4229 L 95.311,71.4229 L 95.311,352.545 z"
         id="path24" />
    </clipPath>
    <clipPath
       clipPathUnits="userSpaceOnUse"
       id="clipPath26">
      <path
         d="M 93.311,354.545 L 478.511,354.545 L 478.511,69.1846 L 93.311,69.1846 L 93.311,354.545 z"
         id="path28" />
    </clipPath>
    <clipPath
       clipPathUnits="userSpaceOnUse"
       id="clipPath30">
      <path
         d="M 93.311,69.185 L 478.511,69.185 L 478.511,354.545 L 93.311,354.545 L 93.311,69.185 z"
         id="path32" />
    </clipPath>
    <clipPath
       clipPathUnits="userSpaceOnUse"
       id="clipPath34">
      <path
         d="M 92.311,355.545 L 479.511,355.545 L 479.511,68.1846 L 92.311,68.1846 L 92.311,355.545 z"
         id="path36" />
    </clipPath>
    <clipPath
       id="clipPath4104"
       clipPathUnits="userSpaceOnUse">
      <path
         inkscape:connector-curvature="0"
         style="opacity:0.2;color:#bebebe"
         d="m 328,-238 c -7.73199,0 -14,-6.26801 -14,-14 0,-7.73199 6.26801,-14 14,-14 7.73199,0 14,6.26801 14,14 0,7.73199 -6.26801,14 -14,14 z m 0,-9 c 2.7552,0 4.99121,-2.21357 5,-4.96875 L 333,-252 c 0,-2.76142 -2.23858,-5 -5,-5 -2.76142,0 -5,2.23858 -5,5 0,2.76142 2.23858,5 5,5 z"
         id="path7" />
    </clipPath>
    <clipPath
       id="clipPath4114"
       clipPathUnits="userSpaceOnUse">
      <path
         inkscape:connector-curvature="0"
         style="opacity:0.2;color:#bebebe"
         d="m 328,242 c -7.73199,0 -14,6.26801 -14,14 0,7.73199 6.26801,14 14,14 7.73199,0 14,-6.26801 14,-14 0,-7.73199 -6.26801,-14 -14,-14 z m 0,9 c 2.7552,0 4.99121,2.21357 5,4.96875 L 333,256 c 0,2.76142 -2.23858,5 -5,5 -2.76142,0 -5,-2.23858 -5,-5 0,-2.76142 2.23858,-5 5,-5 z"
         id="path10" />
    </clipPath>
    <clipPath
       id="clipPath4098"
       clipPathUnits="userSpaceOnUse">
      <path
         inkscape:connector-curvature="0"
         style="opacity:0.2;color:#bebebe"
         d="m 328,242 c -7.73199,0 -14,6.26801 -14,14 0,7.73199 6.26801,14 14,14 7.73199,0 14,-6.26801 14,-14 0,-7.73199 -6.26801,-14 -14,-14 z m 0,9 c 2.7552,0 4.99121,2.21357 5,4.96875 L 333,256 c 0,2.76142 -2.23858,5 -5,5 -2.76142,0 -5,-2.23858 -5,-5 0,-2.76142 2.23858,-5 5,-5 z"
         id="path13" />
    </clipPath>
  </defs>
  <g
     style="fill-rule:evenodd"
     id="g38">
    <rect
       width="11.746"
       x=".9"
       y=".901"
       rx="5.873"
       height="11.746"
       style="fill:#666666;stroke-width:0.02822222000000000;stroke-miterlimit:4;stroke-dasharray:none;stroke:none;stroke-opacity:1;fill-opacity:1"
       id="rect42" />
    <path
       inkscape:connector-curvature="0"
       d="M 5.672161,10.036905 C 5.351431,10.014775 5.053323,9.9534747 4.814113,9.8604747 4.669394,9.8042147 4.488726,9.7126017 4.472954,9.6874887 c -0.005,-0.0079 0.05747,-0.164795 0.138742,-0.348665 0.08127,-0.183871 0.147756,-0.342317 0.147756,-0.352103 0,-0.01914 -0.24557,-0.578257 -0.294107,-0.669631 C 4.449235,8.2867497 4.310808,8.1118257 4.15774,7.9283647 L 3.879434,7.5947987 3.861084,7.4481457 c -0.01009,-0.08066 -0.0859,-0.678318 -0.168455,-1.328132 l -0.150108,-1.181479 -0.08824,-0.01085 c -0.25476,-0.03132 -0.406918,-0.254289 -0.329684,-0.483119 0.03283,-0.09726 0.083,-0.157395 0.176424,-0.211439 0.06109,-0.03534 0.08949,-0.04162 0.188136,-0.04162 0.09865,0 0.127045,0.0063 0.188137,0.04162 0.09342,0.05404 0.143599,0.114183 0.176424,0.211439 0.05605,0.166075 -0.01693,0.351818 -0.171745,0.437078 -0.01791,0.0099 0.09669,0.25356 0.568282,1.208477 0.324891,0.657868 0.591652,1.197376 0.5928,1.198906 0.0032,0.0042 0.165782,-2.863011 0.164969,-2.908963 -6.09e-4,-0.03435 -0.01028,-0.04248 -0.06733,-0.05662 -0.09249,-0.02292 -0.186652,-0.09438 -0.238299,-0.180843 -0.03749,-0.06276 -0.04364,-0.08934 -0.04364,-0.18859 0,-0.101941 0.0055,-0.12436 0.04693,-0.190563 0.15568,-0.248919 0.509547,-0.248919 0.665227,0 0.04152,0.06638 0.04693,0.08849 0.04693,0.191758 0,0.103121 -0.0054,0.125476 -0.04676,0.191759 -0.02791,0.04478 -0.07824,0.09548 -0.124837,0.125761 l -0.07808,0.05073 0.48883,1.393736 c 0.268856,0.766555 0.49234,1.393732 0.49663,1.393726 0.0054,-6e-6 0.513304,-2.844058 0.548092,-3.068946 10e-4,-0.0068 -0.02425,-0.02141 -0.05622,-0.03252 -0.08546,-0.02969 -0.160161,-0.09156 -0.208757,-0.172918 -0.03673,-0.06149 -0.04295,-0.08862 -0.04295,-0.18743 0,-0.101941 0.0055,-0.12436 0.04693,-0.190563 0.155681,-0.248919 0.509547,-0.248919 0.665227,0 0.0414,0.0662 0.04693,0.08862 0.04693,0.190563 0,0.09881 -0.0062,0.125941 -0.04295,0.18743 -0.0486,0.08135 -0.123299,0.143233 -0.208757,0.172918 -0.03197,0.01111 -0.05727,0.02574 -0.05622,0.03252 0.03479,0.224888 0.542716,3.06894 0.548092,3.068946 0.0043,6e-6 0.227774,-0.627171 0.49663,-1.393726 l 0.488831,-1.393736 -0.07808,-0.05073 c -0.0466,-0.03028 -0.09693,-0.08098 -0.124841,-0.125762 -0.04131,-0.06628 -0.04676,-0.08864 -0.04676,-0.191758 0,-0.103272 0.0054,-0.125379 0.04693,-0.191759 0.15568,-0.248918 0.509547,-0.248918 0.665227,0 0.0414,0.0662 0.04693,0.08862 0.04693,0.190563 0,0.09925 -0.0061,0.125832 -0.04364,0.18859 -0.05165,0.08647 -0.145807,0.157923 -0.238299,0.180843 -0.05705,0.01414 -0.06672,0.02227 -0.06733,0.05662 -8.19e-4,0.04595 0.16179,2.913198 0.164969,2.908963 0.0011,-0.0015 0.267908,-0.541037 0.592799,-1.198905 0.47159,-0.954917 0.586189,-1.198616 0.568283,-1.208477 -0.154813,-0.08526 -0.227798,-0.271003 -0.171746,-0.437078 0.03283,-0.09726 0.08301,-0.157395 0.176424,-0.211439 0.06109,-0.03534 0.08949,-0.04162 0.188137,-0.04162 0.09865,0 0.127045,0.0063 0.188137,0.04162 0.09342,0.05404 0.143598,0.114183 0.176425,0.211439 0.07723,0.22883 -0.07493,0.451802 -0.329685,0.483119 l -0.08824,0.01085 -0.150108,1.181479 c -0.08256,0.649814 -0.158364,1.247473 -0.168455,1.328132 l -0.01835,0.146653 -0.278306,0.333566 c -0.153068,0.183461 -0.29149,0.358388 -0.307605,0.388725 -0.04854,0.09137 -0.294107,0.650496 -0.294107,0.669631 0,0.0098 0.06649,0.168232 0.147756,0.352102 0.08127,0.183871 0.1437,0.340771 0.138742,0.348666 -0.03554,0.05659 -0.408059,0.210185 -0.647504,0.26697 -0.346927,0.08228 -0.416309,0.08633 -1.544436,0.09018 -0.575118,0.002 -1.119443,-0.0015 -1.209611,-0.0077 l 0,0 z"
       id="path2611"
       style="fill:#f9f9f9;fill-opacity:1" />
  </g>
</svg>
