<?xml version="1.0" encoding="UTF-8" standalone="no"?>
<svg
   xmlns:dc="http://purl.org/dc/elements/1.1/"
   xmlns:cc="http://creativecommons.org/ns#"
   xmlns:rdf="http://www.w3.org/1999/02/22-rdf-syntax-ns#"
   xmlns:svg="http://www.w3.org/2000/svg"
   xmlns="http://www.w3.org/2000/svg"
   xmlns:xlink="http://www.w3.org/1999/xlink"
   xmlns:sodipodi="http://sodipodi.sourceforge.net/DTD/sodipodi-0.dtd"
   xmlns:inkscape="http://www.inkscape.org/namespaces/inkscape"
   width="48"
   viewBox="0 0 13.546667 13.546667"
   height="48"
   id="svg2"
   version="1.1"
   inkscape:version="0.48.4 r9939"
   sodipodi:docname="eog.svg">
  <metadata
     id="metadata62">
    <rdf:RDF>
      <cc:Work
         rdf:about="">
        <dc:format>image/svg+xml</dc:format>
        <dc:type
           rdf:resource="http://purl.org/dc/dcmitype/StillImage" />
        <dc:title></dc:title>
      </cc:Work>
    </rdf:RDF>
  </metadata>
  <sodipodi:namedview
     pagecolor="#828282"
     bordercolor="#666666"
     borderopacity="1"
     objecttolerance="10"
     gridtolerance="10"
     guidetolerance="10"
     inkscape:pageopacity="0.19215686"
     inkscape:pageshadow="2"
     inkscape:window-width="1366"
     inkscape:window-height="716"
     id="namedview60"
     showgrid="false"
     inkscape:zoom="8"
     inkscape:cx="32.025332"
     inkscape:cy="28.657854"
     inkscape:window-x="0"
     inkscape:window-y="28"
     inkscape:window-maximized="1"
     inkscape:current-layer="g34" />
  <defs
     id="defs4">
    <linearGradient
       id="linearGradient3922">
      <stop
         style="stop-color:#004455;stop-opacity:1;"
         offset="0"
         id="stop3924" />
      <stop
         style="stop-color:#005b72;stop-opacity:1;"
         offset="1"
         id="stop3926" />
    </linearGradient>
    <clipPath
       clipPathUnits="userSpaceOnUse"
       id="clipPath6">
      <rect
         width="20"
         x="1"
         y="1"
         rx="2"
         height="20"
         style="fill:#fff;fill-rule:evenodd"
         id="rect8" />
    </clipPath>
    <clipPath
       clipPathUnits="userSpaceOnUse"
       id="clipPath10">
      <rect
         width="84"
         x="6"
         y="6"
         rx="6"
         height="84"
         style="fill:#fff"
         id="rect12" />
    </clipPath>
    <clipPath
       clipPathUnits="userSpaceOnUse"
       id="clipPath14">
      <path
         d="M 54.1,12.5 12.9,54.7 C -2.7,70.3 23,69 32.3,74.9 36.6,77.7 18.5,81.3 22.2,85 c 3.6,3.7 21.7,7.1 25.3,10.7 3.6,3.7 -7.3,7.6 -3.7,11.3 3.5,3.7 11.9,0.2 13.4,8.6 1.1,6.2 15.4,3.1 21.8,-2.2 4,-3.4 -6.9,-3.4 -3.3,-7.1 9,-9.1 17,-4.1 20.3,-12.5 1.8,-4.5 -13.6,-7.7 -9.5,-10.6 9.8,-6.9 45.8,-10.4 29.2,-27 L 73,12.5 c -5.3,-5 -14,-5 -18.9,0 z m -9.9,64.7 c 0.9,0 30.8,4 19.3,7.1 -4.4,1.2 -24.6,-7.1 -19.3,-7.1 z m 57.2,16.6 c 0,2.1 16.3,3.3 15.4,-0.5 -1.3,-6.4 -13.6,-5.9 -15.4,0.5 z m -69.5,11.1 c 3.7,3.2 9.3,-0.7 11.1,-5.2 -3.6,-4.7 -16.9,0.3 -11.1,5.2 z m 67.5,-6.7 c -4.6,4.2 0.8,8.6 5.3,5.7 1.2,-0.8 -0.1,-4.7 -5.3,-5.7 z"
         id="path16" />
    </clipPath>
    <clipPath
       clipPathUnits="userSpaceOnUse"
       id="clipPath18">
      <rect
         width="96"
         x="-100"
         y="-0"
         height="96"
         style="fill:#fff"
         id="rect20" />
    </clipPath>
    <clipPath
       clipPathUnits="userSpaceOnUse"
       id="clipPath22">
      <path
         d="M 95.311,352.545 L 476.403,352.545 L 476.403,71.4229 L 95.311,71.4229 L 95.311,352.545 z"
         id="path24" />
    </clipPath>
    <clipPath
       clipPathUnits="userSpaceOnUse"
       id="clipPath26">
      <path
         d="M 93.311,354.545 L 478.511,354.545 L 478.511,69.1846 L 93.311,69.1846 L 93.311,354.545 z"
         id="path28" />
    </clipPath>
    <clipPath
       clipPathUnits="userSpaceOnUse"
       id="clipPath30">
      <path
         d="M 93.311,69.185 L 478.511,69.185 L 478.511,354.545 L 93.311,354.545 L 93.311,69.185 z"
         id="path32" />
    </clipPath>
    <clipPath
       clipPathUnits="userSpaceOnUse"
       id="clipPath34">
      <path
         d="M 92.311,355.545 L 479.511,355.545 L 479.511,68.1846 L 92.311,68.1846 L 92.311,355.545 z"
         id="path36" />
    </clipPath>
    <linearGradient
       inkscape:collect="always"
       xlink:href="#linearGradient2251"
       id="linearGradient2258"
       x1="21.5"
       y1="43.467159"
       x2="21.5"
       y2="47.532516"
       gradientUnits="userSpaceOnUse" />
    <linearGradient
       inkscape:collect="always"
       id="linearGradient2251">
      <stop
         style="stop-color:#729fcf;stop-opacity:1;"
         offset="0"
         id="stop2253" />
      <stop
         style="stop-color:#729fcf;stop-opacity:0;"
         offset="1"
         id="stop2255" />
    </linearGradient>
    <linearGradient
       inkscape:collect="always"
       xlink:href="#linearGradient3619"
       id="linearGradient3588"
       gradientUnits="userSpaceOnUse"
       gradientTransform="translate(-6.676487,1.334465)"
       x1="20.29458"
       y1="28.568218"
       x2="13.14384"
       y2="14.963111" />
    <linearGradient
       id="linearGradient3619"
       inkscape:collect="always">
      <stop
         id="stop3621"
         offset="0"
         style="stop-color:#82a02b;stop-opacity:1" />
      <stop
         id="stop3623"
         offset="1"
         style="stop-color:#e6edab;stop-opacity:1" />
    </linearGradient>
  </defs>
  <g
     style="fill-rule:evenodd"
     id="g38">
    <rect
       width="11.746"
       x=".9"
       y=".901"
       rx="5.873"
       height="11.746"
       style="fill:#ffffff;stroke-width:0.02822222000000000;stroke-miterlimit:4;stroke-dasharray:none;stroke:none;stroke-opacity:1;fill-opacity:1"
       id="rect42" />
    <g
       transform="matrix(0.11531627,0,0,0.11531627,3.9211615,3.8898451)"
       id="layer1" />
    <g
       id="g3389"
       style="fill:#f9f9f9;stroke:#f9f9f9;stroke-linejoin:round"
       transform="matrix(0.93639221,0.01779363,-0.01779363,0.93639221,0.58795522,0.39238226)">
      <g
         id="g3393"
         style="fill-opacity:0;stroke-width:0.58899999" />
    </g>
    <rect
       y="4.6007714"
       x="4.9494252"
       height="6.0324998"
       width="6.0324998"
       id="rect3276"
       style="fill:none;stroke:none" />
    <path
       transform="matrix(0.31750001,0,0,0.31750001,-138.15236,-143.33317)"
       d="m 462.21428,482.93362 a 2.0013857,2.0000615 0 1 1 -4.00278,0 2.0013857,2.0000615 0 1 1 4.00278,0 z"
       sodipodi:ry="2.0000615"
       sodipodi:rx="2.0013857"
       sodipodi:cy="482.93362"
       sodipodi:cx="460.21289"
       id="path3298"
       style="fill:none;stroke:none"
       sodipodi:type="arc" />
    <rect
       style="fill:#a4a4a4;fill-opacity:0.67567581;fill-rule:evenodd;stroke:none"
       id="rect859"
       width="8.6165981"
       height="0.086837612"
       x="2.425348"
       y="2.8184674" />
    <rect
       y="4.3722916"
       x="2.3636119"
       height="0.086837612"
       width="9.5955563"
       id="rect861"
       style="fill:#a4a4a4;fill-opacity:0.67567581;fill-rule:evenodd;stroke:none" />
    <rect
       style="fill:#a4a4a4;fill-opacity:0.67567581;fill-rule:evenodd;stroke:none"
       id="rect863"
       width="9.5955563"
       height="0.086837612"
       x="2.3636119"
       y="5.9260993" />
    <rect
       y="7.4799228"
       x="2.3636119"
       height="0.086837612"
       width="9.5955563"
       id="rect889"
       style="fill:#a4a4a4;fill-opacity:0.67567581;fill-rule:evenodd;stroke:none" />
    <rect
       style="fill:#a4a4a4;fill-opacity:0.67567581;fill-rule:evenodd;stroke:none"
       id="rect891"
       width="9.5955563"
       height="0.086837612"
       x="2.3636119"
       y="9.0337296" />
    <rect
       style="fill:#a4a4a4;fill-opacity:0.67567581;fill-rule:evenodd;stroke:none"
       id="rect891-8"
       width="2.4012814"
       height="0.086837612"
       x="3.2365873"
       y="10.288584" />
    <rect
       style="fill:#ffffff;fill-opacity:1;stroke:#000000;stroke-width:0.00282222;stroke-miterlimit:4;stroke-opacity:1;stroke-dasharray:none"
       id="rect11157"
       width="3.9863889"
       height="4.480278"
       x="2.7516668"
       y="1.5875" />
    <rect
       style="fill:#a4a4a4;fill-opacity:0.67567581;fill-rule:evenodd;stroke:none"
       id="rect863-5"
       width="2.8222218"
       height="0.025540469"
       x="3.3161097"
       y="2.4919505" />
    <rect
       style="fill:#a4a4a4;fill-opacity:0.67567581;fill-rule:evenodd;stroke:none"
       id="rect863-5-0"
       width="2.8222218"
       height="0.025540469"
       x="3.2808337"
       y="3.1269522" />
    <rect
       style="fill:#a4a4a4;fill-opacity:0.67567581;fill-rule:evenodd;stroke:none"
       id="rect863-5-1"
       width="2.8222218"
       height="0.025540469"
       x="3.280834"
       y="3.6913962" />
    <rect
       style="fill:#a4a4a4;fill-opacity:0.67567581;fill-rule:evenodd;stroke:none"
       id="rect863-5-7"
       width="2.8222218"
       height="0.025540469"
       x="3.2631941"
       y="4.1500068" />
    <rect
       style="fill:#a4a4a4;fill-opacity:0.67567581;fill-rule:evenodd;stroke:none"
       id="rect863-5-0-9"
       width="2.8222218"
       height="0.025540469"
       x="3.2279181"
       y="4.7850084" />
    <rect
       style="fill:#a4a4a4;fill-opacity:0.67567581;fill-rule:evenodd;stroke:none"
       id="rect863-5-1-2"
       width="2.8222218"
       height="0.025540469"
       x="3.2279184"
       y="5.349453" />
    <rect
       style="fill:#ffffff;fill-opacity:1;fill-rule:evenodd;stroke:#000000;stroke-width:0.00282222;stroke-miterlimit:4;stroke-opacity:1;stroke-dasharray:none"
       id="rect11157-2"
       width="3.9863889"
       height="4.480278"
       x="3.4402485"
       y="0.62284267"
       transform="matrix(0.96643617,0.25690686,-0.25690686,0.96643617,0,0)" />
    <path
       inkscape:connector-curvature="0"
       style="fill:#888888;fill-rule:evenodd"
       d="m 4.0216669,1.4463891 0,1.4111111 c 0,0.2822222 0,0.2822222 0.282222,0.2822222 l 0.282222,0 c 0.282223,0 0.282223,0 0.282223,-0.2822222 l 0,-1.1288889 c -0.282223,0 -0.282223,0 -0.282223,0.2822222 l 0,0.8466667 -0.282222,0 0,-1.4111111 0.564445,-1e-7 c 0,-0.2822223 0,-0.2822222 -0.282223,-0.2822222 l -0.282222,0 c -0.282222,0 -0.282222,-0.00104 -0.282222,0.2822223 z"
       id="path32-8" />
    <g
       style="fill:#ff0000"
       transform="matrix(0.6257,-0.17122,0.16355,0.62365,-1.682749,2.2385598)"
       id="g34">
      <path
         inkscape:connector-curvature="0"
         d="m 8.3255558,3.9511112 0,1.9755556 1.9755562,0 c 0,-1.0910692 -0.8844881,-1.9755556 -1.9755562,-1.9755556 z"
         id="path36-5"
         style="fill:#275db4;fill-opacity:1" />
      <path
         inkscape:connector-curvature="0"
         d="m 8.0433322,4.2333334 c -1.0910693,0 -1.9755555,0.8844862 -1.9755555,1.9755557 0,1.0910693 0.8844862,1.9755555 1.9755555,1.9755555 1.0910694,0 1.9755558,-0.8844862 1.9755558,-1.9755555 l -1.9755558,0 0,-1.9755557 z"
         id="path38"
         style="fill:#aa0000" />
    </g>
  </g>
</svg>
