<?xml version="1.0" encoding="UTF-8" standalone="no"?>
<svg
   xmlns:dc="http://purl.org/dc/elements/1.1/"
   xmlns:cc="http://creativecommons.org/ns#"
   xmlns:rdf="http://www.w3.org/1999/02/22-rdf-syntax-ns#"
   xmlns:svg="http://www.w3.org/2000/svg"
   xmlns="http://www.w3.org/2000/svg"
   xmlns:sodipodi="http://sodipodi.sourceforge.net/DTD/sodipodi-0.dtd"
   xmlns:inkscape="http://www.inkscape.org/namespaces/inkscape"
   width="48"
   viewBox="0 0 13.546667 13.546667"
   height="48"
   id="svg2"
   version="1.1"
   inkscape:version="0.48.4 r9939"
   sodipodi:docname="base.svg">
  <metadata
     id="metadata62">
    <rdf:RDF>
      <cc:Work
         rdf:about="">
        <dc:format>image/svg+xml</dc:format>
        <dc:type
           rdf:resource="http://purl.org/dc/dcmitype/StillImage" />
        <dc:title></dc:title>
      </cc:Work>
    </rdf:RDF>
  </metadata>
  <sodipodi:namedview
     pagecolor="#ffffff"
     bordercolor="#666666"
     borderopacity="1"
     objecttolerance="10"
     gridtolerance="10"
     guidetolerance="10"
     inkscape:pageopacity="0"
     inkscape:pageshadow="2"
     inkscape:window-width="1366"
     inkscape:window-height="716"
     id="namedview60"
     showgrid="false"
     inkscape:zoom="6.9532165"
     inkscape:cx="2.8237506"
     inkscape:cy="12.775766"
     inkscape:window-x="0"
     inkscape:window-y="28"
     inkscape:window-maximized="1"
     inkscape:current-layer="g38" />
  <defs
     id="defs4">
    <clipPath
       clipPathUnits="userSpaceOnUse"
       id="clipPath6">
      <rect
         width="20"
         x="1"
         y="1"
         rx="2"
         height="20"
         style="fill:#fff;fill-rule:evenodd"
         id="rect8" />
    </clipPath>
    <clipPath
       clipPathUnits="userSpaceOnUse"
       id="clipPath10">
      <rect
         width="84"
         x="6"
         y="6"
         rx="6"
         height="84"
         style="fill:#fff"
         id="rect12" />
    </clipPath>
    <clipPath
       clipPathUnits="userSpaceOnUse"
       id="clipPath14">
      <path
         d="M 54.1,12.5 12.9,54.7 C -2.7,70.3 23,69 32.3,74.9 36.6,77.7 18.5,81.3 22.2,85 c 3.6,3.7 21.7,7.1 25.3,10.7 3.6,3.7 -7.3,7.6 -3.7,11.3 3.5,3.7 11.9,0.2 13.4,8.6 1.1,6.2 15.4,3.1 21.8,-2.2 4,-3.4 -6.9,-3.4 -3.3,-7.1 9,-9.1 17,-4.1 20.3,-12.5 1.8,-4.5 -13.6,-7.7 -9.5,-10.6 9.8,-6.9 45.8,-10.4 29.2,-27 L 73,12.5 c -5.3,-5 -14,-5 -18.9,0 z m -9.9,64.7 c 0.9,0 30.8,4 19.3,7.1 -4.4,1.2 -24.6,-7.1 -19.3,-7.1 z m 57.2,16.6 c 0,2.1 16.3,3.3 15.4,-0.5 -1.3,-6.4 -13.6,-5.9 -15.4,0.5 z m -69.5,11.1 c 3.7,3.2 9.3,-0.7 11.1,-5.2 -3.6,-4.7 -16.9,0.3 -11.1,5.2 z m 67.5,-6.7 c -4.6,4.2 0.8,8.6 5.3,5.7 1.2,-0.8 -0.1,-4.7 -5.3,-5.7 z"
         id="path16" />
    </clipPath>
    <clipPath
       clipPathUnits="userSpaceOnUse"
       id="clipPath18">
      <rect
         width="96"
         x="-100"
         y="-0"
         height="96"
         style="fill:#fff"
         id="rect20" />
    </clipPath>
    <clipPath
       clipPathUnits="userSpaceOnUse"
       id="clipPath22">
      <path
         d="M 95.311,352.545 L 476.403,352.545 L 476.403,71.4229 L 95.311,71.4229 L 95.311,352.545 z"
         id="path24" />
    </clipPath>
    <clipPath
       clipPathUnits="userSpaceOnUse"
       id="clipPath26">
      <path
         d="M 93.311,354.545 L 478.511,354.545 L 478.511,69.1846 L 93.311,69.1846 L 93.311,354.545 z"
         id="path28" />
    </clipPath>
    <clipPath
       clipPathUnits="userSpaceOnUse"
       id="clipPath30">
      <path
         d="M 93.311,69.185 L 478.511,69.185 L 478.511,354.545 L 93.311,354.545 L 93.311,69.185 z"
         id="path32" />
    </clipPath>
    <clipPath
       clipPathUnits="userSpaceOnUse"
       id="clipPath34">
      <path
         d="M 92.311,355.545 L 479.511,355.545 L 479.511,68.1846 L 92.311,68.1846 L 92.311,355.545 z"
         id="path36" />
    </clipPath>
  </defs>
  <g
     style="fill-rule:evenodd"
     id="g38">
    <rect
       width="11.746"
       x=".9"
       y=".901"
       rx="5.873"
       height="11.746"
       style="fill:#ececec;stroke-width:0.02822222000000000;stroke-miterlimit:4;stroke-dasharray:none;stroke:none;stroke-opacity:1;fill-opacity:1"
       id="rect42" />
    <rect
       style="fill:#1a1a1a;fill-opacity:1;stroke:none"
       id="rect3007"
       width="0.14058855"
       height="2.9629769"
       x="6.1288986"
       y="3.074775" />
    <path
       sodipodi:type="arc"
       style="fill:#ececec;fill-opacity:1;stroke:#000000;stroke-opacity:1"
       id="path3075"
       sodipodi:cx="-35.019764"
       sodipodi:cy="-1.1858699"
       sodipodi:rx="5.1055508"
       sodipodi:ry="5.4650965"
       d="m -29.914213,-1.1858699 a 5.1055508,5.4650965 0 1 1 -10.211102,0 5.1055508,5.4650965 0 1 1 10.211102,0 z"
       transform="matrix(0.07055556,0,0,0.07055556,8.6352526,3.7469808)" />
    <path
       sodipodi:type="arc"
       style="fill:#ececec;fill-opacity:1;fill-rule:evenodd;stroke:#000000;stroke-width:0.24999999;stroke-miterlimit:4;stroke-opacity:1;stroke-dasharray:none"
       id="path3075-4-5"
       sodipodi:cx="-35.019764"
       sodipodi:cy="-1.1858699"
       sodipodi:rx="5.1055508"
       sodipodi:ry="5.4650965"
       d="m -29.914213,-1.1858699 a 5.1055508,5.4650965 0 1 1 -10.211102,0 5.1055508,5.4650965 0 1 1 10.211102,0 z"
       transform="matrix(0.28222224,0,0,0.28222224,14.925795,9.0063366)" />
    <rect
       style="fill:#1a1a1a;fill-opacity:1;fill-rule:evenodd;stroke:none"
       id="rect3007-5"
       width="0.14058855"
       height="2.9629772"
       x="7.5545778"
       y="3.2168355" />
    <path
       sodipodi:type="arc"
       style="fill:#ececec;fill-opacity:1;fill-rule:evenodd;stroke:#000000;stroke-opacity:1"
       id="path3075-6"
       sodipodi:cx="-35.019764"
       sodipodi:cy="-1.1858699"
       sodipodi:rx="5.1055508"
       sodipodi:ry="5.4650965"
       d="m -29.914213,-1.1858699 a 5.1055508,5.4650965 0 1 1 -10.211102,0 5.1055508,5.4650965 0 1 1 10.211102,0 z"
       transform="matrix(0.07055556,0,0,0.07055556,10.10152,4.7008154)" />
    <rect
       style="fill:#1a1a1a;fill-opacity:1;fill-rule:evenodd;stroke:none"
       id="rect3007-99"
       width="0.14058855"
       height="2.9629772"
       x="4.5916004"
       y="2.9733031" />
    <path
       sodipodi:type="arc"
       style="fill:#ececec;fill-opacity:1;fill-rule:evenodd;stroke:#000000;stroke-opacity:1"
       id="path3075-44"
       sodipodi:cx="-35.019764"
       sodipodi:cy="-1.1858699"
       sodipodi:rx="5.1055508"
       sodipodi:ry="5.4650965"
       d="m -29.914213,-1.1858699 a 5.1055508,5.4650965 0 1 1 -10.211102,0 5.1055508,5.4650965 0 1 1 10.211102,0 z"
       transform="matrix(0.07055556,0,0,0.07055556,7.0979544,4.8631703)" />
    <rect
       style="fill:#1a1a1a;fill-opacity:1;fill-rule:evenodd;stroke:none"
       id="rect3007-0"
       width="0.14058855"
       height="2.9629772"
       x="8.9751825"
       y="3.3386016" />
    <path
       sodipodi:type="arc"
       style="fill:#ececec;fill-opacity:1;fill-rule:evenodd;stroke:#000000;stroke-opacity:1"
       id="path3075-40"
       sodipodi:cx="-35.019764"
       sodipodi:cy="-1.1858699"
       sodipodi:rx="5.1055508"
       sodipodi:ry="5.4650965"
       d="m -29.914213,-1.1858699 a 5.1055508,5.4650965 0 1 1 -10.211102,0 5.1055508,5.4650965 0 1 1 10.211102,0 z"
       transform="matrix(0.07055556,0,0,0.07055556,11.522126,5.7561226)" />
    <rect
       style="fill:#1a1a1a;fill-opacity:1;fill-rule:evenodd;stroke:none"
       id="rect3007-8"
       width="1.3236234"
       height="3.3282757"
       x="7.757369"
       y="6.9915881"
       rx="0.69491529" />
    <rect
       style="fill:#ececec;fill-opacity:1;fill-rule:evenodd;stroke:#000000;stroke-width:0.05291667;stroke-miterlimit:4;stroke-opacity:1;stroke-dasharray:none"
       id="rect3007-8-6"
       width="0.99271762"
       height="2.4962068"
       x="7.4609809"
       y="-9.712182"
       rx="0.52118647"
       transform="matrix(0,1,-1,0,0,0)" />
  </g>
</svg>
