<?xml version="1.0" encoding="UTF-8" standalone="no"?>
<svg
   xmlns:dc="http://purl.org/dc/elements/1.1/"
   xmlns:cc="http://creativecommons.org/ns#"
   xmlns:rdf="http://www.w3.org/1999/02/22-rdf-syntax-ns#"
   xmlns:svg="http://www.w3.org/2000/svg"
   xmlns="http://www.w3.org/2000/svg"
   xmlns:xlink="http://www.w3.org/1999/xlink"
   xmlns:sodipodi="http://sodipodi.sourceforge.net/DTD/sodipodi-0.dtd"
   xmlns:inkscape="http://www.inkscape.org/namespaces/inkscape"
   width="48"
   viewBox="0 0 13.546667 13.546667"
   height="48"
   id="svg2"
   version="1.1"
   inkscape:version="0.48.4 r9939"
   sodipodi:docname="monodevelop.svg">
  <metadata
     id="metadata26">
    <rdf:RDF>
      <cc:Work
         rdf:about="">
        <dc:format>image/svg+xml</dc:format>
        <dc:type
           rdf:resource="http://purl.org/dc/dcmitype/StillImage" />
        <dc:title />
      </cc:Work>
    </rdf:RDF>
  </metadata>
  <sodipodi:namedview
     pagecolor="#ffffff"
     bordercolor="#666666"
     borderopacity="1"
     objecttolerance="10"
     gridtolerance="10"
     guidetolerance="10"
     inkscape:pageopacity="0"
     inkscape:pageshadow="2"
     inkscape:window-width="1366"
     inkscape:window-height="716"
     id="namedview24"
     showgrid="false"
     inkscape:zoom="4.9166667"
     inkscape:cx="24.40678"
     inkscape:cy="24"
     inkscape:window-x="0"
     inkscape:window-y="28"
     inkscape:window-maximized="1"
     inkscape:current-layer="g12" />
  <defs
     id="defs4">
    <linearGradient
       id="linearGradient4460">
      <stop
         offset="0"
         style="stop-color:#668cbd"
         id="stop7" />
      <stop
         offset="1"
         style="stop-color:#b5cbe9"
         id="stop9" />
    </linearGradient>
    <linearGradient
       gradientTransform="matrix(1.10525 0 0 1.10525 -134.27874 -295.76183)"
       xlink:href="#linearGradient4460"
       id="linearGradient3004"
       y1="279.096"
       y2="268.33"
       gradientUnits="userSpaceOnUse"
       x2="0" />
  </defs>
  <g
     style="fill-rule:evenodd"
     id="g12">
    <rect
       width="11.853"
       x=".847"
       y=".847"
       rx="5.927"
       height="11.853"
       style="fill:#668cbd;fill-opacity:1"
       id="rect16" />
  </g>
  <path
     style="fill:#eeeeec;fill-opacity:1;fill-rule:evenodd;stroke:none;display:inline;enable-background:new"
     id="path3607"
     sodipodi:nodetypes="cssscsssssssssscc"
     inkscape:export-xdpi="16.219999"
     d="M 3.8519671,9.5537595 C 3.4526258,8.5843425 2.9231997,7.7300193 2.9114314,6.1467999 2.8992737,4.5110693 4.2984713,3.4520517 5.4043309,3.4519253 6.743215,3.4517695 7.9212169,4.5856165 7.9833321,5.5247821 8.0393897,6.3723361 7.7386381,7.6049745 6.1862833,7.5958124 5.4450636,7.5915001 4.6748728,6.9448634 4.6708135,5.9828108 4.6664233,4.9446665 5.9632732,4.8433893 6.2903056,5.1076803 6.4173376,5.2103414 6.4134538,5.4134941 6.3010675,5.3768187 5.6028072,5.1488261 5.1714305,5.5981667 5.2034659,6.0452067 5.2469543,6.6517677 5.6058015,7.0126442 6.2490596,7.0433387 7.1769625,7.0875392 7.4367315,6.1825631 7.4130083,5.8152656 7.3841811,5.3686952 6.9959145,4.4502131 5.7881441,4.2824151 5.2178637,4.2032709 4.745232,4.374564 4.3999969,4.7102233 4.0547685,5.045912 3.8606779,5.3930318 3.8323212,5.9624433 c -0.029327,0.5889617 0.098896,0.9345372 0.4501581,1.7072572 0.1254696,0.2759704 0.475937,0.832756 0.7473458,1.390299 l -1.1778534,0.49376 z"
     inkscape:export-filename="/home/lluis/MonoDevelopWork/mono-logo.png"
     inkscape:export-ydpi="16.219999"
     inkscape:connector-curvature="0" />
  <path
     style="fill:#a9c4e3;fill-opacity:1;fill-rule:evenodd;stroke:none;display:inline;enable-background:new"
     id="path3611"
     sodipodi:nodetypes="cssscsssssssssscc"
     inkscape:export-xdpi="16.219999"
     d="m 9.964173,3.4519253 c 0.399345,0.9694831 0.928767,1.823772 0.940538,3.4070252 0.01216,1.635731 -1.387045,2.694748 -2.4929005,2.694809 C 7.0729244,9.5539855 5.8949224,8.4201 5.8328101,7.4810293 5.7767542,6.6333827 6.0775013,5.4007128 7.6298607,5.4099357 8.3710801,5.4142481 9.141271,6.0608869 9.145331,7.0229081 9.149721,8.0610208 7.8528685,8.1623589 7.525836,7.8980385 7.3988063,7.7953773 7.4026833,7.5922564 7.5150742,7.6289001 8.2133321,7.8569221 8.6447041,7.4075205 8.6126689,6.9605098 8.5691825,6.353951 8.2103377,5.9931378 7.5670797,5.9624433 6.6391791,5.9182429 6.3794079,6.8232505 6.4031289,7.1904849 6.4319561,7.6370529 6.8202204,8.5555985 8.0279977,8.7232695 8.5982753,8.8024475 9.0709073,8.6311545 9.416139,8.2954955 9.761373,7.9597752 9.955466,7.6126554 9.98382,7.0433387 10.013147,6.4543454 9.88492,6.1088015 9.533658,5.3360793 9.408191,5.0600163 9.0577185,4.5033545 8.7863169,3.9457488 L 9.964166,3.4519253 z"
     inkscape:export-filename="/home/lluis/MonoDevelopWork/mono-logo.png"
     inkscape:export-ydpi="16.219999"
     inkscape:connector-curvature="0" />
</svg>
