<?xml version="1.0" encoding="UTF-8" standalone="no"?>
<svg
   xmlns:dc="http://purl.org/dc/elements/1.1/"
   xmlns:cc="http://creativecommons.org/ns#"
   xmlns:rdf="http://www.w3.org/1999/02/22-rdf-syntax-ns#"
   xmlns:svg="http://www.w3.org/2000/svg"
   xmlns="http://www.w3.org/2000/svg"
   xmlns:sodipodi="http://sodipodi.sourceforge.net/DTD/sodipodi-0.dtd"
   xmlns:inkscape="http://www.inkscape.org/namespaces/inkscape"
   width="48"
   viewBox="0 0 13.546667 13.546667"
   height="48"
   id="svg2"
   version="1.1"
   inkscape:version="0.48.4 r9939"
   sodipodi:docname="input-mouse.svg">
  <metadata
     id="metadata62">
    <rdf:RDF>
      <cc:Work
         rdf:about="">
        <dc:format>image/svg+xml</dc:format>
        <dc:type
           rdf:resource="http://purl.org/dc/dcmitype/StillImage" />
        <dc:title></dc:title>
      </cc:Work>
    </rdf:RDF>
  </metadata>
  <sodipodi:namedview
     pagecolor="#ffffff"
     bordercolor="#666666"
     borderopacity="1"
     objecttolerance="10"
     gridtolerance="10"
     guidetolerance="10"
     inkscape:pageopacity="0"
     inkscape:pageshadow="2"
     inkscape:window-width="1366"
     inkscape:window-height="716"
     id="namedview60"
     showgrid="false"
     inkscape:zoom="2.8284271"
     inkscape:cx="3.1223888"
     inkscape:cy="32.344738"
     inkscape:window-x="0"
     inkscape:window-y="28"
     inkscape:window-maximized="1"
     inkscape:current-layer="g38" />
  <defs
     id="defs4">
    <linearGradient
       id="linearGradient3922">
      <stop
         style="stop-color:#004455;stop-opacity:1;"
         offset="0"
         id="stop3924" />
      <stop
         style="stop-color:#005b72;stop-opacity:1;"
         offset="1"
         id="stop3926" />
    </linearGradient>
    <clipPath
       clipPathUnits="userSpaceOnUse"
       id="clipPath6">
      <rect
         width="20"
         x="1"
         y="1"
         rx="2"
         height="20"
         style="fill:#fff;fill-rule:evenodd"
         id="rect8" />
    </clipPath>
    <clipPath
       clipPathUnits="userSpaceOnUse"
       id="clipPath10">
      <rect
         width="84"
         x="6"
         y="6"
         rx="6"
         height="84"
         style="fill:#fff"
         id="rect12" />
    </clipPath>
    <clipPath
       clipPathUnits="userSpaceOnUse"
       id="clipPath14">
      <path
         d="M 54.1,12.5 12.9,54.7 C -2.7,70.3 23,69 32.3,74.9 36.6,77.7 18.5,81.3 22.2,85 c 3.6,3.7 21.7,7.1 25.3,10.7 3.6,3.7 -7.3,7.6 -3.7,11.3 3.5,3.7 11.9,0.2 13.4,8.6 1.1,6.2 15.4,3.1 21.8,-2.2 4,-3.4 -6.9,-3.4 -3.3,-7.1 9,-9.1 17,-4.1 20.3,-12.5 1.8,-4.5 -13.6,-7.7 -9.5,-10.6 9.8,-6.9 45.8,-10.4 29.2,-27 L 73,12.5 c -5.3,-5 -14,-5 -18.9,0 z m -9.9,64.7 c 0.9,0 30.8,4 19.3,7.1 -4.4,1.2 -24.6,-7.1 -19.3,-7.1 z m 57.2,16.6 c 0,2.1 16.3,3.3 15.4,-0.5 -1.3,-6.4 -13.6,-5.9 -15.4,0.5 z m -69.5,11.1 c 3.7,3.2 9.3,-0.7 11.1,-5.2 -3.6,-4.7 -16.9,0.3 -11.1,5.2 z m 67.5,-6.7 c -4.6,4.2 0.8,8.6 5.3,5.7 1.2,-0.8 -0.1,-4.7 -5.3,-5.7 z"
         id="path16" />
    </clipPath>
    <clipPath
       clipPathUnits="userSpaceOnUse"
       id="clipPath18">
      <rect
         width="96"
         x="-100"
         y="-0"
         height="96"
         style="fill:#fff"
         id="rect20" />
    </clipPath>
    <clipPath
       clipPathUnits="userSpaceOnUse"
       id="clipPath22">
      <path
         d="M 95.311,352.545 L 476.403,352.545 L 476.403,71.4229 L 95.311,71.4229 L 95.311,352.545 z"
         id="path24" />
    </clipPath>
    <clipPath
       clipPathUnits="userSpaceOnUse"
       id="clipPath26">
      <path
         d="M 93.311,354.545 L 478.511,354.545 L 478.511,69.1846 L 93.311,69.1846 L 93.311,354.545 z"
         id="path28" />
    </clipPath>
    <clipPath
       clipPathUnits="userSpaceOnUse"
       id="clipPath30">
      <path
         d="M 93.311,69.185 L 478.511,69.185 L 478.511,354.545 L 93.311,354.545 L 93.311,69.185 z"
         id="path32" />
    </clipPath>
    <clipPath
       clipPathUnits="userSpaceOnUse"
       id="clipPath34">
      <path
         d="M 92.311,355.545 L 479.511,355.545 L 479.511,68.1846 L 92.311,68.1846 L 92.311,355.545 z"
         id="path36" />
    </clipPath>
  </defs>
  <g
     style="fill-rule:evenodd"
     id="g38">
    <rect
       width="11.746"
       x=".9"
       y=".901"
       rx="5.873"
       height="11.746"
       style="fill:#1c4b8a;stroke-width:0.02822222000000000;stroke-miterlimit:4;stroke-dasharray:none;stroke:none;stroke-opacity:1;fill-opacity:1"
       id="rect42" />
    <g
       transform="matrix(0.11531627,0,0,0.11531627,3.9211615,3.8898451)"
       id="layer1" />
    <g
       transform="matrix(0.16336913,0,0,0.16336913,2.7365647,2.5930369)"
       id="layer0">
      <path
         style="fill:#f2f2f2;fill-rule:evenodd;stroke:#595959;stroke-width:0;stroke-linecap:square;stroke-linejoin:miter;stroke-miterlimit:2.01260185"
         inkscape:connector-curvature="0"
         id="shape4"
         transform="matrix(0,1,-1,0,28.1952,19.2102)"
         stroke-miterlimit="2.01260185242"
         d="M 8.10829,3.78888 C 7.96104,1.57858 6.06867,-0.10535 3.85624,0.00514013 1.64379,0.11563 -0.0713897,1.97973 0.00228729,4.1937 0.0759643,6.40767 1.91128,8.15361 4.12616,8.11676 6.34106,8.07992 8.11727,6.27391 8.11727,4.05871" />
      <path
         style="fill:none;stroke:#f2f2f2;stroke-width:3.11811566;stroke-linecap:square;stroke-linejoin:bevel"
         inkscape:connector-curvature="0"
         id="shape1"
         transform="translate(24.1444,23.21)"
         d="M 0,0 0,23.271" />
      <path
         style="fill:none;stroke:#f2f2f2;stroke-width:3.11811566;stroke-linecap:square;stroke-linejoin:miter;stroke-miterlimit:2.01260185"
         inkscape:connector-curvature="0"
         id="shape0"
         transform="translate(14.1367,13.5736)"
         stroke-miterlimit="2.01260191180"
         d="M 17.9048,16.1443 C 21.1572,11.9593 20.5814,5.96399 16.592,2.47442 12.6026,-1.01515 6.58404,-0.788014 2.86902,2.99233 -0.846012,6.77266 -0.968243,12.7943 2.59032,16.7223" />
      <path
         style="fill:none;stroke:#f2f2f2;stroke-width:3.11811566;stroke-linecap:square;stroke-linejoin:miter;stroke-miterlimit:2.01260185"
         inkscape:connector-curvature="0"
         id="shape11"
         transform="translate(8.02221,7.68524)"
         stroke-miterlimit="2.01260191180"
         d="M 28.7039,25.8816 C 33.9526,19.1277 32.9779,9.44331 26.4885,3.87085 19.9991,-1.70162 10.2786,-1.20119 4.39577,5.00823 -1.48709,11.2177 -1.46216,20.9509 4.45243,27.1301" />
      <path
         style="fill:none;stroke:#f2f2f2;stroke-width:3.11811566;stroke-linecap:square;stroke-linejoin:miter;stroke-miterlimit:2.01260185"
         inkscape:connector-curvature="0"
         id="shape2"
         transform="translate(2.23745,2.1082)"
         stroke-miterlimit="2.01260191180"
         d="M 39.251,35.3917 C 46.4117,26.1776 45.1037,12.9699 36.275,5.33916 27.4462,-2.29155 14.1883,-1.67309 6.10827,6.7464 -1.97177,15.1659 -2.04443,28.438 5.94295,36.9454" />
    </g>
    <g
       transform="matrix(0.16336913,0,0,0.16336913,2.7365647,2.5930369)"
       id="layer0-4">
      <path
         style="fill:#f2f2f2;fill-rule:evenodd;stroke:#595959;stroke-width:0;stroke-linecap:square;stroke-linejoin:miter;stroke-miterlimit:2.01260185"
         inkscape:connector-curvature="0"
         id="shape4-9"
         transform="matrix(0,1,-1,0,28.1952,19.2102)"
         stroke-miterlimit="2.01260185242"
         d="M 8.10829,3.78888 C 7.96104,1.57858 6.06867,-0.10535 3.85624,0.00514013 1.64379,0.11563 -0.0713897,1.97973 0.00228729,4.1937 0.0759643,6.40767 1.91128,8.15361 4.12616,8.11676 6.34106,8.07992 8.11727,6.27391 8.11727,4.05871" />
      <path
         style="fill:none;stroke:#f2f2f2;stroke-width:3.11811566;stroke-linecap:square;stroke-linejoin:bevel"
         inkscape:connector-curvature="0"
         id="shape1-4"
         transform="translate(24.1444,23.21)"
         d="M 0,0 0,23.271" />
      <path
         style="fill:none;stroke:#f2f2f2;stroke-width:3.11811566;stroke-linecap:square;stroke-linejoin:miter;stroke-miterlimit:2.01260185"
         inkscape:connector-curvature="0"
         id="shape0-6"
         transform="translate(14.1367,13.5736)"
         stroke-miterlimit="2.01260191180"
         d="M 17.9048,16.1443 C 21.1572,11.9593 20.5814,5.96399 16.592,2.47442 12.6026,-1.01515 6.58404,-0.788014 2.86902,2.99233 -0.846012,6.77266 -0.968243,12.7943 2.59032,16.7223" />
      <path
         style="fill:none;stroke:#f2f2f2;stroke-width:3.11811566;stroke-linecap:square;stroke-linejoin:miter;stroke-miterlimit:2.01260185"
         inkscape:connector-curvature="0"
         id="shape11-9"
         transform="translate(8.02221,7.68524)"
         stroke-miterlimit="2.01260191180"
         d="M 28.7039,25.8816 C 33.9526,19.1277 32.9779,9.44331 26.4885,3.87085 19.9991,-1.70162 10.2786,-1.20119 4.39577,5.00823 -1.48709,11.2177 -1.46216,20.9509 4.45243,27.1301" />
      <path
         style="fill:none;stroke:#f2f2f2;stroke-width:3.11811566;stroke-linecap:square;stroke-linejoin:miter;stroke-miterlimit:2.01260185"
         inkscape:connector-curvature="0"
         id="shape2-0"
         transform="translate(2.23745,2.1082)"
         stroke-miterlimit="2.01260191180"
         d="M 39.251,35.3917 C 46.4117,26.1776 45.1037,12.9699 36.275,5.33916 27.4462,-2.29155 14.1883,-1.67309 6.10827,6.7464 -1.97177,15.1659 -2.04443,28.438 5.94295,36.9454" />
    </g>
  </g>
</svg>
