<?xml version="1.0" encoding="UTF-8" standalone="no"?>
<svg
   xmlns:dc="http://purl.org/dc/elements/1.1/"
   xmlns:cc="http://creativecommons.org/ns#"
   xmlns:rdf="http://www.w3.org/1999/02/22-rdf-syntax-ns#"
   xmlns:svg="http://www.w3.org/2000/svg"
   xmlns="http://www.w3.org/2000/svg"
   xmlns:xlink="http://www.w3.org/1999/xlink"
   xmlns:sodipodi="http://sodipodi.sourceforge.net/DTD/sodipodi-0.dtd"
   xmlns:inkscape="http://www.inkscape.org/namespaces/inkscape"
   width="48"
   viewBox="0 0 13.546667 13.546667"
   height="48"
   id="svg2"
   version="1.1"
   inkscape:version="0.48.4 r9939"
   sodipodi:docname="gtk-paste.svg">
  <metadata
     id="metadata62">
    <rdf:RDF>
      <cc:Work
         rdf:about="">
        <dc:format>image/svg+xml</dc:format>
        <dc:type
           rdf:resource="http://purl.org/dc/dcmitype/StillImage" />
        <dc:title></dc:title>
      </cc:Work>
    </rdf:RDF>
  </metadata>
  <sodipodi:namedview
     pagecolor="#1a1a1a"
     bordercolor="#666666"
     borderopacity="1"
     objecttolerance="10"
     gridtolerance="10"
     guidetolerance="10"
     inkscape:pageopacity="1"
     inkscape:pageshadow="2"
     inkscape:window-width="1366"
     inkscape:window-height="716"
     id="namedview60"
     showgrid="false"
     inkscape:zoom="6.9532165"
     inkscape:cx="-1.8901832"
     inkscape:cy="36.875436"
     inkscape:window-x="0"
     inkscape:window-y="28"
     inkscape:window-maximized="1"
     inkscape:current-layer="g38" />
  <defs
     id="defs4">
    <clipPath
       clipPathUnits="userSpaceOnUse"
       id="clipPath6">
      <rect
         width="20"
         x="1"
         y="1"
         rx="2"
         height="20"
         style="fill:#fff;fill-rule:evenodd"
         id="rect8" />
    </clipPath>
    <clipPath
       clipPathUnits="userSpaceOnUse"
       id="clipPath10">
      <rect
         width="84"
         x="6"
         y="6"
         rx="6"
         height="84"
         style="fill:#fff"
         id="rect12" />
    </clipPath>
    <clipPath
       clipPathUnits="userSpaceOnUse"
       id="clipPath14">
      <path
         d="M 54.1,12.5 12.9,54.7 C -2.7,70.3 23,69 32.3,74.9 36.6,77.7 18.5,81.3 22.2,85 c 3.6,3.7 21.7,7.1 25.3,10.7 3.6,3.7 -7.3,7.6 -3.7,11.3 3.5,3.7 11.9,0.2 13.4,8.6 1.1,6.2 15.4,3.1 21.8,-2.2 4,-3.4 -6.9,-3.4 -3.3,-7.1 9,-9.1 17,-4.1 20.3,-12.5 1.8,-4.5 -13.6,-7.7 -9.5,-10.6 9.8,-6.9 45.8,-10.4 29.2,-27 L 73,12.5 c -5.3,-5 -14,-5 -18.9,0 z m -9.9,64.7 c 0.9,0 30.8,4 19.3,7.1 -4.4,1.2 -24.6,-7.1 -19.3,-7.1 z m 57.2,16.6 c 0,2.1 16.3,3.3 15.4,-0.5 -1.3,-6.4 -13.6,-5.9 -15.4,0.5 z m -69.5,11.1 c 3.7,3.2 9.3,-0.7 11.1,-5.2 -3.6,-4.7 -16.9,0.3 -11.1,5.2 z m 67.5,-6.7 c -4.6,4.2 0.8,8.6 5.3,5.7 1.2,-0.8 -0.1,-4.7 -5.3,-5.7 z"
         id="path16" />
    </clipPath>
    <clipPath
       clipPathUnits="userSpaceOnUse"
       id="clipPath18">
      <rect
         width="96"
         x="-100"
         y="-0"
         height="96"
         style="fill:#fff"
         id="rect20" />
    </clipPath>
    <clipPath
       clipPathUnits="userSpaceOnUse"
       id="clipPath22">
      <path
         d="M 95.311,352.545 L 476.403,352.545 L 476.403,71.4229 L 95.311,71.4229 L 95.311,352.545 z"
         id="path24" />
    </clipPath>
    <clipPath
       clipPathUnits="userSpaceOnUse"
       id="clipPath26">
      <path
         d="M 93.311,354.545 L 478.511,354.545 L 478.511,69.1846 L 93.311,69.1846 L 93.311,354.545 z"
         id="path28" />
    </clipPath>
    <clipPath
       clipPathUnits="userSpaceOnUse"
       id="clipPath30">
      <path
         d="M 93.311,69.185 L 478.511,69.185 L 478.511,354.545 L 93.311,354.545 L 93.311,69.185 z"
         id="path32" />
    </clipPath>
    <clipPath
       clipPathUnits="userSpaceOnUse"
       id="clipPath34">
      <path
         d="M 92.311,355.545 L 479.511,355.545 L 479.511,68.1846 L 92.311,68.1846 L 92.311,355.545 z"
         id="path36" />
    </clipPath>
    <linearGradient
       x1="27.310438"
       y1="2.9783683"
       x2="43.830559"
       y2="49.820267"
       id="linearGradient5031"
       xlink:href="#linearGradient563"
       gradientUnits="userSpaceOnUse"
       gradientTransform="matrix(0.8031806,0,0,0.8923175,-33.085487,-2.1007032)" />
    <linearGradient
       id="linearGradient563">
      <stop
         style="stop-color:#d9cce6;stop-opacity:1.0000000;"
         offset="0.0000000"
         id="stop564" />
      <stop
         style="stop-color:#73667f;stop-opacity:1.0000000;"
         offset="1.0000000"
         id="stop565" />
    </linearGradient>
    <linearGradient
       id="gradient6"
       gradientTransform="matrix(0.28896148,0,0,0.15504758,7.7011663,1.8777106)"
       gradientUnits="userSpaceOnUse"
       x1="-25.420583"
       y1="1378.3444"
       x2="-25.420583"
       y2="1375.6897"
       spreadMethod="pad">
      <stop
         stop-color="#ffd70c"
         offset="0.00000000000"
         stop-opacity="1.00000000000"
         id="stop37" />
      <stop
         stop-color="#fff054"
         offset="1.00000000000"
         stop-opacity="1.00000000000"
         id="stop39" />
    </linearGradient>
    <linearGradient
       id="gradient5"
       gradientTransform="matrix(0.28896177,0,0,0.15504743,6.2194996,1.8777106)"
       gradientUnits="userSpaceOnUse"
       x1="-25.420557"
       y1="1378.3457"
       x2="-25.420557"
       y2="1375.691"
       spreadMethod="pad">
      <stop
         stop-color="#ffd70c"
         offset="0.00000000000"
         stop-opacity="1.00000000000"
         id="stop32" />
      <stop
         stop-color="#fff054"
         offset="1.00000000000"
         stop-opacity="1.00000000000"
         id="stop34" />
    </linearGradient>
    <linearGradient
       id="gradient4"
       gradientTransform="matrix(0.28895584,0,0,0.15505061,4.7378329,1.8777106)"
       gradientUnits="userSpaceOnUse"
       x1="-25.421078"
       y1="1378.3175"
       x2="-25.421078"
       y2="1375.6628"
       spreadMethod="pad">
      <stop
         stop-color="#ffd70c"
         offset="0.00000000000"
         stop-opacity="1.00000000000"
         id="stop27" />
      <stop
         stop-color="#fff054"
         offset="1.00000000000"
         stop-opacity="1.00000000000"
         id="stop29" />
    </linearGradient>
  </defs>
  <g
     style="fill-rule:evenodd"
     id="g38">
    <rect
       width="11.746"
       x=".9"
       y=".901"
       rx="5.873"
       height="11.746"
       style="fill:#b3b3b3;stroke-width:0.02822222000000000;stroke-miterlimit:4;stroke-dasharray:none;stroke:none;stroke-opacity:1;fill-opacity:1"
       id="rect42" />
    <path
       style="fill:#ffffff"
       inkscape:connector-curvature="0"
       id="rect2991"
       d="m 3.995416,4.6744688 c -0.2265475,0 -0.4074524,0.1559073 -0.4074524,0.351194 l 0,6.7183672 6.3877336,0 0,-6.7183672 c 0,-0.1952867 -0.1808955,-0.351194 -0.407448,-0.351194 z" />
    <path
       style="fill:#ffffff;fill-opacity:1;stroke:none"
       d="m 3.5312196,11.699879 c 0.7903797,0.426815 1.2017213,0.943069 3.2470985,0.953836 0.5754798,-0.01278 1.6824874,0.128674 3.2268039,-0.97413 z"
       id="path11622"
       inkscape:connector-curvature="0"
       sodipodi:nodetypes="cccc" />
    <rect
       style="fill:#000000;fill-opacity:0.70980392"
       y="7.9286103"
       x="4.1873994"
       id="rect951"
       width="1.7115331"
       height="0.32398427" />
    <rect
       style="fill:#000000;fill-opacity:0.70980392"
       y="9.5503435"
       x="4.1873994"
       id="rect955"
       width="2.8955431"
       height="0.61397147" />
    <path
       style="fill:#000000;fill-opacity:0.68104063"
       inkscape:connector-curvature="0"
       id="path1548"
       d="m 2.9256166,10.191842 c 0,-0.2411071 -0.195456,-0.4365641 -0.436561,-0.4365641 -0.241108,0 -0.436563,0.195457 -0.436563,0.4365641 0,0.241106 0.195455,0.436561 0.436563,0.436561 0.241105,0 0.436561,-0.195455 0.436561,-0.436561 z" />
    <rect
       style="fill:#000000;fill-opacity:0.70980392"
       y="5.3842077"
       x="4.1873994"
       id="rect949"
       width="3.5964789"
       height="1.1835569" />
    <path
       style="fill:#000000;fill-opacity:0.70980392"
       inkscape:connector-curvature="0"
       id="path968"
       d="m 6.457586,11.067918 0,0.555583 1.190628,0 0,-0.555583 z" />
    <path
       style="fill:#000000;fill-opacity:0.70980392"
       inkscape:connector-curvature="0"
       id="path966"
       d="m 7.9533164,11.187261 0,0.502751 1.217078,0 0,-0.502751 z" />
    <path
       style="fill:#000000;fill-opacity:0.70980392"
       inkscape:connector-curvature="0"
       id="rect957"
       d="m 8.1623127,10.091365 0,0.502751 1.190628,0 0,-0.502751 z" />
    <path
       style="fill:#000000;fill-opacity:0.68104063;fill-rule:evenodd"
       inkscape:connector-curvature="0"
       id="path1548-9"
       d="m 3.0748295,3.3183084 c 0,-0.2411071 -0.195456,-0.4365641 -0.436561,-0.4365641 -0.241108,0 -0.436563,0.195457 -0.436563,0.4365641 0,0.241106 0.195455,0.436561 0.436563,0.436561 0.241105,0 0.436561,-0.195455 0.436561,-0.436561 z" />
    <path
       style="fill:#000000;fill-opacity:0.68104063;fill-rule:evenodd"
       inkscape:connector-curvature="0"
       id="path1548-6"
       d="m 10.949043,2.9124211 c 0,-0.241107 -0.195456,-0.436564 -0.436561,-0.436564 -0.241108,0 -0.436563,0.195457 -0.436563,0.436564 0,0.2411061 0.195455,0.4365611 0.436563,0.4365611 0.241105,0 0.436561,-0.195455 0.436561,-0.4365611 z" />
    <path
       style="fill:#000000;fill-opacity:0.68104063;fill-rule:evenodd"
       inkscape:connector-curvature="0"
       id="path1548-7"
       d="m 11.436108,10.056038 c 0,-0.2411074 -0.195456,-0.4365644 -0.436561,-0.4365644 -0.241108,0 -0.436563,0.195457 -0.436563,0.4365644 0,0.241106 0.195455,0.436561 0.436563,0.436561 0.241105,0 0.436561,-0.195455 0.436561,-0.436561 z" />
    <path
       style="fill:#000000"
       inkscape:connector-curvature="0"
       id="path2334"
       d="m 4.1117229,1.5469941 0,0.7672663 c 0,0.2638467 0.2124033,0.47625 0.47625,0.47625 l 4.3259376,0 c 0.263843,0 0.4762505,-0.2124033 0.4762505,-0.47625 l 0,-0.7672663 z" />
    <path
       style="fill:#ffffff"
       inkscape:connector-curvature="0"
       id="path2329"
       d="m 4.1183269,2.4126854 c 0.022945,0.242189 0.2212594,0.4299627 0.4696375,0.4299627 l 4.3259461,0 c 0.2483698,0 0.4467013,-0.1877737 0.469625,-0.4299627 -0.04428,0.217424 -0.2387812,0.3770037 -0.469625,0.3770037 l -4.3259461,0 c -0.2308605,0 -0.4253738,-0.1595797 -0.4696375,-0.3770037 z" />
    <path
       style="fill:url(#gradient4)"
       inkscape:connector-curvature="0"
       id="rect2460"
       d="m 4.7642489,1.8777106 c -0.019389,0 -0.026416,0.033528 -0.026416,0.052917 l 0,0.5027083 c 0,0.019388 0.00677,0.026416 0.026416,0.026416 l 0.7408334,0 0.079333,0 0.1852083,0 c 0.019389,0 0.052915,-0.00677 0.052915,-0.026416 l 0,-0.5027083 c 0,-0.019389 -0.033526,-0.052917 -0.052915,-0.052917 l -0.1852083,0 -0.079333,0 z" />
    <path
       style="fill:url(#gradient5)"
       inkscape:connector-curvature="0"
       id="rect2478"
       d="m 6.2459156,1.8777106 c -0.019389,0 -0.026416,0.033528 -0.026416,0.052917 l 0,0.5027083 c 0,0.019388 0.00677,0.026416 0.026416,0.026416 l 0.7408334,0 0.15875,0 0.1058333,0 c 0.019388,0 0.052917,-0.00677 0.052917,-0.026416 l 0,-0.5027083 c 0,-0.019389 -0.033528,-0.052917 -0.052917,-0.052917 l -0.1058333,0 -0.15875,0 z" />
    <path
       style="fill:url(#gradient6)"
       inkscape:connector-curvature="0"
       id="rect2490"
       d="m 7.7275823,1.8777106 c -0.019389,0 -0.026416,0.033528 -0.026416,0.052917 l 0,0.5027083 c 0,0.019388 0.00677,0.026416 0.026416,0.026416 l 0.7408313,0 0.1058333,0 0.15875,0 c 0.019388,0 0.052917,-0.00677 0.052917,-0.026416 l 0,-0.5027083 c 0,-0.019389 -0.033528,-0.052917 -0.052917,-0.052917 l -0.15875,0 -0.1058333,0 z" />
  </g>
</svg>
