<?xml version="1.0" encoding="UTF-8" standalone="no"?>
<svg
   xmlns:dc="http://purl.org/dc/elements/1.1/"
   xmlns:cc="http://creativecommons.org/ns#"
   xmlns:rdf="http://www.w3.org/1999/02/22-rdf-syntax-ns#"
   xmlns:svg="http://www.w3.org/2000/svg"
   xmlns="http://www.w3.org/2000/svg"
   xmlns:xlink="http://www.w3.org/1999/xlink"
   xmlns:sodipodi="http://sodipodi.sourceforge.net/DTD/sodipodi-0.dtd"
   xmlns:inkscape="http://www.inkscape.org/namespaces/inkscape"
   width="48"
   viewBox="0 0 13.546667 13.546667"
   height="48"
   id="svg2"
   version="1.1"
   inkscape:version="0.48.4 r9939"
   sodipodi:docname="polari.svg">
  <metadata
     id="metadata62">
    <rdf:RDF>
      <cc:Work
         rdf:about="">
        <dc:format>image/svg+xml</dc:format>
        <dc:type
           rdf:resource="http://purl.org/dc/dcmitype/StillImage" />
        <dc:title></dc:title>
      </cc:Work>
    </rdf:RDF>
  </metadata>
  <sodipodi:namedview
     pagecolor="#ffffff"
     bordercolor="#666666"
     borderopacity="1"
     objecttolerance="10"
     gridtolerance="10"
     guidetolerance="10"
     inkscape:pageopacity="0"
     inkscape:pageshadow="2"
     inkscape:window-width="1366"
     inkscape:window-height="716"
     id="namedview60"
     showgrid="false"
     inkscape:zoom="11.313708"
     inkscape:cx="24.635575"
     inkscape:cy="10.239908"
     inkscape:window-x="0"
     inkscape:window-y="28"
     inkscape:window-maximized="1"
     inkscape:current-layer="g38"
     showguides="true"
     inkscape:guide-bbox="true" />
  <defs
     id="defs4">
    <linearGradient
       id="linearGradient3922">
      <stop
         style="stop-color:#004455;stop-opacity:1;"
         offset="0"
         id="stop3924" />
      <stop
         style="stop-color:#005b72;stop-opacity:1;"
         offset="1"
         id="stop3926" />
    </linearGradient>
    <clipPath
       clipPathUnits="userSpaceOnUse"
       id="clipPath6">
      <rect
         width="20"
         x="1"
         y="1"
         rx="2"
         height="20"
         style="fill:#fff;fill-rule:evenodd"
         id="rect8" />
    </clipPath>
    <clipPath
       clipPathUnits="userSpaceOnUse"
       id="clipPath10">
      <rect
         width="84"
         x="6"
         y="6"
         rx="6"
         height="84"
         style="fill:#fff"
         id="rect12" />
    </clipPath>
    <clipPath
       clipPathUnits="userSpaceOnUse"
       id="clipPath14">
      <path
         d="M 54.1,12.5 12.9,54.7 C -2.7,70.3 23,69 32.3,74.9 36.6,77.7 18.5,81.3 22.2,85 c 3.6,3.7 21.7,7.1 25.3,10.7 3.6,3.7 -7.3,7.6 -3.7,11.3 3.5,3.7 11.9,0.2 13.4,8.6 1.1,6.2 15.4,3.1 21.8,-2.2 4,-3.4 -6.9,-3.4 -3.3,-7.1 9,-9.1 17,-4.1 20.3,-12.5 1.8,-4.5 -13.6,-7.7 -9.5,-10.6 9.8,-6.9 45.8,-10.4 29.2,-27 L 73,12.5 c -5.3,-5 -14,-5 -18.9,0 z m -9.9,64.7 c 0.9,0 30.8,4 19.3,7.1 -4.4,1.2 -24.6,-7.1 -19.3,-7.1 z m 57.2,16.6 c 0,2.1 16.3,3.3 15.4,-0.5 -1.3,-6.4 -13.6,-5.9 -15.4,0.5 z m -69.5,11.1 c 3.7,3.2 9.3,-0.7 11.1,-5.2 -3.6,-4.7 -16.9,0.3 -11.1,5.2 z m 67.5,-6.7 c -4.6,4.2 0.8,8.6 5.3,5.7 1.2,-0.8 -0.1,-4.7 -5.3,-5.7 z"
         id="path16" />
    </clipPath>
    <clipPath
       clipPathUnits="userSpaceOnUse"
       id="clipPath18">
      <rect
         width="96"
         x="-100"
         y="-0"
         height="96"
         style="fill:#fff"
         id="rect20" />
    </clipPath>
    <clipPath
       clipPathUnits="userSpaceOnUse"
       id="clipPath22">
      <path
         d="M 95.311,352.545 L 476.403,352.545 L 476.403,71.4229 L 95.311,71.4229 L 95.311,352.545 z"
         id="path24" />
    </clipPath>
    <clipPath
       clipPathUnits="userSpaceOnUse"
       id="clipPath26">
      <path
         d="M 93.311,354.545 L 478.511,354.545 L 478.511,69.1846 L 93.311,69.1846 L 93.311,354.545 z"
         id="path28" />
    </clipPath>
    <clipPath
       clipPathUnits="userSpaceOnUse"
       id="clipPath30">
      <path
         d="M 93.311,69.185 L 478.511,69.185 L 478.511,354.545 L 93.311,354.545 L 93.311,69.185 z"
         id="path32" />
    </clipPath>
    <clipPath
       clipPathUnits="userSpaceOnUse"
       id="clipPath34">
      <path
         d="M 92.311,355.545 L 479.511,355.545 L 479.511,68.1846 L 92.311,68.1846 L 92.311,355.545 z"
         id="path36" />
    </clipPath>
    <linearGradient
       inkscape:collect="always"
       xlink:href="#linearGradient2251"
       id="linearGradient2258"
       x1="21.5"
       y1="43.467159"
       x2="21.5"
       y2="47.532516"
       gradientUnits="userSpaceOnUse" />
    <linearGradient
       inkscape:collect="always"
       id="linearGradient2251">
      <stop
         style="stop-color:#729fcf;stop-opacity:1;"
         offset="0"
         id="stop2253" />
      <stop
         style="stop-color:#729fcf;stop-opacity:0;"
         offset="1"
         id="stop2255" />
    </linearGradient>
    <linearGradient
       gradientTransform="matrix(0.13,0,0,0.14103,2.41492,-32.46617)"
       xlink:href="#linearGradient3896"
       id="linearGradient3006"
       x1="5.3039999"
       gradientUnits="userSpaceOnUse"
       x2="61.748001" />
    <linearGradient
       id="linearGradient3896">
      <stop
         offset="0"
         style="stop-color:#5dac12"
         id="stop9" />
      <stop
         offset="1"
         style="stop-color:#76c925"
         id="stop11" />
    </linearGradient>
    <linearGradient
       inkscape:collect="always"
       xlink:href="#linearGradient6963-199-896"
       id="linearGradient6457"
       gradientUnits="userSpaceOnUse"
       gradientTransform="matrix(4.895429,-1.3086414,1.1623533,4.3761806,-614.63541,-97.40367)"
       x1="15.194299"
       y1="13.018784"
       x2="14.486301"
       y2="26.07235" />
    <linearGradient
       inkscape:collect="always"
       id="linearGradient6963-199-896">
      <stop
         offset="0"
         id="stop7684"
         style="stop-color:#a2c6ff;stop-opacity:1" />
      <stop
         offset="1"
         id="stop7686"
         style="stop-color:#9f7e42;stop-opacity:1" />
    </linearGradient>
    <linearGradient
       id="linearGradient2911-613-519">
      <stop
         offset="0"
         id="stop7648"
         style="stop-color:#ffffe0;stop-opacity:1;" />
      <stop
         offset="1"
         id="stop7650"
         style="stop-color:#ffe588;stop-opacity:0;" />
    </linearGradient>
    <linearGradient
       id="linearGradient2911-198-956">
      <stop
         offset="0"
         id="stop7654"
         style="stop-color:#ffffe0;stop-opacity:1;" />
      <stop
         offset="1"
         id="stop7656"
         style="stop-color:#ffe588;stop-opacity:0;" />
    </linearGradient>
    <linearGradient
       id="linearGradient2911-977-39">
      <stop
         offset="0"
         id="stop7660"
         style="stop-color:#ffffe0;stop-opacity:1;" />
      <stop
         offset="1"
         id="stop7662"
         style="stop-color:#ffe588;stop-opacity:0;" />
    </linearGradient>
    <linearGradient
       inkscape:collect="always"
       xlink:href="#linearGradient2782-839-396"
       id="linearGradient7090"
       gradientUnits="userSpaceOnUse"
       gradientTransform="matrix(4.9036558,0,0,4.3816704,-363.57105,-134.91588)"
       x1="20"
       y1="13.577349"
       x2="17.269999"
       y2="32.698772" />
    <linearGradient
       inkscape:collect="always"
       id="linearGradient2782-839-396">
      <stop
         offset="0"
         id="stop7582"
         style="stop-color:#8dc5ff;stop-opacity:1" />
      <stop
         offset="1"
         id="stop7584"
         style="stop-color:#f2c600;stop-opacity:1" />
    </linearGradient>
    <linearGradient
       inkscape:collect="always"
       xlink:href="#linearGradient6963-199-896-0"
       id="linearGradient6457-9"
       gradientUnits="userSpaceOnUse"
       gradientTransform="matrix(4.895429,-1.3086414,1.1623533,4.3761806,-614.63541,-97.40367)"
       x1="15.194299"
       y1="13.018784"
       x2="14.486301"
       y2="26.07235" />
    <linearGradient
       inkscape:collect="always"
       id="linearGradient6963-199-896-0">
      <stop
         offset="0"
         id="stop7684-1"
         style="stop-color:#a2c6ff;stop-opacity:1" />
      <stop
         offset="1"
         id="stop7686-7"
         style="stop-color:#9f7e42;stop-opacity:1" />
    </linearGradient>
    <linearGradient
       xlink:href="#linearGradient3758"
       id="linearGradient3764"
       y1="3.3870001"
       y2="10.16"
       x2="0"
       gradientUnits="userSpaceOnUse" />
    <linearGradient
       id="linearGradient3758">
      <stop
         offset="0"
         style="stop-color:#e4f1cb"
         id="stop9-4" />
      <stop
         offset="1"
         style="stop-color:#e9f4d6"
         id="stop11-0" />
    </linearGradient>
  </defs>
  <g
     style="fill-rule:evenodd"
     id="g38">
    <rect
       width="11.746"
       x="0.98691791"
       y="1.4623228"
       rx="5.8730001"
       height="11.746"
       style="fill:#ffffff;fill-opacity:1;stroke:none"
       id="rect42" />
    <g
       transform="matrix(0.11531627,0,0,0.11531627,3.9211615,3.8898451)"
       id="layer1" />
    <g
       id="g3389"
       style="fill:#f9f9f9;stroke:#f9f9f9;stroke-linejoin:round"
       transform="matrix(0.93639221,0.01779363,-0.01779363,0.93639221,0.58795522,0.39238226)">
      <g
         id="g3393"
         style="fill-opacity:0;stroke-width:0.58899999" />
    </g>
    <path
       style="fill:#336791"
       d="M 10.252001,8.1880754 C 9.3343827,8.3704497 9.2713027,8.0711095 9.2713027,8.0711095 10.240161,6.6859211 10.645175,4.9276316 10.295654,4.4973002 9.3421367,3.3234392 7.6915527,3.8785996 7.6640067,3.8930132 l -0.0088,0.00153 c -0.18128,-0.03627 -0.384177,-0.057858 -0.612206,-0.06145 -0.415208,-0.00663 -0.730158,0.1048823 -0.969147,0.2795055 0,0 -2.944481,-1.1687659 -2.807538,1.4699426 0.02913,0.5613661 0.83505,4.2475409 1.796321,3.1341428 0.351344,-0.4071306 0.690812,-0.7513709 0.690812,-0.7513709 0.168605,0.1079215 0.37046,0.1629785 0.58207,0.1431956 l 0.01647,-0.013448 c -0.0052,0.050544 -0.0027,0.1000012 0.0065,0.1585208 -0.247646,0.2665867 -0.174877,0.3133932 -0.669916,0.4115764 -0.500911,0.099467 -0.206646,0.2765527 -0.01455,0.3228334 0.232917,0.056125 0.77177,0.1356247 1.135865,-0.3554735 l -0.01455,0.056033 c 0.09703,0.074877 0.165159,0.4870699 0.153746,0.8607154 -0.01149,0.373664 -0.01896,0.6301977 0.05741,0.8305717 0.07646,0.200374 0.152655,0.651217 0.803419,0.516861 0.54378,-0.112287 0.825568,-0.403244 0.864769,-0.888591 0.02782,-0.3450497 0.09076,-0.2940417 0.09475,-0.6025306 l 0.0505,-0.1460508 c 0.05823,-0.4677346 0.0092,-0.6186315 0.344267,-0.5484482 l 0.08142,0.00682 c 0.24658,0.010861 0.569304,-0.038227 0.7587103,-0.1230502 0.407858,-0.1823742 0.649749,-0.4868754 0.247602,-0.4068653 z"
       id="path12"
       inkscape:connector-curvature="0" />
    <g
       style="stroke:#f9f9f9"
       id="g14"
       transform="translate(0.08658501,0.56197799)">
      <g
         style="stroke-width:0.141"
         id="g16">
        <g
           style="fill:none;stroke-linecap:round"
           id="g18">
          <g
             style="stroke-linejoin:round"
             id="g20">
            <path
               d="m 6.7692099,7.8927523 c -0.025257,0.8703306 0.00632,1.7467248 0.094729,1.9597202 C 6.9523873,10.065466 7.1416388,10.47975 7.7924625,10.34541 8.3361872,10.233105 8.534024,10.015742 8.6198719,9.5359855 8.6831012,9.183008 8.8049834,8.2027187 8.820626,8.0018694"
               id="path22"
               inkscape:connector-curvature="0" />
            <path
               d="m 5.9891393,3.5297138 c 0,0 -2.9464861,-1.1603445 -2.809507,1.4783622 0.029126,0.5613661 0.8351061,4.2476643 1.7963579,3.1342129 C 5.3272609,7.7351065 5.6449471,7.4157553 5.6449471,7.4157553"
               id="path24-8"
               inkscape:connector-curvature="0" />
            <path
               d="m 7.5806748,3.3179322 c -0.1019865,0.030816 1.6390181,-0.6132344 2.6284532,0.6049391 0.349503,0.430348 -0.05551,2.1886376 -1.0243511,3.5738611"
               id="path26"
               inkscape:connector-curvature="0" />
          </g>
          <path
             style="stroke-linejoin:bevel"
             d="m 9.1847597,7.4967324 c 0,0 0.063133,0.2994358 0.9807703,0.1169472 C 10.567587,7.5336641 10.325614,7.838204 9.9178574,8.0206685 9.5832052,8.170311 8.8329234,8.2086683 8.8206643,8.0018804 8.7891263,7.4683383 9.215553,7.6304324 9.1847769,7.4967435 9.1569537,7.3763517 8.9662546,7.2581731 8.8401119,6.9634988 8.7299871,6.7062996 7.3297354,4.7339085 9.2284305,5.0268421 9.297979,5.0130272 8.7332309,3.2867107 6.9563186,3.258639 5.1798093,3.2305672 5.2380944,5.3636655 5.2380944,5.3636655"
             id="path28-6"
             inkscape:connector-curvature="0" />
          <g
             style="stroke-linejoin:round"
             id="g30">
            <path
               d="M 6.2718925,7.6791952 C 6.0242199,7.9457645 6.0970639,7.992571 5.6019869,8.0907909 5.1010761,8.1902762 5.3953769,8.3673253 5.5874337,8.4135876 5.8203483,8.4697495 6.3592033,8.5492493 6.7232968,8.0580276 6.8341684,7.9084589 6.72264,7.6698268 6.5703362,7.6089936 6.4967472,7.5796141 6.3983415,7.5428113 6.2718771,7.6791915 z"
               id="path32-0"
               inkscape:connector-curvature="0" />
            <path
               d="M 6.2556754,7.6745386 C 6.2307245,7.5178046 6.3091197,7.3312996 6.3931446,7.1131007 6.5194118,6.7857165 6.8107609,6.4582809 6.5777007,5.4197758 6.4039828,4.6458895 5.238801,5.2587132 5.2380714,5.3636507 5.2373609,5.4685514 5.2907684,5.8955222 5.2185964,6.392734 5.1244204,7.0415435 5.6470682,7.5902718 6.2488941,7.5341319"
               id="path34"
               inkscape:connector-curvature="0" />
          </g>
        </g>
        <path
           style="fill:#ffffff"
           d="m 5.9784312,5.3479221 c -0.00518,0.035844 0.068093,0.1314804 0.1637416,0.1442453 0.095476,0.012894 0.1772029,-0.061909 0.1823922,-0.097699 0.00518,-0.035845 -0.068074,-0.075318 -0.1637605,-0.088139 -0.095533,-0.012894 -0.1772988,0.00589 -0.1823542,0.04161 z"
           id="path36-4"
           inkscape:connector-curvature="0" />
      </g>
      <path
         style="fill:#ffffff;stroke-width:0.071"
         d="m 8.8866645,5.2748553 c 0.00517,0.035845 -0.068074,0.1314823 -0.1637414,0.1442454 -0.095552,0.012894 -0.1772797,-0.061909 -0.1825073,-0.097717 -0.00498,-0.035844 0.068227,-0.07532 0.1637989,-0.088141 0.095572,-0.012894 0.1772797,0.00589 0.1824498,0.041629 z"
         id="path38"
         inkscape:connector-curvature="0" />
      <path
         style="fill:none;stroke-width:0.141;stroke-linecap:round;stroke-linejoin:round"
         d="M 9.2284305,5.0268311 C 9.2441325,5.307953 9.1655841,5.499434 9.1556841,5.7986948 9.1409396,6.2336837 9.3709225,6.7315641 9.0244957,7.2300571"
         id="path40"
         inkscape:connector-curvature="0" />
    </g>
  </g>
</svg>
