<?xml version="1.0" encoding="UTF-8" standalone="no"?>
<svg
   xmlns:dc="http://purl.org/dc/elements/1.1/"
   xmlns:cc="http://creativecommons.org/ns#"
   xmlns:rdf="http://www.w3.org/1999/02/22-rdf-syntax-ns#"
   xmlns:svg="http://www.w3.org/2000/svg"
   xmlns="http://www.w3.org/2000/svg"
   xmlns:sodipodi="http://sodipodi.sourceforge.net/DTD/sodipodi-0.dtd"
   xmlns:inkscape="http://www.inkscape.org/namespaces/inkscape"
   width="48"
   viewBox="0 0 13.546667 13.546667"
   height="48"
   id="svg2"
   version="1.1"
   inkscape:version="0.48.4 r9939"
   sodipodi:docname="base.svg">
  <metadata
     id="metadata62">
    <rdf:RDF>
      <cc:Work
         rdf:about="">
        <dc:format>image/svg+xml</dc:format>
        <dc:type
           rdf:resource="http://purl.org/dc/dcmitype/StillImage" />
        <dc:title></dc:title>
      </cc:Work>
    </rdf:RDF>
  </metadata>
  <sodipodi:namedview
     pagecolor="#ffffff"
     bordercolor="#666666"
     borderopacity="1"
     objecttolerance="10"
     gridtolerance="10"
     guidetolerance="10"
     inkscape:pageopacity="0"
     inkscape:pageshadow="2"
     inkscape:window-width="1366"
     inkscape:window-height="716"
     id="namedview60"
     showgrid="false"
     inkscape:zoom="3.4766082"
     inkscape:cx="-33.3402"
     inkscape:cy="20.530007"
     inkscape:window-x="0"
     inkscape:window-y="28"
     inkscape:window-maximized="1"
     inkscape:current-layer="g38" />
  <defs
     id="defs4">
    <clipPath
       clipPathUnits="userSpaceOnUse"
       id="clipPath6">
      <rect
         width="20"
         x="1"
         y="1"
         rx="2"
         height="20"
         style="fill:#fff;fill-rule:evenodd"
         id="rect8" />
    </clipPath>
    <clipPath
       clipPathUnits="userSpaceOnUse"
       id="clipPath10">
      <rect
         width="84"
         x="6"
         y="6"
         rx="6"
         height="84"
         style="fill:#fff"
         id="rect12" />
    </clipPath>
    <clipPath
       clipPathUnits="userSpaceOnUse"
       id="clipPath14">
      <path
         d="M 54.1,12.5 12.9,54.7 C -2.7,70.3 23,69 32.3,74.9 36.6,77.7 18.5,81.3 22.2,85 c 3.6,3.7 21.7,7.1 25.3,10.7 3.6,3.7 -7.3,7.6 -3.7,11.3 3.5,3.7 11.9,0.2 13.4,8.6 1.1,6.2 15.4,3.1 21.8,-2.2 4,-3.4 -6.9,-3.4 -3.3,-7.1 9,-9.1 17,-4.1 20.3,-12.5 1.8,-4.5 -13.6,-7.7 -9.5,-10.6 9.8,-6.9 45.8,-10.4 29.2,-27 L 73,12.5 c -5.3,-5 -14,-5 -18.9,0 z m -9.9,64.7 c 0.9,0 30.8,4 19.3,7.1 -4.4,1.2 -24.6,-7.1 -19.3,-7.1 z m 57.2,16.6 c 0,2.1 16.3,3.3 15.4,-0.5 -1.3,-6.4 -13.6,-5.9 -15.4,0.5 z m -69.5,11.1 c 3.7,3.2 9.3,-0.7 11.1,-5.2 -3.6,-4.7 -16.9,0.3 -11.1,5.2 z m 67.5,-6.7 c -4.6,4.2 0.8,8.6 5.3,5.7 1.2,-0.8 -0.1,-4.7 -5.3,-5.7 z"
         id="path16" />
    </clipPath>
    <clipPath
       clipPathUnits="userSpaceOnUse"
       id="clipPath18">
      <rect
         width="96"
         x="-100"
         y="-0"
         height="96"
         style="fill:#fff"
         id="rect20" />
    </clipPath>
    <clipPath
       clipPathUnits="userSpaceOnUse"
       id="clipPath22">
      <path
         d="M 95.311,352.545 L 476.403,352.545 L 476.403,71.4229 L 95.311,71.4229 L 95.311,352.545 z"
         id="path24" />
    </clipPath>
    <clipPath
       clipPathUnits="userSpaceOnUse"
       id="clipPath26">
      <path
         d="M 93.311,354.545 L 478.511,354.545 L 478.511,69.1846 L 93.311,69.1846 L 93.311,354.545 z"
         id="path28" />
    </clipPath>
    <clipPath
       clipPathUnits="userSpaceOnUse"
       id="clipPath30">
      <path
         d="M 93.311,69.185 L 478.511,69.185 L 478.511,354.545 L 93.311,354.545 L 93.311,69.185 z"
         id="path32" />
    </clipPath>
    <clipPath
       clipPathUnits="userSpaceOnUse"
       id="clipPath34">
      <path
         d="M 92.311,355.545 L 479.511,355.545 L 479.511,68.1846 L 92.311,68.1846 L 92.311,355.545 z"
         id="path36" />
    </clipPath>
  </defs>
  <g
     style="fill-rule:evenodd"
     id="g38">
    <rect
       width="11.746"
       x=".9"
       y=".901"
       rx="5.873"
       height="11.746"
       style="fill:#60afe9;stroke-width:0.02822222000000000;stroke-miterlimit:4;stroke-dasharray:none;stroke:none;stroke-opacity:1;fill-opacity:1"
       id="rect42" />
    <path
       style="fill:#ffffff;fill-opacity:1"
       d="m 6.7377223,3.2213646 c -0.468451,0 -0.847192,0.365254 -0.847052,0.81529 -1.14e-4,0.339571 0.257206,0.619953 0.564836,0.742062 l 0,0.700363 -1.306003,0 c -0.05624,0 -0.105883,0.07181 -0.105883,0.12937 l 0,0.305729 c 0,0.05757 0.04742,0.142324 0.105883,0.129337 l 1.306003,0 0,3.292627 c 0,0.104684 -0.216957,0.106873 -0.319982,0.117828 -0.150945,0 -0.242712,-0.03797 -0.387133,-0.07643 -0.326142,-0.09179 -0.637493,-0.218999 -0.936386,-0.372605 -0.125843,-0.06724 -0.24869,-0.132622 -0.360658,-0.219749 -0.04826,-0.03961 -0.104395,-0.09693 -0.09926,-0.16243 0.0065,-0.04953 0.0326,-0.102413 0.08933,-0.111482 0.05113,-0.0082 0.09706,0.01878 0.142279,0.0351 0.03898,0.01607 0.0658,-0.02927 0.05956,-0.06044 -0.0062,-0.08216 -0.03519,-0.158182 -0.07941,-0.229302 -0.092,-0.145644 -0.233569,-0.253994 -0.380512,-0.347124 -0.156881,-0.09645 -0.324131,-0.202496 -0.423524,-0.356709 -0.01975,-0.02846 -0.04173,-0.07569 -0.08603,-0.06052 -0.06158,0.01919 -0.09557,0.07733 -0.12573,0.127383 -0.08487,0.155426 -0.127181,0.323113 -0.165444,0.493636 -0.03145,0.135673 -0.03746,0.278963 -0.02648,0.417211 0.01137,0.138337 0.02122,0.278495 0.07941,0.407632 0.03665,0.0849 0.101181,0.153353 0.165439,0.219774 0.041,-0.04166 0.08379,-0.08653 0.125733,-0.127382 0.05437,-0.05256 0.122279,-0.08664 0.201837,-0.07643 0.108283,0.01345 0.206077,0.07659 0.291174,0.13696 0.119861,0.08969 0.231915,0.18357 0.354043,0.270705 0.193246,0.142135 0.406392,0.246204 0.62536,0.347132 0.182428,0.08151 0.369873,0.162987 0.559186,0.229302 0.0339,0.01427 0.07136,0.01345 0.105879,0.02534 0.340721,0.1364034 0.627754,0.2951664 0.863595,0.5796334 2.7e-4,0.0041 -2.69e-4,0.01214 0,0.01582 0.0028,-0.0033 0.0072,-0.0066 0.0099,-0.0095 0.0028,0.0033 0.0072,0.0066 0.0099,0.0095 0.0019,-0.0082 -0.0016,-0.01764 0,-0.02559 0.235105,-0.281203 0.524943,-0.434497 0.863597,-0.5700974 0.03452,-0.01189 0.07198,-0.01132 0.105878,-0.02534 0.189314,-0.06634 0.37676,-0.14776 0.559191,-0.229302 0.218964,-0.10092 0.432111,-0.204989 0.625359,-0.347115 0.122126,-0.08713 0.23418,-0.18102 0.354041,-0.270714 0.08509,-0.06035 0.182892,-0.123536 0.291171,-0.13696 0.07956,-0.01025 0.147478,0.02402 0.201839,0.07643 0.04195,0.04084 0.08473,0.08565 0.125733,0.127391 0.06426,-0.06642 0.1287867,-0.134873 0.1654397,-0.219762 0.05821,-0.129145 0.06804,-0.269311 0.07942,-0.407641 0.01097,-0.138247 0.005,-0.281538 -0.02647,-0.41721 -0.03826,-0.170524 -0.08058,-0.33821 -0.1654407,-0.493645 -0.03017,-0.0501 -0.06415,-0.108145 -0.125735,-0.127374 -0.04429,-0.01509 -0.06625,0.03198 -0.08603,0.06052 -0.09939,0.154205 -0.266643,0.26025 -0.423523,0.356693 -0.146943,0.09315 -0.288518,0.201496 -0.380511,0.347132 -0.04422,0.0711 -0.07313,0.147136 -0.07941,0.229302 -0.0062,0.03116 0.02059,0.07667 0.05956,0.06052 0.04521,-0.0164 0.09114,-0.0428 0.142276,-0.0351 0.05674,0.0093 0.08282,0.06183 0.08934,0.111482 0.0051,0.06552 -0.051,0.122807 -0.09926,0.16243 -0.111968,0.08714 -0.234814,0.152599 -0.360657,0.219758 -0.298894,0.153607 -0.610245,0.280817 -0.936389,0.372602 -0.144418,0.03846 -0.236186,0.0756 -0.38713,0.07642 -0.129685,0.02214 -0.31999,-0.04551 -0.31999,-0.117829 l 0,-3.29261 1.30601,0 c 0.04896,0 0.105884,-0.06828 0.105884,-0.129337 l 0,-0.305745 c 0,-0.05937 -0.05097,-0.117174 -0.105884,-0.129371 l -1.30601,0 0,-0.700354 c 0.307631,-0.122112 0.564951,-0.402494 0.564843,-0.742064 1.47e-4,-0.450031 -0.378605,-0.815293 -0.847054,-0.815293 z m -0.01654,0.398104 c 0.227401,0 0.413666,0.173255 0.413597,0.391725 7.7e-5,0.21847 -0.186195,0.398087 -0.413597,0.398087 -0.227406,0 -0.416975,-0.179617 -0.416906,-0.398087 -7.7e-5,-0.21847 0.1895,-0.391725 0.416906,-0.391725 z"
       id="path18"
       inkscape:connector-curvature="0"
       sodipodi:nodetypes="ccccsssscscccccccccccccccccccccccccccccccccccccccccccccccccccccscsssscccccscscs" />
  </g>
</svg>
