<?xml version="1.0" encoding="UTF-8" standalone="no"?>
<svg
   xmlns:dc="http://purl.org/dc/elements/1.1/"
   xmlns:cc="http://creativecommons.org/ns#"
   xmlns:rdf="http://www.w3.org/1999/02/22-rdf-syntax-ns#"
   xmlns:svg="http://www.w3.org/2000/svg"
   xmlns="http://www.w3.org/2000/svg"
   xmlns:sodipodi="http://sodipodi.sourceforge.net/DTD/sodipodi-0.dtd"
   xmlns:inkscape="http://www.inkscape.org/namespaces/inkscape"
   width="48"
   viewBox="0 0 13.546667 13.546667"
   height="48"
   id="svg2"
   version="1.1"
   inkscape:version="0.48.4 r9939"
   sodipodi:docname="inkscape.svg">
  <metadata
     id="metadata62">
    <rdf:RDF>
      <cc:Work
         rdf:about="">
        <dc:format>image/svg+xml</dc:format>
        <dc:type
           rdf:resource="http://purl.org/dc/dcmitype/StillImage" />
        <dc:title></dc:title>
      </cc:Work>
    </rdf:RDF>
  </metadata>
  <sodipodi:namedview
     pagecolor="#ffffff"
     bordercolor="#666666"
     borderopacity="1"
     objecttolerance="10"
     gridtolerance="10"
     guidetolerance="10"
     inkscape:pageopacity="0"
     inkscape:pageshadow="2"
     inkscape:window-width="1366"
     inkscape:window-height="716"
     id="namedview60"
     showgrid="false"
     inkscape:zoom="4"
     inkscape:cx="18.255808"
     inkscape:cy="17.780628"
     inkscape:window-x="0"
     inkscape:window-y="28"
     inkscape:window-maximized="1"
     inkscape:current-layer="g38" />
  <defs
     id="defs4">
    <linearGradient
       id="linearGradient3922">
      <stop
         style="stop-color:#004455;stop-opacity:1;"
         offset="0"
         id="stop3924" />
      <stop
         style="stop-color:#005b72;stop-opacity:1;"
         offset="1"
         id="stop3926" />
    </linearGradient>
    <clipPath
       clipPathUnits="userSpaceOnUse"
       id="clipPath6">
      <rect
         width="20"
         x="1"
         y="1"
         rx="2"
         height="20"
         style="fill:#fff;fill-rule:evenodd"
         id="rect8" />
    </clipPath>
    <clipPath
       clipPathUnits="userSpaceOnUse"
       id="clipPath10">
      <rect
         width="84"
         x="6"
         y="6"
         rx="6"
         height="84"
         style="fill:#fff"
         id="rect12" />
    </clipPath>
    <clipPath
       clipPathUnits="userSpaceOnUse"
       id="clipPath14">
      <path
         d="M 54.1,12.5 12.9,54.7 C -2.7,70.3 23,69 32.3,74.9 36.6,77.7 18.5,81.3 22.2,85 c 3.6,3.7 21.7,7.1 25.3,10.7 3.6,3.7 -7.3,7.6 -3.7,11.3 3.5,3.7 11.9,0.2 13.4,8.6 1.1,6.2 15.4,3.1 21.8,-2.2 4,-3.4 -6.9,-3.4 -3.3,-7.1 9,-9.1 17,-4.1 20.3,-12.5 1.8,-4.5 -13.6,-7.7 -9.5,-10.6 9.8,-6.9 45.8,-10.4 29.2,-27 L 73,12.5 c -5.3,-5 -14,-5 -18.9,0 z m -9.9,64.7 c 0.9,0 30.8,4 19.3,7.1 -4.4,1.2 -24.6,-7.1 -19.3,-7.1 z m 57.2,16.6 c 0,2.1 16.3,3.3 15.4,-0.5 -1.3,-6.4 -13.6,-5.9 -15.4,0.5 z m -69.5,11.1 c 3.7,3.2 9.3,-0.7 11.1,-5.2 -3.6,-4.7 -16.9,0.3 -11.1,5.2 z m 67.5,-6.7 c -4.6,4.2 0.8,8.6 5.3,5.7 1.2,-0.8 -0.1,-4.7 -5.3,-5.7 z"
         id="path16" />
    </clipPath>
    <clipPath
       clipPathUnits="userSpaceOnUse"
       id="clipPath18">
      <rect
         width="96"
         x="-100"
         y="-0"
         height="96"
         style="fill:#fff"
         id="rect20" />
    </clipPath>
    <clipPath
       clipPathUnits="userSpaceOnUse"
       id="clipPath22">
      <path
         d="M 95.311,352.545 L 476.403,352.545 L 476.403,71.4229 L 95.311,71.4229 L 95.311,352.545 z"
         id="path24" />
    </clipPath>
    <clipPath
       clipPathUnits="userSpaceOnUse"
       id="clipPath26">
      <path
         d="M 93.311,354.545 L 478.511,354.545 L 478.511,69.1846 L 93.311,69.1846 L 93.311,354.545 z"
         id="path28" />
    </clipPath>
    <clipPath
       clipPathUnits="userSpaceOnUse"
       id="clipPath30">
      <path
         d="M 93.311,69.185 L 478.511,69.185 L 478.511,354.545 L 93.311,354.545 L 93.311,69.185 z"
         id="path32" />
    </clipPath>
    <clipPath
       clipPathUnits="userSpaceOnUse"
       id="clipPath34">
      <path
         d="M 92.311,355.545 L 479.511,355.545 L 479.511,68.1846 L 92.311,68.1846 L 92.311,355.545 z"
         id="path36" />
    </clipPath>
  </defs>
  <g
     style="fill-rule:evenodd"
     id="g38">
    <rect
       width="11.746"
       x=".9"
       y=".901"
       rx="5.873"
       height="11.746"
       style="fill:#f2f2f2;stroke-width:0.02822222000000000;stroke-miterlimit:4;stroke-dasharray:none;stroke:none;stroke-opacity:1;fill-opacity:1"
       id="rect42" />
    <rect
       ry="0"
       y="3.668874"
       x="3.6924109"
       height="6.585187"
       width="6.585187"
       id="rect3282"
       style="fill:#3498db;fill-opacity:1;fill-rule:evenodd;stroke:none" />
    <circle
       sodipodi:ry="0.56444448"
       sodipodi:rx="0.56444448"
       sodipodi:cy="290.22668"
       sodipodi:cx="0.56444448"
       transform="matrix(0.5833333,0,0,0.5833333,3.0338869,-162.3374)"
       style="fill:none;stroke:none"
       id="path3262"
       cx="0.56444448"
       cy="290.22668"
       r="0.56444448"
       d="m 1.128889,290.22668 c 0,0.31174 -0.25271044,0.56445 -0.56444452,0.56445 C 0.2527104,290.79113 0,290.53842 0,290.22668 c 0,-0.31173 0.2527104,-0.56444 0.56444448,-0.56444 0.31173408,0 0.56444452,0.25271 0.56444452,0.56444 z" />
    <circle
       sodipodi:ry="0.56444448"
       sodipodi:rx="0.56444448"
       sodipodi:cy="290.22668"
       sodipodi:cx="12.982223"
       transform="matrix(0.5833333,0,0,0.5833333,3.0338869,-162.3374)"
       r="0.56444448"
       cy="290.22668"
       cx="12.982223"
       id="circle3264"
       style="fill:none;stroke:none"
       d="m 13.546667,290.22668 c 0,0.31174 -0.25271,0.56445 -0.564444,0.56445 -0.311735,0 -0.564445,-0.25271 -0.564445,-0.56445 0,-0.31173 0.25271,-0.56444 0.564445,-0.56444 0.311734,0 0.564444,0.25271 0.564444,0.56444 z" />
    <circle
       sodipodi:ry="0.56444448"
       sodipodi:rx="0.56444448"
       sodipodi:cy="6.7733335"
       sodipodi:cx="-284.01779"
       style="fill:none;stroke:none"
       id="circle3268"
       cx="-284.01779"
       cy="6.7733335"
       r="0.56444448"
       transform="matrix(0,-0.5833333,0.5833333,0,3.0338869,-162.3374)"
       d="m -283.45335,6.7733335 c 0,0.3117341 -0.25271,0.5644445 -0.56444,0.5644445 -0.31174,0 -0.56445,-0.2527104 -0.56445,-0.5644445 0,-0.311734 0.25271,-0.5644444 0.56445,-0.5644444 0.31173,0 0.56444,0.2527104 0.56444,0.5644444 z" />
    <rect
       style="fill:none;stroke:none"
       id="rect3270"
       width="4.9388881"
       height="4.9388881"
       x="4.5155559"
       y="4.4920321"
       ry="0" />
    <rect
       ry="0"
       y="3.668874"
       x="8.4666719"
       height="1.810925"
       width="1.810925"
       id="rect3305"
       style="fill:#34495e;fill-opacity:1;fill-rule:evenodd;stroke:none" />
    <path
       style="fill:#ecf0f1;fill-opacity:1;stroke:none"
       d="m 8.4666669,3.668872 0,1.81092 1.8109281,0 z"
       id="path3317"
       inkscape:connector-curvature="0" />
    <rect
       style="fill:#34495e;fill-opacity:1;fill-rule:evenodd;stroke:none"
       id="rect3322"
       width="4.9388881"
       height="0.32925922"
       x="4.5155559"
       y="9.9248047" />
    <rect
       style="fill:#ecf0f1;fill-opacity:1;fill-rule:evenodd;stroke:none"
       id="rect3324"
       width="0.82312524"
       height="0.82312524"
       x="4.8448138"
       y="9.4309311" />
    <circle
       sodipodi:ry="0.28222224"
       sodipodi:rx="0.28222224"
       sodipodi:cy="295.5889"
       sodipodi:cx="2.8222222"
       transform="matrix(0.5833333,0,0,0.5833333,3.0338869,-162.3374)"
       r="0.28222224"
       cy="295.5889"
       cx="2.8222222"
       id="circle3326"
       style="fill:none;stroke:none"
       d="m 3.1044445,295.5889 c 0,0.15586 -0.1263552,0.28222 -0.2822223,0.28222 -0.155867,0 -0.2822222,-0.12636 -0.2822222,-0.28222 0,-0.15587 0.1263552,-0.28222 0.2822222,-0.28222 0.1558671,0 0.2822223,0.12635 0.2822223,0.28222 z" />
    <circle
       sodipodi:ry="0.28222224"
       sodipodi:rx="0.28222224"
       sodipodi:cy="295.5889"
       sodipodi:cx="10.724445"
       transform="matrix(0.5833333,0,0,0.5833333,3.0338869,-162.3374)"
       style="fill:none;stroke:none"
       id="circle3328"
       cx="10.724445"
       cy="295.5889"
       r="0.28222224"
       d="m 11.006668,295.5889 c 0,0.15586 -0.126356,0.28222 -0.282223,0.28222 -0.155867,0 -0.282222,-0.12636 -0.282222,-0.28222 0,-0.15587 0.126355,-0.28222 0.282222,-0.28222 0.155867,0 0.282223,0.12635 0.282223,0.28222 z" />
    <rect
       y="9.4309311"
       x="8.3020563"
       height="0.82312524"
       width="0.82312524"
       id="rect3330"
       style="fill:#ecf0f1;fill-opacity:1;fill-rule:evenodd;stroke:none" />
    <rect
       y="9.4309311"
       x="5.9870982"
       height="0.82312524"
       width="0.82312524"
       id="rect3332"
       style="fill:#ecf0f1;fill-opacity:1;fill-rule:evenodd;stroke:none" />
    <rect
       style="fill:#ecf0f1;fill-opacity:1;fill-rule:evenodd;stroke:none"
       id="rect3334"
       width="0.82312524"
       height="0.82312524"
       x="7.139482"
       y="9.4309311" />
    <circle
       sodipodi:ry="0.28222224"
       sodipodi:rx="0.28222224"
       sodipodi:cy="295.5889"
       sodipodi:cx="4.7977386"
       transform="matrix(0.5833333,0,0,0.5833333,3.0338869,-162.3374)"
       style="fill:none;stroke:none"
       id="circle3336"
       cx="4.7977386"
       cy="295.5889"
       r="0.28222224"
       d="m 5.0799608,295.5889 c 0,0.15586 -0.1263552,0.28222 -0.2822222,0.28222 -0.1558671,0 -0.2822223,-0.12636 -0.2822223,-0.28222 0,-0.15587 0.1263552,-0.28222 0.2822223,-0.28222 0.155867,0 0.2822222,0.12635 0.2822222,0.28222 z" />
    <circle
       sodipodi:ry="0.28222224"
       sodipodi:rx="0.28222224"
       sodipodi:cy="295.5889"
       sodipodi:cx="6.7559333"
       transform="matrix(0.5833333,0,0,0.5833333,3.0338869,-162.3374)"
       r="0.28222224"
       cy="295.5889"
       cx="6.7559333"
       id="circle3338"
       style="fill:none;stroke:none"
       d="m 7.0381555,295.5889 c 0,0.15586 -0.1263552,0.28222 -0.2822222,0.28222 -0.1558671,0 -0.2822223,-0.12636 -0.2822223,-0.28222 0,-0.15587 0.1263552,-0.28222 0.2822223,-0.28222 0.155867,0 0.2822222,0.12635 0.2822222,0.28222 z" />
    <circle
       sodipodi:ry="0.28222224"
       sodipodi:rx="0.28222224"
       sodipodi:cy="295.5889"
       sodipodi:cx="8.7314491"
       transform="matrix(0.5833333,0,0,0.5833333,3.0338869,-162.3374)"
       style="fill:none;stroke:none"
       id="circle3340"
       cx="8.7314491"
       cy="295.5889"
       r="0.28222224"
       d="m 9.0136714,295.5889 c 0,0.15586 -0.1263552,0.28222 -0.2822223,0.28222 -0.155867,0 -0.2822222,-0.12636 -0.2822222,-0.28222 0,-0.15587 0.1263552,-0.28222 0.2822222,-0.28222 0.1558671,0 0.2822223,0.12635 0.2822223,0.28222 z" />
  </g>
</svg>
