<?xml version="1.0" encoding="UTF-8" standalone="no"?>
<svg
   xmlns:dc="http://purl.org/dc/elements/1.1/"
   xmlns:cc="http://creativecommons.org/ns#"
   xmlns:rdf="http://www.w3.org/1999/02/22-rdf-syntax-ns#"
   xmlns:svg="http://www.w3.org/2000/svg"
   xmlns="http://www.w3.org/2000/svg"
   xmlns:sodipodi="http://sodipodi.sourceforge.net/DTD/sodipodi-0.dtd"
   xmlns:inkscape="http://www.inkscape.org/namespaces/inkscape"
   width="48"
   viewBox="0 0 13.546667 13.546667"
   height="48"
   id="svg2"
   version="1.1"
   inkscape:version="0.48.4 r9939"
   sodipodi:docname="preferences-desktop-wallpaper.svg">
  <metadata
     id="metadata62">
    <rdf:RDF>
      <cc:Work
         rdf:about="">
        <dc:format>image/svg+xml</dc:format>
        <dc:type
           rdf:resource="http://purl.org/dc/dcmitype/StillImage" />
        <dc:title></dc:title>
      </cc:Work>
    </rdf:RDF>
  </metadata>
  <sodipodi:namedview
     pagecolor="#ffffff"
     bordercolor="#666666"
     borderopacity="1"
     objecttolerance="10"
     gridtolerance="10"
     guidetolerance="10"
     inkscape:pageopacity="0"
     inkscape:pageshadow="2"
     inkscape:window-width="1366"
     inkscape:window-height="716"
     id="namedview60"
     showgrid="false"
     inkscape:zoom="8"
     inkscape:cx="-18.623359"
     inkscape:cy="10.118759"
     inkscape:window-x="0"
     inkscape:window-y="28"
     inkscape:window-maximized="1"
     inkscape:current-layer="g38" />
  <defs
     id="defs4">
    <linearGradient
       id="linearGradient3922">
      <stop
         style="stop-color:#004455;stop-opacity:1;"
         offset="0"
         id="stop3924" />
      <stop
         style="stop-color:#005b72;stop-opacity:1;"
         offset="1"
         id="stop3926" />
    </linearGradient>
    <clipPath
       clipPathUnits="userSpaceOnUse"
       id="clipPath6">
      <rect
         width="20"
         x="1"
         y="1"
         rx="2"
         height="20"
         style="fill:#fff;fill-rule:evenodd"
         id="rect8" />
    </clipPath>
    <clipPath
       clipPathUnits="userSpaceOnUse"
       id="clipPath10">
      <rect
         width="84"
         x="6"
         y="6"
         rx="6"
         height="84"
         style="fill:#fff"
         id="rect12" />
    </clipPath>
    <clipPath
       clipPathUnits="userSpaceOnUse"
       id="clipPath14">
      <path
         d="M 54.1,12.5 12.9,54.7 C -2.7,70.3 23,69 32.3,74.9 36.6,77.7 18.5,81.3 22.2,85 c 3.6,3.7 21.7,7.1 25.3,10.7 3.6,3.7 -7.3,7.6 -3.7,11.3 3.5,3.7 11.9,0.2 13.4,8.6 1.1,6.2 15.4,3.1 21.8,-2.2 4,-3.4 -6.9,-3.4 -3.3,-7.1 9,-9.1 17,-4.1 20.3,-12.5 1.8,-4.5 -13.6,-7.7 -9.5,-10.6 9.8,-6.9 45.8,-10.4 29.2,-27 L 73,12.5 c -5.3,-5 -14,-5 -18.9,0 z m -9.9,64.7 c 0.9,0 30.8,4 19.3,7.1 -4.4,1.2 -24.6,-7.1 -19.3,-7.1 z m 57.2,16.6 c 0,2.1 16.3,3.3 15.4,-0.5 -1.3,-6.4 -13.6,-5.9 -15.4,0.5 z m -69.5,11.1 c 3.7,3.2 9.3,-0.7 11.1,-5.2 -3.6,-4.7 -16.9,0.3 -11.1,5.2 z m 67.5,-6.7 c -4.6,4.2 0.8,8.6 5.3,5.7 1.2,-0.8 -0.1,-4.7 -5.3,-5.7 z"
         id="path16" />
    </clipPath>
    <clipPath
       clipPathUnits="userSpaceOnUse"
       id="clipPath18">
      <rect
         width="96"
         x="-100"
         y="-0"
         height="96"
         style="fill:#fff"
         id="rect20" />
    </clipPath>
    <clipPath
       clipPathUnits="userSpaceOnUse"
       id="clipPath22">
      <path
         d="M 95.311,352.545 L 476.403,352.545 L 476.403,71.4229 L 95.311,71.4229 L 95.311,352.545 z"
         id="path24" />
    </clipPath>
    <clipPath
       clipPathUnits="userSpaceOnUse"
       id="clipPath26">
      <path
         d="M 93.311,354.545 L 478.511,354.545 L 478.511,69.1846 L 93.311,69.1846 L 93.311,354.545 z"
         id="path28" />
    </clipPath>
    <clipPath
       clipPathUnits="userSpaceOnUse"
       id="clipPath30">
      <path
         d="M 93.311,69.185 L 478.511,69.185 L 478.511,354.545 L 93.311,354.545 L 93.311,69.185 z"
         id="path32" />
    </clipPath>
    <clipPath
       clipPathUnits="userSpaceOnUse"
       id="clipPath34">
      <path
         d="M 92.311,355.545 L 479.511,355.545 L 479.511,68.1846 L 92.311,68.1846 L 92.311,355.545 z"
         id="path36" />
    </clipPath>
  </defs>
  <g
     style="fill-rule:evenodd"
     id="g38">
    <rect
       width="11.746"
       x=".9"
       y=".901"
       rx="5.873"
       height="11.746"
       style="fill:#1a1a1a;stroke-width:0.02822222000000000;stroke-miterlimit:4;stroke-dasharray:none;stroke:none;stroke-opacity:1;fill-opacity:1"
       id="rect42" />
    <rect
       style="fill:none;stroke:none"
       id="rect3286"
       width="12.417778"
       height="10.442223"
       x="2.751667"
       y="3.668884" />
    <rect
       style="fill:none;stroke:none"
       id="rect4102"
       width="3.1044445"
       height="3.1044445"
       x="2.751667"
       y="11.006662" />
    <ellipse
       sodipodi:ry="1.0000308"
       sodipodi:rx="1"
       sodipodi:cy="713.8125"
       sodipodi:cx="227.2366"
       transform="matrix(0.28222223,0,0,0.28222223,-53.90047,-196.86764)"
       ry="1.0000308"
       rx="1"
       cy="713.8125"
       cx="227.2366"
       id="ellipse3270"
       style="fill:none;stroke:none" />
    <rect
       y="8.2550001"
       x="7.972971"
       height="1.9755557"
       width="1.9755557"
       id="rect4132"
       style="fill:none;stroke:none" />
    <path
       inkscape:connector-curvature="0"
       style="fill:#ededed;fill-opacity:1;fill-rule:evenodd;stroke:none"
       d="m 4.0218622,4.3744445 0,4.7977779 4.7977779,0 1.4111119,1.4111116 0,-1.4111116 0,-0.5644445 0,-4.2333334 -6.2088898,0 z"
       id="rect4159" />
    <rect
       width="2.7290938"
       x="2.7276819"
       y="3.0804503"
       rx="1.3645469"
       height="2.7290938"
       style="fill:#002255;fill-opacity:1;fill-rule:evenodd;stroke:#ffffff;stroke-width:0.07046047;stroke-miterlimit:4;stroke-opacity:1;stroke-dasharray:none"
       id="rect42-1" />
    <path
       inkscape:connector-curvature="0"
       id="path7736"
       d="m 3.8965146,3.5199783 0,0.4290468 -0.314082,-0.3047437 -0.2773698,0.2726653 0.3100016,0.3047438 -0.4364468,0 0,0.3849388 0.4405271,0 -0.3140819,0.3087542 0.2773698,0.2726654 0.314082,-0.3087533 0,0.437066 0.3915816,0 0,-0.437066 0.3100008,0.3087533 0.2773682,-0.2726654 -0.3140787,-0.3087542 0.4446075,0 0,-0.3849388 -0.4405296,0 L 4.8754652,3.9169467 4.598097,3.6442814 4.2880962,3.9490251 l 0,-0.4290468 -0.3915816,0 z m 0.1427632,0.5132532 c 0.01627,-0.00216 0.036185,0 0.05302,0 0.2150223,0 0.3868155,0.1695537 0.3875021,0.3809292 0,0.2118042 -0.1720395,0.3849406 -0.3875021,0.3849406 -0.2154576,0 -0.3915782,-0.1731364 -0.3915782,-0.3849406 0,-0.1952598 0.1465297,-0.3569133 0.3385522,-0.3809292 z"
       style="fill:#ffffff;fill-opacity:1;fill-rule:nonzero;stroke:none" />
  </g>
</svg>
