<?xml version="1.0" encoding="UTF-8" standalone="no"?>
<svg
   xmlns:dc="http://purl.org/dc/elements/1.1/"
   xmlns:cc="http://creativecommons.org/ns#"
   xmlns:rdf="http://www.w3.org/1999/02/22-rdf-syntax-ns#"
   xmlns:svg="http://www.w3.org/2000/svg"
   xmlns="http://www.w3.org/2000/svg"
   xmlns:xlink="http://www.w3.org/1999/xlink"
   xmlns:sodipodi="http://sodipodi.sourceforge.net/DTD/sodipodi-0.dtd"
   xmlns:inkscape="http://www.inkscape.org/namespaces/inkscape"
   width="48"
   viewBox="0 0 13.546667 13.546667"
   height="48"
   id="svg2"
   version="1.1"
   inkscape:version="0.48.4 r9939"
   sodipodi:docname="applications-internet.svg">
  <metadata
     id="metadata62">
    <rdf:RDF>
      <cc:Work
         rdf:about="">
        <dc:format>image/svg+xml</dc:format>
        <dc:type
           rdf:resource="http://purl.org/dc/dcmitype/StillImage" />
        <dc:title></dc:title>
      </cc:Work>
    </rdf:RDF>
  </metadata>
  <sodipodi:namedview
     pagecolor="#ffffff"
     bordercolor="#666666"
     borderopacity="1"
     objecttolerance="10"
     gridtolerance="10"
     guidetolerance="10"
     inkscape:pageopacity="0"
     inkscape:pageshadow="2"
     inkscape:window-width="1366"
     inkscape:window-height="716"
     id="namedview60"
     showgrid="false"
     inkscape:zoom="4.9166665"
     inkscape:cx="35.699425"
     inkscape:cy="42.490775"
     inkscape:window-x="0"
     inkscape:window-y="28"
     inkscape:window-maximized="1"
     inkscape:current-layer="layer1" />
  <defs
     id="defs4">
    <clipPath
       clipPathUnits="userSpaceOnUse"
       id="clipPath6">
      <rect
         width="20"
         x="1"
         y="1"
         rx="2"
         height="20"
         style="fill:#fff;fill-rule:evenodd"
         id="rect8" />
    </clipPath>
    <clipPath
       clipPathUnits="userSpaceOnUse"
       id="clipPath10">
      <rect
         width="84"
         x="6"
         y="6"
         rx="6"
         height="84"
         style="fill:#fff"
         id="rect12" />
    </clipPath>
    <clipPath
       clipPathUnits="userSpaceOnUse"
       id="clipPath14">
      <path
         d="M 54.1,12.5 12.9,54.7 C -2.7,70.3 23,69 32.3,74.9 36.6,77.7 18.5,81.3 22.2,85 c 3.6,3.7 21.7,7.1 25.3,10.7 3.6,3.7 -7.3,7.6 -3.7,11.3 3.5,3.7 11.9,0.2 13.4,8.6 1.1,6.2 15.4,3.1 21.8,-2.2 4,-3.4 -6.9,-3.4 -3.3,-7.1 9,-9.1 17,-4.1 20.3,-12.5 1.8,-4.5 -13.6,-7.7 -9.5,-10.6 9.8,-6.9 45.8,-10.4 29.2,-27 L 73,12.5 c -5.3,-5 -14,-5 -18.9,0 z m -9.9,64.7 c 0.9,0 30.8,4 19.3,7.1 -4.4,1.2 -24.6,-7.1 -19.3,-7.1 z m 57.2,16.6 c 0,2.1 16.3,3.3 15.4,-0.5 -1.3,-6.4 -13.6,-5.9 -15.4,0.5 z m -69.5,11.1 c 3.7,3.2 9.3,-0.7 11.1,-5.2 -3.6,-4.7 -16.9,0.3 -11.1,5.2 z m 67.5,-6.7 c -4.6,4.2 0.8,8.6 5.3,5.7 1.2,-0.8 -0.1,-4.7 -5.3,-5.7 z"
         id="path16" />
    </clipPath>
    <clipPath
       clipPathUnits="userSpaceOnUse"
       id="clipPath18">
      <rect
         width="96"
         x="-100"
         y="-0"
         height="96"
         style="fill:#fff"
         id="rect20" />
    </clipPath>
    <clipPath
       clipPathUnits="userSpaceOnUse"
       id="clipPath22">
      <path
         d="M 95.311,352.545 L 476.403,352.545 L 476.403,71.4229 L 95.311,71.4229 L 95.311,352.545 z"
         id="path24" />
    </clipPath>
    <clipPath
       clipPathUnits="userSpaceOnUse"
       id="clipPath26">
      <path
         d="M 93.311,354.545 L 478.511,354.545 L 478.511,69.1846 L 93.311,69.1846 L 93.311,354.545 z"
         id="path28" />
    </clipPath>
    <clipPath
       clipPathUnits="userSpaceOnUse"
       id="clipPath30">
      <path
         d="M 93.311,69.185 L 478.511,69.185 L 478.511,354.545 L 93.311,354.545 L 93.311,69.185 z"
         id="path32" />
    </clipPath>
    <clipPath
       clipPathUnits="userSpaceOnUse"
       id="clipPath34">
      <path
         d="M 92.311,355.545 L 479.511,355.545 L 479.511,68.1846 L 92.311,68.1846 L 92.311,355.545 z"
         id="path36" />
    </clipPath>
    <radialGradient
       cx="6.3499999"
       cy="28.450001"
       r="5.6209993"
       fx="6.3499999"
       fy="28.450001"
       id="radialGradient9880"
       xlink:href="#linearGradient9097"
       gradientUnits="userSpaceOnUse" />
    <linearGradient
       id="linearGradient9097">
      <stop
         style="stop-color:#2e3436;stop-opacity:1"
         offset="0"
         id="stop9099" />
      <stop
         style="stop-color:#2e3436;stop-opacity:0"
         offset="1"
         id="stop9101" />
    </linearGradient>
    <radialGradient
       cx="6.3499999"
       cy="28.450001"
       r="5.6209993"
       fx="6.3499999"
       fy="28.450001"
       id="radialGradient9882"
       xlink:href="#linearGradient9097"
       gradientUnits="userSpaceOnUse" />
    <linearGradient
       id="linearGradient4343">
      <stop
         style="stop-color:#2e3436;stop-opacity:1"
         offset="0"
         id="stop4345" />
      <stop
         style="stop-color:#2e3436;stop-opacity:0"
         offset="1"
         id="stop4347" />
    </linearGradient>
    <radialGradient
       cx="6.3499999"
       cy="28.450001"
       r="5.6209993"
       fx="6.3499999"
       fy="28.450001"
       id="radialGradient9884"
       xlink:href="#linearGradient9097"
       gradientUnits="userSpaceOnUse" />
    <linearGradient
       id="linearGradient4350">
      <stop
         style="stop-color:#2e3436;stop-opacity:1"
         offset="0"
         id="stop4352" />
      <stop
         style="stop-color:#2e3436;stop-opacity:0"
         offset="1"
         id="stop4354" />
    </linearGradient>
    <radialGradient
       cx="6.3499999"
       cy="28.450001"
       r="5.6209993"
       fx="6.3499999"
       fy="28.450001"
       id="radialGradient9886"
       xlink:href="#linearGradient9097"
       gradientUnits="userSpaceOnUse" />
    <linearGradient
       id="linearGradient4357">
      <stop
         style="stop-color:#2e3436;stop-opacity:1"
         offset="0"
         id="stop4359" />
      <stop
         style="stop-color:#2e3436;stop-opacity:0"
         offset="1"
         id="stop4361" />
    </linearGradient>
    <radialGradient
       cx="6.3499999"
       cy="28.450001"
       r="5.6209993"
       fx="6.3499999"
       fy="28.450001"
       id="radialGradient9888"
       xlink:href="#linearGradient9097"
       gradientUnits="userSpaceOnUse" />
    <linearGradient
       id="linearGradient4364">
      <stop
         style="stop-color:#2e3436;stop-opacity:1"
         offset="0"
         id="stop4366" />
      <stop
         style="stop-color:#2e3436;stop-opacity:0"
         offset="1"
         id="stop4368" />
    </linearGradient>
    <radialGradient
       cx="6.3499999"
       cy="28.450001"
       r="5.6209993"
       fx="6.3499999"
       fy="28.450001"
       id="radialGradient9890"
       xlink:href="#linearGradient9097"
       gradientUnits="userSpaceOnUse" />
    <linearGradient
       id="linearGradient4371">
      <stop
         style="stop-color:#2e3436;stop-opacity:1"
         offset="0"
         id="stop4373" />
      <stop
         style="stop-color:#2e3436;stop-opacity:0"
         offset="1"
         id="stop4375" />
    </linearGradient>
    <radialGradient
       cx="6.3499999"
       cy="28.450001"
       r="5.6209993"
       fx="6.3499999"
       fy="28.450001"
       id="radialGradient9892"
       xlink:href="#linearGradient9097"
       gradientUnits="userSpaceOnUse" />
    <linearGradient
       id="linearGradient4378">
      <stop
         style="stop-color:#2e3436;stop-opacity:1"
         offset="0"
         id="stop4380" />
      <stop
         style="stop-color:#2e3436;stop-opacity:0"
         offset="1"
         id="stop4382" />
    </linearGradient>
    <radialGradient
       cx="6.3499999"
       cy="28.450001"
       r="5.6209993"
       fx="6.3499999"
       fy="28.450001"
       id="radialGradient9894"
       xlink:href="#linearGradient9097"
       gradientUnits="userSpaceOnUse" />
    <linearGradient
       id="linearGradient4385">
      <stop
         style="stop-color:#2e3436;stop-opacity:1"
         offset="0"
         id="stop4387" />
      <stop
         style="stop-color:#2e3436;stop-opacity:0"
         offset="1"
         id="stop4389" />
    </linearGradient>
    <radialGradient
       cx="6.3499999"
       cy="28.450001"
       r="5.6209993"
       fx="6.3499999"
       fy="28.450001"
       id="radialGradient9896"
       xlink:href="#linearGradient9097"
       gradientUnits="userSpaceOnUse" />
    <linearGradient
       id="linearGradient4392">
      <stop
         style="stop-color:#2e3436;stop-opacity:1"
         offset="0"
         id="stop4394" />
      <stop
         style="stop-color:#2e3436;stop-opacity:0"
         offset="1"
         id="stop4396" />
    </linearGradient>
    <radialGradient
       cx="6.3499999"
       cy="28.450001"
       r="5.6209993"
       fx="6.3499999"
       fy="28.450001"
       id="radialGradient9898"
       xlink:href="#linearGradient9097"
       gradientUnits="userSpaceOnUse" />
    <linearGradient
       id="linearGradient4399">
      <stop
         style="stop-color:#2e3436;stop-opacity:1"
         offset="0"
         id="stop4401" />
      <stop
         style="stop-color:#2e3436;stop-opacity:0"
         offset="1"
         id="stop4403" />
    </linearGradient>
  </defs>
  <g
     style="fill-rule:evenodd"
     id="g38">
    <rect
       width="11.746"
       x="0.9574011"
       y="0.90100002"
       rx="5.8730001"
       height="11.746"
       style="fill:#cccccc;fill-opacity:1;stroke:none"
       id="rect42" />
    <g
       transform="matrix(0.21166667,0,0,0.21166667,1.5156232,2.0970789)"
       id="layer1">
      <rect
         style="fill:#4d4d4d;fill-rule:evenodd;stroke:#003bc3;stroke-width:0;stroke-linecap:square;stroke-linejoin:miter;stroke-miterlimit:2"
         y="0"
         x="0"
         id="shape0"
         transform="matrix(0,1,-1,0,25.6709,12.2278)"
         stroke-miterlimit="2.00000000000"
         width="14.141771"
         height="2.0050633" />
      <rect
         style="fill:#4d4d4d;fill-rule:evenodd;stroke:#003bc3;stroke-width:0;stroke-linecap:square;stroke-linejoin:miter;stroke-miterlimit:2.01260184999999980;fill-opacity:1;"
         y="0"
         x="0"
         id="rect8-8"
         transform="translate(14.9437,24.6378)"
         stroke-miterlimit="2.01260185242"
         width="18.595509"
         height="21.589155" />
      <path
         style="fill:#34495e;fill-rule:evenodd;stroke:#4c4c4c;stroke-width:0;stroke-linecap:square;stroke-linejoin:miter;stroke-miterlimit:2"
         inkscape:connector-curvature="0"
         id="shape7"
         transform="translate(28.5657,41.3556)"
         stroke-miterlimit="2.00000000000"
         d="M 2.38216,0.990669 C 2.27949,0.366186 1.69377,-0.0672463 1.05505,0.00861013 0.416326,0.0844666 -0.0475981,0.642557 0.00390305,1.27312 0.0554043,1.90368 0.603963,2.38182 1.24681,2.35648 1.88966,2.33114 2.39753,1.81136 2.39753,1.17877" />
      <rect
         style="fill:#4d4d4d;fill-rule:evenodd;stroke:#003bc3;stroke-width:0;stroke-linecap:square;stroke-linejoin:miter;stroke-miterlimit:2.01260185"
         y="0"
         x="0"
         id="shape1"
         transform="translate(7.95949,18.7747)"
         stroke-miterlimit="2.01260191180"
         width="32.992405"
         height="2.0050633" />
      <rect
         style="fill:#4d4d4d;fill-rule:evenodd;stroke:#003bc3;stroke-width:0;stroke-linecap:square;stroke-linejoin:miter;stroke-miterlimit:2"
         y="0"
         x="0"
         id="shape2"
         transform="matrix(0,1,-1,0,9.93418,12.2734)"
         stroke-miterlimit="2.00000000000"
         width="8.4759493"
         height="2.0050633" />
      <rect
         style="fill:#4d4d4d;fill-rule:evenodd;stroke:#003bc3;stroke-width:0;stroke-linecap:square;stroke-linejoin:miter;stroke-miterlimit:2"
         y="0"
         x="0"
         id="rect17"
         transform="matrix(0,1,-1,0,40.9215,12.2278)"
         stroke-miterlimit="2.00000000000"
         width="8.4759493"
         height="2.0050633" />
      <path
         style="fill:#f9f9f9;fill-rule:evenodd;stroke:#003bc3;stroke-width:0;stroke-linecap:square;stroke-linejoin:miter;stroke-miterlimit:2.01260184999999980"
         inkscape:connector-curvature="0"
         id="path19"
         transform="translate(3.46314,2.2478)"
         stroke-miterlimit="2.01260191180"
         d="M 10.9664,4.95459 C 10.6722,1.98636 8.06432,-0.20551 5.08973,0.0153196 2.11514,0.236149 -0.140474,2.78908 0.00682097,5.76822 0.154116,8.74735 2.65056,11.0653 5.63242,10.9917 8.61429,10.918 10.9932,8.47956 10.9932,5.49679" />
      <path
         style="fill:#f9f9f9;fill-rule:evenodd;stroke:#003bc3;stroke-width:0;stroke-linecap:square;stroke-linejoin:miter;stroke-miterlimit:2"
         inkscape:connector-curvature="0"
         id="path21"
         transform="translate(19.0819,2.22382)"
         stroke-miterlimit="2.00000000000"
         d="M 10.9664,4.95459 C 10.6722,1.98636 8.06432,-0.20551 5.08973,0.0153196 2.11514,0.236149 -0.140474,2.78908 0.00682097,5.76822 0.154116,8.74735 2.65056,11.0653 5.63242,10.9917 8.61429,10.918 10.9932,8.47956 10.9932,5.49679" />
      <path
         style="fill:#f9f9f9;fill-rule:evenodd;stroke:#003bc3;stroke-width:0;stroke-linecap:square;stroke-linejoin:miter;stroke-miterlimit:2"
         inkscape:connector-curvature="0"
         id="path23"
         transform="translate(34.6372,2.24368)"
         stroke-miterlimit="2.00000000000"
         d="M 10.9664,4.95459 C 10.6722,1.98636 8.06432,-0.20551 5.08973,0.0153196 2.11514,0.236149 -0.140474,2.78908 0.00682097,5.76822 0.154116,8.74735 2.65056,11.0653 5.63242,10.9917 8.61429,10.918 10.9932,8.47956 10.9932,5.49679" />
    </g>
  </g>
</svg>
