<?xml version="1.0" encoding="UTF-8" standalone="no"?>
<svg
   xmlns:dc="http://purl.org/dc/elements/1.1/"
   xmlns:cc="http://creativecommons.org/ns#"
   xmlns:rdf="http://www.w3.org/1999/02/22-rdf-syntax-ns#"
   xmlns:svg="http://www.w3.org/2000/svg"
   xmlns="http://www.w3.org/2000/svg"
   xmlns:sodipodi="http://sodipodi.sourceforge.net/DTD/sodipodi-0.dtd"
   xmlns:inkscape="http://www.inkscape.org/namespaces/inkscape"
   width="48"
   viewBox="0 0 13.546667 13.546667"
   height="48"
   id="svg2"
   version="1.1"
   inkscape:version="0.48.4 r9939"
   sodipodi:docname="base.svg">
  <metadata
     id="metadata62">
    <rdf:RDF>
      <cc:Work
         rdf:about="">
        <dc:format>image/svg+xml</dc:format>
        <dc:type
           rdf:resource="http://purl.org/dc/dcmitype/StillImage" />
        <dc:title />
      </cc:Work>
    </rdf:RDF>
  </metadata>
  <sodipodi:namedview
     pagecolor="#ffffff"
     bordercolor="#666666"
     borderopacity="1"
     objecttolerance="10"
     gridtolerance="10"
     guidetolerance="10"
     inkscape:pageopacity="0"
     inkscape:pageshadow="2"
     inkscape:window-width="1366"
     inkscape:window-height="716"
     id="namedview60"
     showgrid="false"
     inkscape:zoom="3.4766083"
     inkscape:cx="68.589347"
     inkscape:cy="-7.3756288"
     inkscape:window-x="0"
     inkscape:window-y="28"
     inkscape:window-maximized="1"
     inkscape:current-layer="g38" />
  <defs
     id="defs4">
    <clipPath
       clipPathUnits="userSpaceOnUse"
       id="clipPath6">
      <rect
         width="20"
         x="1"
         y="1"
         rx="2"
         height="20"
         style="fill:#fff;fill-rule:evenodd"
         id="rect8" />
    </clipPath>
    <clipPath
       clipPathUnits="userSpaceOnUse"
       id="clipPath10">
      <rect
         width="84"
         x="6"
         y="6"
         rx="6"
         height="84"
         style="fill:#fff"
         id="rect12" />
    </clipPath>
    <clipPath
       clipPathUnits="userSpaceOnUse"
       id="clipPath14">
      <path
         d="M 54.1,12.5 12.9,54.7 C -2.7,70.3 23,69 32.3,74.9 36.6,77.7 18.5,81.3 22.2,85 c 3.6,3.7 21.7,7.1 25.3,10.7 3.6,3.7 -7.3,7.6 -3.7,11.3 3.5,3.7 11.9,0.2 13.4,8.6 1.1,6.2 15.4,3.1 21.8,-2.2 4,-3.4 -6.9,-3.4 -3.3,-7.1 9,-9.1 17,-4.1 20.3,-12.5 1.8,-4.5 -13.6,-7.7 -9.5,-10.6 9.8,-6.9 45.8,-10.4 29.2,-27 L 73,12.5 c -5.3,-5 -14,-5 -18.9,0 z m -9.9,64.7 c 0.9,0 30.8,4 19.3,7.1 -4.4,1.2 -24.6,-7.1 -19.3,-7.1 z m 57.2,16.6 c 0,2.1 16.3,3.3 15.4,-0.5 -1.3,-6.4 -13.6,-5.9 -15.4,0.5 z m -69.5,11.1 c 3.7,3.2 9.3,-0.7 11.1,-5.2 -3.6,-4.7 -16.9,0.3 -11.1,5.2 z m 67.5,-6.7 c -4.6,4.2 0.8,8.6 5.3,5.7 1.2,-0.8 -0.1,-4.7 -5.3,-5.7 z"
         id="path16" />
    </clipPath>
    <clipPath
       clipPathUnits="userSpaceOnUse"
       id="clipPath18">
      <rect
         width="96"
         x="-100"
         y="-0"
         height="96"
         style="fill:#fff"
         id="rect20" />
    </clipPath>
    <clipPath
       clipPathUnits="userSpaceOnUse"
       id="clipPath22">
      <path
         d="M 95.311,352.545 L 476.403,352.545 L 476.403,71.4229 L 95.311,71.4229 L 95.311,352.545 z"
         id="path24" />
    </clipPath>
    <clipPath
       clipPathUnits="userSpaceOnUse"
       id="clipPath26">
      <path
         d="M 93.311,354.545 L 478.511,354.545 L 478.511,69.1846 L 93.311,69.1846 L 93.311,354.545 z"
         id="path28" />
    </clipPath>
    <clipPath
       clipPathUnits="userSpaceOnUse"
       id="clipPath30">
      <path
         d="M 93.311,69.185 L 478.511,69.185 L 478.511,354.545 L 93.311,354.545 L 93.311,69.185 z"
         id="path32" />
    </clipPath>
    <clipPath
       clipPathUnits="userSpaceOnUse"
       id="clipPath34">
      <path
         d="M 92.311,355.545 L 479.511,355.545 L 479.511,68.1846 L 92.311,68.1846 L 92.311,355.545 z"
         id="path36" />
    </clipPath>
  </defs>
  <g
     style="fill-rule:evenodd"
     id="g38">
    <rect
       width="11.746"
       x=".9"
       y=".901"
       rx="5.873"
       height="11.746"
       style="fill:#19aede;fill-opacity:1"
       id="rect42" />
    <path
       style="fill:#ffffff;fill-opacity:1"
       d="m 3.8263768,0.4659963 c -1.909396,0 -3.45538997,1.5599028 -3.45538997,3.4865539 0,0.5949956 0.151089,1.1711588 0.411707,1.661678 -0.08701,0.4131948 -0.132332,0.8365891 -0.132332,1.2758826 0,3.3909252 2.72682697,6.1423042 6.08736897,6.1423042 0.435388,0 0.854948,-0.04581 1.264527,-0.133619 0.48772,0.265287 1.054237,0.415438 1.646827,0.415438 1.9093962,0 3.4553862,-1.559937 3.4553862,-3.486605 0,-0.597896 -0.148767,-1.169495 -0.411706,-1.661645 0.08702,-0.413327 0.132324,-0.836556 0.132324,-1.2759485 0,-3.3907768 -2.726822,-6.1422364 -6.0873652,-6.1422364 -0.435494,0 -0.85486,0.045804 -1.264527,0.133622 C 4.9870938,0.6183865 4.4161938,0.4660127 3.8263628,0.4660127 z m 2.793722,2.5518314 c 1.902479,0 2.881943,1.0090147 2.881943,1.6023133 0,0.593348 -0.282918,0.6825017 -0.749894,0.6825017 -0.906417,0 -0.533924,-1.0979212 -2.234975,-1.0979212 -0.563398,0 -1.264526,0.2576248 -1.264526,0.9198776 0,0.5313635 0.620564,0.7246318 1.720341,0.9940209 1.653403,0.4470541 2.89665,0.891274 2.89665,2.418373 0,1.483337 -1.200018,2.225467 -3.102502,2.225467 -1.902476,0 -3.117204,-1.142556 -3.117204,-1.735888 0,-0.593348 0.22411,-0.741817 0.691078,-0.741817 0.906419,0 0.783891,1.246308 2.484945,1.246308 0.563398,0 1.396859,-0.257575 1.396859,-0.91991 0,-0.531298 -0.04419,-0.712604 -1.249826,-1.03854 -1.288053,-0.177204 -3.367163,-0.5971381 -3.367163,-2.2106221 0,-1.4834196 1.111793,-2.3441632 3.014274,-2.3441632 z"
       id="path18"
       inkscape:connector-curvature="0" />
  </g>
</svg>
