<?xml version="1.0" encoding="UTF-8" standalone="no"?>
<svg
   xmlns:dc="http://purl.org/dc/elements/1.1/"
   xmlns:cc="http://creativecommons.org/ns#"
   xmlns:rdf="http://www.w3.org/1999/02/22-rdf-syntax-ns#"
   xmlns:svg="http://www.w3.org/2000/svg"
   xmlns="http://www.w3.org/2000/svg"
   xmlns:sodipodi="http://sodipodi.sourceforge.net/DTD/sodipodi-0.dtd"
   xmlns:inkscape="http://www.inkscape.org/namespaces/inkscape"
   width="48"
   viewBox="0 0 13.546667 13.546667"
   height="48"
   id="svg2"
   version="1.1"
   inkscape:version="0.48.4 r9939"
   sodipodi:docname="base.svg">
  <metadata
     id="metadata62">
    <rdf:RDF>
      <cc:Work
         rdf:about="">
        <dc:format>image/svg+xml</dc:format>
        <dc:type
           rdf:resource="http://purl.org/dc/dcmitype/StillImage" />
        <dc:title></dc:title>
      </cc:Work>
    </rdf:RDF>
  </metadata>
  <sodipodi:namedview
     pagecolor="#ffffff"
     bordercolor="#666666"
     borderopacity="1"
     objecttolerance="10"
     gridtolerance="10"
     guidetolerance="10"
     inkscape:pageopacity="0"
     inkscape:pageshadow="2"
     inkscape:window-width="1366"
     inkscape:window-height="716"
     id="namedview60"
     showgrid="false"
     inkscape:zoom="6.9532165"
     inkscape:cx="-12.246333"
     inkscape:cy="43.996373"
     inkscape:window-x="0"
     inkscape:window-y="28"
     inkscape:window-maximized="1"
     inkscape:current-layer="g38" />
  <defs
     id="defs4">
    <clipPath
       clipPathUnits="userSpaceOnUse"
       id="clipPath6">
      <rect
         width="20"
         x="1"
         y="1"
         rx="2"
         height="20"
         style="fill:#fff;fill-rule:evenodd"
         id="rect8" />
    </clipPath>
    <clipPath
       clipPathUnits="userSpaceOnUse"
       id="clipPath10">
      <rect
         width="84"
         x="6"
         y="6"
         rx="6"
         height="84"
         style="fill:#fff"
         id="rect12" />
    </clipPath>
    <clipPath
       clipPathUnits="userSpaceOnUse"
       id="clipPath14">
      <path
         d="M 54.1,12.5 12.9,54.7 C -2.7,70.3 23,69 32.3,74.9 36.6,77.7 18.5,81.3 22.2,85 c 3.6,3.7 21.7,7.1 25.3,10.7 3.6,3.7 -7.3,7.6 -3.7,11.3 3.5,3.7 11.9,0.2 13.4,8.6 1.1,6.2 15.4,3.1 21.8,-2.2 4,-3.4 -6.9,-3.4 -3.3,-7.1 9,-9.1 17,-4.1 20.3,-12.5 1.8,-4.5 -13.6,-7.7 -9.5,-10.6 9.8,-6.9 45.8,-10.4 29.2,-27 L 73,12.5 c -5.3,-5 -14,-5 -18.9,0 z m -9.9,64.7 c 0.9,0 30.8,4 19.3,7.1 -4.4,1.2 -24.6,-7.1 -19.3,-7.1 z m 57.2,16.6 c 0,2.1 16.3,3.3 15.4,-0.5 -1.3,-6.4 -13.6,-5.9 -15.4,0.5 z m -69.5,11.1 c 3.7,3.2 9.3,-0.7 11.1,-5.2 -3.6,-4.7 -16.9,0.3 -11.1,5.2 z m 67.5,-6.7 c -4.6,4.2 0.8,8.6 5.3,5.7 1.2,-0.8 -0.1,-4.7 -5.3,-5.7 z"
         id="path16" />
    </clipPath>
    <clipPath
       clipPathUnits="userSpaceOnUse"
       id="clipPath18">
      <rect
         width="96"
         x="-100"
         y="-0"
         height="96"
         style="fill:#fff"
         id="rect20" />
    </clipPath>
    <clipPath
       clipPathUnits="userSpaceOnUse"
       id="clipPath22">
      <path
         d="M 95.311,352.545 L 476.403,352.545 L 476.403,71.4229 L 95.311,71.4229 L 95.311,352.545 z"
         id="path24" />
    </clipPath>
    <clipPath
       clipPathUnits="userSpaceOnUse"
       id="clipPath26">
      <path
         d="M 93.311,354.545 L 478.511,354.545 L 478.511,69.1846 L 93.311,69.1846 L 93.311,354.545 z"
         id="path28" />
    </clipPath>
    <clipPath
       clipPathUnits="userSpaceOnUse"
       id="clipPath30">
      <path
         d="M 93.311,69.185 L 478.511,69.185 L 478.511,354.545 L 93.311,354.545 L 93.311,69.185 z"
         id="path32" />
    </clipPath>
    <clipPath
       clipPathUnits="userSpaceOnUse"
       id="clipPath34">
      <path
         d="M 92.311,355.545 L 479.511,355.545 L 479.511,68.1846 L 92.311,68.1846 L 92.311,355.545 z"
         id="path36" />
    </clipPath>
  </defs>
  <g
     style="fill-rule:evenodd"
     id="g38">
    <rect
       width="11.746"
       x=".9"
       y=".901"
       rx="5.873"
       height="11.746"
       style="fill:#1e1e1c;stroke-width:0.02822222000000000;stroke-miterlimit:4;stroke-dasharray:none;stroke:none;stroke-opacity:1;fill-opacity:1"
       id="rect42" />
    <g
       transform="translate(0.00509735,0.19796564)"
       style="line-height:normal;fill:#ffffff"
       id="g18">
      <g
         transform="matrix(0.13,0,0,0.125,0.05726,5.11587)"
         id="g20"
         style="fill:#ffffff">
        <path
           inkscape:connector-curvature="0"
           style="color:#000000;fill:#ffffff"
           d="m 67.533036,-11.575717 c -6.786951,0 -12.350206,5.5954284 -12.350206,12.42128066 0,6.82603064 5.563255,12.42128434 12.350206,12.42128434 6.786951,0 12.350205,-5.5952537 12.350205,-12.42146214 0,-6.82584946 -5.563254,-12.42128086 -12.350205,-12.42128086 z m 0,4.1694667 c 4.565201,0 8.204683,3.6603715 8.204683,8.25181396 0,4.59161454 -3.639482,8.25198944 -8.204683,8.25198944 -4.565202,0 -8.204683,-3.6603749 -8.204683,-8.25198944 0,-4.59144246 3.639481,-8.25181396 8.204683,-8.25181396 z"
           id="path22" />
        <path
           inkscape:connector-curvature="0"
           d="m 72.823443,0.8314162 a 5.2929475,5.3234085 0 0 1 -10.585895,0 5.2929475,5.3234085 0 1 1 10.585895,0 z"
           id="path24-5"
           style="fill:#ffffff" />
        <path
           inkscape:connector-curvature="0"
           d="m 56.944585,6.1547762 0,15.9702198 8.821576,1.77447 7.537651,-13.248361 -7.872412,0 z"
           id="path26"
           style="fill:#ffffff" />
      </g>
      <g
         style="color:#000000;fill:#ffffff"
         transform="matrix(0.03669,0,0,0.03528,2.07704,9.59553)"
         id="g28">
        <path
           inkscape:connector-curvature="0"
           d="m 152.97281,-54.874888 c -17.17733,0 -31.25755,14.16131 -31.25755,31.43745 C 121.71526,-6.160682 135.79548,8 152.97281,8 c 17.17728,0 31.25755,-14.160682 31.25755,-31.437438 0,-17.27614 -14.08027,-31.43745 -31.25755,-31.43745 z m 0,10.55229 c 11.55423,0 20.76552,9.26462 20.76552,20.88516 0,11.621161 -9.21129,20.884516 -20.76552,20.884516 -11.55422,0 -20.76551,-9.263355 -20.76551,-20.884516 0,-11.62054 9.21129,-20.88516 20.76551,-20.88516 z"
           id="path30"
           style="fill:#ffffff" />
        <path
           inkscape:connector-curvature="0"
           d="m 59.25755,-98.887308 c -17.17734,0 -31.25755,14.16131 -31.25755,31.43744 0,17.27677 14.08021,31.43745 31.25755,31.43745 17.17728,0 31.25755,-14.16068 31.25755,-31.43745 0,-17.27613 -14.08027,-31.43744 -31.25755,-31.43744 z m -0.0563,12.57498 c 12.50302,0 18.75453,6.28749 18.75453,18.86246 0,12.57498 -6.25151,18.86247 -18.75453,18.86247 -12.50302,0 -18.75453,-6.28749 -18.75453,-18.86247 0,-12.57497 6.25151,-18.86246 18.75453,-18.86246 z"
           id="path32-9"
           style="fill:#ffffff" />
      </g>
      <g
         transform="matrix(0.03669,0,0,0.03528,2.07704,9.59553)"
         id="g34"
         style="fill:#ffffff">
        <path
           inkscape:connector-curvature="0"
           d="m 66.11389,-78.688118 c -7.09133,-3.02491 -15.27825,0.3018 -18.28598,7.43684 -3.00772,7.13189 0.30258,15.36599 7.39404,18.3909 l 92.8795,41.992881 c 7.09127,3.024283 15.27819,-0.301798 18.28592,-7.43684 3.00772,-7.131901 -0.30258,-15.366621 -7.39398,-18.390911 z"
           id="path36-0"
           style="fill:#ffffff" />
      </g>
    </g>
  </g>
</svg>
