<?xml version="1.0" encoding="UTF-8" standalone="no"?>
<svg
   xmlns:dc="http://purl.org/dc/elements/1.1/"
   xmlns:cc="http://creativecommons.org/ns#"
   xmlns:rdf="http://www.w3.org/1999/02/22-rdf-syntax-ns#"
   xmlns:svg="http://www.w3.org/2000/svg"
   xmlns="http://www.w3.org/2000/svg"
   xmlns:xlink="http://www.w3.org/1999/xlink"
   xmlns:sodipodi="http://sodipodi.sourceforge.net/DTD/sodipodi-0.dtd"
   xmlns:inkscape="http://www.inkscape.org/namespaces/inkscape"
   width="48"
   viewBox="0 0 13.546667 13.546667"
   height="48"
   id="svg2"
   version="1.1"
   inkscape:version="0.48.4 r9939"
   sodipodi:docname="sublime_text.svg">
  <metadata
     id="metadata28">
    <rdf:RDF>
      <cc:Work
         rdf:about="">
        <dc:format>image/svg+xml</dc:format>
        <dc:type
           rdf:resource="http://purl.org/dc/dcmitype/StillImage" />
        <dc:title />
      </cc:Work>
    </rdf:RDF>
  </metadata>
  <sodipodi:namedview
     pagecolor="#ffffff"
     bordercolor="#666666"
     borderopacity="1"
     objecttolerance="10"
     gridtolerance="10"
     guidetolerance="10"
     inkscape:pageopacity="0"
     inkscape:pageshadow="2"
     inkscape:window-width="718"
     inkscape:window-height="480"
     id="namedview26"
     showgrid="false"
     inkscape:zoom="4.9166667"
     inkscape:cx="15.864407"
     inkscape:cy="31.554651"
     inkscape:window-x="0"
     inkscape:window-y="28"
     inkscape:window-maximized="0"
     inkscape:current-layer="g18" />
  <defs
     id="defs4">
    <linearGradient
       id="linearGradient4460">
      <stop
         offset="0"
         style="stop-color:#53504d"
         id="stop7" />
      <stop
         offset="1"
         style="stop-color:#726e6a"
         id="stop9" />
    </linearGradient>
    <linearGradient
       id="linearGradient4038">
      <stop
         offset="0"
         style="stop-color:#ff8900"
         id="stop12" />
      <stop
         offset="1"
         style="stop-color:#ffa53d"
         id="stop14" />
    </linearGradient>
    <linearGradient
       gradientTransform="matrix(.058 0 0 .05257 -1.57492 -1.41742)"
       xlink:href="#linearGradient4038"
       id="linearGradient4950"
       y1="212"
       y2="100"
       gradientUnits="userSpaceOnUse"
       x2="0" />
    <linearGradient
       gradientTransform="matrix(1.10525 0 0 1.10525 -134.27874 -295.76183)"
       xlink:href="#linearGradient4460"
       id="linearGradient4431"
       y1="279.096"
       y2="268.33"
       gradientUnits="userSpaceOnUse"
       x2="0" />
  </defs>
  <g
     style="fill-rule:evenodd"
     id="g18">
    <rect
       width="11.853"
       x=".847"
       y=".847"
       rx="5.926"
       height="11.853"
       style="fill:#53504d;fill-opacity:1"
       id="rect22" />
  </g>
  <path
     style="fill:#ff8900;line-height:normal;color:#000;fill-opacity:1"
     d="M 7.0674642,3.1311512 C 6.3521633,3.0394087 5.564425,3.179213 4.9547277,3.6253633 4.6496373,3.8486154 4.4018057,4.1343862 4.2609933,4.4765062 c -0.1416185,0.344075 -0.1715807,0.7293356 -0.063066,1.098249 0.082346,0.2799487 0.2495891,0.5354669 0.4414673,0.7413181 0.190848,0.2047464 0.4002536,0.3656162 0.6306676,0.494212 0.4590465,0.2561942 0.9482818,0.3847821 1.3559353,0.4942121 0.4063294,0.1090746 0.740691,0.1907229 1.0090682,0.3294746 0.2584446,0.1336166 0.4691127,0.3156601 0.5360675,0.4942121 0.045599,0.1216019 0.047426,0.3003848 0,0.4392995 C 8.122951,8.708609 8.0177039,8.8453531 7.8873323,8.9518708 7.6254152,9.1658663 7.2015851,9.2524822 6.7836637,9.226433 6.1868313,9.1892322 5.5987504,8.9099877 5.2385282,8.4576587 A 0.70404941,0.61301828 0 1 0 4.071793,9.1440643 c 0.6023131,0.756322 1.5734911,1.2253837 2.6172706,1.2904427 0.743687,0.04636 1.5413069,-0.111394 2.1442698,-0.6040367 0.3020682,-0.2468 0.538267,-0.5705059 0.6622009,-0.9335119 0.1246891,-0.3652215 0.141762,-0.7476585 0,-1.1257052 C 9.2919377,7.2283107 8.832131,6.8345565 8.3603326,6.5906355 7.8984669,6.3518496 7.435665,6.231184 7.0359308,6.1238797 6.6375203,6.0169309 6.2836794,5.9377348 6.0268626,5.794405 5.899345,5.7232364 5.7919624,5.63359 5.7115288,5.547299 5.632125,5.4621128 5.5798069,5.3609416 5.5538619,5.2727368 5.5203864,5.15893 5.53436,5.0123438 5.5853954,4.8883496 5.6372364,4.7623959 5.7454443,4.649431 5.8691958,4.5588749 6.1171823,4.377409 6.5021621,4.2909872 6.878264,4.3392251 7.3219622,4.396133 7.7573395,4.6162046 8.044999,4.943262 A 0.6969519,0.60683846 0 1 0 9.1486672,4.201944 C 8.6401389,3.6237677 7.8883546,3.2364378 7.0674642,3.1311512 z"
     id="path24" />
</svg>
