<?xml version="1.0" encoding="UTF-8" standalone="no"?>
<svg
   xmlns:dc="http://purl.org/dc/elements/1.1/"
   xmlns:cc="http://creativecommons.org/ns#"
   xmlns:rdf="http://www.w3.org/1999/02/22-rdf-syntax-ns#"
   xmlns:svg="http://www.w3.org/2000/svg"
   xmlns="http://www.w3.org/2000/svg"
   xmlns:xlink="http://www.w3.org/1999/xlink"
   xmlns:sodipodi="http://sodipodi.sourceforge.net/DTD/sodipodi-0.dtd"
   xmlns:inkscape="http://www.inkscape.org/namespaces/inkscape"
   width="48"
   viewBox="0 0 13.546667 13.546667"
   height="48"
   id="svg2"
   version="1.1"
   inkscape:version="0.48.4 r9939"
   sodipodi:docname="preferences-system-search.svg">
  <metadata
     id="metadata62">
    <rdf:RDF>
      <cc:Work
         rdf:about="">
        <dc:format>image/svg+xml</dc:format>
        <dc:type
           rdf:resource="http://purl.org/dc/dcmitype/StillImage" />
        <dc:title></dc:title>
      </cc:Work>
    </rdf:RDF>
  </metadata>
  <sodipodi:namedview
     pagecolor="#ffffff"
     bordercolor="#666666"
     borderopacity="1"
     objecttolerance="10"
     gridtolerance="10"
     guidetolerance="10"
     inkscape:pageopacity="0"
     inkscape:pageshadow="2"
     inkscape:window-width="1366"
     inkscape:window-height="716"
     id="namedview60"
     showgrid="false"
     inkscape:zoom="3.4766082"
     inkscape:cx="-35.706692"
     inkscape:cy="23.329442"
     inkscape:window-x="0"
     inkscape:window-y="28"
     inkscape:window-maximized="1"
     inkscape:current-layer="g38"
     showguides="true"
     inkscape:guide-bbox="true" />
  <defs
     id="defs4">
    <linearGradient
       id="linearGradient4080">
      <stop
         style="stop-color:#ffffff;stop-opacity:1;"
         offset="0"
         id="stop4082" />
      <stop
         style="stop-color:#ffeb52;stop-opacity:1;"
         offset="1"
         id="stop4084" />
    </linearGradient>
    <clipPath
       clipPathUnits="userSpaceOnUse"
       id="clipPath6">
      <rect
         width="20"
         x="1"
         y="1"
         rx="2"
         height="20"
         style="fill:#fff;fill-rule:evenodd"
         id="rect8" />
    </clipPath>
    <clipPath
       clipPathUnits="userSpaceOnUse"
       id="clipPath10">
      <rect
         width="84"
         x="6"
         y="6"
         rx="6"
         height="84"
         style="fill:#fff"
         id="rect12" />
    </clipPath>
    <clipPath
       clipPathUnits="userSpaceOnUse"
       id="clipPath14">
      <path
         d="M 54.1,12.5 12.9,54.7 C -2.7,70.3 23,69 32.3,74.9 36.6,77.7 18.5,81.3 22.2,85 c 3.6,3.7 21.7,7.1 25.3,10.7 3.6,3.7 -7.3,7.6 -3.7,11.3 3.5,3.7 11.9,0.2 13.4,8.6 1.1,6.2 15.4,3.1 21.8,-2.2 4,-3.4 -6.9,-3.4 -3.3,-7.1 9,-9.1 17,-4.1 20.3,-12.5 1.8,-4.5 -13.6,-7.7 -9.5,-10.6 9.8,-6.9 45.8,-10.4 29.2,-27 L 73,12.5 c -5.3,-5 -14,-5 -18.9,0 z m -9.9,64.7 c 0.9,0 30.8,4 19.3,7.1 -4.4,1.2 -24.6,-7.1 -19.3,-7.1 z m 57.2,16.6 c 0,2.1 16.3,3.3 15.4,-0.5 -1.3,-6.4 -13.6,-5.9 -15.4,0.5 z m -69.5,11.1 c 3.7,3.2 9.3,-0.7 11.1,-5.2 -3.6,-4.7 -16.9,0.3 -11.1,5.2 z m 67.5,-6.7 c -4.6,4.2 0.8,8.6 5.3,5.7 1.2,-0.8 -0.1,-4.7 -5.3,-5.7 z"
         id="path16" />
    </clipPath>
    <clipPath
       clipPathUnits="userSpaceOnUse"
       id="clipPath18">
      <rect
         width="96"
         x="-100"
         y="-0"
         height="96"
         style="fill:#fff"
         id="rect20" />
    </clipPath>
    <clipPath
       clipPathUnits="userSpaceOnUse"
       id="clipPath22">
      <path
         d="M 95.311,352.545 L 476.403,352.545 L 476.403,71.4229 L 95.311,71.4229 L 95.311,352.545 z"
         id="path24" />
    </clipPath>
    <clipPath
       clipPathUnits="userSpaceOnUse"
       id="clipPath26">
      <path
         d="M 93.311,354.545 L 478.511,354.545 L 478.511,69.1846 L 93.311,69.1846 L 93.311,354.545 z"
         id="path28" />
    </clipPath>
    <clipPath
       clipPathUnits="userSpaceOnUse"
       id="clipPath30">
      <path
         d="M 93.311,69.185 L 478.511,69.185 L 478.511,354.545 L 93.311,354.545 L 93.311,69.185 z"
         id="path32" />
    </clipPath>
    <clipPath
       clipPathUnits="userSpaceOnUse"
       id="clipPath34">
      <path
         d="M 92.311,355.545 L 479.511,355.545 L 479.511,68.1846 L 92.311,68.1846 L 92.311,355.545 z"
         id="path36" />
    </clipPath>
    <clipPath
       id="clipPath4104"
       clipPathUnits="userSpaceOnUse">
      <path
         inkscape:connector-curvature="0"
         style="opacity:0.2;color:#bebebe"
         d="m 328,-238 c -7.73199,0 -14,-6.26801 -14,-14 0,-7.73199 6.26801,-14 14,-14 7.73199,0 14,6.26801 14,14 0,7.73199 -6.26801,14 -14,14 z m 0,-9 c 2.7552,0 4.99121,-2.21357 5,-4.96875 L 333,-252 c 0,-2.76142 -2.23858,-5 -5,-5 -2.76142,0 -5,2.23858 -5,5 0,2.76142 2.23858,5 5,5 z"
         id="path7" />
    </clipPath>
    <clipPath
       id="clipPath4114"
       clipPathUnits="userSpaceOnUse">
      <path
         inkscape:connector-curvature="0"
         style="opacity:0.2;color:#bebebe"
         d="m 328,242 c -7.73199,0 -14,6.26801 -14,14 0,7.73199 6.26801,14 14,14 7.73199,0 14,-6.26801 14,-14 0,-7.73199 -6.26801,-14 -14,-14 z m 0,9 c 2.7552,0 4.99121,2.21357 5,4.96875 L 333,256 c 0,2.76142 -2.23858,5 -5,5 -2.76142,0 -5,-2.23858 -5,-5 0,-2.76142 2.23858,-5 5,-5 z"
         id="path10" />
    </clipPath>
    <clipPath
       id="clipPath4098"
       clipPathUnits="userSpaceOnUse">
      <path
         inkscape:connector-curvature="0"
         style="opacity:0.2;color:#bebebe"
         d="m 328,242 c -7.73199,0 -14,6.26801 -14,14 0,7.73199 6.26801,14 14,14 7.73199,0 14,-6.26801 14,-14 0,-7.73199 -6.26801,-14 -14,-14 z m 0,9 c 2.7552,0 4.99121,2.21357 5,4.96875 L 333,256 c 0,2.76142 -2.23858,5 -5,5 -2.76142,0 -5,-2.23858 -5,-5 0,-2.76142 2.23858,-5 5,-5 z"
         id="path13" />
    </clipPath>
    <linearGradient
       inkscape:collect="always"
       xlink:href="#linearGradient4080"
       id="linearGradient4086"
       x1="1.8842194"
       y1="6.7733376"
       x2="7.9887713"
       y2="6.7733376"
       gradientUnits="userSpaceOnUse" />
  </defs>
  <g
     style="fill-rule:evenodd"
     id="g38">
    <rect
       width="11.746"
       x=".9"
       y=".901"
       rx="5.873"
       height="11.746"
       style="fill:#e6e6e6;stroke-width:0.02822222000000000;stroke-miterlimit:4;stroke-dasharray:none;stroke:none;stroke-opacity:1;fill-opacity:1"
       id="rect42" />
    <rect
       y="2.6537573"
       x="2.9102829"
       height="9.5250006"
       width="9.5250006"
       id="rect3274"
       style="fill:none;stroke:none" />
    <rect
       y="2.6537573"
       x="2.9102829"
       height="6.0324998"
       width="6.0324998"
       id="rect3276"
       style="fill:none;stroke:none" />
    <path
       inkscape:connector-curvature="0"
       style="fill:#4d4d4d;fill-opacity:1;fill-rule:evenodd;stroke:none"
       d="m 5.9252931,2.653753 c -0.789708,4.65e-5 -1.5745905,0.325293 -2.1325845,0.8836665 -0.557994,0.5583735 -0.882426,1.3429935 -0.882426,2.132583 0,0.7895895 0.324432,1.5742095 0.882426,2.1325845 0.557994,0.5583735 1.3428765,0.88362 2.1325845,0.883665 0.7897065,4.8e-5 1.574496,-0.3252885 2.1332028,-0.883665 0.558706,-0.558378 0.884286,-1.342908 0.884286,-2.1325845 0,-0.7896765 -0.32558,-1.574205 -0.884286,-2.132583 C 7.4997891,2.9790415 6.7149996,2.653705 5.9252931,2.653753 z m 6.345e-4,1.2700005 c 0.9143835,-5.4e-5 1.746855,0.8318865 1.746855,1.746249 0,0.9143625 -0.832473,1.7463045 -1.74687,1.7462505 -0.914397,-5.4e-5 -1.7456295,-0.83199 -1.7456295,-1.7462505 0,-0.9142605 0.8312325,-1.746195 1.7456295,-1.746249 z"
       id="path3296" />
    <path
       transform="matrix(0.31750001,0,0,0.31750001,-140.19151,-145.28018)"
       d="m 462.21428,482.93362 a 2.0013857,2.0000615 0 1 1 -4.00278,0 2.0013857,2.0000615 0 1 1 4.00278,0 z"
       sodipodi:ry="2.0000615"
       sodipodi:rx="2.0013857"
       sodipodi:cy="482.93362"
       sodipodi:cx="460.21289"
       id="path3298"
       style="fill:none;stroke:none"
       sodipodi:type="arc" />
    <rect
       style="fill:#4d4d4d;fill-opacity:1;fill-rule:evenodd;stroke:none"
       id="rect3302"
       width="1.2700001"
       height="3.6693478"
       x="-0.64734054"
       y="10.969384"
       transform="matrix(0.70710678,-0.70710678,0.70710678,0.70710678,0,0)" />
    <path
       inkscape:connector-curvature="0"
       style="fill:#272c2e;fill-opacity:1;fill-rule:evenodd;stroke:none"
       d="m 5.5512649,4.4533385 c -0.234268,0.148735 0.08108,0.936261 0.432486,0.713157 0.351402,-0.223104 -0.198218,-0.861894 -0.432486,-0.713157 z"
       id="path2116"
       sodipodi:nodetypes="css" />
    <path
       inkscape:connector-curvature="0"
       style="fill:#272c2e;fill-opacity:1;fill-rule:evenodd;stroke:none"
       d="m 6.8924999,5.2698005 c 0.103173,-0.06782 -0.04575,-0.629115 -0.340912,-0.599885 -0.295164,0.02923 0.03139,0.803348 0.340912,0.599885 z"
       id="path2118"
       sodipodi:nodetypes="css" />
    <path
       inkscape:connector-curvature="0"
       style="fill:#272c2e;fill-opacity:1;fill-rule:evenodd;stroke:none"
       d="m 4.6417729,5.1177535 c 0.23051,-0.157034 0.986327,0.335955 0.640563,0.571505 -0.345764,0.23555 -0.871073,-0.414472 -0.640563,-0.571505 z"
       id="path3032"
       sodipodi:nodetypes="css" />
    <path
       inkscape:connector-curvature="0"
       style="fill:#272c2e;fill-opacity:1;fill-rule:evenodd;stroke:none"
       d="m 5.0632759,6.5876685 c -0.105116,0.06536 -0.685383,-0.226398 -0.567659,-0.462728 0.117723,-0.236328 0.883005,0.266662 0.567659,0.462728 z"
       id="path3034"
       sodipodi:nodetypes="css" />
    <path
       inkscape:connector-curvature="0"
       style="fill:#272c2e;fill-opacity:1;fill-rule:evenodd;stroke:none"
       d="m 5.5043749,6.8003805 c 0.45978,0.488532 1.774456,-0.455723 1.434192,-1.030097 -0.07984,-0.134767 -0.17462,-0.0792 -0.461265,-0.12357 -0.312615,-0.04839 -0.416121,-0.19913 -0.626017,0.133574 -0.387684,0.0965 -0.284178,0.247244 -0.330112,0.553157 -0.0437,0.291065 -0.124675,0.352309 -0.0168,0.466934 z"
       id="path2097"
       sodipodi:nodetypes="csscss" />
  </g>
</svg>
