<?xml version="1.0" encoding="UTF-8" standalone="no"?>
<svg
   xmlns:dc="http://purl.org/dc/elements/1.1/"
   xmlns:cc="http://creativecommons.org/ns#"
   xmlns:rdf="http://www.w3.org/1999/02/22-rdf-syntax-ns#"
   xmlns:svg="http://www.w3.org/2000/svg"
   xmlns="http://www.w3.org/2000/svg"
   xmlns:xlink="http://www.w3.org/1999/xlink"
   xmlns:sodipodi="http://sodipodi.sourceforge.net/DTD/sodipodi-0.dtd"
   xmlns:inkscape="http://www.inkscape.org/namespaces/inkscape"
   width="48"
   viewBox="0 0 13.546667 13.546667"
   height="48"
   id="svg2"
   version="1.1"
   inkscape:version="0.48.4 r9939"
   sodipodi:docname="virtualbox.svg">
  <metadata
     id="metadata62">
    <rdf:RDF>
      <cc:Work
         rdf:about="">
        <dc:format>image/svg+xml</dc:format>
        <dc:type
           rdf:resource="http://purl.org/dc/dcmitype/StillImage" />
        <dc:title></dc:title>
      </cc:Work>
    </rdf:RDF>
  </metadata>
  <sodipodi:namedview
     pagecolor="#ffffff"
     bordercolor="#666666"
     borderopacity="1"
     objecttolerance="10"
     gridtolerance="10"
     guidetolerance="10"
     inkscape:pageopacity="0"
     inkscape:pageshadow="2"
     inkscape:window-width="1366"
     inkscape:window-height="716"
     id="namedview60"
     showgrid="false"
     inkscape:zoom="11.313708"
     inkscape:cx="23.8705"
     inkscape:cy="32.385326"
     inkscape:window-x="0"
     inkscape:window-y="28"
     inkscape:window-maximized="1"
     inkscape:current-layer="g38"
     showguides="true"
     inkscape:guide-bbox="true" />
  <defs
     id="defs4">
    <linearGradient
       id="linearGradient3922">
      <stop
         style="stop-color:#004455;stop-opacity:1;"
         offset="0"
         id="stop3924" />
      <stop
         style="stop-color:#005b72;stop-opacity:1;"
         offset="1"
         id="stop3926" />
    </linearGradient>
    <clipPath
       clipPathUnits="userSpaceOnUse"
       id="clipPath6">
      <rect
         width="20"
         x="1"
         y="1"
         rx="2"
         height="20"
         style="fill:#fff;fill-rule:evenodd"
         id="rect8" />
    </clipPath>
    <clipPath
       clipPathUnits="userSpaceOnUse"
       id="clipPath10">
      <rect
         width="84"
         x="6"
         y="6"
         rx="6"
         height="84"
         style="fill:#fff"
         id="rect12" />
    </clipPath>
    <clipPath
       clipPathUnits="userSpaceOnUse"
       id="clipPath14">
      <path
         d="M 54.1,12.5 12.9,54.7 C -2.7,70.3 23,69 32.3,74.9 36.6,77.7 18.5,81.3 22.2,85 c 3.6,3.7 21.7,7.1 25.3,10.7 3.6,3.7 -7.3,7.6 -3.7,11.3 3.5,3.7 11.9,0.2 13.4,8.6 1.1,6.2 15.4,3.1 21.8,-2.2 4,-3.4 -6.9,-3.4 -3.3,-7.1 9,-9.1 17,-4.1 20.3,-12.5 1.8,-4.5 -13.6,-7.7 -9.5,-10.6 9.8,-6.9 45.8,-10.4 29.2,-27 L 73,12.5 c -5.3,-5 -14,-5 -18.9,0 z m -9.9,64.7 c 0.9,0 30.8,4 19.3,7.1 -4.4,1.2 -24.6,-7.1 -19.3,-7.1 z m 57.2,16.6 c 0,2.1 16.3,3.3 15.4,-0.5 -1.3,-6.4 -13.6,-5.9 -15.4,0.5 z m -69.5,11.1 c 3.7,3.2 9.3,-0.7 11.1,-5.2 -3.6,-4.7 -16.9,0.3 -11.1,5.2 z m 67.5,-6.7 c -4.6,4.2 0.8,8.6 5.3,5.7 1.2,-0.8 -0.1,-4.7 -5.3,-5.7 z"
         id="path16" />
    </clipPath>
    <clipPath
       clipPathUnits="userSpaceOnUse"
       id="clipPath18">
      <rect
         width="96"
         x="-100"
         y="-0"
         height="96"
         style="fill:#fff"
         id="rect20" />
    </clipPath>
    <clipPath
       clipPathUnits="userSpaceOnUse"
       id="clipPath22">
      <path
         d="M 95.311,352.545 L 476.403,352.545 L 476.403,71.4229 L 95.311,71.4229 L 95.311,352.545 z"
         id="path24" />
    </clipPath>
    <clipPath
       clipPathUnits="userSpaceOnUse"
       id="clipPath26">
      <path
         d="M 93.311,354.545 L 478.511,354.545 L 478.511,69.1846 L 93.311,69.1846 L 93.311,354.545 z"
         id="path28" />
    </clipPath>
    <clipPath
       clipPathUnits="userSpaceOnUse"
       id="clipPath30">
      <path
         d="M 93.311,69.185 L 478.511,69.185 L 478.511,354.545 L 93.311,354.545 L 93.311,69.185 z"
         id="path32" />
    </clipPath>
    <clipPath
       clipPathUnits="userSpaceOnUse"
       id="clipPath34">
      <path
         d="M 92.311,355.545 L 479.511,355.545 L 479.511,68.1846 L 92.311,68.1846 L 92.311,355.545 z"
         id="path36" />
    </clipPath>
    <linearGradient
       inkscape:collect="always"
       xlink:href="#linearGradient2251"
       id="linearGradient2258"
       x1="21.5"
       y1="43.467159"
       x2="21.5"
       y2="47.532516"
       gradientUnits="userSpaceOnUse" />
    <linearGradient
       inkscape:collect="always"
       id="linearGradient2251">
      <stop
         style="stop-color:#729fcf;stop-opacity:1;"
         offset="0"
         id="stop2253" />
      <stop
         style="stop-color:#729fcf;stop-opacity:0;"
         offset="1"
         id="stop2255" />
    </linearGradient>
    <linearGradient
       gradientTransform="matrix(0.13,0,0,0.14103,2.41492,-32.46617)"
       xlink:href="#linearGradient3896"
       id="linearGradient3006"
       x1="5.3039999"
       gradientUnits="userSpaceOnUse"
       x2="61.748001" />
    <linearGradient
       id="linearGradient3896">
      <stop
         offset="0"
         style="stop-color:#5dac12"
         id="stop9" />
      <stop
         offset="1"
         style="stop-color:#76c925"
         id="stop11" />
    </linearGradient>
    <linearGradient
       inkscape:collect="always"
       xlink:href="#linearGradient6963-199-896"
       id="linearGradient6457"
       gradientUnits="userSpaceOnUse"
       gradientTransform="matrix(4.895429,-1.3086414,1.1623533,4.3761806,-614.63541,-97.40367)"
       x1="15.194299"
       y1="13.018784"
       x2="14.486301"
       y2="26.07235" />
    <linearGradient
       inkscape:collect="always"
       id="linearGradient6963-199-896">
      <stop
         offset="0"
         id="stop7684"
         style="stop-color:#a2c6ff;stop-opacity:1" />
      <stop
         offset="1"
         id="stop7686"
         style="stop-color:#9f7e42;stop-opacity:1" />
    </linearGradient>
    <linearGradient
       id="linearGradient2911-613-519">
      <stop
         offset="0"
         id="stop7648"
         style="stop-color:#ffffe0;stop-opacity:1;" />
      <stop
         offset="1"
         id="stop7650"
         style="stop-color:#ffe588;stop-opacity:0;" />
    </linearGradient>
    <linearGradient
       id="linearGradient2911-198-956">
      <stop
         offset="0"
         id="stop7654"
         style="stop-color:#ffffe0;stop-opacity:1;" />
      <stop
         offset="1"
         id="stop7656"
         style="stop-color:#ffe588;stop-opacity:0;" />
    </linearGradient>
    <linearGradient
       id="linearGradient2911-977-39">
      <stop
         offset="0"
         id="stop7660"
         style="stop-color:#ffffe0;stop-opacity:1;" />
      <stop
         offset="1"
         id="stop7662"
         style="stop-color:#ffe588;stop-opacity:0;" />
    </linearGradient>
    <linearGradient
       inkscape:collect="always"
       xlink:href="#linearGradient2782-839-396"
       id="linearGradient7090"
       gradientUnits="userSpaceOnUse"
       gradientTransform="matrix(4.9036558,0,0,4.3816704,-363.57105,-134.91588)"
       x1="20"
       y1="13.577349"
       x2="17.269999"
       y2="32.698772" />
    <linearGradient
       inkscape:collect="always"
       id="linearGradient2782-839-396">
      <stop
         offset="0"
         id="stop7582"
         style="stop-color:#8dc5ff;stop-opacity:1" />
      <stop
         offset="1"
         id="stop7584"
         style="stop-color:#f2c600;stop-opacity:1" />
    </linearGradient>
    <linearGradient
       inkscape:collect="always"
       xlink:href="#linearGradient6963-199-896-0"
       id="linearGradient6457-9"
       gradientUnits="userSpaceOnUse"
       gradientTransform="matrix(4.895429,-1.3086414,1.1623533,4.3761806,-614.63541,-97.40367)"
       x1="15.194299"
       y1="13.018784"
       x2="14.486301"
       y2="26.07235" />
    <linearGradient
       inkscape:collect="always"
       id="linearGradient6963-199-896-0">
      <stop
         offset="0"
         id="stop7684-1"
         style="stop-color:#a2c6ff;stop-opacity:1" />
      <stop
         offset="1"
         id="stop7686-7"
         style="stop-color:#9f7e42;stop-opacity:1" />
    </linearGradient>
  </defs>
  <g
     style="fill-rule:evenodd"
     id="g38">
    <rect
       width="11.746"
       x=".9"
       y=".901"
       rx="5.873"
       height="11.746"
       style="fill:#61b9e9;stroke-width:0.25400001;stroke-miterlimit:4;stroke-dasharray:none;stroke:#ffffff;stroke-opacity:1;fill-opacity:1"
       id="rect42" />
    <g
       transform="matrix(0.11531627,0,0,0.11531627,3.9211615,3.8898451)"
       id="layer1" />
    <g
       id="g3389"
       style="fill:#f9f9f9;stroke:#f9f9f9;stroke-linejoin:round"
       transform="matrix(0.93639221,0.01779363,-0.01779363,0.93639221,0.58795522,0.39238226)">
      <g
         id="g3393"
         style="fill-opacity:0;stroke-width:0.58899999" />
    </g>
    <path
       style="font-style:normal;font-variant:normal;font-weight:normal;font-stretch:normal;text-indent:0;text-align:start;text-decoration:none;line-height:normal;letter-spacing:normal;word-spacing:normal;text-transform:none;direction:ltr;block-progression:tb;writing-mode:lr-tb;text-anchor:start;color:#000000;fill:#ffffff;fill-opacity:1;stroke:none;stroke-width:1;marker:none;visibility:visible;display:inline;overflow:visible;enable-background:accumulate;font-family:Bitstream Vera Sans;-inkscape-font-specification:Bitstream Vera Sans"
       d="m 9.0189308,2.8591062 c -0.028305,0 -0.050824,0.00629 -0.077854,0.00867 -0.1621411,0.017748 -0.3112218,0.115583 -0.3559556,0.2459832 l -1.201334,3.1879766 -0.3003329,0 -0.1223473,0 -0.3003344,0 -0.1112344,0 -0.6229143,0 c -0.1722095,0 -0.3354987,0.102714 -0.3893215,0.2368178 L 4.6474269,8.9067826 3.3793539,5.208754 C 3.2896771,4.9709767 2.8298592,4.9016497 2.6452122,5.09941 l -1.0789745,1.2023226 -0.3337072,0 -0.26696167,0 -0.033339,0 c -0.0160846,0 -0.022226,0.01343 -0.022226,0.02686 l 0,0.6375758 c 0,0.01207 0.006475,0.017748 0.022226,0.017748 l 0.033339,0 0.26696167,0 0.533929,0 c 0.133147,0 0.2588107,-0.055369 0.3336981,-0.145622 L 2.8231851,6.0275209 4.2358576,10.190212 c 0.038645,0.110976 0.1536602,0.205057 0.2892157,0.236818 0.2112111,0.05192 0.463156,-0.06304 0.5227985,-0.236818 l 1.1902089,-3.2063024 0.3114582,0 0.1112343,0 0.3003343,0 0.1223473,0 0.6117907,0 c 0.172209,0 0.3466225,-0.093602 0.4004432,-0.2276079 L 8.9744414,4.3971407 10.253639,8.09512 c 0.08967,0.2379218 0.549507,0.3072512 0.734152,0.109395 l 1.078972,-1.2203606 0.333703,0 0.244713,0 0.02219,0 c 0.01616,0 0.03338,-0.00629 0.03338,-0.017748 l 0,-0.6376727 c 0,-0.01292 -0.01721,-0.02686 -0.03338,-0.02686 l -0.02219,0 -0.244713,0 -0.545047,0 c -0.13312,0 -0.247686,0.064668 -0.322586,0.1547843 L 10.79869,7.2673363 9.3971356,3.1139039 c -0.038645,-0.111061 -0.15366,-0.2052478 -0.2892089,-0.2368661 -0.026383,-0.0068 -0.060703,-0.01683 -0.088987,-0.017748 z"
       id="folderGlyph"
       inkscape:connector-curvature="0" />
  </g>
</svg>
