<?xml version="1.0" encoding="UTF-8" standalone="no"?>
<svg
   xmlns:dc="http://purl.org/dc/elements/1.1/"
   xmlns:cc="http://creativecommons.org/ns#"
   xmlns:rdf="http://www.w3.org/1999/02/22-rdf-syntax-ns#"
   xmlns:svg="http://www.w3.org/2000/svg"
   xmlns="http://www.w3.org/2000/svg"
   xmlns:xlink="http://www.w3.org/1999/xlink"
   xmlns:sodipodi="http://sodipodi.sourceforge.net/DTD/sodipodi-0.dtd"
   xmlns:inkscape="http://www.inkscape.org/namespaces/inkscape"
   width="48"
   viewBox="0 0 13.546667 13.546667"
   height="48"
   id="svg2"
   version="1.1"
   inkscape:version="0.48.4 r9939"
   sodipodi:docname="wine-winecfg.svg">
  <metadata
     id="metadata62">
    <rdf:RDF>
      <cc:Work
         rdf:about="">
        <dc:format>image/svg+xml</dc:format>
        <dc:type
           rdf:resource="http://purl.org/dc/dcmitype/StillImage" />
        <dc:title></dc:title>
      </cc:Work>
    </rdf:RDF>
  </metadata>
  <sodipodi:namedview
     pagecolor="#ffffff"
     bordercolor="#666666"
     borderopacity="1"
     objecttolerance="10"
     gridtolerance="10"
     guidetolerance="10"
     inkscape:pageopacity="0"
     inkscape:pageshadow="2"
     inkscape:window-width="1366"
     inkscape:window-height="716"
     id="namedview60"
     showgrid="false"
     inkscape:zoom="11.313709"
     inkscape:cx="50.887425"
     inkscape:cy="12.742237"
     inkscape:window-x="0"
     inkscape:window-y="28"
     inkscape:window-maximized="1"
     inkscape:current-layer="g38"
     showguides="true"
     inkscape:guide-bbox="true" />
  <defs
     id="defs4">
    <linearGradient
       id="linearGradient3922">
      <stop
         style="stop-color:#004455;stop-opacity:1;"
         offset="0"
         id="stop3924" />
      <stop
         style="stop-color:#005b72;stop-opacity:1;"
         offset="1"
         id="stop3926" />
    </linearGradient>
    <clipPath
       clipPathUnits="userSpaceOnUse"
       id="clipPath6">
      <rect
         width="20"
         x="1"
         y="1"
         rx="2"
         height="20"
         style="fill:#fff;fill-rule:evenodd"
         id="rect8" />
    </clipPath>
    <clipPath
       clipPathUnits="userSpaceOnUse"
       id="clipPath10">
      <rect
         width="84"
         x="6"
         y="6"
         rx="6"
         height="84"
         style="fill:#fff"
         id="rect12" />
    </clipPath>
    <clipPath
       clipPathUnits="userSpaceOnUse"
       id="clipPath14">
      <path
         d="M 54.1,12.5 12.9,54.7 C -2.7,70.3 23,69 32.3,74.9 36.6,77.7 18.5,81.3 22.2,85 c 3.6,3.7 21.7,7.1 25.3,10.7 3.6,3.7 -7.3,7.6 -3.7,11.3 3.5,3.7 11.9,0.2 13.4,8.6 1.1,6.2 15.4,3.1 21.8,-2.2 4,-3.4 -6.9,-3.4 -3.3,-7.1 9,-9.1 17,-4.1 20.3,-12.5 1.8,-4.5 -13.6,-7.7 -9.5,-10.6 9.8,-6.9 45.8,-10.4 29.2,-27 L 73,12.5 c -5.3,-5 -14,-5 -18.9,0 z m -9.9,64.7 c 0.9,0 30.8,4 19.3,7.1 -4.4,1.2 -24.6,-7.1 -19.3,-7.1 z m 57.2,16.6 c 0,2.1 16.3,3.3 15.4,-0.5 -1.3,-6.4 -13.6,-5.9 -15.4,0.5 z m -69.5,11.1 c 3.7,3.2 9.3,-0.7 11.1,-5.2 -3.6,-4.7 -16.9,0.3 -11.1,5.2 z m 67.5,-6.7 c -4.6,4.2 0.8,8.6 5.3,5.7 1.2,-0.8 -0.1,-4.7 -5.3,-5.7 z"
         id="path16" />
    </clipPath>
    <clipPath
       clipPathUnits="userSpaceOnUse"
       id="clipPath18">
      <rect
         width="96"
         x="-100"
         y="-0"
         height="96"
         style="fill:#fff"
         id="rect20" />
    </clipPath>
    <clipPath
       clipPathUnits="userSpaceOnUse"
       id="clipPath22">
      <path
         d="M 95.311,352.545 L 476.403,352.545 L 476.403,71.4229 L 95.311,71.4229 L 95.311,352.545 z"
         id="path24" />
    </clipPath>
    <clipPath
       clipPathUnits="userSpaceOnUse"
       id="clipPath26">
      <path
         d="M 93.311,354.545 L 478.511,354.545 L 478.511,69.1846 L 93.311,69.1846 L 93.311,354.545 z"
         id="path28" />
    </clipPath>
    <clipPath
       clipPathUnits="userSpaceOnUse"
       id="clipPath30">
      <path
         d="M 93.311,69.185 L 478.511,69.185 L 478.511,354.545 L 93.311,354.545 L 93.311,69.185 z"
         id="path32" />
    </clipPath>
    <clipPath
       clipPathUnits="userSpaceOnUse"
       id="clipPath34">
      <path
         d="M 92.311,355.545 L 479.511,355.545 L 479.511,68.1846 L 92.311,68.1846 L 92.311,355.545 z"
         id="path36" />
    </clipPath>
    <linearGradient
       inkscape:collect="always"
       xlink:href="#linearGradient2251"
       id="linearGradient2258"
       x1="21.5"
       y1="43.467159"
       x2="21.5"
       y2="47.532516"
       gradientUnits="userSpaceOnUse" />
    <linearGradient
       inkscape:collect="always"
       id="linearGradient2251">
      <stop
         style="stop-color:#729fcf;stop-opacity:1;"
         offset="0"
         id="stop2253" />
      <stop
         style="stop-color:#729fcf;stop-opacity:0;"
         offset="1"
         id="stop2255" />
    </linearGradient>
    <linearGradient
       gradientTransform="matrix(0.13,0,0,0.14103,2.41492,-32.46617)"
       xlink:href="#linearGradient3896"
       id="linearGradient3006"
       x1="5.3039999"
       gradientUnits="userSpaceOnUse"
       x2="61.748001" />
    <linearGradient
       id="linearGradient3896">
      <stop
         offset="0"
         style="stop-color:#5dac12"
         id="stop9" />
      <stop
         offset="1"
         style="stop-color:#76c925"
         id="stop11" />
    </linearGradient>
    <linearGradient
       inkscape:collect="always"
       xlink:href="#linearGradient6963-199-896"
       id="linearGradient6457"
       gradientUnits="userSpaceOnUse"
       gradientTransform="matrix(4.895429,-1.3086414,1.1623533,4.3761806,-614.63541,-97.40367)"
       x1="15.194299"
       y1="13.018784"
       x2="14.486301"
       y2="26.07235" />
    <linearGradient
       inkscape:collect="always"
       id="linearGradient6963-199-896">
      <stop
         offset="0"
         id="stop7684"
         style="stop-color:#a2c6ff;stop-opacity:1" />
      <stop
         offset="1"
         id="stop7686"
         style="stop-color:#9f7e42;stop-opacity:1" />
    </linearGradient>
    <linearGradient
       id="linearGradient2911-613-519">
      <stop
         offset="0"
         id="stop7648"
         style="stop-color:#ffffe0;stop-opacity:1;" />
      <stop
         offset="1"
         id="stop7650"
         style="stop-color:#ffe588;stop-opacity:0;" />
    </linearGradient>
    <linearGradient
       id="linearGradient2911-198-956">
      <stop
         offset="0"
         id="stop7654"
         style="stop-color:#ffffe0;stop-opacity:1;" />
      <stop
         offset="1"
         id="stop7656"
         style="stop-color:#ffe588;stop-opacity:0;" />
    </linearGradient>
    <linearGradient
       id="linearGradient2911-977-39">
      <stop
         offset="0"
         id="stop7660"
         style="stop-color:#ffffe0;stop-opacity:1;" />
      <stop
         offset="1"
         id="stop7662"
         style="stop-color:#ffe588;stop-opacity:0;" />
    </linearGradient>
    <linearGradient
       inkscape:collect="always"
       xlink:href="#linearGradient2782-839-396"
       id="linearGradient7090"
       gradientUnits="userSpaceOnUse"
       gradientTransform="matrix(4.9036558,0,0,4.3816704,-363.57105,-134.91588)"
       x1="20"
       y1="13.577349"
       x2="17.269999"
       y2="32.698772" />
    <linearGradient
       inkscape:collect="always"
       id="linearGradient2782-839-396">
      <stop
         offset="0"
         id="stop7582"
         style="stop-color:#8dc5ff;stop-opacity:1" />
      <stop
         offset="1"
         id="stop7584"
         style="stop-color:#f2c600;stop-opacity:1" />
    </linearGradient>
    <linearGradient
       inkscape:collect="always"
       xlink:href="#linearGradient6963-199-896-0"
       id="linearGradient6457-9"
       gradientUnits="userSpaceOnUse"
       gradientTransform="matrix(4.895429,-1.3086414,1.1623533,4.3761806,-614.63541,-97.40367)"
       x1="15.194299"
       y1="13.018784"
       x2="14.486301"
       y2="26.07235" />
    <linearGradient
       inkscape:collect="always"
       id="linearGradient6963-199-896-0">
      <stop
         offset="0"
         id="stop7684-1"
         style="stop-color:#a2c6ff;stop-opacity:1" />
      <stop
         offset="1"
         id="stop7686-7"
         style="stop-color:#9f7e42;stop-opacity:1" />
    </linearGradient>
    <filter
       color-interpolation-filters="sRGB"
       id="filter4151"
       height="1.5849116"
       y="-0.29245582"
       width="1.7616652"
       x="-0.38083261">
      <feGaussianBlur
         id="feGaussianBlur4153"
         stdDeviation="1.1246601"
         inkscape:collect="always" />
    </filter>
    <filter
       color-interpolation-filters="sRGB"
       id="filter4143"
       height="1.5933753"
       y="-0.29668766"
       width="1.747875"
       x="-0.37393752">
      <feGaussianBlur
         id="feGaussianBlur4145"
         stdDeviation="1.1424092"
         inkscape:collect="always" />
    </filter>
  </defs>
  <g
     style="fill-rule:evenodd"
     id="g38">
    <rect
       width="11.746"
       x=".9"
       y=".901"
       rx="5.873"
       height="11.746"
       style="fill:#333333;stroke-width:0.02822222000000000;stroke-miterlimit:4;stroke-dasharray:none;stroke:none;stroke-opacity:1;fill-opacity:1"
       id="rect42" />
    <g
       transform="matrix(0.11531627,0,0,0.11531627,3.9211615,3.8898451)"
       id="layer1"
       style="fill:#1a1a1a" />
    <g
       id="g3389"
       style="fill:#1a1a1a;stroke:#f9f9f9;stroke-linejoin:round"
       transform="matrix(0.93639221,0.01779363,-0.01779363,0.93639221,0.58795522,0.39238226)">
      <g
         id="g3393"
         style="fill-opacity:0;stroke-width:0.58899999000000003;fill:#1a1a1a" />
    </g>
    <rect
       y="3.6258397"
       x="4.0734043"
       height="8.4666672"
       width="8.4666672"
       id="rect3274"
       style="fill:none;stroke:none" />
    <g
       transform="matrix(0.02657405,0,0,0.02657405,-2.4673743,1.9767029)"
       id="g2188">
      <path
         d="m 298.5562,93.726289 -18.65977,98.523551 22.01853,72.02668 50.38135,-16.79379 30.60201,-32.84118 40.30509,-100.76272 -11.94225,-11.56905 -67.54834,22.01852 -45.15662,-30.602011 z"
         style="fill:#800000;fill-opacity:1"
         id="path2186"
         inkscape:connector-curvature="0" />
      <path
         d="m 341.25,12.8125 c -11.02203,-0.02539 -19.49745,1.777051 -23,5.65625 -5.55688,6.154435 -18.3467,52.050021 -34.3125,122.1875 -11.51895,50.47049 -3.52716,79.90391 4.34375,95.65625 10.06277,20.13898 17.90523,32.24808 2,72.4375 -11.51919,29.10677 -23.27205,34.67754 -34.1875,36.0625 -26.30578,-6.32575 -46.15728,-6.55239 -48.75,0.5625 -3.54667,9.73271 26.46865,29.46061 67,44.0625 40.53134,14.60188 76.32833,18.57646 79.875,8.84375 2.6012,-7.13815 -12.89899,-19.66187 -37.3125,-31.59375 -10.71743,-11.04279 -20.33097,-18.73413 -11.84375,-52.9375 16.60347,-66.91167 41.93037,-43.9146 71.78125,-85.5 25.32136,-35.27531 32.02618,-62.3403 46.6875,-103.6875 C 439.06536,80.753941 445.88577,60.473586 443.875,56.46875 430.3319,29.49505 374.31609,12.888669 341.25,12.8125 z M 343.53125,22 c 12.31878,0.108004 27.97868,2.796486 40.6875,7.34375 27.23671,9.745396 51.81736,23.366255 50.375,31.53125 -3.64538,20.635847 -11.60132,37.492501 -13.625,43.3125 -26.63519,-25.761649 -60.83865,51.11942 -115.6875,-12.5 0,10e-7 10.48814,-40.415171 17.71875,-63.46875 1.38151,-4.404692 9.66174,-6.314048 20.53125,-6.21875 z m -40.125,79.9375 c 55.49114,60.7197 94.23203,-15.160361 114.5625,11.1875 C 411.00639,135.99208 369.04606,274.44997 313.125,249.71875 266.80109,229.52626 293.62779,126.57117 303.40625,101.9375 z"
         style="fill:#ffffff;fill-opacity:1"
         id="path2175"
         inkscape:connector-curvature="0" />
    </g>
    <path
       inkscape:connector-curvature="0"
       style="fill:#ffffff"
       d="M 2.3563418,5.094503 2.1270358,5.780751 1.4391188,6.0095 2.1270358,6.238249 2.3563418,6.924497 2.5856468,6.238249 3.2735638,6.0095 2.5856468,5.780751 z"
       id="path20" />
    <path
       inkscape:connector-curvature="0"
       style="fill:#ffffff"
       d="m 10.934152,6.1594985 -0.343958,1.029372 -1.0318746,0.343125 1.0318746,0.343123 0.343958,1.0293728 0.343959,-1.0293728 1.031874,-0.343123 -1.031874,-0.343125 z"
       id="path22" />
    <path
       inkscape:connector-curvature="0"
       style="fill:#ffffff"
       d="m 5.2490297,2.2784059 -0.229305,0.686248 -0.687917,0.228749 0.687917,0.228749 0.229305,0.686248 0.229306,-0.686248 0.687917,-0.228749 -0.687917,-0.228749 z"
       id="path24-5" />
    <path
       inkscape:connector-curvature="0"
       style="fill:#ffffff;fill-rule:evenodd"
       d="m 8.4065171,8.2577806 -0.343958,1.029372 -1.031874,0.343125 1.031874,0.343123 0.343958,1.0293734 0.343959,-1.0293734 1.031874,-0.343123 -1.031874,-0.343125 z"
       id="path22-7" />
    <path
       inkscape:connector-curvature="0"
       style="fill:#ffffff;fill-rule:evenodd"
       d="M 9.7785009,4.7369921 9.6462099,5.1329042 9.2493352,5.2648752 9.6462099,5.3968455 9.7785009,5.7927581 9.9107929,5.3968455 10.307668,5.2648752 9.9107929,5.1329042 z"
       id="path22-7-6" />
  </g>
</svg>
