<?xml version="1.0" encoding="UTF-8" standalone="no"?>
<svg
   xmlns:dc="http://purl.org/dc/elements/1.1/"
   xmlns:cc="http://creativecommons.org/ns#"
   xmlns:rdf="http://www.w3.org/1999/02/22-rdf-syntax-ns#"
   xmlns:svg="http://www.w3.org/2000/svg"
   xmlns="http://www.w3.org/2000/svg"
   xmlns:xlink="http://www.w3.org/1999/xlink"
   xmlns:sodipodi="http://sodipodi.sourceforge.net/DTD/sodipodi-0.dtd"
   xmlns:inkscape="http://www.inkscape.org/namespaces/inkscape"
   width="48"
   viewBox="0 0 13.546667 13.546667"
   height="48"
   id="svg2"
   version="1.1"
   inkscape:version="0.48.4 r9939"
   sodipodi:docname="preferences-system.svg">
  <metadata
     id="metadata62">
    <rdf:RDF>
      <cc:Work
         rdf:about="">
        <dc:format>image/svg+xml</dc:format>
        <dc:type
           rdf:resource="http://purl.org/dc/dcmitype/StillImage" />
        <dc:title></dc:title>
      </cc:Work>
    </rdf:RDF>
  </metadata>
  <sodipodi:namedview
     pagecolor="#ffffff"
     bordercolor="#666666"
     borderopacity="1"
     objecttolerance="10"
     gridtolerance="10"
     guidetolerance="10"
     inkscape:pageopacity="0"
     inkscape:pageshadow="2"
     inkscape:window-width="1366"
     inkscape:window-height="716"
     id="namedview60"
     showgrid="false"
     inkscape:zoom="9.833333"
     inkscape:cx="38.851751"
     inkscape:cy="17.261623"
     inkscape:window-x="0"
     inkscape:window-y="28"
     inkscape:window-maximized="1"
     inkscape:current-layer="g38" />
  <defs
     id="defs4">
    <clipPath
       clipPathUnits="userSpaceOnUse"
       id="clipPath6">
      <rect
         width="20"
         x="1"
         y="1"
         rx="2"
         height="20"
         style="fill:#fff;fill-rule:evenodd"
         id="rect8" />
    </clipPath>
    <clipPath
       clipPathUnits="userSpaceOnUse"
       id="clipPath10">
      <rect
         width="84"
         x="6"
         y="6"
         rx="6"
         height="84"
         style="fill:#fff"
         id="rect12" />
    </clipPath>
    <clipPath
       clipPathUnits="userSpaceOnUse"
       id="clipPath14">
      <path
         d="M 54.1,12.5 12.9,54.7 C -2.7,70.3 23,69 32.3,74.9 36.6,77.7 18.5,81.3 22.2,85 c 3.6,3.7 21.7,7.1 25.3,10.7 3.6,3.7 -7.3,7.6 -3.7,11.3 3.5,3.7 11.9,0.2 13.4,8.6 1.1,6.2 15.4,3.1 21.8,-2.2 4,-3.4 -6.9,-3.4 -3.3,-7.1 9,-9.1 17,-4.1 20.3,-12.5 1.8,-4.5 -13.6,-7.7 -9.5,-10.6 9.8,-6.9 45.8,-10.4 29.2,-27 L 73,12.5 c -5.3,-5 -14,-5 -18.9,0 z m -9.9,64.7 c 0.9,0 30.8,4 19.3,7.1 -4.4,1.2 -24.6,-7.1 -19.3,-7.1 z m 57.2,16.6 c 0,2.1 16.3,3.3 15.4,-0.5 -1.3,-6.4 -13.6,-5.9 -15.4,0.5 z m -69.5,11.1 c 3.7,3.2 9.3,-0.7 11.1,-5.2 -3.6,-4.7 -16.9,0.3 -11.1,5.2 z m 67.5,-6.7 c -4.6,4.2 0.8,8.6 5.3,5.7 1.2,-0.8 -0.1,-4.7 -5.3,-5.7 z"
         id="path16" />
    </clipPath>
    <clipPath
       clipPathUnits="userSpaceOnUse"
       id="clipPath18">
      <rect
         width="96"
         x="-100"
         y="-0"
         height="96"
         style="fill:#fff"
         id="rect20" />
    </clipPath>
    <clipPath
       clipPathUnits="userSpaceOnUse"
       id="clipPath22">
      <path
         d="M 95.311,352.545 L 476.403,352.545 L 476.403,71.4229 L 95.311,71.4229 L 95.311,352.545 z"
         id="path24" />
    </clipPath>
    <clipPath
       clipPathUnits="userSpaceOnUse"
       id="clipPath26">
      <path
         d="M 93.311,354.545 L 478.511,354.545 L 478.511,69.1846 L 93.311,69.1846 L 93.311,354.545 z"
         id="path28" />
    </clipPath>
    <clipPath
       clipPathUnits="userSpaceOnUse"
       id="clipPath30">
      <path
         d="M 93.311,69.185 L 478.511,69.185 L 478.511,354.545 L 93.311,354.545 L 93.311,69.185 z"
         id="path32" />
    </clipPath>
    <clipPath
       clipPathUnits="userSpaceOnUse"
       id="clipPath34">
      <path
         d="M 92.311,355.545 L 479.511,355.545 L 479.511,68.1846 L 92.311,68.1846 L 92.311,355.545 z"
         id="path36" />
    </clipPath>
    <radialGradient
       cx="6.3499999"
       cy="28.450001"
       r="5.6209993"
       fx="6.3499999"
       fy="28.450001"
       id="radialGradient9880"
       xlink:href="#linearGradient9097"
       gradientUnits="userSpaceOnUse" />
    <linearGradient
       id="linearGradient9097">
      <stop
         style="stop-color:#2e3436;stop-opacity:1"
         offset="0"
         id="stop9099" />
      <stop
         style="stop-color:#2e3436;stop-opacity:0"
         offset="1"
         id="stop9101" />
    </linearGradient>
    <radialGradient
       cx="6.3499999"
       cy="28.450001"
       r="5.6209993"
       fx="6.3499999"
       fy="28.450001"
       id="radialGradient9882"
       xlink:href="#linearGradient9097"
       gradientUnits="userSpaceOnUse" />
    <linearGradient
       id="linearGradient4343">
      <stop
         style="stop-color:#2e3436;stop-opacity:1"
         offset="0"
         id="stop4345" />
      <stop
         style="stop-color:#2e3436;stop-opacity:0"
         offset="1"
         id="stop4347" />
    </linearGradient>
    <radialGradient
       cx="6.3499999"
       cy="28.450001"
       r="5.6209993"
       fx="6.3499999"
       fy="28.450001"
       id="radialGradient9884"
       xlink:href="#linearGradient9097"
       gradientUnits="userSpaceOnUse" />
    <linearGradient
       id="linearGradient4350">
      <stop
         style="stop-color:#2e3436;stop-opacity:1"
         offset="0"
         id="stop4352" />
      <stop
         style="stop-color:#2e3436;stop-opacity:0"
         offset="1"
         id="stop4354" />
    </linearGradient>
    <radialGradient
       cx="6.3499999"
       cy="28.450001"
       r="5.6209993"
       fx="6.3499999"
       fy="28.450001"
       id="radialGradient9886"
       xlink:href="#linearGradient9097"
       gradientUnits="userSpaceOnUse" />
    <linearGradient
       id="linearGradient4357">
      <stop
         style="stop-color:#2e3436;stop-opacity:1"
         offset="0"
         id="stop4359" />
      <stop
         style="stop-color:#2e3436;stop-opacity:0"
         offset="1"
         id="stop4361" />
    </linearGradient>
    <radialGradient
       cx="6.3499999"
       cy="28.450001"
       r="5.6209993"
       fx="6.3499999"
       fy="28.450001"
       id="radialGradient9888"
       xlink:href="#linearGradient9097"
       gradientUnits="userSpaceOnUse" />
    <linearGradient
       id="linearGradient4364">
      <stop
         style="stop-color:#2e3436;stop-opacity:1"
         offset="0"
         id="stop4366" />
      <stop
         style="stop-color:#2e3436;stop-opacity:0"
         offset="1"
         id="stop4368" />
    </linearGradient>
    <radialGradient
       cx="6.3499999"
       cy="28.450001"
       r="5.6209993"
       fx="6.3499999"
       fy="28.450001"
       id="radialGradient9890"
       xlink:href="#linearGradient9097"
       gradientUnits="userSpaceOnUse" />
    <linearGradient
       id="linearGradient4371">
      <stop
         style="stop-color:#2e3436;stop-opacity:1"
         offset="0"
         id="stop4373" />
      <stop
         style="stop-color:#2e3436;stop-opacity:0"
         offset="1"
         id="stop4375" />
    </linearGradient>
    <radialGradient
       cx="6.3499999"
       cy="28.450001"
       r="5.6209993"
       fx="6.3499999"
       fy="28.450001"
       id="radialGradient9892"
       xlink:href="#linearGradient9097"
       gradientUnits="userSpaceOnUse" />
    <linearGradient
       id="linearGradient4378">
      <stop
         style="stop-color:#2e3436;stop-opacity:1"
         offset="0"
         id="stop4380" />
      <stop
         style="stop-color:#2e3436;stop-opacity:0"
         offset="1"
         id="stop4382" />
    </linearGradient>
    <radialGradient
       cx="6.3499999"
       cy="28.450001"
       r="5.6209993"
       fx="6.3499999"
       fy="28.450001"
       id="radialGradient9894"
       xlink:href="#linearGradient9097"
       gradientUnits="userSpaceOnUse" />
    <linearGradient
       id="linearGradient4385">
      <stop
         style="stop-color:#2e3436;stop-opacity:1"
         offset="0"
         id="stop4387" />
      <stop
         style="stop-color:#2e3436;stop-opacity:0"
         offset="1"
         id="stop4389" />
    </linearGradient>
    <radialGradient
       cx="6.3499999"
       cy="28.450001"
       r="5.6209993"
       fx="6.3499999"
       fy="28.450001"
       id="radialGradient9896"
       xlink:href="#linearGradient9097"
       gradientUnits="userSpaceOnUse" />
    <linearGradient
       id="linearGradient4392">
      <stop
         style="stop-color:#2e3436;stop-opacity:1"
         offset="0"
         id="stop4394" />
      <stop
         style="stop-color:#2e3436;stop-opacity:0"
         offset="1"
         id="stop4396" />
    </linearGradient>
    <radialGradient
       cx="6.3499999"
       cy="28.450001"
       r="5.6209993"
       fx="6.3499999"
       fy="28.450001"
       id="radialGradient9898"
       xlink:href="#linearGradient9097"
       gradientUnits="userSpaceOnUse" />
    <linearGradient
       id="linearGradient4399">
      <stop
         style="stop-color:#2e3436;stop-opacity:1"
         offset="0"
         id="stop4401" />
      <stop
         style="stop-color:#2e3436;stop-opacity:0"
         offset="1"
         id="stop4403" />
    </linearGradient>
  </defs>
  <g
     style="fill-rule:evenodd"
     id="g38">
    <rect
       width="11.746"
       x="0.9574011"
       y="0.90100002"
       rx="5.8730001"
       height="11.746"
       style="fill:#e9c6af;fill-opacity:1;stroke:none"
       id="rect42" />
    <path
       inkscape:connector-curvature="0"
       style="fill:#deaa87;fill-rule:evenodd"
       d="m 3.7506247,11.801727 0,-10.0567871 c -1.678389,1.04418 -2.794357,2.897988 -2.794357,5.028394 0,2.130405 1.115968,3.9842131 2.794357,5.0283931 z"
       id="path18" />
    <path
       inkscape:connector-curvature="0"
       style="line-height:normal;color:#000000;fill:#ffffff;fill-opacity:0.4"
       d="m 6.7781182,4.3433354 0.564445,0 c 0.846666,0 0.846666,0.9675 0.846666,0.9675 l 0,0.95741 c 0,0.32251 -0.564444,0.97758 -0.564444,0.97758 l 0,0.3225001 1.128888,0.6349199 0,0.6449799 -1.834444,0.010699 -1.552223,0 0,-0.6449901 1.12889,-0.645 0,-0.32249 c 0,0 -0.566304,-0.65508 -0.564444,-0.97757 l 0,-0.9574301 c 0,0 -5e-6,-0.96749 0.846666,-0.96749 z"
       id="path24-9" />
    <path
       style="fill:#aa0000"
       inkscape:connector-curvature="0"
       id="rect4153"
       d="m 8.9617487,2.1667161 c -0.028276,-0.7649705 0.7434245,-0.7688263 1.5211353,0 l 0,3.0426126 L 9.7223166,4.3795275 8.9617487,5.2093287 z"
       sodipodi:nodetypes="cccccc" />
  </g>
</svg>
