<?xml version="1.0" encoding="UTF-8" standalone="no"?>
<!-- Created with Inkscape (http://www.inkscape.org/) -->

<svg
   xmlns:dc="http://purl.org/dc/elements/1.1/"
   xmlns:cc="http://creativecommons.org/ns#"
   xmlns:rdf="http://www.w3.org/1999/02/22-rdf-syntax-ns#"
   xmlns:svg="http://www.w3.org/2000/svg"
   xmlns="http://www.w3.org/2000/svg"
   xmlns:xlink="http://www.w3.org/1999/xlink"
   xmlns:sodipodi="http://sodipodi.sourceforge.net/DTD/sodipodi-0.dtd"
   xmlns:inkscape="http://www.inkscape.org/namespaces/inkscape"
   inkscape:export-ydpi="90.000000"
   inkscape:export-xdpi="90.000000"
   width="736"
   height="544"
   id="svg11300"
   sodipodi:version="0.32"
   inkscape:version="0.91 r13725"
   sodipodi:docname="emblem-shared.svg"
   inkscape:output_extension="org.inkscape.output.svg.inkscape"
   version="1.0"
   style="display:inline;enable-background:new"
   inkscape:export-filename="/home/sam/paper-template.png">
  <sodipodi:namedview
     stroke="#646464"
     fill="#909090"
     id="base"
     pagecolor="#ffffff"
     bordercolor="#666666"
     borderopacity="0.25490196"
     inkscape:pageopacity="0"
     inkscape:pageshadow="2"
     inkscape:zoom="1"
     inkscape:cx="22.8624"
     inkscape:cy="19.302786"
     inkscape:current-layer="layer7"
     showgrid="false"
     inkscape:grid-bbox="true"
     inkscape:document-units="px"
     inkscape:showpageshadow="false"
     inkscape:window-width="1316"
     inkscape:window-height="698"
     inkscape:window-x="25"
     inkscape:window-y="45"
     width="400px"
     height="300px"
     inkscape:snap-nodes="true"
     inkscape:snap-bbox="true"
     gridtolerance="10000"
     inkscape:object-nodes="true"
     inkscape:snap-grids="true"
     showguides="false"
     inkscape:guide-bbox="true"
     inkscape:window-maximized="1"
     inkscape:object-paths="true"
     inkscape:snap-intersection-paths="true"
     inkscape:snap-smooth-nodes="true"
     inkscape:snap-bbox-midpoints="true"
     inkscape:snap-bbox-edge-midpoints="false"
     inkscape:snap-global="true">
    <inkscape:grid
       snapvisiblegridlinesonly="true"
       empspacing="4"
       visible="true"
       enabled="true"
       type="xygrid"
       id="grid5883"
       spacingx="1px"
       spacingy="1px" />
    <inkscape:grid
       snapvisiblegridlinesonly="true"
       empopacity="0.25098039"
       empcolor="#ff0000"
       opacity="0.1254902"
       color="#ff0000"
       spacingy="0.5px"
       spacingx="0.5px"
       enabled="false"
       visible="true"
       empspacing="2"
       id="grid11592"
       type="xygrid" />
  </sodipodi:namedview>
  <title
     id="title3004">Paper Icon Theme</title>
  <defs
     id="defs3">
    <linearGradient
       id="linearGradient4015">
      <stop
         id="stop4017"
         offset="0"
         style="stop-color:#000000;stop-opacity:1;" />
      <stop
         id="stop4019"
         offset="1"
         style="stop-color:#000000;stop-opacity:0;" />
    </linearGradient>
    <linearGradient
       id="linearGradient4001"
       inkscape:collect="always">
      <stop
         id="stop4003"
         offset="0"
         style="stop-color:#ffffff;stop-opacity:1;" />
      <stop
         id="stop4005"
         offset="1"
         style="stop-color:#ffffff;stop-opacity:0;" />
    </linearGradient>
    <linearGradient
       y2="164"
       x2="160"
       y1="184"
       x1="160"
       gradientTransform="matrix(1,0,0,-1,0,368)"
       gradientUnits="userSpaceOnUse"
       id="linearGradient4050"
       xlink:href="#linearGradient4001"
       inkscape:collect="always" />
    <filter
       height="1.048"
       y="-0.024"
       width="1.048"
       x="-0.024"
       id="filter4227"
       style="color-interpolation-filters:sRGB"
       inkscape:collect="always">
      <feGaussianBlur
         id="feGaussianBlur4229"
         stdDeviation="4.48"
         inkscape:collect="always" />
    </filter>
  </defs>
  <metadata
     id="metadata4">
    <rdf:RDF>
      <cc:Work
         rdf:about="">
        <dc:format>image/svg+xml</dc:format>
        <dc:type
           rdf:resource="http://purl.org/dc/dcmitype/StillImage" />
        <dc:creator>
          <cc:Agent>
            <dc:title>Sam Hewitt</dc:title>
          </cc:Agent>
        </dc:creator>
        <dc:source />
        <cc:license
           rdf:resource="http://creativecommons.org/licenses/by-sa/3.0/" />
        <dc:title>Paper Icon Theme</dc:title>
        <dc:subject>
          <rdf:Bag />
        </dc:subject>
        <dc:date />
        <dc:rights>
          <cc:Agent>
            <dc:title />
          </cc:Agent>
        </dc:rights>
        <dc:publisher>
          <cc:Agent>
            <dc:title />
          </cc:Agent>
        </dc:publisher>
        <dc:identifier />
        <dc:relation />
        <dc:language />
        <dc:coverage />
        <dc:description />
        <dc:contributor>
          <cc:Agent>
            <dc:title />
          </cc:Agent>
        </dc:contributor>
      </cc:Work>
      <cc:Work
         rdf:about="">
        <dc:format>image/svg+xml</dc:format>
        <dc:type
           rdf:resource="http://purl.org/dc/dcmitype/StillImage" />
      </cc:Work>
      <cc:License
         rdf:about="http://creativecommons.org/licenses/by-sa/3.0/">
        <cc:permits
           rdf:resource="http://creativecommons.org/ns#Reproduction" />
        <cc:permits
           rdf:resource="http://creativecommons.org/ns#Distribution" />
        <cc:requires
           rdf:resource="http://creativecommons.org/ns#Notice" />
        <cc:requires
           rdf:resource="http://creativecommons.org/ns#Attribution" />
        <cc:permits
           rdf:resource="http://creativecommons.org/ns#DerivativeWorks" />
        <cc:requires
           rdf:resource="http://creativecommons.org/ns#ShareAlike" />
      </cc:License>
    </rdf:RDF>
  </metadata>
  <g
     transform="translate(0,244)"
     id="layer1"
     inkscape:label="Icon"
     inkscape:groupmode="layer"
     style="display:inline">
    <g
       inkscape:groupmode="layer"
       id="layer7"
       inkscape:label="Baseplate"
       style="display:none">
      <text
         id="context"
         inkscape:label="context"
         style="font-style:normal;font-variant:normal;font-weight:normal;font-stretch:normal;font-size:18px;font-family:'DejaVu Sans';-inkscape-font-specification:'DejaVu Sans';display:inline;fill:#000000;fill-opacity:1;stroke:none;enable-background:new"
         x="31.006836"
         xml:space="preserve"
         y="332.48523"><tspan
           id="tspan3933"
           sodipodi:role="line"
           x="31.006836"
           y="332.48523"
           style="font-style:normal;font-variant:normal;font-weight:normal;font-stretch:normal;font-family:'DejaVu Sans';-inkscape-font-specification:'DejaVu Sans'">emblems</tspan></text>
      <text
         id="icon-name"
         inkscape:label="icon-name"
         sodipodi:linespacing="125%"
         style="font-style:normal;font-variant:normal;font-weight:bold;font-stretch:normal;font-size:18px;line-height:125%;font-family:'DejaVu Sans';-inkscape-font-specification:'DejaVu Sans Bold';text-align:start;writing-mode:lr-tb;text-anchor:start;display:inline;fill:#000000;fill-opacity:1;stroke:none;enable-background:new"
         x="158.48828"
         xml:space="preserve"
         y="332.48523"><tspan
           id="tspan3937"
           sodipodi:role="line"
           x="158.48828"
           y="332.48523"
           style="font-style:normal;font-variant:normal;font-weight:bold;font-stretch:normal;font-size:18px;font-family:'DejaVu Sans';-inkscape-font-specification:'DejaVu Sans Bold'">emblem-shared</tspan></text>
      <rect
         transform="scale(-1,1)"
         inkscape:label="16x16"
         y="268"
         x="-48"
         height="16"
         width="16"
         id="rect16x16"
         style="display:inline;overflow:visible;visibility:visible;fill:#e9e9e9;fill-opacity:1;fill-rule:nonzero;stroke:none;stroke-width:2;marker:none;enable-background:accumulate" />
      <rect
         transform="scale(-1,1)"
         inkscape:label="24x24"
         y="260"
         x="-92"
         height="24"
         width="24"
         id="rect24x24"
         style="display:inline;overflow:visible;visibility:visible;fill:#e9e9e9;fill-opacity:1;fill-rule:nonzero;stroke:none;stroke-width:2;marker:none;enable-background:accumulate" />
      <rect
         transform="scale(-1,1)"
         inkscape:label="32x32"
         y="252"
         x="-144"
         height="32"
         width="32"
         id="rect32x32"
         style="display:inline;overflow:visible;visibility:visible;fill:#e9e9e9;fill-opacity:1;fill-rule:nonzero;stroke:none;stroke-width:2;marker:none;enable-background:accumulate" />
      <rect
         transform="scale(-1,1)"
         style="display:inline;overflow:visible;visibility:visible;fill:#e9e9e9;fill-opacity:1;fill-rule:nonzero;stroke:none;stroke-width:2;marker:none;enable-background:accumulate"
         id="rect48x48"
         width="48"
         height="48"
         x="-208"
         y="236"
         inkscape:label="48x48" />
      <rect
         transform="scale(-1,1)"
         inkscape:label="48x48"
         y="-228"
         x="-736"
         height="512"
         width="512"
         id="rect3951"
         style="display:inline;overflow:visible;visibility:visible;fill:#e9e9e9;fill-opacity:1;fill-rule:nonzero;stroke:none;stroke-width:2;marker:none;enable-background:accumulate" />
      <rect
         style="display:inline;overflow:visible;visibility:visible;fill:#e9e9e9;fill-opacity:1;fill-rule:nonzero;stroke:none;stroke-width:2;marker:none;enable-background:accumulate"
         id="rect4208"
         width="8"
         height="8"
         x="-16"
         y="276"
         inkscape:label="16x16"
         transform="scale(-1,1)" />
    </g>
    <g
       style="display:inline"
       inkscape:label="Symbols"
       id="layer6"
       inkscape:groupmode="layer">
      <rect
         transform="matrix(0,-1,-1,0,0,0)"
         style="opacity:0.2;fill:#000000;fill-opacity:1;stroke:none"
         id="rect4400"
         width="22"
         height="22"
         x="-284"
         y="-91"
         rx="11"
         ry="11" />
      <rect
         ry="20"
         rx="20"
         y="-204"
         x="-281"
         height="40"
         width="40"
         id="rect4402"
         style="opacity:0.2;fill:#000000;fill-opacity:1;stroke:none"
         transform="matrix(0,-1,-1,0,0,0)" />
      <rect
         ry="14"
         rx="14"
         y="-142"
         x="-283"
         height="28"
         width="28"
         id="rect4404"
         style="opacity:0.2;fill:#000000;fill-opacity:1;stroke:none"
         transform="matrix(0,-1,-1,0,0,0)" />
      <rect
         ry="224"
         rx="224"
         y="-688"
         x="-256"
         height="448"
         width="448"
         id="rect4406"
         style="opacity:0.1;fill:#000000;fill-opacity:1;stroke:#000000;stroke-width:8;stroke-miterlimit:4;stroke-dasharray:none;stroke-opacity:1;filter:url(#filter4227)"
         transform="matrix(0,-1,-1,0,16,0)" />
      <rect
         transform="matrix(0,-1,-1,0,0,0)"
         style="fill:#565656;fill-opacity:1;stroke:none"
         id="rect4408"
         width="40"
         height="40"
         x="-280"
         y="-204"
         rx="20"
         ry="20" />
      <rect
         ry="11"
         rx="11"
         y="-91"
         x="-283"
         height="22"
         width="22"
         id="rect4410"
         style="fill:#565656;fill-opacity:1;stroke:none"
         transform="matrix(0,-1,-1,0,0,0)" />
      <rect
         transform="matrix(0,-1,-1,0,0,0)"
         style="fill:#565656;fill-opacity:1;stroke:none"
         id="rect4412"
         width="28"
         height="28"
         x="-282"
         y="-142"
         rx="14"
         ry="14" />
      <rect
         transform="matrix(0,-1,-1,0,0,0)"
         style="display:inline;fill:#565656;fill-opacity:1;stroke:none;enable-background:new"
         id="rect4414"
         width="16"
         height="16"
         x="-284"
         y="-48"
         rx="8"
         ry="8" />
      <rect
         transform="matrix(0,-1,-1,0,16,0)"
         style="opacity:0.2;fill:#000000;fill-opacity:1;stroke:none;filter:url(#filter4227)"
         id="rect4416"
         width="448"
         height="448"
         x="-256"
         y="-688"
         rx="224"
         ry="224" />
      <rect
         ry="224"
         rx="224"
         y="-704"
         x="-252"
         height="448"
         width="448"
         id="rect4418"
         style="fill:#565656;fill-opacity:1;stroke:none"
         transform="matrix(0,-1,-1,0,0,0)" />
      <rect
         ry="1"
         rx="1"
         y="-16"
         x="-284"
         height="8"
         width="8"
         id="rect4420"
         style="display:inline;fill:#565656;fill-opacity:1;stroke:none;enable-background:new"
         transform="matrix(0,-1,-1,0,0,0)" />
      <path
         id="path4422"
         d="m 127.99999,254 c -7.756,0 -14,6.244 -14,14 0,0.16884 0.0195,0.33264 0.0254,0.5 0.26374,-7.52057 6.38745,-13.5 13.97461,-13.5 7.58716,0 13.71087,5.97943 13.97461,13.5 0.006,-0.16736 0.0254,-0.33116 0.0254,-0.5 0,-7.756 -6.244,-14 -14,-14 z"
         style="opacity:0.1;fill:#ffffff;fill-opacity:1;stroke:none"
         inkscape:connector-curvature="0" />
      <path
         id="path4424"
         d="m 184,240 c -11.08,0 -20,8.92 -20,20 0,0.16787 0.008,0.33314 0.0117,0.5 0.26469,-10.84614 9.07617,-19.5 19.9883,-19.5 10.91213,0 19.72361,8.65386 19.98828,19.5 0.004,-0.16686 0.0117,-0.33213 0.0117,-0.5 0,-11.08 -8.92,-20 -20,-20 z"
         style="opacity:0.1;fill:#ffffff;fill-opacity:1;stroke:none"
         inkscape:connector-curvature="0" />
      <path
         id="path4428"
         d="m 80,261 c -6.094,0 -11,4.906 -11,11 0,0.16899 0.01793,0.33292 0.02539,0.5 C 69.287156,266.64183 74.074989,262 80,262 c 5.925011,0 10.712844,4.64183 10.974609,10.5 C 90.982075,272.33292 91,272.16899 91,272 91,265.906 86.094,261 80,261 Z"
         style="opacity:0.1;fill:#ffffff;fill-opacity:1;stroke:none"
         inkscape:connector-curvature="0" />
      <path
         id="path4430"
         d="m 480,-196 c -124.096,0 -224,99.904 -224,224 0,0.33437 0.0103,0.66598 0.0117,1 C 256.5481,-94.63106 356.23837,-194 480,-194 603.76163,-194 703.4519,-94.63106 703.98828,29 703.98973,28.66598 704,28.33437 704,28 704,-96.096 604.096,-196 480,-196 Z"
         style="opacity:0.2;fill:#ffffff;fill-opacity:1;stroke:none"
         inkscape:connector-curvature="0" />
      <path
         inkscape:connector-curvature="0"
         style="opacity:0.2;fill:#000000;fill-opacity:1;stroke:none"
         d="m 480.00002,254 c -124.096,0 -224,-99.904 -224,-224 0,-0.33437 0.0103,-0.66598 0.0117,-1 0.5364,123.63106 100.22667,223 223.9883,223 123.76163,0 223.4519,-99.36894 223.98828,-223 10e-4,0.33402 0.0117,0.66563 0.0117,1 0,124.096 -99.904,224 -224,224 z"
         id="path4432" />
    </g>
    <g
       style="display:inline"
       inkscape:label="Pictogram"
       id="layer2"
       inkscape:groupmode="layer">
      <g
         transform="matrix(0.72727273,0,0,0.72727273,5.649015,79.37947)"
         id="g4769"
         style="display:inline;enable-background:new">
        <circle
           r="2.9931972"
           cy="260.00937"
           cx="159.99063"
           id="circle4771"
           style="opacity:1;fill:#ffffff;fill-opacity:1;stroke:#ffffff;stroke-width:2.26360536;stroke-linecap:round;stroke-linejoin:round;stroke-miterlimit:4;stroke-dasharray:none;stroke-opacity:1" />
        <circle
           style="opacity:1;fill:#ffffff;fill-opacity:1;stroke:#ffffff;stroke-width:2.26360536;stroke-linecap:round;stroke-linejoin:round;stroke-miterlimit:4;stroke-dasharray:none;stroke-opacity:1"
           id="circle4773"
           cx="173.75"
           cy="253.125"
           r="2.9931972" />
        <circle
           r="2.9931972"
           cy="266.875"
           cx="173.75"
           id="circle4775"
           style="opacity:1;fill:#ffffff;fill-opacity:1;stroke:#ffffff;stroke-width:2.26360536;stroke-linecap:round;stroke-linejoin:round;stroke-miterlimit:4;stroke-dasharray:none;stroke-opacity:1" />
        <path
           sodipodi:nodetypes="ccc"
           inkscape:connector-curvature="0"
           id="path4777"
           d="M 173.75,253.125 160,260 l 13.75,6.875"
           style="fill:none;fill-rule:evenodd;stroke:#ffffff;stroke-width:2.0625;stroke-linecap:round;stroke-linejoin:round;stroke-miterlimit:4;stroke-dasharray:none;stroke-opacity:1" />
      </g>
      <path
         inkscape:connector-curvature="0"
         style="display:inline;opacity:1;fill:#ffffff;fill-opacity:1;stroke:none;stroke-width:0.70599997;stroke-linecap:round;stroke-linejoin:round;stroke-miterlimit:4;stroke-dasharray:none;stroke-opacity:1;enable-background:new"
         d="m 81.917849,267.00809 a 2.0001122,2.0001122 0 0 0 -1.63779,0.9981 2.0001122,2.0001122 0 0 0 -0.19337,1.53426 l -2.64761,1.52939 a 2.0001122,2.0001122 0 0 0 -1.42684,-0.59964 2.0001122,2.0001122 0 0 0 -2.00011,2.00011 2.0001122,2.0001122 0 0 0 2.00011,2.00011 2.0001122,2.0001122 0 0 0 1.42586,-0.59964 l 2.64761,1.52938 a 2.0001122,2.0001122 0 0 0 0.19435,1.53426 2.0001122,2.0001122 0 0 0 2.73257,0.73247 2.0001122,2.0001122 0 0 0 0.73247,-2.73258 2.0001122,2.0001122 0 0 0 -2.73258,-0.73148 2.0001122,2.0001122 0 0 0 -0.42678,0.33107 l -2.64858,-1.52841 a 2.0001122,2.0001122 0 0 0 0.0752,-0.53518 2.0001122,2.0001122 0 0 0 -0.0732,-0.53519 l 2.64761,-1.5284 a 2.0001122,2.0001122 0 0 0 0.4258,0.33107 2.0001122,2.0001122 0 0 0 2.73258,-0.73148 2.0001122,2.0001122 0 0 0 -0.73247,-2.73258 2.0001122,2.0001122 0 0 0 -1.09478,-0.26564 z"
         id="path4891" />
      <g
         id="g4893"
         inkscape:label="apps"
         style="display:inline;fill:#ffffff;enable-background:new"
         transform="matrix(0.5,0,0,0.5,-276.50001,8.00002)">
        <path
           inkscape:connector-curvature="0"
           d="m 636.00002,527.99996 c -1.65685,0 -3,1.34315 -3,3 0,0.23127 0.0442,0.44001 0.0937,0.65625 l -3.21875,2 c -0.51341,-0.41127 -1.16591,-0.65625 -1.87495,-0.65625 -1.65685,0 -3,1.34315 -3,3 0,1.65685 1.34315,3 3,3 0.70904,0 1.36154,-0.24498 1.875,-0.65625 l 3.21875,2 c -0.0495,0.21624 -0.0937,0.42498 -0.0937,0.65625 0,1.65685 1.34315,3 3,3 1.65685,0 3,-1.34315 3,-3 0,-1.65685 -1.34315,-3 -3,-3 -0.70904,0 -1.36154,0.24498 -1.875,0.65625 l -3.21875,-2 c 0.0495,-0.21624 0.0937,-0.42498 0.0937,-0.65625 0,-0.23127 -0.0442,-0.44001 -0.0937,-0.65625 l 3.21875,-2 c 0.51341,0.41127 1.16591,0.65625 1.87495,0.65625 1.65685,0 3,-1.34315 3,-3 0,-1.65685 -1.34315,-3 -3,-3 z"
           id="path4895"
           style="fill:#ffffff;fill-opacity:1;stroke:none" />
      </g>
      <g
         id="g4763"
         style="display:inline;enable-background:new"
         transform="translate(16.012649,0.47037997)">
        <circle
           style="opacity:1;fill:#ffffff;fill-opacity:1;stroke:#ffffff;stroke-width:2;stroke-linecap:round;stroke-linejoin:round;stroke-miterlimit:4;stroke-dasharray:none;stroke-opacity:1"
           id="path4755"
           cx="160"
           cy="260"
           r="3" />
        <circle
           r="3"
           cy="253"
           cx="173"
           id="circle4757"
           style="opacity:1;fill:#ffffff;fill-opacity:1;stroke:#ffffff;stroke-width:2;stroke-linecap:round;stroke-linejoin:round;stroke-miterlimit:4;stroke-dasharray:none;stroke-opacity:1" />
        <circle
           style="opacity:1;fill:#ffffff;fill-opacity:1;stroke:#ffffff;stroke-width:2;stroke-linecap:round;stroke-linejoin:round;stroke-miterlimit:4;stroke-dasharray:none;stroke-opacity:1"
           id="circle4759"
           cx="173"
           cy="267"
           r="3" />
        <path
           style="fill:none;fill-rule:evenodd;stroke:#ffffff;stroke-width:2;stroke-linecap:round;stroke-linejoin:round;stroke-miterlimit:4;stroke-dasharray:none;stroke-opacity:1"
           d="m 173,253 -13,7 13,7"
           id="path4761"
           inkscape:connector-curvature="0"
           sodipodi:nodetypes="ccc" />
      </g>
      <g
         transform="matrix(10.47619,0,0,10.47619,-1280.273,-2695.339)"
         id="g4779"
         style="display:inline;enable-background:new">
        <circle
           r="3.1500001"
           cy="260"
           cx="159.62727"
           id="circle4781"
           style="opacity:1;fill:#ffffff;fill-opacity:1;stroke:#ffffff;stroke-width:1.33636367;stroke-linecap:round;stroke-linejoin:round;stroke-miterlimit:4;stroke-dasharray:none;stroke-opacity:1" />
        <circle
           style="opacity:1;fill:#ffffff;fill-opacity:1;stroke:#ffffff;stroke-width:1.33636367;stroke-linecap:round;stroke-linejoin:round;stroke-miterlimit:4;stroke-dasharray:none;stroke-opacity:1"
           id="circle4783"
           cx="174.13637"
           cy="253.12727"
           r="3.1500001" />
        <circle
           r="3.1500001"
           cy="266.87274"
           cx="174.1364"
           id="circle4785"
           style="opacity:1;fill:#ffffff;fill-opacity:1;stroke:#ffffff;stroke-width:1.33636367;stroke-linecap:round;stroke-linejoin:round;stroke-miterlimit:4;stroke-dasharray:none;stroke-opacity:1" />
        <path
           sodipodi:nodetypes="ccc"
           inkscape:connector-curvature="0"
           id="path4787"
           d="M 174.13636,253.12727 159.62727,260 l 14.50909,6.87273"
           style="fill:none;fill-rule:evenodd;stroke:#ffffff;stroke-width:2;stroke-linecap:round;stroke-linejoin:round;stroke-miterlimit:4;stroke-dasharray:none;stroke-opacity:1" />
      </g>
      <g
         transform="matrix(0.325,0,0,0.325,-193.70934,105.80001)"
         style="display:inline;fill:#ffffff;enable-background:new"
         inkscape:label="apps"
         id="g4680">
        <path
           style="fill:#ffffff;fill-opacity:1;stroke:none"
           id="path4682"
           d="m 636.00002,527.99996 c -1.65685,0 -3,1.34315 -3,3 0,0.23127 0.0442,0.44001 0.0937,0.65625 l -3.21875,2 c -0.51341,-0.41127 -1.16591,-0.65625 -1.87495,-0.65625 -1.65685,0 -3,1.34315 -3,3 0,1.65685 1.34315,3 3,3 0.70904,0 1.36154,-0.24498 1.875,-0.65625 l 3.21875,2 c -0.0495,0.21624 -0.0937,0.42498 -0.0937,0.65625 0,1.65685 1.34315,3 3,3 1.65685,0 3,-1.34315 3,-3 0,-1.65685 -1.34315,-3 -3,-3 -0.70904,0 -1.36154,0.24498 -1.875,0.65625 l -3.21875,-2 c 0.0495,-0.21624 0.0937,-0.42498 0.0937,-0.65625 0,-0.23127 -0.0442,-0.44001 -0.0937,-0.65625 l 3.21875,-2 c 0.51341,0.41127 1.16591,0.65625 1.87495,0.65625 1.65685,0 3,-1.34315 3,-3 0,-1.65685 -1.34315,-3 -3,-3 z"
           inkscape:connector-curvature="0" />
      </g>
    </g>
  </g>
</svg>
