<?xml version="1.0" encoding="UTF-8" standalone="no"?>
<!-- Created with Inkscape (http://www.inkscape.org/) -->

<svg
   xmlns:dc="http://purl.org/dc/elements/1.1/"
   xmlns:cc="http://creativecommons.org/ns#"
   xmlns:rdf="http://www.w3.org/1999/02/22-rdf-syntax-ns#"
   xmlns:svg="http://www.w3.org/2000/svg"
   xmlns="http://www.w3.org/2000/svg"
   xmlns:xlink="http://www.w3.org/1999/xlink"
   xmlns:sodipodi="http://sodipodi.sourceforge.net/DTD/sodipodi-0.dtd"
   xmlns:inkscape="http://www.inkscape.org/namespaces/inkscape"
   inkscape:export-ydpi="90.000000"
   inkscape:export-xdpi="90.000000"
   width="736"
   height="544"
   id="svg11300"
   sodipodi:version="0.32"
   inkscape:version="0.91 r13725"
   sodipodi:docname="emblem-system.svg"
   inkscape:output_extension="org.inkscape.output.svg.inkscape"
   version="1.0"
   style="display:inline;enable-background:new"
   inkscape:export-filename="/home/sam/paper-template.png">
  <sodipodi:namedview
     stroke="#646464"
     fill="#909090"
     id="base"
     pagecolor="#ffffff"
     bordercolor="#666666"
     borderopacity="0.25490196"
     inkscape:pageopacity="0"
     inkscape:pageshadow="2"
     inkscape:zoom="1"
     inkscape:cx="19.243035"
     inkscape:cy="39.444492"
     inkscape:current-layer="layer6"
     showgrid="false"
     inkscape:grid-bbox="true"
     inkscape:document-units="px"
     inkscape:showpageshadow="false"
     inkscape:window-width="1316"
     inkscape:window-height="698"
     inkscape:window-x="25"
     inkscape:window-y="45"
     width="400px"
     height="300px"
     inkscape:snap-nodes="false"
     inkscape:snap-bbox="true"
     gridtolerance="10000"
     inkscape:object-nodes="true"
     inkscape:snap-grids="true"
     showguides="false"
     inkscape:guide-bbox="true"
     inkscape:window-maximized="1"
     inkscape:object-paths="true"
     inkscape:snap-intersection-paths="true"
     inkscape:snap-smooth-nodes="true"
     inkscape:snap-bbox-midpoints="true"
     inkscape:snap-bbox-edge-midpoints="false"
     inkscape:snap-global="true">
    <inkscape:grid
       snapvisiblegridlinesonly="true"
       empspacing="4"
       visible="true"
       enabled="true"
       type="xygrid"
       id="grid5883"
       spacingx="1px"
       spacingy="1px" />
    <inkscape:grid
       snapvisiblegridlinesonly="true"
       empopacity="0.25098039"
       empcolor="#ff0000"
       opacity="0.1254902"
       color="#ff0000"
       spacingy="0.5px"
       spacingx="0.5px"
       enabled="false"
       visible="true"
       empspacing="2"
       id="grid11592"
       type="xygrid" />
  </sodipodi:namedview>
  <title
     id="title3004">Paper Icon Theme</title>
  <defs
     id="defs3">
    <linearGradient
       id="linearGradient4015">
      <stop
         id="stop4017"
         offset="0"
         style="stop-color:#000000;stop-opacity:1;" />
      <stop
         id="stop4019"
         offset="1"
         style="stop-color:#000000;stop-opacity:0;" />
    </linearGradient>
    <linearGradient
       id="linearGradient4001"
       inkscape:collect="always">
      <stop
         id="stop4003"
         offset="0"
         style="stop-color:#ffffff;stop-opacity:1;" />
      <stop
         id="stop4005"
         offset="1"
         style="stop-color:#ffffff;stop-opacity:0;" />
    </linearGradient>
    <linearGradient
       y2="164"
       x2="160"
       y1="184"
       x1="160"
       gradientTransform="matrix(1,0,0,-1,0,368)"
       gradientUnits="userSpaceOnUse"
       id="linearGradient4050"
       xlink:href="#linearGradient4001"
       inkscape:collect="always" />
    <filter
       height="1.048"
       y="-0.024"
       width="1.048"
       x="-0.024"
       id="filter4227"
       style="color-interpolation-filters:sRGB"
       inkscape:collect="always">
      <feGaussianBlur
         id="feGaussianBlur4229"
         stdDeviation="4.48"
         inkscape:collect="always" />
    </filter>
  </defs>
  <metadata
     id="metadata4">
    <rdf:RDF>
      <cc:Work
         rdf:about="">
        <dc:format>image/svg+xml</dc:format>
        <dc:type
           rdf:resource="http://purl.org/dc/dcmitype/StillImage" />
        <dc:creator>
          <cc:Agent>
            <dc:title>Sam Hewitt</dc:title>
          </cc:Agent>
        </dc:creator>
        <dc:source />
        <cc:license
           rdf:resource="http://creativecommons.org/licenses/by-sa/3.0/" />
        <dc:title>Paper Icon Theme</dc:title>
        <dc:subject>
          <rdf:Bag />
        </dc:subject>
        <dc:date />
        <dc:rights>
          <cc:Agent>
            <dc:title />
          </cc:Agent>
        </dc:rights>
        <dc:publisher>
          <cc:Agent>
            <dc:title />
          </cc:Agent>
        </dc:publisher>
        <dc:identifier />
        <dc:relation />
        <dc:language />
        <dc:coverage />
        <dc:description />
        <dc:contributor>
          <cc:Agent>
            <dc:title />
          </cc:Agent>
        </dc:contributor>
      </cc:Work>
      <cc:Work
         rdf:about="">
        <dc:format>image/svg+xml</dc:format>
        <dc:type
           rdf:resource="http://purl.org/dc/dcmitype/StillImage" />
      </cc:Work>
      <cc:License
         rdf:about="http://creativecommons.org/licenses/by-sa/3.0/">
        <cc:permits
           rdf:resource="http://creativecommons.org/ns#Reproduction" />
        <cc:permits
           rdf:resource="http://creativecommons.org/ns#Distribution" />
        <cc:requires
           rdf:resource="http://creativecommons.org/ns#Notice" />
        <cc:requires
           rdf:resource="http://creativecommons.org/ns#Attribution" />
        <cc:permits
           rdf:resource="http://creativecommons.org/ns#DerivativeWorks" />
        <cc:requires
           rdf:resource="http://creativecommons.org/ns#ShareAlike" />
      </cc:License>
    </rdf:RDF>
  </metadata>
  <g
     transform="translate(0,244)"
     id="layer1"
     inkscape:label="Icon"
     inkscape:groupmode="layer"
     style="display:inline">
    <g
       inkscape:groupmode="layer"
       id="layer7"
       inkscape:label="Baseplate"
       style="display:none">
      <text
         id="context"
         inkscape:label="context"
         style="font-style:normal;font-variant:normal;font-weight:normal;font-stretch:normal;font-size:18px;font-family:'DejaVu Sans';-inkscape-font-specification:'DejaVu Sans';display:inline;fill:#000000;fill-opacity:1;stroke:none;enable-background:new"
         x="31.006836"
         xml:space="preserve"
         y="332.48523"><tspan
           id="tspan3933"
           sodipodi:role="line"
           x="31.006836"
           y="332.48523"
           style="font-style:normal;font-variant:normal;font-weight:normal;font-stretch:normal;font-family:'DejaVu Sans';-inkscape-font-specification:'DejaVu Sans'">emblems</tspan></text>
      <text
         id="icon-name"
         inkscape:label="icon-name"
         sodipodi:linespacing="125%"
         style="font-style:normal;font-variant:normal;font-weight:bold;font-stretch:normal;font-size:18px;line-height:125%;font-family:'DejaVu Sans';-inkscape-font-specification:'DejaVu Sans Bold';text-align:start;writing-mode:lr-tb;text-anchor:start;display:inline;fill:#000000;fill-opacity:1;stroke:none;enable-background:new"
         x="158.48828"
         xml:space="preserve"
         y="332.48523"><tspan
           id="tspan3937"
           sodipodi:role="line"
           x="158.48828"
           y="332.48523"
           style="font-style:normal;font-variant:normal;font-weight:bold;font-stretch:normal;font-size:18px;font-family:'DejaVu Sans';-inkscape-font-specification:'DejaVu Sans Bold'">emblem-system</tspan></text>
      <rect
         transform="scale(-1,1)"
         inkscape:label="16x16"
         y="268"
         x="-48"
         height="16"
         width="16"
         id="rect16x16"
         style="display:inline;overflow:visible;visibility:visible;fill:#e9e9e9;fill-opacity:1;fill-rule:nonzero;stroke:none;stroke-width:2;marker:none;enable-background:accumulate" />
      <rect
         transform="scale(-1,1)"
         inkscape:label="24x24"
         y="260"
         x="-92"
         height="24"
         width="24"
         id="rect24x24"
         style="display:inline;overflow:visible;visibility:visible;fill:#e9e9e9;fill-opacity:1;fill-rule:nonzero;stroke:none;stroke-width:2;marker:none;enable-background:accumulate" />
      <rect
         transform="scale(-1,1)"
         inkscape:label="32x32"
         y="252"
         x="-144"
         height="32"
         width="32"
         id="rect32x32"
         style="display:inline;overflow:visible;visibility:visible;fill:#e9e9e9;fill-opacity:1;fill-rule:nonzero;stroke:none;stroke-width:2;marker:none;enable-background:accumulate" />
      <rect
         transform="scale(-1,1)"
         style="display:inline;overflow:visible;visibility:visible;fill:#e9e9e9;fill-opacity:1;fill-rule:nonzero;stroke:none;stroke-width:2;marker:none;enable-background:accumulate"
         id="rect48x48"
         width="48"
         height="48"
         x="-208"
         y="236"
         inkscape:label="48x48" />
      <rect
         transform="scale(-1,1)"
         inkscape:label="48x48"
         y="-228"
         x="-736"
         height="512"
         width="512"
         id="rect3951"
         style="display:inline;overflow:visible;visibility:visible;fill:#e9e9e9;fill-opacity:1;fill-rule:nonzero;stroke:none;stroke-width:2;marker:none;enable-background:accumulate" />
      <rect
         style="display:inline;overflow:visible;visibility:visible;fill:#e9e9e9;fill-opacity:1;fill-rule:nonzero;stroke:none;stroke-width:2;marker:none;enable-background:accumulate"
         id="rect4208"
         width="8"
         height="8"
         x="-16"
         y="276"
         inkscape:label="16x16"
         transform="scale(-1,1)" />
    </g>
    <g
       style="display:inline"
       inkscape:label="Symbols"
       id="layer6"
       inkscape:groupmode="layer">
      <rect
         transform="matrix(0,-1,-1,0,0,0)"
         style="opacity:0.2;fill:#000000;fill-opacity:1;stroke:none"
         id="rect4400"
         width="22"
         height="22"
         x="-284"
         y="-91"
         rx="11"
         ry="11" />
      <rect
         ry="20"
         rx="20"
         y="-204"
         x="-281"
         height="40"
         width="40"
         id="rect4402"
         style="opacity:0.2;fill:#000000;fill-opacity:1;stroke:none"
         transform="matrix(0,-1,-1,0,0,0)" />
      <rect
         ry="14"
         rx="14"
         y="-142"
         x="-283"
         height="28"
         width="28"
         id="rect4404"
         style="opacity:0.2;fill:#000000;fill-opacity:1;stroke:none"
         transform="matrix(0,-1,-1,0,0,0)" />
      <rect
         ry="224"
         rx="224"
         y="-688"
         x="-256"
         height="448"
         width="448"
         id="rect4406"
         style="opacity:0.1;fill:#000000;fill-opacity:1;stroke:#000000;stroke-width:8;stroke-miterlimit:4;stroke-dasharray:none;stroke-opacity:1;filter:url(#filter4227)"
         transform="matrix(0,-1,-1,0,16,0)" />
      <rect
         transform="matrix(0,-1,-1,0,0,0)"
         style="fill:#575757;fill-opacity:1;stroke:none"
         id="rect4408"
         width="40"
         height="40"
         x="-280"
         y="-204"
         rx="20"
         ry="20" />
      <rect
         ry="11"
         rx="11"
         y="-91"
         x="-283"
         height="22"
         width="22"
         id="rect4410"
         style="fill:#575757;fill-opacity:1;stroke:none"
         transform="matrix(0,-1,-1,0,0,0)" />
      <rect
         transform="matrix(0,-1,-1,0,0,0)"
         style="fill:#575757;fill-opacity:1;stroke:none"
         id="rect4412"
         width="28"
         height="28"
         x="-282"
         y="-142"
         rx="14"
         ry="14" />
      <rect
         transform="matrix(0,-1,-1,0,0,0)"
         style="display:inline;fill:#575757;fill-opacity:1;stroke:none;enable-background:new"
         id="rect4414"
         width="16"
         height="16"
         x="-284"
         y="-48"
         rx="8"
         ry="8" />
      <rect
         transform="matrix(0,-1,-1,0,16,0)"
         style="opacity:0.2;fill:#000000;fill-opacity:1;stroke:none;filter:url(#filter4227)"
         id="rect4416"
         width="448"
         height="448"
         x="-256"
         y="-688"
         rx="224"
         ry="224" />
      <rect
         ry="224"
         rx="224"
         y="-704"
         x="-252"
         height="448"
         width="448"
         id="rect4418"
         style="fill:#575757;fill-opacity:1;stroke:none"
         transform="matrix(0,-1,-1,0,0,0)" />
      <rect
         ry="1"
         rx="1"
         y="-16"
         x="-284"
         height="8"
         width="8"
         id="rect4420"
         style="display:inline;fill:#575757;fill-opacity:1;stroke:none;enable-background:new"
         transform="matrix(0,-1,-1,0,0,0)" />
      <path
         id="path4422"
         d="m 127.99999,254 c -7.756,0 -14,6.244 -14,14 0,0.16884 0.0195,0.33264 0.0254,0.5 0.26374,-7.52057 6.38745,-13.5 13.97461,-13.5 7.58716,0 13.71087,5.97943 13.97461,13.5 0.006,-0.16736 0.0254,-0.33116 0.0254,-0.5 0,-7.756 -6.244,-14 -14,-14 z"
         style="opacity:0.1;fill:#ffffff;fill-opacity:1;stroke:none"
         inkscape:connector-curvature="0" />
      <path
         id="path4424"
         d="m 184,240 c -11.08,0 -20,8.92 -20,20 0,0.16787 0.008,0.33314 0.0117,0.5 0.26469,-10.84614 9.07617,-19.5 19.9883,-19.5 10.91213,0 19.72361,8.65386 19.98828,19.5 0.004,-0.16686 0.0117,-0.33213 0.0117,-0.5 0,-11.08 -8.92,-20 -20,-20 z"
         style="opacity:0.1;fill:#ffffff;fill-opacity:1;stroke:none"
         inkscape:connector-curvature="0" />
      <path
         id="path4428"
         d="m 80,261 c -6.094,0 -11,4.906 -11,11 0,0.16899 0.01793,0.33292 0.02539,0.5 C 69.287156,266.64183 74.074989,262 80,262 c 5.925011,0 10.712844,4.64183 10.974609,10.5 C 90.982075,272.33292 91,272.16899 91,272 91,265.906 86.094,261 80,261 Z"
         style="opacity:0.1;fill:#ffffff;fill-opacity:1;stroke:none"
         inkscape:connector-curvature="0" />
      <path
         id="path4430"
         d="m 480,-196 c -124.096,0 -224,99.904 -224,224 0,0.33437 0.0103,0.66598 0.0117,1 C 256.5481,-94.63106 356.23837,-194 480,-194 603.76163,-194 703.4519,-94.63106 703.98828,29 703.98973,28.66598 704,28.33437 704,28 704,-96.096 604.096,-196 480,-196 Z"
         style="opacity:0.2;fill:#ffffff;fill-opacity:1;stroke:none"
         inkscape:connector-curvature="0" />
      <path
         inkscape:connector-curvature="0"
         style="opacity:0.2;fill:#000000;fill-opacity:1;stroke:none"
         d="m 480.00002,254 c -124.096,0 -224,-99.904 -224,-224 0,-0.33437 0.0103,-0.66598 0.0117,-1 0.5364,123.63106 100.22667,223 223.9883,223 123.76163,0 223.4519,-99.36894 223.98828,-223 10e-4,0.33402 0.0117,0.66563 0.0117,1 0,124.096 -99.904,224 -224,224 z"
         id="path4432" />
    </g>
    <g
       style="display:inline"
       inkscape:label="Pictogram"
       id="layer2"
       inkscape:groupmode="layer">
      <path
         id="path10500"
         d="m 444,-116 -3.1718,37.929681 a 113.14286,113.14286 0 0 0 -33.0704,19.125 l -34.4726,-16.23436 -36,62.35936 31.3008,21.73438 a 113.14286,113.14286 0 0 0 -1.7306,19.08594 113.14286,113.14286 0 0 0 1.6484,19.16406 l -31.2186,21.65626 36,62.359359 34.3944,-16.1914 a 113.14286,113.14286 0 0 0 33.1446,19.0039 L 444,172 l 72,0 3.1718,-37.92968 a 113.14286,113.14286 0 0 0 33.0704,-19.125 l 34.4726,16.23436 36,-62.359359 -31.3008,-21.73438 a 113.14286,113.14286 0 0 0 1.7306,-19.08594 113.14286,113.14286 0 0 0 -1.6484,-19.16406 l 31.2186,-21.65626 -36,-62.35936 -34.3944,16.1914 a 113.14286,113.14286 0 0 0 -33.1446,-19.0039 L 516,-116 l -72,0 z m 36,96.000001 a 48,48 0 0 1 48,48 48,48 0 0 1 -48,48 48,48 0 0 1 -48,-48 48,48 0 0 1 48,-48 z"
         style="display:inline;opacity:1;fill:#ffffff;fill-opacity:1;stroke:none;stroke-opacity:1;enable-background:new"
         inkscape:connector-curvature="0" />
      <path
         inkscape:connector-curvature="0"
         style="display:inline;opacity:1;fill:#ffffff;fill-opacity:1;stroke:none;stroke-opacity:1;enable-background:new"
         d="m 180.75,247 -0.28634,3.42421 a 10.214286,10.214286 0 0 0 -2.98552,1.72656 l -3.11211,-1.4656 -3.25,5.62967 2.82576,1.96213 A 10.214286,10.214286 0 0 0 173.78556,260 a 10.214286,10.214286 0 0 0 0.14881,1.73009 l -2.81834,1.95508 3.25,5.62967 3.10505,-1.46173 a 10.214286,10.214286 0 0 0 2.99222,1.71563 L 180.75,273 l 6.5,0 0.28634,-3.4242 a 10.214286,10.214286 0 0 0 2.98553,-1.72657 l 3.11211,1.46561 3.25,-5.62967 -2.82577,-1.96213 A 10.214286,10.214286 0 0 0 194.21444,260 a 10.214286,10.214286 0 0 0 -0.14881,-1.73009 l 2.81835,-1.95507 -3.25,-5.62967 -3.10505,1.46172 a 10.214286,10.214286 0 0 0 -2.99222,-1.71563 L 187.25,247 l -6.5,0 z m 3.25,8.66667 A 4.3333333,4.3333333 0 0 1 188.33333,260 4.3333333,4.3333333 0 0 1 184,264.33334 4.3333333,4.3333333 0 0 1 179.66667,260 4.3333333,4.3333333 0 0 1 184,255.66667 Z"
         id="path4379" />
      <path
         id="path4385"
         d="m 130.25,259 0.19824,2.3706 a 7.0714286,7.0714286 0 0 1 2.0669,1.19532 l 2.15454,-1.01465 2.24999,3.89746 -1.95629,1.3584 a 7.0714286,7.0714286 0 0 1 0.10816,1.19287 7.0714286,7.0714286 0 0 1 -0.10303,1.19775 l 1.95116,1.35352 -2.24999,3.89746 -2.14965,-1.01196 a 7.0714286,7.0714286 0 0 1 -2.07154,1.18774 L 130.25,277 l -4.5,0 -0.19824,-2.37061 a 7.0714286,7.0714286 0 0 1 -2.0669,-1.19531 l -2.15453,1.01465 -2.25,-3.89746 1.9563,-1.3584 A 7.0714286,7.0714286 0 0 1 120.92846,268 a 7.0714286,7.0714286 0 0 1 0.10303,-1.19775 l -1.95117,-1.35352 2.25001,-3.89746 2.14964,1.01196 a 7.0714286,7.0714286 0 0 1 2.07154,-1.18774 L 125.75,259 l 4.5,0 z m -2.25,6 a 3,3 0 0 0 -3,3 3,3 0 0 0 3,3 3,3 0 0 0 3,-3 3,3 0 0 0 -3,-3 z"
         style="display:inline;opacity:1;fill:#ffffff;fill-opacity:1;stroke:none;stroke-opacity:1;enable-background:new"
         inkscape:connector-curvature="0" />
      <path
         inkscape:connector-curvature="0"
         style="display:inline;opacity:1;fill:#ffffff;fill-opacity:1;stroke:none;stroke-opacity:1;enable-background:new"
         d="m 81.499995,266 0.13216,1.5804 a 4.7142858,4.7142858 0 0 1 1.37793,0.79687 l 1.43636,-0.67643 1.5,2.59831 -1.3042,0.9056 a 4.7142858,4.7142858 0 0 1 0.0721,0.79525 4.7142858,4.7142858 0 0 1 -0.0687,0.7985 l 1.30078,0.90234 -1.5,2.59831 -1.4331,-0.67464 a 4.7142858,4.7142858 0 0 1 -1.38103,0.79183 L 81.499965,278 l -3,0 -0.13216,-1.58041 a 4.7142858,4.7142858 0 0 1 -1.37793,-0.79687 l -1.43636,0.67643 -1.5,-2.59831 1.3042,-0.9056 A 4.7142858,4.7142858 0 0 1 75.285615,272 a 4.7142858,4.7142858 0 0 1 0.0687,-0.79851 l -1.30077,-0.90234 1.5,-2.59831 1.4331,0.67464 a 4.7142858,4.7142858 0 0 1 1.38102,-0.79182 L 78.499995,266 l 3,0 z m -1.5,4 a 2,2 0 0 0 -2,2 2,2 0 0 0 2,2 2,2 0 0 0 2,-2 2,2 0 0 0 -2,-2 z"
         id="path4391" />
      <path
         id="path4397"
         d="m 41.249995,271 0.11013,1.317 a 3.9285715,3.9285715 0 0 1 1.14828,0.66407 l 1.19697,-0.5637 1.24999,2.16526 -1.08683,0.75466 a 3.9285715,3.9285715 0 0 1 0.0601,0.66271 3.9285715,3.9285715 0 0 1 -0.0572,0.66542 l 1.08398,0.75195 -1.25,2.16526 -1.19425,-0.5622 a 3.9285715,3.9285715 0 0 1 -1.15085,0.65985 L 41.250045,281 l -2.5,0 -0.11013,-1.317 a 3.9285715,3.9285715 0 0 1 -1.14828,-0.66407 l -1.19697,0.5637 -1.25,-2.16526 1.08684,-0.75466 A 3.9285715,3.9285715 0 0 1 36.071405,276 a 3.9285715,3.9285715 0 0 1 0.0572,-0.66542 l -1.08398,-0.75195 1.25,-2.16526 1.19425,0.5622 a 3.9285715,3.9285715 0 0 1 1.15085,-0.65985 L 38.750005,271 l 2.5,0 z m -1.25,3.33333 A 1.6666667,1.6666667 0 0 0 38.333325,276 a 1.6666667,1.6666667 0 0 0 1.66667,1.66667 1.6666667,1.6666667 0 0 0 1.66667,-1.66667 1.6666667,1.6666667 0 0 0 -1.66667,-1.66667 z"
         style="display:inline;opacity:1;fill:#ffffff;fill-opacity:1;stroke:none;stroke-opacity:1;enable-background:new"
         inkscape:connector-curvature="0" />
      <path
         inkscape:connector-curvature="0"
         style="display:inline;opacity:1;fill:#ffffff;fill-opacity:1;stroke:none;stroke-opacity:1;enable-background:new"
         d="m 12.767847,277 0.06608,0.7902 a 2.3571429,2.3571429 0 0 1 0.688968,0.39844 l 0.718182,-0.33822 0.749994,1.29916 -0.652098,0.45279 a 2.3571429,2.3571429 0 0 1 0.03606,0.39763 2.3571429,2.3571429 0 0 1 -0.03432,0.39925 l 0.650388,0.45117 -0.75,1.29916 -0.71655,-0.33732 a 2.3571429,2.3571429 0 0 1 -0.69051,0.39591 L 12.767877,283 l -1.5,0 -0.06608,-0.7902 a 2.3571429,2.3571429 0 0 1 -0.688968,-0.39844 l -0.718182,0.33822 -0.75,-1.29916 0.652104,-0.45279 A 2.3571429,2.3571429 0 0 1 9.660693,280 a 2.3571429,2.3571429 0 0 1 0.03432,-0.39925 l -0.650388,-0.45117 0.75,-1.29916 0.71655,0.33732 a 2.3571429,2.3571429 0 0 1 0.69051,-0.39591 L 11.267853,277 l 1.5,0 z m -0.75,2 a 1,1 0 0 0 -1.000002,1 1,1 0 0 0 1.000002,1 1,1 0 0 0 1.000002,-1 1,1 0 0 0 -1.000002,-1 z"
         id="path4208" />
    </g>
  </g>
</svg>
