<?xml version="1.0" encoding="UTF-8" standalone="no"?>
<!-- Created with Inkscape (http://www.inkscape.org/) -->

<svg
   xmlns:dc="http://purl.org/dc/elements/1.1/"
   xmlns:cc="http://creativecommons.org/ns#"
   xmlns:rdf="http://www.w3.org/1999/02/22-rdf-syntax-ns#"
   xmlns:svg="http://www.w3.org/2000/svg"
   xmlns="http://www.w3.org/2000/svg"
   xmlns:sodipodi="http://sodipodi.sourceforge.net/DTD/sodipodi-0.dtd"
   xmlns:inkscape="http://www.inkscape.org/namespaces/inkscape"
   inkscape:export-ydpi="90.000000"
   inkscape:export-xdpi="90.000000"
   width="736"
   height="544"
   id="svg11300"
   sodipodi:version="0.32"
   inkscape:version="0.91 r13725"
   sodipodi:docname="emblem-mail.svg"
   inkscape:output_extension="org.inkscape.output.svg.inkscape"
   version="1.0"
   style="display:inline;enable-background:new"
   inkscape:export-filename="/home/sam/paper-template.png">
  <sodipodi:namedview
     stroke="#646464"
     fill="#909090"
     id="base"
     pagecolor="#ffffff"
     bordercolor="#666666"
     borderopacity="0.25490196"
     inkscape:pageopacity="0"
     inkscape:pageshadow="2"
     inkscape:zoom="1"
     inkscape:cx="134.56631"
     inkscape:cy="144.62659"
     inkscape:current-layer="layer6"
     showgrid="false"
     inkscape:grid-bbox="true"
     inkscape:document-units="px"
     inkscape:showpageshadow="false"
     inkscape:window-width="1316"
     inkscape:window-height="698"
     inkscape:window-x="25"
     inkscape:window-y="45"
     width="400px"
     height="300px"
     inkscape:snap-nodes="true"
     inkscape:snap-bbox="true"
     gridtolerance="10000"
     inkscape:object-nodes="true"
     inkscape:snap-grids="true"
     showguides="true"
     inkscape:guide-bbox="true"
     inkscape:window-maximized="1"
     inkscape:snap-smooth-nodes="true"
     inkscape:object-paths="true"
     inkscape:snap-intersection-paths="true">
    <inkscape:grid
       snapvisiblegridlinesonly="true"
       empspacing="4"
       visible="true"
       enabled="true"
       type="xygrid"
       id="grid5883"
       spacingx="1px"
       spacingy="1px" />
    <inkscape:grid
       snapvisiblegridlinesonly="true"
       empopacity="0.25098039"
       empcolor="#ff0000"
       opacity="0.1254902"
       color="#ff0000"
       spacingy="0.5px"
       spacingx="0.5px"
       enabled="false"
       visible="true"
       empspacing="2"
       id="grid11592"
       type="xygrid" />
  </sodipodi:namedview>
  <title
     id="title3004">Paper Icon Theme</title>
  <defs
     id="defs3">
    <clipPath
       id="clipPath4446"
       clipPathUnits="userSpaceOnUse">
      <path
         inkscape:connector-curvature="0"
         style="fill:#a5a5a5;fill-opacity:1;stroke:none"
         d="m 160,238 -19.08984,14.32422 c -0.0411,0.0267 -0.0783,0.0583 -0.11719,0.0879 l -0.0234,0.0176 0,0.002 C 140.30396,252.7972 140,253.35949 140,254 l 0,24 c 0,1.108 0.892,2 2,2 l 36,0 c 1.108,0 2,-0.892 2,-2 l 0,-24 c 0,-0.65501 -0.31697,-1.22937 -0.80078,-1.59375 l 0.008,-0.0117 L 160,238 Z"
         id="path4448" />
    </clipPath>
    <filter
       height="1.288016"
       y="-0.144008"
       width="1.2057061"
       x="-0.10285306"
       id="filter4456"
       style="color-interpolation-filters:sRGB"
       inkscape:collect="always">
      <feGaussianBlur
         id="feGaussianBlur4458"
         stdDeviation="1.8005944"
         inkscape:collect="always" />
    </filter>
    <filter
       height="1.2676923"
       y="-0.13384615"
       width="1.2175"
       x="-0.10875"
       id="filter4507"
       style="color-interpolation-filters:sRGB"
       inkscape:collect="always">
      <feGaussianBlur
         id="feGaussianBlur4509"
         stdDeviation="1.45"
         inkscape:collect="always" />
    </filter>
    <filter
       height="1.144008"
       y="-0.072003998"
       width="1.1028531"
       x="-0.05142653"
       id="filter4524"
       style="color-interpolation-filters:sRGB"
       inkscape:collect="always">
      <feGaussianBlur
         id="feGaussianBlur4526"
         stdDeviation="0.90029722"
         inkscape:collect="always" />
    </filter>
    <clipPath
       id="clipPath4303"
       clipPathUnits="userSpaceOnUse">
      <path
         inkscape:connector-curvature="0"
         style="fill:#a5a5a5;fill-opacity:1;stroke:none"
         d="m 232,221.2 -26.72577,20.05391 c -0.0575,0.0374 -0.10962,0.0816 -0.16407,0.12306 l -0.0328,0.0247 0,0.003 C 204.42555,241.91647 204,242.70368 204,243.60039 l 0,33.6 c 0,1.55119 1.2488,2.8 2.80001,2.8 l 50.39999,0 c 1.5512,0 2.8,-1.24881 2.8,-2.8 l 0,-33.6 c 0,-0.91702 -0.44376,-1.72112 -1.12109,-2.23125 l 0.0112,-0.0164 L 232,221.20037 Z"
         id="path4305" />
    </clipPath>
    <filter
       height="1.1333333"
       y="-0.066666655"
       width="1.1090909"
       x="-0.054545462"
       id="filter4315"
       style="color-interpolation-filters:sRGB"
       inkscape:collect="always">
      <feGaussianBlur
         id="feGaussianBlur4317"
         stdDeviation="0.99999981"
         inkscape:collect="always" />
    </filter>
    <clipPath
       id="clipPath4321"
       clipPathUnits="userSpaceOnUse">
      <path
         style="fill:#a5a5a5;fill-opacity:1;stroke:none"
         d="m 160,238 -19.08984,14.32422 c -0.0411,0.0267 -0.0783,0.0583 -0.11719,0.0879 l -0.0234,0.0176 0,0.002 C 140.30396,252.7972 140,253.35949 140,254 l 0,24 c 0,1.108 0.892,2 2,2 l 36,0 c 1.108,0 2,-0.892 2,-2 l 0,-24 c 0,-0.65501 -0.31697,-1.22937 -0.80078,-1.59375 l 0.008,-0.0117 L 160,238 Z"
         id="path4323"
         inkscape:connector-curvature="0" />
    </clipPath>
    <clipPath
       id="clipPath4327"
       clipPathUnits="userSpaceOnUse">
      <path
         inkscape:connector-curvature="0"
         id="path4329"
         d="m 160,238 -19.08984,14.32422 c -0.0411,0.0267 -0.0783,0.0583 -0.11719,0.0879 l -0.0234,0.0176 0,0.002 C 140.30396,252.7972 140,253.35949 140,254 l 0,24 c 0,1.108 0.892,2 2,2 l 36,0 c 1.108,0 2,-0.892 2,-2 l 0,-24 c 0,-0.65501 -0.31697,-1.22937 -0.80078,-1.59375 l 0.008,-0.0117 L 160,238 Z"
         style="fill:#a5a5a5;fill-opacity:1;stroke:none" />
    </clipPath>
    <clipPath
       id="clipPath4334"
       clipPathUnits="userSpaceOnUse">
      <path
         inkscape:connector-curvature="0"
         style="fill:#a5a5a5;fill-opacity:1;stroke:none"
         d="m 160,238 -19.08984,14.32422 c -0.0411,0.0267 -0.0783,0.0583 -0.11719,0.0879 l -0.0234,0.0176 0,0.002 C 140.30396,252.7972 140,253.35949 140,254 l 0,24 c 0,1.108 0.892,2 2,2 l 36,0 c 1.108,0 2,-0.892 2,-2 l 0,-24 c 0,-0.65501 -0.31697,-1.22937 -0.80078,-1.59375 l 0.008,-0.0117 L 160,238 Z"
         id="path4336" />
    </clipPath>
    <filter
       height="1.1338462"
       y="-0.066923074"
       width="1.10875"
       x="-0.054375"
       id="filter4338"
       style="color-interpolation-filters:sRGB"
       inkscape:collect="always">
      <feGaussianBlur
         id="feGaussianBlur4340"
         stdDeviation="0.725"
         inkscape:collect="always" />
    </filter>
    <clipPath
       id="clipPath4358"
       clipPathUnits="userSpaceOnUse">
      <path
         id="path4360"
         d="m 160,238 -19.08984,14.32422 c -0.0411,0.0268 -0.0783,0.0584 -0.1172,0.0878 l -0.0234,0.018 0,0.002 C 140.30396,252.7972 140,253.3595 140,254 l 0,24 c 0,1.108 0.892,2 2,2 l 36,0 c 1.108,0 2,-0.892 2,-2 l 0,-24 c 0,-0.655 -0.31697,-1.22938 -0.80078,-1.59376 l 0.008,-0.012 L 160,238 Z"
         style="fill:#a5a5a5;fill-opacity:1;stroke:none"
         inkscape:connector-curvature="0" />
    </clipPath>
    <clipPath
       id="clipPath4403"
       clipPathUnits="userSpaceOnUse">
      <path
         inkscape:connector-curvature="0"
         style="fill:#a5a5a5;fill-opacity:1;stroke:none"
         d="m 159.99999,237.99999 -19.08983,14.32423 c -0.0411,0.0267 -0.0783,0.0583 -0.1172,0.0879 l -0.0234,0.0176 0,0.003 c -0.46558,0.36557 -0.76954,0.92787 -0.76954,1.56837 l 2e-5,17.4274 c 0,2.85714 2.25294,2.85714 2.85714,2.85714 l 34.28572,0 c 0,0 2.85714,0 2.85714,-2.85714 l -3e-5,-17.42739 c 0,-0.65501 -0.31697,-1.22937 -0.80077,-1.59375 l 0.009,-0.0114 -19.20721,-14.39455 z"
         id="path4405"
         sodipodi:nodetypes="cccccssscsscccc" />
    </clipPath>
    <filter
       height="1.0468568"
       y="-0.02342841"
       width="1.0492004"
       x="-0.024600178"
       id="filter4313"
       style="color-interpolation-filters:sRGB"
       inkscape:collect="always">
      <feGaussianBlur
         id="feGaussianBlur4315"
         stdDeviation="4.5920332"
         inkscape:collect="always" />
    </filter>
  </defs>
  <metadata
     id="metadata4">
    <rdf:RDF>
      <cc:Work
         rdf:about="">
        <dc:format>image/svg+xml</dc:format>
        <dc:type
           rdf:resource="http://purl.org/dc/dcmitype/StillImage" />
        <dc:creator>
          <cc:Agent>
            <dc:title>Sam Hewitt</dc:title>
          </cc:Agent>
        </dc:creator>
        <dc:source />
        <cc:license
           rdf:resource="http://creativecommons.org/licenses/by-sa/3.0/" />
        <dc:title>Paper Icon Theme</dc:title>
        <dc:subject>
          <rdf:Bag />
        </dc:subject>
        <dc:date />
        <dc:rights>
          <cc:Agent>
            <dc:title />
          </cc:Agent>
        </dc:rights>
        <dc:publisher>
          <cc:Agent>
            <dc:title />
          </cc:Agent>
        </dc:publisher>
        <dc:identifier />
        <dc:relation />
        <dc:language />
        <dc:coverage />
        <dc:description />
        <dc:contributor>
          <cc:Agent>
            <dc:title />
          </cc:Agent>
        </dc:contributor>
      </cc:Work>
      <cc:Work
         rdf:about="">
        <dc:format>image/svg+xml</dc:format>
        <dc:type
           rdf:resource="http://purl.org/dc/dcmitype/StillImage" />
      </cc:Work>
    </rdf:RDF>
  </metadata>
  <g
     transform="translate(0,244)"
     id="layer1"
     inkscape:label="Icon"
     inkscape:groupmode="layer"
     style="display:inline">
    <g
       inkscape:groupmode="layer"
       id="layer7"
       inkscape:label="Baseplate"
       style="display:none">
      <text
         id="context"
         inkscape:label="context"
         style="font-style:normal;font-variant:normal;font-weight:normal;font-stretch:normal;font-size:18px;font-family:'DejaVu Sans';-inkscape-font-specification:'DejaVu Sans';display:inline;fill:#000000;fill-opacity:1;stroke:none;enable-background:new"
         x="15.006836"
         xml:space="preserve"
         y="332.76685"><tspan
           id="tspan3933"
           sodipodi:role="line"
           x="15.006836"
           y="332.76685"
           style="font-style:normal;font-variant:normal;font-weight:normal;font-stretch:normal;font-family:'DejaVu Sans';-inkscape-font-specification:'DejaVu Sans'">emblems</tspan></text>
      <text
         id="icon-name"
         inkscape:label="icon-name"
         sodipodi:linespacing="125%"
         style="font-style:normal;font-variant:normal;font-weight:bold;font-stretch:normal;font-size:18px;line-height:125%;font-family:'DejaVu Sans';-inkscape-font-specification:'DejaVu Sans Bold';text-align:start;writing-mode:lr-tb;text-anchor:start;display:inline;fill:#000000;fill-opacity:1;stroke:none;enable-background:new"
         x="142.48828"
         xml:space="preserve"
         y="332.76685"><tspan
           id="tspan3937"
           sodipodi:role="line"
           x="142.48828"
           y="332.76685"
           style="font-style:normal;font-variant:normal;font-weight:bold;font-stretch:normal;font-size:18px;font-family:'DejaVu Sans';-inkscape-font-specification:'DejaVu Sans Bold'">emblem-mail</tspan></text>
      <rect
         transform="scale(-1,1)"
         inkscape:label="16x16"
         y="268"
         x="-32"
         height="16"
         width="16"
         id="rect16x16"
         style="display:inline;overflow:visible;visibility:visible;fill:#e9e9e9;fill-opacity:1;fill-rule:nonzero;stroke:none;stroke-width:2;marker:none;enable-background:accumulate" />
      <rect
         transform="scale(-1,1)"
         inkscape:label="24x24"
         y="260"
         x="-72"
         height="24"
         width="24"
         id="rect24x24"
         style="display:inline;overflow:visible;visibility:visible;fill:#e9e9e9;fill-opacity:1;fill-rule:nonzero;stroke:none;stroke-width:2;marker:none;enable-background:accumulate" />
      <rect
         transform="scale(-1,1)"
         inkscape:label="32x32"
         y="252"
         x="-128"
         height="32"
         width="32"
         id="rect32x32"
         style="display:inline;overflow:visible;visibility:visible;fill:#e9e9e9;fill-opacity:1;fill-rule:nonzero;stroke:none;stroke-width:2;marker:none;enable-background:accumulate" />
      <rect
         transform="scale(-1,1)"
         style="display:inline;overflow:visible;visibility:visible;fill:#e9e9e9;fill-opacity:1;fill-rule:nonzero;stroke:none;stroke-width:2;marker:none;enable-background:accumulate"
         id="rect48x48"
         width="48"
         height="48"
         x="-192"
         y="236"
         inkscape:label="48x48" />
      <rect
         transform="scale(-1,1)"
         inkscape:label="48x48"
         y="-228"
         x="-720"
         height="512"
         width="512"
         id="rect3951"
         style="display:inline;overflow:visible;visibility:visible;fill:#e9e9e9;fill-opacity:1;fill-rule:nonzero;stroke:none;stroke-width:2;marker:none;enable-background:accumulate" />
    </g>
    <g
       style="display:inline"
       inkscape:label="Symbols"
       id="layer6"
       inkscape:groupmode="layer">
      <path
         style="opacity:0.2;fill:#000000;fill-opacity:1;stroke:none"
         d="M 464,-216.40624 250.18752,-55.96872 c -0.46,0.2992 -0.87696,0.6528 -1.31248,0.98432 l -0.2504,0.2032 0,0.016 C 243.41056,-50.6712 240,-44.3768 240,-37.20312 L 240,199.60936 240,230 c 0,22.07016 18.2876,23.73232 22.57816,23.87504 L 262.40624,254 264,254 l 400,0 1.59376,0 -0.1408,-0.0936 C 687.93608,252.9168 688,230 688,230 l 0,-30.39064 0,-236.81248 c 0,-7.33616 -3.55008,-13.76272 -8.96872,-17.84376 l 0.0936,-0.1248 L 464,-216.39064 l 0,-0.016 z"
         id="path4235"
         inkscape:connector-curvature="0" />
      <path
         style="opacity:0.1;fill:#000000;fill-opacity:1;stroke:#000000;filter:url(#filter4313);stroke-opacity:1;stroke-width:8;stroke-miterlimit:4;stroke-dasharray:none"
         d="M 464,-214.40624 250.18752,-53.96872 c -0.46,0.2992 -0.87696,0.6528 -1.31248,0.98432 l -0.2504,0.2032 0,0.016 C 243.41056,-48.6712 240,-42.3768 240,-35.20312 L 240,201.60936 240,232 c 0,22.07016 18.2876,23.73232 22.57816,23.87504 L 262.40624,256 264,256 l 400,0 1.59376,0 -0.1408,-0.0936 C 687.93608,254.9168 688,232 688,232 l 0,-30.39064 0,-236.81248 c 0,-7.33616 -3.55008,-13.76272 -8.96872,-17.84376 l 0.0936,-0.1248 L 464,-214.39064 l 0,-0.016 z"
         id="path4317"
         inkscape:connector-curvature="0" />
      <path
         inkscape:connector-curvature="0"
         id="path4539"
         d="m 112,253.59961 -13.363281,10.02734 c -0.02875,0.0187 -0.0548,0.0418 -0.08203,0.0625 l -0.01563,0.0117 0,0.002 C 98.213157,263.95902 97.999999,264.35243 98,264.80078 L 98,277 l 0,4 c 10e-7,1.23653 0.681547,1.7878 1.480469,1.94531 L 99.400391,283 100,283 l 24,0 0.59961,0 -0.0957,-0.0664 C 125.98421,282.62123 126,281 126,281 l 0,-4 0,-12.19922 c 0,-0.45851 -0.22189,-0.86016 -0.56055,-1.11523 l 0.006,-0.008 L 112,253.60156 l 0,-0.002 z"
         style="opacity:0.2;fill:#000000;fill-opacity:1;stroke:none" />
      <path
         inkscape:connector-curvature="0"
         id="path4558"
         d="m 168,239 -19.08984,14.32422 c -0.0411,0.0267 -0.0783,0.0583 -0.11719,0.0879 l -0.0234,0.0176 0,0.002 C 148.30392,253.79712 148,254.35949 148,255 l 0,14 0,10 c 0,1.108 0.892,2 2,2 l 36,0 c 1.108,0 2,-0.892 2,-2 l 0,-10 0,-14 c 0,-0.65501 -0.31697,-1.22937 -0.80078,-1.59375 l 0.008,-0.0117 L 168,239 Z"
         style="opacity:0.2;fill:#000000;fill-opacity:1;stroke:none" />
      <path
         inkscape:connector-curvature="0"
         id="path4564"
         d="m 60,262 -9.544922,7.16211 c -0.02055,0.0134 -0.03914,0.0283 -0.05859,0.043 l -0.01172,0.01 0,0.002 C 50.151966,269.39939 50,269.67975 50,270 l 0,12 c 0,0.0736 0.0085,0.1055 0.02344,0.11328 C 50.08184,282.61087 50.486218,283 51,283 l 18,0 c 0.554,0 1,-0.446 1,-1 l 0,-2 0,-10 c 0,-0.3275 -0.158486,-0.61469 -0.400391,-0.79688 l 0.0039,-0.006 L 60,262 Z"
         style="opacity:0.2;fill:#000000;fill-opacity:1;stroke:none" />
      <path
         sodipodi:nodetypes="cccccssscsscccc"
         id="path4428"
         d="m 111.99999,252.6002 -13.362885,10.02696 c -0.02875,0.0187 -0.05481,0.0408 -0.08204,0.0615 l -0.0164,0.0123 0,0.002 c -0.325905,0.2559 -0.538681,0.64951 -0.53868,1.09786 L 98,276 c 2e-6,2 1.577058,2 2,2 l 24,0 c 0,0 2,0 2,-2 l -2e-5,-12.19917 c 0,-0.45851 -0.22188,-0.86056 -0.56054,-1.11563 l 0.006,-0.008 -13.44505,-10.07618 z"
         style="fill:#9f9f9f;fill-opacity:1;stroke:none"
         inkscape:connector-curvature="0" />
      <rect
         clip-path="url(#clipPath4403)"
         style="opacity:0.2;fill:#000000;fill-opacity:1;stroke:none;stroke-width:2;stroke-linecap:round;stroke-linejoin:miter;stroke-miterlimit:4;stroke-dasharray:none;stroke-opacity:1;filter:url(#filter4507)"
         id="rect4430"
         width="32"
         height="26"
         x="144"
         y="243"
         rx="2"
         ry="2"
         transform="matrix(0.7,0,0,0.7,-5.8e-6,86.000205)" />
      <rect
         ry="1.4987892"
         rx="1.4999924"
         y="256"
         x="100.99999"
         height="18"
         width="21.999992"
         id="rect4435"
         style="opacity:1;fill:#ececec;fill-opacity:1;stroke:none;stroke-width:2;stroke-linecap:round;stroke-linejoin:miter;stroke-miterlimit:4;stroke-dasharray:none;stroke-opacity:1" />
      <path
         clip-path="url(#clipPath4446)"
         style="opacity:0.2;fill:#000000;fill-opacity:1;stroke:none;filter:url(#filter4456)"
         d="m 140,254 38,26 -34.28571,-1.71429 c -1.10662,-0.0553 -1.91502,-0.89526 -2,-2 z"
         id="path4439"
         inkscape:connector-curvature="0"
         sodipodi:nodetypes="ccssc"
         transform="matrix(0.7,0,0,0.7,-5.8e-6,86.000205)" />
      <path
         sodipodi:nodetypes="cccsc"
         inkscape:connector-curvature="0"
         id="path4441"
         d="m 97.99999,263.8002 26.6,18.2 L 100,282 c -1,0 -1.999999,-0.5 -2,-2 z"
         style="fill:#bbbbbb;fill-opacity:1;stroke:none" />
      <path
         transform="matrix(-0.7,0,0,0.7,223.99998,86.000205)"
         sodipodi:nodetypes="ccssc"
         inkscape:connector-curvature="0"
         id="path4443"
         d="m 140,254 38,26 -34.28571,-1.71429 c -1.10662,-0.0553 -1.91502,-0.89526 -2,-2 z"
         style="opacity:0.1;fill:#000000;fill-opacity:1;stroke:none;filter:url(#filter4524)"
         clip-path="url(#clipPath4446)" />
      <path
         sodipodi:nodetypes="sccccs"
         inkscape:connector-curvature="0"
         id="path4445"
         d="m 124,282 c 2,-2e-5 2,-2 2,-2 l -1e-5,-16.1998 0,0 -26.599995,18.2 z"
         style="fill:#d6d6d6;fill-opacity:1;stroke:none" />
      <path
         id="path4447"
         d="m 125.99999,263.8002 -26.599995,18.2 1.022655,0 25.57734,-17.5 0,-0.7 z"
         style="opacity:0.1;fill:#ffffff;fill-opacity:1;stroke:none"
         inkscape:connector-curvature="0" />
      <path
         sodipodi:nodetypes="ccccc"
         inkscape:connector-curvature="0"
         id="path4449"
         d="m 97.99999,263.8002 0,0.7 13.48867,9.22851 0.51133,-0.35 z"
         style="opacity:0.1;fill:#ffffff;fill-opacity:1;stroke:none" />
      <path
         style="opacity:0.1;fill:#ffffff;fill-opacity:1;stroke:none;stroke-width:2;stroke-linecap:round;stroke-linejoin:miter;stroke-miterlimit:4;stroke-dasharray:none;stroke-opacity:1"
         d="m 102.49999,256 c -0.831,0 -1.5,0.6687 -1.5,1.49903 l 0,0.5 c 0,-0.83033 0.669,-1.49903 1.5,-1.49903 l 19,0 c 0.83099,0 1.5,0.6687 1.5,1.49903 l 0,-0.5 c 0,-0.83033 -0.66901,-1.49903 -1.5,-1.49903 l -19,0 z"
         id="path4455"
         inkscape:connector-curvature="0" />
      <path
         sodipodi:nodetypes="cccccssssssccc"
         id="rect4388"
         d="m 168,238 -19.08984,14.32422 c -0.0411,0.0267 -0.0783,0.0583 -0.11719,0.0879 l -0.0234,0.0176 0,0.002 C 148.30396,252.7972 148,253.35949 148,254 l 0,8 c 0,1.108 0.892,2 2,2 l 36,0 c 1.108,0 2,-0.892 2,-2 l 0,-8 c 0,-0.65501 -0.31697,-1.22937 -0.80078,-1.59375 l 0.008,-0.0117 z"
         style="fill:#9f9f9f;fill-opacity:1;stroke:none"
         inkscape:connector-curvature="0" />
      <rect
         transform="translate(8,0)"
         clip-path="url(#clipPath4334)"
         style="opacity:0.2;fill:#000000;fill-opacity:1;stroke:none;stroke-width:2;stroke-linecap:round;stroke-linejoin:miter;stroke-miterlimit:4;stroke-dasharray:none;stroke-opacity:1;filter:url(#filter4338)"
         id="rect4505"
         width="32"
         height="26"
         x="144"
         y="243"
         rx="2"
         ry="2" />
      <path
         id="path4417"
         d="m 168,238 -19.08984,14.32422 c -0.0411,0.0267 -0.0783,0.0583 -0.11719,0.0879 l -0.0234,0.0176 0,0.002 C 148.30396,252.7972 148,253.35949 148,254 l 0,1 c 0,-0.64051 0.30392,-1.20288 0.76953,-1.56836 l 0,-0.002 0.0234,-0.0176 c 0.0389,-0.0296 0.0761,-0.0612 0.11719,-0.0879 L 168,239 l 19.20703,14.39453 -0.008,0.0117 C 187.68303,253.77063 188,254.34499 188,255 l 0,-1 c 0,-0.65501 -0.31697,-1.22937 -0.80078,-1.59375 l 0.008,-0.0117 L 168,238 Z"
         style="opacity:0.1;fill:#ffffff;fill-opacity:1;stroke:none"
         inkscape:connector-curvature="0" />
      <rect
         ry="2"
         rx="2"
         y="242"
         x="152"
         height="26"
         width="32"
         id="rect4386"
         style="opacity:1;fill:#ececec;fill-opacity:1;stroke:none;stroke-width:2;stroke-linecap:round;stroke-linejoin:miter;stroke-miterlimit:4;stroke-dasharray:none;stroke-opacity:1" />
      <path
         transform="translate(8,0)"
         clip-path="url(#clipPath4446)"
         style="opacity:0.2;fill:#000000;fill-opacity:1;stroke:none;filter:url(#filter4456)"
         d="m 140,254 38,26 -40,4 c -1.1025,0.11025 -2.15669,-0.90314 -2,-2 z"
         id="path4440"
         inkscape:connector-curvature="0"
         sodipodi:nodetypes="ccssc" />
      <path
         sodipodi:nodetypes="ccssc"
         inkscape:connector-curvature="0"
         id="rect4203"
         d="m 148,254 38,26 -36,0 c -1.108,0 -2,-0.892 -2,-2 z"
         style="fill:#bbbbbb;fill-opacity:1;stroke:none" />
      <path
         transform="matrix(-1,0,0,1,328,0)"
         sodipodi:nodetypes="ccssc"
         inkscape:connector-curvature="0"
         id="path4450"
         d="m 140,254 38,26 -40,4 c -1.1025,0.11025 -2.15669,-0.90314 -2,-2 z"
         style="opacity:0.1;fill:#000000;fill-opacity:1;stroke:none;filter:url(#filter4524)"
         clip-path="url(#clipPath4446)" />
      <path
         sodipodi:nodetypes="sscccs"
         inkscape:connector-curvature="0"
         id="rect4378"
         d="m 186,280 c 1.108,0 2,-0.892 2,-2 l 0,-24 0,0 -38,26 z"
         style="fill:#d6d6d6;fill-opacity:1;stroke:none" />
      <path
         sodipodi:nodetypes="sscsscsss"
         inkscape:connector-curvature="0"
         id="rect4396"
         d="m 154,242 c -1.108,0 -2,0.892 -2,2 l 0,1 c 0,-1.108 0.892,-2 2,-2 l 28,0 c 1.108,0 2,0.892 2,2 l 0,-1 c 0,-1.108 -0.892,-2 -2,-2 z"
         style="opacity:0.1;fill:#ffffff;fill-opacity:1;stroke:none;stroke-width:2;stroke-linecap:round;stroke-linejoin:miter;stroke-miterlimit:4;stroke-dasharray:none;stroke-opacity:1" />
      <path
         id="path4422"
         d="m 188,254 -38,26 1.46094,0 L 188,255 l 0,-1 z"
         style="opacity:0.1;fill:#ffffff;fill-opacity:1;stroke:none"
         inkscape:connector-curvature="0" />
      <path
         sodipodi:nodetypes="ccccc"
         inkscape:connector-curvature="0"
         id="path4427"
         d="m 148,254 0,1 19.26953,13.18359 0.73047,-0.5 z"
         style="opacity:0.1;fill:#ffffff;fill-opacity:1;stroke:none" />
      <path
         sodipodi:nodetypes="cccccssssssccc"
         inkscape:connector-curvature="0"
         style="fill:#9f9f9f;fill-opacity:1;stroke:none"
         d="m 60,261 -9.54492,7.16211 c -0.02055,0.0134 -0.03915,0.0292 -0.0586,0.0439 l -0.0117,0.009 0,10e-4 C 50.15198,268.3986 50,268.67975 50,269 l 0,12 c 0,0.554 0.445999,-1 1,-1 l 18,0 c 0.554003,0 1,-0.446 1,-1 l 0,-10 c 0,-0.3275 -0.158485,-0.61469 -0.40039,-0.79688 l 0.004,-0.006 z"
         id="path4744" />
      <rect
         clip-path="url(#clipPath4358)"
         transform="matrix(0.5,0,0,0.5,-20,142)"
         ry="2"
         rx="2"
         y="243"
         x="144"
         height="26"
         width="32"
         id="rect4746"
         style="opacity:0.2;fill:#000000;fill-opacity:1;stroke:none;stroke-width:2;stroke-linecap:round;stroke-linejoin:miter;stroke-miterlimit:4;stroke-dasharray:none;stroke-opacity:1;filter:url(#filter4507)" />
      <path
         inkscape:connector-curvature="0"
         transform="translate(0,76)"
         id="path4748"
         d="m 60,185 -9.544922,7.16211 c -0.02055,0.0134 -0.03914,0.0283 -0.05859,0.043 l -0.01172,0.01 0,0.002 C 50.151966,192.39939 50,192.67975 50,193 l 0,0.5 0,0.5 c 0,-0.32025 0.151961,-0.60242 0.384766,-0.78516 l 0.01172,-0.01 c 0.01945,-0.0148 0.03804,-0.0297 0.05859,-0.043 L 60,186 l 9.603516,7.19727 -0.0039,0.006 C 69.841609,193.38517 70,193.6725 70,194 l 0,-0.5 0,-0.5 c 0,-0.3275 -0.158486,-0.61469 -0.400391,-0.79688 l 0.0039,-0.006 L 60,185 Z"
         style="opacity:0.1;fill:#ffffff;fill-opacity:1;stroke:none" />
      <rect
         style="opacity:1;fill:#ececec;fill-opacity:1;stroke:none;stroke-width:2;stroke-linecap:round;stroke-linejoin:miter;stroke-miterlimit:4;stroke-dasharray:none;stroke-opacity:1"
         id="rect4750"
         width="16"
         height="13"
         x="52"
         y="263"
         rx="1"
         ry="1" />
      <path
         transform="matrix(0.5,0,0,0.5,-20,142)"
         sodipodi:nodetypes="ccssc"
         inkscape:connector-curvature="0"
         id="path4754"
         d="m 140,254 38,26 -40,4 c -1.1025,0.11025 -2.15669,-0.90314 -2,-2 z"
         style="opacity:0.2;fill:#000000;fill-opacity:1;stroke:none;filter:url(#filter4456)"
         clip-path="url(#clipPath4446)" />
      <path
         style="fill:#bbbbbb;fill-opacity:1;stroke:none"
         d="m 50,269 19,13 -18,0 c -0.554,0 -1,-0.446 -1,-1 z"
         id="path4756"
         inkscape:connector-curvature="0"
         sodipodi:nodetypes="ccssc" />
      <path
         inkscape:connector-curvature="0"
         id="path4768"
         transform="translate(0,76)"
         d="m 50,193 0,0.5 0,0.5 9.634766,6.5918 L 60,200.3418 59.634766,200.0918 60,199.8418 50,193 Z"
         style="opacity:0.1;fill:#ffffff;fill-opacity:1;stroke:none" />
      <path
         clip-path="url(#clipPath4446)"
         style="opacity:0.1;fill:#000000;fill-opacity:1;stroke:none;filter:url(#filter4524)"
         d="m 140,254 38,26 -40,4 c -1.1025,0.11025 -2.15669,-0.90314 -2,-2 z"
         id="path4758"
         inkscape:connector-curvature="0"
         sodipodi:nodetypes="ccssc"
         transform="matrix(-0.5,0,0,0.5,140,142)" />
      <path
         style="fill:#d6d6d6;fill-opacity:1;stroke:none"
         d="m 69,282 c 0.554,0 1,-0.446 1,-1 l 0,-12 0,0 -19,13 z"
         id="path4760"
         inkscape:connector-curvature="0"
         sodipodi:nodetypes="sscccs" />
      <path
         inkscape:connector-curvature="0"
         id="path4762"
         transform="translate(0,76)"
         d="m 53,187 c -0.554,0 -1,0.446 -1,1 l 0,0.5 0,0.5 c 0,-0.554 0.446,-1 1,-1 l 14,0 c 0.554,0 1,0.446 1,1 l 0,-0.5 0,-0.5 c 0,-0.554 -0.446,-1 -1,-1 l -14,0 z"
         style="opacity:0.1;fill:#ffffff;fill-opacity:1;stroke:none;stroke-width:2;stroke-linecap:round;stroke-linejoin:miter;stroke-miterlimit:4;stroke-dasharray:none;stroke-opacity:1" />
      <path
         inkscape:connector-curvature="0"
         id="path4766"
         transform="translate(0,76)"
         d="m 70,193 -19,13 0.730469,0 0.730469,0 L 70,194 l 0,-0.5 0,-0.5 z"
         style="opacity:0.1;fill:#ffffff;fill-opacity:1;stroke:none" />
      <path
         sodipodi:nodetypes="cccccsssssscccc"
         inkscape:connector-curvature="0"
         style="fill:#9f9f9f;fill-opacity:1;stroke:none"
         d="m 24,268 -7.635932,4.92551 c -0.01643,0.0107 -0.03132,0.0233 -0.04688,0.0352 l -0.0094,0.007 0,8.6e-4 c -0.186232,0.14623 -0.307817,0.37114 -0.307817,0.62735 l 0,7.59999 c 0,0.4432 0.3568,0.8 0.800002,0.8 l 14.399992,0 c 0.4432,0 0.8,-0.3568 0.8,-0.8 l 0,-7.59999 c 0,-0.26201 -0.126789,-0.49175 -0.320312,-0.6375 l 0.0032,-0.005 L 24,268.0001 Z"
         id="path4465" />
      <path
         sodipodi:nodetypes="cccccscccccccccsccc"
         inkscape:connector-curvature="0"
         style="opacity:0.1;fill:#ffffff;fill-opacity:1;stroke:none"
         d="m 24,268 -7.635932,4.92551 c -0.01643,0.0107 -0.03132,0.0233 -0.04688,0.0352 l -0.0094,0.007 0,8.6e-4 c -0.186232,0.14623 -0.307817,0.37114 -0.307817,0.62735 l 0,0.39999 c 0,-0.2562 0.121571,-0.48115 0.307814,-0.62734 l 0,-8.5e-4 0.0094,-0.007 c 0.01557,-0.0119 0.03044,-0.0245 0.04687,-0.0352 L 24,268.4 l 7.682811,4.95364 -0.0032,0.005 C 31.873211,273.50408 32,273.73383 32,273.99583 l 0,-0.4 c 0,-0.262 -0.126789,-0.49175 -0.320315,-0.6375 l 0.0032,-0.005 z"
         id="path4470" />
      <rect
         style="opacity:1;fill:#ececec;fill-opacity:1;stroke:none;stroke-width:2;stroke-linecap:round;stroke-linejoin:miter;stroke-miterlimit:4;stroke-dasharray:none;stroke-opacity:1"
         id="rect4472"
         width="12"
         height="10"
         x="18"
         y="270"
         rx="0"
         ry="0" />
      <path
         transform="matrix(0.39999985,0,0,0.39999985,-39.999974,171.99586)"
         sodipodi:nodetypes="ccssc"
         inkscape:connector-curvature="0"
         id="path4476"
         d="m 140,254 38,26 -40,4 c -1.1025,0.11025 -2.15669,-0.90314 -2,-2 z"
         style="opacity:0.2;fill:#000000;fill-opacity:1;stroke:none;filter:url(#filter4456)"
         clip-path="url(#clipPath4446)" />
      <path
         style="fill:#bbbbbb;fill-opacity:1;stroke:none"
         d="m 16.000003,273.59582 15.199994,10.4 -14.342852,0 c -0.05714,0 -0.857142,0 -0.857142,-0.85714 z"
         id="path4478"
         inkscape:connector-curvature="0"
         sodipodi:nodetypes="ccssc" />
      <path
         clip-path="url(#clipPath4446)"
         style="opacity:0.1;fill:#000000;fill-opacity:1;stroke:none;filter:url(#filter4524)"
         d="m 140,254 38,26 -40,4 c -1.1025,0.11025 -2.15669,-0.90314 -2,-2 z"
         id="path4480"
         inkscape:connector-curvature="0"
         sodipodi:nodetypes="ccssc"
         transform="matrix(-0.39999985,0,0,0.39999985,87.999973,171.99586)" />
      <path
         style="fill:#d6d6d6;fill-opacity:1;stroke:none"
         d="m 31.142854,283.99582 c 0.857143,0 0.857143,-0.85714 0.857143,-0.85714 l 0,-9.54286 0,0 -15.199992,10.4 z"
         id="path4482"
         inkscape:connector-curvature="0"
         sodipodi:nodetypes="sccccs" />
      <path
         sodipodi:nodetypes="ccccc"
         inkscape:connector-curvature="0"
         style="opacity:0.1;fill:#ffffff;fill-opacity:1;stroke:none"
         d="m 31.999997,273.59582 -15.199992,10.4 0.584374,0 14.615618,-10 z"
         id="path4484" />
      <path
         style="opacity:0.1;fill:#ffffff;fill-opacity:1;stroke:none"
         d="m 16.000003,273.59582 0,0.4 7.707811,5.27344 0.292186,-0.2 z"
         id="path4486"
         inkscape:connector-curvature="0"
         sodipodi:nodetypes="ccccc" />
      <path
         inkscape:connector-curvature="0"
         id="rect4274"
         transform="translate(0,76)"
         d="m 18,194 0,1 12,0 0,-1 -12,0 z"
         style="opacity:0.2;fill:#ffffff;fill-opacity:1;stroke:none;stroke-width:2;stroke-linecap:round;stroke-linejoin:miter;stroke-miterlimit:4;stroke-dasharray:none;stroke-opacity:1" />
      <path
         inkscape:connector-curvature="0"
         id="path4570"
         d="M 464,-214.40624 250.18752,-53.96872 c -0.46,0.2992 -0.87696,0.6528 -1.31248,0.98432 l -0.2504,0.2032 0,0.016 C 243.41056,-48.6712 240,-42.3768 240,-35.20312 L 240,201.60936 240,232 c 0,22.07016 18.2876,23.73232 22.57816,23.87504 L 262.40624,256 264,256 l 400,0 1.59376,0 -0.1408,-0.0936 C 687.93608,254.9168 688,232 688,232 l 0,-30.39064 0,-236.81248 c 0,-7.33616 -3.55008,-13.76272 -8.96872,-17.84376 l 0.0936,-0.1248 L 464,-214.39064 l 0,-0.016 z"
         style="opacity:0.2;fill:#000000;fill-opacity:1;stroke:none;filter:url(#filter4313)" />
      <path
         inkscape:connector-curvature="0"
         style="fill:#9f9f9f;fill-opacity:1;stroke:none"
         d="M 464,-218.4 250.19384,-57.96872 c -0.46,0.2992 -0.87696,0.6528 -1.31256,0.98448 l -0.2624,0.1976 0,0.024 C 243.4044,-52.66824 240,-46.37056 240,-39.19688 l 0,236.8 c 0,12.40952 9.9904,22.4 22.40008,22.4 l 403.19992,0 c 12.4096,0 22.4,-9.99048 22.4,-22.4 l 0,-236.8 c 0,-7.33616 -3.55008,-13.76896 -8.96872,-17.85 l 0.0896,-0.1312 L 464,-218.39704 Z"
         id="path4262"
         sodipodi:nodetypes="cccccsssssscccc" />
      <rect
         transform="matrix(8,0,0,8,-1392,-1988)"
         ry="2.9975784"
         rx="2.9999847"
         y="227"
         x="210"
         height="36"
         width="43.999985"
         id="rect4299"
         style="opacity:0.2;fill:#000000;fill-opacity:1;stroke:none;stroke-width:2;stroke-linecap:round;stroke-linejoin:miter;stroke-miterlimit:4;stroke-dasharray:none;stroke-opacity:1;filter:url(#filter4315)"
         clip-path="url(#clipPath4303)" />
      <path
         id="path4266"
         transform="translate(0,-244)"
         d="M 464 25.599609 L 250.19336 186.03125 C 249.73336 186.33045 249.31646 186.68394 248.88086 187.01562 L 248.61914 187.21289 L 248.61914 187.23828 C 243.40466 191.33268 240 197.62905 240 204.80273 L 240 206.80273 C 240 199.62905 243.40466 193.33268 248.61914 189.23828 L 248.61914 189.21289 L 248.88086 189.01562 C 249.31646 188.68394 249.73336 188.33045 250.19336 188.03125 L 464 27.599609 L 679.12109 188.81836 L 679.03125 188.95117 C 684.44997 193.03221 688 199.46462 688 206.80078 L 688 204.80078 C 688 197.46462 684.44997 191.03221 679.03125 186.95117 L 679.12109 186.81836 L 464 25.599609 z "
         style="opacity:0.1;fill:#ffffff;fill-opacity:1;stroke:none" />
      <rect
         style="opacity:1;fill:#ececec;fill-opacity:1;stroke:none;stroke-width:2;stroke-linecap:round;stroke-linejoin:miter;stroke-miterlimit:4;stroke-dasharray:none;stroke-opacity:1"
         id="rect4268"
         width="352"
         height="368"
         x="288"
         y="-180"
         rx="23.999878"
         ry="23.980627" />
      <path
         transform="matrix(11.2,0,0,11.2,-1327.9999,-2883.9999)"
         sodipodi:nodetypes="ccssc"
         inkscape:connector-curvature="0"
         id="path4272"
         d="m 140,254 38,26 -40,4 c -1.1025,0.11025 -2.15669,-0.90314 -2,-2 z"
         style="opacity:0.2;fill:#000000;fill-opacity:1;stroke:none;filter:url(#filter4456)"
         clip-path="url(#clipPath4446)" />
      <path
         style="fill:#bbbbbb;fill-opacity:1;stroke:none"
         d="M 240,-39.2 665.6,252 264,252 c -1.59992,0 -24,0 -24,-24 z"
         id="path4274"
         inkscape:connector-curvature="0"
         sodipodi:nodetypes="ccssc" />
      <path
         clip-path="url(#clipPath4446)"
         style="opacity:0.1;fill:#000000;fill-opacity:1;stroke:none;filter:url(#filter4524)"
         d="m 140,254 38,26 -40,4 c -1.1025,0.11025 -2.15669,-0.90314 -2,-2 z"
         id="path4276"
         inkscape:connector-curvature="0"
         sodipodi:nodetypes="ccssc"
         transform="matrix(-11.2,0,0,11.2,2255.9999,-2883.9999)" />
      <path
         style="fill:#d6d6d6;fill-opacity:1;stroke:none"
         d="m 664,252 c 24,0 24,-24 24,-24 l 0,-267.2 0,0 L 262.40008,252 Z"
         id="path4278"
         inkscape:connector-curvature="0"
         sodipodi:nodetypes="sccccs" />
      <path
         id="path4284"
         transform="translate(0,-244)"
         d="M 688 204.80078 L 262.40039 496 L 265.32422 496 L 688 206.80078 L 688 204.80078 z "
         style="opacity:0.1;fill:#ffffff;fill-opacity:1;stroke:none" />
      <path
         id="path4286"
         transform="translate(0,-244)"
         d="M 240 204.80078 L 240 206.80078 L 462.53906 359.05664 L 464 358.05664 L 240 204.80078 z "
         style="opacity:0.1;fill:#ffffff;fill-opacity:1;stroke:none" />
      <path
         inkscape:connector-curvature="0"
         id="rect4371"
         d="m 312,-180 c -13.29592,0 -24,10.6991 -24,23.98438 l 0,2 C 288,-167.3009 298.70408,-178 312,-178 l 304,0 c 13.29592,0 24,10.6991 24,23.98438 l 0,-2 C 640,-169.3009 629.29592,-180 616,-180 l -304,0 z"
         style="opacity:0.1;fill:#ffffff;fill-opacity:1;stroke:none;stroke-width:2;stroke-linecap:round;stroke-linejoin:miter;stroke-miterlimit:4;stroke-dasharray:none;stroke-opacity:1" />
    </g>
  </g>
</svg>
