<?xml version="1.0" encoding="UTF-8" standalone="no"?>
<!-- Created with Inkscape (http://www.inkscape.org/) -->

<svg
   xmlns:osb="http://www.openswatchbook.org/uri/2009/osb"
   xmlns:dc="http://purl.org/dc/elements/1.1/"
   xmlns:cc="http://creativecommons.org/ns#"
   xmlns:rdf="http://www.w3.org/1999/02/22-rdf-syntax-ns#"
   xmlns:svg="http://www.w3.org/2000/svg"
   xmlns="http://www.w3.org/2000/svg"
   xmlns:sodipodi="http://sodipodi.sourceforge.net/DTD/sodipodi-0.dtd"
   xmlns:inkscape="http://www.inkscape.org/namespaces/inkscape"
   inkscape:export-ydpi="90.000000"
   inkscape:export-xdpi="90.000000"
   width="736"
   height="544"
   id="svg11300"
   sodipodi:version="0.32"
   inkscape:version="0.91 r13725"
   sodipodi:docname="accessories-document-viewer.svg"
   inkscape:output_extension="org.inkscape.output.svg.inkscape"
   version="1.0"
   style="display:inline;enable-background:new"
   inkscape:export-filename="/home/sam/paper-template.png">
  <sodipodi:namedview
     stroke="#646464"
     fill="#909090"
     id="base"
     pagecolor="#474747"
     bordercolor="#666666"
     borderopacity="0.25490196"
     inkscape:pageopacity="0"
     inkscape:pageshadow="2"
     inkscape:zoom="1"
     inkscape:cx="-75.53919"
     inkscape:cy="26.918457"
     inkscape:current-layer="layer7"
     showgrid="false"
     inkscape:grid-bbox="true"
     inkscape:document-units="px"
     inkscape:showpageshadow="false"
     inkscape:window-width="1316"
     inkscape:window-height="698"
     inkscape:window-x="25"
     inkscape:window-y="45"
     width="400px"
     height="300px"
     inkscape:snap-nodes="true"
     inkscape:snap-bbox="true"
     gridtolerance="10000"
     inkscape:object-nodes="true"
     inkscape:snap-grids="true"
     showguides="true"
     inkscape:guide-bbox="true"
     inkscape:window-maximized="1"
     inkscape:bbox-nodes="true"
     inkscape:snap-bbox-edge-midpoints="true"
     inkscape:snap-bbox-midpoints="true">
    <inkscape:grid
       snapvisiblegridlinesonly="true"
       empspacing="4"
       visible="true"
       enabled="true"
       type="xygrid"
       id="grid5883"
       spacingx="1px"
       spacingy="1px" />
    <inkscape:grid
       snapvisiblegridlinesonly="true"
       empopacity="0.25098039"
       empcolor="#ff0000"
       opacity="0.1254902"
       color="#ff0000"
       spacingy="0.5px"
       spacingx="0.5px"
       enabled="false"
       visible="true"
       empspacing="2"
       id="grid11592"
       type="xygrid" />
  </sodipodi:namedview>
  <title
     id="title3004">Paper Icon Theme</title>
  <defs
     id="defs3">
    <clipPath
       id="clipPath4193"
       clipPathUnits="userSpaceOnUse">
      <rect
         ry="3"
         rx="3"
         y="-260"
         x="-280"
         height="56"
         width="56"
         id="rect4195"
         style="fill:#5f5f5f;fill-opacity:1;stroke:none"
         transform="matrix(0,-1,-1,0,0,0)" />
    </clipPath>
    <clipPath
       id="clipPath4255"
       clipPathUnits="userSpaceOnUse">
      <rect
         transform="matrix(0,-1,-1,0,0,0)"
         style="fill:#5f5f5f;fill-opacity:1;stroke:none"
         id="rect4257"
         width="40"
         height="40"
         x="-280"
         y="-180"
         rx="2"
         ry="2" />
    </clipPath>
    <clipPath
       id="clipPath4275"
       clipPathUnits="userSpaceOnUse">
      <rect
         transform="matrix(0,-1,-1,0,0,0)"
         style="display:inline;fill:#5f5f5f;fill-opacity:1;stroke:none;enable-background:new"
         id="rect4277"
         width="16"
         height="16"
         x="-284"
         y="-32"
         rx="1"
         ry="1" />
    </clipPath>
    <linearGradient
       id="linearGradient5606"
       osb:paint="solid">
      <stop
         id="stop5608"
         offset="0"
         style="stop-color:#000000;stop-opacity:1;" />
    </linearGradient>
    <clipPath
       id="clipPath4266-4"
       clipPathUnits="userSpaceOnUse">
      <path
         inkscape:connector-curvature="0"
         style="fill:#ffffff;fill-opacity:1;stroke:none"
         d="m 146,240 c -1.108,0 -2,0.892 -2,2 l 0,36 c 0,1.108 0.892,2 2,2 l 28,0 c 1.108,0 2,-0.892 2,-2 l 0,-26 -12,-12 -18,0 z"
         id="path4268-0" />
    </clipPath>
    <clipPath
       id="clipPath4140-8"
       clipPathUnits="userSpaceOnUse">
      <path
         inkscape:connector-curvature="0"
         style="fill:#e1e1e1;fill-opacity:1;stroke:none"
         d="m 213,224 c -1.662,0 -3,1.338 -3,3 l 0,50 c 0,1.662 1.338,3 3,3 l 38,0 c 1.662,0 3,-1.338 3,-3 l 0,-35 -18,-18 -23,0 z"
         id="path4142-3" />
    </clipPath>
    <clipPath
       id="clipPath4168"
       clipPathUnits="userSpaceOnUse">
      <path
         inkscape:connector-curvature="0"
         style="fill:#e1e1e1;fill-opacity:1;stroke:none"
         d="m 94.5,254 c -0.831,0 -1.5,0.669 -1.5,1.5 l 0,25 c 0,0.831 0.669,1.5 1.5,1.5 l 19,0 c 0.831,0 1.5,-0.669 1.5,-1.5 l 0,-18.5 -8,-8 -12.5,0 z"
         id="path4170" />
    </clipPath>
    <clipPath
       id="clipPath4278"
       clipPathUnits="userSpaceOnUse">
      <path
         inkscape:connector-curvature="0"
         id="path4280"
         d="m 300,196 c -2.216,0 -4,1.784 -4,4 l 0,72 c 0,2.216 1.784,4 4,4 l 56,0 c 2.216,0 4,-1.784 4,-4 l 0,-52 -24,-24 z"
         style="fill:#e1e1e1;fill-opacity:1;stroke:none"
         sodipodi:nodetypes="ssssssccs" />
    </clipPath>
    <clipPath
       id="clipPath4754"
       clipPathUnits="userSpaceOnUse">
      <path
         inkscape:connector-curvature="0"
         id="path4756"
         d="m 300,196 c -2.216,0 -4,1.784 -4,4 l 0,72 c 0,2.216 1.784,4 4,4 l 56,0 c 2.216,0 4,-1.784 4,-4 l 0,-52 -24,-24 z"
         style="fill:#e1e1e1;fill-opacity:1;stroke:none"
         sodipodi:nodetypes="ssssssccs" />
    </clipPath>
    <filter
       height="1.0428571"
       y="-0.02142857"
       width="1.0545455"
       x="-0.027272727"
       id="filter4265"
       style="color-interpolation-filters:sRGB"
       inkscape:collect="always">
      <feGaussianBlur
         id="feGaussianBlur4267"
         stdDeviation="4"
         inkscape:collect="always" />
    </filter>
    <filter
       height="1.048"
       y="-0.024"
       width="1.048"
       x="-0.024"
       id="filter4225"
       style="color-interpolation-filters:sRGB"
       inkscape:collect="always">
      <feGaussianBlur
         id="feGaussianBlur4227"
         stdDeviation="2.4"
         inkscape:collect="always" />
    </filter>
  </defs>
  <metadata
     id="metadata4">
    <rdf:RDF>
      <cc:Work
         rdf:about="">
        <dc:format>image/svg+xml</dc:format>
        <dc:type
           rdf:resource="http://purl.org/dc/dcmitype/StillImage" />
        <dc:creator>
          <cc:Agent>
            <dc:title>Sam Hewitt</dc:title>
          </cc:Agent>
        </dc:creator>
        <dc:source />
        <cc:license
           rdf:resource="http://creativecommons.org/licenses/by-sa/3.0/" />
        <dc:title>Paper Icon Theme</dc:title>
        <dc:subject>
          <rdf:Bag />
        </dc:subject>
        <dc:date />
        <dc:rights>
          <cc:Agent>
            <dc:title />
          </cc:Agent>
        </dc:rights>
        <dc:publisher>
          <cc:Agent>
            <dc:title />
          </cc:Agent>
        </dc:publisher>
        <dc:identifier />
        <dc:relation />
        <dc:language />
        <dc:coverage />
        <dc:description />
        <dc:contributor>
          <cc:Agent>
            <dc:title />
          </cc:Agent>
        </dc:contributor>
      </cc:Work>
      <cc:Work
         rdf:about="">
        <dc:format>image/svg+xml</dc:format>
        <dc:type
           rdf:resource="http://purl.org/dc/dcmitype/StillImage" />
      </cc:Work>
    </rdf:RDF>
  </metadata>
  <g
     transform="translate(0,244)"
     id="layer1"
     inkscape:label="Icon"
     inkscape:groupmode="layer"
     style="display:inline">
    <g
       inkscape:groupmode="layer"
       id="layer7"
       inkscape:label="Baseplate"
       style="display:none">
      <text
         id="context"
         inkscape:label="context"
         style="font-style:normal;font-variant:normal;font-weight:normal;font-stretch:normal;font-size:18px;font-family:'DejaVu Sans';-inkscape-font-specification:'DejaVu Sans';display:inline;fill:#000000;fill-opacity:1;stroke:none;enable-background:new"
         x="15.006836"
         xml:space="preserve"
         y="332.76685"><tspan
           id="tspan3933"
           sodipodi:role="line"
           x="15.006836"
           y="332.76685"
           style="font-style:normal;font-variant:normal;font-weight:normal;font-stretch:normal;font-family:'DejaVu Sans';-inkscape-font-specification:'DejaVu Sans'">apps</tspan></text>
      <text
         id="icon-name"
         inkscape:label="icon-name"
         sodipodi:linespacing="125%"
         style="font-style:normal;font-variant:normal;font-weight:bold;font-stretch:normal;font-size:18px;line-height:125%;font-family:'DejaVu Sans';-inkscape-font-specification:'DejaVu Sans Bold';text-align:start;writing-mode:lr-tb;text-anchor:start;display:inline;fill:#000000;fill-opacity:1;stroke:none;enable-background:new"
         x="142.48828"
         xml:space="preserve"
         y="332.76685"><tspan
           id="tspan3937"
           sodipodi:role="line"
           x="142.48828"
           y="332.76685"
           style="font-style:normal;font-variant:normal;font-weight:bold;font-stretch:normal;font-size:18px;font-family:'DejaVu Sans';-inkscape-font-specification:'DejaVu Sans Bold'">accessories-document-viewer</tspan></text>
      <rect
         transform="scale(-1,1)"
         inkscape:label="16x16"
         y="268"
         x="-32"
         height="16"
         width="16"
         id="rect16x16"
         style="display:inline;overflow:visible;visibility:visible;fill:#e9e9e9;fill-opacity:1;fill-rule:nonzero;stroke:none;stroke-width:2;marker:none;enable-background:accumulate" />
      <rect
         transform="scale(-1,1)"
         inkscape:label="24x24"
         y="260"
         x="-76"
         height="24"
         width="24"
         id="rect24x24"
         style="display:inline;overflow:visible;visibility:visible;fill:#e9e9e9;fill-opacity:1;fill-rule:nonzero;stroke:none;stroke-width:2;marker:none;enable-background:accumulate" />
      <rect
         transform="scale(-1,1)"
         inkscape:label="32x32"
         y="252"
         x="-130"
         height="32"
         width="32"
         id="rect32x32"
         style="display:inline;overflow:visible;visibility:visible;fill:#e9e9e9;fill-opacity:1;fill-rule:nonzero;stroke:none;stroke-width:2;marker:none;enable-background:accumulate" />
      <rect
         transform="scale(-1,1)"
         style="display:inline;overflow:visible;visibility:visible;fill:#e9e9e9;fill-opacity:1;fill-rule:nonzero;stroke:none;stroke-width:2;marker:none;enable-background:accumulate"
         id="rect48x48"
         width="48"
         height="48"
         x="-194"
         y="236"
         inkscape:label="48x48" />
      <rect
         transform="scale(-1,1)"
         inkscape:label="48x48"
         y="-228"
         x="-720"
         height="512"
         width="512"
         id="rect3951"
         style="display:inline;overflow:visible;visibility:visible;fill:#e9e9e9;fill-opacity:1;fill-rule:nonzero;stroke:none;stroke-width:2;marker:none;enable-background:accumulate" />
    </g>
    <g
       style="display:inline"
       inkscape:label="Symbols"
       id="layer6"
       inkscape:groupmode="layer">
      <path
         style="fill:#000000;fill-opacity:1;stroke:none;opacity:0.2"
         d="m 640,230 0,-400 c 0,-13.296 -10.704,-24 -24,-24 l -304,0 c -13.296,0 -24,10.704 -24,24 l 0,400 c 0,13.296 10.704,24 24,24 l 304,0 c 13.296,0 24,-10.704 24,-24 z"
         id="path4204"
         inkscape:connector-curvature="0"
         sodipodi:nodetypes="sssssssss" />
      <path
         style="opacity:0.1;fill:#000000;fill-opacity:1;stroke:#000000;stroke-width:8;stroke-miterlimit:4;stroke-dasharray:none;stroke-opacity:1;filter:url(#filter4265)"
         d="m 640,232 0,-400 c 0,-13.296 -10.704,-24 -24,-24 l -304,0 c -13.296,0 -24,10.704 -24,24 l 0,400 c 0,13.296 10.704,24 24,24 l 304,0 c 13.296,0 24,-10.704 24,-24 z"
         id="path4269"
         inkscape:connector-curvature="0"
         sodipodi:nodetypes="sssssssss" />
      <path
         sodipodi:nodetypes="sssssssss"
         inkscape:connector-curvature="0"
         id="rect4313"
         d="m 125,281.5 0,-25 c 0,-0.831 -0.669,-1.5 -1.5,-1.5 l -19,0 c -0.831,0 -1.5,0.669 -1.5,1.5 l 0,25 c 0,0.831 0.669,1.5 1.5,1.5 l 19,0 c 0.831,0 1.5,-0.669 1.5,-1.5 z"
         style="opacity:0.2;fill:#000000;fill-opacity:1;stroke:none" />
      <path
         sodipodi:nodetypes="sssssssss"
         inkscape:connector-curvature="0"
         id="rect4311"
         d="m 72,282 0,-18 c 0,-0.554 -0.446,-1 -1,-1 l -14,0 c -0.554,0 -1,0.446 -1,1 l 0,18 c 0,0.554 0.446,1 1,1 l 14,0 c 0.554,0 1,-0.446 1,-1 z"
         style="opacity:0.2;fill:#000000;fill-opacity:1;stroke:none" />
      <path
         sodipodi:nodetypes="sssssssss"
         inkscape:connector-curvature="0"
         id="rect4279"
         d="m -279,-176 36,0 c 1.108,0 2,0.892 2,2 l 0,28 c 0,1.108 -0.892,2 -2,2 l -36,0 c -1.108,0 -2,-0.892 -2,-2 l 0,-28 c 0,-1.108 0.892,-2 2,-2 z"
         style="opacity:0.2;fill:#000000;fill-opacity:1;stroke:none;"
         transform="matrix(0,-1,-1,0,10,0)" />
      <path
         sodipodi:nodetypes="sssssssss"
         inkscape:connector-curvature="0"
         id="rect4203"
         d="m 186,278 0,-36 c 0,-1.108 -0.892,-2 -2,-2 l -28,0 c -1.108,0 -2,0.892 -2,2 l 0,36 c 0,1.108 0.892,2 2,2 l 28,0 c 1.108,0 2,-0.892 2,-2 z"
         style="fill:#ebebeb;fill-opacity:1;stroke:none" />
      <path
         sodipodi:nodetypes="sssssssss"
         inkscape:connector-curvature="0"
         id="rect4243"
         d="m 72,281 0,-18 c 0,-0.554 -0.446,-1 -1,-1 l -14,0 c -0.554,0 -1,0.446 -1,1 l 0,18 c 0,0.554 0.446,1 1,1 l 14,0 c 0.554,0 1,-0.446 1,-1 z"
         style="fill:#ebebeb;fill-opacity:1;stroke:none" />
      <path
         sodipodi:nodetypes="sssssssss"
         inkscape:connector-curvature="0"
         id="rect4255"
         d="m 125,280.5 0,-25 c 0,-0.831 -0.669,-1.5 -1.5,-1.5 l -19,0 c -0.831,0 -1.5,0.669 -1.5,1.5 l 0,25 c 0,0.831 0.669,1.5 1.5,1.5 l 19,0 c 0.831,0 1.5,-0.669 1.5,-1.5 z"
         style="fill:#ebebeb;fill-opacity:1;stroke:none" />
      <rect
         ry="2"
         rx="2"
         y="-32"
         x="-284"
         height="16"
         width="16"
         id="rect4265"
         style="display:inline;fill:#575757;fill-opacity:1;stroke:none;enable-background:new"
         transform="matrix(0,-1,-1,0,0,0)" />
      <path
         sodipodi:nodetypes="sscsscsss"
         inkscape:connector-curvature="0"
         id="rect4199"
         d="m 156,240 c -1.108,0 -2,0.892 -2,2 l 0,1 c 0,-1.108 0.892,-2 2,-2 l 28,0 c 1.108,0 2,0.892 2,2 l 0,-1 c 0,-1.108 -0.892,-2 -2,-2 z"
         style="opacity:0.1;fill:#ffffff;fill-opacity:1;stroke:none" />
      <path
         sodipodi:nodetypes="sscsscsss"
         inkscape:connector-curvature="0"
         id="rect4206"
         d="m 57,262 c -0.554,0 -1,0.446 -1,1 l 0,1 c 0,-0.554 0.446,-1 1,-1 l 14,0 c 0.554,0 1,0.446 1,1 l 0,-1 c 0,-0.554 -0.446,-1 -1,-1 z"
         style="opacity:0.1;fill:#ffffff;fill-opacity:1;stroke:none" />
      <path
         sodipodi:nodetypes="sscsscsss"
         inkscape:connector-curvature="0"
         id="rect4208"
         d="m 104.5,254 c -0.831,0 -1.5,0.669 -1.5,1.5 l 0,1 c 0,-0.831 0.669,-1.5 1.5,-1.5 l 19,0 c 0.831,0 1.5,0.669 1.5,1.5 l 0,-1 c 0,-0.831 -0.669,-1.5 -1.5,-1.5 z"
         style="opacity:0.1;fill:#ffffff;fill-opacity:1;stroke:none" />
      <g
         transform="matrix(4.0008799,0,0,4.0008799,-1532.4518,272.01408)"
         style="display:inline;fill:#ffffff;fill-opacity:1;enable-background:new"
         inkscape:label="actions"
         id="g4635" />
      <g
         id="g4627"
         inkscape:label="actions"
         style="display:inline;fill:#ffffff;fill-opacity:1;enable-background:new"
         transform="matrix(2.00044,0,0,2.00044,-682.22612,278.00704)" />
      <circle
         r="12"
         cy="271"
         cx="178"
         style="display:inline;opacity:0.2;fill:#000000;fill-opacity:1;stroke:none;enable-background:new;"
         id="circle5118" />
      <circle
         id="path4058-7"
         style="display:inline;fill:#575757;fill-opacity:1;stroke:none;enable-background:new"
         cx="178"
         cy="270"
         r="12" />
      <circle
         r="8"
         cy="276"
         cx="119"
         style="display:inline;opacity:0.2;fill:#000000;fill-opacity:1;fill-rule:evenodd;stroke:none;enable-background:new"
         id="circle4345" />
      <circle
         id="circle4426"
         style="display:inline;fill:#575757;fill-opacity:1;fill-rule:evenodd;stroke:none;enable-background:new"
         cx="119"
         cy="275"
         r="8" />
      <circle
         r="5.5"
         id="circle4343"
         style="display:inline;opacity:0.2;fill:#000000;fill-opacity:1;stroke:none;stroke-width:2;enable-background:new"
         cx="68.5"
         cy="278.5" />
      <circle
         cy="277.5"
         cx="68.5"
         style="display:inline;fill:#575757;fill-opacity:1;stroke:none;stroke-width:2;enable-background:new"
         id="circle7479"
         r="5.5" />
      <path
         sodipodi:nodetypes="sssssssss"
         inkscape:connector-curvature="0"
         id="rect4289"
         d="m 640,232 0,-400 c 0,-13.296 -10.704,-24 -24,-24 l -304,0 c -13.296,0 -24,10.704 -24,24 l 0,400 c 0,13.296 10.704,24 24,24 l 304,0 c 13.296,0 24,-10.704 24,-24 z"
         style="opacity:0.2;fill:#000000;fill-opacity:1;stroke:none;filter:url(#filter4265)" />
      <path
         sodipodi:nodetypes="sssssssss"
         inkscape:connector-curvature="0"
         id="rect4229"
         d="m 640,228 0,-400 c 0,-13.296 -10.704,-24 -24,-24 l -304,0 c -13.296,0 -24,10.704 -24,24 l 0,400 c 0,13.296 10.704,24 24,24 l 304,0 c 13.296,0 24,-10.704 24,-24 z"
         style="fill:#ebebeb;fill-opacity:1;stroke:none" />
      <path
         inkscape:connector-curvature="0"
         id="rect4204"
         d="m 312,-196 c -13.296,0 -24,10.704 -24,24 l 0,2 c 0,-13.296 10.704,-24 24,-24 l 304,0 c 13.296,0 24,10.704 24,24 l 0,-2 c 0,-13.296 -10.704,-24 -24,-24 l -304,0 z"
         style="opacity:0.1;fill:#ffffff;fill-opacity:1;stroke:none" />
      <circle
         transform="matrix(1,0,0,-1,0,311.99997)"
         r="120"
         cy="155.99998"
         cx="584"
         style="display:inline;opacity:0.2;fill:#000000;fill-opacity:1;stroke:none;enable-background:new;filter:url(#filter4225)"
         id="circle4373" />
      <circle
         id="circle4229"
         style="display:inline;opacity:0.1;fill:#000000;fill-opacity:1;stroke:#000000;enable-background:new;filter:url(#filter4225);stroke-opacity:1;stroke-width:8;stroke-miterlimit:4;stroke-dasharray:none"
         cx="584"
         cy="155.99998"
         r="120"
         transform="matrix(1,0,0,-1,0,311.99997)" />
      <circle
         id="circle3609"
         style="display:inline;fill:#575757;fill-opacity:1;stroke:none;enable-background:new"
         cx="584"
         cy="147.99998"
         r="120" />
      <path
         inkscape:connector-curvature="0"
         d="m 178,265.00005 c -1.55117,0.0151 -3.11274,0.36944 -4.46386,1.13502 -0.53853,0.3507 -1.18501,0.80366 -1.67225,1.26004 -0.76666,0.75058 -1.42284,1.62634 -1.86563,2.60604 1.21521,2.68013 3.88674,4.64453 6.8257,4.93464 1.92782,0.21817 3.94527,-0.11487 5.6399,-1.06858 0.53851,-0.3507 1.18501,-0.80366 1.67223,-1.26003 0.76667,-0.75059 1.42285,-1.62635 1.86565,-2.60603 -1.21529,-2.67999 -3.88666,-4.64483 -6.8257,-4.93466 -0.38997,-0.0455 -0.78346,-0.0665 -1.17603,-0.0665 z m 0,2.00043 c 1.60734,-0.0356 3.03095,1.40213 3.00064,3.00067 0.0515,1.76679 -1.70933,3.29159 -3.44997,2.96156 -1.75799,-0.20637 -2.99277,-2.17823 -2.41458,-3.84848 0.36925,-1.22963 1.57616,-2.12905 2.86391,-2.11375 z m 0,2.00045 a 1.0002168,1.0002168 0 0 0 -1.00023,1.00022 1.0002168,1.0002168 0 0 0 1.00023,1.00021 1.0002168,1.0002168 0 0 0 1.00021,-1.00021 A 1.0002168,1.0002168 0 0 0 178,269.00093 Z"
         id="path6807"
         style="display:inline;fill:#ffffff;fill-opacity:1;fill-rule:evenodd;stroke:none;stroke-width:1px;stroke-linecap:butt;stroke-linejoin:miter;stroke-opacity:1;enable-background:new" />
      <path
         style="display:inline;fill:#ffffff;fill-opacity:1;fill-rule:evenodd;stroke:none;stroke-width:1px;stroke-linecap:butt;stroke-linejoin:miter;stroke-opacity:1;enable-background:new"
         id="path4645"
         d="m 119,271.5 c -1.08582,0.0105 -2.17892,0.25861 -3.1247,0.79452 -0.37697,0.24549 -0.82951,0.56256 -1.17057,0.88203 -0.53667,0.5254 -0.99601,1.13844 -1.30596,1.82422 0.85064,1.8761 2.72073,3.25119 4.77801,3.45428 1.34948,0.1527 2.76169,-0.0805 3.94793,-0.74802 0.37697,-0.24549 0.8295,-0.56256 1.17058,-0.88203 0.53665,-0.5254 0.99599,-1.13844 1.30594,-1.82423 -0.8507,-1.876 -2.72068,-3.25137 -4.778,-3.45427 C 119.55025,271.5147 119.2748,271.5 119,271.5 Z m 0,1.40031 c 1.12515,-0.0249 2.12168,0.9815 2.10046,2.10046 0.0361,1.23677 -1.19653,2.30413 -2.41499,2.07312 -1.2306,-0.14447 -2.09496,-1.52478 -1.6902,-2.69396 0.25846,-0.86073 1.1033,-1.49033 2.00473,-1.47962 z m 0,1.40031 a 0.70015385,0.70015385 0 0 0 -0.70016,0.70015 0.70015385,0.70015385 0 0 0 0.70016,0.70016 0.70015385,0.70015385 0 0 0 0.70016,-0.70016 A 0.70015385,0.70015385 0 0 0 119,274.30062 Z"
         inkscape:connector-curvature="0" />
      <path
         inkscape:connector-curvature="0"
         d="m 68.50001,275 c -0.77559,0.008 -1.55639,0.18472 -2.23194,0.56752 -0.26927,0.17535 -0.59251,0.40181 -0.83612,0.63002 -0.38334,0.37528 -0.71144,0.81317 -0.93284,1.30302 0.6076,1.34007 1.94339,2.32229 3.41288,2.46736 0.96392,0.109 1.97264,-0.0575 2.81996,-0.5343 0.26927,-0.17535 0.5925,-0.40184 0.83614,-0.63004 0.38332,-0.37528 0.71142,-0.81317 0.9328,-1.30302 -0.60763,-1.34001 -1.94334,-2.32243 -3.41286,-2.46735 -0.19499,-0.0227 -0.39174,-0.0332 -0.58802,-0.0332 z m 0,1.00022 c 0.80367,-0.0178 1.51549,0.70108 1.50032,1.50034 0.0258,0.8834 -0.85465,1.6458 -1.72499,1.4808 -0.879,-0.10316 -1.4964,-1.08913 -1.20729,-1.92425 0.18462,-0.61482 0.78807,-1.06454 1.43196,-1.05689 z m 0,1.00024 a 0.50011201,0.50011201 0 0 0 -0.50012,0.5001 0.50011201,0.50011201 0 0 0 0.50012,0.50012 0.50011201,0.50011201 0 0 0 0.50012,-0.50012 0.50011201,0.50011201 0 0 0 -0.50012,-0.5001 z"
         id="path4647"
         style="display:inline;fill:#ffffff;fill-opacity:1;fill-rule:evenodd;stroke:none;stroke-width:1px;stroke-linecap:butt;stroke-linejoin:miter;stroke-opacity:1;enable-background:new" />
      <path
         style="display:inline;fill:#ffffff;fill-opacity:1;fill-rule:evenodd;stroke:none;stroke-width:1px;stroke-linecap:butt;stroke-linejoin:miter;stroke-opacity:1;enable-background:new"
         id="path4221"
         d="m 584,98.011284 c -15.50833,0.150963 -31.12064,3.693586 -44.62889,11.347726 -5.38414,3.50624 -11.84752,8.03484 -16.71887,12.59766 -7.66493,7.50417 -14.2253,16.25986 -18.65224,26.05473 12.14946,26.79547 38.85895,46.4352 68.24216,49.33567 19.274,2.18122 39.44412,-1.14845 56.38673,-10.68348 5.38393,-3.50624 11.84752,-8.03485 16.71867,-12.59756 7.66503,-7.50426 14.2254,-16.25996 18.65244,-26.05463 -12.15026,-26.79407 -38.85815,-46.43819 -68.24216,-49.335866 -3.89885,-0.4549 -7.83289,-0.66485 -11.75774,-0.66485 z m 0,19.999946 c 16.0699,-0.35593 30.30291,14.01825 29.99987,30.00017 0.51489,17.66405 -17.08958,32.90874 -34.49219,29.60917 C 561.9316,175.5573 549.58649,155.84299 555.36712,139.14413 559.05882,126.8505 571.1253,117.85825 584,118.01123 Z m 0,20.00015 A 9.999993,9.999993 0 0 0 573.99987,148.0114 9.999993,9.999993 0 0 0 584,158.01133 9.999993,9.999993 0 0 0 593.99992,148.0114 9.999993,9.999993 0 0 0 584,138.01138 Z"
         inkscape:connector-curvature="0" />
      <path
         inkscape:connector-curvature="0"
         d="m 24,272.5 c -1.08582,0.0105 -2.17892,0.25861 -3.1247,0.79452 -0.37697,0.24549 -0.82951,0.56256 -1.17057,0.88203 -0.53667,0.5254 -0.99601,1.13844 -1.30596,1.82422 0.85064,1.8761 2.72073,3.25119 4.77801,3.45428 1.34948,0.1527 2.76169,-0.0805 3.94793,-0.74802 0.37697,-0.24549 0.8295,-0.56256 1.17058,-0.88203 0.53665,-0.5254 0.99599,-1.13844 1.30594,-1.82423 -0.8507,-1.876 -2.72068,-3.25137 -4.778,-3.45427 C 24.55025,272.5147 24.2748,272.5 24,272.5 Z m 0,1.40031 c 1.12515,-0.0249 2.12168,0.9815 2.10046,2.10046 0.0361,1.23677 -1.19653,2.30413 -2.41499,2.07312 -1.2306,-0.14447 -2.09496,-1.52478 -1.6902,-2.69396 0.25846,-0.86073 1.1033,-1.49033 2.00473,-1.47962 z m 0,1.40031 A 0.70015385,0.70015385 0 0 0 23.29984,276.00077 0.70015385,0.70015385 0 0 0 24,276.70093 0.70015385,0.70015385 0 0 0 24.70016,276.00077 0.70015385,0.70015385 0 0 0 24,275.30062 Z"
         id="path4223"
         style="display:inline;fill:#ffffff;fill-opacity:1;fill-rule:evenodd;stroke:none;stroke-width:1px;stroke-linecap:butt;stroke-linejoin:miter;stroke-opacity:1;enable-background:new" />
    </g>
  </g>
</svg>
