<?xml version="1.0" encoding="UTF-8" standalone="no"?>
<!-- Created with Inkscape (http://www.inkscape.org/) -->

<svg
   xmlns:osb="http://www.openswatchbook.org/uri/2009/osb"
   xmlns:dc="http://purl.org/dc/elements/1.1/"
   xmlns:cc="http://creativecommons.org/ns#"
   xmlns:rdf="http://www.w3.org/1999/02/22-rdf-syntax-ns#"
   xmlns:svg="http://www.w3.org/2000/svg"
   xmlns="http://www.w3.org/2000/svg"
   xmlns:sodipodi="http://sodipodi.sourceforge.net/DTD/sodipodi-0.dtd"
   xmlns:inkscape="http://www.inkscape.org/namespaces/inkscape"
   inkscape:export-ydpi="90.000000"
   inkscape:export-xdpi="90.000000"
   width="736"
   height="544"
   id="svg11300"
   sodipodi:version="0.32"
   inkscape:version="0.91 r13725"
   sodipodi:docname="accessories-text-editor.svg"
   inkscape:output_extension="org.inkscape.output.svg.inkscape"
   version="1.0"
   style="display:inline;enable-background:new"
   inkscape:export-filename="/home/sam/paper-template.png">
  <sodipodi:namedview
     stroke="#646464"
     fill="#909090"
     id="base"
     pagecolor="#474747"
     bordercolor="#666666"
     borderopacity="0.25490196"
     inkscape:pageopacity="0"
     inkscape:pageshadow="2"
     inkscape:zoom="1"
     inkscape:cx="111.51026"
     inkscape:cy="28.719981"
     inkscape:current-layer="layer6"
     showgrid="false"
     inkscape:grid-bbox="true"
     inkscape:document-units="px"
     inkscape:showpageshadow="false"
     inkscape:window-width="1316"
     inkscape:window-height="698"
     inkscape:window-x="25"
     inkscape:window-y="45"
     width="400px"
     height="300px"
     inkscape:snap-nodes="true"
     inkscape:snap-bbox="true"
     gridtolerance="10000"
     inkscape:object-nodes="true"
     inkscape:snap-grids="true"
     showguides="true"
     inkscape:guide-bbox="true"
     inkscape:window-maximized="1"
     inkscape:bbox-nodes="true"
     inkscape:snap-bbox-edge-midpoints="true"
     inkscape:snap-bbox-midpoints="true">
    <inkscape:grid
       snapvisiblegridlinesonly="true"
       empspacing="4"
       visible="true"
       enabled="true"
       type="xygrid"
       id="grid5883"
       spacingx="1px"
       spacingy="1px" />
    <inkscape:grid
       snapvisiblegridlinesonly="true"
       empopacity="0.25098039"
       empcolor="#ff0000"
       opacity="0.1254902"
       color="#ff0000"
       spacingy="0.5px"
       spacingx="0.5px"
       enabled="false"
       visible="true"
       empspacing="2"
       id="grid11592"
       type="xygrid" />
  </sodipodi:namedview>
  <title
     id="title3004">Paper Icon Theme</title>
  <defs
     id="defs3">
    <clipPath
       id="clipPath4193"
       clipPathUnits="userSpaceOnUse">
      <rect
         ry="3"
         rx="3"
         y="-260"
         x="-280"
         height="56"
         width="56"
         id="rect4195"
         style="fill:#5f5f5f;fill-opacity:1;stroke:none"
         transform="matrix(0,-1,-1,0,0,0)" />
    </clipPath>
    <clipPath
       id="clipPath4255"
       clipPathUnits="userSpaceOnUse">
      <rect
         transform="matrix(0,-1,-1,0,0,0)"
         style="fill:#5f5f5f;fill-opacity:1;stroke:none"
         id="rect4257"
         width="40"
         height="40"
         x="-280"
         y="-180"
         rx="2"
         ry="2" />
    </clipPath>
    <clipPath
       id="clipPath4275"
       clipPathUnits="userSpaceOnUse">
      <rect
         transform="matrix(0,-1,-1,0,0,0)"
         style="display:inline;fill:#5f5f5f;fill-opacity:1;stroke:none;enable-background:new"
         id="rect4277"
         width="16"
         height="16"
         x="-284"
         y="-32"
         rx="1"
         ry="1" />
    </clipPath>
    <linearGradient
       id="linearGradient5606"
       osb:paint="solid">
      <stop
         id="stop5608"
         offset="0"
         style="stop-color:#000000;stop-opacity:1;" />
    </linearGradient>
    <clipPath
       id="clipPath4266-4"
       clipPathUnits="userSpaceOnUse">
      <path
         inkscape:connector-curvature="0"
         style="fill:#ffffff;fill-opacity:1;stroke:none"
         d="m 146,240 c -1.108,0 -2,0.892 -2,2 l 0,36 c 0,1.108 0.892,2 2,2 l 28,0 c 1.108,0 2,-0.892 2,-2 l 0,-26 -12,-12 -18,0 z"
         id="path4268-0" />
    </clipPath>
    <clipPath
       id="clipPath4140-8"
       clipPathUnits="userSpaceOnUse">
      <path
         inkscape:connector-curvature="0"
         style="fill:#e1e1e1;fill-opacity:1;stroke:none"
         d="m 213,224 c -1.662,0 -3,1.338 -3,3 l 0,50 c 0,1.662 1.338,3 3,3 l 38,0 c 1.662,0 3,-1.338 3,-3 l 0,-35 -18,-18 -23,0 z"
         id="path4142-3" />
    </clipPath>
    <clipPath
       id="clipPath4168"
       clipPathUnits="userSpaceOnUse">
      <path
         inkscape:connector-curvature="0"
         style="fill:#e1e1e1;fill-opacity:1;stroke:none"
         d="m 94.5,254 c -0.831,0 -1.5,0.669 -1.5,1.5 l 0,25 c 0,0.831 0.669,1.5 1.5,1.5 l 19,0 c 0.831,0 1.5,-0.669 1.5,-1.5 l 0,-18.5 -8,-8 -12.5,0 z"
         id="path4170" />
    </clipPath>
    <clipPath
       id="clipPath4278"
       clipPathUnits="userSpaceOnUse">
      <path
         inkscape:connector-curvature="0"
         id="path4280"
         d="m 300,196 c -2.216,0 -4,1.784 -4,4 l 0,72 c 0,2.216 1.784,4 4,4 l 56,0 c 2.216,0 4,-1.784 4,-4 l 0,-52 -24,-24 z"
         style="fill:#e1e1e1;fill-opacity:1;stroke:none"
         sodipodi:nodetypes="ssssssccs" />
    </clipPath>
    <clipPath
       id="clipPath4754"
       clipPathUnits="userSpaceOnUse">
      <path
         inkscape:connector-curvature="0"
         id="path4756"
         d="m 300,196 c -2.216,0 -4,1.784 -4,4 l 0,72 c 0,2.216 1.784,4 4,4 l 56,0 c 2.216,0 4,-1.784 4,-4 l 0,-52 -24,-24 z"
         style="fill:#e1e1e1;fill-opacity:1;stroke:none"
         sodipodi:nodetypes="ssssssccs" />
    </clipPath>
    <filter
       height="1.0428571"
       y="-0.02142857"
       width="1.0545455"
       x="-0.027272727"
       id="filter4265"
       style="color-interpolation-filters:sRGB"
       inkscape:collect="always">
      <feGaussianBlur
         id="feGaussianBlur4267"
         stdDeviation="4"
         inkscape:collect="always" />
    </filter>
    <filter
       height="1.12"
       y="-0.06"
       width="1.12"
       x="-0.06"
       id="filter4213"
       style="color-interpolation-filters:sRGB"
       inkscape:collect="always">
      <feGaussianBlur
         id="feGaussianBlur4215"
         stdDeviation="6"
         inkscape:collect="always" />
    </filter>
  </defs>
  <metadata
     id="metadata4">
    <rdf:RDF>
      <cc:Work
         rdf:about="">
        <dc:format>image/svg+xml</dc:format>
        <dc:type
           rdf:resource="http://purl.org/dc/dcmitype/StillImage" />
        <dc:creator>
          <cc:Agent>
            <dc:title>Sam Hewitt</dc:title>
          </cc:Agent>
        </dc:creator>
        <dc:source />
        <cc:license
           rdf:resource="http://creativecommons.org/licenses/by-sa/3.0/" />
        <dc:title>Paper Icon Theme</dc:title>
        <dc:subject>
          <rdf:Bag />
        </dc:subject>
        <dc:date />
        <dc:rights>
          <cc:Agent>
            <dc:title />
          </cc:Agent>
        </dc:rights>
        <dc:publisher>
          <cc:Agent>
            <dc:title />
          </cc:Agent>
        </dc:publisher>
        <dc:identifier />
        <dc:relation />
        <dc:language />
        <dc:coverage />
        <dc:description />
        <dc:contributor>
          <cc:Agent>
            <dc:title />
          </cc:Agent>
        </dc:contributor>
      </cc:Work>
      <cc:Work
         rdf:about="">
        <dc:format>image/svg+xml</dc:format>
        <dc:type
           rdf:resource="http://purl.org/dc/dcmitype/StillImage" />
      </cc:Work>
    </rdf:RDF>
  </metadata>
  <g
     transform="translate(0,244)"
     id="layer1"
     inkscape:label="Icon"
     inkscape:groupmode="layer"
     style="display:inline">
    <g
       inkscape:groupmode="layer"
       id="layer7"
       inkscape:label="Baseplate"
       style="display:none">
      <text
         id="context"
         inkscape:label="context"
         style="font-style:normal;font-variant:normal;font-weight:normal;font-stretch:normal;font-size:18px;font-family:'DejaVu Sans';-inkscape-font-specification:'DejaVu Sans';display:inline;fill:#000000;fill-opacity:1;stroke:none;enable-background:new"
         x="15.006836"
         xml:space="preserve"
         y="332.76685"><tspan
           id="tspan3933"
           sodipodi:role="line"
           x="15.006836"
           y="332.76685"
           style="font-style:normal;font-variant:normal;font-weight:normal;font-stretch:normal;font-family:'DejaVu Sans';-inkscape-font-specification:'DejaVu Sans'">apps</tspan></text>
      <text
         id="icon-name"
         inkscape:label="icon-name"
         sodipodi:linespacing="125%"
         style="font-style:normal;font-variant:normal;font-weight:bold;font-stretch:normal;font-size:18px;line-height:125%;font-family:'DejaVu Sans';-inkscape-font-specification:'DejaVu Sans Bold';text-align:start;writing-mode:lr-tb;text-anchor:start;display:inline;fill:#000000;fill-opacity:1;stroke:none;enable-background:new"
         x="142.48828"
         xml:space="preserve"
         y="332.76685"><tspan
           id="tspan3937"
           sodipodi:role="line"
           x="142.48828"
           y="332.76685"
           style="font-style:normal;font-variant:normal;font-weight:bold;font-stretch:normal;font-size:18px;font-family:'DejaVu Sans';-inkscape-font-specification:'DejaVu Sans Bold'">accessories-text-editor</tspan></text>
      <rect
         transform="scale(-1,1)"
         inkscape:label="16x16"
         y="268"
         x="-32"
         height="16"
         width="16"
         id="rect16x16"
         style="display:inline;overflow:visible;visibility:visible;fill:#e9e9e9;fill-opacity:1;fill-rule:nonzero;stroke:none;stroke-width:2;marker:none;enable-background:accumulate" />
      <rect
         transform="scale(-1,1)"
         inkscape:label="24x24"
         y="260"
         x="-76"
         height="24"
         width="24"
         id="rect24x24"
         style="display:inline;overflow:visible;visibility:visible;fill:#e9e9e9;fill-opacity:1;fill-rule:nonzero;stroke:none;stroke-width:2;marker:none;enable-background:accumulate" />
      <rect
         transform="scale(-1,1)"
         inkscape:label="32x32"
         y="252"
         x="-128"
         height="32"
         width="32"
         id="rect32x32"
         style="display:inline;overflow:visible;visibility:visible;fill:#e9e9e9;fill-opacity:1;fill-rule:nonzero;stroke:none;stroke-width:2;marker:none;enable-background:accumulate" />
      <rect
         transform="scale(-1,1)"
         style="display:inline;overflow:visible;visibility:visible;fill:#e9e9e9;fill-opacity:1;fill-rule:nonzero;stroke:none;stroke-width:2;marker:none;enable-background:accumulate"
         id="rect48x48"
         width="48"
         height="48"
         x="-192"
         y="236"
         inkscape:label="48x48" />
      <rect
         transform="scale(-1,1)"
         inkscape:label="48x48"
         y="-228"
         x="-720"
         height="512"
         width="512"
         id="rect3951"
         style="display:inline;overflow:visible;visibility:visible;fill:#e9e9e9;fill-opacity:1;fill-rule:nonzero;stroke:none;stroke-width:2;marker:none;enable-background:accumulate" />
    </g>
    <g
       style="display:inline"
       inkscape:label="Symbols"
       id="layer6"
       inkscape:groupmode="layer">
      <path
         style="opacity:0.2;fill:#000000;fill-opacity:1;stroke:none"
         d="m 640,230 0,-400 c 0,-13.296 -10.704,-24 -24,-24 l -304,0 c -13.296,0 -24,10.704 -24,24 l 0,400 c 0,13.296 10.704,24 24,24 l 304,0 c 13.296,0 24,-10.704 24,-24 z"
         id="path4204"
         inkscape:connector-curvature="0"
         sodipodi:nodetypes="sssssssss" />
      <path
         style="opacity:0.1;fill:#000000;fill-opacity:1;stroke:#000000;stroke-width:8;stroke-miterlimit:4;stroke-dasharray:none;stroke-opacity:1;filter:url(#filter4265)"
         d="m 640,232 0,-400 c 0,-13.296 -10.704,-24 -24,-24 l -304,0 c -13.296,0 -24,10.704 -24,24 l 0,400 c 0,13.296 10.704,24 24,24 l 304,0 c 13.296,0 24,-10.704 24,-24 z"
         id="path4269"
         inkscape:connector-curvature="0"
         sodipodi:nodetypes="sssssssss" />
      <path
         sodipodi:nodetypes="sssssssss"
         inkscape:connector-curvature="0"
         id="rect4313"
         d="m 123,281.5 0,-25 c 0,-0.831 -0.669,-1.5 -1.5,-1.5 l -19,0 c -0.831,0 -1.5,0.669 -1.5,1.5 l 0,25 c 0,0.831 0.669,1.5 1.5,1.5 l 19,0 c 0.831,0 1.5,-0.669 1.5,-1.5 z"
         style="opacity:0.2;fill:#000000;fill-opacity:1;stroke:none" />
      <path
         sodipodi:nodetypes="sssssssss"
         inkscape:connector-curvature="0"
         id="rect4311"
         d="m 72,282 0,-18 c 0,-0.554 -0.446,-1 -1,-1 l -14,0 c -0.554,0 -1,0.446 -1,1 l 0,18 c 0,0.554 0.446,1 1,1 l 14,0 c 0.554,0 1,-0.446 1,-1 z"
         style="opacity:0.2;fill:#000000;fill-opacity:1;stroke:none" />
      <path
         sodipodi:nodetypes="sssssssss"
         inkscape:connector-curvature="0"
         id="rect4279"
         d="m -279,-176 36,0 c 1.108,0 2,0.892 2,2 l 0,28 c 0,1.108 -0.892,2 -2,2 l -36,0 c -1.108,0 -2,-0.892 -2,-2 l 0,-28 c 0,-1.108 0.892,-2 2,-2 z"
         style="opacity:0.2;fill:#000000;fill-opacity:1;stroke:none"
         transform="matrix(0,-1,-1,0,8,0)" />
      <path
         sodipodi:nodetypes="sssssssss"
         inkscape:connector-curvature="0"
         id="rect4203"
         d="m 184,278 0,-36 c 0,-1.108 -0.892,-2 -2,-2 l -28,0 c -1.108,0 -2,0.892 -2,2 l 0,36 c 0,1.108 0.892,2 2,2 l 28,0 c 1.108,0 2,-0.892 2,-2 z"
         style="fill:#ebebeb;fill-opacity:1;stroke:none" />
      <path
         sodipodi:nodetypes="sssssssss"
         inkscape:connector-curvature="0"
         id="rect4243"
         d="m 72,281 0,-18 c 0,-0.554 -0.446,-1 -1,-1 l -14,0 c -0.554,0 -1,0.446 -1,1 l 0,18 c 0,0.554 0.446,1 1,1 l 14,0 c 0.554,0 1,-0.446 1,-1 z"
         style="fill:#ebebeb;fill-opacity:1;stroke:none" />
      <path
         sodipodi:nodetypes="sssssssss"
         inkscape:connector-curvature="0"
         id="rect4255"
         d="m 123,280.5 0,-25 c 0,-0.831 -0.669,-1.5 -1.5,-1.5 l -19,0 c -0.831,0 -1.5,0.669 -1.5,1.5 l 0,25 c 0,0.831 0.669,1.5 1.5,1.5 l 19,0 c 0.831,0 1.5,-0.669 1.5,-1.5 z"
         style="fill:#ebebeb;fill-opacity:1;stroke:none" />
      <rect
         ry="2"
         rx="2"
         y="-32"
         x="-284"
         height="16"
         width="16"
         id="rect4265"
         style="display:inline;fill:#767676;fill-opacity:1;stroke:none;enable-background:new"
         transform="matrix(0,-1,-1,0,0,0)" />
      <path
         sodipodi:nodetypes="sscsscsss"
         inkscape:connector-curvature="0"
         id="rect4199"
         d="m 154,240 c -1.108,0 -2,0.892 -2,2 l 0,1 c 0,-1.108 0.892,-2 2,-2 l 28,0 c 1.108,0 2,0.892 2,2 l 0,-1 c 0,-1.108 -0.892,-2 -2,-2 z"
         style="opacity:0.1;fill:#ffffff;fill-opacity:1;stroke:none" />
      <path
         sodipodi:nodetypes="sscsscsss"
         inkscape:connector-curvature="0"
         id="rect4206"
         d="m 57,262 c -0.554,0 -1,0.446 -1,1 l 0,1 c 0,-0.554 0.446,-1 1,-1 l 14,0 c 0.554,0 1,0.446 1,1 l 0,-1 c 0,-0.554 -0.446,-1 -1,-1 z"
         style="opacity:0.1;fill:#ffffff;fill-opacity:1;stroke:none" />
      <path
         sodipodi:nodetypes="sscsscsss"
         inkscape:connector-curvature="0"
         id="rect4208"
         d="m 102.5,254 c -0.831,0 -1.5,0.669 -1.5,1.5 l 0,1 c 0,-0.831 0.669,-1.5 1.5,-1.5 l 19,0 c 0.831,0 1.5,0.669 1.5,1.5 l 0,-1 c 0,-0.831 -0.669,-1.5 -1.5,-1.5 z"
         style="opacity:0.1;fill:#ffffff;fill-opacity:1;stroke:none" />
      <g
         transform="matrix(4.0008799,0,0,4.0008799,-1532.4518,272.01408)"
         style="display:inline;fill:#ffffff;fill-opacity:1;enable-background:new"
         inkscape:label="actions"
         id="g4635" />
      <g
         id="g4627"
         inkscape:label="actions"
         style="display:inline;fill:#ffffff;fill-opacity:1;enable-background:new"
         transform="matrix(2.00044,0,0,2.00044,-682.22612,278.00704)" />
      <circle
         r="12"
         cy="271"
         cx="176"
         style="display:inline;opacity:0.2;fill:#000000;fill-opacity:1;stroke:none;enable-background:new;"
         id="circle5118" />
      <circle
         id="path4058-7"
         style="display:inline;fill:#767676;fill-opacity:1;stroke:none;enable-background:new"
         cx="176"
         cy="270"
         r="12" />
      <circle
         r="8"
         cy="276"
         cx="117"
         style="display:inline;opacity:0.2;fill:#000000;fill-opacity:1;fill-rule:evenodd;stroke:none;enable-background:new"
         id="circle4345" />
      <circle
         id="circle4426"
         style="display:inline;fill:#767676;fill-opacity:1;fill-rule:evenodd;stroke:none;enable-background:new"
         cx="117"
         cy="275"
         r="8" />
      <circle
         r="5.5"
         id="circle4343"
         style="display:inline;opacity:0.2;fill:#000000;fill-opacity:1;stroke:none;stroke-width:2;enable-background:new"
         cx="68.5"
         cy="278.5" />
      <circle
         cy="277.5"
         cx="68.5"
         style="display:inline;fill:#767676;fill-opacity:1;stroke:none;stroke-width:2;enable-background:new"
         id="circle7479"
         r="5.5" />
      <path
         style="display:inline;fill:#ffffff;fill-opacity:1;stroke:none;enable-background:new"
         sodipodi:nodetypes="cccccccsscccc"
         id="path4-0"
         d="m 170,273.32715 0,2.67285 2.67285,0 6.75067,-6.75067 -2.67285,-2.67285 z m 11.78797,-6.4337 c 0.28271,-0.28271 0.28271,-0.72818 0,-1.01089 l -1.67053,-1.67053 c -0.28271,-0.28271 -0.72818,-0.28271 -1.01089,0 l -1.39639,1.40496 2.67285,2.67285 z"
         inkscape:connector-curvature="0" />
      <path
         sodipodi:nodetypes="sssssssss"
         inkscape:connector-curvature="0"
         id="rect4289"
         d="m 640,232 0,-400 c 0,-13.296 -10.704,-24 -24,-24 l -304,0 c -13.296,0 -24,10.704 -24,24 l 0,400 c 0,13.296 10.704,24 24,24 l 304,0 c 13.296,0 24,-10.704 24,-24 z"
         style="opacity:0.2;fill:#000000;fill-opacity:1;stroke:none;filter:url(#filter4265)" />
      <path
         sodipodi:nodetypes="sssssssss"
         inkscape:connector-curvature="0"
         id="rect4229"
         d="m 640,228 0,-400 c 0,-13.296 -10.704,-24 -24,-24 l -304,0 c -13.296,0 -24,10.704 -24,24 l 0,400 c 0,13.296 10.704,24 24,24 l 304,0 c 13.296,0 24,-10.704 24,-24 z"
         style="fill:#ebebeb;fill-opacity:1;stroke:none" />
      <path
         inkscape:connector-curvature="0"
         id="rect4204"
         d="m 312,-196 c -13.296,0 -24,10.704 -24,24 l 0,2 c 0,-13.296 10.704,-24 24,-24 l 304,0 c 13.296,0 24,10.704 24,24 l 0,-2 c 0,-13.296 -10.704,-24 -24,-24 l -304,0 z"
         style="opacity:0.1;fill:#ffffff;fill-opacity:1;stroke:none" />
      <circle
         r="120"
         cy="151.99998"
         cx="584"
         style="display:inline;fill:#000000;fill-opacity:1;stroke:none;enable-background:new;filter:url(#filter4213);opacity:0.5"
         id="circle4211" />
      <circle
         id="circle3609"
         style="display:inline;fill:#767676;fill-opacity:1;stroke:none;enable-background:new"
         cx="584"
         cy="147.99998"
         r="120" />
      <path
         style="display:inline;fill:#ffffff;fill-opacity:1;stroke:none;enable-background:new"
         sodipodi:nodetypes="cccccccsscccc"
         id="path3883"
         d="m 527.99999,175.48959 0,28.5104 28.5104,0 64.00712,-64.00712 -28.5104,-28.5104 z m 117.73832,-60.62616 c 3.0156,-3.01552 3.0156,-7.7672 0,-10.7828 L 627.91935,86.261675 c -3.0156,-3.0156 -7.76728,-3.0156 -10.7828,0 l -14.89488,14.986235 28.5104,28.5104 z"
         inkscape:connector-curvature="0" />
      <path
         inkscape:connector-curvature="0"
         d="m 113,277.2181 0,1.7819 1.7819,0 4.50044,-4.50045 -1.78189,-1.78189 z m 7.85864,-4.28913 c 0.18848,-0.18847 0.18848,-0.48545 0,-0.67393 l -1.11368,-1.11368 c -0.18848,-0.18848 -0.48546,-0.18848 -0.67393,0 l -0.93093,0.93664 1.7819,1.7819 z"
         id="path3903"
         sodipodi:nodetypes="cccccccsscccc"
         style="display:inline;fill:#ffffff;fill-opacity:1;stroke:none;enable-background:new" />
      <path
         style="display:inline;fill:#ffffff;fill-opacity:1;stroke:none;enable-background:new"
         sodipodi:nodetypes="cccccc"
         id="path5196"
         d="M 66,278.58182 66,280 67.418179,280 71,276.41818 69.581821,275 Z"
         inkscape:connector-curvature="0" />
      <path
         style="display:inline;fill:#ffffff;fill-opacity:1;stroke:none;enable-background:new"
         sodipodi:nodetypes="cccccccsscccc"
         id="path4-0-4"
         d="M 19,278.32715 19,281 l 2.67285,0 4.75067,-4.75067 -2.67285,-2.67285 z m 9.78797,-4.4337 c 0.28271,-0.28271 0.28271,-0.72818 0,-1.01089 l -1.67053,-1.67053 c -0.28271,-0.28271 -0.72818,-0.28271 -1.01089,0 l -1.39639,1.40496 2.67285,2.67285 z"
         inkscape:connector-curvature="0" />
    </g>
  </g>
</svg>
