<?xml version="1.0" encoding="UTF-8" standalone="no"?>
<!-- Created with Inkscape (http://www.inkscape.org/) -->

<svg
   xmlns:osb="http://www.openswatchbook.org/uri/2009/osb"
   xmlns:dc="http://purl.org/dc/elements/1.1/"
   xmlns:cc="http://creativecommons.org/ns#"
   xmlns:rdf="http://www.w3.org/1999/02/22-rdf-syntax-ns#"
   xmlns:svg="http://www.w3.org/2000/svg"
   xmlns="http://www.w3.org/2000/svg"
   xmlns:sodipodi="http://sodipodi.sourceforge.net/DTD/sodipodi-0.dtd"
   xmlns:inkscape="http://www.inkscape.org/namespaces/inkscape"
   inkscape:export-ydpi="90.000000"
   inkscape:export-xdpi="90.000000"
   width="736"
   height="544"
   id="svg11300"
   sodipodi:version="0.32"
   inkscape:version="0.91 r13725"
   sodipodi:docname="anki.svg"
   inkscape:output_extension="org.inkscape.output.svg.inkscape"
   version="1.0"
   style="display:inline;enable-background:new"
   inkscape:export-filename="/home/sam/paper-template.png">
  <sodipodi:namedview
     stroke="#646464"
     fill="#909090"
     id="base"
     pagecolor="#464646"
     bordercolor="#666666"
     borderopacity="0.25490196"
     inkscape:pageopacity="0"
     inkscape:pageshadow="2"
     inkscape:zoom="1"
     inkscape:cx="281.90633"
     inkscape:cy="26.211166"
     inkscape:current-layer="layer7"
     showgrid="false"
     inkscape:grid-bbox="true"
     inkscape:document-units="px"
     inkscape:showpageshadow="false"
     inkscape:window-width="1316"
     inkscape:window-height="698"
     inkscape:window-x="25"
     inkscape:window-y="45"
     width="400px"
     height="300px"
     inkscape:snap-nodes="true"
     inkscape:snap-bbox="true"
     gridtolerance="10000"
     inkscape:object-nodes="true"
     inkscape:snap-grids="true"
     showguides="true"
     inkscape:guide-bbox="true"
     inkscape:window-maximized="1"
     inkscape:bbox-nodes="true"
     inkscape:snap-bbox-edge-midpoints="true"
     inkscape:snap-bbox-midpoints="true">
    <inkscape:grid
       snapvisiblegridlinesonly="true"
       empspacing="4"
       visible="true"
       enabled="true"
       type="xygrid"
       id="grid5883"
       spacingx="1px"
       spacingy="1px" />
    <inkscape:grid
       snapvisiblegridlinesonly="true"
       empopacity="0.25098039"
       empcolor="#ff0000"
       opacity="0.1254902"
       color="#ff0000"
       spacingy="0.5px"
       spacingx="0.5px"
       enabled="false"
       visible="true"
       empspacing="2"
       id="grid11592"
       type="xygrid" />
  </sodipodi:namedview>
  <title
     id="title3004">Paper Icon Theme</title>
  <defs
     id="defs3">
    <linearGradient
       id="linearGradient5606"
       osb:paint="solid">
      <stop
         id="stop5608"
         offset="0"
         style="stop-color:#000000;stop-opacity:1;" />
    </linearGradient>
    <filter
       height="1.0428571"
       y="-0.02142857"
       width="1.0545455"
       x="-0.027272727"
       id="filter4265"
       style="color-interpolation-filters:sRGB"
       inkscape:collect="always">
      <feGaussianBlur
         id="feGaussianBlur4267"
         stdDeviation="4"
         inkscape:collect="always" />
    </filter>
  </defs>
  <metadata
     id="metadata4">
    <rdf:RDF>
      <cc:Work
         rdf:about="">
        <dc:format>image/svg+xml</dc:format>
        <dc:type
           rdf:resource="http://purl.org/dc/dcmitype/StillImage" />
        <dc:creator>
          <cc:Agent>
            <dc:title>Sam Hewitt</dc:title>
          </cc:Agent>
        </dc:creator>
        <dc:source />
        <cc:license
           rdf:resource="http://creativecommons.org/licenses/by-sa/3.0/" />
        <dc:title>Paper Icon Theme</dc:title>
        <dc:subject>
          <rdf:Bag />
        </dc:subject>
        <dc:date />
        <dc:rights>
          <cc:Agent>
            <dc:title />
          </cc:Agent>
        </dc:rights>
        <dc:publisher>
          <cc:Agent>
            <dc:title />
          </cc:Agent>
        </dc:publisher>
        <dc:identifier />
        <dc:relation />
        <dc:language />
        <dc:coverage />
        <dc:description />
        <dc:contributor>
          <cc:Agent>
            <dc:title />
          </cc:Agent>
        </dc:contributor>
      </cc:Work>
      <cc:Work
         rdf:about="">
        <dc:format>image/svg+xml</dc:format>
        <dc:type
           rdf:resource="http://purl.org/dc/dcmitype/StillImage" />
      </cc:Work>
      <cc:License
         rdf:about="http://creativecommons.org/licenses/by-sa/3.0/">
        <cc:permits
           rdf:resource="http://creativecommons.org/ns#Reproduction" />
        <cc:permits
           rdf:resource="http://creativecommons.org/ns#Distribution" />
        <cc:requires
           rdf:resource="http://creativecommons.org/ns#Notice" />
        <cc:requires
           rdf:resource="http://creativecommons.org/ns#Attribution" />
        <cc:permits
           rdf:resource="http://creativecommons.org/ns#DerivativeWorks" />
        <cc:requires
           rdf:resource="http://creativecommons.org/ns#ShareAlike" />
      </cc:License>
    </rdf:RDF>
  </metadata>
  <g
     transform="translate(0,244)"
     id="layer1"
     inkscape:label="Icon"
     inkscape:groupmode="layer"
     style="display:inline">
    <g
       inkscape:groupmode="layer"
       id="layer7"
       inkscape:label="Baseplate"
       style="display:none">
      <text
         id="context"
         inkscape:label="context"
         style="font-style:normal;font-variant:normal;font-weight:normal;font-stretch:normal;font-size:18px;font-family:'DejaVu Sans';-inkscape-font-specification:'DejaVu Sans';display:inline;fill:#000000;fill-opacity:1;stroke:none;enable-background:new"
         x="15.006836"
         xml:space="preserve"
         y="332.76685"><tspan
           id="tspan3933"
           sodipodi:role="line"
           x="15.006836"
           y="332.76685"
           style="font-style:normal;font-variant:normal;font-weight:normal;font-stretch:normal;font-family:'DejaVu Sans';-inkscape-font-specification:'DejaVu Sans'">apps</tspan></text>
      <text
         id="icon-name"
         inkscape:label="icon-name"
         sodipodi:linespacing="125%"
         style="font-style:normal;font-variant:normal;font-weight:bold;font-stretch:normal;font-size:18px;line-height:125%;font-family:'DejaVu Sans';-inkscape-font-specification:'DejaVu Sans Bold';text-align:start;writing-mode:lr-tb;text-anchor:start;display:inline;fill:#000000;fill-opacity:1;stroke:none;enable-background:new"
         x="142.48828"
         xml:space="preserve"
         y="332.76685"><tspan
           id="tspan3937"
           sodipodi:role="line"
           x="142.48828"
           y="332.76685"
           style="font-style:normal;font-variant:normal;font-weight:bold;font-stretch:normal;font-size:18px;font-family:'DejaVu Sans';-inkscape-font-specification:'DejaVu Sans Bold'">anki</tspan></text>
      <rect
         transform="scale(-1,1)"
         inkscape:label="16x16"
         y="268"
         x="-32"
         height="16"
         width="16"
         id="rect16x16"
         style="display:inline;overflow:visible;visibility:visible;fill:#e9e9e9;fill-opacity:1;fill-rule:nonzero;stroke:none;stroke-width:2;marker:none;enable-background:accumulate" />
      <rect
         transform="scale(-1,1)"
         inkscape:label="24x24"
         y="260"
         x="-76"
         height="24"
         width="24"
         id="rect24x24"
         style="display:inline;overflow:visible;visibility:visible;fill:#e9e9e9;fill-opacity:1;fill-rule:nonzero;stroke:none;stroke-width:2;marker:none;enable-background:accumulate" />
      <rect
         transform="scale(-1,1)"
         inkscape:label="32x32"
         y="252"
         x="-130"
         height="32"
         width="32"
         id="rect32x32"
         style="display:inline;overflow:visible;visibility:visible;fill:#e9e9e9;fill-opacity:1;fill-rule:nonzero;stroke:none;stroke-width:2;marker:none;enable-background:accumulate" />
      <rect
         transform="scale(-1,1)"
         style="display:inline;overflow:visible;visibility:visible;fill:#e9e9e9;fill-opacity:1;fill-rule:nonzero;stroke:none;stroke-width:2;marker:none;enable-background:accumulate"
         id="rect48x48"
         width="48"
         height="48"
         x="-194"
         y="236"
         inkscape:label="48x48" />
      <rect
         transform="scale(-1,1)"
         inkscape:label="48x48"
         y="-228"
         x="-720"
         height="512"
         width="512"
         id="rect3951"
         style="display:inline;overflow:visible;visibility:visible;fill:#e9e9e9;fill-opacity:1;fill-rule:nonzero;stroke:none;stroke-width:2;marker:none;enable-background:accumulate" />
    </g>
    <g
       style="display:inline"
       inkscape:label="Symbols"
       id="layer6"
       inkscape:groupmode="layer">
      <path
         style="opacity:0.2;fill:#000000;fill-opacity:1;stroke:none"
         d="m 640,230 0,-400 c 0,-13.296 -10.704,-24 -24,-24 l -304,0 c -13.296,0 -24,10.704 -24,24 l 0,400 c 0,13.296 10.704,24 24,24 l 304,0 c 13.296,0 24,-10.704 24,-24 z"
         id="path4213"
         inkscape:connector-curvature="0"
         sodipodi:nodetypes="sssssssss" />
      <path
         style="fill:#666666;fill-opacity:1;stroke:none"
         d="m 31,283.2 0,-14.4 c 0,-0.4432 -0.3345,-0.8 -0.75,-0.8 l -12.5,0 c -0.4155,0 -0.75,0.3568 -0.75,0.8 l 0,14.4 c 0,0.4432 0.3345,0.8 0.75,0.8 l 12.5,0 c 0.4155,0 0.75,-0.3568 0.75,-0.8 z"
         id="path4282"
         inkscape:connector-curvature="0"
         sodipodi:nodetypes="sssssssss" />
      <path
         style="opacity:0.1;fill:#000000;fill-opacity:1;stroke:#000000;stroke-width:8;stroke-miterlimit:4;stroke-dasharray:none;stroke-opacity:1;filter:url(#filter4265)"
         d="m 640,232 0,-400 c 0,-13.296 -10.704,-24 -24,-24 l -304,0 c -13.296,0 -24,10.704 -24,24 l 0,400 c 0,13.296 10.704,24 24,24 l 304,0 c 13.296,0 24,-10.704 24,-24 z"
         id="path4269"
         inkscape:connector-curvature="0"
         sodipodi:nodetypes="sssssssss" />
      <path
         sodipodi:nodetypes="sssssssss"
         inkscape:connector-curvature="0"
         id="rect4313"
         d="m 125,281.5 0,-25 c 0,-0.831 -0.669,-1.5 -1.5,-1.5 l -19,0 c -0.831,0 -1.5,0.669 -1.5,1.5 l 0,25 c 0,0.831 0.669,1.5 1.5,1.5 l 19,0 c 0.831,0 1.5,-0.669 1.5,-1.5 z"
         style="opacity:0.2;fill:#000000;fill-opacity:1;stroke:none" />
      <path
         sodipodi:nodetypes="sssssssss"
         inkscape:connector-curvature="0"
         id="rect4311"
         d="m 72,282 0,-18 c 0,-0.554 -0.446,-1 -1,-1 l -14,0 c -0.554,0 -1,0.446 -1,1 l 0,18 c 0,0.554 0.446,1 1,1 l 14,0 c 0.554,0 1,-0.446 1,-1 z"
         style="opacity:0.2;fill:#000000;fill-opacity:1;stroke:none" />
      <path
         sodipodi:nodetypes="sssssssss"
         inkscape:connector-curvature="0"
         id="rect4279"
         d="m -279,-176 36,0 c 1.108,0 2,0.892 2,2 l 0,28 c 0,1.108 -0.892,2 -2,2 l -36,0 c -1.108,0 -2,-0.892 -2,-2 l 0,-28 c 0,-1.108 0.892,-2 2,-2 z"
         style="opacity:0.2;fill:#000000;fill-opacity:1;stroke:none"
         transform="matrix(0,-1,-1,0,10,0)" />
      <path
         sodipodi:nodetypes="sssssssss"
         inkscape:connector-curvature="0"
         id="rect4203"
         d="m 186,278 0,-36 c 0,-1.108 -0.892,-2 -2,-2 l -28,0 c -1.108,0 -2,0.892 -2,2 l 0,36 c 0,1.108 0.892,2 2,2 l 28,0 c 1.108,0 2,-0.892 2,-2 z"
         style="fill:#666666;fill-opacity:1;stroke:none" />
      <path
         sodipodi:nodetypes="sssssssss"
         inkscape:connector-curvature="0"
         id="rect4243"
         d="m 72,281 0,-18 c 0,-0.554 -0.446,-1 -1,-1 l -14,0 c -0.554,0 -1,0.446 -1,1 l 0,18 c 0,0.554 0.446,1 1,1 l 14,0 c 0.554,0 1,-0.446 1,-1 z"
         style="fill:#666666;fill-opacity:1;stroke:none" />
      <path
         sodipodi:nodetypes="sssssssss"
         inkscape:connector-curvature="0"
         id="rect4255"
         d="m 125,280.5 0,-25 c 0,-0.831 -0.669,-1.5 -1.5,-1.5 l -19,0 c -0.831,0 -1.5,0.669 -1.5,1.5 l 0,25 c 0,0.831 0.669,1.5 1.5,1.5 l 19,0 c 0.831,0 1.5,-0.669 1.5,-1.5 z"
         style="fill:#666666;fill-opacity:1;stroke:none" />
      <path
         sodipodi:nodetypes="sscsscsss"
         inkscape:connector-curvature="0"
         id="rect4199"
         d="m 156,240 c -1.108,0 -2,0.892 -2,2 l 0,1 c 0,-1.108 0.892,-2 2,-2 l 28,0 c 1.108,0 2,0.892 2,2 l 0,-1 c 0,-1.108 -0.892,-2 -2,-2 z"
         style="opacity:0.1;fill:#ffffff;fill-opacity:1;stroke:none" />
      <path
         sodipodi:nodetypes="sscsscsss"
         inkscape:connector-curvature="0"
         id="rect4206"
         d="m 57,262 c -0.554,0 -1,0.446 -1,1 l 0,1 c 0,-0.554 0.446,-1 1,-1 l 14,0 c 0.554,0 1,0.446 1,1 l 0,-1 c 0,-0.554 -0.446,-1 -1,-1 z"
         style="opacity:0.1;fill:#ffffff;fill-opacity:1;stroke:none" />
      <path
         sodipodi:nodetypes="sscsscsss"
         inkscape:connector-curvature="0"
         id="rect4208"
         d="m 104.5,254 c -0.831,0 -1.5,0.669 -1.5,1.5 l 0,1 c 0,-0.831 0.669,-1.5 1.5,-1.5 l 19,0 c 0.831,0 1.5,0.669 1.5,1.5 l 0,-1 c 0,-0.831 -0.669,-1.5 -1.5,-1.5 z"
         style="opacity:0.1;fill:#ffffff;fill-opacity:1;stroke:none" />
      <g
         transform="matrix(4.0008799,0,0,4.0008799,-1532.4518,272.01408)"
         style="display:inline;fill:#ffffff;fill-opacity:1;enable-background:new"
         inkscape:label="actions"
         id="g4635" />
      <g
         id="g4627"
         inkscape:label="actions"
         style="display:inline;fill:#ffffff;fill-opacity:1;enable-background:new"
         transform="matrix(2.00044,0,0,2.00044,-682.22612,278.00704)" />
      <path
         sodipodi:nodetypes="sssssssss"
         inkscape:connector-curvature="0"
         id="rect4289"
         d="m 640,232 0,-400 c 0,-13.296 -10.704,-24 -24,-24 l -304,0 c -13.296,0 -24,10.704 -24,24 l 0,400 c 0,13.296 10.704,24 24,24 l 304,0 c 13.296,0 24,-10.704 24,-24 z"
         style="opacity:0.2;fill:#000000;fill-opacity:1;stroke:none;filter:url(#filter4265)" />
      <path
         sodipodi:nodetypes="sssssssss"
         inkscape:connector-curvature="0"
         id="rect4229"
         d="m 640,228 0,-400 c 0,-13.296 -10.704,-24 -24,-24 l -304,0 c -13.296,0 -24,10.704 -24,24 l 0,400 c 0,13.296 10.704,24 24,24 l 304,0 c 13.296,0 24,-10.704 24,-24 z"
         style="fill:#666666;fill-opacity:1;stroke:none" />
      <path
         inkscape:connector-curvature="0"
         id="rect4204"
         d="m 312,-196 c -13.296,0 -24,10.704 -24,24 l 0,2 c 0,-13.296 10.704,-24 24,-24 l 304,0 c 13.296,0 24,10.704 24,24 l 0,-2 c 0,-13.296 -10.704,-24 -24,-24 l -304,0 z"
         style="opacity:0.1;fill:#ffffff;fill-opacity:1;stroke:none" />
      <g
         transform="translate(186.5001,-174.5)"
         style="display:inline"
         inkscape:label="places"
         id="layer1-2" />
      <g
         transform="translate(-54.5001,442.5)"
         style="display:inline"
         inkscape:label="mimetypes"
         id="layer14" />
      <g
         transform="translate(-54.5001,442.5)"
         style="display:inline"
         inkscape:label="emblems"
         id="layer15" />
      <g
         transform="translate(-54.5001,442.5)"
         style="display:inline"
         inkscape:label="emotes"
         id="g71291" />
      <g
         transform="translate(186.5001,-24.5)"
         style="display:inline"
         inkscape:label="categories"
         id="layer2" />
      <g
         transform="translate(186.5001,-24.5)"
         style="display:inline"
         inkscape:label="apps"
         id="g6058" />
      <g
         transform="translate(-54.5001,442.5)"
         style="display:inline"
         inkscape:label="actions"
         id="layer12" />
      <path
         id="path4233"
         d="m 177.86248,247.32872 c -0.68762,0.1908 -1.84003,1.72579 -2.42466,1.83939 -0.66819,0.12985 -2.67111,-1.20846 -3.13534,-0.71067 -0.46425,0.49778 1.00267,2.45974 0.91971,3.13533 -0.0829,0.67559 -2.00216,2.20555 -1.6722,2.8009 0.32996,0.59534 2.64387,-0.20408 3.26076,0.0836 0.61687,0.2877 1.46385,2.55451 2.13202,2.42466 0.66816,-0.12989 0.62267,-2.55393 1.08692,-3.05172 0.46423,-0.49778 2.88512,-0.62036 2.96812,-1.29594 0.0829,-0.67559 -2.22012,-1.36947 -2.55008,-1.96481 -0.32996,-0.59534 0.28244,-2.97306 -0.33443,-3.26075 -0.0771,-0.036 -0.15259,-0.0273 -0.25082,0 z m -10.86918,9.61503 c -1.25912,0.17269 -1.4239,4.72201 -2.34105,5.6018 -0.91716,0.87979 -5.41875,0.83937 -5.6436,2.09022 -0.22487,1.25086 4.00336,2.82729 4.55669,3.97143 0.55331,1.14413 -0.86933,5.41945 0.25082,6.01985 1.12015,0.60037 3.92464,-2.96265 5.18375,-3.13534 1.25912,-0.17269 4.89368,2.51017 5.81084,1.63038 0.91714,-0.87981 -1.6044,-4.64358 -1.37955,-5.89444 0.22485,-1.25086 3.89767,-3.8724 3.34436,-5.01654 -0.55333,-1.14413 -4.8997,0.0987 -6.01985,-0.50166 -1.12016,-0.60039 -2.5033,-4.93839 -3.76241,-4.7657 z"
         style="display:inline;fill:#000000;fill-opacity:1;stroke:none;enable-background:new;opacity:0.2"
         inkscape:connector-curvature="0" />
      <path
         inkscape:connector-curvature="0"
         style="display:inline;fill:#bebebe;fill-opacity:1;stroke:none;enable-background:new"
         d="m 177.86248,246.32872 c -0.68762,0.1908 -1.84003,1.72579 -2.42466,1.83939 -0.66819,0.12985 -2.67111,-1.20846 -3.13534,-0.71067 -0.46425,0.49778 1.00267,2.45974 0.91971,3.13533 -0.0829,0.67559 -2.00216,2.20555 -1.6722,2.8009 0.32996,0.59534 2.64387,-0.20408 3.26076,0.0836 0.61687,0.2877 1.46385,2.55451 2.13202,2.42466 0.66816,-0.12989 0.62267,-2.55393 1.08692,-3.05172 0.46423,-0.49778 2.88512,-0.62036 2.96812,-1.29594 0.0829,-0.67559 -2.22012,-1.36947 -2.55008,-1.96481 -0.32996,-0.59534 0.28244,-2.97306 -0.33443,-3.26075 -0.0771,-0.036 -0.15259,-0.0273 -0.25082,0 z m -10.86918,9.61503 c -1.25912,0.17269 -1.4239,4.72201 -2.34105,5.6018 -0.91716,0.87979 -5.41875,0.83937 -5.6436,2.09022 -0.22487,1.25086 4.00336,2.82729 4.55669,3.97143 0.55331,1.14413 -0.86933,5.41945 0.25082,6.01985 1.12015,0.60037 3.92464,-2.96265 5.18375,-3.13534 1.25912,-0.17269 4.89368,2.51017 5.81084,1.63038 0.91714,-0.87981 -1.6044,-4.64358 -1.37955,-5.89444 0.22485,-1.25086 3.89767,-3.8724 3.34436,-5.01654 -0.55333,-1.14413 -4.8997,0.0987 -6.01985,-0.50166 -1.12016,-0.60039 -2.5033,-4.93839 -3.76241,-4.7657 z"
         id="path4879" />
      <path
         inkscape:connector-curvature="0"
         style="display:inline;opacity:0.2;fill:#000000;fill-opacity:1;stroke:none;enable-background:new"
         d="m 549.77257,-115.14126 c -7.50129,2.08145 -20.07305,18.826802 -26.45083,20.066072 -7.28936,1.41655 -29.13938,-13.183202 -34.20371,-7.752762 -5.06456,5.430332 10.93822,26.833532 10.0332,34.203613 -0.90436,7.370072 -21.84176,24.060546 -18.24218,30.555275 3.59955,6.494621 28.84222,-2.226327 35.57192,0.912 6.7295,3.138547 15.96928,27.867384 23.2584,26.450846 7.28903,-1.416988 6.79278,-27.861065 11.85732,-33.291502 5.06432,-5.430328 31.47405,-6.767565 32.3795,-14.137531 0.90436,-7.370073 -24.21949,-14.939673 -27.81907,-21.434298 -3.59955,-6.494621 3.08117,-32.433393 -3.64832,-35.571823 -0.84109,-0.39273 -1.66463,-0.29782 -2.73623,0 z M 431.19969,-10.250004 c -13.73586,1.883888 -15.53346,51.512851 -25.53874,61.110564 -10.00537,9.597712 -59.11365,9.156762 -61.56655,22.8024 -2.45314,13.645751 43.67302,30.84317 49.70935,43.32469 6.03611,12.48144 -9.4836,59.1213 2.73623,65.67112 12.2198,6.54949 42.81426,-32.31983 56.55,-34.20371 13.73586,-1.88389 53.3856,27.38366 63.39099,17.78595 10.00517,-9.59792 -17.50254,-50.65724 -15.04963,-64.30298 2.45291,-13.64576 42.52003,-42.244383 36.48394,-54.725907 -6.03634,-12.481426 -53.4513,1.076724 -65.67112,-5.472663 -12.21992,-6.549701 -27.30872,-53.873351 -41.04447,-51.989464 z"
         id="path4235" />
      <path
         id="path4225"
         d="m 549.77257,-117.14126 c -7.50129,2.08145 -20.07305,18.826802 -26.45083,20.066072 -7.28936,1.41655 -29.13938,-13.183202 -34.20371,-7.752762 -5.06456,5.430332 10.93822,26.833532 10.0332,34.203613 -0.90436,7.370072 -21.84176,24.060546 -18.24218,30.555275 3.59955,6.494621 28.84222,-2.226327 35.57192,0.912 6.7295,3.138547 15.96928,27.867384 23.2584,26.450846 7.28903,-1.416988 6.79278,-27.861065 11.85732,-33.291502 5.06432,-5.430328 31.47405,-6.767565 32.3795,-14.137531 0.90436,-7.370073 -24.21949,-14.939673 -27.81907,-21.434298 -3.59955,-6.494621 3.08117,-32.433393 -3.64832,-35.571823 -0.84109,-0.39273 -1.66463,-0.29782 -2.73623,0 z M 431.19969,-12.250004 c -13.73586,1.883888 -15.53346,51.512851 -25.53874,61.110564 -10.00537,9.597712 -59.11365,9.156762 -61.56655,22.8024 -2.45314,13.645751 43.67302,30.84317 49.70935,43.32469 6.03611,12.48144 -9.4836,59.1213 2.73623,65.67112 12.2198,6.54949 42.81426,-32.31983 56.55,-34.20371 13.73586,-1.88389 53.3856,27.38366 63.39099,17.78595 10.00517,-9.59792 -17.50254,-50.65724 -15.04963,-64.302984 2.45291,-13.645756 42.52003,-42.244379 36.48394,-54.725903 -6.03634,-12.481426 -53.4513,1.076724 -65.67112,-5.472663 -12.21992,-6.549701 -27.30872,-53.873351 -41.04447,-51.989464 z"
         style="display:inline;fill:#bebebe;fill-opacity:1;stroke:none;enable-background:new"
         inkscape:connector-curvature="0" />
      <path
         inkscape:connector-curvature="0"
         style="display:inline;fill:#000000;fill-opacity:1;stroke:none;enable-background:new;opacity:0.2"
         d="m 68.28863,265.768 c -0.37507,0.10407 -1.00366,0.94134 -1.32255,1.0033 -0.36446,0.0708 -1.45696,-0.65916 -1.71018,-0.38764 -0.25323,0.27152 0.54691,1.34168 0.50166,1.71018 -0.0452,0.36851 -1.09209,1.20303 -0.91211,1.52777 0.17998,0.32473 1.44211,-0.11132 1.7786,0.0456 0.33647,0.15692 0.79846,1.39337 1.16292,1.32254 0.36445,-0.0709 0.33963,-1.39306 0.59286,-1.66458 0.25322,-0.27151 1.5737,-0.33838 1.61898,-0.70687 0.0452,-0.36851 -1.21098,-0.74699 -1.39096,-1.07172 -0.17997,-0.32473 0.15406,-1.62167 -0.18241,-1.77859 -0.0421,-0.0196 -0.0832,-0.0149 -0.13681,0 z m -5.92865,5.24456 c -0.68679,0.0942 -0.77667,2.57564 -1.27693,3.05553 -0.50027,0.47988 -2.95569,0.45783 -3.07833,1.14012 -0.12266,0.68228 2.18365,1.54216 2.48546,2.16623 0.30181,0.62407 -0.47418,2.95607 0.13682,3.28356 0.61099,0.32747 2.14071,-1.61599 2.8275,-1.71019 0.68679,-0.0942 2.66928,1.36918 3.16955,0.8893 0.50025,-0.4799 -0.87513,-2.53286 -0.75249,-3.21515 0.12265,-0.68229 2.12601,-2.11222 1.8242,-2.7363 -0.30182,-0.62407 -2.67256,0.0538 -3.28355,-0.27363 -0.611,-0.32748 -1.36544,-2.69367 -2.05223,-2.59947 z"
         id="path4237" />
      <path
         id="path4227"
         d="m 68.28863,264.768 c -0.37507,0.10407 -1.00366,0.94134 -1.32255,1.0033 -0.36446,0.0708 -1.45696,-0.65916 -1.71018,-0.38764 -0.25323,0.27152 0.54691,1.34168 0.50166,1.71018 -0.0452,0.36851 -1.09209,1.20303 -0.91211,1.52777 0.17998,0.32473 1.44211,-0.11132 1.7786,0.0456 0.33647,0.15692 0.79846,1.39337 1.16292,1.32254 0.36445,-0.0709 0.33963,-1.39306 0.59286,-1.66458 0.25322,-0.27151 1.5737,-0.33838 1.61898,-0.70687 0.0452,-0.36851 -1.21098,-0.74699 -1.39096,-1.07172 -0.17997,-0.32473 0.15406,-1.62167 -0.18241,-1.77859 -0.0421,-0.0196 -0.0832,-0.0149 -0.13681,0 z m -5.92865,5.24456 c -0.68679,0.0942 -0.77667,2.57564 -1.27693,3.05553 -0.50027,0.47988 -2.95569,0.45783 -3.07833,1.14012 -0.12266,0.68228 2.18365,1.54216 2.48546,2.16623 0.30181,0.62407 -0.47418,2.95607 0.13682,3.28356 0.61099,0.32747 2.14071,-1.61599 2.8275,-1.71019 0.68679,-0.0942 2.66928,1.36918 3.16955,0.8893 0.50025,-0.4799 -0.87513,-2.53286 -0.75249,-3.21515 0.12265,-0.68229 2.12601,-2.11222 1.8242,-2.7363 -0.30182,-0.62407 -2.67256,0.0538 -3.28355,-0.27363 -0.611,-0.32748 -1.36544,-2.69367 -2.05223,-2.59947 z"
         style="display:inline;fill:#bebebe;fill-opacity:1;stroke:none;enable-background:new"
         inkscape:connector-curvature="0" />
      <path
         id="path4239"
         d="m 119.71817,258.79229 c -0.50009,0.13876 -1.33821,1.25512 -1.7634,1.33773 -0.48594,0.0944 -1.94261,-0.87888 -2.28024,-0.51685 -0.33764,0.36202 0.72922,1.7889 0.66888,2.28024 -0.0603,0.49134 -1.45612,1.60404 -1.21614,2.03702 0.23997,0.43298 1.92281,-0.14842 2.37146,0.0608 0.44863,0.20923 1.06462,1.85783 1.55056,1.76339 0.48594,-0.0945 0.45284,-1.85741 0.79048,-2.21944 0.33763,-0.36201 2.09827,-0.45117 2.15864,-0.94249 0.0603,-0.49135 -1.61464,-0.99599 -1.85461,-1.42896 -0.23996,-0.43298 0.20541,-2.16223 -0.24321,-2.37146 -0.0561,-0.0261 -0.11094,-0.0199 -0.18242,0 z m -7.90486,6.99274 c -0.91572,0.1256 -1.03556,3.43419 -1.70258,4.07404 -0.66702,0.63984 -3.94092,0.61044 -4.10444,1.52016 -0.16354,0.90971 2.91154,2.05622 3.31395,2.88831 0.40241,0.83209 -0.63224,3.94143 0.18243,4.37808 0.81465,0.43663 2.85428,-2.15465 3.77,-2.28025 0.91572,-0.1256 3.55904,1.82557 4.22606,1.18573 0.667,-0.63987 -1.16684,-3.37715 -1.00332,-4.28687 0.16354,-0.90972 2.83468,-2.81629 2.43227,-3.6484 -0.40243,-0.83209 -3.56341,0.0717 -4.37807,-0.36484 -0.81466,-0.43664 -1.82058,-3.59156 -2.7363,-3.46596 z"
         style="display:inline;fill:#000000;fill-opacity:1;stroke:none;enable-background:new;opacity:0.2"
         inkscape:connector-curvature="0" />
      <path
         inkscape:connector-curvature="0"
         style="display:inline;fill:#bebebe;fill-opacity:1;stroke:none;enable-background:new"
         d="m 119.71817,257.79229 c -0.50009,0.13876 -1.33821,1.25512 -1.7634,1.33773 -0.48594,0.0944 -1.94261,-0.87888 -2.28024,-0.51685 -0.33764,0.36202 0.72922,1.7889 0.66888,2.28024 -0.0603,0.49134 -1.45612,1.60404 -1.21614,2.03702 0.23997,0.43298 1.92281,-0.14842 2.37146,0.0608 0.44863,0.20923 1.06462,1.85783 1.55056,1.76339 0.48594,-0.0945 0.45284,-1.85741 0.79048,-2.21944 0.33763,-0.36201 2.09827,-0.45117 2.15864,-0.94249 0.0603,-0.49135 -1.61464,-0.99599 -1.85461,-1.42896 -0.23996,-0.43298 0.20541,-2.16223 -0.24321,-2.37146 -0.0561,-0.0261 -0.11094,-0.0199 -0.18242,0 z m -7.90486,6.99274 c -0.91572,0.1256 -1.03556,3.43419 -1.70258,4.07404 -0.66702,0.63984 -3.94092,0.61044 -4.10444,1.52016 -0.16354,0.90971 2.91154,2.05622 3.31395,2.88831 0.40241,0.83209 -0.63224,3.94143 0.18243,4.37808 0.81465,0.43663 2.85428,-2.15465 3.77,-2.28025 0.91572,-0.1256 3.55904,1.82557 4.22606,1.18573 0.667,-0.63987 -1.16684,-3.37715 -1.00332,-4.28687 0.16354,-0.90972 2.83468,-2.81629 2.43227,-3.6484 -0.40243,-0.83209 -3.56341,0.0717 -4.37807,-0.36484 -0.81466,-0.43664 -1.82058,-3.59156 -2.7363,-3.46596 z"
         id="path4229" />
      <path
         inkscape:connector-curvature="0"
         style="display:inline;fill:#bebebe;fill-opacity:1;stroke:none;enable-background:new"
         d="m 27.573858,269.78581 c -0.312559,0.0867 -0.836384,0.78445 -1.102125,0.83609 -0.303716,0.059 -1.214134,-0.5493 -1.42515,-0.32304 -0.211025,0.22627 0.455759,1.11807 0.41805,1.42515 -0.03766,0.30709 -0.910075,1.00253 -0.760091,1.27314 0.149982,0.27061 1.201757,-0.0928 1.482166,0.038 0.280391,0.13078 0.665384,1.16115 0.9691,1.10213 0.303709,-0.0591 0.283025,-1.16089 0.49405,-1.38715 0.211016,-0.22627 1.311416,-0.28199 1.34915,-0.58907 0.03766,-0.30708 -1.00915,-0.62248 -1.159134,-0.8931 -0.149975,-0.27061 0.128384,-1.35138 -0.152007,-1.48216 -0.03509,-0.0164 -0.06934,-0.0125 -0.114013,0 z m -4.940541,4.37047 c -0.572325,0.0785 -0.647226,2.14637 -1.064109,2.54628 -0.416892,0.3999 -2.463075,0.38153 -2.565275,0.9501 -0.102213,0.56857 1.819707,1.28513 2.071216,1.80519 0.251509,0.52006 -0.39515,2.46339 0.114012,2.7363 0.509158,0.27289 1.783926,-1.34666 2.356251,-1.42516 0.572325,-0.0785 2.2244,1.14099 2.641291,0.74109 0.416875,-0.39992 -0.729275,-2.11072 -0.627075,-2.67929 0.102213,-0.56858 1.771675,-1.76019 1.520166,-2.28025 -0.251516,-0.52006 -2.227132,0.0449 -2.736291,-0.22803 -0.509166,-0.2729 -1.137866,-2.24473 -1.710191,-2.16623 z"
         id="path4231" />
    </g>
  </g>
</svg>
