<?xml version="1.0" encoding="UTF-8" standalone="no"?>
<!-- Created with Inkscape (http://www.inkscape.org/) -->

<svg
   xmlns:osb="http://www.openswatchbook.org/uri/2009/osb"
   xmlns:dc="http://purl.org/dc/elements/1.1/"
   xmlns:cc="http://creativecommons.org/ns#"
   xmlns:rdf="http://www.w3.org/1999/02/22-rdf-syntax-ns#"
   xmlns:svg="http://www.w3.org/2000/svg"
   xmlns="http://www.w3.org/2000/svg"
   xmlns:xlink="http://www.w3.org/1999/xlink"
   xmlns:sodipodi="http://sodipodi.sourceforge.net/DTD/sodipodi-0.dtd"
   xmlns:inkscape="http://www.inkscape.org/namespaces/inkscape"
   inkscape:export-ydpi="90.000000"
   inkscape:export-xdpi="90.000000"
   width="736"
   height="544"
   id="svg11300"
   sodipodi:version="0.32"
   inkscape:version="0.91 r13725"
   sodipodi:docname="banshee.svg"
   inkscape:output_extension="org.inkscape.output.svg.inkscape"
   version="1.0"
   style="display:inline;enable-background:new"
   inkscape:export-filename="/home/sam/paper-template.png">
  <sodipodi:namedview
     stroke="#646464"
     fill="#909090"
     id="base"
     pagecolor="#938989"
     bordercolor="#666666"
     borderopacity="0.25490196"
     inkscape:pageopacity="0"
     inkscape:pageshadow="2"
     inkscape:zoom="1"
     inkscape:cx="111.06849"
     inkscape:cy="10.412175"
     inkscape:current-layer="layer6"
     showgrid="false"
     inkscape:grid-bbox="true"
     inkscape:document-units="px"
     inkscape:showpageshadow="false"
     inkscape:window-width="1316"
     inkscape:window-height="698"
     inkscape:window-x="25"
     inkscape:window-y="45"
     width="400px"
     height="300px"
     inkscape:snap-nodes="true"
     inkscape:snap-bbox="true"
     gridtolerance="10000"
     inkscape:object-nodes="true"
     inkscape:snap-grids="true"
     showguides="true"
     inkscape:guide-bbox="true"
     inkscape:window-maximized="1"
     inkscape:bbox-paths="true"
     inkscape:snap-bbox-midpoints="true"
     inkscape:snap-global="true"
     inkscape:object-paths="true"
     inkscape:snap-intersection-paths="true"
     inkscape:snap-smooth-nodes="true">
    <inkscape:grid
       snapvisiblegridlinesonly="true"
       empspacing="4"
       visible="true"
       enabled="true"
       type="xygrid"
       id="grid5883"
       spacingx="1px"
       spacingy="1px" />
    <inkscape:grid
       snapvisiblegridlinesonly="true"
       empopacity="0.25098039"
       empcolor="#ff0000"
       opacity="0.1254902"
       color="#ff0000"
       spacingy="0.5px"
       spacingx="0.5px"
       enabled="false"
       visible="true"
       empspacing="2"
       id="grid11592"
       type="xygrid" />
  </sodipodi:namedview>
  <title
     id="title3004">Paper Icon Theme Template</title>
  <defs
     id="defs3">
    <linearGradient
       osb:paint="solid"
       id="linearGradient4392">
      <stop
         id="stop4394"
         offset="0"
         style="stop-color:#000000;stop-opacity:1;" />
    </linearGradient>
    <filter
       height="1.12"
       y="-0.06"
       width="1.12"
       x="-0.06"
       id="filter4364"
       style="color-interpolation-filters:sRGB"
       inkscape:collect="always">
      <feGaussianBlur
         id="feGaussianBlur4366"
         stdDeviation="3.2"
         inkscape:collect="always" />
    </filter>
    <filter
       height="1.048"
       y="-0.024"
       width="1.048"
       x="-0.024"
       id="filter4378"
       style="color-interpolation-filters:sRGB"
       inkscape:collect="always">
      <feGaussianBlur
         id="feGaussianBlur4380"
         stdDeviation="3.2"
         inkscape:collect="always" />
    </filter>
    <filter
       height="1.04224"
       y="-0.02112"
       width="1.0555789"
       x="-0.027789474"
       id="filter4386"
       style="color-interpolation-filters:sRGB"
       inkscape:collect="always">
      <feGaussianBlur
         id="feGaussianBlur4388"
         stdDeviation="3.52"
         inkscape:collect="always" />
    </filter>
    <linearGradient
       gradientUnits="userSpaceOnUse"
       y2="8.0000045"
       x2="584.448"
       y1="8.0000045"
       x1="263.552"
       id="linearGradient4396"
       xlink:href="#linearGradient4392"
       inkscape:collect="always" />
    <linearGradient
       gradientUnits="userSpaceOnUse"
       y2="8.0000045"
       x2="584.448"
       y1="8.0000045"
       x1="263.552"
       id="linearGradient4396-931"
       xlink:href="#linearGradient4392-348"
       inkscape:collect="always" />
    <linearGradient
       osb:paint="solid"
       id="linearGradient4392-348">
      <stop
         id="stop3410"
         offset="0"
         style="stop-color:#000000;stop-opacity:1;" />
    </linearGradient>
  </defs>
  <metadata
     id="metadata4">
    <rdf:RDF>
      <cc:Work
         rdf:about="">
        <dc:format>image/svg+xml</dc:format>
        <dc:type
           rdf:resource="http://purl.org/dc/dcmitype/StillImage" />
        <dc:creator>
          <cc:Agent>
            <dc:title>Sam Hewitt</dc:title>
          </cc:Agent>
        </dc:creator>
        <dc:source />
        <cc:license
           rdf:resource="http://creativecommons.org/licenses/by-sa/3.0/" />
        <dc:title>Paper Icon Theme Template</dc:title>
        <dc:subject>
          <rdf:Bag />
        </dc:subject>
        <dc:date />
        <dc:rights>
          <cc:Agent>
            <dc:title />
          </cc:Agent>
        </dc:rights>
        <dc:publisher>
          <cc:Agent>
            <dc:title />
          </cc:Agent>
        </dc:publisher>
        <dc:identifier />
        <dc:relation />
        <dc:language />
        <dc:coverage />
        <dc:description />
        <dc:contributor>
          <cc:Agent>
            <dc:title />
          </cc:Agent>
        </dc:contributor>
      </cc:Work>
      <cc:Work
         rdf:about="">
        <dc:format>image/svg+xml</dc:format>
        <dc:type
           rdf:resource="http://purl.org/dc/dcmitype/StillImage" />
      </cc:Work>
      <cc:License
         rdf:about="http://creativecommons.org/licenses/by-sa/3.0/">
        <cc:permits
           rdf:resource="http://creativecommons.org/ns#Reproduction" />
        <cc:permits
           rdf:resource="http://creativecommons.org/ns#Distribution" />
        <cc:requires
           rdf:resource="http://creativecommons.org/ns#Notice" />
        <cc:requires
           rdf:resource="http://creativecommons.org/ns#Attribution" />
        <cc:permits
           rdf:resource="http://creativecommons.org/ns#DerivativeWorks" />
        <cc:requires
           rdf:resource="http://creativecommons.org/ns#ShareAlike" />
      </cc:License>
    </rdf:RDF>
  </metadata>
  <g
     transform="translate(0,244)"
     id="layer1"
     inkscape:label="Icon"
     inkscape:groupmode="layer"
     style="display:inline">
    <g
       inkscape:groupmode="layer"
       id="layer7"
       inkscape:label="Baseplate"
       style="display:none">
      <text
         id="context"
         inkscape:label="context"
         style="font-style:normal;font-variant:normal;font-weight:normal;font-stretch:normal;font-size:18px;font-family:'DejaVu Sans';-inkscape-font-specification:'DejaVu Sans';display:inline;fill:#000000;fill-opacity:1;stroke:none;enable-background:new"
         x="15.006836"
         xml:space="preserve"
         y="337.74512"><tspan
           id="tspan3933"
           sodipodi:role="line"
           x="15.006836"
           y="337.74512"
           style="font-style:normal;font-variant:normal;font-weight:normal;font-stretch:normal;font-family:'DejaVu Sans';-inkscape-font-specification:'DejaVu Sans'">apps</tspan></text>
      <text
         id="icon-name"
         inkscape:label="icon-name"
         sodipodi:linespacing="125%"
         style="font-style:normal;font-variant:normal;font-weight:bold;font-stretch:normal;font-size:18px;line-height:125%;font-family:'DejaVu Sans';-inkscape-font-specification:'DejaVu Sans Bold';text-align:start;writing-mode:lr-tb;text-anchor:start;display:inline;fill:#000000;fill-opacity:1;stroke:none;enable-background:new"
         x="142.48828"
         xml:space="preserve"
         y="337.74512"><tspan
           id="tspan3937"
           sodipodi:role="line"
           x="142.48828"
           y="337.74512"
           style="font-style:normal;font-variant:normal;font-weight:bold;font-stretch:normal;font-size:18px;font-family:'DejaVu Sans';-inkscape-font-specification:'DejaVu Sans Bold'">banshee</tspan></text>
      <rect
         transform="scale(-1,1)"
         inkscape:label="16x16"
         y="268"
         x="-32"
         height="16"
         width="16"
         id="rect16x16"
         style="display:inline;overflow:visible;visibility:visible;fill:#d5d5d5;fill-opacity:1;fill-rule:nonzero;stroke:none;stroke-width:2;marker:none;enable-background:accumulate" />
      <rect
         transform="scale(-1,1)"
         inkscape:label="24x24"
         y="260"
         x="-76"
         height="24"
         width="24"
         id="rect24x24"
         style="display:inline;overflow:visible;visibility:visible;fill:#eeeeee;fill-opacity:1;fill-rule:nonzero;stroke:none;stroke-width:2;marker:none;enable-background:accumulate" />
      <rect
         transform="scale(-1,1)"
         inkscape:label="32x32"
         y="252"
         x="-128"
         height="32"
         width="32"
         id="rect32x32"
         style="display:inline;overflow:visible;visibility:visible;fill:#eeeeee;fill-opacity:1;fill-rule:nonzero;stroke:none;stroke-width:2;marker:none;enable-background:accumulate" />
      <rect
         transform="scale(-1,1)"
         style="display:inline;overflow:visible;visibility:visible;fill:#eeeeee;fill-opacity:1;fill-rule:nonzero;stroke:none;stroke-width:2;marker:none;enable-background:accumulate"
         id="rect48x48"
         width="48"
         height="48"
         x="-192"
         y="236"
         inkscape:label="48x48" />
      <rect
         transform="scale(-1,1)"
         inkscape:label="48x48"
         y="-228"
         x="-720"
         height="512"
         width="512"
         id="rect3951"
         style="display:inline;overflow:visible;visibility:visible;fill:#eeeeee;fill-opacity:1;fill-rule:nonzero;stroke:none;stroke-width:2;marker:none;enable-background:accumulate" />
    </g>
    <g
       style="display:inline"
       inkscape:label="Symbols"
       id="layer6"
       inkscape:groupmode="layer">
      <path
         id="circle4488"
         transform="translate(0,-244)"
         d="M 105 498 C 105 498 99 498 99 504 C 99 504 99 501 105 501 L 105 510 L 105 510.86133 A 10 10 0 0 0 102 518 A 10 10 0 0 0 112 528 A 10 10 0 0 0 122 518 A 10 10 0 0 0 112 508 A 10 10 0 0 0 108 508.84766 L 108 501 L 108 498 L 105 498 z "
         style="display:inline;opacity:0.2;fill:#000000;fill-opacity:1;stroke:none;stroke-width:2.5;stroke-linecap:butt;stroke-linejoin:round;stroke-miterlimit:4;stroke-dasharray:none;stroke-opacity:1;enable-background:new" />
      <circle
         r="160"
         style="display:inline;opacity:0.1;fill:#000000;fill-opacity:1;stroke:#000000;stroke-width:8;stroke-linecap:butt;stroke-linejoin:round;stroke-miterlimit:4;stroke-dasharray:none;stroke-opacity:1;enable-background:new;filter:url(#filter4378)"
         id="circle4382"
         cx="464"
         cy="96" />
      <circle
         cy="96"
         cx="464"
         id="circle4376"
         style="display:inline;opacity:0.2;fill:#000000;fill-opacity:1;stroke:none;stroke-width:2.5;stroke-linecap:butt;stroke-linejoin:round;stroke-miterlimit:4;stroke-dasharray:none;stroke-opacity:1;enable-background:new;filter:url(#filter4378)"
         r="160" />
      <path
         inkscape:connector-curvature="0"
         id="circle4184"
         d="m 158,241 c 0,0 -8,0 -8,8 0,0 0,-4 8,-4 l 0,12.2207 a 14,14 0 0 0 -4,9.7793 14,14 0 0 0 14,14 14,14 0 0 0 14,-14 14,14 0 0 0 -14,-14 14,14 0 0 0 -6,1.36719 L 162,245 l 0,-4 -4,0 z"
         style="display:inline;opacity:0.2;fill:#000000;fill-opacity:1;stroke:none;stroke-width:2.5;stroke-linecap:butt;stroke-linejoin:round;stroke-miterlimit:4;stroke-dasharray:none;stroke-opacity:1;enable-background:new" />
      <circle
         r="14"
         cy="266"
         cx="168"
         id="path4147"
         style="display:inline;opacity:1;fill:#ebebeb;fill-opacity:1;stroke:none;stroke-width:2.5;stroke-linecap:butt;stroke-linejoin:round;stroke-miterlimit:4;stroke-dasharray:none;stroke-opacity:1;enable-background:new" />
      <circle
         r="10"
         cy="267"
         cx="168"
         id="path4261"
         style="opacity:0.2;fill:#000000;fill-opacity:1;stroke:none;stroke-width:2.5;stroke-linecap:butt;stroke-linejoin:round;stroke-miterlimit:4;stroke-dasharray:none;stroke-opacity:1" />
      <path
         id="circle4196"
         d="m 168,252 a 14,14 0 0 0 -14,14 14,14 0 0 0 0.0215,0.58594 A 14,14 0 0 1 168,253 14,14 0 0 1 181.97852,266.41406 14,14 0 0 0 182,266 14,14 0 0 0 168,252 Z"
         style="display:inline;opacity:0.2;fill:#ffffff;fill-opacity:1;stroke:none;stroke-width:2.5;stroke-linecap:butt;stroke-linejoin:round;stroke-miterlimit:4;stroke-dasharray:none;stroke-opacity:1;enable-background:new"
         inkscape:connector-curvature="0" />
      <path
         sodipodi:nodetypes="cccsssccccc"
         inkscape:connector-curvature="0"
         id="path4154"
         d="m 158,240 c 0,0 -8,0 -8,8 0,0 0,-4 8,-4 l 0,22 c 0,5.52285 4.47715,10 10,10 5.52285,0 10,-4.47715 10,-10 0,-5.52285 -4.47715,-10 -10,-10 -2.16504,0.003 -4.27051,0.70931 -6,2.01172 L 162,244 l 0,-4 z"
         style="display:inline;opacity:1;fill:#565656;fill-opacity:1;stroke:none;stroke-width:2.5;stroke-linecap:butt;stroke-linejoin:round;stroke-miterlimit:4;stroke-dasharray:none;stroke-opacity:1;enable-background:new" />
      <circle
         style="opacity:0.1;fill:#000000;fill-opacity:1;stroke:none;stroke-width:2.5;stroke-linecap:butt;stroke-linejoin:round;stroke-miterlimit:4;stroke-dasharray:none;stroke-opacity:1"
         id="circle4203"
         cx="168"
         cy="267"
         r="6" />
      <circle
         r="6"
         cy="266"
         cx="168"
         id="path4201"
         style="opacity:1;fill:#ffffff;fill-opacity:1;stroke:none;stroke-width:2.5;stroke-linecap:butt;stroke-linejoin:round;stroke-miterlimit:4;stroke-dasharray:none;stroke-opacity:1" />
      <path
         style="display:inline;opacity:0.2;fill:#000000;fill-opacity:1;stroke:none;stroke-width:2.5;stroke-linecap:butt;stroke-linejoin:round;stroke-miterlimit:4;stroke-dasharray:none;stroke-opacity:1;enable-background:new"
         d="m 59,263 c 0,0 -4,0 -4,4 0,0 0,-2 4,-2 l 0,6.11035 A 7,7 0 0 0 57,276 a 7,7 0 0 0 7,7 7,7 0 0 0 7,-7 7,7 0 0 0 -7,-7 7,7 0 0 0 -3,0.68359 L 61,265 l 0,-2 -2,0 z"
         id="path4217"
         inkscape:connector-curvature="0" />
      <circle
         style="display:inline;opacity:1;fill:#ebebeb;fill-opacity:1;stroke:none;stroke-width:2.5;stroke-linecap:butt;stroke-linejoin:round;stroke-miterlimit:4;stroke-dasharray:none;stroke-opacity:1;enable-background:new"
         id="circle4219"
         cx="64"
         cy="275"
         r="7" />
      <path
         id="circle4246"
         transform="translate(0,-244)"
         d="M 64 512 A 7 7 0 0 0 57 519 A 7 7 0 0 0 57.023438 519.54102 A 7 7 0 0 1 64 513 A 7 7 0 0 1 70.976562 519.45898 A 7 7 0 0 0 71 519 A 7 7 0 0 0 64 512 z "
         style="display:inline;opacity:0.2;fill:#ffffff;fill-opacity:1;stroke:none;stroke-width:2.5;stroke-linecap:butt;stroke-linejoin:round;stroke-miterlimit:4;stroke-dasharray:none;stroke-opacity:1;enable-background:new" />
      <circle
         r="5"
         cy="276"
         cx="64"
         id="path4251"
         style="opacity:0.2;fill:#000000;fill-opacity:1;stroke:none;stroke-width:2.5;stroke-linecap:butt;stroke-linejoin:round;stroke-miterlimit:4;stroke-dasharray:none;stroke-opacity:1" />
      <path
         style="display:inline;opacity:1;fill:#565656;fill-opacity:1;stroke:none;stroke-width:2.5;stroke-linecap:butt;stroke-linejoin:round;stroke-miterlimit:4;stroke-dasharray:none;stroke-opacity:1;enable-background:new"
         d="m 59,262 c 0,0 -4,0 -4,4 0,0 0,-2 4,-2 l 0,11 c 0,2.76143 2.238575,5 5,5 2.761425,0 5,-2.23857 5,-5 0,-2.76143 -2.238575,-5 -5,-5 -1.08252,0.002 -2.135255,0.35465 -3,1.00586 L 61,264 l 0,-2 z"
         id="path4225"
         inkscape:connector-curvature="0"
         sodipodi:nodetypes="cccsssccccc" />
      <circle
         r="3"
         cy="276"
         cx="64"
         id="circle4229"
         style="opacity:0.1;fill:#000000;fill-opacity:1;stroke:none;stroke-width:2.5;stroke-linecap:butt;stroke-linejoin:round;stroke-miterlimit:4;stroke-dasharray:none;stroke-opacity:1" />
      <circle
         style="opacity:1;fill:#ffffff;fill-opacity:1;stroke:none;stroke-width:2.5;stroke-linecap:butt;stroke-linejoin:round;stroke-miterlimit:4;stroke-dasharray:none;stroke-opacity:1"
         id="circle4231"
         cx="64"
         cy="275"
         r="3" />
      <circle
         r="160"
         style="display:inline;opacity:1;fill:#ebebeb;fill-opacity:1;stroke:none;stroke-width:2.5;stroke-linecap:butt;stroke-linejoin:round;stroke-miterlimit:4;stroke-dasharray:none;stroke-opacity:1;enable-background:new"
         id="circle4283"
         cx="464"
         cy="92" />
      <path
         inkscape:connector-curvature="0"
         style="display:inline;opacity:0.2;fill:#000000;fill-opacity:1;stroke:none;stroke-width:2.5;stroke-linecap:butt;stroke-linejoin:round;stroke-miterlimit:4;stroke-dasharray:none;stroke-opacity:1;enable-background:new;filter:url(#filter4386)"
         d="m 352,-192 c -18.65082,1.67093 -80,7.63333 -80,80 0,0 0,-32 80,-32 l 0,240 A 112,112 0 0 0 464,208 112,112 0 0 0 576,96 112,112 0 0 0 464,-16 112,112 0 0 0 400,4.24805 L 400,-192 l -48,0 z"
         id="path4384" />
      <path
         id="circle4332"
         transform="translate(0,-244)"
         d="M 464 176 A 160 160 0 0 0 304 336 A 160 160 0 0 0 304.04102 337.17188 A 160 160 0 0 1 464 178 A 160 160 0 0 1 623.95898 336.82812 A 160 160 0 0 0 624 336 A 160 160 0 0 0 464 176 z "
         style="display:inline;opacity:0.6;fill:#ffffff;fill-opacity:1;stroke:none;stroke-width:2.5;stroke-linecap:butt;stroke-linejoin:round;stroke-miterlimit:4;stroke-dasharray:none;stroke-opacity:1;enable-background:new" />
      <path
         id="path4390"
         d="m 352,-192 c -18.65082,1.67093 -80,7.63333 -80,80 0,0 0,-32 80,-32 l 0,240 A 112,112 0 0 0 464,208 112,112 0 0 0 576,96 112,112 0 0 0 464,-16 112,112 0 0 0 400,4.24805 L 400,-192 l -48,0 z"
         style="display:inline;opacity:0.1;fill:#000000;fill-opacity:1;stroke:url(#linearGradient4396-931);stroke-width:8;stroke-linecap:butt;stroke-linejoin:round;stroke-miterlimit:4;stroke-dasharray:none;stroke-opacity:1;enable-background:new;filter:url(#filter4386)"
         inkscape:connector-curvature="0" />
      <path
         id="path4289"
         transform="translate(0,-244)"
         d="M 352 48 C 333.34918 49.67093 272 55.63333 272 128 C 272 128 272 96 352 96 L 352 336 A 112 112 0 0 0 464 448 A 112 112 0 0 0 576 336 A 112 112 0 0 0 464 224 A 112 112 0 0 0 400 244.24805 L 400 48 L 352 48 z "
         style="display:inline;opacity:1;fill:#565656;fill-opacity:1;stroke:none;stroke-width:2.5;stroke-linecap:butt;stroke-linejoin:round;stroke-miterlimit:4;stroke-dasharray:none;stroke-opacity:1;enable-background:new" />
      <circle
         r="64"
         cy="96.000023"
         cx="464.00006"
         id="circle4362"
         style="opacity:0.2;fill:#000000;fill-opacity:1;stroke:none;stroke-width:2.5;stroke-linecap:butt;stroke-linejoin:round;stroke-miterlimit:4;stroke-dasharray:none;stroke-opacity:1;filter:url(#filter4364)" />
      <circle
         style="opacity:1;fill:#ffffff;fill-opacity:1;stroke:none;stroke-width:2.5;stroke-linecap:butt;stroke-linejoin:round;stroke-miterlimit:4;stroke-dasharray:none;stroke-opacity:1"
         id="circle4295"
         cx="464.00006"
         cy="92.000023"
         r="64" />
      <path
         id="path4314"
         transform="translate(0,-244)"
         d="M 352 48 C 333.34918 49.67093 272 55.63333 272 128 C 272 128 272.00734 127.82179 272.0332 127.54102 C 273.4133 57.506288 333.56349 51.65173 352 50 L 400 50 L 400 48 L 352 48 z M 464 224 A 112 112 0 0 0 400 244.24805 L 400 246.24805 A 112 112 0 0 1 464 226 A 112 112 0 0 1 575.95898 337.16992 A 112 112 0 0 0 576 336 A 112 112 0 0 0 464 224 z "
         style="display:inline;opacity:0.1;fill:#ffffff;fill-opacity:1;stroke:none;stroke-width:2.5;stroke-linecap:butt;stroke-linejoin:round;stroke-miterlimit:4;stroke-dasharray:none;stroke-opacity:1;enable-background:new" />
      <g
         id="g4437">
        <circle
           style="display:inline;opacity:1;fill:#ebebeb;fill-opacity:1;stroke:none;stroke-width:2.5;stroke-linecap:butt;stroke-linejoin:round;stroke-miterlimit:4;stroke-dasharray:none;stroke-opacity:1;enable-background:new"
           id="circle4398"
           cx="24"
           cy="278"
           r="6" />
        <path
           style="display:inline;opacity:0.4;fill:#ffffff;fill-opacity:1;stroke:none;stroke-width:2.5;stroke-linecap:butt;stroke-linejoin:round;stroke-miterlimit:4;stroke-dasharray:none;stroke-opacity:1;enable-background:new"
           d="M 24 516 A 6 6 0 0 0 18 522 A 6 6 0 0 0 18.025391 522.49805 A 6 6 0 0 1 24 517 A 6 6 0 0 1 29.974609 522.50195 A 6 6 0 0 0 30 522 A 6 6 0 0 0 24 516 z "
           transform="translate(0,-244)"
           id="circle4432" />
        <path
           style="opacity:1;fill:#565656;fill-opacity:1;stroke:none;stroke-width:8;stroke-linecap:butt;stroke-linejoin:round;stroke-miterlimit:4;stroke-dasharray:none;stroke-opacity:1"
           d="M 18 512 L 18 514 L 20 514 L 20 522 A 4 4 0 0 0 24 526 A 4 4 0 0 0 28 522 A 4 4 0 0 0 24 518 A 4 4 0 0 0 22 518.54102 L 22 514 L 22 512 L 20 512 L 18 512 z "
           transform="translate(0,-244)"
           id="path4406" />
        <circle
           style="opacity:1;fill:#ffffff;fill-opacity:1;stroke:none;stroke-width:2.5;stroke-linecap:butt;stroke-linejoin:round;stroke-miterlimit:4;stroke-dasharray:none;stroke-opacity:1"
           id="circle4402"
           cx="24"
           cy="278"
           r="2" />
        <path
           style="opacity:0.1;fill:#f9f9f9;fill-opacity:1;stroke:none;stroke-width:8;stroke-linecap:butt;stroke-linejoin:round;stroke-miterlimit:4;stroke-dasharray:none;stroke-opacity:1"
           d="M 18 512 L 18 513 L 20 513 L 22 513 L 22 512 L 20 512 L 18 512 z M 24 518 A 4 4 0 0 0 22 518.54102 L 22 519.54102 A 4 4 0 0 1 24 519 A 4 4 0 0 1 27.964844 522.49414 A 4 4 0 0 0 28 522 A 4 4 0 0 0 24 518 z "
           transform="translate(0,-244)"
           id="path4419" />
      </g>
      <circle
         style="display:inline;opacity:1;fill:#ebebeb;fill-opacity:1;stroke:none;stroke-width:2.5;stroke-linecap:butt;stroke-linejoin:round;stroke-miterlimit:4;stroke-dasharray:none;stroke-opacity:1;enable-background:new"
         id="circle4446"
         cx="112"
         cy="273"
         r="10" />
      <circle
         r="7"
         cy="274"
         cx="112"
         id="path4486"
         style="opacity:0.2;fill:#000000;fill-opacity:1;stroke:none;stroke-width:8;stroke-linecap:butt;stroke-linejoin:round;stroke-miterlimit:4;stroke-dasharray:none;stroke-opacity:1" />
      <path
         id="circle4473"
         transform="translate(0,-244)"
         d="M 112 507 A 10 10 0 0 0 102 517 A 10 10 0 0 0 102.02148 517.58594 A 10 10 0 0 1 112 508 A 10 10 0 0 1 121.97852 517.41406 A 10 10 0 0 0 122 517 A 10 10 0 0 0 112 507 z "
         style="display:inline;opacity:0.4;fill:#ffffff;fill-opacity:1;stroke:none;stroke-width:2.5;stroke-linecap:butt;stroke-linejoin:round;stroke-miterlimit:4;stroke-dasharray:none;stroke-opacity:1;enable-background:new" />
      <path
         inkscape:connector-curvature="0"
         id="path4461"
         d="m 105,253 c 0,0 -6,0 -6,6 0,0 0,-3 6,-3 l 0,9 0,8 a 7,7 0 0 0 7,7 7,7 0 0 0 7,-7 7,7 0 0 0 -7,-7 7,7 0 0 0 -4,1.26562 L 108,265 l 0,-9 0,-3 -3,0 z"
         style="opacity:1;fill:#565656;fill-opacity:1;stroke:none;stroke-width:8;stroke-linecap:butt;stroke-linejoin:round;stroke-miterlimit:4;stroke-dasharray:none;stroke-opacity:1" />
      <circle
         r="4"
         cy="274"
         cx="112"
         id="circle4493"
         style="opacity:0.2;fill:#000000;fill-opacity:1;stroke:none;stroke-width:2.5;stroke-linecap:butt;stroke-linejoin:round;stroke-miterlimit:4;stroke-dasharray:none;stroke-opacity:1" />
      <circle
         style="opacity:1;fill:#ffffff;fill-opacity:1;stroke:none;stroke-width:2.5;stroke-linecap:butt;stroke-linejoin:round;stroke-miterlimit:4;stroke-dasharray:none;stroke-opacity:1"
         id="circle4452"
         cx="112"
         cy="273"
         r="4" />
    </g>
  </g>
</svg>
