<?xml version="1.0" encoding="UTF-8" standalone="no"?>
<!-- Created with Inkscape (http://www.inkscape.org/) -->

<svg
   xmlns:osb="http://www.openswatchbook.org/uri/2009/osb"
   xmlns:dc="http://purl.org/dc/elements/1.1/"
   xmlns:cc="http://creativecommons.org/ns#"
   xmlns:rdf="http://www.w3.org/1999/02/22-rdf-syntax-ns#"
   xmlns:svg="http://www.w3.org/2000/svg"
   xmlns="http://www.w3.org/2000/svg"
   xmlns:sodipodi="http://sodipodi.sourceforge.net/DTD/sodipodi-0.dtd"
   xmlns:inkscape="http://www.inkscape.org/namespaces/inkscape"
   inkscape:export-ydpi="90.000000"
   inkscape:export-xdpi="90.000000"
   width="736"
   height="544"
   id="svg11300"
   sodipodi:version="0.32"
   inkscape:version="0.91 r13725"
   sodipodi:docname="devhelp.svg"
   inkscape:output_extension="org.inkscape.output.svg.inkscape"
   version="1.0"
   style="display:inline;enable-background:new"
   inkscape:export-filename="/home/sam/paper-template.png">
  <sodipodi:namedview
     stroke="#646464"
     fill="#909090"
     id="base"
     pagecolor="#484848"
     bordercolor="#666666"
     borderopacity="0.25490196"
     inkscape:pageopacity="0"
     inkscape:pageshadow="2"
     inkscape:zoom="1"
     inkscape:cx="537.29848"
     inkscape:cy="322.11325"
     inkscape:current-layer="layer6"
     showgrid="false"
     inkscape:grid-bbox="true"
     inkscape:document-units="px"
     inkscape:showpageshadow="false"
     inkscape:window-width="1316"
     inkscape:window-height="698"
     inkscape:window-x="25"
     inkscape:window-y="45"
     width="400px"
     height="300px"
     inkscape:snap-nodes="true"
     inkscape:snap-bbox="true"
     gridtolerance="10000"
     inkscape:object-nodes="true"
     inkscape:snap-grids="true"
     showguides="true"
     inkscape:guide-bbox="true"
     inkscape:window-maximized="1"
     inkscape:snap-global="true"
     inkscape:snap-intersection-paths="false"
     inkscape:object-paths="true"
     inkscape:snap-smooth-nodes="true"
     inkscape:snap-bbox-midpoints="true">
    <inkscape:grid
       snapvisiblegridlinesonly="true"
       empspacing="4"
       visible="true"
       enabled="true"
       type="xygrid"
       id="grid5883"
       spacingx="1px"
       spacingy="1px" />
    <inkscape:grid
       snapvisiblegridlinesonly="true"
       empopacity="0.25098039"
       empcolor="#ff0000"
       opacity="0.1254902"
       color="#ff0000"
       spacingy="0.5px"
       spacingx="0.5px"
       enabled="false"
       visible="true"
       empspacing="2"
       id="grid11592"
       type="xygrid" />
  </sodipodi:namedview>
  <title
     id="title3004">Paper Icon Theme</title>
  <defs
     id="defs3">
    <linearGradient
       id="linearGradient5606"
       osb:paint="solid">
      <stop
         id="stop5608"
         offset="0"
         style="stop-color:#000000;stop-opacity:1;" />
    </linearGradient>
    <clipPath
       id="clipPath4260"
       clipPathUnits="userSpaceOnUse">
      <path
         inkscape:connector-curvature="0"
         style="fill:#d8d8d8;fill-opacity:1;stroke:none"
         d="m 232,148 0,56 19,0 c 1.662,0 3,-1.338 3,-3 l 0,-50 c 0,-1.662 -1.338,-3 -3,-3 l -19,0 z"
         id="path4262" />
    </clipPath>
    <filter
       height="1.0428571"
       y="-0.02142857"
       width="1.0545455"
       x="-0.027272727"
       id="filter4332"
       style="color-interpolation-filters:sRGB"
       inkscape:collect="always">
      <feGaussianBlur
         id="feGaussianBlur4334"
         stdDeviation="4"
         inkscape:collect="always" />
    </filter>
    <clipPath
       id="clipPath4419"
       clipPathUnits="userSpaceOnUse">
      <path
         style="fill:#d8d8d8;fill-opacity:1;stroke:none"
         d="m 168,240 0,40 14.02148,0 c 1.108,0 2,-0.892 2,-2 l 0,-36 c 0,-1.108 -0.892,-2 -2,-2 L 168,240 Z"
         id="path4421"
         inkscape:connector-curvature="0" />
    </clipPath>
    <filter
       height="1.051"
       y="-0.0255"
       width="1.0453333"
       x="-0.022666667"
       id="filter5044"
       style="color-interpolation-filters:sRGB"
       inkscape:collect="always">
      <feGaussianBlur
         id="feGaussianBlur5046"
         stdDeviation="1.36"
         inkscape:collect="always" />
    </filter>
  </defs>
  <metadata
     id="metadata4">
    <rdf:RDF>
      <cc:Work
         rdf:about="">
        <dc:format>image/svg+xml</dc:format>
        <dc:type
           rdf:resource="http://purl.org/dc/dcmitype/StillImage" />
        <dc:creator>
          <cc:Agent>
            <dc:title>Sam Hewitt</dc:title>
          </cc:Agent>
        </dc:creator>
        <dc:source />
        <cc:license
           rdf:resource="http://creativecommons.org/licenses/by-sa/3.0/" />
        <dc:title>Paper Icon Theme</dc:title>
        <dc:subject>
          <rdf:Bag />
        </dc:subject>
        <dc:date />
        <dc:rights>
          <cc:Agent>
            <dc:title />
          </cc:Agent>
        </dc:rights>
        <dc:publisher>
          <cc:Agent>
            <dc:title />
          </cc:Agent>
        </dc:publisher>
        <dc:identifier />
        <dc:relation />
        <dc:language />
        <dc:coverage />
        <dc:description />
        <dc:contributor>
          <cc:Agent>
            <dc:title />
          </cc:Agent>
        </dc:contributor>
      </cc:Work>
      <cc:Work
         rdf:about="">
        <dc:format>image/svg+xml</dc:format>
        <dc:type
           rdf:resource="http://purl.org/dc/dcmitype/StillImage" />
      </cc:Work>
    </rdf:RDF>
  </metadata>
  <g
     transform="translate(0,244)"
     id="layer1"
     inkscape:label="Icon"
     inkscape:groupmode="layer"
     style="display:inline">
    <g
       inkscape:groupmode="layer"
       id="layer7"
       inkscape:label="Baseplate"
       style="display:none">
      <text
         id="context"
         inkscape:label="context"
         style="font-style:normal;font-variant:normal;font-weight:normal;font-stretch:normal;font-size:18px;font-family:'DejaVu Sans';-inkscape-font-specification:'DejaVu Sans';display:inline;fill:#000000;fill-opacity:1;stroke:none;enable-background:new"
         x="15.006836"
         xml:space="preserve"
         y="332.48523"><tspan
           id="tspan3933"
           sodipodi:role="line"
           x="15.006836"
           y="332.48523"
           style="font-style:normal;font-variant:normal;font-weight:normal;font-stretch:normal;font-family:'DejaVu Sans';-inkscape-font-specification:'DejaVu Sans'">apps</tspan></text>
      <text
         id="icon-name"
         inkscape:label="icon-name"
         sodipodi:linespacing="125%"
         style="font-style:normal;font-variant:normal;font-weight:bold;font-stretch:normal;font-size:18px;line-height:125%;font-family:'DejaVu Sans';-inkscape-font-specification:'DejaVu Sans Bold';text-align:start;writing-mode:lr-tb;text-anchor:start;display:inline;fill:#000000;fill-opacity:1;stroke:none;enable-background:new"
         x="142.48828"
         xml:space="preserve"
         y="332.48523"><tspan
           id="tspan3937"
           sodipodi:role="line"
           x="142.48828"
           y="332.48523"
           style="font-style:normal;font-variant:normal;font-weight:bold;font-stretch:normal;font-size:18px;font-family:'DejaVu Sans';-inkscape-font-specification:'DejaVu Sans Bold'">devhelp</tspan></text>
      <rect
         transform="scale(-1,1)"
         inkscape:label="16x16"
         y="268"
         x="-32"
         height="16"
         width="16"
         id="rect16x16"
         style="display:inline;overflow:visible;visibility:visible;fill:#e9e9e9;fill-opacity:1;fill-rule:nonzero;stroke:none;stroke-width:2;marker:none;enable-background:accumulate" />
      <rect
         transform="scale(-1,1)"
         inkscape:label="24x24"
         y="260"
         x="-76"
         height="24"
         width="24"
         id="rect24x24"
         style="display:inline;overflow:visible;visibility:visible;fill:#e9e9e9;fill-opacity:1;fill-rule:nonzero;stroke:none;stroke-width:2;marker:none;enable-background:accumulate" />
      <rect
         transform="scale(-1,1)"
         inkscape:label="32x32"
         y="252"
         x="-128"
         height="32"
         width="32"
         id="rect32x32"
         style="display:inline;overflow:visible;visibility:visible;fill:#e9e9e9;fill-opacity:1;fill-rule:nonzero;stroke:none;stroke-width:2;marker:none;enable-background:accumulate" />
      <rect
         transform="scale(-1,1)"
         style="display:inline;overflow:visible;visibility:visible;fill:#e9e9e9;fill-opacity:1;fill-rule:nonzero;stroke:none;stroke-width:2;marker:none;enable-background:accumulate"
         id="rect48x48"
         width="48"
         height="48"
         x="-192"
         y="236"
         inkscape:label="48x48" />
      <rect
         transform="scale(-1,1)"
         inkscape:label="48x48"
         y="-228"
         x="-720"
         height="512"
         width="512"
         id="rect3951"
         style="display:inline;overflow:visible;visibility:visible;fill:#e9e9e9;fill-opacity:1;fill-rule:nonzero;stroke:none;stroke-width:2;marker:none;enable-background:accumulate" />
    </g>
    <g
       style="display:inline"
       inkscape:label="Symbols"
       id="layer6"
       inkscape:groupmode="layer">
      <g
         transform="translate(-7.5,-48)"
         id="g4283">
        <rect
           style="display:inline;opacity:1;fill:#878787;fill-opacity:1;stroke:none;stroke-width:1;stroke-linecap:round;stroke-linejoin:miter;stroke-miterlimit:4;stroke-dasharray:none;stroke-opacity:1;enable-background:new"
           id="rect4218"
           width="7"
           height="9"
           x="125.5"
           y="306"
           ry="0.5" />
        <path
           sodipodi:nodetypes="sscsscsss"
           id="path4220"
           d="m 126,306 c -0.277,0 -0.5,0.223 -0.5,0.5 l 0,1 c 0,-0.277 0.223,-0.5 0.5,-0.5 l 6,0 c 0.277,0 0.5,0.223 0.5,0.5 l 0,-1 c 0,-0.277 -0.223,-0.5 -0.5,-0.5 z"
           style="display:inline;opacity:0.2;fill:#ffffff;fill-opacity:1;stroke:none;stroke-width:1;stroke-linecap:round;stroke-linejoin:miter;stroke-miterlimit:4;stroke-dasharray:none;stroke-opacity:1;enable-background:new"
           inkscape:connector-curvature="0" />
        <rect
           ry="0.5"
           y="321"
           x="125.5"
           height="6"
           width="7"
           id="rect4222"
           style="display:inline;opacity:0.2;fill:#000000;fill-opacity:1;stroke:none;stroke-width:1;stroke-linecap:round;stroke-linejoin:miter;stroke-miterlimit:4;stroke-dasharray:none;stroke-opacity:1;enable-background:new" />
        <rect
           ry="0.5"
           y="312"
           x="125.5"
           height="8"
           width="7"
           id="rect4224"
           style="display:inline;opacity:1;fill:#7e7e7e;fill-opacity:1;stroke:none;stroke-width:1;stroke-linecap:round;stroke-linejoin:miter;stroke-miterlimit:4;stroke-dasharray:none;stroke-opacity:1;enable-background:new" />
        <rect
           style="display:inline;opacity:1;fill:#c7c7c7;fill-opacity:1;stroke:none;stroke-width:1;stroke-linecap:round;stroke-linejoin:miter;stroke-miterlimit:4;stroke-dasharray:none;stroke-opacity:1;enable-background:new"
           id="rect4226"
           width="7"
           height="8"
           x="125.5"
           y="318"
           ry="0.5" />
        <path
           sodipodi:nodetypes="sscsscsss"
           id="path4228"
           d="m 126,318 c -0.277,0 -0.5,0.223 -0.5,0.5 l 0,1 c 0,-0.277 0.223,-0.5 0.5,-0.5 l 6,0 c 0.277,0 0.5,0.223 0.5,0.5 l 0,-1 c 0,-0.277 -0.223,-0.5 -0.5,-0.5 z"
           style="display:inline;opacity:0.2;fill:#ffffff;fill-opacity:1;stroke:none;stroke-width:1;stroke-linecap:round;stroke-linejoin:miter;stroke-miterlimit:4;stroke-dasharray:none;stroke-opacity:1;enable-background:new"
           inkscape:connector-curvature="0" />
        <path
           inkscape:connector-curvature="0"
           style="display:inline;opacity:0.2;fill:#ffffff;fill-opacity:1;stroke:none;stroke-width:1;stroke-linecap:round;stroke-linejoin:miter;stroke-miterlimit:4;stroke-dasharray:none;stroke-opacity:1;enable-background:new"
           d="m 126,312 c -0.277,0 -0.5,0.223 -0.5,0.5 l 0,1 c 0,-0.277 0.223,-0.5 0.5,-0.5 l 6,0 c 0.277,0 0.5,0.223 0.5,0.5 l 0,-1 c 0,-0.277 -0.223,-0.5 -0.5,-0.5 z"
           id="path4230"
           sodipodi:nodetypes="sscsscsss" />
      </g>
      <g
         transform="translate(-8.5,-48)"
         id="g4274">
        <rect
           style="display:inline;opacity:1;fill:#878787;fill-opacity:1;stroke:none;stroke-width:1;stroke-linecap:round;stroke-linejoin:miter;stroke-miterlimit:4;stroke-dasharray:none;stroke-opacity:1;enable-background:new"
           id="rect4202"
           width="7"
           height="6"
           x="33.5"
           y="318"
           ry="0.5" />
        <path
           sodipodi:nodetypes="sscsscsss"
           id="path4204"
           d="m 34,318 c -0.277,0 -0.5,0.223 -0.5,0.5 l 0,1 c 0,-0.277 0.223,-0.5 0.5,-0.5 l 6,0 c 0.277,0 0.5,0.223 0.5,0.5 l 0,-1 c 0,-0.277 -0.223,-0.5 -0.5,-0.5 z"
           style="display:inline;opacity:0.2;fill:#ffffff;fill-opacity:1;stroke:none;stroke-width:1;stroke-linecap:round;stroke-linejoin:miter;stroke-miterlimit:4;stroke-dasharray:none;stroke-opacity:1;enable-background:new"
           inkscape:connector-curvature="0" />
        <rect
           ry="0.5"
           y="325"
           x="33.5"
           height="6"
           width="7"
           id="rect4206"
           style="display:inline;opacity:0.2;fill:#000000;fill-opacity:1;stroke:none;stroke-width:1;stroke-linecap:round;stroke-linejoin:miter;stroke-miterlimit:4;stroke-dasharray:none;stroke-opacity:1;enable-background:new" />
        <rect
           ry="0.5"
           y="322"
           x="33.5"
           height="5"
           width="7"
           id="rect4208"
           style="display:inline;opacity:1;fill:#7e7e7e;fill-opacity:1;stroke:none;stroke-width:1;stroke-linecap:round;stroke-linejoin:miter;stroke-miterlimit:4;stroke-dasharray:none;stroke-opacity:1;enable-background:new" />
        <rect
           style="display:inline;opacity:1;fill:#c7c7c7;fill-opacity:1;stroke:none;stroke-width:1;stroke-linecap:round;stroke-linejoin:miter;stroke-miterlimit:4;stroke-dasharray:none;stroke-opacity:1;enable-background:new"
           id="rect4210"
           width="6"
           height="4"
           x="34.5"
           y="326"
           ry="0.5" />
        <path
           sodipodi:nodetypes="sscsscsss"
           id="path4212"
           d="m 34,326 c -0.277,0 -0.5,0.223 -0.5,0.5 l 0,1 c 0,-0.277 0.223,-0.5 0.5,-0.5 l 6,0 c 0.277,0 0.5,0.223 0.5,0.5 l 0,-1 c 0,-0.277 -0.223,-0.5 -0.5,-0.5 z"
           style="display:inline;opacity:0.2;fill:#ffffff;fill-opacity:1;stroke:none;stroke-width:1;stroke-linecap:round;stroke-linejoin:miter;stroke-miterlimit:4;stroke-dasharray:none;stroke-opacity:1;enable-background:new"
           inkscape:connector-curvature="0" />
        <path
           inkscape:connector-curvature="0"
           style="display:inline;opacity:0.2;fill:#ffffff;fill-opacity:1;stroke:none;stroke-width:1;stroke-linecap:round;stroke-linejoin:miter;stroke-miterlimit:4;stroke-dasharray:none;stroke-opacity:1;enable-background:new"
           d="m 34,322 c -0.277,0 -0.5,0.223 -0.5,0.5 l 0,1 c 0,-0.277 0.223,-0.5 0.5,-0.5 l 6,0 c 0.277,0 0.5,0.223 0.5,0.5 l 0,-1 c 0,-0.277 -0.223,-0.5 -0.5,-0.5 z"
           id="path4214"
           sodipodi:nodetypes="sscsscsss" />
      </g>
      <path
         sodipodi:nodetypes="sssscsssscs"
         inkscape:connector-curvature="0"
         id="path4410"
         d="m 154.02148,241 c -1.108,0 -2,0.892 -2,2 l 0,36 c 0,1.108 0.892,2 2,2 L 168,281 l 14.02148,0 c 1.108,0 2,-0.892 2,-2 l 0,-36 c 0,-1.108 -0.892,-2 -2,-2 L 168,241 Z"
         style="opacity:0.2;fill:#000000;fill-opacity:1;stroke:none" />
      <path
         sodipodi:nodetypes="sssscccs"
         inkscape:connector-curvature="0"
         id="path4277"
         transform="translate(0,-244)"
         d="m 154.02148,484 c -1.108,0 -2,0.892 -2,2 l 0,36 c 0,1.108 0.892,2 2,2 l 3.97852,0 3,-20 -3,-20 z"
         style="opacity:1;fill:#333333;fill-opacity:1;stroke:none" />
      <rect
         ry="10"
         y="-134"
         x="512"
         height="128"
         width="144"
         id="rect5050"
         style="opacity:0.2;fill:#000000;fill-opacity:1;stroke:none;stroke-width:1;stroke-linecap:round;stroke-linejoin:miter;stroke-miterlimit:4;stroke-dasharray:none;stroke-opacity:1;filter:url(#filter5044)" />
      <rect
         style="opacity:1;fill:#878787;fill-opacity:1;stroke:none;stroke-width:1;stroke-linecap:round;stroke-linejoin:miter;stroke-miterlimit:4;stroke-dasharray:none;stroke-opacity:1"
         id="rect4996"
         width="144"
         height="144"
         x="512"
         y="-136"
         ry="10" />
      <rect
         style="opacity:0.2;fill:#000000;fill-opacity:1;stroke:none;stroke-width:1;stroke-linecap:round;stroke-linejoin:miter;stroke-miterlimit:4;stroke-dasharray:none;stroke-opacity:1;filter:url(#filter5044)"
         id="rect5048"
         width="144"
         height="128"
         x="512"
         y="-30"
         ry="10" />
      <rect
         ry="10"
         y="-32"
         x="512"
         height="128"
         width="144"
         id="rect4998"
         style="opacity:1;fill:#7e7e7e;fill-opacity:1;stroke:none;stroke-width:1;stroke-linecap:round;stroke-linejoin:miter;stroke-miterlimit:4;stroke-dasharray:none;stroke-opacity:1" />
      <rect
         ry="10"
         y="74"
         x="512"
         height="128"
         width="144"
         id="rect5042"
         style="opacity:0.2;fill:#000000;fill-opacity:1;stroke:none;stroke-width:1;stroke-linecap:round;stroke-linejoin:miter;stroke-miterlimit:4;stroke-dasharray:none;stroke-opacity:1;filter:url(#filter5044)" />
      <rect
         style="opacity:1;fill:#c7c7c7;fill-opacity:1;stroke:none;stroke-width:1;stroke-linecap:round;stroke-linejoin:miter;stroke-miterlimit:4;stroke-dasharray:none;stroke-opacity:1"
         id="rect5000"
         width="144"
         height="128"
         x="512"
         y="72"
         ry="10" />
      <path
         sodipodi:nodetypes="sscsscsss"
         inkscape:connector-curvature="0"
         id="rect5033"
         d="m 522,72 c -5.54,0 -10,4.46 -10,10 l 0,2 c 0,-5.54 4.46,-10 10,-10 l 124,0 c 5.54,0 10,4.46 10,10 l 0,-2 c 0,-5.54 -4.46,-10 -10,-10 z"
         style="opacity:0.2;fill:#ffffff;fill-opacity:1;stroke:none;stroke-width:1;stroke-linecap:round;stroke-linejoin:miter;stroke-miterlimit:4;stroke-dasharray:none;stroke-opacity:1" />
      <path
         sodipodi:nodetypes="sscsscsss"
         id="path5040"
         d="m 522,-136 c -5.54,0 -10,4.46 -10,10 l 0,2 c 0,-5.54 4.46,-10 10,-10 l 124,0 c 5.54,0 10,4.46 10,10 l 0,-2 c 0,-5.54 -4.46,-10 -10,-10 z"
         style="opacity:0.2;fill:#ffffff;fill-opacity:1;stroke:none;stroke-width:1;stroke-linecap:round;stroke-linejoin:miter;stroke-miterlimit:4;stroke-dasharray:none;stroke-opacity:1"
         inkscape:connector-curvature="0" />
      <path
         sodipodi:nodetypes="sscsscsss"
         inkscape:connector-curvature="0"
         style="opacity:0.2;fill:#ffffff;fill-opacity:1;stroke:none;stroke-width:1;stroke-linecap:round;stroke-linejoin:miter;stroke-miterlimit:4;stroke-dasharray:none;stroke-opacity:1"
         d="m 522,-32 c -5.54,0 -10,4.46 -10,10 l 0,2 c 0,-5.54 4.46,-10 10,-10 l 124,0 c 5.54,0 10,4.46 10,10 l 0,-2 c 0,-5.54 -4.46,-10 -10,-10 z"
         id="path5038" />
      <rect
         style="opacity:1;fill:#878787;fill-opacity:1;stroke:none;stroke-width:1;stroke-linecap:round;stroke-linejoin:miter;stroke-miterlimit:4;stroke-dasharray:none;stroke-opacity:1"
         id="rect4960"
         width="7"
         height="6"
         x="67"
         y="264"
         ry="0.5" />
      <path
         sodipodi:nodetypes="sscsscsss"
         id="path4981"
         d="m 67.5,264 c -0.277,0 -0.5,0.223 -0.5,0.5 l 0,1 c 0,-0.277 0.223,-0.5 0.5,-0.5 l 6,0 c 0.277,0 0.5,0.223 0.5,0.5 l 0,-1 c 0,-0.277 -0.223,-0.5 -0.5,-0.5 z"
         style="opacity:0.2;fill:#ffffff;fill-opacity:1;stroke:none;stroke-width:1;stroke-linecap:round;stroke-linejoin:miter;stroke-miterlimit:4;stroke-dasharray:none;stroke-opacity:1"
         inkscape:connector-curvature="0" />
      <rect
         ry="0.5"
         y="275"
         x="67"
         height="6"
         width="7"
         id="rect4958"
         style="opacity:0.2;fill:#000000;fill-opacity:1;stroke:none;stroke-width:1;stroke-linecap:round;stroke-linejoin:miter;stroke-miterlimit:4;stroke-dasharray:none;stroke-opacity:1" />
      <rect
         ry="0.5"
         y="269"
         x="67"
         height="6"
         width="7"
         id="rect4962"
         style="opacity:1;fill:#7e7e7e;fill-opacity:1;stroke:none;stroke-width:1;stroke-linecap:round;stroke-linejoin:miter;stroke-miterlimit:4;stroke-dasharray:none;stroke-opacity:1" />
      <rect
         style="opacity:1;fill:#c7c7c7;fill-opacity:1;stroke:none;stroke-width:1;stroke-linecap:round;stroke-linejoin:miter;stroke-miterlimit:4;stroke-dasharray:none;stroke-opacity:1"
         id="rect4964"
         width="7"
         height="6"
         x="67"
         y="274"
         ry="0.5" />
      <path
         sodipodi:nodetypes="sscsscsss"
         id="path4966"
         d="m 67.5,274 c -0.277,0 -0.5,0.223 -0.5,0.5 l 0,1 c 0,-0.277 0.223,-0.5 0.5,-0.5 l 6,0 c 0.277,0 0.5,0.223 0.5,0.5 l 0,-1 c 0,-0.277 -0.223,-0.5 -0.5,-0.5 z"
         style="opacity:0.2;fill:#ffffff;fill-opacity:1;stroke:none;stroke-width:1;stroke-linecap:round;stroke-linejoin:miter;stroke-miterlimit:4;stroke-dasharray:none;stroke-opacity:1"
         inkscape:connector-curvature="0" />
      <g
         transform="translate(0,-1)"
         id="g4878">
        <rect
           ry="1"
           y="266"
           x="172"
           height="12"
           width="14"
           id="rect4895"
           style="opacity:0.2;fill:#000000;fill-opacity:1;stroke:none;stroke-width:1;stroke-linecap:round;stroke-linejoin:miter;stroke-miterlimit:4;stroke-dasharray:none;stroke-opacity:1" />
        <rect
           style="opacity:1;fill:#878787;fill-opacity:1;stroke:none;stroke-width:1;stroke-linecap:round;stroke-linejoin:miter;stroke-miterlimit:4;stroke-dasharray:none;stroke-opacity:1"
           id="rect4876"
           width="14"
           height="12"
           x="172"
           y="245"
           ry="1" />
        <rect
           ry="1"
           y="255"
           x="172"
           height="12"
           width="14"
           id="rect4874"
           style="opacity:1;fill:#7e7e7e;fill-opacity:1;stroke:none;stroke-width:1;stroke-linecap:round;stroke-linejoin:miter;stroke-miterlimit:4;stroke-dasharray:none;stroke-opacity:1" />
        <rect
           style="opacity:1;fill:#c7c7c7;fill-opacity:1;stroke:none;stroke-width:1;stroke-linecap:round;stroke-linejoin:miter;stroke-miterlimit:4;stroke-dasharray:none;stroke-opacity:1"
           id="rect4872"
           width="14"
           height="12"
           x="172"
           y="265"
           ry="1" />
        <path
           id="rect4885"
           transform="translate(0,-243)"
           d="M 173 508 C 172.446 508 172 508.446 172 509 L 172 510 C 172 509.446 172.446 509 173 509 L 185 509 C 185.554 509 186 509.446 186 510 L 186 509 C 186 508.446 185.554 508 185 508 L 173 508 z "
           style="opacity:0.2;fill:#ffffff;fill-opacity:1;stroke:none;stroke-width:1;stroke-linecap:round;stroke-linejoin:miter;stroke-miterlimit:4;stroke-dasharray:none;stroke-opacity:1" />
        <path
           inkscape:connector-curvature="0"
           style="opacity:0.2;fill:#ffffff;fill-opacity:1;stroke:none;stroke-width:1;stroke-linecap:round;stroke-linejoin:miter;stroke-miterlimit:4;stroke-dasharray:none;stroke-opacity:1"
           d="m 173,255 c -0.554,0 -1,0.446 -1,1 l 0,1 c 0,-0.554 0.446,-1 1,-1 l 12,0 c 0.554,0 1,0.446 1,1 l 0,-1 c 0,-0.554 -0.446,-1 -1,-1 l -12,0 z"
           id="path4891" />
        <path
           id="path4893"
           d="m 173,245 c -0.554,0 -1,0.446 -1,1 l 0,1 c 0,-0.554 0.446,-1 1,-1 l 12,0 c 0.554,0 1,0.446 1,1 l 0,-1 c 0,-0.554 -0.446,-1 -1,-1 l -12,0 z"
           style="opacity:0.2;fill:#ffffff;fill-opacity:1;stroke:none;stroke-width:1;stroke-linecap:round;stroke-linejoin:miter;stroke-miterlimit:4;stroke-dasharray:none;stroke-opacity:1"
           inkscape:connector-curvature="0" />
      </g>
      <rect
         ry="1"
         rx="1"
         y="262"
         x="55"
         height="22"
         width="18"
         id="rect4489"
         style="opacity:0.2;fill:#000000;fill-opacity:1;stroke:none;stroke-width:8;stroke-linecap:round;stroke-linejoin:miter;stroke-miterlimit:4;stroke-dasharray:none;stroke-opacity:1" />
      <rect
         transform="scale(-1,1)"
         ry="1"
         rx="1"
         y="261"
         x="-73"
         height="22"
         width="18"
         id="rect4480"
         style="opacity:1;fill:#646464;fill-opacity:1;stroke:none;stroke-width:8;stroke-linecap:round;stroke-linejoin:miter;stroke-miterlimit:4;stroke-dasharray:none;stroke-opacity:1" />
      <rect
         ry="1.5"
         rx="1.5"
         y="-123"
         x="-283"
         height="22"
         width="28"
         id="rect4460"
         style="fill:#000000;fill-opacity:1;stroke:none;opacity:0.2"
         transform="matrix(0,-1,-1,0,0,0)" />
      <path
         id="path4332"
         transform="translate(0,-244)"
         d="M 102.5 498 C 101.669 498 101 498.669 101 499.5 L 101 524.5 C 101 525.331 101.669 526 102.5 526 L 106 526 L 106 498 L 102.5 498 z "
         style="fill:#333333;fill-opacity:1;stroke:none" />
      <path
         sodipodi:nodetypes="cccsssscc"
         inkscape:connector-curvature="0"
         id="rect4255"
         transform="translate(0,-244)"
         d="m 105,498 0,28 7,0 9.5,0 c 0.831,0 1.5,-0.669 1.5,-1.5 l 0,-25 c 0,-0.831 -0.669,-1.5 -1.5,-1.5 l -9.5,0 z"
         style="fill:#767676;fill-opacity:1;stroke:none" />
      <path
         sodipodi:nodetypes="sssscsssscs"
         transform="matrix(-1,0,0,1,928.00002,0)"
         style="opacity:0.1;fill:#000000;fill-opacity:1;stroke:#000000;stroke-width:8;stroke-miterlimit:4;stroke-dasharray:none;stroke-opacity:1;filter:url(#filter4332)"
         d="m 312,-192 c -13.296,0 -24,10.704 -24,24 l 0,400 c 0,13.296 10.704,24 24,24 l 152,0 152,0 c 13.296,0 24,-10.704 24,-24 l 0,-400 c 0,-13.296 -10.704,-24 -24,-24 l -152,0 z"
         id="path4336"
         inkscape:connector-curvature="0" />
      <path
         sodipodi:nodetypes="ssssccs"
         inkscape:connector-curvature="0"
         id="path4322"
         transform="translate(0,-244)"
         d="m 18,512 c -0.554,0 -1,0.446 -1,1 l 0,14 c 0,0.554 0.446,1 1,1 l 3,0 0,-16 z"
         style="display:inline;fill:#333333;fill-opacity:1;stroke:none;enable-background:new" />
      <path
         id="rect4265"
         transform="translate(0,-244)"
         d="M 19 512 L 19 528 L 25 528 L 30 528 C 30.554 528 31 527.554 31 527 L 31 513 C 31 512.446 30.554 512 30 512 L 25 512 L 19 512 z "
         style="display:inline;fill:#767676;fill-opacity:1;stroke:none;enable-background:new" />
      <path
         sodipodi:nodetypes="cccsssscc"
         inkscape:connector-curvature="0"
         id="path8375"
         transform="translate(0,-244)"
         d="m 158,484 0,40 10,0 14.02148,0 c 1.108,0 2,-0.892 2,-2 l 0,-36 c 0,-1.108 -0.892,-2 -2,-2 L 168,484 Z"
         style="opacity:1;fill:#767676;fill-opacity:1;stroke:none" />
      <path
         sodipodi:nodetypes="sssscsssscs"
         inkscape:connector-curvature="0"
         id="path4281"
         d="m 312,-192 c -13.296,0 -24,10.704 -24,24 l 0,400 c 0,13.296 10.704,24 24,24 l 152,0 152,0 c 13.296,0 24,-10.704 24,-24 l 0,-400 c 0,-13.296 -10.704,-24 -24,-24 l -152,0 z"
         style="opacity:0.2;fill:#000000;fill-opacity:1;stroke:none;filter:url(#filter4332)" />
      <path
         transform="translate(0,-244)"
         sodipodi:nodetypes="sssscccs"
         inkscape:connector-curvature="0"
         id="path4227"
         d="m 312,48 c -13.296,0 -24,10.704 -24,24 l 0,400 c 0,13.296 10.704,24 24,24 l 40,0 24,-240 -24,-208 z"
         style="opacity:1;fill:#333333;fill-opacity:1;stroke:none" />
      <path
         transform="translate(0,-244)"
         sodipodi:nodetypes="cccsssscc"
         inkscape:connector-curvature="0"
         id="rect4239"
         d="m 352,48 0,448 112,0 152,0 c 13.296,0 24,-10.704 24,-24 L 640,72 C 640,58.704 629.296,48 616,48 l -152,0 z"
         style="fill:#767676;fill-opacity:1;stroke:none" />
      <path
         sodipodi:nodetypes="sscscscsscs"
         inkscape:connector-curvature="0"
         id="path4374"
         transform="translate(0,-244)"
         d="m 154.02148,484 c -1.108,0 -2,0.892 -2,2 l 0,1 c 0,-1.108 0.892,-2 2,-2 L 168,485 l 14.02148,0 c 1.108,0 2,0.892 2,2 l 0,-1 c 0,-1.108 -0.892,-2 -2,-2 L 168,484 Z"
         style="opacity:0.2;fill:#ffffff;fill-opacity:1;stroke:none" />
      <path
         sodipodi:nodetypes="sscscscsscs"
         inkscape:connector-curvature="0"
         id="path4435"
         d="m 18,268 c -0.554,0 -1,0.446 -1,1 l 0,1 c 0,-0.554 0.446,-1 1,-1 l 7,0 5,0 c 0.554,0 1,0.446 1,1 l 0,-1 c 0,-0.554 -0.446,-1 -1,-1 l -5,0 z"
         style="display:inline;opacity:0.2;fill:#ffffff;fill-opacity:1;stroke:none;enable-background:new" />
      <path
         sodipodi:nodetypes="sscsscsss"
         inkscape:connector-curvature="0"
         id="rect4448"
         transform="translate(0,-244)"
         d="m 102.5,498 c -0.831,0 -1.5,0.669 -1.5,1.5 l 0,1 c 0,-0.831 0.669,-1.5 1.5,-1.5 l 19,0 c 0.831,0 1.5,0.669 1.5,1.5 l 0,-1 c 0,-0.831 -0.669,-1.5 -1.5,-1.5 z"
         style="opacity:0.2;fill:#ffffff;fill-opacity:1;stroke:none" />
      <path
         inkscape:connector-curvature="0"
         style="opacity:0.2;fill:#ffffff;fill-opacity:1;stroke:none;stroke-width:1;stroke-linecap:round;stroke-linejoin:miter;stroke-miterlimit:4;stroke-dasharray:none;stroke-opacity:1"
         d="m 67.5,269 c -0.277,0 -0.5,0.223 -0.5,0.5 l 0,1 c 0,-0.277 0.223,-0.5 0.5,-0.5 l 6,0 c 0.277,0 0.5,0.223 0.5,0.5 l 0,-1 c 0,-0.277 -0.223,-0.5 -0.5,-0.5 z"
         id="path4979"
         sodipodi:nodetypes="sscsscsss" />
      <path
         id="rect4482"
         transform="translate(0,-244)"
         d="M 56 505 C 55.446 505 55 505.446 55 506 L 55 526 C 55 526.554 55.446 527 56 527 L 60 527 L 60 505 L 56 505 z "
         style="opacity:1;fill:#333333;fill-opacity:1;stroke:none;stroke-width:8;stroke-linecap:round;stroke-linejoin:miter;stroke-miterlimit:4;stroke-dasharray:none;stroke-opacity:1" />
      <path
         style="opacity:0.2;fill:#000000;fill-opacity:1;stroke:none;stroke-width:1;stroke-linecap:round;stroke-linejoin:round;stroke-miterlimit:4;stroke-dasharray:none;stroke-opacity:1"
         d="m 400,-86 0,224 64,0 C 576,138 580,66 580,26 580,-14 576,-86 464,-86 Z m 64,48 c 48,0 64,16 64,64 0,48 -16,64 -64,64 l -16,0 0,-128 z"
         id="path4271"
         inkscape:connector-curvature="0"
         sodipodi:nodetypes="ccsssccscccc" />
      <path
         transform="translate(0,-244)"
         sodipodi:nodetypes="ccsssccscccc"
         inkscape:connector-curvature="0"
         id="rect4232"
         d="m 400,160 0,224 64,0 c 112,0 116,-72 116,-112 0,-40 -4,-112 -116,-112 z m 64,48 c 48,0 64,16 64,64 0,48 -16,64 -64,64 l -16,0 0,-128 z"
         style="opacity:1;fill:#f9f9f9;fill-opacity:1;stroke:none;stroke-width:1;stroke-linecap:round;stroke-linejoin:round;stroke-miterlimit:4;stroke-dasharray:none;stroke-opacity:1" />
      <path
         sodipodi:nodetypes="sscscscsscs"
         style="opacity:0.2;fill:#000000;fill-opacity:1;stroke:none"
         d="m 312,252 c -13.296,0 -24,-10.704 -24,-24 l 0,-2 c 0,13.296 10.704,24 24,24 l 152,0 152,0 c 13.296,0 24,-10.704 24,-24 l 0,2 c 0,13.296 -10.704,24 -24,24 l -152,0 z"
         id="path4273"
         inkscape:connector-curvature="0" />
      <path
         sodipodi:nodetypes="sscscscsscs"
         inkscape:connector-curvature="0"
         id="path4286"
         transform="translate(0,76)"
         d="m 312,-272 c -13.296,0 -24,10.704 -24,24 l 0,2 c 0,-13.296 10.704,-24 24,-24 l 152,0 152,0 c 13.296,0 24,10.704 24,24 l 0,-2 c 0,-13.296 -10.704,-24 -24,-24 l -152,0 z"
         style="opacity:0.1;fill:#ffffff;fill-opacity:1;stroke:none" />
      <path
         sodipodi:nodetypes="ccsssccscccc"
         inkscape:connector-curvature="0"
         id="path4285"
         d="M 163,249.99999 163,268 l 5.33333,0 c 9.33333,0 9.66667,-5.66666 9.66667,-9 0,-3.33333 -0.3348,-9.16498 -9.66667,-9.00001 z m 5.33333,4 c 4.00001,0 5.33334,1.00001 5.33334,5.00001 0,4 -1.33333,5 -5.33334,5 L 167,264 l 0,-10 z"
         style="opacity:0.2;fill:#000000;fill-opacity:1;stroke:none;stroke-width:1;stroke-linecap:round;stroke-linejoin:round;stroke-miterlimit:4;stroke-dasharray:none;stroke-opacity:1" />
      <path
         style="opacity:1;fill:#f9f9f9;fill-opacity:1;stroke:none;stroke-width:1;stroke-linecap:round;stroke-linejoin:round;stroke-miterlimit:4;stroke-dasharray:none;stroke-opacity:1"
         d="M 163,250.99999 163,269 l 5.33333,0 c 9.33333,0 9.66667,-5.66666 9.66667,-9 0,-3.33333 -0.3348,-9.16498 -9.66667,-9.00001 z m 5.33333,4 c 4.00001,0 5.33334,1.00001 5.33334,5.00001 0,4 -1.33333,5 -5.33334,5 L 167,265 l 0,-10 z"
         id="path4275"
         inkscape:connector-curvature="0"
         sodipodi:nodetypes="ccsssccscccc" />
      <path
         sodipodi:nodetypes="ccssssc"
         inkscape:connector-curvature="0"
         id="rect4294"
         transform="translate(0,-244)"
         d="m 59,505 0,22 13,0 c 0.554,0 1,-0.446 1,-1 l 0,-20 c 0,-0.554 -0.446,-1 -1,-1 z"
         style="opacity:1;fill:#767676;fill-opacity:1;stroke:none;stroke-width:8;stroke-linecap:round;stroke-linejoin:miter;stroke-miterlimit:4;stroke-dasharray:none;stroke-opacity:1" />
      <path
         style="opacity:0.2;fill:#000000;fill-opacity:1;stroke:none;stroke-width:1;stroke-linecap:round;stroke-linejoin:round;stroke-miterlimit:4;stroke-dasharray:none;stroke-opacity:1"
         d="m 62,267 0,8.99829 2.66616,0 c 4.66577,0 4.83241,-2.83279 4.83241,-4.49914 0,-1.66635 -0.16737,-4.58162 -4.83241,-4.49915 z m 2.66616,1.99962 c 1.99962,0 2.66616,0.49991 2.66616,2.49953 0,1.99962 -0.66654,2.49952 -2.66616,2.49952 l -0.66654,0 0,-4.99904 z"
         id="path4302"
         inkscape:connector-curvature="0"
         sodipodi:nodetypes="ccsssccscccc" />
      <path
         sodipodi:nodetypes="ccsssccscccc"
         inkscape:connector-curvature="0"
         id="path4292"
         d="m 62,268 0,8.99829 2.66616,0 c 4.66577,0 4.83241,-2.83279 4.83241,-4.49914 0,-1.66635 -0.16737,-4.58162 -4.83241,-4.49915 z m 2.66616,1.99962 c 1.99962,0 2.66616,0.49991 2.66616,2.49953 0,1.99962 -0.66654,2.49952 -2.66616,2.49952 l -0.66654,0 0,-4.99904 z"
         style="opacity:1;fill:#f9f9f9;fill-opacity:1;stroke:none;stroke-width:1;stroke-linecap:round;stroke-linejoin:round;stroke-miterlimit:4;stroke-dasharray:none;stroke-opacity:1" />
      <path
         sodipodi:nodetypes="sscsscsss"
         inkscape:connector-curvature="0"
         id="rect4491"
         transform="translate(0,-244)"
         d="m 56,505 c -0.554,0 -1,0.446 -1,1 l 0,1 c 0,-0.554 0.446,-1 1,-1 l 16,0 c 0.554,0 1,0.446 1,1 l 0,-1 c 0,-0.554 -0.446,-1 -1,-1 z"
         style="opacity:0.2;fill:#ffffff;fill-opacity:1;stroke:none;stroke-width:8;stroke-linecap:round;stroke-linejoin:miter;stroke-miterlimit:4;stroke-dasharray:none;stroke-opacity:1" />
      <path
         sodipodi:nodetypes="ccsssccscccc"
         inkscape:connector-curvature="0"
         id="path4318"
         d="m 21,271 0,8.99829 2.66616,0 c 4.66577,0 4.83241,-2.83279 4.83241,-4.49914 0,-1.66635 -0.16737,-4.58162 -4.83241,-4.49915 z m 2.66616,1.99962 c 1.99962,0 2.66616,0.49991 2.66616,2.49953 0,1.99962 -0.66654,2.49952 -2.66616,2.49952 l -0.66654,0 0,-4.99904 z"
         style="opacity:0.2;fill:#000000;fill-opacity:1;stroke:none;stroke-width:1;stroke-linecap:round;stroke-linejoin:round;stroke-miterlimit:4;stroke-dasharray:none;stroke-opacity:1" />
      <path
         style="opacity:1;fill:#f9f9f9;fill-opacity:1;stroke:none;stroke-width:1;stroke-linecap:round;stroke-linejoin:round;stroke-miterlimit:4;stroke-dasharray:none;stroke-opacity:1"
         d="m 21,272 0,8.99829 2.66616,0 c 4.66577,0 4.83241,-2.83279 4.83241,-4.49914 0,-1.66635 -0.16737,-4.58162 -4.83241,-4.49915 z m 2.66616,1.99962 c 1.99962,0 2.66616,0.49991 2.66616,2.49953 0,1.99962 -0.66654,2.49952 -2.66616,2.49952 l -0.66654,0 0,-4.99904 z"
         id="path4320"
         inkscape:connector-curvature="0"
         sodipodi:nodetypes="ccsssccscccc" />
      <path
         style="opacity:0.2;fill:#000000;fill-opacity:1;stroke:none;stroke-width:1;stroke-linecap:round;stroke-linejoin:round;stroke-miterlimit:4;stroke-dasharray:none;stroke-opacity:1"
         d="m 108,261 0.0222,12.86668 3.91111,0 c 6.84446,0 7.06667,-4.00972 7.06667,-6.45417 0,-2.44444 -0.24444,-6.41251 -7.08889,-6.41251 z m 3.91111,2.93335 c 2.93333,0 3.91111,0.54583 3.91111,3.47916 0,2.93335 -0.95556,3.52084 -3.88889,3.52084 l -0.97778,0 -0.0222,-7 z"
         id="path4340"
         inkscape:connector-curvature="0"
         sodipodi:nodetypes="ccsssccscccc" />
      <path
         sodipodi:nodetypes="ccsssccscccc"
         inkscape:connector-curvature="0"
         id="path4330"
         d="m 108,262 0.0222,12.86668 3.91111,0 c 6.84446,0 7.06667,-4.00972 7.06667,-6.45417 0,-2.44444 -0.24444,-6.41251 -7.08889,-6.41251 z m 3.91111,2.93335 c 2.93333,0 3.91111,0.54583 3.91111,3.47916 0,2.93335 -0.95556,3.52084 -3.88889,3.52084 l -0.97778,0 -0.0222,-7 z"
         style="opacity:1;fill:#f9f9f9;fill-opacity:1;stroke:none;stroke-width:1;stroke-linecap:round;stroke-linejoin:round;stroke-miterlimit:4;stroke-dasharray:none;stroke-opacity:1" />
    </g>
  </g>
</svg>
