<?xml version="1.0" encoding="UTF-8" standalone="no"?>
<!-- Created with Inkscape (http://www.inkscape.org/) -->

<svg
   xmlns:dc="http://purl.org/dc/elements/1.1/"
   xmlns:cc="http://creativecommons.org/ns#"
   xmlns:rdf="http://www.w3.org/1999/02/22-rdf-syntax-ns#"
   xmlns:svg="http://www.w3.org/2000/svg"
   xmlns="http://www.w3.org/2000/svg"
   xmlns:sodipodi="http://sodipodi.sourceforge.net/DTD/sodipodi-0.dtd"
   xmlns:inkscape="http://www.inkscape.org/namespaces/inkscape"
   inkscape:export-ydpi="90.000000"
   inkscape:export-xdpi="90.000000"
   width="736"
   height="544"
   id="svg11300"
   sodipodi:version="0.32"
   inkscape:version="0.91 r13725"
   sodipodi:docname="docky-plank.svg"
   inkscape:output_extension="org.inkscape.output.svg.inkscape"
   version="1.0"
   style="display:inline;enable-background:new"
   inkscape:export-filename="/home/sam/paper-template.png">
  <sodipodi:namedview
     stroke="#646464"
     fill="#909090"
     id="base"
     pagecolor="#3b3b3b"
     bordercolor="#666666"
     borderopacity="0.25490196"
     inkscape:pageopacity="0"
     inkscape:pageshadow="2"
     inkscape:zoom="1"
     inkscape:cx="-25.5"
     inkscape:cy="253.79845"
     inkscape:current-layer="g4368"
     showgrid="false"
     inkscape:grid-bbox="true"
     inkscape:document-units="px"
     inkscape:showpageshadow="false"
     inkscape:window-width="1316"
     inkscape:window-height="698"
     inkscape:window-x="25"
     inkscape:window-y="45"
     width="400px"
     height="300px"
     inkscape:snap-nodes="true"
     inkscape:snap-bbox="true"
     gridtolerance="10000"
     inkscape:object-nodes="true"
     inkscape:snap-grids="true"
     showguides="true"
     inkscape:guide-bbox="true"
     inkscape:window-maximized="1"
     inkscape:bbox-nodes="true"
     inkscape:snap-bbox-edge-midpoints="true"
     inkscape:object-paths="true"
     inkscape:snap-intersection-paths="true"
     inkscape:snap-smooth-nodes="true"
     inkscape:snap-bbox-midpoints="true">
    <inkscape:grid
       snapvisiblegridlinesonly="true"
       empspacing="4"
       visible="true"
       enabled="true"
       type="xygrid"
       id="grid5883"
       spacingx="1px"
       spacingy="1px" />
    <inkscape:grid
       snapvisiblegridlinesonly="true"
       empopacity="0.25098039"
       empcolor="#ff0000"
       opacity="0.1254902"
       color="#ff0000"
       spacingy="0.5px"
       spacingx="0.5px"
       enabled="false"
       visible="true"
       empspacing="2"
       id="grid11592"
       type="xygrid" />
  </sodipodi:namedview>
  <title
     id="title3004">Paper Icon Theme</title>
  <defs
     id="defs3">
    <filter
       height="1.0545454"
       y="-0.027272684"
       width="1.0428572"
       x="-0.021428598"
       id="filter4235"
       style="color-interpolation-filters:sRGB"
       inkscape:collect="always">
      <feGaussianBlur
         id="feGaussianBlur4237"
         stdDeviation="3.9999896"
         inkscape:collect="always" />
    </filter>
    <filter
       height="1.2637846"
       y="-0.1318923"
       width="1.0264022"
       x="-0.013201078"
       id="filter4464"
       style="color-interpolation-filters:sRGB"
       inkscape:collect="always">
      <feGaussianBlur
         id="feGaussianBlur4466"
         stdDeviation="1.7601437"
         inkscape:collect="always" />
    </filter>
  </defs>
  <metadata
     id="metadata4">
    <rdf:RDF>
      <cc:Work
         rdf:about="">
        <dc:format>image/svg+xml</dc:format>
        <dc:type
           rdf:resource="http://purl.org/dc/dcmitype/StillImage" />
        <dc:creator>
          <cc:Agent>
            <dc:title>Sam Hewitt</dc:title>
          </cc:Agent>
        </dc:creator>
        <dc:source />
        <cc:license
           rdf:resource="http://creativecommons.org/licenses/by-sa/3.0/" />
        <dc:title>Paper Icon Theme</dc:title>
        <dc:subject>
          <rdf:Bag />
        </dc:subject>
        <dc:date />
        <dc:rights>
          <cc:Agent>
            <dc:title />
          </cc:Agent>
        </dc:rights>
        <dc:publisher>
          <cc:Agent>
            <dc:title />
          </cc:Agent>
        </dc:publisher>
        <dc:identifier />
        <dc:relation />
        <dc:language />
        <dc:coverage />
        <dc:description />
        <dc:contributor>
          <cc:Agent>
            <dc:title />
          </cc:Agent>
        </dc:contributor>
      </cc:Work>
      <cc:Work
         rdf:about="">
        <dc:format>image/svg+xml</dc:format>
        <dc:type
           rdf:resource="http://purl.org/dc/dcmitype/StillImage" />
      </cc:Work>
      <cc:License
         rdf:about="http://creativecommons.org/licenses/by-sa/3.0/">
        <cc:permits
           rdf:resource="http://creativecommons.org/ns#Reproduction" />
        <cc:permits
           rdf:resource="http://creativecommons.org/ns#Distribution" />
        <cc:requires
           rdf:resource="http://creativecommons.org/ns#Notice" />
        <cc:requires
           rdf:resource="http://creativecommons.org/ns#Attribution" />
        <cc:permits
           rdf:resource="http://creativecommons.org/ns#DerivativeWorks" />
        <cc:requires
           rdf:resource="http://creativecommons.org/ns#ShareAlike" />
      </cc:License>
    </rdf:RDF>
  </metadata>
  <g
     transform="translate(0,244)"
     id="g4344"
     inkscape:label="docky"
     inkscape:groupmode="layer"
     style="display:inline">
    <g
       inkscape:groupmode="layer"
       id="g4346"
       inkscape:label="Baseplate"
       style="display:none">
      <text
         id="text4348"
         inkscape:label="context"
         style="font-style:normal;font-variant:normal;font-weight:normal;font-stretch:normal;font-size:18px;font-family:'DejaVu Sans';-inkscape-font-specification:'DejaVu Sans';display:inline;fill:#000000;fill-opacity:1;stroke:none;enable-background:new"
         x="15.006836"
         xml:space="preserve"
         y="332.76678"><tspan
           id="tspan4350"
           sodipodi:role="line"
           x="15.006836"
           y="332.76678"
           style="font-style:normal;font-variant:normal;font-weight:normal;font-stretch:normal;font-family:'DejaVu Sans';-inkscape-font-specification:'DejaVu Sans'">apps</tspan></text>
      <text
         id="text4352"
         inkscape:label="icon-name"
         sodipodi:linespacing="125%"
         style="font-style:normal;font-variant:normal;font-weight:bold;font-stretch:normal;font-size:18px;line-height:125%;font-family:'DejaVu Sans';-inkscape-font-specification:'DejaVu Sans Bold';text-align:start;writing-mode:lr-tb;text-anchor:start;display:inline;fill:#000000;fill-opacity:1;stroke:none;enable-background:new"
         x="142.48828"
         xml:space="preserve"
         y="332.76678"><tspan
           id="tspan4354"
           sodipodi:role="line"
           x="142.48828"
           y="332.76678"
           style="font-style:normal;font-variant:normal;font-weight:bold;font-stretch:normal;font-size:18px;font-family:'DejaVu Sans';-inkscape-font-specification:'DejaVu Sans Bold'">docky</tspan><tspan
           sodipodi:role="line"
           x="142.48828"
           y="355.26678"
           style="font-style:normal;font-variant:normal;font-weight:bold;font-stretch:normal;font-size:18px;font-family:'DejaVu Sans';-inkscape-font-specification:'DejaVu Sans Bold'"
           id="tspan4356" /></text>
      <rect
         transform="scale(-1,1)"
         inkscape:label="16x16"
         y="268"
         x="-32"
         height="16"
         width="16"
         id="rect4358"
         style="display:inline;overflow:visible;visibility:visible;fill:#e9e9e9;fill-opacity:1;fill-rule:nonzero;stroke:none;stroke-width:2;marker:none;enable-background:accumulate" />
      <rect
         transform="scale(-1,1)"
         inkscape:label="24x24"
         y="260"
         x="-76"
         height="24"
         width="24"
         id="rect4360"
         style="display:inline;overflow:visible;visibility:visible;fill:#e9e9e9;fill-opacity:1;fill-rule:nonzero;stroke:none;stroke-width:2;marker:none;enable-background:accumulate" />
      <rect
         transform="scale(-1,1)"
         inkscape:label="32x32"
         y="252"
         x="-128"
         height="32"
         width="32"
         id="rect4362"
         style="display:inline;overflow:visible;visibility:visible;fill:#e9e9e9;fill-opacity:1;fill-rule:nonzero;stroke:none;stroke-width:2;marker:none;enable-background:accumulate" />
      <rect
         transform="scale(-1,1)"
         style="display:inline;overflow:visible;visibility:visible;fill:#e9e9e9;fill-opacity:1;fill-rule:nonzero;stroke:none;stroke-width:2;marker:none;enable-background:accumulate"
         id="rect4364"
         width="48"
         height="48"
         x="-192"
         y="236"
         inkscape:label="48x48" />
      <rect
         transform="scale(-1,1)"
         inkscape:label="48x48"
         y="-228"
         x="-720"
         height="512"
         width="512"
         id="rect4366"
         style="display:inline;overflow:visible;visibility:visible;fill:#e9e9e9;fill-opacity:1;fill-rule:nonzero;stroke:none;stroke-width:2;marker:none;enable-background:accumulate" />
    </g>
    <g
       style="display:inline"
       inkscape:label="Symbols"
       id="g4368"
       inkscape:groupmode="layer">
      <path
         inkscape:connector-curvature="0"
         id="path4576"
         d="m 99.50195,280 c -0.831,0 -1.5,-0.669 -1.5,-1.5 l 0,-1 c 0,0.831 0.669,1.5 1.5,1.5 l 25,0 c 0.831,0 1.5,-0.669 1.5,-1.5 l 0,1 c 0,0.831 -0.669,1.5 -1.5,1.5 l -25,0 z"
         style="opacity:0.2;fill:#000000;fill-opacity:1;stroke:none" />
      <path
         sodipodi:nodetypes="sscsscsss"
         inkscape:connector-curvature="0"
         id="path4578"
         d="m 55.501958,281 c -0.831,0 -1.5,-0.669 -1.5,-1.5 l 0,-1 c 0,0.831 0.669,1.5 1.5,1.5 l 15.999021,0 c 0.831,0 1.5,-0.669 1.5,-1.5 l 0,1 c 0,0.831 -0.669,1.5 -1.5,1.5 z"
         style="opacity:0.2;fill:#000000;fill-opacity:1;stroke:none" />
      <path
         inkscape:connector-curvature="0"
         id="path4580"
         d="m 150.00195,277 c -1.108,0 -2,-0.892 -2,-2 l 0,-1 c 0,1.108 0.892,2 2,2 l 36,0 c 1.108,0 2,-0.892 2,-2 l 0,1 c 0,1.108 -0.892,2 -2,2 l -36,0 z"
         style="opacity:0.2;fill:#000000;fill-opacity:1;stroke:none" />
      <rect
         ry="24"
         rx="24"
         y="-688"
         x="-208"
         height="447.99829"
         width="351.99963"
         id="rect4582"
         style="opacity:0.2;fill:#000000;fill-opacity:1;stroke:none;filter:url(#filter4235)"
         transform="matrix(0,-1,-1,0,0.00195,0)" />
      <rect
         transform="matrix(0,-1,-1,0,0.00195,0)"
         style="opacity:0.1;fill:#000000;fill-opacity:1;stroke:#000000;stroke-width:8;stroke-miterlimit:4;stroke-dasharray:none;stroke-opacity:1;filter:url(#filter4235)"
         id="rect4584"
         width="351.99963"
         height="447.99829"
         x="-208"
         y="-688"
         rx="24"
         ry="24" />
      <path
         sodipodi:nodetypes="sssssssss"
         inkscape:connector-curvature="0"
         id="rect4586"
         d="m -278.5,-73.000974 13,0 c 0.831,0 1.5,0.669 1.5,1.5 l 0,15.999006 c 0,0.831 -0.669,1.5 -1.5,1.5 l -13,0 c -0.831,0 -1.5,-0.669 -1.5,-1.5 l 0,-15.999006 c 0,-0.831 0.669,-1.5 1.5,-1.5 z"
         style="fill:#7e7e7e;fill-opacity:1;stroke:none"
         transform="matrix(0,-1,-1,0,0,0)" />
      <path
         sodipodi:nodetypes="sssssssss"
         inkscape:connector-curvature="0"
         id="rect4588"
         d="m -281,-30.001974 10,0 c 0.554,0 1,0.446 1,1 l 0,11.000025 c 0,0.554 -0.446,1 -1,1 l -10,0 c -0.554,0 -1,-0.446 -1,-1 l 0,-11.000025 c 0,-0.554 0.446,-1 1,-1 z"
         style="display:inline;fill:#7e7e7e;fill-opacity:1;stroke:none;enable-background:new"
         transform="matrix(0,-1,-1,0,0,0)" />
      <path
         inkscape:connector-curvature="0"
         id="path4590"
         d="m 150.00195,244 c 0,0 -2,0 -2,2 l 0,14 0,14 c 0,1.108 0.892,2 2,2 l 36,0 c 1.108,0 2,-0.892 2,-2 l 0,-28 c 0,-1.108 -0.892,-2 -2,-2 l -18,0 -18,0 z"
         style="fill:#7e7e7e;fill-opacity:1;stroke:none" />
      <path
         inkscape:connector-curvature="0"
         id="path4592"
         d="m 150.00195,244 c -1.108,0 -2,0.892 -2,2 l 0,1 c 0,-1.108 0.892,-2 2,-2 l 36,0 c 1.108,0 2,0.892 2,2 l 0,-1 c 0,-1.108 -0.892,-2 -2,-2 l -36,0 z"
         style="opacity:0.2;fill:#ffffff;fill-opacity:1;stroke:none" />
      <path
         inkscape:connector-curvature="0"
         id="path4594"
         d="m 264.0039,-148 c -13.296,0 -24,10.704 -24,24 l 0,24 0,280 c 0,13.296 10.704,24 24,24 l 399.99805,0 c 13.296,0 24,-10.704 24,-24 l 0,-280 0,-24 c 0,-13.296 -10.704,-24 -24,-24 l -399.99805,0 z"
         style="fill:#7e7e7e;fill-opacity:1;stroke:none" />
      <path
         id="path4596"
         d="m 264.00195,-148 c -13.296,0 -24,10.704 -24,24 l 0,2 c 0,-13.296 10.704,-24 24,-24 l 400,0 c 13.296,0 24,10.704 24,24 l 0,-2 c 0,-13.296 -10.704,-24 -24,-24 l -400,0 z"
         style="opacity:0.2;fill:#ffffff;fill-opacity:1;stroke:none"
         inkscape:connector-curvature="0" />
      <rect
         ry="1.5"
         rx="1.5"
         y="-126.00195"
         x="-279"
         height="27.999924"
         width="21.999969"
         id="rect4598"
         style="fill:#7e7e7e;fill-opacity:1;stroke:none"
         transform="matrix(0,-1,-1,0,0,0)" />
      <path
         inkscape:connector-curvature="0"
         id="path4600"
         d="m 99.50195,257 c -0.831,0 -1.5,0.669 -1.5,1.5 l 0,1 c 0,-0.831 0.669,-1.5 1.5,-1.5 l 25,0 c 0.831,0 1.5,0.669 1.5,1.5 l 0,-1 c 0,-0.831 -0.669,-1.5 -1.5,-1.5 l -25,0 z"
         style="opacity:0.2;fill:#ffffff;fill-opacity:1;stroke:none" />
      <path
         sodipodi:nodetypes="sscsscsss"
         inkscape:connector-curvature="0"
         id="path4602"
         d="m 55.50195,264 c -0.831,0 -1.5,0.669 -1.5,1.5 l 0,1 c 0,-0.831 0.669,-1.5 1.5,-1.5 l 15.999021,0 c 0.831,0 1.5,0.669 1.5,1.5 l 0,-1 c 0,-0.831 -0.669,-1.5 -1.5,-1.5 z"
         style="opacity:0.2;fill:#ffffff;fill-opacity:1;stroke:none" />
      <path
         sodipodi:nodetypes="sscsscsss"
         style="display:inline;opacity:0.1;fill:#000000;fill-opacity:1;stroke:none;enable-background:new"
         d="m 18.00195,283 c -0.554,0 -1,-0.446 -1,-1 l 0,-1 c 0,0.554 0.446,1 1,1 l 11.000025,0 c 0.554,0 1,-0.446 1,-1 l 0,1 c 0,0.554 -0.446,1 -1,1 z"
         id="path4604"
         inkscape:connector-curvature="0" />
      <path
         inkscape:connector-curvature="0"
         style="opacity:0.1;fill:#000000;fill-opacity:1;stroke:none"
         d="m 264.00195,204 c -13.296,0 -24,-10.704 -24,-24 l 0,-2 c 0,13.296 10.704,24 24,24 l 400,0 c 13.296,0 24,-10.704 24,-24 l 0,2 c 0,13.296 -10.704,24 -24,24 l -400,0 z"
         id="path4606" />
      <path
         sodipodi:nodetypes="scccscs"
         inkscape:connector-curvature="0"
         id="rect4432"
         d="m 155,272 c -1,0 -1,1 -1,1 l 0,3 28,0 0,-3 c 0,-1.108 -1,-1 -1,-1 z"
         style="display:inline;opacity:1;fill:#e6e6e6;fill-opacity:1;stroke:none;stroke-width:16;stroke-linecap:round;stroke-linejoin:round;stroke-miterlimit:4;stroke-dasharray:none;stroke-opacity:1;enable-background:new" />
      <path
         style="display:inline;opacity:1;fill:#e6e6e6;fill-opacity:1;stroke:none;stroke-width:16;stroke-linecap:round;stroke-linejoin:round;stroke-miterlimit:4;stroke-dasharray:none;stroke-opacity:1;enable-background:new"
         d="m 103,276 c -1,0 -1,1 -1,1 l 0,2 20,0 0,-2 c 0,-1.108 -1,-1 -1,-1 z"
         id="path4454"
         inkscape:connector-curvature="0"
         sodipodi:nodetypes="scccscs" />
      <path
         sodipodi:nodetypes="scccscs"
         inkscape:connector-curvature="0"
         id="path4462"
         d="m 314,174 c -10,0 -10,10 -10,10 l 0,22 320,0 0,-22 c 0,-11.08 -10,-10 -10,-10 z"
         style="display:inline;opacity:0.2;fill:#000000;fill-opacity:1;stroke:none;stroke-width:16;stroke-linecap:round;stroke-linejoin:round;stroke-miterlimit:4;stroke-dasharray:none;stroke-opacity:1;filter:url(#filter4464);enable-background:new" />
      <path
         style="display:inline;opacity:1;fill:#e6e6e6;fill-opacity:1;stroke:none;stroke-width:16;stroke-linecap:round;stroke-linejoin:round;stroke-miterlimit:4;stroke-dasharray:none;stroke-opacity:1;enable-background:new"
         d="m 314,172 c -10,0 -10,10 -10,10 l 0,22 320,0 0,-22 c 0,-11.08 -10,-10 -10,-10 z"
         id="path4456"
         inkscape:connector-curvature="0"
         sodipodi:nodetypes="scccscs" />
      <path
         id="path4458"
         transform="translate(0,-244)"
         d="M 19 525 L 19 526 L 28 526 L 28 525 L 19 525 z "
         style="display:inline;opacity:1;fill:#e6e6e6;fill-opacity:1;stroke:none;stroke-width:16;stroke-linecap:round;stroke-linejoin:round;stroke-miterlimit:4;stroke-dasharray:none;stroke-opacity:1;enable-background:new" />
      <path
         sodipodi:nodetypes="scccscs"
         inkscape:connector-curvature="0"
         id="path4460"
         d="m 58,278 c -1,0 -1,1 -1,1 l 0,1 12.999021,0 0,-1 c 0,-1.108 -1,-1 -1,-1 z"
         style="display:inline;opacity:1;fill:#e6e6e6;fill-opacity:1;stroke:none;stroke-width:16;stroke-linecap:round;stroke-linejoin:round;stroke-miterlimit:4;stroke-dasharray:none;stroke-opacity:1;enable-background:new" />
      <path
         inkscape:connector-curvature="0"
         id="path4468"
         d="M 614.4297,171.97461 C 614.1562,171.9825 614,172 614,172 l -300,0 c -10,0 -10,10 -10,10 l 0,2 c 0,0 0,-10 10,-10 l 300,0 c 0,0 10,-1.08 10,10 l 0,-2 c 0,-9.695 -7.6562,-10.08062 -9.5703,-10.02539 z"
         style="display:inline;opacity:0.4;fill:#ffffff;fill-opacity:1;stroke:none;stroke-width:16;stroke-linecap:round;stroke-linejoin:round;stroke-miterlimit:4;stroke-dasharray:none;stroke-opacity:1;enable-background:new" />
    </g>
    <g
       transform="translate(-736,-1)"
       style="opacity:0.2"
       id="g4546">
      <rect
         style="display:inline;opacity:1;fill:#000000;fill-opacity:1;stroke:none;stroke-width:16;stroke-linecap:round;stroke-linejoin:round;stroke-miterlimit:4;stroke-dasharray:none;stroke-opacity:1;enable-background:new"
         id="rect4487"
         width="2"
         height="5"
         x="896"
         y="262" />
      <rect
         y="-901"
         x="262"
         height="5"
         width="2"
         id="rect4489"
         style="display:inline;opacity:1;fill:#000000;fill-opacity:1;stroke:none;stroke-width:16;stroke-linecap:round;stroke-linejoin:round;stroke-miterlimit:4;stroke-dasharray:none;stroke-opacity:1;enable-background:new"
         transform="matrix(0,1,-1,0,0,0)" />
      <rect
         y="262"
         x="910"
         height="5"
         width="2"
         id="rect4494"
         style="display:inline;opacity:1;fill:#000000;fill-opacity:1;stroke:none;stroke-width:16;stroke-linecap:round;stroke-linejoin:round;stroke-miterlimit:4;stroke-dasharray:none;stroke-opacity:1;enable-background:new" />
      <rect
         transform="matrix(0,1,1,0,0,0)"
         style="display:inline;opacity:1;fill:#000000;fill-opacity:1;stroke:none;stroke-width:16;stroke-linecap:round;stroke-linejoin:round;stroke-miterlimit:4;stroke-dasharray:none;stroke-opacity:1;enable-background:new"
         id="rect4496"
         width="2"
         height="5"
         x="262"
         y="907" />
      <rect
         style="opacity:1;fill:#000000;fill-opacity:1;stroke:none;stroke-width:16;stroke-linecap:round;stroke-linejoin:round;stroke-miterlimit:4;stroke-dasharray:none;stroke-opacity:1"
         id="rect4473"
         width="8"
         height="2"
         x="900"
         y="258"
         rx="0"
         ry="0" />
      <rect
         style="opacity:1;fill:#000000;fill-opacity:1;stroke:none;stroke-width:16;stroke-linecap:round;stroke-linejoin:round;stroke-miterlimit:4;stroke-dasharray:none;stroke-opacity:1"
         id="rect4475"
         width="2"
         height="11"
         x="903"
         y="256" />
      <circle
         style="opacity:1;fill:none;fill-opacity:1;stroke:#000000;stroke-width:2;stroke-linecap:round;stroke-linejoin:round;stroke-miterlimit:4;stroke-dasharray:none;stroke-opacity:1"
         id="path4502"
         cx="904"
         cy="254"
         r="2" />
      <path
         id="circle4526"
         style="opacity:1;fill:none;fill-opacity:1;stroke:#000000;stroke-width:2;stroke-linecap:round;stroke-linejoin:round;stroke-miterlimit:4;stroke-dasharray:none;stroke-opacity:1"
         sodipodi:type="arc"
         sodipodi:cx="903.99609"
         sodipodi:cy="258"
         sodipodi:rx="9"
         sodipodi:ry="9"
         sodipodi:start="0.85857354"
         sodipodi:end="2.3321794"
         d="m 909.87775,264.8122 a 9,9 0 0 1 -12.09097,-0.29726"
         sodipodi:open="true" />
    </g>
    <g
       transform="translate(0,-16)"
       style="opacity:0.2"
       id="g4955">
      <rect
         y="68.021698"
         x="376.0029"
         height="47.978298"
         width="15.997101"
         id="rect4558"
         style="display:inline;opacity:1;fill:#000000;fill-opacity:1;stroke:none;stroke-width:16;stroke-linecap:round;stroke-linejoin:round;stroke-miterlimit:4;stroke-dasharray:none;stroke-opacity:1;enable-background:new" />
      <rect
         transform="matrix(0,1,1,0,0,0)"
         style="display:inline;opacity:1;fill:#000000;fill-opacity:1;stroke:none;stroke-width:16;stroke-linecap:round;stroke-linejoin:round;stroke-miterlimit:4;stroke-dasharray:none;stroke-opacity:1;enable-background:new"
         id="rect4560"
         width="15.978298"
         height="47.997101"
         x="68.021698"
         y="376.0029" />
      <rect
         style="display:inline;opacity:1;fill:#000000;fill-opacity:1;stroke:none;stroke-width:16;stroke-linecap:round;stroke-linejoin:round;stroke-miterlimit:4;stroke-dasharray:none;stroke-opacity:1;enable-background:new"
         id="rect4562"
         width="16"
         height="48"
         x="536"
         y="68" />
      <rect
         y="504"
         x="68"
         height="48"
         width="16"
         id="rect4564"
         style="display:inline;opacity:1;fill:#000000;fill-opacity:1;stroke:none;stroke-width:16;stroke-linecap:round;stroke-linejoin:round;stroke-miterlimit:4;stroke-dasharray:none;stroke-opacity:1;enable-background:new"
         transform="matrix(0,1,1,0,0,0)" />
      <rect
         ry="0"
         rx="0"
         y="12.0217"
         x="424.0029"
         height="15.9783"
         width="79.997101"
         id="rect4566"
         style="opacity:1;fill:#000000;fill-opacity:1;stroke:none;stroke-width:16;stroke-linecap:round;stroke-linejoin:round;stroke-miterlimit:4;stroke-dasharray:none;stroke-opacity:1" />
      <rect
         y="-12"
         x="456"
         height="132"
         width="16"
         id="rect4568"
         style="opacity:1;fill:#000000;fill-opacity:1;stroke:none;stroke-width:16;stroke-linecap:round;stroke-linejoin:round;stroke-miterlimit:4;stroke-dasharray:none;stroke-opacity:1" />
      <circle
         r="24"
         cy="-36"
         cx="464"
         id="circle4570"
         style="opacity:1;fill:none;fill-opacity:1;stroke:#000000;stroke-width:16;stroke-linecap:round;stroke-linejoin:round;stroke-miterlimit:4;stroke-dasharray:none;stroke-opacity:1" />
      <path
         sodipodi:open="true"
         d="M 540.76613,78.940856 A 90,90 0 0 1 464.91688,122.01665 90,90 0 0 1 388.17239,80.556811"
         sodipodi:end="2.5720119"
         sodipodi:start="0.54840171"
         sodipodi:ry="90"
         sodipodi:rx="90"
         sodipodi:cy="32.021698"
         sodipodi:cx="463.96384"
         sodipodi:type="arc"
         style="opacity:1;fill:none;fill-opacity:1;stroke:#000000;stroke-width:16;stroke-linecap:round;stroke-linejoin:round;stroke-miterlimit:4;stroke-dasharray:none;stroke-opacity:1"
         id="path4572" />
    </g>
    <g
       transform="translate(-1,0)"
       style="opacity:0.2"
       id="g5009">
      <rect
         y="273"
         x="60"
         height="3"
         width="1"
         id="rect4967"
         style="display:inline;opacity:1;fill:#000000;fill-opacity:1;stroke:none;stroke-width:16;stroke-linecap:round;stroke-linejoin:round;stroke-miterlimit:4;stroke-dasharray:none;stroke-opacity:1;enable-background:new" />
      <rect
         transform="matrix(0,1,-1,0,0,0)"
         style="display:inline;opacity:1;fill:#000000;fill-opacity:1;stroke:none;stroke-width:16;stroke-linecap:round;stroke-linejoin:round;stroke-miterlimit:4;stroke-dasharray:none;stroke-opacity:1;enable-background:new"
         id="rect4969"
         width="1"
         height="2.5"
         x="273"
         y="-63" />
      <rect
         style="display:inline;opacity:1;fill:#000000;fill-opacity:1;stroke:none;stroke-width:16;stroke-linecap:round;stroke-linejoin:round;stroke-miterlimit:4;stroke-dasharray:none;stroke-opacity:1;enable-background:new"
         id="rect4971"
         width="1"
         height="3"
         x="68"
         y="273" />
      <rect
         y="66"
         x="273"
         height="2.5"
         width="1"
         id="rect4973"
         style="display:inline;opacity:1;fill:#000000;fill-opacity:1;stroke:none;stroke-width:16;stroke-linecap:round;stroke-linejoin:round;stroke-miterlimit:4;stroke-dasharray:none;stroke-opacity:1;enable-background:new"
         transform="matrix(0,1,1,0,0,0)" />
      <rect
         ry="0"
         rx="0"
         y="271"
         x="62"
         height="1"
         width="5"
         id="rect4975"
         style="opacity:1;fill:#000000;fill-opacity:1;stroke:none;stroke-width:16;stroke-linecap:round;stroke-linejoin:round;stroke-miterlimit:4;stroke-dasharray:none;stroke-opacity:1" />
      <rect
         y="269.36581"
         x="63.999619"
         height="6.1341953"
         width="1.0003817"
         id="rect4977"
         style="opacity:1;fill:#000000;fill-opacity:1;stroke:none;stroke-width:16;stroke-linecap:round;stroke-linejoin:round;stroke-miterlimit:4;stroke-dasharray:none;stroke-opacity:1" />
      <circle
         r="1"
         cy="268.5"
         cx="64.5"
         id="circle4979"
         style="opacity:1;fill:none;fill-opacity:1;stroke:#000000;stroke-width:1;stroke-linecap:round;stroke-linejoin:round;stroke-miterlimit:4;stroke-dasharray:none;stroke-opacity:1" />
      <path
         d="m 68.007246,273.81701 a 4.5,4.5 0 0 1 -3.402733,1.68173 4.5,4.5 0 0 1 -3.478478,-1.51888"
         sodipodi:end="2.4178549"
         sodipodi:start="0.6764149"
         sodipodi:ry="4.5"
         sodipodi:rx="4.5"
         sodipodi:cy="271"
         sodipodi:cx="64.498047"
         sodipodi:type="arc"
         style="opacity:1;fill:none;fill-opacity:1;stroke:#000000;stroke-width:1;stroke-linecap:round;stroke-linejoin:round;stroke-miterlimit:4;stroke-dasharray:none;stroke-opacity:1"
         id="path4981"
         sodipodi:open="true" />
    </g>
    <g
       transform="translate(-41,4)"
       id="g5019"
       style="opacity:0.2">
      <rect
         style="display:inline;opacity:1;fill:#000000;fill-opacity:1;stroke:none;stroke-width:16;stroke-linecap:round;stroke-linejoin:round;stroke-miterlimit:4;stroke-dasharray:none;stroke-opacity:1;enable-background:new"
         id="rect5021"
         width="1"
         height="2"
         x="60"
         y="273" />
      <rect
         y="-62"
         x="273"
         height="1.5"
         width="1"
         id="rect5023"
         style="display:inline;opacity:1;fill:#000000;fill-opacity:1;stroke:none;stroke-width:16;stroke-linecap:round;stroke-linejoin:round;stroke-miterlimit:4;stroke-dasharray:none;stroke-opacity:1;enable-background:new"
         transform="matrix(0,1,-1,0,0,0)" />
      <rect
         y="273"
         x="68"
         height="2"
         width="1"
         id="rect5025"
         style="display:inline;opacity:1;fill:#000000;fill-opacity:1;stroke:none;stroke-width:16;stroke-linecap:round;stroke-linejoin:round;stroke-miterlimit:4;stroke-dasharray:none;stroke-opacity:1;enable-background:new" />
      <rect
         transform="matrix(0,1,1,0,0,0)"
         style="display:inline;opacity:1;fill:#000000;fill-opacity:1;stroke:none;stroke-width:16;stroke-linecap:round;stroke-linejoin:round;stroke-miterlimit:4;stroke-dasharray:none;stroke-opacity:1;enable-background:new"
         id="rect5027"
         width="1"
         height="1.5"
         x="273"
         y="67" />
      <rect
         style="opacity:1;fill:#000000;fill-opacity:1;stroke:none;stroke-width:16;stroke-linecap:round;stroke-linejoin:round;stroke-miterlimit:4;stroke-dasharray:none;stroke-opacity:1"
         id="rect5029"
         width="3"
         height="1"
         x="63"
         y="272"
         rx="0"
         ry="0" />
      <rect
         style="opacity:1;fill:#000000;fill-opacity:1;stroke:none;stroke-width:16;stroke-linecap:round;stroke-linejoin:round;stroke-miterlimit:4;stroke-dasharray:none;stroke-opacity:1"
         id="rect5031"
         width="1"
         height="5.5"
         x="64"
         y="270" />
      <circle
         style="opacity:1;fill:none;fill-opacity:1;stroke:#000000;stroke-width:1;stroke-linecap:round;stroke-linejoin:round;stroke-miterlimit:4;stroke-dasharray:none;stroke-opacity:1"
         id="circle5033"
         cx="64.5"
         cy="269.5"
         r="1" />
      <path
         sodipodi:open="true"
         id="path5035"
         style="opacity:1;fill:none;fill-opacity:1;stroke:#000000;stroke-width:1;stroke-linecap:round;stroke-linejoin:round;stroke-miterlimit:4;stroke-dasharray:none;stroke-opacity:1"
         sodipodi:type="arc"
         sodipodi:cx="64.498047"
         sodipodi:cy="271"
         sodipodi:rx="4.5"
         sodipodi:ry="4.5"
         sodipodi:start="0.6764149"
         sodipodi:end="2.4178549"
         d="m 68.007246,273.81701 a 4.5,4.5 0 0 1 -3.402733,1.68173 4.5,4.5 0 0 1 -3.478478,-1.51888" />
    </g>
    <g
       id="g5037"
       style="opacity:0.2"
       transform="translate(-792,5.0014598)">
      <rect
         y="263.99854"
         x="897"
         height="3.9985342"
         width="2"
         id="rect5039"
         style="display:inline;opacity:1;fill:#000000;fill-opacity:1;stroke:none;stroke-width:16;stroke-linecap:round;stroke-linejoin:round;stroke-miterlimit:4;stroke-dasharray:none;stroke-opacity:1;enable-background:new" />
      <rect
         transform="matrix(0,1,-1,0,0,0)"
         style="display:inline;opacity:1;fill:#000000;fill-opacity:1;stroke:none;stroke-width:16;stroke-linecap:round;stroke-linejoin:round;stroke-miterlimit:4;stroke-dasharray:none;stroke-opacity:1;enable-background:new"
         id="rect5041"
         width="2.0014658"
         height="4"
         x="263.99707"
         y="-901" />
      <rect
         style="display:inline;opacity:1;fill:#000000;fill-opacity:1;stroke:none;stroke-width:16;stroke-linecap:round;stroke-linejoin:round;stroke-miterlimit:4;stroke-dasharray:none;stroke-opacity:1;enable-background:new"
         id="rect5043"
         width="2"
         height="3.9985342"
         x="909"
         y="263.99854" />
      <rect
         y="907"
         x="263.99707"
         height="4"
         width="2.0014658"
         id="rect5045"
         style="display:inline;opacity:1;fill:#000000;fill-opacity:1;stroke:none;stroke-width:16;stroke-linecap:round;stroke-linejoin:round;stroke-miterlimit:4;stroke-dasharray:none;stroke-opacity:1;enable-background:new"
         transform="matrix(0,1,1,0,0,0)" />
      <rect
         ry="0"
         rx="0"
         y="260.99854"
         x="901"
         height="1.9999992"
         width="6"
         id="rect5047"
         style="opacity:1;fill:#000000;fill-opacity:1;stroke:none;stroke-width:16;stroke-linecap:round;stroke-linejoin:round;stroke-miterlimit:4;stroke-dasharray:none;stroke-opacity:1" />
      <rect
         y="258.99854"
         x="903"
         height="9.9999952"
         width="2"
         id="rect5049"
         style="opacity:1;fill:#000000;fill-opacity:1;stroke:none;stroke-width:16;stroke-linecap:round;stroke-linejoin:round;stroke-miterlimit:4;stroke-dasharray:none;stroke-opacity:1" />
      <circle
         r="2"
         cy="256.99854"
         cx="904"
         id="circle5051"
         style="opacity:1;fill:none;fill-opacity:1;stroke:#000000;stroke-width:2;stroke-linecap:round;stroke-linejoin:round;stroke-miterlimit:4;stroke-dasharray:none;stroke-opacity:1" />
      <path
         sodipodi:open="true"
         d="m 908.70455,265.69183 a 5,5 0 0 1 -4.70833,3.3067 5,5 0 0 1 -4.70332,-3.31382"
         sodipodi:end="2.7976145"
         sodipodi:start="0.34549104"
         sodipodi:ry="5"
         sodipodi:rx="5"
         sodipodi:cy="263.99854"
         sodipodi:cx="904"
         sodipodi:type="arc"
         style="opacity:1;fill:none;fill-opacity:1;stroke:#000000;stroke-width:2;stroke-linecap:round;stroke-linejoin:round;stroke-miterlimit:4;stroke-dasharray:none;stroke-opacity:1"
         id="path5053" />
    </g>
  </g>
</svg>
