<?xml version="1.0" encoding="UTF-8" standalone="no"?>
<!-- Created with Inkscape (http://www.inkscape.org/) -->

<svg
   xmlns:dc="http://purl.org/dc/elements/1.1/"
   xmlns:cc="http://creativecommons.org/ns#"
   xmlns:rdf="http://www.w3.org/1999/02/22-rdf-syntax-ns#"
   xmlns:svg="http://www.w3.org/2000/svg"
   xmlns="http://www.w3.org/2000/svg"
   xmlns:sodipodi="http://sodipodi.sourceforge.net/DTD/sodipodi-0.dtd"
   xmlns:inkscape="http://www.inkscape.org/namespaces/inkscape"
   inkscape:export-ydpi="90.000000"
   inkscape:export-xdpi="90.000000"
   width="736"
   height="544"
   id="svg11300"
   sodipodi:version="0.32"
   inkscape:version="0.91 r13725"
   sodipodi:docname="gimp.svg"
   inkscape:output_extension="org.inkscape.output.svg.inkscape"
   version="1.0"
   style="display:inline;enable-background:new"
   inkscape:export-filename="/home/sam/paper-template.png">
  <sodipodi:namedview
     stroke="#646464"
     fill="#909090"
     id="base"
     pagecolor="#373737"
     bordercolor="#000000"
     borderopacity="0.25490196"
     inkscape:pageopacity="0"
     inkscape:pageshadow="2"
     inkscape:zoom="1"
     inkscape:cx="267.59255"
     inkscape:cy="186.67235"
     inkscape:current-layer="layer6"
     showgrid="false"
     inkscape:grid-bbox="true"
     inkscape:document-units="px"
     inkscape:showpageshadow="false"
     inkscape:window-width="648"
     inkscape:window-height="698"
     inkscape:window-x="25"
     inkscape:window-y="45"
     width="400px"
     height="300px"
     inkscape:snap-nodes="true"
     inkscape:snap-bbox="true"
     gridtolerance="10000"
     inkscape:object-nodes="true"
     inkscape:snap-grids="true"
     showguides="true"
     inkscape:guide-bbox="true"
     inkscape:window-maximized="1"
     inkscape:bbox-paths="true"
     inkscape:snap-bbox-midpoints="true"
     inkscape:snap-global="true"
     inkscape:object-paths="false"
     inkscape:snap-intersection-paths="false"
     inkscape:snap-smooth-nodes="false">
    <inkscape:grid
       snapvisiblegridlinesonly="true"
       empspacing="4"
       visible="true"
       enabled="true"
       type="xygrid"
       id="grid5883"
       spacingx="1px"
       spacingy="1px" />
    <inkscape:grid
       snapvisiblegridlinesonly="true"
       empopacity="0.25098039"
       empcolor="#ff0000"
       opacity="0.1254902"
       color="#ff0000"
       spacingy="0.5px"
       spacingx="0.5px"
       enabled="false"
       visible="true"
       empspacing="2"
       id="grid11592"
       type="xygrid" />
  </sodipodi:namedview>
  <title
     id="title3004">Paper Icon Theme Template</title>
  <defs
     id="defs3">
    <filter
       height="1.0498694"
       y="-0.024934698"
       width="1.0462657"
       x="-0.023132846"
       id="filter4417"
       style="color-interpolation-filters:sRGB"
       inkscape:collect="always">
      <feGaussianBlur
         id="feGaussianBlur4419"
         stdDeviation="4.3181183"
         inkscape:collect="always" />
    </filter>
  </defs>
  <metadata
     id="metadata4">
    <rdf:RDF>
      <cc:Work
         rdf:about="">
        <dc:format>image/svg+xml</dc:format>
        <dc:type
           rdf:resource="http://purl.org/dc/dcmitype/StillImage" />
        <dc:creator>
          <cc:Agent>
            <dc:title>Sam Hewitt</dc:title>
          </cc:Agent>
        </dc:creator>
        <dc:source />
        <cc:license
           rdf:resource="http://creativecommons.org/licenses/by-sa/3.0/" />
        <dc:title>Paper Icon Theme Template</dc:title>
        <dc:subject>
          <rdf:Bag />
        </dc:subject>
        <dc:date />
        <dc:rights>
          <cc:Agent>
            <dc:title />
          </cc:Agent>
        </dc:rights>
        <dc:publisher>
          <cc:Agent>
            <dc:title />
          </cc:Agent>
        </dc:publisher>
        <dc:identifier />
        <dc:relation />
        <dc:language />
        <dc:coverage />
        <dc:description />
        <dc:contributor>
          <cc:Agent>
            <dc:title />
          </cc:Agent>
        </dc:contributor>
      </cc:Work>
      <cc:Work
         rdf:about="">
        <dc:format>image/svg+xml</dc:format>
        <dc:type
           rdf:resource="http://purl.org/dc/dcmitype/StillImage" />
      </cc:Work>
      <cc:License
         rdf:about="http://creativecommons.org/licenses/by-sa/3.0/">
        <cc:permits
           rdf:resource="http://creativecommons.org/ns#Reproduction" />
        <cc:permits
           rdf:resource="http://creativecommons.org/ns#Distribution" />
        <cc:requires
           rdf:resource="http://creativecommons.org/ns#Notice" />
        <cc:requires
           rdf:resource="http://creativecommons.org/ns#Attribution" />
        <cc:permits
           rdf:resource="http://creativecommons.org/ns#DerivativeWorks" />
        <cc:requires
           rdf:resource="http://creativecommons.org/ns#ShareAlike" />
      </cc:License>
    </rdf:RDF>
  </metadata>
  <g
     transform="translate(0,244)"
     id="layer1"
     inkscape:label="Icon"
     inkscape:groupmode="layer"
     style="display:inline">
    <g
       inkscape:groupmode="layer"
       id="layer7"
       inkscape:label="Baseplate"
       style="display:none">
      <text
         id="context"
         inkscape:label="context"
         style="font-style:normal;font-variant:normal;font-weight:normal;font-stretch:normal;font-size:18px;font-family:'DejaVu Sans';-inkscape-font-specification:'DejaVu Sans';display:inline;fill:#000000;fill-opacity:1;stroke:none;enable-background:new"
         x="15.006836"
         xml:space="preserve"
         y="337.74512"><tspan
           id="tspan3933"
           sodipodi:role="line"
           x="15.006836"
           y="337.74512"
           style="font-style:normal;font-variant:normal;font-weight:normal;font-stretch:normal;font-family:'DejaVu Sans';-inkscape-font-specification:'DejaVu Sans'">apps</tspan></text>
      <text
         id="icon-name"
         inkscape:label="icon-name"
         sodipodi:linespacing="125%"
         style="font-style:normal;font-variant:normal;font-weight:bold;font-stretch:normal;font-size:18px;line-height:125%;font-family:'DejaVu Sans';-inkscape-font-specification:'DejaVu Sans Bold';text-align:start;writing-mode:lr-tb;text-anchor:start;display:inline;fill:#000000;fill-opacity:1;stroke:none;enable-background:new"
         x="142.48828"
         xml:space="preserve"
         y="337.74512"><tspan
           id="tspan3937"
           sodipodi:role="line"
           x="142.48828"
           y="337.74512"
           style="font-style:normal;font-variant:normal;font-weight:bold;font-stretch:normal;font-size:18px;font-family:'DejaVu Sans';-inkscape-font-specification:'DejaVu Sans Bold'">gimp</tspan></text>
      <rect
         transform="scale(-1,1)"
         inkscape:label="16x16"
         y="268"
         x="-32"
         height="16"
         width="16"
         id="rect16x16"
         style="display:inline;overflow:visible;visibility:visible;fill:#d5d5d5;fill-opacity:1;fill-rule:nonzero;stroke:none;stroke-width:2;marker:none;enable-background:accumulate" />
      <rect
         transform="scale(-1,1)"
         inkscape:label="24x24"
         y="260"
         x="-76"
         height="24"
         width="24"
         id="rect24x24"
         style="display:inline;overflow:visible;visibility:visible;fill:#d5d5d5;fill-opacity:1;fill-rule:nonzero;stroke:none;stroke-width:2;marker:none;enable-background:accumulate" />
      <rect
         transform="scale(-1,1)"
         inkscape:label="32x32"
         y="252"
         x="-128"
         height="32"
         width="32"
         id="rect32x32"
         style="display:inline;overflow:visible;visibility:visible;fill:#d5d5d5;fill-opacity:1;fill-rule:nonzero;stroke:none;stroke-width:2;marker:none;enable-background:accumulate" />
      <rect
         transform="scale(-1,1)"
         style="display:inline;overflow:visible;visibility:visible;fill:#d5d5d5;fill-opacity:1;fill-rule:nonzero;stroke:none;stroke-width:2;marker:none;enable-background:accumulate"
         id="rect48x48"
         width="48"
         height="48"
         x="-192"
         y="236"
         inkscape:label="48x48" />
      <rect
         transform="scale(-1,1)"
         inkscape:label="48x48"
         y="-228"
         x="-720"
         height="512"
         width="512"
         id="rect3951"
         style="display:inline;overflow:visible;visibility:visible;fill:#d5d5d5;fill-opacity:1;fill-rule:nonzero;stroke:none;stroke-width:2;marker:none;enable-background:accumulate" />
    </g>
    <g
       style="display:inline"
       inkscape:label="Symbols"
       id="layer6"
       inkscape:groupmode="layer">
      <path
         inkscape:connector-curvature="0"
         id="path4524"
         d="m 55.436365,263.14545 c 0,0 -1.427272,0 -1.427272,1.42727 0,0 -0.0772,6.98195 1.427272,9.99091 0.902687,1.80537 5.70909,5.70909 5.70909,5.70909 0,0 0.836075,1.42727 2.854545,1.42727 2.01847,0 2.854544,-1.42727 2.854544,-1.42727 0,0 4.806404,-3.90372 5.70909,-5.70909 1.50448,-3.00896 1.427272,-9.99091 1.427272,-9.99091 0.201845,-1.41293 -1.427272,-1.42727 -1.427272,-1.42727 0,2.85454 -2.854545,2.85454 -2.854545,2.85454 l -11.418178,0 c 0,0 -2.854546,0 -2.854546,-2.85454 z"
         style="opacity:0.2;fill:#000000;fill-opacity:1;stroke:none;stroke-width:2;stroke-miterlimit:4;stroke-dasharray:none;stroke-opacity:1" />
      <path
         inkscape:connector-curvature="0"
         id="path4429"
         d="m 100,256 c 0,0 -2,0 -2,2 0,0 -0.108185,9.78363 2,14 1.26491,2.52982 8,8 8,8 0,0 1.17157,2 4,2 2.82843,0 4,-2 4,-2 0,0 6.73509,-5.47018 8,-8 2.10819,-4.21637 2,-14 2,-14 0.28284,-1.9799 -2,-2 -2,-2 0,4 -4,4 -4,4 l -16,0 c 0,0 -4,0 -4,-4 z"
         style="opacity:0.2;fill:#000000;fill-opacity:1;stroke:none;stroke-width:2;stroke-miterlimit:4;stroke-dasharray:none;stroke-opacity:1" />
      <path
         inkscape:connector-curvature="0"
         id="path4421"
         d="m 271.98633,-175.8125 c 0,0 -31.97071,-5.2e-4 -31.97071,31.9707 0,0 -1.72991,156.39758 31.97071,223.79883 20.22036,40.44072 127.88476,127.88477 127.88476,127.88477 0,0 18.72918,31.9707 63.94336,31.9707 45.21418,0 63.94141,-31.9707 63.94141,-31.9707 0,0 107.66441,-87.44405 127.88476,-127.88477 33.7007,-67.40125 31.97071,-223.79883 31.97071,-223.79883 4.52137,-31.64991 -31.9707,-31.9707 -31.97071,-31.9707 0,63.94244 -63.9414,63.94141 -63.9414,63.94141 l -255.77149,0 c 0,0 -63.9414,10e-4 -63.9414,-63.94141 z"
         style="opacity:0.1;fill:#000000;fill-opacity:1;stroke:none;stroke-width:2;stroke-miterlimit:4;stroke-dasharray:none;stroke-opacity:1;filter:url(#filter4417)" />
      <path
         style="opacity:0.2;fill:#000000;fill-opacity:1;stroke:none;stroke-width:2;stroke-miterlimit:4;stroke-dasharray:none;stroke-opacity:1;filter:url(#filter4417)"
         d="m 271.98633,-175.8125 c 0,0 -31.97071,-5.2e-4 -31.97071,31.9707 0,0 -1.72991,156.39758 31.97071,223.79883 20.22036,40.44072 127.88476,127.88477 127.88476,127.88477 0,0 18.72918,31.9707 63.94336,31.9707 45.21418,0 63.94141,-31.9707 63.94141,-31.9707 0,0 107.66441,-87.44405 127.88476,-127.88477 33.7007,-67.40125 31.97071,-223.79883 31.97071,-223.79883 4.52137,-31.64991 -31.9707,-31.9707 -31.97071,-31.9707 0,63.94244 -63.9414,63.94141 -63.9414,63.94141 l -255.77149,0 c 0,0 -63.9414,10e-4 -63.9414,-63.94141 z"
         id="path4415"
         inkscape:connector-curvature="0" />
      <path
         inkscape:connector-curvature="0"
         id="path4410"
         d="m 271.98633,-177.8125 c 0,0 -31.97071,-5.2e-4 -31.97071,31.9707 0,0 -1.72991,156.39758 31.97071,223.79883 20.22036,40.44072 127.88476,127.88477 127.88476,127.88477 0,0 18.72918,31.9707 63.94336,31.9707 45.21418,0 63.94141,-31.9707 63.94141,-31.9707 0,0 107.66441,-87.44405 127.88476,-127.88477 33.7007,-67.40125 31.97071,-223.79883 31.97071,-223.79883 4.52137,-31.64991 -31.9707,-31.9707 -31.97071,-31.9707 0,63.94244 -63.9414,63.94141 -63.9414,63.94141 l -255.77149,0 c 0,0 -63.9414,0.001 -63.9414,-63.94141 z"
         style="opacity:0.2;fill:#000000;fill-opacity:1;stroke:none;stroke-width:2;stroke-miterlimit:4;stroke-dasharray:none;stroke-opacity:1" />
      <path
         sodipodi:nodetypes="cssccssccccc"
         inkscape:connector-curvature="0"
         id="rect4147"
         d="m 100,255 c 0,0 -2,0 -2,2 0,0 -0.108185,9.78363 2,14 1.26491,2.52982 8,8 8,8 l 8,0 c 0,0 6.73509,-5.47018 8,-8 2.10819,-4.21637 2,-14 2,-14 0.28284,-1.9799 -2,-2 -2,-2 l 0,0 c 0,4 -4,4 -4,4 l -16,0 c 0,0 -4,0 -4,-4 z"
         style="opacity:1;fill:#4b4b4b;fill-opacity:1;stroke:none;stroke-width:2;stroke-miterlimit:4;stroke-dasharray:none;stroke-opacity:1" />
      <path
         sodipodi:nodetypes="cscsc"
         inkscape:connector-curvature="0"
         id="path4176"
         d="m 108,279 c 0,0 1.17157,2 4,2 2.82843,0 4,-2 4,-2 0,0 -1,-2 -4,-2 -3,0 -4,2 -4,2 z"
         style="display:inline;fill:#252525;fill-opacity:1;fill-rule:evenodd;stroke:none;stroke-width:1px;stroke-linecap:butt;stroke-linejoin:miter;stroke-opacity:1;enable-background:new" />
      <path
         id="path4355"
         transform="translate(0,-244)"
         d="M 124 499 C 124 503 120 503 120 503 L 112 503 L 112 523 L 116 523 C 116 523 122.73509 517.52982 124 515 C 126.10819 510.78363 126 501 126 501 C 126.28284 499.0201 124 499 124 499 z "
         style="opacity:0.05;fill:#000000;fill-opacity:1;stroke:none;stroke-width:2;stroke-miterlimit:4;stroke-dasharray:none;stroke-opacity:1" />
      <path
         id="path4360"
         transform="translate(0,-244)"
         d="M 100 499 C 100 499 98 499 98 501 C 98 501 98.007158 501.56115 98.009766 501.92969 C 98.061668 500.0086 100 500 100 500 C 100 504 104 504 104 504 L 120 504 C 120 504 124 504 124 500 C 124 500 125.74862 500.01548 125.99609 501.3457 C 125.99583 501.29061 126 501 126 501 C 126.28284 499.0201 124 499 124 499 C 124 503 120 503 120 503 L 104 503 C 104 503 100 503 100 499 z "
         style="opacity:0.2;fill:#ffffff;fill-opacity:1;stroke:none;stroke-width:2;stroke-miterlimit:4;stroke-dasharray:none;stroke-opacity:1" />
      <path
         style="opacity:1;fill:#4b4b4b;fill-opacity:1;stroke:none;stroke-width:2;stroke-miterlimit:4;stroke-dasharray:none;stroke-opacity:1"
         d="m 271.9862,-179.81295 c 0,0 -31.97122,0 -31.97122,31.97122 0,0 -1.7294,156.3972936 31.97122,223.79854 20.22036,40.44072 127.88488,127.88488 127.88488,127.88488 l 127.88488,0 c 0,0 107.66452,-87.44416 127.88488,-127.88488 33.7007,-67.4012464 31.97122,-223.79854 31.97122,-223.79854 4.52137,-31.64991 -31.97122,-31.97122 -31.97122,-31.97122 l 0,0 c 0,63.94244 -63.94244,63.94244 -63.94244,63.94244 l -255.76976,0 c 0,0 -63.94244,0 -63.94244,-63.94244 z"
         id="path4372"
         inkscape:connector-curvature="0"
         sodipodi:nodetypes="cssccssccccc" />
      <path
         style="opacity:0.2;fill:#ffffff;fill-opacity:1;stroke:none;stroke-width:2;stroke-miterlimit:4;stroke-dasharray:none;stroke-opacity:1"
         d="m 271.98633,-179.81245 c 0,0 -31.97071,-5.2e-4 -31.97071,31.9707 0,0 0.0135,1.32962 0.0156,1.5 0.34034,-31.45798 31.95511,-31.4707 31.95511,-31.4707 l 0.002,0 c 0,63.94244 63.94141,63.94141 63.94141,63.94141 l 255.76953,0 c 0,0 63.94336,10e-4 63.94336,-63.94141 0,0 31.58874,0.28311 32.33984,25.81836 0.88571,-27.52544 -32.34179,-27.81836 -32.3418,-27.81836 0,63.94244 -63.9414,63.94141 -63.9414,63.94141 l -255.77149,0 c 0,0 -63.9414,10e-4 -63.9414,-63.94141 z"
         id="path4386"
         inkscape:connector-curvature="0" />
      <circle
         style="opacity:1;fill:#ebebeb;fill-opacity:1;stroke:none;stroke-width:1;stroke-linecap:round;stroke-linejoin:round;stroke-miterlimit:4;stroke-dasharray:none;stroke-opacity:1"
         id="circle4668"
         cx="106"
         cy="268"
         r="3" />
      <path
         id="circle4423"
         d="M 105.91602,267.00391 A 2,2 0 0 0 104,269 a 2,2 0 0 0 2,2 2,2 0 0 0 2,-2 2,2 0 0 0 -1.90039,-1.99414 A 1,1 0 0 1 107,268 a 1,1 0 0 1 -1,1 1,1 0 0 1 -1,-1 1,1 0 0 1 0.91602,-0.99609 z"
         style="opacity:0.8;fill:#000000;fill-opacity:1;stroke:none;stroke-width:1;stroke-linecap:round;stroke-linejoin:round;stroke-miterlimit:4;stroke-dasharray:none;stroke-opacity:1"
         inkscape:connector-curvature="0" />
      <circle
         r="3"
         cy="268"
         cx="118"
         id="circle4347"
         style="opacity:1;fill:#ebebeb;fill-opacity:1;stroke:none;stroke-width:1;stroke-linecap:round;stroke-linejoin:round;stroke-miterlimit:4;stroke-dasharray:none;stroke-opacity:1" />
      <path
         inkscape:connector-curvature="0"
         style="opacity:0.8;fill:#000000;fill-opacity:1;stroke:none;stroke-width:1;stroke-linecap:round;stroke-linejoin:round;stroke-miterlimit:4;stroke-dasharray:none;stroke-opacity:1"
         d="M 117.91602,267.00391 A 2,2 0 0 0 116,269 a 2,2 0 0 0 2,2 2,2 0 0 0 2,-2 2,2 0 0 0 -1.90039,-1.99414 A 1,1 0 0 1 119,268 a 1,1 0 0 1 -1,1 1,1 0 0 1 -1,-1 1,1 0 0 1 0.91602,-0.99609 z"
         id="path4427" />
      <circle
         r="48"
         cy="28"
         cx="368"
         id="circle4443"
         style="opacity:1;fill:#ebebeb;fill-opacity:1;stroke:none;stroke-width:1;stroke-linecap:round;stroke-linejoin:round;stroke-miterlimit:4;stroke-dasharray:none;stroke-opacity:1" />
      <path
         style="opacity:0.8;fill:#000000;fill-opacity:1;stroke:none;stroke-width:1;stroke-linecap:round;stroke-linejoin:round;stroke-miterlimit:4;stroke-dasharray:none;stroke-opacity:1"
         d="M 366.65632,12.06256 A 32,32 0 0 0 336,44 32,32 0 0 0 368,76 32,32 0 0 0 400,44 32,32 0 0 0 369.59376,12.09376 16,16 0 0 1 384,28 16,16 0 0 1 368,44 16,16 0 0 1 352,28 16,16 0 0 1 366.65632,12.06256 Z"
         id="path4445"
         inkscape:connector-curvature="0" />
      <path
         style="opacity:0.05;fill:#000000;fill-opacity:1;stroke:none;stroke-width:2;stroke-miterlimit:4;stroke-dasharray:none;stroke-opacity:1"
         d="m 655.64084,-179.81291 c 0,63.94244 -63.94244,63.94244 -63.94244,63.94244 l -127.88488,0 0,319.7122 63.94244,0 c 0,0 107.66452,-87.44416 127.88488,-127.88488 33.7007,-67.4012464 31.97122,-223.79854 31.97122,-223.79854 4.52137,-31.64991 -31.97122,-31.97122 -31.97122,-31.97122 z"
         id="path4382"
         inkscape:connector-curvature="0" />
      <circle
         style="opacity:1;fill:#d9d9d9;fill-opacity:1;stroke:none;stroke-width:1;stroke-linecap:round;stroke-linejoin:round;stroke-miterlimit:4;stroke-dasharray:none;stroke-opacity:1"
         id="circle4447"
         cx="560"
         cy="28"
         r="48" />
      <path
         id="path4449"
         d="M 558.65632,12.06256 A 32,32 0 0 0 528,44 32,32 0 0 0 560,76 32,32 0 0 0 592,44 32,32 0 0 0 561.59376,12.09376 16,16 0 0 1 576,28 16,16 0 0 1 560,44 16,16 0 0 1 544,28 16,16 0 0 1 558.65632,12.06256 Z"
         style="opacity:0.8;fill:#000000;fill-opacity:1;stroke:none;stroke-width:1;stroke-linecap:round;stroke-linejoin:round;stroke-miterlimit:4;stroke-dasharray:none;stroke-opacity:1"
         inkscape:connector-curvature="0" />
      <path
         inkscape:connector-curvature="0"
         id="path4484"
         d="m 655.64084,-179.81291 c 0,63.94244 -63.94244,63.94244 -63.94244,63.94244 l -127.88488,0 0,319.7122 63.94244,0 c 0,0 107.66452,-87.44416 127.88488,-127.88488 33.7007,-67.4012464 31.97122,-223.79854 31.97122,-223.79854 4.52137,-31.64991 -31.97122,-31.97122 -31.97122,-31.97122 z"
         style="opacity:0.05;fill:#000000;fill-opacity:1;stroke:none;stroke-width:2;stroke-miterlimit:4;stroke-dasharray:none;stroke-opacity:1" />
      <path
         style="opacity:0.05;fill:#000000;fill-opacity:1;stroke:none;stroke-width:2;stroke-miterlimit:4;stroke-dasharray:none;stroke-opacity:1"
         d="m 655.64084,-179.81291 c 0,63.94244 -63.94244,63.94244 -63.94244,63.94244 l -127.88488,0 0,319.7122 63.94244,0 c 0,0 107.66452,-87.44416 127.88488,-127.88488 33.7007,-67.4012464 31.97122,-223.79854 31.97122,-223.79854 4.52137,-31.64991 -31.97122,-31.97122 -31.97122,-31.97122 z"
         id="path4486"
         inkscape:connector-curvature="0" />
      <path
         style="opacity:0.2;fill:#000000;fill-opacity:1;stroke:none;stroke-width:2;stroke-miterlimit:4;stroke-dasharray:none;stroke-opacity:1"
         d="m 150.87256,241.29085 c 0,0 -2.85457,0 -2.85457,2.85458 0,0 -0.15441,13.96404 2.85457,19.98201 1.80539,3.61078 11.41829,11.41829 11.41829,11.41829 0,0 1.67217,2.85457 5.70915,2.85457 4.03698,0 5.70915,-2.85457 5.70915,-2.85457 0,0 9.6129,-7.80751 11.41829,-11.41829 3.00899,-6.01797 2.85457,-19.98201 2.85457,-19.98201 0.4037,-2.82589 -2.85457,-2.85458 -2.85457,-2.85458 0,5.70915 -5.70915,5.70915 -5.70915,5.70915 l -22.83658,0 c 0,0 -5.70915,0 -5.70915,-5.70915 z"
         id="path4490"
         inkscape:connector-curvature="0" />
      <path
         style="opacity:1;fill:#4b4b4b;fill-opacity:1;stroke:none;stroke-width:2;stroke-miterlimit:4;stroke-dasharray:none;stroke-opacity:1"
         d="m 150.87256,240.29085 c 0,0 -2.85457,0 -2.85457,2.85458 0,0 -0.15441,13.96404 2.85457,19.98201 1.80539,3.61078 11.41829,11.41829 11.41829,11.41829 l 11.4183,0 c 0,0 9.6129,-7.80751 11.41829,-11.41829 3.00899,-6.01797 2.85457,-19.98201 2.85457,-19.98201 0.4037,-2.82589 -2.85457,-2.85458 -2.85457,-2.85458 l 0,0 C 185.12744,246 179.41829,246 179.41829,246 l -22.83658,0 c 0,0 -5.70915,0 -5.70915,-5.70915 z"
         id="path4492"
         inkscape:connector-curvature="0"
         sodipodi:nodetypes="cssccssccccc" />
      <path
         style="display:inline;fill:#252525;fill-opacity:1;fill-rule:evenodd;stroke:none;stroke-width:1px;stroke-linecap:butt;stroke-linejoin:miter;stroke-opacity:1;enable-background:new"
         d="m 162.29085,274.54573 c 0,0 1.67217,2.85457 5.70915,2.85457 4.03698,0 5.70915,-2.85457 5.70915,-2.85457 0,0 -1.42729,-2.85457 -5.70915,-2.85457 -4.28186,0 -5.70915,2.85457 -5.70915,2.85457 z"
         id="path4494"
         inkscape:connector-curvature="0"
         sodipodi:nodetypes="cscsc" />
      <path
         style="opacity:0.05;fill:#000000;fill-opacity:1;stroke:none;stroke-width:2;stroke-miterlimit:4;stroke-dasharray:none;stroke-opacity:1"
         d="M 185.12744,240.29085 C 185.12744,246 179.41829,246 179.41829,246 L 168,246 l 0,28.54573 5.70915,0 c 0,0 9.6129,-7.80751 11.41829,-11.41829 3.00899,-6.01797 2.85457,-19.98201 2.85457,-19.98201 0.4037,-2.82589 -2.85457,-2.85458 -2.85457,-2.85458 z"
         id="path4496"
         inkscape:connector-curvature="0" />
      <path
         style="opacity:0.2;fill:#ffffff;fill-opacity:1;stroke:none;stroke-width:2;stroke-miterlimit:4;stroke-dasharray:none;stroke-opacity:1"
         d="m 150.87305,240.29102 c 0,0 -2.85547,-0.001 -2.85547,2.85351 0,0 0.006,0.48285 0.01,0.86524 0.0926,-2.71322 2.84571,-2.71875 2.84571,-2.71875 0,5.70914 5.70898,5.70898 5.70898,5.70898 l 22.83594,0 c 0,0 5.70898,1.6e-4 5.70898,-5.70898 0,0 2.54262,0.0257 2.85352,1.98437 6.1e-4,-0.0442 0.002,-0.13086 0.002,-0.13086 0.4037,-2.82588 -2.85547,-2.85351 -2.85547,-2.85351 0,5.70914 -5.70898,5.70898 -5.70898,5.70898 l -22.83594,0 c 0,0 -5.70898,1.6e-4 -5.70898,-5.70898 z"
         id="path4498"
         inkscape:connector-curvature="0" />
      <g
         id="g4610"
         transform="translate(17.132812,-0.32553101)">
        <circle
           r="4"
           cy="259.32553"
           cx="159.86719"
           id="circle4612"
           style="opacity:1;fill:#ebebeb;fill-opacity:1;stroke:none;stroke-width:1;stroke-linecap:round;stroke-linejoin:round;stroke-miterlimit:4;stroke-dasharray:none;stroke-opacity:1" />
        <path
           inkscape:connector-curvature="0"
           style="opacity:0.8;fill:#000000;fill-opacity:1;stroke:none;stroke-width:1;stroke-linecap:round;stroke-linejoin:round;stroke-miterlimit:4;stroke-dasharray:none;stroke-opacity:1"
           d="m 159.74122,257.33138 a 3.0000074,3.0000074 0 0 0 -2.87403,2.99415 3.0000074,3.0000074 0 0 0 3,3 3.0000074,3.0000074 0 0 0 3,-3 3.0000074,3.0000074 0 0 0 -2.85059,-2.99122 1.5000037,1.5000037 0 0 1 1.3506,1.49121 1.5000037,1.5000037 0 0 1 -1.50001,1.50001 1.5000037,1.5000037 0 0 1 -1.50001,-1.50001 1.5000037,1.5000037 0 0 1 1.37404,-1.49414 z"
           id="path4614" />
      </g>
      <g
         transform="translate(-0.8671875,-0.32553101)"
         id="g4600">
        <circle
           style="opacity:1;fill:#ebebeb;fill-opacity:1;stroke:none;stroke-width:1;stroke-linecap:round;stroke-linejoin:round;stroke-miterlimit:4;stroke-dasharray:none;stroke-opacity:1"
           id="circle4500"
           cx="159.86719"
           cy="259.32553"
           r="4" />
        <path
           id="path4502"
           d="m 159.74122,257.33138 a 3.0000074,3.0000074 0 0 0 -2.87403,2.99415 3.0000074,3.0000074 0 0 0 3,3 3.0000074,3.0000074 0 0 0 3,-3 3.0000074,3.0000074 0 0 0 -2.85059,-2.99122 1.5000037,1.5000037 0 0 1 1.3506,1.49121 1.5000037,1.5000037 0 0 1 -1.50001,1.50001 1.5000037,1.5000037 0 0 1 -1.50001,-1.50001 1.5000037,1.5000037 0 0 1 1.37404,-1.49414 z"
           style="opacity:0.8;fill:#000000;fill-opacity:1;stroke:none;stroke-width:1;stroke-linecap:round;stroke-linejoin:round;stroke-miterlimit:4;stroke-dasharray:none;stroke-opacity:1"
           inkscape:connector-curvature="0" />
      </g>
      <path
         sodipodi:nodetypes="cssccssccccc"
         inkscape:connector-curvature="0"
         id="path4526"
         d="m 55.436366,262.14546 c 0,0 -1.427272,0 -1.427272,1.42727 0,0 -0.0772,6.98195 1.427272,9.9909 0.902686,1.80537 5.709089,5.70909 5.709089,5.70909 l 5.709089,0 c 0,0 4.806404,-3.90372 5.70909,-5.70909 1.50448,-3.00895 1.427272,-9.9909 1.427272,-9.9909 0.201845,-1.41293 -1.427272,-1.42727 -1.427272,-1.42727 l 0,0 C 72.563634,265 69.709089,265 69.709089,265 l -11.418178,0 c 0,0 -2.854545,0 -2.854545,-2.85454 z"
         style="opacity:1;fill:#4b4b4b;fill-opacity:1;stroke:none;stroke-width:2;stroke-miterlimit:4;stroke-dasharray:none;stroke-opacity:1" />
      <path
         sodipodi:nodetypes="cscsc"
         inkscape:connector-curvature="0"
         id="path4528"
         d="m 61.145455,279.27272 c 0,0 0.836075,1.42728 2.854545,1.42728 2.01847,0 2.854544,-1.42728 2.854544,-1.42728 0,0 -0.713636,-1.42727 -2.854544,-1.42727 -2.140909,0 -2.854545,1.42727 -2.854545,1.42727 z"
         style="display:inline;fill:#252525;fill-opacity:1;fill-rule:evenodd;stroke:none;stroke-width:1px;stroke-linecap:butt;stroke-linejoin:miter;stroke-opacity:1;enable-background:new" />
      <path
         inkscape:connector-curvature="0"
         id="path4530"
         d="M 72.563634,262.14545 C 72.563634,265 69.709089,265 69.709089,265 L 64,265 l 0,14.27272 2.854544,0 c 0,0 4.806404,-3.90372 5.70909,-5.70909 1.50448,-3.00895 1.427272,-9.9909 1.427272,-9.9909 0.201845,-1.41293 -1.427272,-1.42728 -1.427272,-1.42728 z"
         style="opacity:0.05;fill:#000000;fill-opacity:1;stroke:none;stroke-width:2;stroke-miterlimit:4;stroke-dasharray:none;stroke-opacity:1" />
      <path
         id="path4586"
         transform="translate(0,-244)"
         d="M 55.435547 506.14453 C 55.435547 506.14453 54.009766 506.145 54.009766 507.57227 C 54.009766 507.57227 54.01198 508.01313 54.019531 508.49805 C 54.073616 507.15355 55.435547 507.14453 55.435547 507.14453 C 55.435547 509.99907 58.291016 510 58.291016 510 L 69.708984 510 C 69.708984 510 72.564453 509.99907 72.564453 507.14453 C 72.564453 507.14453 73.800003 507.15764 73.984375 508.0957 C 73.984854 507.9279 73.990234 507.57227 73.990234 507.57227 C 74.192079 506.15934 72.564453 506.14453 72.564453 506.14453 C 72.564453 508.99907 69.708984 509 69.708984 509 L 58.291016 509 C 58.291016 509 55.435547 508.99907 55.435547 506.14453 z "
         style="opacity:0.2;fill:#ffffff;fill-opacity:1;stroke:none;stroke-width:2;stroke-miterlimit:4;stroke-dasharray:none;stroke-opacity:1" />
      <g
         transform="matrix(0.5,0,0,0.5,-19.937016,142.49708)"
         id="g4624"
         style="display:inline;enable-background:new">
        <g
           id="g4626"
           transform="translate(16.132812,-0.32553101)">
          <circle
             r="4"
             cy="259.32553"
             cx="159.86719"
             id="circle4628"
             style="opacity:1;fill:#ebebeb;fill-opacity:1;stroke:none;stroke-width:1;stroke-linecap:round;stroke-linejoin:round;stroke-miterlimit:4;stroke-dasharray:none;stroke-opacity:1" />
          <path
             inkscape:connector-curvature="0"
             style="opacity:0.8;fill:#000000;fill-opacity:1;stroke:none;stroke-width:1;stroke-linecap:round;stroke-linejoin:round;stroke-miterlimit:4;stroke-dasharray:none;stroke-opacity:1"
             d="m 159.74122,257.33138 a 3.0000074,3.0000074 0 0 0 -2.87403,2.99415 3.0000074,3.0000074 0 0 0 3,3 3.0000074,3.0000074 0 0 0 3,-3 3.0000074,3.0000074 0 0 0 -2.85059,-2.99122 1.5000037,1.5000037 0 0 1 1.3506,1.49121 1.5000037,1.5000037 0 0 1 -1.50001,1.50001 1.5000037,1.5000037 0 0 1 -1.50001,-1.50001 1.5000037,1.5000037 0 0 1 1.37404,-1.49414 z"
             id="path4630" />
        </g>
        <g
           transform="translate(0.1328125,-0.32553101)"
           id="g4632">
          <circle
             style="opacity:1;fill:#ebebeb;fill-opacity:1;stroke:none;stroke-width:1;stroke-linecap:round;stroke-linejoin:round;stroke-miterlimit:4;stroke-dasharray:none;stroke-opacity:1"
             id="circle4634"
             cx="159.86719"
             cy="259.32553"
             r="4" />
          <path
             id="path4636"
             d="m 159.74122,257.33138 a 3.0000074,3.0000074 0 0 0 -2.87403,2.99415 3.0000074,3.0000074 0 0 0 3,3 3.0000074,3.0000074 0 0 0 3,-3 3.0000074,3.0000074 0 0 0 -2.85059,-2.99122 1.5000037,1.5000037 0 0 1 1.3506,1.49121 1.5000037,1.5000037 0 0 1 -1.50001,1.50001 1.5000037,1.5000037 0 0 1 -1.50001,-1.50001 1.5000037,1.5000037 0 0 1 1.37404,-1.49414 z"
             style="opacity:0.8;fill:#000000;fill-opacity:1;stroke:none;stroke-width:1;stroke-linecap:round;stroke-linejoin:round;stroke-miterlimit:4;stroke-dasharray:none;stroke-opacity:1"
             inkscape:connector-curvature="0" />
        </g>
      </g>
      <g
         transform="matrix(0.49955031,0,0,0.49955031,-31.949635,141.61647)"
         id="g4695">
        <path
           sodipodi:nodetypes="cssccssccccc"
           inkscape:connector-curvature="0"
           id="path4679"
           d="m 100,255 c 0,0 -2,0 -2,2 0,0 -0.108185,9.78363 2,14 1.26491,2.52982 8,8 8,8 l 8,0 c 0,0 6.73509,-5.47018 8,-8 2.10819,-4.21637 2,-14 2,-14 0.28284,-1.9799 -2,-2 -2,-2 l 0,0 c 0,4 -4,4 -4,4 l -16,0 c 0,0 -4,0 -4,-4 z"
           style="opacity:1;fill:#4b4b4b;fill-opacity:1;stroke:none;stroke-width:2;stroke-miterlimit:4;stroke-dasharray:none;stroke-opacity:1" />
        <path
           sodipodi:nodetypes="cscsc"
           inkscape:connector-curvature="0"
           id="path4681"
           d="m 108,279 c 0,0 1.17157,2 4,2 2.82843,0 4,-2 4,-2 0,0 -1,-2 -4,-2 -3,0 -4,2 -4,2 z"
           style="display:inline;fill:#252525;fill-opacity:1;fill-rule:evenodd;stroke:none;stroke-width:1px;stroke-linecap:butt;stroke-linejoin:miter;stroke-opacity:1;enable-background:new" />
        <path
           inkscape:connector-curvature="0"
           id="path4683"
           transform="translate(0,-244)"
           d="m 124,499 c 0,4 -4,4 -4,4 l -8,0 0,20 4,0 c 0,0 6.73509,-5.47018 8,-8 2.10819,-4.21637 2,-14 2,-14 0.28284,-1.9799 -2,-2 -2,-2 z"
           style="opacity:0.05;fill:#000000;fill-opacity:1;stroke:none;stroke-width:2;stroke-miterlimit:4;stroke-dasharray:none;stroke-opacity:1" />
        <circle
           style="opacity:1;fill:#ebebeb;fill-opacity:1;stroke:none;stroke-width:1;stroke-linecap:round;stroke-linejoin:round;stroke-miterlimit:4;stroke-dasharray:none;stroke-opacity:1"
           id="circle4687"
           cx="106"
           cy="268"
           r="3" />
        <path
           id="path4689"
           d="M 105.91602,267.00391 A 2,2 0 0 0 104,269 a 2,2 0 0 0 2,2 2,2 0 0 0 2,-2 2,2 0 0 0 -1.90039,-1.99414 A 1,1 0 0 1 107,268 a 1,1 0 0 1 -1,1 1,1 0 0 1 -1,-1 1,1 0 0 1 0.91602,-0.99609 z"
           style="opacity:0.8;fill:#000000;fill-opacity:1;stroke:none;stroke-width:1;stroke-linecap:round;stroke-linejoin:round;stroke-miterlimit:4;stroke-dasharray:none;stroke-opacity:1"
           inkscape:connector-curvature="0" />
        <circle
           r="3"
           cy="268"
           cx="118"
           id="circle4691"
           style="opacity:1;fill:#ebebeb;fill-opacity:1;stroke:none;stroke-width:1;stroke-linecap:round;stroke-linejoin:round;stroke-miterlimit:4;stroke-dasharray:none;stroke-opacity:1" />
        <path
           inkscape:connector-curvature="0"
           style="opacity:0.8;fill:#000000;fill-opacity:1;stroke:none;stroke-width:1;stroke-linecap:round;stroke-linejoin:round;stroke-miterlimit:4;stroke-dasharray:none;stroke-opacity:1"
           d="M 117.91602,267.00391 A 2,2 0 0 0 116,269 a 2,2 0 0 0 2,2 2,2 0 0 0 2,-2 2,2 0 0 0 -1.90039,-1.99414 A 1,1 0 0 1 119,268 a 1,1 0 0 1 -1,1 1,1 0 0 1 -1,-1 1,1 0 0 1 0.91602,-0.99609 z"
           id="path4693" />
      </g>
      <path
         style="display:inline;fill:#252525;fill-opacity:1;fill-rule:evenodd;stroke:none;stroke-width:1px;stroke-linecap:butt;stroke-linejoin:miter;stroke-opacity:1;enable-background:new"
         d="m 399.87108,203.84169 c 0,0 18.72826,31.97122 63.94244,31.97122 45.21418,0 63.94244,-31.97122 63.94244,-31.97122 0,0 -15.98561,-31.97122 -63.94244,-31.97122 -47.95683,0 -63.94244,31.97122 -63.94244,31.97122 z"
         id="path4374"
         inkscape:connector-curvature="0"
         sodipodi:nodetypes="cscsc" />
    </g>
  </g>
</svg>
