<?xml version="1.0" encoding="UTF-8" standalone="no"?>
<!-- Created with Inkscape (http://www.inkscape.org/) -->

<svg
   xmlns:dc="http://purl.org/dc/elements/1.1/"
   xmlns:cc="http://creativecommons.org/ns#"
   xmlns:rdf="http://www.w3.org/1999/02/22-rdf-syntax-ns#"
   xmlns:svg="http://www.w3.org/2000/svg"
   xmlns="http://www.w3.org/2000/svg"
   xmlns:xlink="http://www.w3.org/1999/xlink"
   xmlns:sodipodi="http://sodipodi.sourceforge.net/DTD/sodipodi-0.dtd"
   xmlns:inkscape="http://www.inkscape.org/namespaces/inkscape"
   inkscape:export-ydpi="90.000000"
   inkscape:export-xdpi="90.000000"
   width="736"
   height="544"
   id="svg11300"
   sodipodi:version="0.32"
   inkscape:version="0.91 r13725"
   sodipodi:docname="guake.svg"
   inkscape:output_extension="org.inkscape.output.svg.inkscape"
   version="1.0"
   style="display:inline;enable-background:new"
   inkscape:export-filename="/home/sam/paper-template.png">
  <sodipodi:namedview
     stroke="#646464"
     fill="#909090"
     id="base"
     pagecolor="#ffffff"
     bordercolor="#000000"
     borderopacity="0.25490196"
     inkscape:pageopacity="0"
     inkscape:pageshadow="2"
     inkscape:zoom="1"
     inkscape:cx="482.76635"
     inkscape:cy="130.95621"
     inkscape:current-layer="layer6"
     showgrid="false"
     inkscape:grid-bbox="true"
     inkscape:document-units="px"
     inkscape:showpageshadow="false"
     inkscape:window-width="648"
     inkscape:window-height="698"
     inkscape:window-x="25"
     inkscape:window-y="45"
     width="400px"
     height="300px"
     inkscape:snap-nodes="true"
     inkscape:snap-bbox="true"
     gridtolerance="10000"
     inkscape:object-nodes="true"
     inkscape:snap-grids="true"
     showguides="true"
     inkscape:guide-bbox="true"
     inkscape:window-maximized="1"
     inkscape:bbox-paths="true"
     inkscape:snap-bbox-midpoints="true"
     inkscape:snap-global="true"
     inkscape:object-paths="true"
     inkscape:snap-intersection-paths="true"
     inkscape:snap-smooth-nodes="true">
    <inkscape:grid
       snapvisiblegridlinesonly="true"
       empspacing="4"
       visible="true"
       enabled="true"
       type="xygrid"
       id="grid5883"
       spacingx="1px"
       spacingy="1px" />
    <inkscape:grid
       snapvisiblegridlinesonly="true"
       empopacity="0.25098039"
       empcolor="#ff0000"
       opacity="0.1254902"
       color="#ff0000"
       spacingy="0.5px"
       spacingx="0.5px"
       enabled="false"
       visible="true"
       empspacing="2"
       id="grid11592"
       type="xygrid" />
  </sodipodi:namedview>
  <title
     id="title3004">Paper Icon Theme Template</title>
  <defs
     id="defs3">
    <filter
       height="1.05088"
       y="-0.025439942"
       width="1.0454288"
       x="-0.022714332"
       id="filter4486"
       style="color-interpolation-filters:sRGB"
       inkscape:collect="always">
      <feGaussianBlur
         id="feGaussianBlur4488"
         stdDeviation="4.2399902"
         inkscape:collect="always" />
    </filter>
    <filter
       height="1.0543158"
       y="-0.027157895"
       width="1.043"
       x="-0.0215"
       id="filter4297"
       style="color-interpolation-filters:sRGB"
       inkscape:collect="always">
      <feGaussianBlur
         id="feGaussianBlur4299"
         stdDeviation="3.44"
         inkscape:collect="always" />
    </filter>
    <filter
       height="1.12"
       y="-0.059999999"
       width="1.12"
       x="-0.059999999"
       id="filter4360-0"
       style="color-interpolation-filters:sRGB"
       inkscape:collect="always">
      <feGaussianBlur
         id="feGaussianBlur4362-0"
         stdDeviation="0.6"
         inkscape:collect="always" />
    </filter>
    <filter
       height="1.12"
       y="-0.059999999"
       width="1.12"
       x="-0.059999999"
       id="filter4253-6"
       style="color-interpolation-filters:sRGB"
       inkscape:collect="always">
      <feGaussianBlur
         id="feGaussianBlur4255-2"
         stdDeviation="6"
         inkscape:collect="always" />
    </filter>
  </defs>
  <metadata
     id="metadata4">
    <rdf:RDF>
      <cc:Work
         rdf:about="">
        <dc:format>image/svg+xml</dc:format>
        <dc:type
           rdf:resource="http://purl.org/dc/dcmitype/StillImage" />
        <dc:creator>
          <cc:Agent>
            <dc:title>Sam Hewitt</dc:title>
          </cc:Agent>
        </dc:creator>
        <dc:source />
        <cc:license
           rdf:resource="http://creativecommons.org/licenses/by-sa/3.0/" />
        <dc:title>Paper Icon Theme Template</dc:title>
        <dc:subject>
          <rdf:Bag />
        </dc:subject>
        <dc:date />
        <dc:rights>
          <cc:Agent>
            <dc:title />
          </cc:Agent>
        </dc:rights>
        <dc:publisher>
          <cc:Agent>
            <dc:title />
          </cc:Agent>
        </dc:publisher>
        <dc:identifier />
        <dc:relation />
        <dc:language />
        <dc:coverage />
        <dc:description />
        <dc:contributor>
          <cc:Agent>
            <dc:title />
          </cc:Agent>
        </dc:contributor>
      </cc:Work>
      <cc:Work
         rdf:about="">
        <dc:format>image/svg+xml</dc:format>
        <dc:type
           rdf:resource="http://purl.org/dc/dcmitype/StillImage" />
      </cc:Work>
      <cc:License
         rdf:about="http://creativecommons.org/licenses/by-sa/3.0/">
        <cc:permits
           rdf:resource="http://creativecommons.org/ns#Reproduction" />
        <cc:permits
           rdf:resource="http://creativecommons.org/ns#Distribution" />
        <cc:requires
           rdf:resource="http://creativecommons.org/ns#Notice" />
        <cc:requires
           rdf:resource="http://creativecommons.org/ns#Attribution" />
        <cc:permits
           rdf:resource="http://creativecommons.org/ns#DerivativeWorks" />
        <cc:requires
           rdf:resource="http://creativecommons.org/ns#ShareAlike" />
      </cc:License>
    </rdf:RDF>
  </metadata>
  <g
     transform="translate(0,244)"
     id="layer1"
     inkscape:label="guake"
     inkscape:groupmode="layer"
     style="display:inline">
    <g
       inkscape:groupmode="layer"
       id="layer7"
       inkscape:label="Baseplate"
       style="display:none">
      <text
         id="context"
         inkscape:label="context"
         style="font-style:normal;font-variant:normal;font-weight:normal;font-stretch:normal;font-size:18px;font-family:'DejaVu Sans';-inkscape-font-specification:'DejaVu Sans';display:inline;fill:#000000;fill-opacity:1;stroke:none;enable-background:new"
         x="15.006836"
         xml:space="preserve"
         y="337.74512"><tspan
           id="tspan3933"
           sodipodi:role="line"
           x="15.006836"
           y="337.74512"
           style="font-style:normal;font-variant:normal;font-weight:normal;font-stretch:normal;font-family:'DejaVu Sans';-inkscape-font-specification:'DejaVu Sans'">apps</tspan></text>
      <text
         id="icon-name"
         inkscape:label="icon-name"
         sodipodi:linespacing="125%"
         style="font-style:normal;font-variant:normal;font-weight:bold;font-stretch:normal;font-size:18px;line-height:125%;font-family:'DejaVu Sans';-inkscape-font-specification:'DejaVu Sans Bold';text-align:start;writing-mode:lr-tb;text-anchor:start;display:inline;fill:#000000;fill-opacity:1;stroke:none;enable-background:new"
         x="142.48828"
         xml:space="preserve"
         y="337.74512"><tspan
           id="tspan3937"
           sodipodi:role="line"
           x="142.48828"
           y="337.74512"
           style="font-style:normal;font-variant:normal;font-weight:bold;font-stretch:normal;font-size:18px;font-family:'DejaVu Sans';-inkscape-font-specification:'DejaVu Sans Bold'">guake</tspan></text>
      <rect
         transform="scale(-1,1)"
         inkscape:label="16x16"
         y="268"
         x="-32"
         height="16"
         width="16"
         id="rect16x16"
         style="display:inline;overflow:visible;visibility:visible;fill:#d5d5d5;fill-opacity:1;fill-rule:nonzero;stroke:none;stroke-width:2;marker:none;enable-background:accumulate" />
      <rect
         transform="scale(-1,1)"
         inkscape:label="24x24"
         y="260"
         x="-76"
         height="24"
         width="24"
         id="rect24x24"
         style="display:inline;overflow:visible;visibility:visible;fill:#d5d5d5;fill-opacity:1;fill-rule:nonzero;stroke:none;stroke-width:2;marker:none;enable-background:accumulate" />
      <rect
         transform="scale(-1,1)"
         inkscape:label="32x32"
         y="252"
         x="-128"
         height="32"
         width="32"
         id="rect32x32"
         style="display:inline;overflow:visible;visibility:visible;fill:#d5d5d5;fill-opacity:1;fill-rule:nonzero;stroke:none;stroke-width:2;marker:none;enable-background:accumulate" />
      <rect
         transform="scale(-1,1)"
         style="display:inline;overflow:visible;visibility:visible;fill:#d5d5d5;fill-opacity:1;fill-rule:nonzero;stroke:none;stroke-width:2;marker:none;enable-background:accumulate"
         id="rect48x48"
         width="48"
         height="48"
         x="-192"
         y="236"
         inkscape:label="48x48" />
      <rect
         transform="scale(-1,1)"
         inkscape:label="48x48"
         y="-228"
         x="-720"
         height="512"
         width="512"
         id="rect3951"
         style="display:inline;overflow:visible;visibility:visible;fill:#d5d5d5;fill-opacity:1;fill-rule:nonzero;stroke:none;stroke-width:2;marker:none;enable-background:accumulate" />
    </g>
    <g
       style="display:inline"
       inkscape:label="Symbols"
       id="layer6"
       inkscape:groupmode="layer">
      <g
         id="g4308">
        <path
           inkscape:connector-curvature="0"
           id="path4490"
           d="m 264.00195,-160 c -13.296,0 -24,10.704 -24,24 l 0,24 0,328 c 0,13.296 10.704,24 24,24 L 664,240 c 13.296,0 24,-10.704 24,-24 l 0,-328 0,-24 c 0,-13.296 -10.704,-24 -24,-24 l -399.99805,0 z"
           style="opacity:0.1;fill:#000000;fill-opacity:1;stroke:none;filter:url(#filter4486)" />
        <path
           style="opacity:0.2;fill:#000000;fill-opacity:1;stroke:none;filter:url(#filter4486)"
           d="m 264.00195,-160 c -13.296,0 -24,10.704 -24,24 l 0,24 0,328 c 0,13.296 10.704,24 24,24 L 664,240 c 13.296,0 24,-10.704 24,-24 l 0,-328 0,-24 c 0,-13.296 -10.704,-24 -24,-24 l -399.99805,0 z"
           id="path4484"
           inkscape:connector-curvature="0" />
        <path
           inkscape:connector-curvature="0"
           id="path4479"
           d="m 264.00195,-162 c -13.296,0 -24,10.704 -24,24 l 0,24 0,328 c 0,13.296 10.704,24 24,24 L 664,238 c 13.296,0 24,-10.704 24,-24 l 0,-328 0,-24 c 0,-13.296 -10.704,-24 -24,-24 l -399.99805,0 z"
           style="opacity:0.2;fill:#000000;fill-opacity:1;stroke:none" />
        <path
           style="opacity:0.1;fill:#000000;fill-opacity:1;stroke:none"
           d="m 53,280.5 0,1 c 0,0.831 0.669,1.5 1.5,1.5 l 19,0 c 0.831,0 1.5,-0.669 1.5,-1.5 l 0,-1 c 0,0.831 -0.669,1.5 -1.5,1.5 l -19,0 c -0.831,0 -1.5,-0.669 -1.5,-1.5 z"
           id="rect4227"
           inkscape:connector-curvature="0" />
        <path
           sodipodi:nodetypes="csssscssc"
           style="opacity:0.1;fill:#000000;fill-opacity:1;stroke:none"
           d="m 97,279.5 0,1 c 0,0.831 0.669,1.5 1.5,1.5 l 27,0 c 0.831,0 1.5,-0.669 1.5,-1.5 l 0,-1 c 0,0.831 -0.669,1.5 -1.5,1.5 l -27,0 c -0.831,0 -1.5,-0.669 -1.5,-1.5 z"
           id="rect4378"
           inkscape:connector-curvature="0" />
        <path
           style="opacity:0.1;fill:#000000;fill-opacity:1;stroke:none"
           d="m 148,276 0,1 c 0,1.108 0.892,2 2,2 l 36,0 c 1.108,0 2,-0.892 2,-2 l 0,-1 c 0,1.108 -0.892,2 -2,2 l -36,0 c -1.108,0 -2,-0.892 -2,-2 z"
           id="rect4817"
           inkscape:connector-curvature="0" />
        <path
           style="fill:#707070;fill-opacity:1;stroke:none"
           d="m 53,265 0,15.5 c 0,0.831 0.669,1.5 1.5,1.5 l 19,0 c 0.831,0 1.621782,-0.67797 1.5,-1.5 L 75,265 Z"
           id="rect4243"
           inkscape:connector-curvature="0"
           sodipodi:nodetypes="csssscc" />
        <path
           style="display:inline;fill:#707070;fill-opacity:1;stroke:none;enable-background:new"
           d="m 16,271 0,11 c 0,0.554 0.446,1 1,1 l 14,0 c 0.554,0 1,-0.446 1,-1 l 0,-11 -16,0 z"
           id="rect4265"
           inkscape:connector-curvature="0" />
        <path
           style="fill:#707070;fill-opacity:1;stroke:none"
           d="m 97,259 0,20.5 c 0,0.831 0.669,1.5 1.5,1.5 l 27,0 c 0.831,0 1.58069,-0.67293 1.5,-1.5 l 0,-20.5 z"
           id="rect4363"
           inkscape:connector-curvature="0"
           sodipodi:nodetypes="csssscc" />
        <path
           style="fill:#4d4d4d;fill-opacity:1;stroke:none"
           d="m 98.5,255 c -0.831,0 -1.5,0.669 -1.5,1.5 l 0,3.5 30,0 0,-3.5 c 0,-0.831 -0.669,-1.5 -1.5,-1.5 z"
           id="rect4509"
           inkscape:connector-curvature="0"
           sodipodi:nodetypes="ssccsss" />
        <path
           style="fill:#4d4d4d;fill-opacity:1;stroke:none"
           d="m 54.5,262 c -0.831,0 -1.5,0.669 -1.5,1.5 l 0,2.5 22,0 0,-2.5 c 0,-0.831 -0.669,-1.5 -1.5,-1.5 z"
           id="rect4517"
           inkscape:connector-curvature="0"
           sodipodi:nodetypes="ssccsss" />
        <path
           style="display:inline;fill:#4d4d4d;fill-opacity:1;stroke:none;enable-background:new"
           d="m 17,269 c -0.554,0 -1,0.446 -1,1 l 0,2 16,0 0,-2 c 0,-0.554 -0.446,-1 -1,-1 z"
           id="rect4525"
           inkscape:connector-curvature="0"
           sodipodi:nodetypes="ssccsss" />
        <path
           inkscape:connector-curvature="0"
           id="rect4439"
           d="m 240.00195,-116 0,328 c 0,13.296 10.704,24 24,24 L 664,236 c 13.296,0 24,-10.704 24,-24 l 0,-328 z"
           style="fill:#707070;fill-opacity:1;stroke:none"
           sodipodi:nodetypes="csssscc" />
        <path
           style="fill:#707070;fill-opacity:1;stroke:none"
           d="m 148,248 0,14 0,14 c 0,1.108 0.892,2 2,2 l 36,0 c 1.108,0 2,-0.892 2,-2 l 0,-28 z"
           id="path4501"
           inkscape:connector-curvature="0"
           sodipodi:nodetypes="ccsssscc" />
        <path
           style="fill:#4d4d4d;fill-opacity:1;stroke:none"
           d="m 150,242 c 0,0 -2,0 -2,2 l 0,4 40,0 0,-4 c 0,0 0,-2 -2,-2 l -18,0 z"
           id="rect4801"
           inkscape:connector-curvature="0"
           sodipodi:nodetypes="csccsscc" />
        <path
           sodipodi:nodetypes="ccccccc"
           inkscape:connector-curvature="0"
           id="path4283"
           d="m 99,260 26,0 0,18 c 0,0 0,1 -1,1 l -24,0 c 0,0 -1,0 -1,-1 z"
           style="opacity:1;fill:#c0c0c0;fill-opacity:1;stroke:none;stroke-width:8;stroke-linecap:square;stroke-linejoin:miter;stroke-miterlimit:4;stroke-dasharray:none;stroke-opacity:1" />
        <g
           id="g4043"
           transform="translate(-42.951757,22)"
           style="display:inline;fill:#505050;fill-opacity:1;enable-background:new">
          <path
             inkscape:connector-curvature="0"
             id="path4045"
             d="m 150,252 4,0 0,1 -4,0 z"
             style="color:#bebebe;display:inline;overflow:visible;visibility:visible;opacity:1;fill:#f4f4f4;fill-opacity:1;fill-rule:nonzero;stroke:none;stroke-width:2;marker:none;enable-background:accumulate"
             sodipodi:nodetypes="ccccc" />
          <g
             style="font-style:normal;font-variant:normal;font-weight:normal;font-stretch:normal;font-size:17.2705555px;line-height:125%;font-family:Roboto;-inkscape-font-specification:Roboto;text-align:center;letter-spacing:0px;word-spacing:0px;text-anchor:middle;display:inline;fill:#505050;fill-opacity:1;stroke:none;enable-background:new"
             id="g4047"
             transform="matrix(0.5,0,0,0.5,-4.0303302,132)">
            <path
               d="m 300.20309,229 1.72875,0 0,0.97826 c 0.47785,0.0956 0.91918,0.2811 1.32396,0.55657 0.41039,0.26986 0.78144,0.60436 1.11314,1.00351 l -1.02038,1.29023 c 0,0 -0.30568,-0.38639 -0.44695,-0.56497 -0.11245,-0.1293 -0.26424,-0.25579 -0.45538,-0.37948 -0.18553,-0.12367 -0.3851,-0.21081 -0.59873,-0.26142 l 0,2.5383 c 0.45537,0.14618 0.85734,0.30921 1.2059,0.48911 0.34855,0.17991 0.63808,0.38792 0.86859,0.62403 0.23611,0.23613 0.4132,0.50317 0.53127,0.80113 0.11805,0.29234 0.17708,0.62684 0.17709,1.00351 -1e-5,0.35418 -0.0618,0.69431 -0.18552,1.02038 -0.12369,0.32045 -0.30359,0.61279 -0.53971,0.87702 -0.2305,0.26423 -0.5116,0.49192 -0.84329,0.68306 -0.3317,0.19115 -0.70836,0.32889 -1.13,0.41322 l 0,0.92761 -1.72875,0 0,-0.87702 c -0.52846,-0.09 -1.03724,-0.26704 -1.52635,-0.53127 -0.48911,-0.26423 -0.92481,-0.60717 -1.3071,-1.02881 l 1.05412,-1.48419 0.48914,0.60717 c 0.19115,0.20801 0.39353,0.3851 0.60717,0.53127 0.21925,0.14617 0.47505,0.25018 0.76739,0.31202 l 0,-3.08644 c -0.4104,-0.15179 -0.77864,-0.32045 -1.1047,-0.50597 -0.32046,-0.18552 -0.59312,-0.39072 -0.818,-0.6156 -0.21925,-0.2305 -0.38791,-0.48348 -0.50597,-0.75896 -0.11806,-0.28109 -0.17709,-0.58749 -0.17709,-0.91919 0,-0.31482 0.059,-0.61559 0.17709,-0.90232 0.11806,-0.28671 0.28672,-0.54532 0.50597,-0.77582 0.21926,-0.23049 0.48349,-0.42726 0.7927,-0.59031 0.31482,-0.16864 0.66338,-0.29233 1.04567,-0.37104 l 0,-1.00352 m 1.64442,9.42797 c 0.30358,-0.10681 0.54813,-0.2586 0.73366,-0.45537 0.19114,-0.19677 0.28671,-0.45819 0.28672,-0.78426 -1e-5,-0.26985 -0.0843,-0.50597 -0.25299,-0.70837 -0.16304,-0.20238 -0.41884,-0.36542 -0.76739,-0.4891 l 0,2.4371 m -1.56009,-6.8222 c -0.23612,0.0618 -0.42727,0.17147 -0.57343,0.32888 -0.14618,0.15742 -0.21926,0.35981 -0.21926,0.60717 0,0.17991 0.059,0.36543 0.17709,0.55657 0.11806,0.19115 0.32326,0.33732 0.6156,0.43851 l 0,-1.93113"
               style="font-weight:bold;font-family:Inconsolata;-inkscape-font-specification:'Inconsolata Bold';opacity:1;fill:#f4f4f4;fill-opacity:1"
               id="path4049"
               inkscape:connector-curvature="0"
               sodipodi:nodetypes="ccccccccccccccccsccccscccccccccscccccccccccccsccc" />
          </g>
        </g>
        <path
           style="opacity:1;fill:#c0c0c0;fill-opacity:1;stroke:none;stroke-width:8;stroke-linecap:square;stroke-linejoin:miter;stroke-miterlimit:4;stroke-dasharray:none;stroke-opacity:1"
           d="m 54,266 20,0 0,14 c 0,0 0,1 -1,1 l -18,0 c 0,0 -1,0 -1,-1 z"
           id="path4305"
           inkscape:connector-curvature="0"
           sodipodi:nodetypes="ccccccc" />
        <g
           id="g4062"
           transform="translate(3,5)"
           style="display:inline;fill:#505050;fill-opacity:1;enable-background:new">
          <path
             sodipodi:nodetypes="ccccc"
             style="color:#bebebe;display:inline;overflow:visible;visibility:visible;opacity:1;fill:#f4f4f4;fill-opacity:1;fill-rule:nonzero;stroke:none;stroke-width:2;marker:none;enable-background:accumulate"
             d="m 57,272 3,0 0,1 -3,0 z"
             id="path4053"
             inkscape:connector-curvature="0" />
          <g
             transform="matrix(0.41666424,0,0,0.41666424,-71.248805,172.08392)"
             id="g4055"
             style="font-style:normal;font-variant:normal;font-weight:normal;font-stretch:normal;font-size:17.2705555px;line-height:125%;font-family:Roboto;-inkscape-font-specification:Roboto;text-align:center;letter-spacing:0px;word-spacing:0px;text-anchor:middle;display:inline;fill:#505050;fill-opacity:1;stroke:none;enable-background:new">
            <path
               sodipodi:nodetypes="ccccccccccccccccsccccscccccccccscccccccccccccsccc"
               inkscape:connector-curvature="0"
               id="path4057"
               style="font-weight:bold;font-family:Inconsolata;-inkscape-font-specification:'Inconsolata Bold';opacity:1;fill:#f4f4f4;fill-opacity:1"
               d="m 300.20309,229 1.72875,0 0,0.97826 c 0.47785,0.0956 0.91918,0.2811 1.32396,0.55657 0.41039,0.26986 0.78144,0.60436 1.11314,1.00351 l -1.02038,1.29023 c 0,0 -0.30568,-0.38639 -0.44695,-0.56497 -0.11245,-0.1293 -0.26424,-0.25579 -0.45538,-0.37948 -0.18553,-0.12367 -0.3851,-0.21081 -0.59873,-0.26142 l 0,2.5383 c 0.45537,0.14618 0.85734,0.30921 1.2059,0.48911 0.34855,0.17991 0.63808,0.38792 0.86859,0.62403 0.23611,0.23613 0.4132,0.50317 0.53127,0.80113 0.11805,0.29234 0.17708,0.62684 0.17709,1.00351 -1e-5,0.35418 -0.0618,0.69431 -0.18552,1.02038 -0.12369,0.32045 -0.30359,0.61279 -0.53971,0.87702 -0.2305,0.26423 -0.5116,0.49192 -0.84329,0.68306 -0.3317,0.19115 -0.70836,0.32889 -1.13,0.41322 l 0,0.92761 -1.72875,0 0,-0.87702 c -0.52846,-0.09 -1.03724,-0.26704 -1.52635,-0.53127 -0.48911,-0.26423 -0.92481,-0.60717 -1.3071,-1.02881 l 1.05412,-1.48419 0.48914,0.60717 c 0.19115,0.20801 0.39353,0.3851 0.60717,0.53127 0.21925,0.14617 0.47505,0.25018 0.76739,0.31202 l 0,-3.08644 c -0.4104,-0.15179 -0.77864,-0.32045 -1.1047,-0.50597 -0.32046,-0.18552 -0.59312,-0.39072 -0.818,-0.6156 -0.21925,-0.2305 -0.38791,-0.48348 -0.50597,-0.75896 -0.11806,-0.28109 -0.17709,-0.58749 -0.17709,-0.91919 0,-0.31482 0.059,-0.61559 0.17709,-0.90232 0.11806,-0.28671 0.28672,-0.54532 0.50597,-0.77582 0.21926,-0.23049 0.48349,-0.42726 0.7927,-0.59031 0.31482,-0.16864 0.66338,-0.29233 1.04567,-0.37104 l 0,-1.00352 m 1.64442,9.42797 c 0.30358,-0.10681 0.54813,-0.2586 0.73366,-0.45537 0.19114,-0.19677 0.28671,-0.45819 0.28672,-0.78426 -1e-5,-0.26985 -0.0843,-0.50597 -0.25299,-0.70837 -0.16304,-0.20238 -0.41884,-0.36542 -0.76739,-0.4891 l 0,2.4371 m -1.56009,-6.8222 c -0.23612,0.0618 -0.42727,0.17147 -0.57343,0.32888 -0.14618,0.15742 -0.21926,0.35981 -0.21926,0.60717 0,0.17991 0.059,0.36543 0.17709,0.55657 0.11806,0.19115 0.32326,0.33732 0.6156,0.43851 l 0,-1.93113" />
          </g>
        </g>
        <rect
           style="opacity:1;fill:#c0c0c0;fill-opacity:1;stroke:none;stroke-width:8;stroke-linecap:square;stroke-linejoin:miter;stroke-miterlimit:4;stroke-dasharray:none;stroke-opacity:1"
           id="rect4307"
           width="14"
           height="10"
           x="17"
           y="272" />
        <g
           transform="translate(-34,7)"
           id="g4067"
           style="display:inline;fill:#505050;fill-opacity:1;enable-background:new">
          <path
             inkscape:connector-curvature="0"
             id="path4069"
             d="m 57,272 3,0 0,1 -3,0 z"
             style="color:#bebebe;display:inline;overflow:visible;visibility:visible;opacity:1;fill:#f4f4f4;fill-opacity:1;fill-rule:nonzero;stroke:none;stroke-width:2;marker:none;enable-background:accumulate"
             sodipodi:nodetypes="ccccc" />
          <g
             style="font-style:normal;font-variant:normal;font-weight:normal;font-stretch:normal;font-size:17.2705555px;line-height:125%;font-family:Roboto;-inkscape-font-specification:Roboto;text-align:center;letter-spacing:0px;word-spacing:0px;text-anchor:middle;display:inline;fill:#505050;fill-opacity:1;stroke:none;enable-background:new"
             id="g4071"
             transform="matrix(0.41666424,0,0,0.41666424,-71.248805,172.08392)">
            <path
               d="m 300.20309,229 1.72875,0 0,0.97826 c 0.47785,0.0956 0.91918,0.2811 1.32396,0.55657 0.41039,0.26986 0.78144,0.60436 1.11314,1.00351 l -1.02038,1.29023 c 0,0 -0.30568,-0.38639 -0.44695,-0.56497 -0.11245,-0.1293 -0.26424,-0.25579 -0.45538,-0.37948 -0.18553,-0.12367 -0.3851,-0.21081 -0.59873,-0.26142 l 0,2.5383 c 0.45537,0.14618 0.85734,0.30921 1.2059,0.48911 0.34855,0.17991 0.63808,0.38792 0.86859,0.62403 0.23611,0.23613 0.4132,0.50317 0.53127,0.80113 0.11805,0.29234 0.17708,0.62684 0.17709,1.00351 -1e-5,0.35418 -0.0618,0.69431 -0.18552,1.02038 -0.12369,0.32045 -0.30359,0.61279 -0.53971,0.87702 -0.2305,0.26423 -0.5116,0.49192 -0.84329,0.68306 -0.3317,0.19115 -0.70836,0.32889 -1.13,0.41322 l 0,0.92761 -1.72875,0 0,-0.87702 c -0.52846,-0.09 -1.03724,-0.26704 -1.52635,-0.53127 -0.48911,-0.26423 -0.92481,-0.60717 -1.3071,-1.02881 l 1.05412,-1.48419 0.48914,0.60717 c 0.19115,0.20801 0.39353,0.3851 0.60717,0.53127 0.21925,0.14617 0.47505,0.25018 0.76739,0.31202 l 0,-3.08644 c -0.4104,-0.15179 -0.77864,-0.32045 -1.1047,-0.50597 -0.32046,-0.18552 -0.59312,-0.39072 -0.818,-0.6156 -0.21925,-0.2305 -0.38791,-0.48348 -0.50597,-0.75896 -0.11806,-0.28109 -0.17709,-0.58749 -0.17709,-0.91919 0,-0.31482 0.059,-0.61559 0.17709,-0.90232 0.11806,-0.28671 0.28672,-0.54532 0.50597,-0.77582 0.21926,-0.23049 0.48349,-0.42726 0.7927,-0.59031 0.31482,-0.16864 0.66338,-0.29233 1.04567,-0.37104 l 0,-1.00352 m 1.64442,9.42797 c 0.30358,-0.10681 0.54813,-0.2586 0.73366,-0.45537 0.19114,-0.19677 0.28671,-0.45819 0.28672,-0.78426 -1e-5,-0.26985 -0.0843,-0.50597 -0.25299,-0.70837 -0.16304,-0.20238 -0.41884,-0.36542 -0.76739,-0.4891 l 0,2.4371 m -1.56009,-6.8222 c -0.23612,0.0618 -0.42727,0.17147 -0.57343,0.32888 -0.14618,0.15742 -0.21926,0.35981 -0.21926,0.60717 0,0.17991 0.059,0.36543 0.17709,0.55657 0.11806,0.19115 0.32326,0.33732 0.6156,0.43851 l 0,-1.93113"
               style="font-weight:bold;font-family:Inconsolata;-inkscape-font-specification:'Inconsolata Bold';opacity:1;fill:#f4f4f4;fill-opacity:1"
               id="path4073"
               inkscape:connector-curvature="0"
               sodipodi:nodetypes="ccccccccccccccccsccccscccccccccscccccccccccccsccc" />
          </g>
        </g>
        <path
           style="opacity:1;fill:#c0c0c0;fill-opacity:1;stroke:none;stroke-width:8;stroke-linecap:square;stroke-linejoin:miter;stroke-miterlimit:4;stroke-dasharray:none;stroke-opacity:1"
           d="m 151,248 34,0 0,26 c 0,0 0,1 -1,1 l -32,0 c 0,0 -1,0 -1,-1 z"
           id="rect4263"
           inkscape:connector-curvature="0"
           sodipodi:nodetypes="ccccccc" />
        <g
           id="g4048"
           style="display:inline;fill:#505050;fill-opacity:1;enable-background:new"
           transform="translate(10,18)">
          <path
             sodipodi:nodetypes="ccccc"
             style="color:#bebebe;display:inline;overflow:visible;visibility:visible;opacity:1;fill:#f4f4f4;fill-opacity:1;fill-rule:nonzero;stroke:none;stroke-width:2;marker:none;enable-background:accumulate"
             d="m 150,252 4,0 0,1 -4,0 z"
             id="rect4100"
             inkscape:connector-curvature="0" />
          <g
             transform="matrix(0.5,0,0,0.5,-4.0303302,132)"
             id="text3894"
             style="font-style:normal;font-variant:normal;font-weight:normal;font-stretch:normal;font-size:17.2705555px;line-height:125%;font-family:Roboto;-inkscape-font-specification:Roboto;text-align:center;letter-spacing:0px;word-spacing:0px;text-anchor:middle;display:inline;fill:#505050;fill-opacity:1;stroke:none;enable-background:new">
            <path
               sodipodi:nodetypes="ccccccccccccccccsccccscccccccccscccccccccccccsccc"
               inkscape:connector-curvature="0"
               id="path3930"
               style="font-weight:bold;font-family:Inconsolata;-inkscape-font-specification:'Inconsolata Bold';opacity:1;fill:#f4f4f4;fill-opacity:1"
               d="m 300.20309,229 1.72875,0 0,0.97826 c 0.47785,0.0956 0.91918,0.2811 1.32396,0.55657 0.41039,0.26986 0.78144,0.60436 1.11314,1.00351 l -1.02038,1.29023 c 0,0 -0.30568,-0.38639 -0.44695,-0.56497 -0.11245,-0.1293 -0.26424,-0.25579 -0.45538,-0.37948 -0.18553,-0.12367 -0.3851,-0.21081 -0.59873,-0.26142 l 0,2.5383 c 0.45537,0.14618 0.85734,0.30921 1.2059,0.48911 0.34855,0.17991 0.63808,0.38792 0.86859,0.62403 0.23611,0.23613 0.4132,0.50317 0.53127,0.80113 0.11805,0.29234 0.17708,0.62684 0.17709,1.00351 -1e-5,0.35418 -0.0618,0.69431 -0.18552,1.02038 -0.12369,0.32045 -0.30359,0.61279 -0.53971,0.87702 -0.2305,0.26423 -0.5116,0.49192 -0.84329,0.68306 -0.3317,0.19115 -0.70836,0.32889 -1.13,0.41322 l 0,0.92761 -1.72875,0 0,-0.87702 c -0.52846,-0.09 -1.03724,-0.26704 -1.52635,-0.53127 -0.48911,-0.26423 -0.92481,-0.60717 -1.3071,-1.02881 l 1.05412,-1.48419 0.48914,0.60717 c 0.19115,0.20801 0.39353,0.3851 0.60717,0.53127 0.21925,0.14617 0.47505,0.25018 0.76739,0.31202 l 0,-3.08644 c -0.4104,-0.15179 -0.77864,-0.32045 -1.1047,-0.50597 -0.32046,-0.18552 -0.59312,-0.39072 -0.818,-0.6156 -0.21925,-0.2305 -0.38791,-0.48348 -0.50597,-0.75896 -0.11806,-0.28109 -0.17709,-0.58749 -0.17709,-0.91919 0,-0.31482 0.059,-0.61559 0.17709,-0.90232 0.11806,-0.28671 0.28672,-0.54532 0.50597,-0.77582 0.21926,-0.23049 0.48349,-0.42726 0.7927,-0.59031 0.31482,-0.16864 0.66338,-0.29233 1.04567,-0.37104 l 0,-1.00352 m 1.64442,9.42797 c 0.30358,-0.10681 0.54813,-0.2586 0.73366,-0.45537 0.19114,-0.19677 0.28671,-0.45819 0.28672,-0.78426 -1e-5,-0.26985 -0.0843,-0.50597 -0.25299,-0.70837 -0.16304,-0.20238 -0.41884,-0.36542 -0.76739,-0.4891 l 0,2.4371 m -1.56009,-6.8222 c -0.23612,0.0618 -0.42727,0.17147 -0.57343,0.32888 -0.14618,0.15742 -0.21926,0.35981 -0.21926,0.60717 0,0.17991 0.059,0.36543 0.17709,0.55657 0.11806,0.19115 0.32326,0.33732 0.6156,0.43851 l 0,-1.93113" />
          </g>
        </g>
        <path
           sodipodi:nodetypes="ccccccc"
           inkscape:connector-curvature="0"
           id="path4293"
           d="m 272,-98 384,0 0,296 c 0,0 0,8 -8,8 l -368,0 c 0,0 -8,0 -8,-8 z"
           style="opacity:0.2;fill:#000000;fill-opacity:1;stroke:none;stroke-width:8;stroke-linecap:square;stroke-linejoin:miter;stroke-miterlimit:4;stroke-dasharray:none;stroke-opacity:1" />
        <path
           style="opacity:0.2;fill:#000000;fill-opacity:1;stroke:none;stroke-width:8;stroke-linecap:square;stroke-linejoin:miter;stroke-miterlimit:4;stroke-dasharray:none;stroke-opacity:1;filter:url(#filter4297)"
           d="m 272,-98 384,0 0,296 c 0,0 0,8 -8,8 l -368,0 c 0,0 -8,0 -8,-8 z"
           id="path4295"
           inkscape:connector-curvature="0"
           sodipodi:nodetypes="ccccccc" />
        <path
           style="opacity:1;fill:#c0c0c0;fill-opacity:1;stroke:none;stroke-width:8;stroke-linecap:square;stroke-linejoin:miter;stroke-miterlimit:4;stroke-dasharray:none;stroke-opacity:1"
           d="m 272,-100 384,0 0,296 c 0,0 0,8 -8,8 l -368,0 c 0,0 -8,0 -8,-8 z"
           id="path4287"
           inkscape:connector-curvature="0"
           sodipodi:nodetypes="ccccccc" />
        <path
           inkscape:connector-curvature="0"
           id="rect4229"
           d="m 264.00195,-164 c -13.296,0 -24,10.704 -24,24 l 0,40 447.99805,0 0,-40 c 0,-13.296 -10.704,-24 -24,-24 z"
           style="fill:#4d4d4d;fill-opacity:1;stroke:none"
           sodipodi:nodetypes="ssccsss" />
        <path
           inkscape:connector-curvature="0"
           id="path4492"
           d="m 264.00195,-164 c -13.296,0 -24,10.704 -24,24 l 0,2 c 0,-13.296 10.704,-24 24,-24 L 664,-162 c 13.296,0 24,10.704 24,24 l 0,-2 c 0,-13.296 -10.704,-24 -24,-24 l -399.99805,0 z"
           style="opacity:0.1;fill:#ffffff;fill-opacity:1;stroke:none" />
      </g>
      <path
         id="path3253"
         transform="translate(0,-244)"
         d="M 312.57031 364 L 312.57031 368.01367 C 311.04115 368.32851 309.646 368.82349 308.38672 369.49805 C 307.14988 370.15025 306.09384 370.93741 305.2168 371.85938 C 304.3398 372.78137 303.6656 373.81605 303.19336 374.96289 C 302.721 376.10981 302.48438 377.31299 302.48438 378.57227 C 302.48437 379.89907 302.72112 381.12564 303.19336 382.25 C 303.6656 383.35192 304.3398 384.36316 305.2168 385.28516 C 306.11632 386.18468 307.20644 387.00597 308.48828 387.74805 C 309.79252 388.49013 311.26465 389.16432 312.90625 389.77148 L 312.90625 402.11719 C 311.73689 401.86983 310.71489 401.45382 309.83789 400.86914 C 308.98333 400.28446 308.1728 399.57618 307.4082 398.74414 L 305.45312 396.31445 L 301.23633 402.25195 C 302.76549 403.93851 304.5084 405.31027 306.46484 406.36719 C 308.42128 407.42411 310.45647 408.13219 312.57031 408.49219 L 312.57031 412 L 319.48438 412 L 319.48438 408.28906 C 321.17093 407.95174 322.67711 407.40132 324.00391 406.63672 C 325.33067 405.87216 326.45495 404.96122 327.37695 403.9043 C 328.32143 402.84738 329.04235 401.67828 329.53711 400.39648 C 330.03199 399.0922 330.27926 397.73117 330.2793 396.31445 C 330.27926 394.80777 330.04251 393.47014 329.57031 392.30078 C 329.09803 391.10894 328.38975 390.04022 327.44531 389.0957 C 326.52327 388.15126 325.3649 387.31925 323.9707 386.59961 C 322.57646 385.88001 320.96796 385.22925 319.14648 384.64453 L 319.14648 374.49023 C 320.001 374.69267 320.80085 375.04243 321.54297 375.53711 C 322.30753 376.03187 322.91348 376.53749 323.36328 377.05469 C 323.92836 377.76901 325.15234 379.31445 325.15234 379.31445 L 329.23242 374.1543 C 327.90562 372.5577 326.42281 371.21811 324.78125 370.13867 C 323.16213 369.03679 321.39578 368.29451 319.48438 367.91211 L 319.48438 364 L 312.57031 364 z M 312.90625 374.42383 L 312.90625 382.14844 C 311.73689 381.74368 310.91755 381.15913 310.44531 380.39453 C 309.97295 379.62997 309.73633 378.88761 309.73633 378.16797 C 309.73633 377.17853 310.02856 376.36796 310.61328 375.73828 C 311.19792 375.10864 311.96177 374.67103 312.90625 374.42383 z M 319.14844 391.96289 C 320.54264 392.45761 321.56464 393.1104 322.2168 393.91992 C 322.89156 394.72952 323.22848 395.67451 323.22852 396.75391 C 323.22848 398.05819 322.84659 399.10354 322.08203 399.89062 C 321.33991 400.67771 320.36276 401.28565 319.14844 401.71289 L 319.14844 391.96289 z M 344 408 L 344 416 L 376 416 L 376 408 L 344 408 z "
         style="color:#bebebe;display:inline;overflow:visible;visibility:visible;opacity:1;fill:#f4f4f4;fill-opacity:1;fill-rule:nonzero;stroke:none;stroke-width:2;marker:none;enable-background:accumulate" />
    </g>
  </g>
  <g
     style="display:inline"
     inkscape:groupmode="layer"
     inkscape:label="guake-prefs"
     id="g4195"
     transform="translate(0,244)">
    <g
       style="display:none"
       inkscape:label="Baseplate"
       id="g4197"
       inkscape:groupmode="layer">
      <text
         y="-302.25488"
         xml:space="preserve"
         x="15.006836"
         style="font-style:normal;font-variant:normal;font-weight:normal;font-stretch:normal;font-size:18px;font-family:'DejaVu Sans';-inkscape-font-specification:'DejaVu Sans';display:inline;fill:#000000;fill-opacity:1;stroke:none;enable-background:new"
         inkscape:label="context"
         id="text4199"><tspan
           style="font-style:normal;font-variant:normal;font-weight:normal;font-stretch:normal;font-family:'DejaVu Sans';-inkscape-font-specification:'DejaVu Sans'"
           y="-302.25488"
           x="15.006836"
           sodipodi:role="line"
           id="tspan4201">apps</tspan></text>
      <text
         y="-302.25488"
         xml:space="preserve"
         x="142.48828"
         style="font-style:normal;font-variant:normal;font-weight:bold;font-stretch:normal;font-size:18px;line-height:125%;font-family:'DejaVu Sans';-inkscape-font-specification:'DejaVu Sans Bold';text-align:start;writing-mode:lr-tb;text-anchor:start;display:inline;fill:#000000;fill-opacity:1;stroke:none;enable-background:new"
         sodipodi:linespacing="125%"
         inkscape:label="icon-name"
         id="text4203"><tspan
           style="font-style:normal;font-variant:normal;font-weight:bold;font-stretch:normal;font-size:18px;font-family:'DejaVu Sans';-inkscape-font-specification:'DejaVu Sans Bold'"
           y="-302.25488"
           x="142.48828"
           sodipodi:role="line"
           id="tspan4205">guake-prefs</tspan></text>
      <rect
         style="display:inline;overflow:visible;visibility:visible;fill:#d5d5d5;fill-opacity:1;fill-rule:nonzero;stroke:none;stroke-width:2;marker:none;enable-background:accumulate"
         id="rect4207"
         width="16"
         height="16"
         x="-32"
         y="-372"
         inkscape:label="16x16"
         transform="scale(-1,1)" />
      <rect
         style="display:inline;overflow:visible;visibility:visible;fill:#d5d5d5;fill-opacity:1;fill-rule:nonzero;stroke:none;stroke-width:2;marker:none;enable-background:accumulate"
         id="rect4209"
         width="24"
         height="24"
         x="-76"
         y="-380"
         inkscape:label="24x24"
         transform="scale(-1,1)" />
      <rect
         style="display:inline;overflow:visible;visibility:visible;fill:#d5d5d5;fill-opacity:1;fill-rule:nonzero;stroke:none;stroke-width:2;marker:none;enable-background:accumulate"
         id="rect4211"
         width="32"
         height="32"
         x="-128"
         y="-388"
         inkscape:label="32x32"
         transform="scale(-1,1)" />
      <rect
         inkscape:label="48x48"
         y="-404"
         x="-192"
         height="48"
         width="48"
         id="rect4213"
         style="display:inline;overflow:visible;visibility:visible;fill:#d5d5d5;fill-opacity:1;fill-rule:nonzero;stroke:none;stroke-width:2;marker:none;enable-background:accumulate"
         transform="scale(-1,1)" />
      <rect
         style="display:inline;overflow:visible;visibility:visible;fill:#d5d5d5;fill-opacity:1;fill-rule:nonzero;stroke:none;stroke-width:2;marker:none;enable-background:accumulate"
         id="rect4215"
         width="512"
         height="512"
         x="-720"
         y="-868"
         inkscape:label="48x48"
         transform="scale(-1,1)" />
    </g>
    <g
       inkscape:groupmode="layer"
       id="g4217"
       inkscape:label="Symbols"
       style="display:inline">
      <use
         height="100%"
         width="100%"
         transform="translate(0,-640)"
         id="use4350"
         xlink:href="#g4308"
         y="0"
         x="0"
         style="display:inline;enable-background:new" />
      <g
         id="g4414">
        <circle
           id="circle4335-1"
           style="display:inline;opacity:0.5;fill:#000000;fill-opacity:1;stroke:none;filter:url(#filter4360-0);enable-background:new"
           cx="168"
           cy="271"
           r="12"
           transform="matrix(0.83333333,0,0,0.83333333,40,-593.83326)" />
        <circle
           transform="scale(-1,1)"
           id="circle4300-8"
           style="display:inline;opacity:0.2;fill:#000000;fill-opacity:1;stroke:none;enable-background:new"
           cx="-180"
           cy="-367.99994"
           r="12" />
        <circle
           r="12"
           cy="-368.99994"
           cx="-180"
           style="display:inline;fill:#777777;fill-opacity:1;stroke:none;enable-background:new"
           id="path4058-0"
           transform="scale(-1,1)" />
        <circle
           id="circle4345-3"
           style="display:inline;opacity:0.2;fill:#000000;fill-opacity:1;fill-rule:evenodd;stroke:none;enable-background:new"
           cx="120"
           cy="-363.99994"
           r="8" />
        <circle
           r="8"
           cy="-364.99994"
           cx="120"
           style="display:inline;fill:#777777;fill-opacity:1;fill-rule:evenodd;stroke:none;enable-background:new"
           id="circle4426-9" />
        <circle
           cy="-361.99994"
           cx="70"
           style="display:inline;opacity:0.2;fill:#000000;fill-opacity:1;stroke:none;stroke-width:2;enable-background:new"
           id="circle4343-5"
           r="6" />
        <circle
           r="6"
           id="circle7479-1"
           style="display:inline;fill:#777777;fill-opacity:1;stroke:none;stroke-width:2;enable-background:new"
           cx="70"
           cy="-362.99994" />
        <circle
           id="circle4339-5"
           style="display:inline;opacity:0.5;fill:#000000;fill-opacity:1;stroke:none;filter:url(#filter4253-6);enable-background:new"
           cx="584"
           cy="-484"
           r="120" />
        <circle
           r="120"
           cy="-491.99994"
           cx="584"
           style="display:inline;fill:#777777;fill-opacity:1;stroke:none;enable-background:new"
           id="circle3609-4" />
        <path
           id="path4323"
           d="m 178.25001,-375.99994 -0.15419,1.8438 a 5.5,5.5 0 0 0 -1.60759,0.92969 l -1.67575,-0.78917 -1.75,3.03136 1.52157,1.05653 a 5.5,5.5 0 0 0 -0.0841,0.92779 5.5,5.5 0 0 0 0.0801,0.93159 l -1.51758,1.05273 1.75,3.03136 1.67196,-0.78708 a 5.5,5.5 0 0 0 1.61119,0.9238 l 0.15438,1.8476 3.5,0 0.15419,-1.8438 a 5.5,5.5 0 0 0 1.60758,-0.92969 l 1.67575,0.78917 1.75,-3.03136 -1.52156,-1.05653 a 5.5,5.5 0 0 0 0.0841,-0.92779 5.5,5.5 0 0 0 -0.0801,-0.93159 l 1.51757,-1.05273 -1.75,-3.03136 -1.67195,0.78708 a 5.5,5.5 0 0 0 -1.61119,-0.9238 l -0.15438,-1.8476 -3.5,0 z m 1.75,4.66667 a 2.3333333,2.3333333 0 0 1 2.33333,2.33333 2.3333333,2.3333333 0 0 1 -2.33333,2.33333 2.3333333,2.3333333 0 0 1 -2.33334,-2.33333 2.3333333,2.3333333 0 0 1 2.33334,-2.33333 z"
           style="display:inline;opacity:1;fill:#ffffff;fill-opacity:1;stroke:none;stroke-opacity:1;enable-background:new"
           inkscape:connector-curvature="0" />
        <path
           id="path4327"
           d="m 69,-366.99994 -0.0881,1.0536 a 3.142857,3.142857 0 0 0 -0.91861,0.53126 l -0.95758,-0.45096 -1,1.73219 0.86947,0.60374 a 3.142857,3.142857 0 0 0 -0.0481,0.53017 3.142857,3.142857 0 0 0 0.0458,0.53233 l -0.86718,0.60157 1,1.73219 0.95541,-0.44976 a 3.142857,3.142857 0 0 0 0.92068,0.52789 l 0.0882,1.05578 2,0 0.0881,-1.0536 a 3.142857,3.142857 0 0 0 0.9186,-0.53127 l 0.95758,0.45096 1,-1.73219 -0.86946,-0.60373 a 3.142857,3.142857 0 0 0 0.0481,-0.53017 3.142857,3.142857 0 0 0 -0.0458,-0.53234 l 0.86718,-0.60157 -1,-1.73219 -0.95539,0.44976 a 3.142857,3.142857 0 0 0 -0.92068,-0.52789 l -0.0882,-1.05577 -2,0 z m 1,2.66665 a 1.3333335,1.3333335 0 0 1 1.33333,1.33335 A 1.3333335,1.3333335 0 0 1 70,-361.6666 1.3333335,1.3333335 0 0 1 68.66667,-362.99994 1.3333335,1.3333335 0 0 1 70,-364.33329 Z"
           style="display:inline;opacity:1;fill:#ffffff;fill-opacity:1;stroke:none;stroke-opacity:1;enable-background:new"
           inkscape:connector-curvature="0" />
        <path
           inkscape:connector-curvature="0"
           style="display:inline;opacity:1;fill:#ffffff;fill-opacity:1;stroke:none;stroke-opacity:1;enable-background:new"
           d="m 118.75001,-369.99994 -0.11013,1.317 a 3.9285714,3.9285714 0 0 0 -1.14827,0.66407 l -1.19697,-0.5637 -1.25,2.16525 1.08684,0.75467 a 3.9285714,3.9285714 0 0 0 -0.0601,0.66271 3.9285714,3.9285714 0 0 0 0.0572,0.66543 l -1.08398,0.75194 1.25,2.16525 1.19426,-0.5622 a 3.9285714,3.9285714 0 0 0 1.15085,0.65986 l 0.11027,1.31972 2.5,0 0.11014,-1.317 a 3.9285714,3.9285714 0 0 0 1.14825,-0.66407 l 1.19698,0.56369 1.25,-2.16525 -1.08683,-0.75466 a 3.9285714,3.9285714 0 0 0 0.0601,-0.66271 3.9285714,3.9285714 0 0 0 -0.0572,-0.66543 l 1.08398,-0.75195 -1.25,-2.16525 -1.19424,0.5622 a 3.9285714,3.9285714 0 0 0 -1.15086,-0.65985 l -0.11021,-1.31972 -2.5,0 z m 1.25,3.33333 a 1.6666667,1.6666667 0 0 1 1.66667,1.66667 1.6666667,1.6666667 0 0 1 -1.66667,1.66667 1.6666667,1.6666667 0 0 1 -1.66666,-1.66667 1.6666667,1.6666667 0 0 1 1.66666,-1.66667 z"
           id="path4325" />
        <circle
           cy="-360.49994"
           cx="27.5"
           style="display:inline;fill:#777777;fill-opacity:1;stroke:none;stroke-width:2;enable-background:new"
           id="circle4308-6"
           r="4.5" />
        <path
           inkscape:connector-curvature="0"
           style="display:inline;opacity:1;fill:#ffffff;fill-opacity:1;stroke:none;stroke-opacity:1;enable-background:new"
           d="m 566,-563.99994 -1.5859,18.96484 a 56.571429,56.571429 0 0 0 -16.5352,9.5625 l -17.2363,-8.11718 -18,31.17968 15.6504,10.86719 a 56.571429,56.571429 0 0 0 -0.8653,9.54297 56.571429,56.571429 0 0 0 0.8242,9.58203 l -15.6093,10.82813 18,31.17968 17.1972,-8.0957 a 56.571429,56.571429 0 0 0 16.5723,9.50195 l 1.5879,19.00391 36,0 1.5859,-18.96484 a 56.571429,56.571429 0 0 0 16.5352,-9.5625 l 17.2363,8.11718 18,-31.17968 -15.6504,-10.86719 a 56.571429,56.571429 0 0 0 0.8653,-9.54297 56.571429,56.571429 0 0 0 -0.8242,-9.58203 l 15.6093,-10.82813 -18,-31.17968 -17.1972,8.0957 a 56.571429,56.571429 0 0 0 -16.5723,-9.50195 L 602,-563.99994 l -36,0 z m 18,48 a 24,24 0 0 1 24,24 24,24 0 0 1 -24,24 24,24 0 0 1 -24,-24 24,24 0 0 1 24,-24 z"
           id="path10500" />
        <path
           inkscape:connector-curvature="0"
           style="display:inline;opacity:1;fill:#ffffff;fill-opacity:1;stroke:none;stroke-opacity:1;enable-background:new"
           d="m 26.875,-362.99994 -0.0551,0.6585 a 1.9642856,1.9642856 0 0 0 -0.57413,0.33204 l -0.59849,-0.28185 -0.625,1.08262 0.54342,0.37733 a 1.9642856,1.9642856 0 0 0 -0.0301,0.33136 1.9642856,1.9642856 0 0 0 0.0286,0.33271 l -0.54199,0.37598 0.625,1.08262 0.59714,-0.2811 a 1.9642856,1.9642856 0 0 0 0.57542,0.32993 l 0.0551,0.65986 1.25,0 0.0551,-0.6585 a 1.9642856,1.9642856 0 0 0 0.57412,-0.33204 l 0.59849,0.28185 0.625,-1.08262 -0.54341,-0.37733 a 1.9642856,1.9642856 0 0 0 0.0301,-0.33136 1.9642856,1.9642856 0 0 0 -0.0286,-0.33271 l 0.54199,-0.37598 -0.625,-1.08262 -0.59712,0.2811 a 1.9642856,1.9642856 0 0 0 -0.57543,-0.32993 l -0.0551,-0.65986 -1.25,0 z m 0.625,1.66666 a 0.83333343,0.83333343 0 0 1 0.83333,0.83334 0.83333343,0.83333343 0 0 1 -0.83333,0.83334 0.83333343,0.83333343 0 0 1 -0.83333,-0.83334 0.83333343,0.83333343 0 0 1 0.83333,-0.83334 z"
           id="path4329" />
      </g>
      <path
         id="path4437"
         transform="translate(0,-244)"
         d="M 312.57031 -276 L 312.57031 -271.98633 C 311.04115 -271.67149 309.646 -271.17651 308.38672 -270.50195 C 307.14988 -269.84975 306.09384 -269.06259 305.2168 -268.14062 C 304.3398 -267.21863 303.6656 -266.18395 303.19336 -265.03711 C 302.721 -263.89019 302.48438 -262.68701 302.48438 -261.42773 C 302.48437 -260.10093 302.72112 -258.87436 303.19336 -257.75 C 303.6656 -256.64808 304.3398 -255.63684 305.2168 -254.71484 C 306.11632 -253.81532 307.20644 -252.99403 308.48828 -252.25195 C 309.79252 -251.50987 311.26465 -250.83568 312.90625 -250.22852 L 312.90625 -237.88281 C 311.73689 -238.13017 310.71489 -238.54618 309.83789 -239.13086 C 308.98333 -239.71554 308.1728 -240.42382 307.4082 -241.25586 L 305.45312 -243.68555 L 301.23633 -237.74805 C 302.76549 -236.06149 304.5084 -234.68973 306.46484 -233.63281 C 308.42128 -232.57589 310.45647 -231.86781 312.57031 -231.50781 L 312.57031 -228 L 319.48438 -228 L 319.48438 -231.71094 C 321.17093 -232.04826 322.67711 -232.59868 324.00391 -233.36328 C 325.33067 -234.12784 326.45495 -235.03878 327.37695 -236.0957 C 328.32143 -237.15262 329.04235 -238.32172 329.53711 -239.60352 C 330.03199 -240.9078 330.27926 -242.26883 330.2793 -243.68555 C 330.27926 -245.19223 330.04251 -246.52986 329.57031 -247.69922 C 329.09803 -248.89106 328.38975 -249.95978 327.44531 -250.9043 C 326.52327 -251.84874 325.3649 -252.68075 323.9707 -253.40039 C 322.57646 -254.11999 320.96796 -254.77075 319.14648 -255.35547 L 319.14648 -265.50977 C 320.001 -265.30733 320.80085 -264.95757 321.54297 -264.46289 C 322.30753 -263.96813 322.91348 -263.46251 323.36328 -262.94531 C 323.92836 -262.23099 325.15234 -260.68555 325.15234 -260.68555 L 329.23242 -265.8457 C 327.90562 -267.4423 326.42281 -268.78189 324.78125 -269.86133 C 323.16213 -270.96321 321.39578 -271.70549 319.48438 -272.08789 L 319.48438 -276 L 312.57031 -276 z M 312.90625 -265.57617 L 312.90625 -257.85156 C 311.73689 -258.25632 310.91755 -258.84087 310.44531 -259.60547 C 309.97295 -260.37003 309.73633 -261.11239 309.73633 -261.83203 C 309.73633 -262.82147 310.02856 -263.63204 310.61328 -264.26172 C 311.19792 -264.89136 311.96177 -265.32897 312.90625 -265.57617 z M 319.14844 -248.03711 C 320.54264 -247.54239 321.56464 -246.8896 322.2168 -246.08008 C 322.89156 -245.27048 323.22848 -244.32549 323.22852 -243.24609 C 323.22848 -241.94181 322.84659 -240.89646 322.08203 -240.10938 C 321.33991 -239.32229 320.36276 -238.71435 319.14844 -238.28711 L 319.14844 -248.03711 z M 344 -232 L 344 -224 L 376 -224 L 376 -232 L 344 -232 z "
         style="color:#bebebe;display:inline;overflow:visible;visibility:visible;opacity:1;fill:#f4f4f4;fill-opacity:1;fill-rule:nonzero;stroke:none;stroke-width:2;marker:none;enable-background:accumulate" />
    </g>
  </g>
</svg>
