<?xml version="1.0" encoding="UTF-8" standalone="no"?>
<!-- Created with Inkscape (http://www.inkscape.org/) -->

<svg
   xmlns:dc="http://purl.org/dc/elements/1.1/"
   xmlns:cc="http://creativecommons.org/ns#"
   xmlns:rdf="http://www.w3.org/1999/02/22-rdf-syntax-ns#"
   xmlns:svg="http://www.w3.org/2000/svg"
   xmlns="http://www.w3.org/2000/svg"
   xmlns:sodipodi="http://sodipodi.sourceforge.net/DTD/sodipodi-0.dtd"
   xmlns:inkscape="http://www.inkscape.org/namespaces/inkscape"
   inkscape:export-ydpi="90.000000"
   inkscape:export-xdpi="90.000000"
   width="736"
   height="544"
   id="svg11300"
   sodipodi:version="0.32"
   inkscape:version="0.91 r13725"
   sodipodi:docname="python.svg"
   inkscape:output_extension="org.inkscape.output.svg.inkscape"
   version="1.0"
   style="display:inline;enable-background:new"
   inkscape:export-filename="/home/sam/paper-template.png">
  <sodipodi:namedview
     stroke="#646464"
     fill="#909090"
     id="base"
     pagecolor="#565656"
     bordercolor="#666666"
     borderopacity="0.25490196"
     inkscape:pageopacity="0"
     inkscape:pageshadow="2"
     inkscape:zoom="1"
     inkscape:cx="85.634679"
     inkscape:cy="28.049555"
     inkscape:current-layer="g4237"
     showgrid="false"
     inkscape:grid-bbox="true"
     inkscape:document-units="px"
     inkscape:showpageshadow="false"
     inkscape:window-width="1316"
     inkscape:window-height="698"
     inkscape:window-x="25"
     inkscape:window-y="45"
     width="400px"
     height="300px"
     inkscape:snap-nodes="true"
     inkscape:snap-bbox="true"
     gridtolerance="10000"
     inkscape:object-nodes="true"
     inkscape:snap-grids="true"
     showguides="true"
     inkscape:guide-bbox="true"
     inkscape:window-maximized="0"
     inkscape:bbox-paths="true"
     inkscape:snap-bbox-midpoints="true"
     inkscape:snap-global="true"
     inkscape:object-paths="true"
     inkscape:snap-intersection-paths="true"
     inkscape:snap-smooth-nodes="true">
    <inkscape:grid
       snapvisiblegridlinesonly="true"
       empspacing="4"
       visible="true"
       enabled="true"
       type="xygrid"
       id="grid5883"
       spacingx="1px"
       spacingy="1px" />
    <inkscape:grid
       snapvisiblegridlinesonly="true"
       empopacity="0.25098039"
       empcolor="#ff0000"
       opacity="0.1254902"
       color="#ff0000"
       spacingy="0.5px"
       spacingx="0.5px"
       enabled="false"
       visible="true"
       empspacing="2"
       id="grid11592"
       type="xygrid" />
  </sodipodi:namedview>
  <title
     id="title3004">Paper Icon Theme Template</title>
  <defs
     id="defs3">
    <clipPath
       id="clipPath4113"
       clipPathUnits="userSpaceOnUse">
      <path
         style="color:#000000;display:inline;overflow:visible;visibility:visible;opacity:0.5;fill:#000000;fill-opacity:1;fill-rule:nonzero;stroke:none;stroke-width:2;marker:none;enable-background:accumulate"
         d="m 327,240 c -3.878,0 -7,2.23 -7,5 l 0,3 -3,0 c -2.77,0 -5,3.122 -5,7 l 0,2 c 0,3.878 2.23,7 5,7 l 3,0 0,-4 c 0,-2.216 1.784,-4 4,-4 l 8,0 c 0,0 4,0 4,-4 l 0,-4 0,-3 c 0,-2.77 -3.122,-5 -7,-5 z"
         id="path4115"
         inkscape:connector-curvature="0"
         sodipodi:nodetypes="sscsssscsscccsss" />
    </clipPath>
    <clipPath
       id="clipPath4584"
       clipPathUnits="userSpaceOnUse">
      <path
         style="color:#000000;display:inline;overflow:visible;visibility:visible;opacity:0.5;fill:#000000;fill-opacity:1;fill-rule:nonzero;stroke:none;stroke-width:2;marker:none;enable-background:accumulate"
         d="m 327,240 c -3.878,0 -7,2.23 -7,5 l 0,3 -3,0 c -2.77,0 -5,3.122 -5,7 l 0,2 c 0,3.878 2.23,7 5,7 l 3,0 0,-4 c 0,-2.216 1.784,-4 4,-4 l 8,0 c 0,0 4,0 4,-4 l 0,-4 0,-3 c 0,-2.77 -3.122,-5 -7,-5 z"
         id="path4586"
         inkscape:connector-curvature="0"
         sodipodi:nodetypes="sscsssscsscccsss" />
    </clipPath>
    <clipPath
       id="clipPath4588"
       clipPathUnits="userSpaceOnUse">
      <path
         style="color:#000000;display:inline;overflow:visible;visibility:visible;opacity:0.5;fill:#000000;fill-opacity:1;fill-rule:nonzero;stroke:none;stroke-width:2;marker:none;enable-background:accumulate"
         d="m 327,240 c -3.878,0 -7,2.23 -7,5 l 0,3 -3,0 c -2.77,0 -5,3.122 -5,7 l 0,2 c 0,3.878 2.23,7 5,7 l 3,0 0,-4 c 0,-2.216 1.784,-4 4,-4 l 8,0 c 0,0 4,0 4,-4 l 0,-4 0,-3 c 0,-2.77 -3.122,-5 -7,-5 z"
         id="path4590"
         inkscape:connector-curvature="0"
         sodipodi:nodetypes="sscsssscsscccsss" />
    </clipPath>
    <clipPath
       id="clipPath4592"
       clipPathUnits="userSpaceOnUse">
      <path
         style="color:#000000;display:inline;overflow:visible;visibility:visible;opacity:0.5;fill:#000000;fill-opacity:1;fill-rule:nonzero;stroke:none;stroke-width:2;marker:none;enable-background:accumulate"
         d="m 327,240 c -3.878,0 -7,2.23 -7,5 l 0,3 -3,0 c -2.77,0 -5,3.122 -5,7 l 0,2 c 0,3.878 2.23,7 5,7 l 3,0 0,-4 c 0,-2.216 1.784,-4 4,-4 l 8,0 c 0,0 4,0 4,-4 l 0,-4 0,-3 c 0,-2.77 -3.122,-5 -7,-5 z"
         id="path4594"
         inkscape:connector-curvature="0"
         sodipodi:nodetypes="sscsssscsscccsss" />
    </clipPath>
    <filter
       height="1.048"
       y="-0.024"
       width="1.048"
       x="-0.024"
       id="filter4435"
       style="color-interpolation-filters:sRGB"
       inkscape:collect="always">
      <feGaussianBlur
         id="feGaussianBlur4437"
         stdDeviation="4.48"
         inkscape:collect="always" />
    </filter>
    <filter
       height="1.12"
       y="-0.06"
       width="1.12"
       x="-0.06"
       id="filter4483"
       style="color-interpolation-filters:sRGB"
       inkscape:collect="always">
      <feGaussianBlur
         id="feGaussianBlur4485"
         stdDeviation="8.4"
         inkscape:collect="always" />
    </filter>
    <clipPath
       id="clipPath4489"
       clipPathUnits="userSpaceOnUse">
      <path
         inkscape:connector-curvature="0"
         style="opacity:1;fill:#696969;fill-opacity:1;stroke:none;stroke-width:1;stroke-linecap:round;stroke-linejoin:round;stroke-miterlimit:4;stroke-dasharray:none;stroke-opacity:1"
         d="m 448,-196 c -53.184,0 -96,27.58862 -96,61.85742 L 352,-84 l -48,0 c -35.456,0 -64,35.68 -64,80 l 0,64 c 0,44.32 28.544,80 64,80 l 48,0 96,0 64,0 64,0 0,-61.85742 L 576,60 l 0,-64 0,-80 0,-50.14258 C 576,-168.41138 533.184,-196 480,-196 l -32,0 z"
         id="path4491" />
    </clipPath>
    <filter
       height="1.24"
       y="-0.12"
       width="1.24"
       x="-0.12"
       id="filter4541"
       style="color-interpolation-filters:sRGB"
       inkscape:collect="always">
      <feGaussianBlur
         id="feGaussianBlur4543"
         stdDeviation="2"
         inkscape:collect="always" />
    </filter>
    <filter
       height="1.24"
       y="-0.12"
       width="1.24"
       x="-0.12"
       id="filter4545"
       style="color-interpolation-filters:sRGB"
       inkscape:collect="always">
      <feGaussianBlur
         id="feGaussianBlur4547"
         stdDeviation="2"
         inkscape:collect="always" />
    </filter>
  </defs>
  <metadata
     id="metadata4">
    <rdf:RDF>
      <cc:Work
         rdf:about="">
        <dc:format>image/svg+xml</dc:format>
        <dc:type
           rdf:resource="http://purl.org/dc/dcmitype/StillImage" />
        <dc:creator>
          <cc:Agent>
            <dc:title>Sam Hewitt</dc:title>
          </cc:Agent>
        </dc:creator>
        <dc:source />
        <cc:license
           rdf:resource="http://creativecommons.org/licenses/by-sa/3.0/" />
        <dc:title>Paper Icon Theme Template</dc:title>
        <dc:subject>
          <rdf:Bag />
        </dc:subject>
        <dc:date />
        <dc:rights>
          <cc:Agent>
            <dc:title />
          </cc:Agent>
        </dc:rights>
        <dc:publisher>
          <cc:Agent>
            <dc:title />
          </cc:Agent>
        </dc:publisher>
        <dc:identifier />
        <dc:relation />
        <dc:language />
        <dc:coverage />
        <dc:description />
        <dc:contributor>
          <cc:Agent>
            <dc:title />
          </cc:Agent>
        </dc:contributor>
      </cc:Work>
      <cc:Work
         rdf:about="">
        <dc:format>image/svg+xml</dc:format>
        <dc:type
           rdf:resource="http://purl.org/dc/dcmitype/StillImage" />
      </cc:Work>
      <cc:License
         rdf:about="http://creativecommons.org/licenses/by-sa/3.0/">
        <cc:permits
           rdf:resource="http://creativecommons.org/ns#Reproduction" />
        <cc:permits
           rdf:resource="http://creativecommons.org/ns#Distribution" />
        <cc:requires
           rdf:resource="http://creativecommons.org/ns#Notice" />
        <cc:requires
           rdf:resource="http://creativecommons.org/ns#Attribution" />
        <cc:permits
           rdf:resource="http://creativecommons.org/ns#DerivativeWorks" />
        <cc:requires
           rdf:resource="http://creativecommons.org/ns#ShareAlike" />
      </cc:License>
    </rdf:RDF>
  </metadata>
  <g
     transform="translate(0,244)"
     id="layer1"
     inkscape:label="Icon"
     inkscape:groupmode="layer"
     style="display:inline">
    <g
       inkscape:groupmode="layer"
       id="layer7"
       inkscape:label="Baseplate (python)"
       style="display:none">
      <text
         id="context"
         inkscape:label="context"
         style="font-style:normal;font-variant:normal;font-weight:normal;font-stretch:normal;font-size:18px;font-family:'DejaVu Sans';-inkscape-font-specification:'DejaVu Sans';display:inline;fill:#000000;fill-opacity:1;stroke:none;enable-background:new"
         x="15.006836"
         xml:space="preserve"
         y="337.74512"><tspan
           id="tspan3933"
           sodipodi:role="line"
           x="15.006836"
           y="337.74512"
           style="font-style:normal;font-variant:normal;font-weight:normal;font-stretch:normal;font-family:'DejaVu Sans';-inkscape-font-specification:'DejaVu Sans'">apps</tspan></text>
      <text
         id="icon-name"
         inkscape:label="icon-name"
         sodipodi:linespacing="125%"
         style="font-style:normal;font-variant:normal;font-weight:bold;font-stretch:normal;font-size:18px;line-height:125%;font-family:'DejaVu Sans';-inkscape-font-specification:'DejaVu Sans Bold';text-align:start;writing-mode:lr-tb;text-anchor:start;display:inline;fill:#000000;fill-opacity:1;stroke:none;enable-background:new"
         x="142.48828"
         xml:space="preserve"
         y="337.74512"><tspan
           id="tspan4217"
           sodipodi:role="line"
           x="142.48828"
           y="337.74512"
           style="font-style:normal;font-variant:normal;font-weight:bold;font-stretch:normal;font-size:18px;font-family:'DejaVu Sans';-inkscape-font-specification:'DejaVu Sans Bold'">python</tspan></text>
      <rect
         transform="scale(-1,1)"
         inkscape:label="16x16"
         y="268"
         x="-32"
         height="16"
         width="16"
         id="rect16x16"
         style="display:inline;overflow:visible;visibility:visible;fill:#e9e9e9;fill-opacity:1;fill-rule:nonzero;stroke:none;stroke-width:2;marker:none;enable-background:accumulate" />
      <rect
         transform="scale(-1,1)"
         inkscape:label="24x24"
         y="260"
         x="-76"
         height="24"
         width="24"
         id="rect24x24"
         style="display:inline;overflow:visible;visibility:visible;fill:#e9e9e9;fill-opacity:1;fill-rule:nonzero;stroke:none;stroke-width:2;marker:none;enable-background:accumulate" />
      <rect
         transform="scale(-1,1)"
         inkscape:label="32x32"
         y="252"
         x="-128"
         height="32"
         width="32"
         id="rect32x32"
         style="display:inline;overflow:visible;visibility:visible;fill:#e9e9e9;fill-opacity:1;fill-rule:nonzero;stroke:none;stroke-width:2;marker:none;enable-background:accumulate" />
      <rect
         transform="scale(-1,1)"
         style="display:inline;overflow:visible;visibility:visible;fill:#e9e9e9;fill-opacity:1;fill-rule:nonzero;stroke:none;stroke-width:2;marker:none;enable-background:accumulate"
         id="rect48x48"
         width="48"
         height="48"
         x="-192"
         y="236"
         inkscape:label="48x48" />
      <rect
         transform="scale(-1,1)"
         inkscape:label="48x48"
         y="-228"
         x="-720"
         height="512"
         width="512"
         id="rect3951"
         style="display:inline;overflow:visible;visibility:visible;fill:#e9e9e9;fill-opacity:1;fill-rule:nonzero;stroke:none;stroke-width:2;marker:none;enable-background:accumulate" />
    </g>
    <g
       style="display:none"
       inkscape:label="Baseplate (applications-python)"
       id="g8512"
       inkscape:groupmode="layer">
      <text
         y="337.74512"
         xml:space="preserve"
         x="15.006836"
         style="font-style:normal;font-variant:normal;font-weight:normal;font-stretch:normal;font-size:18px;font-family:'DejaVu Sans';-inkscape-font-specification:'DejaVu Sans';display:inline;fill:#000000;fill-opacity:1;stroke:none;enable-background:new"
         inkscape:label="context"
         id="text8514"><tspan
           style="font-style:normal;font-variant:normal;font-weight:normal;font-stretch:normal;font-family:'DejaVu Sans';-inkscape-font-specification:'DejaVu Sans'"
           y="337.74512"
           x="15.006836"
           sodipodi:role="line"
           id="tspan8516">categories</tspan></text>
      <text
         y="337.74512"
         xml:space="preserve"
         x="142.48828"
         style="font-style:normal;font-variant:normal;font-weight:bold;font-stretch:normal;font-size:18px;line-height:125%;font-family:'DejaVu Sans';-inkscape-font-specification:'DejaVu Sans Bold';text-align:start;writing-mode:lr-tb;text-anchor:start;display:inline;fill:#000000;fill-opacity:1;stroke:none;enable-background:new"
         sodipodi:linespacing="125%"
         inkscape:label="icon-name"
         id="text8518"><tspan
           style="font-style:normal;font-variant:normal;font-weight:bold;font-stretch:normal;font-size:18px;font-family:'DejaVu Sans';-inkscape-font-specification:'DejaVu Sans Bold'"
           y="337.74512"
           x="142.48828"
           sodipodi:role="line"
           id="tspan8520">applications-python</tspan></text>
      <rect
         style="display:inline;overflow:visible;visibility:visible;fill:#e9e9e9;fill-opacity:1;fill-rule:nonzero;stroke:none;stroke-width:2;marker:none;enable-background:accumulate"
         id="rect8522"
         width="16"
         height="16"
         x="-32"
         y="268"
         inkscape:label="16x16"
         transform="scale(-1,1)" />
      <rect
         style="display:inline;overflow:visible;visibility:visible;fill:#e9e9e9;fill-opacity:1;fill-rule:nonzero;stroke:none;stroke-width:2;marker:none;enable-background:accumulate"
         id="rect8524"
         width="24"
         height="24"
         x="-76"
         y="260"
         inkscape:label="24x24"
         transform="scale(-1,1)" />
      <rect
         style="display:inline;overflow:visible;visibility:visible;fill:#e9e9e9;fill-opacity:1;fill-rule:nonzero;stroke:none;stroke-width:2;marker:none;enable-background:accumulate"
         id="rect8526"
         width="32"
         height="32"
         x="-128"
         y="252"
         inkscape:label="32x32"
         transform="scale(-1,1)" />
      <rect
         inkscape:label="48x48"
         y="236"
         x="-192"
         height="48"
         width="48"
         id="rect8528"
         style="display:inline;overflow:visible;visibility:visible;fill:#e9e9e9;fill-opacity:1;fill-rule:nonzero;stroke:none;stroke-width:2;marker:none;enable-background:accumulate"
         transform="scale(-1,1)" />
      <rect
         style="display:inline;overflow:visible;visibility:visible;fill:#e9e9e9;fill-opacity:1;fill-rule:nonzero;stroke:none;stroke-width:2;marker:none;enable-background:accumulate"
         id="rect8530"
         width="512"
         height="512"
         x="-720"
         y="-228"
         inkscape:label="48x48"
         transform="scale(-1,1)" />
    </g>
    <g
       inkscape:groupmode="layer"
       id="g4237"
       inkscape:label="Baseplate (application-x-python)"
       style="display:none">
      <text
         id="text4239"
         inkscape:label="context"
         style="font-style:normal;font-variant:normal;font-weight:normal;font-stretch:normal;font-size:18px;font-family:'DejaVu Sans';-inkscape-font-specification:'DejaVu Sans';display:inline;fill:#000000;fill-opacity:1;stroke:none;enable-background:new"
         x="15.006836"
         xml:space="preserve"
         y="337.74512"><tspan
           id="tspan4241"
           sodipodi:role="line"
           x="15.006836"
           y="337.74512"
           style="font-style:normal;font-variant:normal;font-weight:normal;font-stretch:normal;font-family:'DejaVu Sans';-inkscape-font-specification:'DejaVu Sans'">mimetypes</tspan></text>
      <text
         id="text4243"
         inkscape:label="icon-name"
         sodipodi:linespacing="125%"
         style="font-style:normal;font-variant:normal;font-weight:bold;font-stretch:normal;font-size:18px;line-height:125%;font-family:'DejaVu Sans';-inkscape-font-specification:'DejaVu Sans Bold';text-align:start;writing-mode:lr-tb;text-anchor:start;display:inline;fill:#000000;fill-opacity:1;stroke:none;enable-background:new"
         x="142.48828"
         xml:space="preserve"
         y="337.74512"><tspan
           id="tspan4245"
           sodipodi:role="line"
           x="142.48828"
           y="337.74512"
           style="font-style:normal;font-variant:normal;font-weight:bold;font-stretch:normal;font-size:18px;font-family:'DejaVu Sans';-inkscape-font-specification:'DejaVu Sans Bold'">application-x-python</tspan></text>
      <rect
         transform="scale(-1,1)"
         inkscape:label="16x16"
         y="268"
         x="-32"
         height="16"
         width="16"
         id="rect4247"
         style="display:inline;overflow:visible;visibility:visible;fill:#e9e9e9;fill-opacity:1;fill-rule:nonzero;stroke:none;stroke-width:2;marker:none;enable-background:accumulate" />
      <rect
         transform="scale(-1,1)"
         inkscape:label="24x24"
         y="260"
         x="-76"
         height="24"
         width="24"
         id="rect4249"
         style="display:inline;overflow:visible;visibility:visible;fill:#e9e9e9;fill-opacity:1;fill-rule:nonzero;stroke:none;stroke-width:2;marker:none;enable-background:accumulate" />
      <rect
         transform="scale(-1,1)"
         inkscape:label="32x32"
         y="252"
         x="-128"
         height="32"
         width="32"
         id="rect4251"
         style="display:inline;overflow:visible;visibility:visible;fill:#e9e9e9;fill-opacity:1;fill-rule:nonzero;stroke:none;stroke-width:2;marker:none;enable-background:accumulate" />
      <rect
         transform="scale(-1,1)"
         style="display:inline;overflow:visible;visibility:visible;fill:#e9e9e9;fill-opacity:1;fill-rule:nonzero;stroke:none;stroke-width:2;marker:none;enable-background:accumulate"
         id="rect4253"
         width="48"
         height="48"
         x="-192"
         y="236"
         inkscape:label="48x48" />
      <rect
         transform="scale(-1,1)"
         inkscape:label="48x48"
         y="-228"
         x="-720"
         height="512"
         width="512"
         id="rect4255"
         style="display:inline;overflow:visible;visibility:visible;fill:#e9e9e9;fill-opacity:1;fill-rule:nonzero;stroke:none;stroke-width:2;marker:none;enable-background:accumulate" />
    </g>
    <g
       style="display:inline"
       inkscape:label="Symbols"
       id="layer6"
       inkscape:groupmode="layer">
      <path
         style="opacity:0.1;fill:#000000;fill-opacity:1;stroke:#000000;stroke-width:8;stroke-linecap:round;stroke-linejoin:round;stroke-miterlimit:4;stroke-dasharray:none;stroke-opacity:1;filter:url(#filter4435)"
         d="m 448,-192 c -53.184,0 -96,27.58862 -96,61.85742 L 352,-80 l -48,0 c -35.456,0 -64,35.68 -64,80 l 0,64 c 0,44.32 28.544,80 64,80 l 48,0 0,50.14258 C 352,228.41138 394.816,256 448,256 l 32,0 c 53.184,0 96,-27.58862 96,-61.85742 L 576,144 l 48,0 c 35.456,0 64,-35.68 64,-80 l 0,-64 c 0,-44.32 -28.544,-80 -64,-80 l -48,0 0,-50.14258 C 576,-164.41138 533.184,-192 480,-192 l -32,0 z"
         id="path4439"
         inkscape:connector-curvature="0" />
      <path
         inkscape:connector-curvature="0"
         id="path4342"
         d="M 62.775391,262.0332 C 60.093301,262.0332 58,263.57445 58,265.49023 L 58,267 l -1.574219,0 c -1.915779,0 -3.496044,2.15996 -3.458984,4.8418 L 53,274.22461 C 53.03706,276.90645 54.574455,279 56.490234,279 L 58,279 l 0,1.50977 c 0,1.91578 2.093301,3.45703 4.775391,3.45703 l 2.382812,0 C 67.840293,283.9668 70,282.42555 70,280.50977 L 70,279 l 1.509766,0 c 1.915778,0 3.419971,-2.15996 3.457031,-4.8418 L 75,271.77539 C 75.03706,269.09355 73.359137,267 71.443359,267 L 70,267 l 0,-1.50977 c 0,-1.91578 -2.159707,-3.45703 -4.841797,-3.45703 l -2.382812,0 z"
         style="color:#000000;display:inline;overflow:visible;visibility:visible;fill:#000000;fill-opacity:1;fill-rule:nonzero;stroke:none;stroke-width:2;marker:none;enable-background:accumulate;opacity:0.2" />
      <path
         inkscape:connector-curvature="0"
         id="path4245"
         d="M 109.66602,255 C 107.08068,255 105,256.784 105,259 l 0,3 -3,0 c -2.216,0 -4,2.08068 -4,4.66602 l 0,4.66796 C 98,273.91932 99.784,276 102,276 l 3,0 0,3 c 0,2.216 2.08068,4 4.66602,4 l 4.66796,0 C 116.91932,283 119,281.216 119,279 l 0,-3 3,0 c 2.216,0 4,-2.08068 4,-4.66602 l 0,-4.66796 C 126,264.08068 124.216,262 122,262 l -3,0 0,-3 c 0,-2.216 -2.08068,-4 -4.66602,-4 l -4.66796,0 z"
         style="opacity:0.2;fill:#000000;fill-opacity:1;stroke:none;stroke-width:2;stroke-linecap:round;stroke-linejoin:round;stroke-miterlimit:4;stroke-dasharray:none;stroke-opacity:1" />
      <path
         inkscape:connector-curvature="0"
         id="path4430"
         d="m 448,-192 c -53.184,0 -96,27.58862 -96,61.85742 L 352,-80 l -48,0 c -35.456,0 -64,35.68 -64,80 l 0,64 c 0,44.32 28.544,80 64,80 l 48,0 0,50.14258 C 352,228.41138 394.816,256 448,256 l 32,0 c 53.184,0 96,-27.58862 96,-61.85742 L 576,144 l 48,0 c 35.456,0 64,-35.68 64,-80 l 0,-64 c 0,-44.32 -28.544,-80 -64,-80 l -48,0 0,-50.14258 C 576,-164.41138 533.184,-192 480,-192 l -32,0 z"
         style="opacity:0.2;fill:#000000;fill-opacity:1;stroke:none;stroke-width:1;stroke-linecap:round;stroke-linejoin:round;stroke-miterlimit:4;stroke-dasharray:none;stroke-opacity:1;filter:url(#filter4435)" />
      <path
         transform="translate(0,-244)"
         id="rect4419"
         d="M 448 48 C 394.816 48 352 75.588621 352 109.85742 L 352 160 L 304 160 C 268.544 160 240 195.68 240 240 L 240 304 C 240 348.32 268.544 384 304 384 L 352 384 L 448 384 L 512 384 L 576 384 L 576 322.14258 L 576 304 L 576 240 L 576 160 L 576 109.85742 C 576 75.588621 533.184 48 480 48 L 448 48 z "
         style="opacity:1;fill:#696969;fill-opacity:1;stroke:none;stroke-width:1;stroke-linecap:round;stroke-linejoin:round;stroke-miterlimit:4;stroke-dasharray:none;stroke-opacity:1" />
      <path
         clip-path="url(#clipPath4489)"
         id="path4481"
         d="m 480,252 c 53.184,0 96,-27.58862 96,-61.85742 L 576,140 l 48,0 c 35.456,0 64,-35.68 64,-80 l 0,-64 c 0,-44.32 -28.544,-80 -64,-80 l -48,0 0,48 c 0,64 -64,64 -64,64 l -96,0 c -64,0 -64,64 -64,64 l 0,98.14258 C 352,224.41138 394.816,252 448,252 Z"
         style="opacity:0.2;fill:#000000;fill-opacity:1;stroke:none;stroke-width:1;stroke-linecap:round;stroke-linejoin:round;stroke-miterlimit:4;stroke-dasharray:none;stroke-opacity:1;filter:url(#filter4483)"
         inkscape:connector-curvature="0"
         sodipodi:nodetypes="sscsssscccccsss" />
      <path
         sodipodi:nodetypes="sscsssscccccsss"
         inkscape:connector-curvature="0"
         style="opacity:1;fill:#d0d0d0;fill-opacity:1;stroke:none;stroke-width:1;stroke-linecap:round;stroke-linejoin:round;stroke-miterlimit:4;stroke-dasharray:none;stroke-opacity:1"
         d="m 480,252 c 53.184,0 96,-27.58862 96,-61.85742 L 576,140 l 48,0 c 35.456,0 64,-35.68 64,-80 l 0,-64 c 0,-44.32 -28.544,-80 -64,-80 l -48,0 0,48 c 0,64 -64,64 -64,64 l -96,0 c -64,0 -64,64 -64,64 l 0,98.14258 C 352,224.41138 394.816,252 448,252 Z"
         id="path4428" />
      <path
         inkscape:connector-curvature="0"
         id="path4244"
         d="m 166.625,240.125 c -5.33225,0 -9.625,3.06625 -9.625,6.875 l 0,3 -3,0 c -3.80875,0 -6.875,4.29275 -6.875,9.625 l 0,2.75 c 0,5.33225 3.06625,9.625 6.875,9.625 l 3,0 0,3 c 0,3.80875 4.29275,6.875 9.625,6.875 l 2.75,0 c 5.33225,0 9.625,-3.06625 9.625,-6.875 l 0,-3 3,0 c 3.80875,0 6.875,-4.29275 6.875,-9.625 l 0,-2.75 C 188.875,254.29275 185.80875,250 182,250 l -3,0 0,-3 c 0,-3.80875 -4.29275,-6.875 -9.625,-6.875 l -2.75,0 z"
         style="color:#000000;display:inline;overflow:visible;visibility:visible;opacity:0.2;fill:#000000;fill-opacity:1;fill-rule:nonzero;stroke:none;stroke-width:2;marker:none;enable-background:accumulate" />
      <g
         id="g4309">
        <path
           style="color:#000000;display:inline;overflow:visible;visibility:visible;fill:#696969;fill-opacity:1;fill-rule:nonzero;stroke:none;stroke-width:2;marker:none;enable-background:accumulate"
           d="m 166.625,239.125 c -5.33225,0 -9.625,3.06625 -9.625,6.875 l 0,3 -3,0 c -3.80875,0 -6.875,4.29275 -6.875,9.625 l 0,2.75 c 0,5.33225 3.06625,9.625 6.875,9.625 l 3,0 22,0 0,-22 0,-3 c 0,-3.80875 -4.29275,-6.875 -9.625,-6.875 z"
           id="path4268-7"
           inkscape:connector-curvature="0"
           sodipodi:nodetypes="sscsssscccsss" />
        <path
           sodipodi:nodetypes="sscsssscsscccsss"
           inkscape:connector-curvature="0"
           id="path4270-0"
           d="m 169.375,280.875 c 5.33225,0 9.625,-3.06625 9.625,-6.875 l 0,-3 3,0 c 3.80875,0 6.875,-4.29275 6.875,-9.625 l 0,-2.75 C 188.875,253.29275 185.80875,249 182,249 l -3,0 0,5.5 c 0,3.047 -2.453,5.5 -5.5,5.5 l -11,0 c 0,0 -5.5,0 -5.5,5.5 l 0,5.5 0,3 c 0,3.80875 4.29275,6.875 9.625,6.875 z"
           style="color:#000000;display:inline;overflow:visible;visibility:visible;fill:#d0d0d0;fill-opacity:1;fill-rule:nonzero;stroke:none;stroke-width:2;marker:none;enable-background:accumulate"
           clip-path="none" />
      </g>
      <circle
         style="color:#000000;display:inline;overflow:visible;visibility:visible;opacity:0.2;fill:#000000;fill-opacity:1;stroke:none;stroke-width:1;marker:none;enable-background:accumulate"
         id="circle4253"
         cx="164"
         cy="246"
         r="2" />
      <circle
         r="2"
         cy="245"
         cx="164"
         id="path4280-9"
         style="color:#000000;display:inline;overflow:visible;visibility:visible;fill:#ffffff;fill-opacity:1;stroke:none;stroke-width:1;marker:none;enable-background:accumulate" />
      <circle
         id="circle4255"
         style="color:#000000;display:inline;overflow:visible;visibility:visible;opacity:0.2;fill:#000000;fill-opacity:1;stroke:none;stroke-width:1;marker:none;enable-background:accumulate"
         cx="172.0625"
         cy="276.9375"
         r="2.0625" />
      <circle
         r="2.0625"
         cy="275.9375"
         cx="172.0625"
         style="color:#000000;display:inline;overflow:visible;visibility:visible;fill:#ffffff;fill-opacity:1;stroke:none;stroke-width:1;marker:none;enable-background:accumulate"
         id="path4282" />
      <path
         id="path4232"
         d="m 179,249 0,1 3,0 c 3.80875,0 6.875,4.29275 6.875,9.625 l 0,-1 C 188.875,253.29275 185.80875,249 182,249 l -3,0 z m 0,5.5 c 0,3.047 -2.453,5.5 -5.5,5.5 l -11,0 c 0,0 -5.5,0 -5.5,5.5 l 0,1 c 0,-5.5 5.5,-5.5 5.5,-5.5 l 11,0 c 3.047,0 5.5,-2.453 5.5,-5.5 l 0,-1 z"
         clip-path="none"
         style="color:#000000;display:inline;overflow:visible;visibility:visible;opacity:0.2;fill:#ffffff;fill-opacity:1;fill-rule:nonzero;stroke:none;stroke-width:2;marker:none;enable-background:accumulate"
         inkscape:connector-curvature="0" />
      <path
         sodipodi:nodetypes="sscsscssssscsccs"
         id="path4237"
         d="m 166.625,239.125 c -5.33225,0 -9.625,3.06625 -9.625,6.875 l 0,1 c 0,-3.80875 4.29275,-6.875 9.625,-6.875 l 2.75,0 c 5.33225,0 9.625,3.06625 9.625,6.875 l 0,-1 c 0,-3.80875 -4.29275,-6.875 -9.625,-6.875 z M 154,249 c -3.80875,0 -6.875,4.29275 -6.875,9.625 l 0,1 c 0,-5.33225 3.06625,-9.625 6.875,-9.625 l 7,0 0,-1 z"
         style="color:#000000;display:inline;overflow:visible;visibility:visible;opacity:0.2;fill:#ffffff;fill-opacity:1;fill-rule:nonzero;stroke:none;stroke-width:2;marker:none;enable-background:accumulate"
         inkscape:connector-curvature="0" />
      <path
         id="path4249"
         d="m 157,248 0,1 4,0 0,-1 -4,0 z m 22,5.5 c 0,5.5 -5.5,5.5 -5.5,5.5 l -11,0 c -3.047,0 -5.5,2.453 -5.5,5.5 l 0,1 c 0,-3.047 2.453,-5.5 5.5,-5.5 l 11,0 c 0,0 5.5,0 5.5,-5.5 l 0,-1 z m -31.875,6.875 0,1 c 0,5.33225 3.06625,9.625 6.875,9.625 l 3,0 0,-1 -3,0 c -3.80875,0 -6.875,-4.29275 -6.875,-9.625 z"
         clip-path="none"
         style="color:#000000;display:inline;overflow:visible;visibility:visible;opacity:0.1;fill:#000000;fill-opacity:1;fill-rule:nonzero;stroke:none;stroke-width:2;marker:none;enable-background:accumulate"
         inkscape:connector-curvature="0" />
      <rect
         style="opacity:0.1;fill:#000000;fill-opacity:1;stroke:none;stroke-width:1;stroke-linecap:round;stroke-linejoin:round;stroke-miterlimit:4;stroke-dasharray:none;stroke-opacity:1"
         id="rect4355"
         width="4"
         height="1"
         x="175"
         y="271" />
      <rect
         y="272"
         x="175"
         height="1"
         width="4"
         id="rect4357"
         style="opacity:0.2;fill:#ffffff;fill-opacity:1;stroke:none;stroke-width:1;stroke-linecap:round;stroke-linejoin:round;stroke-miterlimit:4;stroke-dasharray:none;stroke-opacity:1" />
      <path
         id="path4453"
         transform="translate(0,-244)"
         d="M 576 160 L 576 162 L 624 162 C 659.456 162 688 197.68 688 242 L 688 240 C 688 195.68 659.456 160 624 160 L 576 160 z M 576 208 C 576 272 512 272 512 272 L 416 272 C 352 272 352 336 352 336 L 352 338 C 352 338 352 274 416 274 L 512 274 C 512 274 576 274 576 210 L 576 208 z "
         style="opacity:0.2;fill:#ffffff;fill-opacity:1;stroke:none;stroke-width:1;stroke-linecap:round;stroke-linejoin:round;stroke-miterlimit:4;stroke-dasharray:none;stroke-opacity:1" />
      <circle
         r="20"
         cy="-128"
         cx="416.00003"
         id="circle4533"
         style="color:#000000;display:inline;overflow:visible;visibility:visible;fill:#000000;fill-opacity:1;stroke:none;stroke-width:1;marker:none;enable-background:accumulate;opacity:0.2;filter:url(#filter4541)" />
      <path
         id="path4458"
         transform="translate(0,-244)"
         d="M 448 48 C 394.816 48 352 75.588623 352 109.85742 L 352 111.85742 C 352 77.588622 394.816 50 448 50 L 480 50 C 533.184 50 576 77.588622 576 111.85742 L 576 109.85742 C 576 75.588623 533.184 48 480 48 L 448 48 z M 304 160 C 268.544 160 240 195.68 240 240 L 240 242 C 240 197.68 268.544 162 304 162 L 352 162 L 352 160 L 304 160 z "
         style="opacity:0.2;fill:#ffffff;fill-opacity:1;stroke:none;stroke-width:1;stroke-linecap:round;stroke-linejoin:round;stroke-miterlimit:4;stroke-dasharray:none;stroke-opacity:1" />
      <circle
         style="color:#000000;display:inline;overflow:visible;visibility:visible;fill:#ffffff;fill-opacity:1;stroke:none;stroke-width:1;marker:none;enable-background:accumulate"
         id="circle4390"
         cx="416.00003"
         cy="-132"
         r="20" />
      <circle
         style="color:#000000;display:inline;overflow:visible;visibility:visible;fill:#000000;fill-opacity:1;stroke:none;stroke-width:1;marker:none;enable-background:accumulate;filter:url(#filter4545);opacity:0.2"
         id="circle4535"
         cx="-511.99997"
         cy="-192"
         r="20"
         transform="scale(-1,-1)" />
      <circle
         transform="scale(-1,-1)"
         r="20"
         cy="-188"
         cx="-511.99997"
         id="circle4475"
         style="color:#000000;display:inline;overflow:visible;visibility:visible;fill:#ffffff;fill-opacity:1;stroke:none;stroke-width:1;marker:none;enable-background:accumulate" />
      <rect
         y="-86"
         x="352"
         height="2"
         width="64"
         id="rect4493"
         style="opacity:0.1;fill:#000000;fill-opacity:1;stroke:none;stroke-width:8;stroke-linecap:round;stroke-linejoin:round;stroke-miterlimit:4;stroke-dasharray:none;stroke-opacity:1" />
      <rect
         style="opacity:0.2;fill:#ffffff;fill-opacity:1;stroke:none;stroke-width:8;stroke-linecap:round;stroke-linejoin:round;stroke-miterlimit:4;stroke-dasharray:none;stroke-opacity:1"
         id="rect4497"
         width="64"
         height="2"
         x="352"
         y="-84" />
      <rect
         style="opacity:0.1;fill:#000000;fill-opacity:1;stroke:none;stroke-width:8;stroke-linecap:round;stroke-linejoin:round;stroke-miterlimit:4;stroke-dasharray:none;stroke-opacity:1"
         id="rect4505"
         width="64"
         height="2"
         x="512"
         y="138" />
      <rect
         y="140"
         x="512"
         height="2"
         width="64"
         id="rect4507"
         style="opacity:0.2;fill:#ffffff;fill-opacity:1;stroke:none;stroke-width:8;stroke-linecap:round;stroke-linejoin:round;stroke-miterlimit:4;stroke-dasharray:none;stroke-opacity:1" />
      <path
         style="opacity:0.1;fill:#000000;fill-opacity:1;stroke:none;stroke-width:1;stroke-linecap:round;stroke-linejoin:round;stroke-miterlimit:4;stroke-dasharray:none;stroke-opacity:1"
         d="m 352,140 0,-2 -48,0 c -35.456,0 -64,-35.68 -64,-80 l 0,2 c 0,44.32 28.544,80 64,80 l 48,0 z m 0,-48 c 0,-64 64,-64 64,-64 l 96,0 c 64,0 64,-64 64,-64 l 0,-2 c 0,0 0,64 -64,64 l -96,0 c 0,0 -64,0 -64,64 l 0,2 z"
         id="path4517"
         inkscape:connector-curvature="0" />
      <path
         style="opacity:0.1;fill:#000000;fill-opacity:1;stroke:none;stroke-width:1;stroke-linecap:round;stroke-linejoin:round;stroke-miterlimit:4;stroke-dasharray:none;stroke-opacity:1"
         d="m 480,252 c 53.184,0 96,-27.58862 96,-61.85742 l 0,-2 C 576,222.41138 533.184,250 480,250 l -32,0 c -53.184,0 -96,-27.58862 -96,-61.85742 l 0,2 C 352,224.41138 394.816,252 448,252 l 32,0 z M 624,140 c 35.456,0 64,-35.68 64,-80 l 0,-2 c 0,44.32 -28.544,80 -64,80 l -48,0 0,2 48,0 z"
         id="path4519"
         inkscape:connector-curvature="0" />
      <path
         sodipodi:nodetypes="sscsssccsss"
         inkscape:connector-curvature="0"
         id="rect4216"
         d="M 109.66602,254 C 107.08068,254 105,255.784 105,258 l 0,3 -3,0 c -2.216,0 -4,2.08068 -4,4.66602 l 0,4.66796 C 98,272.91932 99.784,275 102,275 l 17,0 0,-17 c 0,-2.216 -2.08068,-4 -4.66602,-4 z"
         style="opacity:1;fill:#696969;fill-opacity:1;stroke:none;stroke-width:2;stroke-linecap:round;stroke-linejoin:round;stroke-miterlimit:4;stroke-dasharray:none;stroke-opacity:1" />
      <path
         style="opacity:1;fill:#d0d0d0;fill-opacity:1;stroke:none;stroke-width:2;stroke-linecap:round;stroke-linejoin:round;stroke-miterlimit:4;stroke-dasharray:none;stroke-opacity:1"
         d="M 114.33398,282 C 116.91932,282 119,280.216 119,278 l 0,-3 3,0 c 2.216,0 4,-2.08068 4,-4.66602 l 0,-4.66796 C 126,263.08068 124.216,261 122,261 l -3,0 0,3 c 0,0 0,4 -4,4 l -6,0 c -4,0 -4,4 -4,4 l 0,6 c 0,2.216 2.08068,4 4.66602,4 z"
         id="path4224"
         inkscape:connector-curvature="0"
         sodipodi:nodetypes="sscsssccccccsss" />
      <circle
         style="opacity:0.2;fill:#000000;fill-opacity:1;stroke:none;stroke-width:2;stroke-linecap:round;stroke-linejoin:round;stroke-miterlimit:4;stroke-dasharray:none;stroke-opacity:1"
         id="circle4241"
         cx="108.5"
         cy="258.5"
         r="1.5" />
      <circle
         r="1.5"
         cy="257.5"
         cx="108.5"
         id="path4226"
         style="opacity:1;fill:#ffffff;fill-opacity:1;stroke:none;stroke-width:2;stroke-linecap:round;stroke-linejoin:round;stroke-miterlimit:4;stroke-dasharray:none;stroke-opacity:1" />
      <circle
         r="1.5"
         cy="279.5"
         cx="115.5"
         id="circle4243"
         style="opacity:0.2;fill:#000000;fill-opacity:1;stroke:none;stroke-width:2;stroke-linecap:round;stroke-linejoin:round;stroke-miterlimit:4;stroke-dasharray:none;stroke-opacity:1" />
      <circle
         style="opacity:1;fill:#ffffff;fill-opacity:1;stroke:none;stroke-width:2;stroke-linecap:round;stroke-linejoin:round;stroke-miterlimit:4;stroke-dasharray:none;stroke-opacity:1"
         id="circle4228"
         cx="115.5"
         cy="278.5"
         r="1.5" />
      <path
         sodipodi:nodetypes="cssccsscc"
         inkscape:connector-curvature="0"
         id="path4250"
         transform="translate(0,-244)"
         d="m 119,507 c 0,0 0,4 -4,4 l -6,0 c -4,0 -4,4 -4,4 l 0,1 c 0,0 0,-4 4,-4 l 6,0 c 4,0 4,-4 4,-4 z"
         style="opacity:0.2;fill:#000000;fill-opacity:1;stroke:none;stroke-width:2;stroke-linecap:round;stroke-linejoin:round;stroke-miterlimit:4;stroke-dasharray:none;stroke-opacity:1" />
      <path
         id="path4230"
         transform="translate(0,-244)"
         d="M 119 505 L 119 506 L 122 506 C 124.216 506 126 508.08068 126 510.66602 L 126 509.66602 C 126 507.08068 124.216 505 122 505 L 119 505 z M 119 508 C 119 508 119 512 115 512 L 109 512 C 105 512 105 516 105 516 L 105 517 C 105 517 105 513 109 513 L 115 513 C 119 513 119 509 119 509 L 119 508 z "
         style="opacity:0.2;fill:#ffffff;fill-opacity:1;stroke:none;stroke-width:2;stroke-linecap:round;stroke-linejoin:round;stroke-miterlimit:4;stroke-dasharray:none;stroke-opacity:1" />
      <path
         id="path4236"
         transform="translate(0,-244)"
         d="M 109.66602 498 C 107.08068 498 105 499.784 105 502 L 105 503 C 105 500.784 107.08068 499 109.66602 499 L 114.33398 499 C 116.91932 499 119 500.784 119 503 L 119 502 C 119 499.784 116.91932 498 114.33398 498 L 109.66602 498 z M 102 505 C 99.784 505 98 507.08068 98 509.66602 L 98 510.66602 C 98 508.08068 99.784 506 102 506 L 105 506 L 105 505 L 102 505 z "
         style="opacity:0.1;fill:#ffffff;fill-opacity:1;stroke:none;stroke-width:2;stroke-linecap:round;stroke-linejoin:round;stroke-miterlimit:4;stroke-dasharray:none;stroke-opacity:1" />
      <path
         sodipodi:nodetypes="csccssc"
         inkscape:connector-curvature="0"
         id="path4255"
         d="M 98,269.33398 C 98,271.91932 99.784,274 102,274 l 3,0 0,1 -3,0 c -2.216,0 -4,-2.08068 -4,-4.66602 z"
         style="opacity:0.1;fill:#000000;fill-opacity:1;stroke:none;stroke-width:2;stroke-linecap:round;stroke-linejoin:round;stroke-miterlimit:4;stroke-dasharray:none;stroke-opacity:1" />
      <rect
         y="275"
         x="115"
         height="1"
         width="4"
         id="rect4260"
         style="opacity:0.1;fill:#000000;fill-opacity:1;stroke:none;stroke-width:2;stroke-linecap:round;stroke-linejoin:round;stroke-miterlimit:4;stroke-dasharray:none;stroke-opacity:1" />
      <rect
         style="opacity:0.1;fill:#000000;fill-opacity:1;stroke:none;stroke-width:2;stroke-linecap:round;stroke-linejoin:round;stroke-miterlimit:4;stroke-dasharray:none;stroke-opacity:1"
         id="rect4262"
         width="4"
         height="1"
         x="105"
         y="260" />
      <path
         style="opacity:1;fill:#696969;fill-opacity:1;stroke:none;stroke-width:2;stroke-linecap:round;stroke-linejoin:round;stroke-miterlimit:4;stroke-dasharray:none;stroke-opacity:1"
         d="M 22.33301,269 C 21.04034,269 20,269.892 20,271 l 0,1 -1,0 c -1.108,0 -2,1.04034 -2,2.33301 l 0,3.33398 C 17,278.95966 17.892,280 19,280 l 9,0 0,-9 c 0,-1.108 -1.04034,-2 -2.33301,-2 z"
         id="path4264"
         inkscape:connector-curvature="0"
         sodipodi:nodetypes="sscsssccsss" />
      <path
         id="path4292"
         transform="translate(0,-244)"
         d="M 17 520.66602 L 17 521.66602 C 17 522.95869 17.892 524 19 524 L 28 524 L 28 523 L 19 523 C 17.892 523 17 521.95869 17 520.66602 z "
         style="opacity:0.1;fill:#000000;fill-opacity:1;stroke:none;stroke-width:2;stroke-linecap:round;stroke-linejoin:round;stroke-miterlimit:4;stroke-dasharray:none;stroke-opacity:1" />
      <path
         sodipodi:nodetypes="sscsssccccccsss"
         inkscape:connector-curvature="0"
         id="path4274"
         d="M 25.66699,283 C 26.95966,283 28,282.108 28,281 l 0,-1 1,0 c 1.108,0 2,-1.04034 2,-2.33301 l 0,-3.33398 C 31,273.04034 30.108,272 29,272 l -1,0 0,2 c 0,2 -2,2 -2,2 l -4,0 c -2,0 -2,2 -2,2 l 0,3 c 0,1.108 1.04034,2 2.33301,2 z"
         style="opacity:1;fill:#d0d0d0;fill-opacity:1;stroke:none;stroke-width:2;stroke-linecap:round;stroke-linejoin:round;stroke-miterlimit:4;stroke-dasharray:none;stroke-opacity:1" />
      <circle
         r="0.5"
         cy="270.5"
         cx="21.5"
         id="path4279"
         style="opacity:1;fill:#ffffff;fill-opacity:1;stroke:none;stroke-width:2;stroke-linecap:round;stroke-linejoin:round;stroke-miterlimit:4;stroke-dasharray:none;stroke-opacity:1" />
      <circle
         style="opacity:1;fill:#ffffff;fill-opacity:1;stroke:none;stroke-width:2;stroke-linecap:round;stroke-linejoin:round;stroke-miterlimit:4;stroke-dasharray:none;stroke-opacity:1"
         id="circle4281"
         cx="26.5"
         cy="281.5"
         r="0.5" />
      <path
         sodipodi:nodetypes="ccsccscsc"
         inkscape:connector-curvature="0"
         id="path4283"
         d="m 28,273 c 0,2 -2,2 -2,2 l -4,0 c -2,0 -2,2 -2,2 l 0,1 c 0,0 0,-2 2,-2 l 4,0 c 0,0 2,0 2,-2 z"
         style="opacity:0.2;fill:#000000;fill-opacity:1;stroke:none;stroke-width:2;stroke-linecap:round;stroke-linejoin:round;stroke-miterlimit:4;stroke-dasharray:none;stroke-opacity:1" />
      <rect
         y="280"
         x="25"
         height="1"
         width="3"
         id="rect4290"
         style="opacity:0.2;fill:#000000;fill-opacity:1;stroke:none;stroke-width:2;stroke-linecap:round;stroke-linejoin:round;stroke-miterlimit:4;stroke-dasharray:none;stroke-opacity:1" />
      <path
         id="path4297"
         transform="translate(0,-244)"
         d="M 22.333984 513 C 21.041314 513 20 513.892 20 515 L 20 516 C 20 514.892 21.041314 514 22.333984 514 L 25.666016 514 C 26.958686 514 28 514.892 28 516 L 28 515 C 28 513.892 26.958686 513 25.666016 513 L 22.333984 513 z M 20 516 L 19 516 C 17.892 516 17 517.04131 17 518.33398 L 17 519.33398 C 17 518.04131 17.892 517 19 517 L 20 517 L 20 516 z "
         style="opacity:0.1;fill:#ffffff;fill-opacity:1;stroke:none;stroke-width:2;stroke-linecap:round;stroke-linejoin:round;stroke-miterlimit:4;stroke-dasharray:none;stroke-opacity:1" />
      <rect
         y="271"
         x="20"
         height="1"
         width="3"
         id="rect4288"
         style="opacity:0.2;fill:#000000;fill-opacity:1;stroke:none;stroke-width:2;stroke-linecap:round;stroke-linejoin:round;stroke-miterlimit:4;stroke-dasharray:none;stroke-opacity:1" />
      <path
         transform="translate(0,-244)"
         id="path4299"
         d="M 28 516 L 28 517 L 29 517 C 30.108 517 31 518.04131 31 519.33398 L 31 518.33398 C 31 517.04131 30.108 516 29 516 L 28 516 z M 28 518 C 28 520 26 520 26 520 L 22 520 C 20 520 20 522 20 522 L 20 523 C 20 523 20 521 22 521 L 26 521 C 26 521 28 521 28 519 L 28 518 z "
         style="opacity:0.1;fill:#ffffff;fill-opacity:1;stroke:none;stroke-width:2;stroke-linecap:round;stroke-linejoin:round;stroke-miterlimit:4;stroke-dasharray:none;stroke-opacity:1" />
      <path
         style="color:#000000;display:inline;overflow:visible;visibility:visible;fill:#696969;fill-opacity:1;fill-rule:nonzero;stroke:none;stroke-width:2;marker:none;enable-background:accumulate"
         d="M 62.775449,261.03293 C 60.093359,261.03293 58,262.57524 58,264.49102 L 58,266 l -1.575,0 c -1.915779,0 -3.494994,2.15948 -3.457934,4.84132 L 53,273.22455 C 53.03706,275.90639 54.575241,278 56.49102,278 l 1.508982,0 L 70,278 l 0,-12 0,-1.50898 c 0,-1.91578 -2.159228,-3.45809 -4.841318,-3.45809 z"
         id="path4315"
         inkscape:connector-curvature="0"
         sodipodi:nodetypes="sscsssscccsss" />
      <path
         id="path4337"
         transform="translate(0,-244)"
         d="M 52.978516 514.6582 C 52.977623 514.72051 52.965928 514.77889 52.966797 514.8418 L 53 517.22461 C 53.03706 519.90645 54.574455 522 56.490234 522 L 58 522 L 70 522 L 70 521 L 58 521 L 56.490234 521 C 54.574455 521 53.03706 518.90645 53 516.22461 L 52.978516 514.6582 z "
         style="color:#000000;display:inline;overflow:visible;visibility:visible;fill:#000000;fill-opacity:1;fill-rule:nonzero;stroke:none;stroke-width:2;marker:none;enable-background:accumulate;opacity:0.2" />
      <path
         sodipodi:nodetypes="sscssssccscccsss"
         inkscape:connector-curvature="0"
         id="path4317"
         d="m 65.158682,282.96706 c 2.68209,0 4.841318,-1.5423 4.841318,-3.45808 L 70,278 l 1.508982,0 c 1.915778,0 3.421024,-2.15948 3.458084,-4.84132 L 75,270.77545 C 75.03706,268.09361 73.35889,266 71.443112,266 L 70,266 l 0,3 c 0,0 0.03275,3 -3,3 l -6,0 c 0,0 -3,0 -3,3 l 0,3 0,1.50898 c 0,1.91578 2.093357,3.45808 4.775447,3.45808 z"
         style="color:#000000;display:inline;overflow:visible;visibility:visible;fill:#d0d0d0;fill-opacity:1;fill-rule:nonzero;stroke:none;stroke-width:2;marker:none;enable-background:accumulate"
         clip-path="none" />
      <circle
         style="opacity:1;fill:#ffffff;fill-opacity:1;stroke:none;stroke-width:2;stroke-linecap:round;stroke-linejoin:round;stroke-miterlimit:4;stroke-dasharray:none;stroke-opacity:1"
         id="circle4321"
         cx="61"
         cy="264"
         r="1" />
      <circle
         r="1"
         cy="280"
         cx="67"
         id="circle4323"
         style="opacity:1;fill:#ffffff;fill-opacity:1;stroke:none;stroke-width:2;stroke-linecap:round;stroke-linejoin:round;stroke-miterlimit:4;stroke-dasharray:none;stroke-opacity:1" />
      <path
         id="path4325"
         transform="translate(0,-244)"
         d="M 62.775391 505.0332 C 60.093301 505.0332 58 506.57445 58 508.49023 L 58 509.49023 C 58 507.57445 60.093301 506.0332 62.775391 506.0332 L 65.158203 506.0332 C 67.840293 506.0332 70 507.57445 70 509.49023 L 70 508.49023 C 70 506.57445 67.840293 505.0332 65.158203 505.0332 L 62.775391 505.0332 z M 56.425781 510 C 54.510002 510 52.929737 512.15996 52.966797 514.8418 L 52.978516 515.6582 C 53.015681 513.06408 54.554939 511 56.425781 511 L 58 511 L 58 510 L 56.425781 510 z "
         style="color:#000000;display:inline;overflow:visible;visibility:visible;fill:#ffffff;fill-opacity:1;fill-rule:nonzero;stroke:none;stroke-width:2;marker:none;enable-background:accumulate;opacity:0.1" />
      <path
         id="path4330"
         transform="translate(0,-244)"
         d="M 70 510 L 70 511 L 71.443359 511 C 73.316422 511 74.950451 513.0059 74.988281 515.60156 L 75 514.77539 C 75.03706 512.09355 73.359137 510 71.443359 510 L 70 510 z M 70 513 C 70 513 70.03275 516 67 516 L 61 516 C 61 516 58 516 58 519 L 58 520 C 58 517 61 517 61 517 L 67 517 C 70.03275 517 70 514 70 514 L 70 513 z "
         clip-path="none"
         style="color:#000000;display:inline;overflow:visible;visibility:visible;fill:#ffffff;fill-opacity:1;fill-rule:nonzero;stroke:none;stroke-width:2;marker:none;enable-background:accumulate;opacity:0.1" />
      <path
         sodipodi:nodetypes="cscsccscc"
         inkscape:connector-curvature="0"
         style="color:#000000;display:inline;overflow:visible;visibility:visible;opacity:0.2;fill:#000000;fill-opacity:1;fill-rule:nonzero;stroke:none;stroke-width:2;marker:none;enable-background:accumulate"
         clip-path="none"
         d="m 70,268 c 0,0 0.03275,3 -3,3 l -6,0 c 0,0 -3,0 -3,3 l 0,1 c 0,-3 3,-3 3,-3 l 6,0 c 3.03275,0 3,-3 3,-3 z"
         id="path4335" />
    </g>
  </g>
</svg>
