<?xml version="1.0" encoding="UTF-8" standalone="no"?>
<!-- Created with Inkscape (http://www.inkscape.org/) -->

<svg
   xmlns:osb="http://www.openswatchbook.org/uri/2009/osb"
   xmlns:dc="http://purl.org/dc/elements/1.1/"
   xmlns:cc="http://creativecommons.org/ns#"
   xmlns:rdf="http://www.w3.org/1999/02/22-rdf-syntax-ns#"
   xmlns:svg="http://www.w3.org/2000/svg"
   xmlns="http://www.w3.org/2000/svg"
   xmlns:sodipodi="http://sodipodi.sourceforge.net/DTD/sodipodi-0.dtd"
   xmlns:inkscape="http://www.inkscape.org/namespaces/inkscape"
   inkscape:export-ydpi="90.000000"
   inkscape:export-xdpi="90.000000"
   width="736"
   height="544"
   id="svg11300"
   sodipodi:version="0.32"
   inkscape:version="0.91 r13725"
   sodipodi:docname="r.svg"
   inkscape:output_extension="org.inkscape.output.svg.inkscape"
   version="1.0"
   style="display:inline;enable-background:new"
   inkscape:export-filename="/home/sam/paper-template.png">
  <sodipodi:namedview
     stroke="#646464"
     fill="#909090"
     id="base"
     pagecolor="#474747"
     bordercolor="#666666"
     borderopacity="0.25490196"
     inkscape:pageopacity="0"
     inkscape:pageshadow="2"
     inkscape:zoom="0.70710678"
     inkscape:cx="214.89874"
     inkscape:cy="-6.9648223"
     inkscape:current-layer="layer6"
     showgrid="false"
     inkscape:grid-bbox="true"
     inkscape:document-units="px"
     inkscape:showpageshadow="false"
     inkscape:window-width="1316"
     inkscape:window-height="698"
     inkscape:window-x="25"
     inkscape:window-y="45"
     width="400px"
     height="300px"
     inkscape:snap-nodes="true"
     inkscape:snap-bbox="true"
     gridtolerance="10000"
     inkscape:object-nodes="true"
     inkscape:snap-grids="true"
     showguides="false"
     inkscape:guide-bbox="true"
     inkscape:window-maximized="1"
     inkscape:bbox-nodes="true"
     inkscape:snap-bbox-edge-midpoints="true"
     inkscape:snap-bbox-midpoints="true"
     inkscape:snap-global="true">
    <inkscape:grid
       snapvisiblegridlinesonly="true"
       empspacing="4"
       visible="true"
       enabled="true"
       type="xygrid"
       id="grid5883"
       spacingx="1px"
       spacingy="1px" />
    <inkscape:grid
       snapvisiblegridlinesonly="true"
       empopacity="0.25098039"
       empcolor="#ff0000"
       opacity="0.1254902"
       color="#ff0000"
       spacingy="0.5px"
       spacingx="0.5px"
       enabled="false"
       visible="true"
       empspacing="2"
       id="grid11592"
       type="xygrid" />
  </sodipodi:namedview>
  <title
     id="title3004">Paper Icon Theme</title>
  <defs
     id="defs3">
    <linearGradient
       id="linearGradient5606"
       osb:paint="solid">
      <stop
         id="stop5608"
         offset="0"
         style="stop-color:#000000;stop-opacity:1;" />
    </linearGradient>
    <filter
       height="1.048"
       y="-0.024"
       width="1.048"
       x="-0.024"
       id="filter4564"
       style="color-interpolation-filters:sRGB"
       inkscape:collect="always">
      <feGaussianBlur
         id="feGaussianBlur4566"
         stdDeviation="4.8"
         inkscape:collect="always" />
    </filter>
    <filter
       height="1.048"
       y="-0.024"
       width="1.048"
       x="-0.024"
       id="filter5127"
       style="color-interpolation-filters:sRGB"
       inkscape:collect="always">
      <feGaussianBlur
         id="feGaussianBlur5129"
         stdDeviation="4.8"
         inkscape:collect="always" />
    </filter>
  </defs>
  <metadata
     id="metadata4">
    <rdf:RDF>
      <cc:Work
         rdf:about="">
        <dc:format>image/svg+xml</dc:format>
        <dc:type
           rdf:resource="http://purl.org/dc/dcmitype/StillImage" />
        <dc:creator>
          <cc:Agent>
            <dc:title>Sam Hewitt</dc:title>
          </cc:Agent>
        </dc:creator>
        <dc:source />
        <cc:license
           rdf:resource="http://creativecommons.org/licenses/by-sa/3.0/" />
        <dc:title>Paper Icon Theme</dc:title>
        <dc:subject>
          <rdf:Bag />
        </dc:subject>
        <dc:date />
        <dc:rights>
          <cc:Agent>
            <dc:title />
          </cc:Agent>
        </dc:rights>
        <dc:publisher>
          <cc:Agent>
            <dc:title />
          </cc:Agent>
        </dc:publisher>
        <dc:identifier />
        <dc:relation />
        <dc:language />
        <dc:coverage />
        <dc:description />
        <dc:contributor>
          <cc:Agent>
            <dc:title />
          </cc:Agent>
        </dc:contributor>
      </cc:Work>
      <cc:Work
         rdf:about="">
        <dc:format>image/svg+xml</dc:format>
        <dc:type
           rdf:resource="http://purl.org/dc/dcmitype/StillImage" />
      </cc:Work>
      <cc:License
         rdf:about="http://creativecommons.org/licenses/by-sa/3.0/">
        <cc:permits
           rdf:resource="http://creativecommons.org/ns#Reproduction" />
        <cc:permits
           rdf:resource="http://creativecommons.org/ns#Distribution" />
        <cc:requires
           rdf:resource="http://creativecommons.org/ns#Notice" />
        <cc:requires
           rdf:resource="http://creativecommons.org/ns#Attribution" />
        <cc:permits
           rdf:resource="http://creativecommons.org/ns#DerivativeWorks" />
        <cc:requires
           rdf:resource="http://creativecommons.org/ns#ShareAlike" />
      </cc:License>
    </rdf:RDF>
  </metadata>
  <g
     transform="translate(0,244)"
     id="layer1"
     inkscape:label="Icon"
     inkscape:groupmode="layer"
     style="display:inline">
    <g
       inkscape:groupmode="layer"
       id="layer7"
       inkscape:label="Baseplate"
       style="display:none">
      <rect
         transform="scale(-1,1)"
         inkscape:label="48x48"
         y="-228"
         x="-720"
         height="512"
         width="512"
         id="rect3951"
         style="display:inline;overflow:visible;visibility:visible;fill:#e9e9e9;fill-opacity:1;fill-rule:nonzero;stroke:none;stroke-width:2;marker:none;enable-background:accumulate" />
      <text
         id="context"
         inkscape:label="context"
         style="font-style:normal;font-variant:normal;font-weight:normal;font-stretch:normal;font-size:18px;font-family:'DejaVu Sans';-inkscape-font-specification:'DejaVu Sans';display:inline;fill:#000000;fill-opacity:1;stroke:none;enable-background:new"
         x="15.006836"
         xml:space="preserve"
         y="332.48523"><tspan
           id="tspan3933"
           sodipodi:role="line"
           x="15.006836"
           y="332.48523"
           style="font-style:normal;font-variant:normal;font-weight:normal;font-stretch:normal;font-family:'DejaVu Sans';-inkscape-font-specification:'DejaVu Sans'">apps</tspan></text>
      <text
         id="icon-name"
         inkscape:label="icon-name"
         sodipodi:linespacing="125%"
         style="font-style:normal;font-variant:normal;font-weight:bold;font-stretch:normal;font-size:18px;line-height:125%;font-family:'DejaVu Sans';-inkscape-font-specification:'DejaVu Sans Bold';text-align:start;writing-mode:lr-tb;text-anchor:start;display:inline;fill:#000000;fill-opacity:1;stroke:none;enable-background:new"
         x="142.48828"
         xml:space="preserve"
         y="332.48523"><tspan
           id="tspan3937"
           sodipodi:role="line"
           x="142.48828"
           y="332.48523"
           style="font-style:normal;font-variant:normal;font-weight:bold;font-stretch:normal;font-size:18px;font-family:'DejaVu Sans';-inkscape-font-specification:'DejaVu Sans Bold'">r</tspan></text>
      <rect
         transform="scale(-1,1)"
         inkscape:label="16x16"
         y="268"
         x="-32"
         height="16"
         width="16"
         id="rect16x16"
         style="display:inline;overflow:visible;visibility:visible;fill:#e9e9e9;fill-opacity:1;fill-rule:nonzero;stroke:none;stroke-width:2;marker:none;enable-background:accumulate" />
      <rect
         transform="scale(-1,1)"
         inkscape:label="24x24"
         y="260"
         x="-76"
         height="24"
         width="24"
         id="rect24x24"
         style="display:inline;overflow:visible;visibility:visible;fill:#e9e9e9;fill-opacity:1;fill-rule:nonzero;stroke:none;stroke-width:2;marker:none;enable-background:accumulate" />
      <rect
         transform="scale(-1,1)"
         inkscape:label="32x32"
         y="252"
         x="-128"
         height="32"
         width="32"
         id="rect32x32"
         style="display:inline;overflow:visible;visibility:visible;fill:#e9e9e9;fill-opacity:1;fill-rule:nonzero;stroke:none;stroke-width:2;marker:none;enable-background:accumulate" />
      <rect
         transform="scale(-1,1)"
         style="display:inline;overflow:visible;visibility:visible;fill:#e9e9e9;fill-opacity:1;fill-rule:nonzero;stroke:none;stroke-width:2;marker:none;enable-background:accumulate"
         id="rect48x48"
         width="48"
         height="48"
         x="-192"
         y="236"
         inkscape:label="48x48" />
    </g>
    <g
       style="display:inline"
       inkscape:label="Symbols"
       id="layer6"
       inkscape:groupmode="layer">
      <circle
         style="opacity:0.2;fill:#000000;fill-opacity:1;stroke:none;stroke-width:2;stroke-miterlimit:4;stroke-dasharray:none;stroke-opacity:1;filter:url(#filter4564)"
         id="circle4554"
         cx="464"
         cy="32"
         r="240" />
      <circle
         style="opacity:0.2;fill:#000000;fill-opacity:1;stroke:none;stroke-width:2;stroke-miterlimit:4;stroke-dasharray:none;stroke-opacity:1"
         id="circle5125"
         cx="464"
         cy="30"
         r="240" />
      <circle
         r="240"
         cy="32"
         cx="464"
         id="circle4568"
         style="opacity:0.1;fill:#000000;fill-opacity:1;stroke:#000000;stroke-width:8;stroke-miterlimit:4;stroke-dasharray:none;stroke-opacity:1;filter:url(#filter5127)" />
      <circle
         style="opacity:0.2;fill:#000000;fill-opacity:1;stroke:none;stroke-width:2;stroke-miterlimit:4;stroke-dasharray:none;stroke-opacity:1"
         id="circle4533"
         cx="64"
         cy="273"
         r="11" />
      <circle
         style="opacity:0.2;fill:#000000;fill-opacity:1;stroke:none;stroke-width:2;stroke-miterlimit:4;stroke-dasharray:none;stroke-opacity:1"
         id="circle4537"
         cx="168"
         cy="261"
         r="22" />
      <circle
         style="opacity:1;fill:#cccccc;fill-opacity:1;stroke:none;stroke-width:2;stroke-miterlimit:4;stroke-dasharray:none;stroke-opacity:1"
         id="circle4526"
         cx="24"
         cy="276"
         r="8" />
      <circle
         r="11"
         cy="272"
         cx="64"
         id="path4524"
         style="opacity:1;fill:#cccccc;fill-opacity:1;stroke:none;stroke-width:2;stroke-miterlimit:4;stroke-dasharray:none;stroke-opacity:1" />
      <path
         id="circle4545"
         transform="translate(0,-244)"
         d="M 64 505 A 11 11 0 0 0 53 516 A 11 11 0 0 0 53.021484 516.58594 A 11 11 0 0 1 64 506 A 11 11 0 0 1 74.978516 516.41406 A 11 11 0 0 0 75 516 A 11 11 0 0 0 64 505 z "
         style="opacity:0.2;fill:#ffffff;fill-opacity:1;stroke:none;stroke-width:2;stroke-miterlimit:4;stroke-dasharray:none;stroke-opacity:1" />
      <circle
         r="22"
         cy="260"
         cx="168"
         id="path4520"
         style="opacity:1;fill:#cccccc;fill-opacity:1;stroke:none;stroke-width:2;stroke-miterlimit:4;stroke-dasharray:none;stroke-opacity:1" />
      <path
         id="circle4549"
         transform="translate(0,-244)"
         d="M 168 482 A 22 22 0 0 0 146 504 A 22 22 0 0 0 146.02148 504.58594 A 22 22 0 0 1 168 483 A 22 22 0 0 1 189.97852 504.41406 A 22 22 0 0 0 190 504 A 22 22 0 0 0 168 482 z "
         style="opacity:0.2;fill:#ffffff;fill-opacity:1;stroke:none;stroke-width:2;stroke-miterlimit:4;stroke-dasharray:none;stroke-opacity:1" />
      <circle
         r="240"
         cy="28"
         cx="464"
         id="path4518"
         style="opacity:1;fill:#cccccc;fill-opacity:1;stroke:none;stroke-width:2;stroke-miterlimit:4;stroke-dasharray:none;stroke-opacity:1" />
      <g
         transform="translate(186.5001,-174.5)"
         style="display:inline"
         inkscape:label="places"
         id="layer1-2" />
      <g
         transform="translate(-54.5001,442.5)"
         style="display:inline"
         inkscape:label="mimetypes"
         id="layer14" />
      <g
         transform="translate(-54.5001,442.5)"
         style="display:inline"
         inkscape:label="emblems"
         id="layer15" />
      <g
         transform="translate(-54.5001,442.5)"
         style="display:inline"
         inkscape:label="emotes"
         id="g71291" />
      <g
         transform="translate(186.5001,-24.5)"
         style="display:inline"
         inkscape:label="categories"
         id="layer2" />
      <g
         transform="translate(186.5001,-24.5)"
         style="display:inline"
         inkscape:label="apps"
         id="g6058" />
      <g
         transform="translate(-54.5001,442.5)"
         style="display:inline"
         inkscape:label="actions"
         id="layer12" />
      <path
         id="circle4528"
         transform="translate(0,-244)"
         d="M 464 32 A 240 240 0 0 0 224 272 A 240 240 0 0 0 224.04102 273.17188 A 240 240 0 0 1 464 34 A 240 240 0 0 1 703.95898 272.82812 A 240 240 0 0 0 704 272 A 240 240 0 0 0 464 32 z "
         style="opacity:0.2;fill:#ffffff;fill-opacity:1;stroke:none;stroke-width:2;stroke-miterlimit:4;stroke-dasharray:none;stroke-opacity:1" />
      <circle
         style="display:inline;enable-background:new;opacity:0.2;fill:#000000;fill-opacity:1;stroke:none;stroke-width:2;stroke-miterlimit:4;stroke-dasharray:none;stroke-opacity:1"
         id="circle4535"
         cx="112"
         cy="269"
         r="15" />
      <circle
         r="15"
         cy="268"
         cx="112"
         id="path4522"
         style="display:inline;enable-background:new;opacity:1;fill:#cccccc;fill-opacity:1;stroke:none;stroke-width:2;stroke-miterlimit:4;stroke-dasharray:none;stroke-opacity:1" />
      <path
         id="circle4547"
         d="m 112,253 a 15,15 0 0 0 -15,15 15,15 0 0 0 0.02014,0.54382 A 15,15 0 0 1 112,253.9375 15,15 0 0 1 126.97986,268.39368 15,15 0 0 0 127,268 15,15 0 0 0 112,253 Z"
         style="display:inline;enable-background:new;opacity:0.2;fill:#ffffff;fill-opacity:1;stroke:none;stroke-width:2;stroke-miterlimit:4;stroke-dasharray:none;stroke-opacity:1"
         inkscape:connector-curvature="0" />
      <path
         sodipodi:nodetypes="csccccccscccccscccccscc"
         style="fill:#575757;fill-rule:evenodd"
         inkscape:connector-curvature="0"
         d="m 115.18964,269.35515 c 0,0 0.7676,0.23163 1.21354,0.45728 0.15474,0.0783 0.42246,0.23455 0.61558,0.43969 0.18917,0.20092 0.2814,0.40452 0.2814,0.40452 l 3.06077,5.34445 -5.57687,0.002 -2.2864,-4.29358 c 0,0 -0.46819,-0.80442 -0.75627,-1.03767 -0.24032,-0.19455 -0.34279,-0.26382 -0.58039,-0.26382 l -1.1617,0 L 110,276 l -5,0 0,-16 9,0 c 1,0 5.13147,0.8234 5.13147,4.58829 0,3.76493 -3.94204,4.76685 -3.94204,4.76685 z M 110,263 l 0,4 2.74815,0 c 0,0 1.25185,0 1.37424,-1.95721 0.12772,-2.04246 -1.3754,-2.04067 -1.3754,-2.04067 z"
         id="path3647" />
      <path
         id="path3649"
         d="m 515.00467,46.65524 c 0,0 12.27937,3.70541 19.41312,7.31515 2.47539,1.25258 6.75813,3.75212 9.84749,7.03377 3.02617,3.21414 4.50159,6.47115 4.50159,6.47115 l 48.96343,88.49568 -89.21373,0.032 -36.55006,-67.18293 c 0,0 -7.48968,-12.86839 -12.09812,-16.59971 C 456.02396,69.10812 454.38474,68 450.58383,68 L 432,68 l -0.0145,87.95356 -79.98549,0 0,-255.95356 123.97388,0 c 44.02612,0 102.08863,13.172011 102.08863,73.399325 0,60.227955 -63.0612,73.255765 -63.0612,73.255765 z m -83.01918,-98.663956 0,63.988396 37.96243,0 c 0,0 26.02596,0 27.98385,-31.30968 2.04315,-32.673437 -28.00241,-32.644802 -28.00241,-32.644802 z"
         inkscape:connector-curvature="0"
         style="fill:#575757;fill-rule:evenodd"
         sodipodi:nodetypes="csccccccscccccscccccscc" />
      <path
         id="path3651"
         d="m 26.16986,276.67821 c 0,0 0.38372,0.11579 0.60665,0.2286 0.0773,0.0391 0.21119,0.11725 0.30773,0.2198 0.0946,0.10044 0.14067,0.20222 0.14067,0.20222 l 1.53009,2.67171 -3.36343,10e-4 -1.14298,-2.14638 c 0,0 -0.23405,-0.40213 -0.37807,-0.51873 -0.12013,-0.0973 -0.17149,-0.12632 -0.29013,-0.13188 l -0.58074,0 L 23,280 20,279.99846 20,272 l 5.57515,0.002 c 0.4999,0 2.56524,0.41162 2.56524,2.2937 0,1.8821 -1.97064,2.38297 -1.97064,2.38297 z M 23,273.50125 l 0,1.99961 1.37381,0 c 0,0 0.6258,0 0.68698,-0.97841 0.0639,-1.02103 -0.68756,-1.02014 -0.68756,-1.02014 z"
         inkscape:connector-curvature="0"
         style="fill:#575757;fill-rule:evenodd"
         sodipodi:nodetypes="csccccccscccccscccccscc" />
      <path
         id="path3653"
         d="m 172.78393,262.53208 c 0,0 1.15132,0.34742 1.82018,0.68587 0.2321,0.11744 0.63365,0.3518 0.92331,0.65949 0.28374,0.30136 0.42207,0.60674 0.42207,0.60674 l 4.5909,7.51745 -8.36474,0.003 -3.42942,-5.94125 c 0,0 -0.70223,-1.20655 -1.13432,-1.5564 -0.36046,-0.29181 -0.51415,-0.3957 -0.87053,-0.3957 l -1.74243,0 L 165,272 l -6.99995,0 -5e-5,-24 12.99954,0 c 1.4999,0 7.69668,1.73533 7.69668,7.38228 0,5.64701 -5.91266,7.14978 -5.91266,7.14978 z M 165,253 l 0,5.99959 4.12194,0 c 0,0 1.87765,0 2.06122,-2.93561 0.19157,-3.06348 -2.06296,-3.0608 -2.06296,-3.0608 z"
         inkscape:connector-curvature="0"
         style="fill:#575757;fill-rule:evenodd"
         sodipodi:nodetypes="csccccccscccccscccccscc" />
      <path
         sodipodi:nodetypes="csccccccscccccscccccscc"
         style="fill:#575757;fill-rule:evenodd"
         inkscape:connector-curvature="0"
         d="m 66.321465,272.76512 c 0,0 0.57555,0.17368 0.90991,0.34287 0.11603,0.0587 0.31677,0.17586 0.46157,0.32968 0.14184,0.15065 0.21099,0.30331 0.21099,0.30331 L 70,277 l -4.18156,0.002 -0.94568,-2.47107 c 0,0 -0.35105,-0.60316 -0.56705,-0.77805 -0.1802,-0.14588 -0.25703,-0.19781 -0.43518,-0.19781 l -1.87105,0 L 62,277 58.99922,277 59,266 l 6.430245,0 c 0.7498,0 3.84679,0.36848 3.84679,3.19141 0,2.82296 -2.95576,3.5742 -2.95576,3.5742 z M 62,268 l 0,2.99921 2.585674,0 c 0,0 1.202476,0 1.294246,-1.46752 0.0958,-1.53144 -1.295116,-1.5301 -1.295116,-1.5301 z"
         id="path3655" />
    </g>
  </g>
</svg>
