<?xml version="1.0" encoding="UTF-8" standalone="no"?>
<!-- Created with Inkscape (http://www.inkscape.org/) -->

<svg
   xmlns:osb="http://www.openswatchbook.org/uri/2009/osb"
   xmlns:dc="http://purl.org/dc/elements/1.1/"
   xmlns:cc="http://creativecommons.org/ns#"
   xmlns:rdf="http://www.w3.org/1999/02/22-rdf-syntax-ns#"
   xmlns:svg="http://www.w3.org/2000/svg"
   xmlns="http://www.w3.org/2000/svg"
   xmlns:sodipodi="http://sodipodi.sourceforge.net/DTD/sodipodi-0.dtd"
   xmlns:inkscape="http://www.inkscape.org/namespaces/inkscape"
   inkscape:export-ydpi="90.000000"
   inkscape:export-xdpi="90.000000"
   width="736"
   height="544"
   id="svg11300"
   sodipodi:version="0.32"
   inkscape:version="0.91 r13725"
   sodipodi:docname="sparkleshare.svg"
   inkscape:output_extension="org.inkscape.output.svg.inkscape"
   version="1.0"
   style="display:inline;enable-background:new"
   inkscape:export-filename="/home/sam/paper-template.png">
  <sodipodi:namedview
     stroke="#646464"
     fill="#909090"
     id="base"
     pagecolor="#ededed"
     bordercolor="#666666"
     borderopacity="0.25490196"
     inkscape:pageopacity="0"
     inkscape:pageshadow="2"
     inkscape:zoom="1"
     inkscape:cx="298.76757"
     inkscape:cy="79.801117"
     inkscape:current-layer="layer6"
     showgrid="false"
     inkscape:grid-bbox="true"
     inkscape:document-units="px"
     inkscape:showpageshadow="false"
     inkscape:window-width="1316"
     inkscape:window-height="698"
     inkscape:window-x="25"
     inkscape:window-y="45"
     width="400px"
     height="300px"
     inkscape:snap-nodes="true"
     inkscape:snap-bbox="true"
     gridtolerance="10000"
     inkscape:object-nodes="true"
     inkscape:snap-grids="true"
     showguides="true"
     inkscape:guide-bbox="true"
     inkscape:window-maximized="1"
     inkscape:object-paths="false"
     inkscape:snap-intersection-paths="false"
     inkscape:snap-smooth-nodes="false"
     inkscape:snap-midpoints="true"
     inkscape:snap-global="true">
    <inkscape:grid
       snapvisiblegridlinesonly="true"
       empspacing="4"
       visible="true"
       enabled="true"
       type="xygrid"
       id="grid5883"
       spacingx="1px"
       spacingy="1px" />
    <inkscape:grid
       snapvisiblegridlinesonly="true"
       empopacity="0.25098039"
       empcolor="#ff0000"
       opacity="0.1254902"
       color="#ff0000"
       spacingy="0.5px"
       spacingx="0.5px"
       enabled="false"
       visible="true"
       empspacing="2"
       id="grid11592"
       type="xygrid" />
  </sodipodi:namedview>
  <title
     id="title3004">Paper Icon Theme</title>
  <defs
     id="defs3">
    <clipPath
       id="clipPath4718"
       clipPathUnits="userSpaceOnUse">
      <path
         sodipodi:nodetypes="sssccccssss"
         inkscape:connector-curvature="0"
         id="path4720"
         d="m 288,260 0,-56 c 0,-2.216 1.79756,-4.24472 4,-4 l 32,0 8,8 32.20504,0 c 0,0 3.79496,0 3.79496,4 l 0,48 c 0,2.21598 -1.784,4 -4,4 l -72,0 c -2.216,0 -4,-1.784 -4,-4 z"
         style="fill:#a3a3a3;fill-opacity:1;stroke:none" />
    </clipPath>
    <clipPath
       id="clipPath7328"
       clipPathUnits="userSpaceOnUse">
      <path
         sodipodi:nodetypes="scsccssssss"
         inkscape:connector-curvature="0"
         id="path7330"
         d="m 240,100 0,-256 c 0,-0.2208 0,-24 24,-24 l 176,0 48,48 176,0 c 13.296,0 24,10.704 24,24 l 0,208 c 0,13.296 -10.704,24 -24,24 l -400,0 c -13.296,0 -24,-10.704 -24,-24 z"
         style="fill:#a3a3a3;fill-opacity:1;stroke:none" />
    </clipPath>
    <filter
       height="1.05088"
       y="-0.02544"
       width="1.0454286"
       x="-0.022714286"
       id="filter4198"
       style="color-interpolation-filters:sRGB"
       inkscape:collect="always">
      <feGaussianBlur
         id="feGaussianBlur4200"
         stdDeviation="4.24"
         inkscape:collect="always" />
    </filter>
    <linearGradient
       id="linearGradient5606"
       osb:paint="solid">
      <stop
         id="stop5608"
         offset="0"
         style="stop-color:#000000;stop-opacity:1;" />
    </linearGradient>
    <filter
       height="1.1363636"
       y="-0.068181818"
       width="1.1071429"
       x="-0.053571429"
       id="filter4881"
       style="color-interpolation-filters:sRGB"
       inkscape:collect="always">
      <feGaussianBlur
         id="feGaussianBlur4883"
         stdDeviation="10"
         inkscape:collect="always" />
    </filter>
    <filter
       height="1.0487519"
       y="-0.024375936"
       width="1.047271"
       x="-0.023635484"
       id="filter5326"
       style="color-interpolation-filters:sRGB"
       inkscape:collect="always">
      <feGaussianBlur
         id="feGaussianBlur5328"
         stdDeviation="1.6462093"
         inkscape:collect="always" />
    </filter>
    <linearGradient
       id="linearGradient6882"
       osb:paint="solid">
      <stop
         id="stop6884"
         offset="0"
         style="stop-color:#555555;stop-opacity:1;" />
    </linearGradient>
  </defs>
  <metadata
     id="metadata4">
    <rdf:RDF>
      <cc:Work
         rdf:about="">
        <dc:format>image/svg+xml</dc:format>
        <dc:type
           rdf:resource="http://purl.org/dc/dcmitype/StillImage" />
        <dc:creator>
          <cc:Agent>
            <dc:title>Sam Hewitt</dc:title>
          </cc:Agent>
        </dc:creator>
        <dc:source />
        <cc:license
           rdf:resource="http://creativecommons.org/licenses/by-sa/3.0/" />
        <dc:title>Paper Icon Theme</dc:title>
        <dc:subject>
          <rdf:Bag />
        </dc:subject>
        <dc:date />
        <dc:rights>
          <cc:Agent>
            <dc:title />
          </cc:Agent>
        </dc:rights>
        <dc:publisher>
          <cc:Agent>
            <dc:title />
          </cc:Agent>
        </dc:publisher>
        <dc:identifier />
        <dc:relation />
        <dc:language />
        <dc:coverage />
        <dc:description />
        <dc:contributor>
          <cc:Agent>
            <dc:title />
          </cc:Agent>
        </dc:contributor>
      </cc:Work>
      <cc:Work
         rdf:about="">
        <dc:format>image/svg+xml</dc:format>
        <dc:type
           rdf:resource="http://purl.org/dc/dcmitype/StillImage" />
      </cc:Work>
      <cc:License
         rdf:about="http://creativecommons.org/licenses/by-sa/3.0/">
        <cc:permits
           rdf:resource="http://creativecommons.org/ns#Reproduction" />
        <cc:permits
           rdf:resource="http://creativecommons.org/ns#Distribution" />
        <cc:requires
           rdf:resource="http://creativecommons.org/ns#Notice" />
        <cc:requires
           rdf:resource="http://creativecommons.org/ns#Attribution" />
        <cc:permits
           rdf:resource="http://creativecommons.org/ns#DerivativeWorks" />
        <cc:requires
           rdf:resource="http://creativecommons.org/ns#ShareAlike" />
      </cc:License>
    </rdf:RDF>
  </metadata>
  <g
     transform="translate(0,244)"
     id="layer1"
     inkscape:label="sparkleshare"
     inkscape:groupmode="layer"
     style="display:inline">
    <g
       style="display:none"
       inkscape:label="Baseplate"
       id="g5642"
       inkscape:groupmode="layer">
      <text
         y="331.74512"
         xml:space="preserve"
         x="15.006836"
         style="font-style:normal;font-variant:normal;font-weight:normal;font-stretch:normal;font-size:18px;font-family:'DejaVu Sans';-inkscape-font-specification:'DejaVu Sans';display:inline;fill:#000000;fill-opacity:1;stroke:none;enable-background:new"
         inkscape:label="context"
         id="text5644"><tspan
           style="font-style:normal;font-variant:normal;font-weight:normal;font-stretch:normal;font-family:'DejaVu Sans';-inkscape-font-specification:'DejaVu Sans'"
           y="331.74512"
           x="15.006836"
           sodipodi:role="line"
           id="tspan5646">apps</tspan></text>
      <text
         y="331.74512"
         xml:space="preserve"
         x="142.48828"
         style="font-style:normal;font-variant:normal;font-weight:bold;font-stretch:normal;font-size:18px;line-height:125%;font-family:'DejaVu Sans';-inkscape-font-specification:'DejaVu Sans Bold';text-align:start;writing-mode:lr-tb;text-anchor:start;display:inline;fill:#000000;fill-opacity:1;stroke:none;enable-background:new"
         sodipodi:linespacing="125%"
         inkscape:label="icon-name"
         id="text5648"><tspan
           style="font-style:normal;font-variant:normal;font-weight:bold;font-stretch:normal;font-size:18px;font-family:'DejaVu Sans';-inkscape-font-specification:'DejaVu Sans Bold'"
           y="331.74512"
           x="142.48828"
           sodipodi:role="line"
           id="tspan5650">sparkleshare</tspan></text>
      <rect
         style="display:inline;overflow:visible;visibility:visible;fill:#e9e9e9;fill-opacity:1;fill-rule:nonzero;stroke:none;stroke-width:2;marker:none;enable-background:accumulate"
         id="rect5652"
         width="16"
         height="16"
         x="-32"
         y="268"
         inkscape:label="16x16"
         transform="scale(-1,1)" />
      <rect
         style="display:inline;overflow:visible;visibility:visible;fill:#e9e9e9;fill-opacity:1;fill-rule:nonzero;stroke:none;stroke-width:2;marker:none;enable-background:accumulate"
         id="rect5654"
         width="24"
         height="24"
         x="-76"
         y="260"
         inkscape:label="24x24"
         transform="scale(-1,1)" />
      <rect
         style="display:inline;overflow:visible;visibility:visible;fill:#e9e9e9;fill-opacity:1;fill-rule:nonzero;stroke:none;stroke-width:2;marker:none;enable-background:accumulate"
         id="rect5656"
         width="32"
         height="32"
         x="-128"
         y="252"
         inkscape:label="32x32"
         transform="scale(-1,1)" />
      <rect
         inkscape:label="48x48"
         y="236"
         x="-192"
         height="48"
         width="48"
         id="rect5658"
         style="display:inline;overflow:visible;visibility:visible;fill:#e9e9e9;fill-opacity:1;fill-rule:nonzero;stroke:none;stroke-width:2;marker:none;enable-background:accumulate"
         transform="scale(-1,1)" />
      <rect
         style="display:inline;overflow:visible;visibility:visible;fill:#e9e9e9;fill-opacity:1;fill-rule:nonzero;stroke:none;stroke-width:2;marker:none;enable-background:accumulate"
         id="rect5664"
         width="512"
         height="512"
         x="-720"
         y="-228"
         inkscape:label="48x48"
         transform="scale(-1,1)" />
    </g>
    <g
       style="display:inline"
       inkscape:label="Symbols"
       id="layer6"
       inkscape:groupmode="layer">
      <path
         inkscape:connector-curvature="0"
         id="path4524"
         d="m 98,279.50195 0,1 C 98,281.33203 98.66796,282 99.49805,282 l 24.97265,0 c 0.83008,0 1.49805,-0.66797 1.49805,-1.49805 l 0,-1 c 0,0.83008 -0.66797,1.49805 -1.49805,1.49805 l -24.97265,0 C 98.66796,281 98,280.33203 98,279.50195 Z"
         style="opacity:0.1;fill:#000000;fill-opacity:1;stroke:none" />
      <path
         inkscape:connector-curvature="0"
         id="path4526"
         d="m 148,276 0,1 c 0,1.10799 0.892,2 2,2 l 36,0 c 1.108,0 2,-0.892 2,-2 l 0,-1 c 0,1.108 -0.892,2 -2,2 l -36,0 c -1.108,0 -2,-0.89201 -2,-2 z"
         style="opacity:0.1;fill:#000000;fill-opacity:1;stroke:none" />
      <path
         inkscape:connector-curvature="0"
         id="path4528"
         d="m 54,279.99609 0,1 c 0,0.55384 0.44615,0.99805 1,0.99805 l 17.99414,0 c 0.55385,0 1,-0.44421 1,-0.99805 l 0,-1 c 0,0.55384 -0.44615,0.99805 -1,0.99805 l -17.99414,0 c -0.55385,0 -1,-0.44421 -1,-0.99805 z"
         style="opacity:0.1;fill:#000000;fill-opacity:1;stroke:none" />
      <path
         style="opacity:0.2;fill:#000000;fill-opacity:1;stroke:#000000;stroke-width:0;stroke-miterlimit:4;stroke-dasharray:none;stroke-opacity:1;filter:url(#filter4198)"
         d="m 264,-160 c -24,0 -24,23.7792 -24,24 l 0,96 0,160 0,96 c 0,13.296 10.704,24 24,24 l 400,0 c 13.296,0 24,-10.704 24,-24 l 0,-96 0,-208 c 0,-3.40647 -0.7078,-6.64054 -1.9766,-9.57031 -2.4696,-6.44528 -8.0441,-13.84886 -20.582,-14.38281 -0.4772,-0.028 -0.9569,-0.0469 -1.4414,-0.0469 l -176,0 -48,-48 -176,0 z"
         id="path4202"
         inkscape:connector-curvature="0" />
      <path
         inkscape:connector-curvature="0"
         id="path7332"
         d="m 264,-160 c -24,0 -24,23.7792 -24,24 l 0,96 0,160 0,96 c 0,13.296 10.704,24 24,24 l 400,0 c 13.296,0 24,-10.704 24,-24 l 0,-96 0,-208 c 0,-3.40647 -0.7078,-6.64054 -1.9766,-9.57031 -2.4696,-6.44528 -8.0441,-13.84886 -20.582,-14.38281 -0.4772,-0.028 -0.9569,-0.0469 -1.4414,-0.0469 l -176,0 -48,-48 -176,0 z"
         style="opacity:0.05;fill:#000000;fill-opacity:1;stroke:#000000;stroke-width:0;stroke-miterlimit:4;stroke-dasharray:none;stroke-opacity:1;filter:url(#filter4198)" />
      <path
         style="fill:#929292;fill-opacity:1;stroke:none"
         d="m 240,116 0,-256 c 0,-0.2208 0,-24 24,-24 l 176,0 48,48 176,0 c 13.296,0 24,10.704 24,24 l 0,208 c 0,13.296 -10.704,24 -24,24 l -400,0 c -13.296,0 -24,-10.704 -24,-24 z"
         id="path3300"
         inkscape:connector-curvature="0"
         sodipodi:nodetypes="scsccssssss" />
      <path
         inkscape:connector-curvature="0"
         id="path7310"
         d="m 264,-164 c -24,0 -24,23.7792 -24,24 l 0,2 c 0,-0.2208 0,-24 24,-24 l 176,0 48,48 176,0 c 13.296,0 24,10.704 24,24 l 0,-2 c 0,-13.296 -10.704,-24 -24,-24 l -176,0 -48,-48 -176,0 z"
         style="opacity:0.2;fill:#ffffff;fill-opacity:1;stroke:none" />
      <path
         clip-path="url(#clipPath7328)"
         style="opacity:0.3;fill:#000000;fill-opacity:1;stroke:none;filter:url(#filter4881)"
         d="m 688,196 0,-304 c 0,0.2208 0,-24 -24,-24 l -176,0 -48,48 -176,0 c -13.296,0 -24,10.704 -24,24 l 0,256 c 0,13.296 10.704,24 24,24 l 400,0 c 13.296,0 24,-10.704 24,-24 z"
         id="path7320"
         inkscape:connector-curvature="0"
         sodipodi:nodetypes="scsccssssss"
         transform="translate(0,20)" />
      <path
         sodipodi:nodetypes="scsccssssss"
         inkscape:connector-curvature="0"
         id="rect3292"
         d="m 688,212 0,-304 c 0,0.2208 0,-24 -24,-24 l -176,0 -48,48 -176,0 c -13.296,0 -24,10.704 -24,24 l 0,256 c 0,13.296 10.704,24 24,24 l 400,0 c 13.296,0 24,-10.704 24,-24 z"
         style="fill:#a5a5a5;fill-opacity:1;stroke:none" />
      <path
         inkscape:connector-curvature="0"
         id="path7312"
         d="m 488,-116 -48,48 -176,0 c -13.296,0 -24,10.704 -24,24 l 0,2 c 0,-13.296 10.704,-24 24,-24 l 176,0 48,-48 176,0 c 24,0 24,24.2208 24,24 l 0,-2 c 0,0.2208 0,-24 -24,-24 l -176,0 z"
         style="opacity:0.2;fill:#ffffff;fill-opacity:1;stroke:none" />
      <path
         style="opacity:0.1;fill:#000000;fill-opacity:1;stroke:none"
         d="m 240,208 0,2 0,2 c 0,13.296 10.704,24 24,24 l 400,0 c 13.296,0 24,-10.704 24,-24 l 0,-2 0,-2 c 0,13.296 -10.704,24 -24,24 l -400,0 c -13.296,0 -24,-10.704 -24,-24 z"
         id="path7355"
         inkscape:connector-curvature="0" />
      <path
         style="fill:#929292;fill-opacity:1;stroke:none"
         d="m 16.00028,279.99581 0,-9.99609 c 0,-0.55385 0.44926,-1.06088 0.99972,-0.99972 l 5.99777,0 1.99944,1.99944 6.04901,0 c 0,0 0.94848,0 0.94848,0.99972 l 0,7.99665 c 0,0.55384 -0.44588,0.99972 -0.99972,0.99972 l -13.99498,0 c -0.55385,0 -0.99972,-0.44587 -0.99972,-0.99972 z"
         id="path4600"
         inkscape:connector-curvature="0"
         sodipodi:nodetypes="sssccccssss" />
      <path
         sodipodi:nodetypes="sssccccssss"
         inkscape:connector-curvature="0"
         id="path4602"
         d="m 31.9947,282.99917 0,-11.00001 c 0,-0.55384 -0.44588,-0.99972 -0.99972,-0.99972 l -5.99777,0 -1.99944,1.99944 -5.99777,0 c -0.99972,0 -0.99972,0.95811 -0.99972,0.95811 l 0,9.04218 c 0,0.55384 0.44587,0.99972 0.99972,0.99972 l 13.99498,0 c 0.55384,0 0.99972,-0.44588 0.99972,-0.99972 z"
         style="fill:#a5a5a5;fill-opacity:1;stroke:none" />
      <path
         style="fill:#929292;fill-opacity:1;stroke:none"
         d="m 148,272 0,-28 c 0,-1.108 0.89878,-2.12236 2,-2 l 16,0 4,4 16.10252,0 c 0,0 1.89748,0 1.89748,2 l 0,24 c 0,1.10799 -0.892,2 -2,2 l -36,0 c -1.108,0 -2,-0.892 -2,-2 z"
         id="path4159"
         inkscape:connector-curvature="0"
         sodipodi:nodetypes="sssccccssss" />
      <path
         sodipodi:nodetypes="sssccccssss"
         inkscape:connector-curvature="0"
         id="rect3454"
         d="m 188,276 0,-28 c 0,-1.108 -0.89878,-2.12236 -2,-2 l -16,0 -4,4 -16,0 c -2,0 -2,1.91674 -2,1.91674 L 148,276 c 0,1.10799 0.892,2 2,2 l 36,0 c 1.108,0 2,-0.892 2,-2 z"
         style="fill:#a5a5a5;fill-opacity:1;stroke:none" />
      <path
         sodipodi:nodetypes="sscsccccs"
         inkscape:connector-curvature="0"
         id="path4298"
         d="m 150,242 c -1.108,0 -2,0.892 -2,2 l 0,1 c 0,-1.108 0.892,-2 2,-2 l 16,0 4,4 0,-1 -4,-4 z"
         style="opacity:0.2;fill:#ffffff;fill-opacity:1;stroke:none" />
      <path
         inkscape:connector-curvature="0"
         id="path4161"
         d="m 170,246 -4,4 -16,0 c -2,0 -2,1.90625 -2,1.90625 l 0,1 c 0,0 0,-1.90625 2,-1.90625 l 16,0 4,-4 16,0 c 1.10122,-0.12236 2,0.892 2,2 l 0,-1 c 0,-1.108 -0.89878,-2.12236 -2,-2 l -16,0 z"
         style="opacity:0.2;fill:#ffffff;fill-opacity:1;stroke:none" />
      <path
         sodipodi:nodetypes="sssccssssss"
         inkscape:connector-curvature="0"
         id="path4112"
         d="m 98,273.50827 0,-15.98236 c 0,-0.83008 0.69118,-1.69206 1.49834,-1.49834 l 10.98788,0 2.99669,2.99669 10.98787,0 c 0.83008,0 1.49834,0.66826 1.49834,1.49835 l 0,12.98566 c 0,0.83009 -0.66826,1.49835 -1.49834,1.49835 l -24.97244,0 C 98.66826,275.00662 98,274.33836 98,273.50827 Z"
         style="fill:#929292;fill-opacity:1;stroke:none" />
      <path
         sodipodi:nodetypes="ccsscsccc"
         inkscape:connector-curvature="0"
         id="path4127"
         d="m 112.96875,258.53125 -2.46875,2.5 -11,0 c -0.83008,0 -1.5,0.66991 -1.5,1.5 l 0,1 c 0,-0.83009 0.66992,-1.5 1.5,-1.5 l 11,0 2.96875,-3 z"
         style="opacity:0.1;fill:#000000;fill-opacity:1;stroke:none" />
      <path
         style="fill:#a5a5a5;fill-opacity:1;stroke:none"
         d="m 125.96912,279.50166 0,-18.97905 c 0,-0.83009 -0.67166,-1.5735 -1.49834,-1.49835 l -10.98787,0 -2.99669,2.99669 -10.98788,0 C 98.66826,262.02095 98,262.68921 98,263.5193 l 0,15.98236 C 98,280.33174 98.66826,281 99.49834,281 l 24.97244,0 c 0.83008,0 1.49834,-0.66826 1.49834,-1.49834 z"
         id="path4114"
         inkscape:connector-curvature="0"
         sodipodi:nodetypes="sssccssssss" />
      <path
         sodipodi:nodetypes="cscccccccc"
         inkscape:connector-curvature="0"
         id="path4133"
         d="M 99.1875,256 C 98.51447,256.0466 98,256.80493 98,257.53125 l 0,1 c 0,-0.83008 0.69284,-1.69372 1.5,-1.5 l 11,0 2.46875,2.5 0.5,-0.5 -2.96875,-3 -11,0 c -0.1009,-0.0242 -0.21635,-0.0379 -0.3125,-0.0312 z"
         style="opacity:0.2;fill:#ffffff;fill-opacity:1;stroke:none" />
      <path
         inkscape:connector-curvature="0"
         id="path4135"
         d="m 113.46875,259.03125 -2.96875,3 -11,0 c -0.83008,0 -1.5,0.66991 -1.5,1.5 l 0,1 c 0,-0.83009 0.66992,-1.5 1.5,-1.5 l 11,0 2.96875,-3 11,0 c 0.82668,-0.0752 1.5,0.66991 1.5,1.5 l 0,-1 c 0,-0.83009 -0.67332,-1.57515 -1.5,-1.5 l -11,0 z"
         style="opacity:0.1;fill:#ffffff;fill-opacity:1;stroke:none" />
      <path
         sodipodi:nodetypes="sssccccssss"
         inkscape:connector-curvature="0"
         id="path4234"
         d="m 54.00028,277.99581 0,-13.99609 c 0,-0.55385 0.44926,-1.06088 0.99972,-0.99972 l 7.99777,0 1.99944,1.99944 8.04901,0 c 0,0 0.94848,0 0.94848,0.99972 l 0,11.99665 c 0,0.55384 -0.44588,0.99972 -0.99972,0.99972 l -17.99498,0 c -0.55385,0 -0.99972,-0.44587 -0.99972,-0.99972 z"
         style="fill:#929292;fill-opacity:1;stroke:none" />
      <path
         style="fill:#a5a5a5;fill-opacity:1;stroke:none"
         d="m 73.9947,279.99526 0,-13.9961 c 0,-0.55384 -0.44927,-1.06088 -0.99972,-0.99972 l -7.99777,0 -1.99944,1.99944 -7.99777,0 c -0.99972,0 -0.99972,0.95811 -0.99972,0.95811 l 0,12.03827 c 0,0.55384 0.44587,0.99972 0.99972,0.99972 l 17.99498,0 c 0.55384,0 0.99972,-0.44588 0.99972,-0.99972 z"
         id="path4236"
         inkscape:connector-curvature="0"
         sodipodi:nodetypes="sssccccssss" />
      <path
         inkscape:connector-curvature="0"
         id="path4244"
         d="M 54.8125,263 C 54.35775,263.0636 54,263.51538 54,264 l 0,1 c 0,-0.55385 0.44954,-1.06116 1,-1 l 8,0 1.5,1.5 0.5,-0.5 -2,-2 -8,0 c -0.0688,-0.008 -0.12253,-0.009 -0.1875,0 z m 18.90625,2.3125 C 73.88835,265.49935 74,265.73326 74,266 c 0,-0.34007 -0.13332,-0.5394 -0.28125,-0.6875 z M 73.03125,266 c 0,0 0.18813,0.0313 0.40625,0.125 -0.12901,-0.0664 -0.25219,-0.13564 -0.40625,-0.125 z"
         style="opacity:0.2;fill:#ffffff;fill-opacity:1;stroke:none" />
      <path
         inkscape:connector-curvature="0"
         id="path4246"
         d="m 65,265 -2,2 -8,0 c -0.99972,0 -1,0.96875 -1,0.96875 l 0,1 c 0,0 2.8e-4,-0.96875 1,-0.96875 l 8,0 2,-2 8,0 c 0.55046,-0.0612 1,0.44616 1,1 l 0,-1 c 0,-0.55384 -0.44954,-1.06116 -1,-1 l -8,0 z"
         style="opacity:0.1;fill:#ffffff;fill-opacity:1;stroke:none" />
      <path
         sodipodi:nodetypes="ccsccsccc"
         inkscape:connector-curvature="0"
         id="path4260"
         d="m 64.5,264.5 -1.5,1.5 -8,0 c -0.99972,0 -1,0.96875 -1,0.96875 l 0,1 c 0,0 2.8e-4,-0.96875 1,-0.96875 l 8,0 2,-2 z"
         style="opacity:0.1;fill:#000000;fill-opacity:1;stroke:none" />
      <path
         style="opacity:0.4;fill:none;stroke:none"
         d="m 54.875,263.5 c -0.57873,0.25534 -0.31486,0.96999 -0.375,1.46873 0,5.01043 0,10.02085 0,15.03127 0.06,0.68358 0.83869,0.46293 1.30728,0.5 5.73091,0 11.46181,0 17.19272,0 0.68358,-0.06 0.46293,-0.83869 0.5,-1.30728 -0.006,-4.44195 0.0131,-8.88485 -0.01,-13.3262 -0.12776,-0.48918 -0.58894,-0.34535 -0.9971,-0.36647 -2.57061,0 -5.14121,0 -7.71182,0 -0.62405,-0.6955 -1.31742,-1.32896 -1.96875,-2.00005 -2.64583,0 -5.29166,0 -7.9375,0 z"
         id="path4290"
         inkscape:connector-curvature="0" />
      <path
         style="opacity:0.05;fill:#000000;fill-opacity:1;stroke:none"
         d="m 169,246 -3,3 -16,0 c -2,0 -2,1.90625 -2,1.90625 l 0,1 c 0,0 0,-1.90625 2,-1.90625 l 16,0 3.5,-3.5 z"
         id="path4518"
         inkscape:connector-curvature="0"
         sodipodi:nodetypes="ccsccsccc" />
      <path
         style="opacity:0.1;fill:#ffffff;fill-opacity:1;stroke:none"
         d="m 24.99805,271 -2,1.99805 -5.99805,0 c -0.99972,0 -1,0.95898 -1,0.95898 l 0,1 c 0,0 2.8e-4,-0.95898 1,-0.95898 l 5.99805,0 2,-1.99805 5.99609,0 c 0.55385,0 1,0.44616 1,1 l 0,-1 c 0,-0.55384 -0.44615,-1 -1,-1 l -5.99609,0 z"
         id="path4604"
         inkscape:connector-curvature="0" />
      <path
         style="opacity:0.1;fill:#ffffff;fill-opacity:1;stroke:none"
         d="m 17.00195,269 c -0.55384,0 -1,0.44616 -1,1 l 0,1 c 0,-0.55384 0.44616,-1 1,-1 l 5.9961,0 1.5,1.5 0.5,-0.5 5.99609,0 c 0.41382,0 0.76752,0.24851 0.91992,0.60547 -0.097,-0.27545 -0.32126,-0.60742 -0.91797,-0.60742 l -5.99804,0 -2,-1.99805 -5.9961,0 z m 14.91602,2.61914 c 0.0481,0.1173 0.0762,0.24586 0.0762,0.38086 l 0,0.9375 c 3e-5,0.002 0.002,0.0195 0.002,0.0195 l 0,-1 c 0,0 -0.0175,-0.15817 -0.0781,-0.33789 z"
         id="path4609"
         inkscape:connector-curvature="0" />
      <path
         style="opacity:0.1;fill:#000000;fill-opacity:1;stroke:none"
         d="m 24.49721,270.49944 -1.49916,1.49861 -5.99805,0 c -0.99972,0 -1,0.95898 -1,0.95898 l 0,1 c 0,0 2.8e-4,-0.95898 1,-0.95898 l 5.99805,0 1.99916,-1.99861 z"
         id="path4713"
         inkscape:connector-curvature="0"
         sodipodi:nodetypes="ccsccsccc" />
      <path
         style="opacity:0.1;fill:#000000;fill-opacity:1;stroke:none"
         d="m 98,278.50195 0,1 C 98,280.33203 98.66796,281 99.49805,281 l 24.97265,0 c 0.83008,0 1.49805,-0.66797 1.49805,-1.49805 l 0,-1 c 0,0.83008 -0.66797,1.49805 -1.49805,1.49805 l -24.97265,0 C 98.66796,280 98,279.33203 98,278.50195 Z"
         id="path4515"
         inkscape:connector-curvature="0" />
      <path
         style="opacity:0.1;fill:#000000;fill-opacity:1;stroke:none"
         d="m 148,275 0,1 c 0,1.10799 0.892,2 2,2 l 36,0 c 1.108,0 2,-0.892 2,-2 l 0,-1 c 0,1.108 -0.892,2 -2,2 l -36,0 c -1.108,0 -2,-0.89201 -2,-2 z"
         id="path4520"
         inkscape:connector-curvature="0" />
      <path
         style="opacity:0.1;fill:#000000;fill-opacity:1;stroke:none"
         d="m 16,282 0,1 c 0,0.55384 0.44615,0.99805 1,0.99805 l 13.99414,0 c 0.55385,0 1,-0.44421 1,-0.99805 l 0,-1 c 0,0.55384 -0.44615,0.99805 -1,0.99805 l -13.99414,0 c -0.55385,0 -1,-0.44421 -1,-0.99805 z"
         id="path4542"
         inkscape:connector-curvature="0"
         sodipodi:nodetypes="csssscssc" />
      <path
         style="opacity:0.1;fill:#000000;fill-opacity:1;stroke:none"
         d="m 54,278.99609 0,1 c 0,0.55384 0.44615,0.99805 1,0.99805 l 17.99414,0 c 0.55385,0 1,-0.44421 1,-0.99805 l 0,-1 c 0,0.55384 -0.44615,0.99805 -1,0.99805 l -17.99414,0 c -0.55385,0 -1,-0.44421 -1,-0.99805 z"
         id="path4544"
         inkscape:connector-curvature="0" />
      <path
         inkscape:connector-curvature="0"
         id="path5324"
         d="m 550.9902,14.929688 0,0.01172 a 12.0012,12.0012 0 0 0 -0.5996,0.01367 c -0.055,0.0026 -0.107,-0.01083 -0.1621,-0.0078 a 12.0012,12.0012 0 0 0 -4.5469,1.1875 c -6.8507,2.226973 -12.0351,7.463714 -13.8691,14.734375 l 0.248,-0.853516 -13.2988,39.957031 -41.4258,0 c -6.6893,0 -12.1852,3.069039 -16.0078,7.703125 -8.5965,9.896278 -6.7676,24.032437 4.0957,31.417967 l -0.3554,-0.25 33.4179,24.54102 -12.875,40.20507 a 12.0012,12.0012 0 0 0 -0.1113,0.36524 c -2.6652,9.33567 2.1505,17.72978 8.0957,22.19531 5.9452,4.46553 15.3663,6.75098 23.584,1.56836 a 12.0012,12.0012 0 0 0 0.7012,-0.47852 l 34.0117,-24.97461 34.0156,24.97461 a 12.0012,12.0012 0 0 0 0.5273,0.36719 c 8.2894,5.42764 18.393,4.61371 25.7305,-1.9414 a 12.0012,12.0012 0 0 0 0.1543,-0.13868 c 6.0917,-5.63453 8.3436,-13.74869 5.9199,-21.75 a 12.0012,12.0012 0 0 0 -0.059,-0.18164 l -12.8789,-40.20508 33.4161,-24.54101 -0.3731,0.26367 c 10.8802,-7.37172 12.6897,-21.511677 4.1367,-31.396481 -3.9363,-4.799512 -9.4582,-7.528785 -15.6386,-7.730469 a 12.0012,12.0012 0 0 0 -0.3907,-0.0059 l -42.166,0 -12.5019,-39.763672 0.1484,0.511719 c -1.0188,-3.826803 -3.0378,-7.190288 -5.9414,-9.917969 -3.5638,-3.411727 -8.0715,-5.356305 -12.9434,-5.730469 a 12.0012,12.0012 0 0 0 -1.584,-0.142578 12.0012,12.0012 0 0 0 -0.1679,-0.0059 l -0.3067,-0.002 z m 0.8164,31.759765 11.6817,37.158203 a 12.0012,12.0012 0 0 0 6.0312,7.109375 l 3.4258,1.732422 a 12.0012,12.0012 0 0 0 5.416,1.291016 l 40.0586,0 -32.5488,23.904301 a 12.0012,12.0012 0 0 0 -4.6582,7.28711 c 0.6496,-3.2026 0.4671,-1.71797 -0.3535,0.25781 -0.4103,0.98789 -1.3219,2.18846 -1.1914,6.08789 0.044,1.3283 0.5708,3.15128 1.4336,4.99804 l 11.4863,35.85547 -31.1211,-22.84961 a 12.0012,12.0012 0 0 0 -7.1016,-2.32812 l -4.9472,0 a 12.0012,12.0012 0 0 0 -7.1016,2.32812 l -31.1133,22.84766 11.8594,-37.0332 a 12.0012,12.0012 0 0 0 0.3418,-5.9961 l -0.8184,-4.12695 a 12.0012,12.0012 0 0 0 -4.6679,-7.33594 l -32.5508,-23.904294 39.1992,0 a 12.0012,12.0012 0 0 0 5.416,-1.291015 l 3.4258,-1.732422 a 12.0012,12.0012 0 0 0 5.9707,-6.919922 l 12.4277,-37.339844 z"
         style="color:#000000;font-style:normal;font-variant:normal;font-weight:normal;font-stretch:normal;font-size:medium;line-height:normal;font-family:sans-serif;text-indent:0;text-align:start;text-decoration:none;text-decoration-line:none;text-decoration-style:solid;text-decoration-color:#000000;letter-spacing:normal;word-spacing:normal;text-transform:none;direction:ltr;block-progression:tb;writing-mode:lr-tb;baseline-shift:baseline;text-anchor:start;white-space:normal;clip-rule:nonzero;display:inline;overflow:visible;visibility:visible;opacity:0.2;isolation:auto;mix-blend-mode:normal;color-interpolation:sRGB;color-interpolation-filters:linearRGB;solid-color:#000000;solid-opacity:1;fill:#000000;fill-opacity:1;fill-rule:nonzero;stroke:none;stroke-width:24;stroke-linecap:round;stroke-linejoin:round;stroke-miterlimit:4;stroke-dasharray:none;stroke-dashoffset:0;stroke-opacity:1;filter:url(#filter5326);color-rendering:auto;image-rendering:auto;shape-rendering:auto;text-rendering:auto;enable-background:new" />
      <path
         inkscape:connector-curvature="0"
         id="path5320"
         style="display:inline;fill:none;stroke:#ffffff;stroke-width:24;stroke-linecap:round;stroke-linejoin:round;stroke-miterlimit:4;stroke-dasharray:none;stroke-opacity:1;enable-background:new"
         d="m 551.1776,24.926381 c -3.6316,0.468012 -6.8338,3.323833 -7.7305,6.878717 l -15.4549,46.435333 -3.4255,1.732591 -47.2309,0 c -2.6401,0 -5.2164,1.375791 -6.8714,3.4393 -3.4813,3.902112 -2.6087,10.824677 1.7063,13.758258 l 38.6448,28.3781 0.8191,4.12749 -14.5948,45.57293 c -2.0306,7.11273 7.4866,14.26221 13.7393,10.31885 l 38.6394,-28.3742 4.9464,0 38.6448,28.3742 c 3.3616,2.20107 8.1754,1.81685 11.1616,-0.85093 2.5284,-2.33864 3.5829,-6.16051 2.5834,-9.46023 l -14.5995,-45.57282 c -1.3822,-0.27774 0.5402,-2.75182 0.8191,-4.12679 l 38.6404,-28.37892 c 4.3284,-2.932635 5.1858,-9.856262 1.7063,-13.758256 -1.6416,-2.062445 -4.2286,-3.353261 -6.8688,-3.439418 l -48.0908,0 -3.4254,-1.732473 -14.5986,-46.432379 c -0.4325,-1.624569 -1.3399,-3.143009 -2.5843,-4.300867 -1.8136,-1.760364 -4.3537,-2.724045 -6.8679,-2.586359 l 0.306,0.0027 0,0 0,0 z" />
      <g
         transform="translate(-752,0)"
         id="g5312">
        <path
           d="m 928.5671,260.10993 c -0.30728,0.0396 -0.57822,0.28124 -0.6541,0.58203 l -1.30766,3.92904 -0.28983,0.1466 -3.99628,0 c -0.22339,0 -0.44137,0.11641 -0.58141,0.29101 -0.29455,0.33017 -0.22072,0.91591 0.14438,1.16413 l 3.2698,2.40116 0.0693,0.34924 -1.23489,3.85607 c -0.17181,0.60183 0.63345,1.20677 1.16251,0.87311 l 3.26934,-2.40083 0.41852,0 3.2698,2.40083 c 0.28442,0.18624 0.69173,0.15373 0.94439,-0.072 0.21394,-0.19788 0.30316,-0.52126 0.21859,-0.80046 l -1.23528,-3.85606 c -0.11696,-0.0235 0.0457,-0.23284 0.0693,-0.34918 l 3.26942,-2.40123 c 0.36624,-0.24814 0.43878,-0.83397 0.14438,-1.16413 -0.1389,-0.17451 -0.35779,-0.28373 -0.58118,-0.29102 l -4.06904,0 -0.28983,-0.14659 -1.23521,-3.92879 c -0.0366,-0.13746 -0.11337,-0.26594 -0.21866,-0.36391 -0.15345,-0.14895 -0.36838,-0.23049 -0.58111,-0.21884 l 0.0259,2.3e-4 0,0 0,0 z"
           style="display:inline;opacity:0.2;fill:none;stroke:#000000;stroke-width:1.52384651;stroke-linecap:round;stroke-linejoin:round;stroke-opacity:1;enable-background:new"
           id="path5285"
           inkscape:connector-curvature="0" />
        <path
           inkscape:connector-curvature="0"
           id="path9741"
           style="display:inline;fill:none;stroke:#ffffff;stroke-width:1.52384651;stroke-linecap:round;stroke-linejoin:round;stroke-opacity:1;enable-background:new"
           d="m 928.5671,259.10993 c -0.30728,0.0396 -0.57822,0.28124 -0.6541,0.58203 l -1.30766,3.92904 -0.28983,0.1466 -3.99628,0 c -0.22339,0 -0.44137,0.11641 -0.58141,0.29101 -0.29455,0.33017 -0.22072,0.91591 0.14438,1.16413 l 3.2698,2.40116 0.0693,0.34924 -1.23489,3.85607 c -0.17181,0.60183 0.63345,1.20677 1.16251,0.87311 l 3.26934,-2.40083 0.41852,0 3.2698,2.40083 c 0.28442,0.18624 0.69173,0.15373 0.94439,-0.072 0.21394,-0.19788 0.30316,-0.52126 0.21859,-0.80046 l -1.23528,-3.85606 c -0.11696,-0.0235 0.0457,-0.23284 0.0693,-0.34918 l 3.26942,-2.40123 c 0.36624,-0.24814 0.43878,-0.83397 0.14438,-1.16413 -0.1389,-0.17451 -0.35779,-0.28373 -0.58118,-0.29102 l -4.06904,0 -0.28983,-0.14659 -1.23521,-3.92879 c -0.0366,-0.13746 -0.11337,-0.26594 -0.21866,-0.36391 -0.15345,-0.14895 -0.36838,-0.23049 -0.58111,-0.21884 l 0.0259,2.3e-4 0,0 0,0 z" />
      </g>
      <path
         id="path5296"
         d="m 118.02162,268.51225 c -0.1969,0.0258 -0.3706,0.18038 -0.4192,0.3733 l -0.838,2.51923 c 0,0 -0.0704,0.13773 -0.1861,0.0946 l -2.5611,0 c -0.1432,0 -0.2829,0.075 -0.3726,0.18659 -0.1888,0.21167 -0.1415,0.58732 0.092,0.74649 l 2.0956,1.53962 0.044,0.22386 -0.7915,2.47246 c -0.1101,0.38596 0.406,0.7738 0.7451,0.55978 l 2.0953,-1.53938 0.2682,0 2.0956,1.53938 c 0.1822,0.11943 0.4433,0.0985 0.6052,-0.0469 0.1371,-0.12682 0.1943,-0.33416 0.14,-0.51325 l -0.7916,-2.47246 c -0.075,-0.0152 0.029,-0.1492 0.044,-0.22387 l 2.0953,-1.53962 c 0.2347,-0.15916 0.2812,-0.53469 0.092,-0.74636 -0.089,-0.11252 -0.2293,-0.18203 -0.3724,-0.18671 l -2.6078,0 c -0.19674,0.0166 -0.12196,-0.0612 -0.1861,-0.0934 l -0.7917,-2.51911 c -0.023,-0.0879 -0.073,-0.17042 -0.1401,-0.23336 -0.098,-0.0961 -0.2361,-0.14779 -0.3725,-0.14029 l 0.016,1.1e-4 -7e-4,0 z"
         style="display:inline;opacity:0.2;fill:none;stroke:#000000;stroke-width:1;stroke-linecap:round;stroke-linejoin:round;stroke-opacity:1;enable-background:new"
         inkscape:connector-curvature="0"
         sodipodi:nodetypes="ccccscccccccccccccccccccccccc" />
      <path
         sodipodi:nodetypes="ccccscccccccccccccccccccccccc"
         inkscape:connector-curvature="0"
         style="display:inline;fill:none;stroke:#ffffff;stroke-width:1;stroke-linecap:round;stroke-linejoin:round;stroke-opacity:1;enable-background:new"
         d="m 118.02162,267.51225 c -0.1969,0.0258 -0.3706,0.18038 -0.4192,0.3733 l -0.838,2.51923 c 0,0 -0.0704,0.13773 -0.1861,0.0946 l -2.5611,0 c -0.1432,0 -0.2829,0.075 -0.3726,0.18659 -0.1888,0.21167 -0.1415,0.58732 0.092,0.74649 l 2.0956,1.53962 0.044,0.22386 -0.7915,2.47246 c -0.1101,0.38596 0.406,0.7738 0.7451,0.55978 l 2.0953,-1.53938 0.2682,0 2.0956,1.53938 c 0.1822,0.11943 0.4433,0.0985 0.6052,-0.0469 0.1371,-0.12682 0.1943,-0.33416 0.14,-0.51325 l -0.7916,-2.47246 c -0.075,-0.0152 0.029,-0.1492 0.044,-0.22387 l 2.0953,-1.53962 c 0.2347,-0.15916 0.2812,-0.53469 0.092,-0.74636 -0.089,-0.11252 -0.2293,-0.18203 -0.3724,-0.18671 l -2.6078,0 c -0.19674,0.0166 -0.12196,-0.0612 -0.1861,-0.0934 l -0.7917,-2.51911 c -0.023,-0.0879 -0.073,-0.17042 -0.1401,-0.23336 -0.098,-0.0961 -0.2361,-0.14779 -0.3725,-0.14029 l 0.016,1.1e-4 -7e-4,0 z"
         id="path7850" />
      <path
         sodipodi:nodetypes="ccccscccccccccccccccccccccccc"
         inkscape:connector-curvature="0"
         style="display:inline;opacity:0.2;fill:none;stroke:#000000;stroke-width:0.99999994;stroke-linecap:round;stroke-linejoin:round;stroke-opacity:1;enable-background:new"
         d="m 67.88535,272.2072 c -0.15132,0.0198 -0.2848,0.1386 -0.32215,0.28684 l -0.644,1.9358 c 0,0 -0.0541,0.10583 -0.14302,0.0727 l -1.96819,0 c -0.11005,0 -0.21741,0.0576 -0.28634,0.14338 -0.14509,0.16265 -0.10874,0.4513 0.0707,0.57361 l 1.61046,1.18306 0.0338,0.17201 -0.60826,1.89987 c -0.0846,0.29657 0.31201,0.59459 0.5726,0.43014 l 1.61023,-1.18288 0.20611,0 1.61046,1.18288 c 0.14002,0.0918 0.34067,0.0757 0.46509,-0.036 0.10536,-0.0974 0.14932,-0.25677 0.10759,-0.39439 l -0.60834,-1.89986 c -0.0576,-0.0117 0.0223,-0.11465 0.0338,-0.17202 l 1.61022,-1.18306 c 0.18037,-0.1223 0.2161,-0.41086 0.0707,-0.57351 -0.0684,-0.0865 -0.17621,-0.13987 -0.28618,-0.14347 l -2.00408,0 c -0.1512,0.0128 -0.0937,-0.047 -0.14302,-0.0718 l -0.60842,-1.93571 c -0.0177,-0.0675 -0.0561,-0.13095 -0.10767,-0.17931 -0.0753,-0.0738 -0.18144,-0.11357 -0.28626,-0.1078 l 0.0123,8e-5 -5.4e-4,0 z"
         id="path5310" />
      <path
         id="path5300"
         d="m 67.88535,271.2072 c -0.15132,0.0198 -0.2848,0.1386 -0.32215,0.28684 l -0.644,1.9358 c 0,0 -0.0541,0.10583 -0.14302,0.0727 l -1.96819,0 c -0.11005,0 -0.21741,0.0576 -0.28634,0.14338 -0.14509,0.16265 -0.10874,0.4513 0.0707,0.57361 l 1.61046,1.18306 0.0338,0.17201 -0.60826,1.89987 c -0.0846,0.29657 0.31201,0.59459 0.5726,0.43014 l 1.61023,-1.18288 0.20611,0 1.61046,1.18288 c 0.14002,0.0918 0.34067,0.0757 0.46509,-0.036 0.10536,-0.0974 0.14932,-0.25677 0.10759,-0.39439 l -0.60834,-1.89986 c -0.0576,-0.0117 0.0223,-0.11465 0.0338,-0.17202 l 1.61022,-1.18306 c 0.18037,-0.1223 0.2161,-0.41086 0.0707,-0.57351 -0.0684,-0.0865 -0.17621,-0.13987 -0.28618,-0.14347 l -2.00408,0 c -0.1512,0.0128 -0.0937,-0.047 -0.14302,-0.0718 l -0.60842,-1.93571 c -0.0177,-0.0675 -0.0561,-0.13095 -0.10767,-0.17931 -0.0753,-0.0738 -0.18144,-0.11357 -0.28626,-0.1078 l 0.0123,8e-5 -5.4e-4,0 z"
         style="display:inline;fill:none;stroke:#ffffff;stroke-width:0.99999994;stroke-linecap:round;stroke-linejoin:round;stroke-opacity:1;enable-background:new"
         inkscape:connector-curvature="0"
         sodipodi:nodetypes="ccccscccccccccccccccccccccccc" />
      <path
         style="color:#000000;font-style:normal;font-variant:normal;font-weight:normal;font-stretch:normal;font-size:medium;line-height:normal;font-family:Sans;-inkscape-font-specification:Sans;text-indent:0;text-align:start;text-decoration:none;text-decoration-line:none;letter-spacing:normal;word-spacing:normal;text-transform:none;direction:ltr;block-progression:tb;writing-mode:lr-tb;baseline-shift:baseline;text-anchor:start;display:inline;overflow:visible;visibility:visible;opacity:0.2;fill:#000000;fill-opacity:1;stroke:none;stroke-width:2;marker:none;enable-background:accumulate"
         d="m 26.56323,276.92382 c 0.73619,0 0.19932,1.62784 0.79492,2.06055 0.59553,0.43265 1.9777,-0.58096 2.20508,0.11914 0.22746,0.70034 -1.48722,0.69229 -1.71484,1.39258 -0.22763,0.70031 1.16424,1.70213 0.56836,2.13477 -0.59576,0.43256 -1.11728,-1.20118 -1.85352,-1.20118 -0.73623,0 -1.25775,1.63374 -1.85351,1.20118 -0.59589,-0.43264 0.79598,-1.43446 0.56836,-2.13477 -0.22762,-0.70029 -1.94231,-0.69224 -1.71485,-1.39258 0.22739,-0.7001 1.60955,0.31351 2.20508,-0.11914 0.5956,-0.43271 0.0587,-2.06055 0.79492,-2.06055 z"
         id="path5308"
         inkscape:connector-curvature="0"
         sodipodi:nodetypes="sssssssssss" />
      <path
         sodipodi:nodetypes="sssssssssss"
         inkscape:connector-curvature="0"
         id="path5856"
         d="m 26.56323,275.92382 c 0.73619,0 0.19932,1.62784 0.79492,2.06055 0.59553,0.43265 1.9777,-0.58096 2.20508,0.11914 0.22746,0.70034 -1.48722,0.69229 -1.71484,1.39258 -0.22763,0.70031 1.16424,1.70213 0.56836,2.13477 -0.59576,0.43256 -1.11728,-1.20118 -1.85352,-1.20118 -0.73623,0 -1.25775,1.63374 -1.85351,1.20118 -0.59589,-0.43264 0.79598,-1.43446 0.56836,-2.13477 -0.22762,-0.70029 -1.94231,-0.69224 -1.71485,-1.39258 0.22739,-0.7001 1.60955,0.31351 2.20508,-0.11914 0.5956,-0.43271 0.0587,-2.06055 0.79492,-2.06055 z"
         style="color:#000000;font-style:normal;font-variant:normal;font-weight:normal;font-stretch:normal;font-size:medium;line-height:normal;font-family:Sans;-inkscape-font-specification:Sans;text-indent:0;text-align:start;text-decoration:none;text-decoration-line:none;letter-spacing:normal;word-spacing:normal;text-transform:none;direction:ltr;block-progression:tb;writing-mode:lr-tb;baseline-shift:baseline;text-anchor:start;display:inline;overflow:visible;visibility:visible;fill:#ffffff;fill-opacity:1;stroke:none;stroke-width:2;marker:none;enable-background:accumulate" />
    </g>
  </g>
</svg>
