<?xml version="1.0" encoding="UTF-8" standalone="no"?>
<!-- Created with Inkscape (http://www.inkscape.org/) -->

<svg
   xmlns:osb="http://www.openswatchbook.org/uri/2009/osb"
   xmlns:dc="http://purl.org/dc/elements/1.1/"
   xmlns:cc="http://creativecommons.org/ns#"
   xmlns:rdf="http://www.w3.org/1999/02/22-rdf-syntax-ns#"
   xmlns:svg="http://www.w3.org/2000/svg"
   xmlns="http://www.w3.org/2000/svg"
   xmlns:sodipodi="http://sodipodi.sourceforge.net/DTD/sodipodi-0.dtd"
   xmlns:inkscape="http://www.inkscape.org/namespaces/inkscape"
   inkscape:export-ydpi="90.000000"
   inkscape:export-xdpi="90.000000"
   width="736"
   height="544"
   id="svg11300"
   sodipodi:version="0.32"
   inkscape:version="0.91 r13725"
   sodipodi:docname="ubuntu-sdk.svg"
   inkscape:output_extension="org.inkscape.output.svg.inkscape"
   version="1.0"
   style="display:inline;enable-background:new"
   inkscape:export-filename="/home/sam/paper-template.png">
  <sodipodi:namedview
     stroke="#646464"
     fill="#909090"
     id="base"
     pagecolor="#474747"
     bordercolor="#666666"
     borderopacity="0.25490196"
     inkscape:pageopacity="0"
     inkscape:pageshadow="2"
     inkscape:zoom="1"
     inkscape:cx="522.34313"
     inkscape:cy="332.31504"
     inkscape:current-layer="layer6"
     showgrid="false"
     inkscape:grid-bbox="true"
     inkscape:document-units="px"
     inkscape:showpageshadow="false"
     inkscape:window-width="1316"
     inkscape:window-height="698"
     inkscape:window-x="25"
     inkscape:window-y="45"
     width="400px"
     height="300px"
     inkscape:snap-nodes="true"
     inkscape:snap-bbox="true"
     gridtolerance="10000"
     inkscape:object-nodes="true"
     inkscape:snap-grids="true"
     showguides="true"
     inkscape:guide-bbox="true"
     inkscape:window-maximized="1"
     inkscape:bbox-nodes="true"
     inkscape:snap-bbox-edge-midpoints="false"
     inkscape:object-paths="true"
     inkscape:snap-intersection-paths="true"
     inkscape:snap-smooth-nodes="true"
     inkscape:snap-global="true"
     inkscape:snap-bbox-midpoints="true">
    <inkscape:grid
       snapvisiblegridlinesonly="true"
       empspacing="4"
       visible="true"
       enabled="true"
       type="xygrid"
       id="grid5883"
       spacingx="1px"
       spacingy="1px" />
    <inkscape:grid
       snapvisiblegridlinesonly="true"
       empopacity="0.25098039"
       empcolor="#ff0000"
       opacity="0.1254902"
       color="#ff0000"
       spacingy="0.5px"
       spacingx="0.5px"
       enabled="false"
       visible="true"
       empspacing="2"
       id="grid11592"
       type="xygrid" />
  </sodipodi:namedview>
  <title
     id="title3004">Paper Icon Theme</title>
  <defs
     id="defs3">
    <clipPath
       id="clipPath4401"
       clipPathUnits="userSpaceOnUse">
      <path
         style="fill:#cbcbcb;fill-opacity:1;stroke:none"
         d="m 416,108 c -4.432,0 -8,3.568 -8,8 l 0,144 c 0,4.432 3.568,8 8,8 l 96,0 56,-56 0,-96 c 0,-4.432 -3.568,-8 -8,-8 z"
         id="path4403"
         inkscape:connector-curvature="0"
         sodipodi:nodetypes="ssssccsss" />
    </clipPath>
    <clipPath
       id="clipPath4415"
       clipPathUnits="userSpaceOnUse">
      <path
         style="fill:#cbcbcb;fill-opacity:1;stroke:none"
         d="m 292,196 c -2.216,0 -4,1.784 -4,4 l 0,72 c 0,2.216 1.784,4 4,4 l 44,0 32,-32 0,-44 c 0,-2.216 -1.784,-4 -4,-4 z"
         id="path4417"
         inkscape:connector-curvature="0"
         sodipodi:nodetypes="ssssccsss" />
    </clipPath>
    <clipPath
       id="clipPath4463"
       clipPathUnits="userSpaceOnUse">
      <path
         style="fill:#cbcbcb;fill-opacity:1;stroke:none"
         d="m 207,224 c -1.662,0 -3,1.338 -3,3 l 0,50 c 0,1.662 1.338,3 3,3 l 29,0 24,-24 0,-29 c 0,-1.662 -1.338,-3 -3,-3 z"
         id="path4465"
         inkscape:connector-curvature="0"
         sodipodi:nodetypes="ssssccsss" />
    </clipPath>
    <filter
       height="1.24"
       y="-0.12"
       width="1.24"
       x="-0.12"
       id="filter4467"
       style="color-interpolation-filters:sRGB"
       inkscape:collect="always">
      <feGaussianBlur
         id="feGaussianBlur4469"
         stdDeviation="1.2"
         inkscape:collect="always" />
    </filter>
    <clipPath
       id="clipPath4473"
       clipPathUnits="userSpaceOnUse">
      <path
         style="fill:#cbcbcb;fill-opacity:1;stroke:none"
         d="m 142,240 c -1.108,0 -2,0.892 -2,2 l 0,36 c 0,1.108 0.892,2 2,2 l 22,0 16,-16 0,-22 c 0,-1.108 -0.892,-2 -2,-2 z"
         id="path4475"
         inkscape:connector-curvature="0"
         sodipodi:nodetypes="ssssccsss" />
    </clipPath>
    <filter
       height="1.24"
       y="-0.12"
       width="1.24"
       x="-0.12"
       id="filter4477"
       style="color-interpolation-filters:sRGB"
       inkscape:collect="always">
      <feGaussianBlur
         id="feGaussianBlur4479"
         stdDeviation="0.8"
         inkscape:collect="always" />
    </filter>
    <clipPath
       id="clipPath4483"
       clipPathUnits="userSpaceOnUse">
      <path
         style="fill:#cbcbcb;fill-opacity:1;stroke:none"
         d="m 91.5,254 c -0.831,0 -1.5,0.669 -1.5,1.5 l 0,25 c 0,0.831 0.669,1.5 1.5,1.5 l 16.5,0 10,-10 0,-16.5 c 0,-0.831 -0.669,-1.5 -1.5,-1.5 z"
         id="path4485"
         inkscape:connector-curvature="0"
         sodipodi:nodetypes="ssssccsss" />
    </clipPath>
    <filter
       height="1.24"
       y="-0.12"
       width="1.24"
       x="-0.12"
       id="filter4487"
       style="color-interpolation-filters:sRGB"
       inkscape:collect="always">
      <feGaussianBlur
         id="feGaussianBlur4489"
         stdDeviation="0.5"
         inkscape:collect="always" />
    </filter>
    <clipPath
       id="clipPath4493"
       clipPathUnits="userSpaceOnUse">
      <path
         style="fill:#cbcbcb;fill-opacity:1;stroke:none"
         d="m 51,262 c -0.554,0 -1,0.446 -1,1 l 0,18 c 0,0.554 0.446,1 1,1 l 11,0 8,-8 0,-11 c 0,-0.554 -0.446,-1 -1,-1 z"
         id="path4495"
         inkscape:connector-curvature="0"
         sodipodi:nodetypes="ssssccsss" />
    </clipPath>
    <clipPath
       id="clipPath4499"
       clipPathUnits="userSpaceOnUse">
      <path
         style="display:inline;fill:#cbcbcb;fill-opacity:1;stroke:none;enable-background:new"
         d="m 17,268 c -0.554,0 -1,0.446 -1,1 l 0,14 c 0,0.554 0.446,1 1,1 l 9,0 6,-6 0,-9 c 0,-0.554 -0.446,-1 -1,-1 z"
         id="path4501"
         inkscape:connector-curvature="0"
         sodipodi:nodetypes="ssssccsss" />
    </clipPath>
    <linearGradient
       id="linearGradient5606"
       osb:paint="solid">
      <stop
         id="stop5608"
         offset="0"
         style="stop-color:#000000;stop-opacity:1;" />
    </linearGradient>
    <filter
       height="1.048"
       y="-0.024"
       width="1.048"
       x="-0.024"
       id="filter4331"
       style="color-interpolation-filters:sRGB"
       inkscape:collect="always">
      <feGaussianBlur
         id="feGaussianBlur4333"
         stdDeviation="0.56"
         inkscape:collect="always" />
    </filter>
  </defs>
  <metadata
     id="metadata4">
    <rdf:RDF>
      <cc:Work
         rdf:about="">
        <dc:format>image/svg+xml</dc:format>
        <dc:type
           rdf:resource="http://purl.org/dc/dcmitype/StillImage" />
        <dc:creator>
          <cc:Agent>
            <dc:title>Sam Hewitt</dc:title>
          </cc:Agent>
        </dc:creator>
        <dc:source />
        <cc:license
           rdf:resource="http://creativecommons.org/licenses/by-sa/3.0/" />
        <dc:title>Paper Icon Theme</dc:title>
        <dc:subject>
          <rdf:Bag />
        </dc:subject>
        <dc:date />
        <dc:rights>
          <cc:Agent>
            <dc:title />
          </cc:Agent>
        </dc:rights>
        <dc:publisher>
          <cc:Agent>
            <dc:title />
          </cc:Agent>
        </dc:publisher>
        <dc:identifier />
        <dc:relation />
        <dc:language />
        <dc:coverage />
        <dc:description />
        <dc:contributor>
          <cc:Agent>
            <dc:title />
          </cc:Agent>
        </dc:contributor>
      </cc:Work>
      <cc:Work
         rdf:about="">
        <dc:format>image/svg+xml</dc:format>
        <dc:type
           rdf:resource="http://purl.org/dc/dcmitype/StillImage" />
      </cc:Work>
      <cc:License
         rdf:about="http://creativecommons.org/licenses/by-sa/3.0/">
        <cc:permits
           rdf:resource="http://creativecommons.org/ns#Reproduction" />
        <cc:permits
           rdf:resource="http://creativecommons.org/ns#Distribution" />
        <cc:requires
           rdf:resource="http://creativecommons.org/ns#Notice" />
        <cc:requires
           rdf:resource="http://creativecommons.org/ns#Attribution" />
        <cc:permits
           rdf:resource="http://creativecommons.org/ns#DerivativeWorks" />
        <cc:requires
           rdf:resource="http://creativecommons.org/ns#ShareAlike" />
      </cc:License>
    </rdf:RDF>
  </metadata>
  <g
     transform="translate(0,244)"
     id="layer1"
     inkscape:label="Icon"
     inkscape:groupmode="layer"
     style="display:inline">
    <g
       inkscape:groupmode="layer"
       id="layer7"
       inkscape:label="Baseplate"
       style="display:none">
      <text
         id="context"
         inkscape:label="context"
         style="font-style:normal;font-variant:normal;font-weight:normal;font-stretch:normal;font-size:18px;font-family:'DejaVu Sans';-inkscape-font-specification:'DejaVu Sans';display:inline;fill:#000000;fill-opacity:1;stroke:none;enable-background:new"
         x="15.006836"
         xml:space="preserve"
         y="332.25586"><tspan
           id="tspan3933"
           sodipodi:role="line"
           x="15.006836"
           y="332.25586"
           style="font-style:normal;font-variant:normal;font-weight:normal;font-stretch:normal;font-family:'DejaVu Sans';-inkscape-font-specification:'DejaVu Sans'">apps</tspan></text>
      <text
         id="icon-name"
         inkscape:label="icon-name"
         sodipodi:linespacing="125%"
         style="font-style:normal;font-variant:normal;font-weight:bold;font-stretch:normal;font-size:18px;line-height:125%;font-family:'DejaVu Sans';-inkscape-font-specification:'DejaVu Sans Bold';text-align:start;writing-mode:lr-tb;text-anchor:start;display:inline;fill:#000000;fill-opacity:1;stroke:none;enable-background:new"
         x="142.48828"
         xml:space="preserve"
         y="332.25586"><tspan
           id="tspan3937"
           sodipodi:role="line"
           x="142.48828"
           y="332.25586"
           style="font-style:normal;font-variant:normal;font-weight:bold;font-stretch:normal;font-size:18px;font-family:'DejaVu Sans';-inkscape-font-specification:'DejaVu Sans Bold'">ubuntu-sdk</tspan></text>
      <rect
         transform="scale(-1,1)"
         inkscape:label="16x16"
         y="268"
         x="-32"
         height="16"
         width="16"
         id="rect16x16"
         style="display:inline;overflow:visible;visibility:visible;fill:#e9e9e9;fill-opacity:1;fill-rule:nonzero;stroke:none;stroke-width:2;marker:none;enable-background:accumulate" />
      <rect
         transform="scale(-1,1)"
         inkscape:label="24x24"
         y="260"
         x="-72"
         height="24"
         width="24"
         id="rect24x24"
         style="display:inline;overflow:visible;visibility:visible;fill:#e9e9e9;fill-opacity:1;fill-rule:nonzero;stroke:none;stroke-width:2;marker:none;enable-background:accumulate" />
      <rect
         transform="scale(-1,1)"
         inkscape:label="32x32"
         y="252"
         x="-128"
         height="32"
         width="32"
         id="rect32x32"
         style="display:inline;overflow:visible;visibility:visible;fill:#e9e9e9;fill-opacity:1;fill-rule:nonzero;stroke:none;stroke-width:2;marker:none;enable-background:accumulate" />
      <rect
         transform="scale(-1,1)"
         style="display:inline;overflow:visible;visibility:visible;fill:#e9e9e9;fill-opacity:1;fill-rule:nonzero;stroke:none;stroke-width:2;marker:none;enable-background:accumulate"
         id="rect48x48"
         width="48"
         height="48"
         x="-192"
         y="236"
         inkscape:label="48x48" />
      <rect
         transform="scale(-1,1)"
         inkscape:label="48x48"
         y="-228"
         x="-720"
         height="512"
         width="512"
         id="rect3951"
         style="display:inline;overflow:visible;visibility:visible;fill:#e9e9e9;fill-opacity:1;fill-rule:nonzero;stroke:none;stroke-width:2;marker:none;enable-background:accumulate" />
    </g>
    <g
       style="display:inline"
       inkscape:label="Symbols"
       id="layer6"
       inkscape:groupmode="layer">
      <path
         id="path4559"
         d="m 264,-194 c -13.296,0 -24,10.704 -24,24 l 0,400 c 0,13.296 10.704,24 24,24 l 232,0 192,-192 0,-232 c 0,-13.296 -10.704,-24 -24,-24 z"
         style="opacity:0.2;fill:#000000;fill-opacity:1;stroke:none"
         inkscape:connector-curvature="0"
         sodipodi:nodetypes="ssssccsss" />
      <path
         id="path4335"
         d="m 207,225 c -1.662,0 -3,1.338 -3,3 l 0,50 c 0,1.662 1.338,3 3,3 l 29,0 24,-24 0,-29 c 0,-1.662 -1.338,-3 -3,-3 z"
         style="opacity:0.1;fill:#000000;fill-opacity:1;stroke:#000000;stroke-opacity:1;filter:url(#filter4331)"
         inkscape:connector-curvature="0"
         sodipodi:nodetypes="ssssccsss"
         transform="matrix(8,0,0,8,-1392,-1992)" />
      <path
         sodipodi:nodetypes="ssssccsss"
         inkscape:connector-curvature="0"
         style="opacity:0.2;fill:#000000;fill-opacity:1;stroke:none"
         d="m 150,241 c -1.108,0 -2,0.892 -2,2 l 0,36 c 0,1.108 0.892,2 2,2 l 22,0 16,-16 0,-22 c 0,-1.108 -0.892,-2 -2,-2 z"
         id="path4231" />
      <path
         transform="matrix(8,0,0,8,-1392,-1992)"
         sodipodi:nodetypes="ssssccsss"
         inkscape:connector-curvature="0"
         style="opacity:0.2;fill:#000000;fill-opacity:1;stroke:none;filter:url(#filter4331)"
         d="m 207,225 c -1.662,0 -3,1.338 -3,3 l 0,50 c 0,1.662 1.338,3 3,3 l 29,0 24,-24 0,-29 c 0,-1.662 -1.338,-3 -3,-3 z"
         id="path4235" />
      <path
         sodipodi:nodetypes="ssssccsss"
         inkscape:connector-curvature="0"
         style="opacity:0.2;fill:#000000;fill-opacity:1;stroke:none"
         d="m 51,263 c -0.554,0 -1,0.446 -1,1 l 0,18 c 0,0.554 0.446,1 1,1 l 11,0 8,-8 0,-11 c 0,-0.554 -0.446,-1 -1,-1 z"
         id="path4237" />
      <path
         sodipodi:nodetypes="ssssccsss"
         inkscape:connector-curvature="0"
         style="opacity:0.2;fill:#000000;fill-opacity:1;stroke:none"
         d="m 99.5,255 c -0.831,0 -1.5,0.669 -1.5,1.5 l 0,25 c 0,0.831 0.669,1.5 1.5,1.5 l 16.5,0 10,-10 0,-16.5 c 0,-0.831 -0.669,-1.5 -1.5,-1.5 z"
         id="path4239" />
      <path
         sodipodi:nodetypes="ssssccsss"
         inkscape:connector-curvature="0"
         id="rect4203"
         d="m 150,240 c -1.108,0 -2,0.892 -2,2 l 0,36 c 0,1.108 0.892,2 2,2 l 22,0 16,-16 0,-22 c 0,-1.108 -0.892,-2 -2,-2 z"
         style="fill:#6e6e6e;fill-opacity:1;stroke:none" />
      <path
         sodipodi:nodetypes="ssssccsss"
         inkscape:connector-curvature="0"
         id="rect4243"
         transform="translate(0,76)"
         d="m 51,186 c -0.554,0 -1,0.446 -1,1 l 0,18 c 0,0.554 0.446,1 1,1 l 11,0 8,-8 0,-11 c 0,-0.554 -0.446,-1 -1,-1 z"
         style="fill:#6e6e6e;fill-opacity:1;stroke:none" />
      <path
         sodipodi:nodetypes="csscccscc"
         inkscape:connector-curvature="0"
         id="rect4255"
         d="m 100,254 c 0,0 -2,0 -2,2 l 0,24 c 0,2 2,2 2,2 l 16,0 10,-10 0,-16 c 0,-2 -2,-2 -2,-2 z"
         style="fill:#6e6e6e;fill-opacity:1;stroke:none" />
      <path
         sodipodi:nodetypes="ssssccsss"
         inkscape:connector-curvature="0"
         id="rect4265"
         transform="translate(0,76)"
         d="m 17,192 c -0.554,0 -1,0.446 -1,1 l 0,14 c 0,0.554 0.446,1 1,1 l 9,0 6,-6 0,-9 c 0,-0.554 -0.446,-1 -1,-1 z"
         style="display:inline;fill:#6e6e6e;fill-opacity:1;stroke:none;enable-background:new" />
      <path
         clip-path="url(#clipPath4493)"
         style="display:inline;opacity:0.05;fill:#000000;fill-opacity:1;stroke:#000000;stroke-width:2;stroke-linecap:butt;stroke-linejoin:miter;stroke-miterlimit:4;stroke-dasharray:none;stroke-opacity:1;enable-background:new"
         d="m 70,274 -8,8 0,-7 c 0,0 0,-1 1,-1 z"
         id="path4359"
         inkscape:connector-curvature="0"
         sodipodi:nodetypes="ccccc" />
      <path
         sodipodi:nodetypes="ccccc"
         inkscape:connector-curvature="0"
         id="path3315"
         d="m 70,274 -8,8 0,-7 c 0,0 0,-1 1,-1 z"
         style="display:inline;opacity:1;fill:#d1d1d1;fill-opacity:1;stroke:none;stroke-width:1px;stroke-linecap:butt;stroke-linejoin:miter;stroke-opacity:1;enable-background:new" />
      <path
         clip-path="url(#clipPath4499)"
         sodipodi:nodetypes="ccccc"
         inkscape:connector-curvature="0"
         id="path4361"
         d="m 32,278 -6,6 0,-5 c 0,0 0,-1 1,-1 z"
         style="display:inline;opacity:0.05;fill:#000000;fill-opacity:1;stroke:#000000;stroke-width:2;stroke-miterlimit:4;stroke-dasharray:none;stroke-opacity:1;enable-background:new" />
      <path
         style="display:inline;opacity:1;fill:#d1d1d1;fill-opacity:1;stroke:none;enable-background:new"
         d="m 32,278 -6,6 0,-5 c 0,0 0,-1 1,-1 z"
         id="path4088"
         inkscape:connector-curvature="0"
         sodipodi:nodetypes="ccccc" />
      <path
         transform="translate(8,0)"
         clip-path="url(#clipPath4483)"
         sodipodi:nodetypes="csscc"
         inkscape:connector-curvature="0"
         id="path4365"
         d="m 118,272 -8.5,0 c -0.82843,0 -1.5,0.67158 -1.5,1.5 l 0,8.5 z"
         style="display:inline;opacity:0.2;fill:#000000;fill-opacity:1;stroke:none;filter:url(#filter4487);enable-background:new" />
      <path
         style="display:inline;fill:#d1d1d1;fill-opacity:1;stroke:none;enable-background:new"
         d="m 126,272 -8.5,0 c -0.82843,0 -1.5,0.67158 -1.5,1.5 l 0,8.5 z"
         id="path4172"
         inkscape:connector-curvature="0"
         sodipodi:nodetypes="csscc" />
      <path
         sodipodi:nodetypes="sscsscsss"
         inkscape:connector-curvature="0"
         id="path4245"
         d="m 150,240 c -1.108,0 -2,0.892 -2,2 l 0,1 c 0,-1.108 0.892,-2 2,-2 l 36,0 c 1.108,0 2,0.892 2,2 l 0,-1 c 0,-1.108 -0.892,-2 -2,-2 z"
         style="opacity:0.1;fill:#ffffff;fill-opacity:1;stroke:none" />
      <path
         sodipodi:nodetypes="sscsscsss"
         inkscape:connector-curvature="0"
         id="path4251"
         transform="translate(0,76)"
         d="m 51,186 c -0.554,0 -1,0.446 -1,1 l 0,1 c 0,-0.554 0.446,-1 1,-1 l 18,0 c 0.554,0 1,0.446 1,1 l 0,-1 c 0,-0.554 -0.446,-1 -1,-1 z"
         style="opacity:0.1;fill:#ffffff;fill-opacity:1;stroke:none" />
      <path
         sodipodi:nodetypes="sscsscsss"
         inkscape:connector-curvature="0"
         id="path4253"
         d="m 100,254 c -0.831,0 -2,1.169 -2,2 l 0,1 c 0,-0.831 1.169,-2 2,-2 l 24,0 c 0.831,0 2,1.169 2,2 l 0,-1 c 0,-0.831 -1.169,-2 -2,-2 z"
         style="opacity:0.1;fill:#ffffff;fill-opacity:1;stroke:none" />
      <path
         sodipodi:nodetypes="sscsscsss"
         inkscape:connector-curvature="0"
         id="path4255"
         transform="translate(0,76)"
         d="m 17,192 c -0.554,0 -1,0.446 -1,1 l 0,1 c 0,-0.554 0.446,-1 1,-1 l 14,0 c 0.554,0 1,0.446 1,1 l 0,-1 c 0,-0.554 -0.446,-1 -1,-1 z"
         style="display:inline;opacity:0.1;fill:#ffffff;fill-opacity:1;stroke:none;enable-background:new" />
      <path
         inkscape:connector-curvature="0"
         id="path4322"
         transform="translate(0,76)"
         d="m 63,198 c -1,0 -1,1 -1,1 l 0,1 c 0,0 0,-1 1,-1 l 6,0 1,-1 -7,0 z"
         style="display:inline;opacity:0.1;fill:#ffffff;fill-opacity:1;stroke:none;stroke-width:1px;stroke-linecap:butt;stroke-linejoin:miter;stroke-opacity:1;enable-background:new" />
      <path
         inkscape:connector-curvature="0"
         id="path4324"
         transform="translate(0,76)"
         d="m 27,202 c -1,0 -1,1 -1,1 l 0,1 c 0,0 0,-1 1,-1 l 4,0 1,-1 -5,0 z"
         style="display:inline;opacity:0.1;fill:#ffffff;fill-opacity:1;stroke:none;enable-background:new" />
      <path
         inkscape:connector-curvature="0"
         id="path4328"
         d="m 117.5,272 c -0.82843,0 -1.5,0.67158 -1.5,1.5 l 0,1 c 0,-0.82842 0.67157,-1.5 1.5,-1.5 l 7.5,0 1,-1 -8.5,0 z"
         style="display:inline;opacity:0.2;fill:#ffffff;fill-opacity:1;stroke:none;enable-background:new" />
      <path
         sodipodi:nodetypes="ssssccsss"
         inkscape:connector-curvature="0"
         id="rect4229"
         d="m 264,-196 c -13.296,0 -24,10.704 -24,24 l 0,400 c 0,13.296 10.704,24 24,24 l 232,0 192,-192 0,-232 c 0,-13.296 -10.704,-24 -24,-24 z"
         style="fill:#6e6e6e;fill-opacity:1;stroke:none" />
      <g
         style="opacity:0.1"
         id="g4588">
        <path
           style="opacity:1;fill:none;fill-rule:evenodd;stroke:#ffffff;stroke-width:2;stroke-linecap:butt;stroke-linejoin:miter;stroke-miterlimit:4;stroke-dasharray:none;stroke-opacity:1"
           d="m 303,252 0,-448"
           id="path4213"
           inkscape:connector-curvature="0" />
        <path
           inkscape:connector-curvature="0"
           id="path4215"
           d="m 367,252 0,-448"
           style="opacity:1;fill:none;fill-rule:evenodd;stroke:#ffffff;stroke-width:2;stroke-linecap:butt;stroke-linejoin:miter;stroke-miterlimit:4;stroke-dasharray:none;stroke-opacity:1" />
        <path
           inkscape:connector-curvature="0"
           id="path4219"
           d="m 431,252 0,-448"
           style="opacity:1;fill:none;fill-rule:evenodd;stroke:#ffffff;stroke-width:2;stroke-linecap:butt;stroke-linejoin:miter;stroke-miterlimit:4;stroke-dasharray:none;stroke-opacity:1" />
        <path
           style="opacity:1;fill:none;fill-rule:evenodd;stroke:#ffffff;stroke-width:2;stroke-linecap:butt;stroke-linejoin:miter;stroke-miterlimit:4;stroke-dasharray:none;stroke-opacity:1"
           d="m 497,252 0,-448"
           id="path4221"
           inkscape:connector-curvature="0" />
        <path
           style="opacity:1;fill:none;fill-rule:evenodd;stroke:#ffffff;stroke-width:2;stroke-linecap:butt;stroke-linejoin:miter;stroke-miterlimit:4;stroke-dasharray:none;stroke-opacity:1"
           d="m 560,60 1,-256"
           id="path4225"
           inkscape:connector-curvature="0"
           sodipodi:nodetypes="cc" />
        <path
           inkscape:connector-curvature="0"
           id="path4227"
           d="m 624,60 0,-256"
           style="opacity:1;fill:none;fill-rule:evenodd;stroke:#ffffff;stroke-width:2;stroke-linecap:butt;stroke-linejoin:miter;stroke-miterlimit:4;stroke-dasharray:none;stroke-opacity:1"
           sodipodi:nodetypes="cc" />
        <path
           inkscape:connector-curvature="0"
           id="path4241"
           d="m 688,-132 -448,0"
           style="opacity:1;fill:none;fill-rule:evenodd;stroke:#ffffff;stroke-width:2;stroke-linecap:butt;stroke-linejoin:miter;stroke-miterlimit:4;stroke-dasharray:none;stroke-opacity:1" />
        <path
           style="opacity:1;fill:none;fill-rule:evenodd;stroke:#ffffff;stroke-width:2;stroke-linecap:butt;stroke-linejoin:miter;stroke-miterlimit:4;stroke-dasharray:none;stroke-opacity:1"
           d="m 688,-68 -448,0"
           id="path4243"
           inkscape:connector-curvature="0" />
        <path
           style="opacity:1;fill:none;fill-rule:evenodd;stroke:#ffffff;stroke-width:2;stroke-linecap:butt;stroke-linejoin:miter;stroke-miterlimit:4;stroke-dasharray:none;stroke-opacity:1"
           d="M 688,-4 240,-4"
           id="path4246"
           inkscape:connector-curvature="0" />
        <path
           inkscape:connector-curvature="0"
           id="path4248"
           d="M 688,62 240,62"
           style="opacity:1;fill:none;fill-rule:evenodd;stroke:#ffffff;stroke-width:2;stroke-linecap:butt;stroke-linejoin:miter;stroke-miterlimit:4;stroke-dasharray:none;stroke-opacity:1" />
        <path
           sodipodi:nodetypes="cc"
           inkscape:connector-curvature="0"
           id="path4250"
           d="m 496,125 -256,1"
           style="opacity:1;fill:none;fill-rule:evenodd;stroke:#ffffff;stroke-width:2;stroke-linecap:butt;stroke-linejoin:miter;stroke-miterlimit:4;stroke-dasharray:none;stroke-opacity:1" />
        <path
           sodipodi:nodetypes="cc"
           style="opacity:1;fill:none;fill-rule:evenodd;stroke:#ffffff;stroke-width:2;stroke-linecap:butt;stroke-linejoin:miter;stroke-miterlimit:4;stroke-dasharray:none;stroke-opacity:1"
           d="m 496,189 -256,0"
           id="path4252"
           inkscape:connector-curvature="0" />
        <path
           inkscape:connector-curvature="0"
           id="path4531"
           d="m 335,252 0,-448"
           style="opacity:1;fill:none;fill-rule:evenodd;stroke:#ffffff;stroke-width:2;stroke-linecap:butt;stroke-linejoin:miter;stroke-miterlimit:4;stroke-dasharray:none;stroke-opacity:1" />
        <path
           style="opacity:1;fill:none;fill-rule:evenodd;stroke:#ffffff;stroke-width:2;stroke-linecap:butt;stroke-linejoin:miter;stroke-miterlimit:4;stroke-dasharray:none;stroke-opacity:1"
           d="m 399,252 0,-448"
           id="path4533"
           inkscape:connector-curvature="0" />
        <path
           style="opacity:1;fill:none;fill-rule:evenodd;stroke:#ffffff;stroke-width:2;stroke-linecap:butt;stroke-linejoin:miter;stroke-miterlimit:4;stroke-dasharray:none;stroke-opacity:1"
           d="m 463,252 0,-448"
           id="path4535"
           inkscape:connector-curvature="0" />
        <path
           inkscape:connector-curvature="0"
           id="path4537"
           d="m 528,60 1,-256"
           style="opacity:1;fill:none;fill-rule:evenodd;stroke:#ffffff;stroke-width:2;stroke-linecap:butt;stroke-linejoin:miter;stroke-miterlimit:4;stroke-dasharray:none;stroke-opacity:1"
           sodipodi:nodetypes="cc" />
        <path
           sodipodi:nodetypes="cc"
           inkscape:connector-curvature="0"
           id="path4539"
           d="m 592,60 1,-256"
           style="opacity:1;fill:none;fill-rule:evenodd;stroke:#ffffff;stroke-width:2;stroke-linecap:butt;stroke-linejoin:miter;stroke-miterlimit:4;stroke-dasharray:none;stroke-opacity:1" />
        <path
           sodipodi:nodetypes="cc"
           style="opacity:1;fill:none;fill-rule:evenodd;stroke:#ffffff;stroke-width:2;stroke-linecap:butt;stroke-linejoin:miter;stroke-miterlimit:4;stroke-dasharray:none;stroke-opacity:1"
           d="m 656,60 0,-256"
           id="path4541"
           inkscape:connector-curvature="0" />
        <path
           style="opacity:1;fill:none;fill-rule:evenodd;stroke:#ffffff;stroke-width:2;stroke-linecap:butt;stroke-linejoin:miter;stroke-miterlimit:4;stroke-dasharray:none;stroke-opacity:1"
           d="m 271,252 0,-448"
           id="path4543"
           inkscape:connector-curvature="0" />
        <path
           style="opacity:1;fill:none;fill-rule:evenodd;stroke:#ffffff;stroke-width:2;stroke-linecap:butt;stroke-linejoin:miter;stroke-miterlimit:4;stroke-dasharray:none;stroke-opacity:1"
           d="m 688,-164 -448,0"
           id="path4545"
           inkscape:connector-curvature="0" />
        <path
           inkscape:connector-curvature="0"
           id="path4547"
           d="m 688,-100 -448,0"
           style="opacity:1;fill:none;fill-rule:evenodd;stroke:#ffffff;stroke-width:2;stroke-linecap:butt;stroke-linejoin:miter;stroke-miterlimit:4;stroke-dasharray:none;stroke-opacity:1" />
        <path
           inkscape:connector-curvature="0"
           id="path4549"
           d="m 688,-36 -448,0"
           style="opacity:1;fill:none;fill-rule:evenodd;stroke:#ffffff;stroke-width:2;stroke-linecap:butt;stroke-linejoin:miter;stroke-miterlimit:4;stroke-dasharray:none;stroke-opacity:1" />
        <path
           style="opacity:1;fill:none;fill-rule:evenodd;stroke:#ffffff;stroke-width:2;stroke-linecap:butt;stroke-linejoin:miter;stroke-miterlimit:4;stroke-dasharray:none;stroke-opacity:1"
           d="M 688,30 240,30"
           id="path4551"
           inkscape:connector-curvature="0" />
        <path
           style="opacity:1;fill:none;fill-rule:evenodd;stroke:#ffffff;stroke-width:2;stroke-linecap:butt;stroke-linejoin:miter;stroke-miterlimit:4;stroke-dasharray:none;stroke-opacity:1"
           d="M 496,93 240,94"
           id="path4553"
           inkscape:connector-curvature="0"
           sodipodi:nodetypes="cc" />
        <path
           inkscape:connector-curvature="0"
           id="path4555"
           d="m 496,157 -256,0"
           style="opacity:1;fill:none;fill-rule:evenodd;stroke:#ffffff;stroke-width:2;stroke-linecap:butt;stroke-linejoin:miter;stroke-miterlimit:4;stroke-dasharray:none;stroke-opacity:1"
           sodipodi:nodetypes="cc" />
        <path
           sodipodi:nodetypes="cc"
           style="opacity:1;fill:none;fill-rule:evenodd;stroke:#ffffff;stroke-width:2;stroke-linecap:butt;stroke-linejoin:miter;stroke-miterlimit:4;stroke-dasharray:none;stroke-opacity:1"
           d="m 496,221 -256,0"
           id="path4557"
           inkscape:connector-curvature="0" />
      </g>
      <path
         id="path4249"
         transform="translate(0,-244)"
         d="M 264 48 C 250.704 48 240 58.704 240 72 L 240 74 C 240 60.704 250.704 50 264 50 L 664 50 C 677.296 50 688 60.704 688 74 L 688 72 C 688 58.704 677.296 48 664 48 L 264 48 z "
         style="opacity:0.2;fill:#ffffff;fill-opacity:1;stroke:none" />
      <path
         transform="translate(8,0)"
         clip-path="url(#clipPath4473)"
         inkscape:connector-curvature="0"
         id="path4357"
         d="m 180,265 -14,0 c -1.10457,0 -2,0.89544 -2,2 l 0,14 z"
         style="display:inline;opacity:0.2;fill:#000000;fill-opacity:1;stroke:none;filter:url(#filter4477);enable-background:new"
         sodipodi:nodetypes="csscc" />
      <path
         sodipodi:nodetypes="csscc"
         style="display:inline;opacity:1;fill:#d1d1d1;fill-opacity:1;stroke:none;enable-background:new"
         d="m 188,264 -14,0 c -1.10457,0 -2,0.89544 -2,2 l 0,14 z"
         id="path4240"
         inkscape:connector-curvature="0" />
      <path
         inkscape:connector-curvature="0"
         id="path4320"
         d="m 174,264 c -1.10457,0 -2,0.89544 -2,2 l 0,1 c 0,-1.10456 0.89543,-2 2,-2 l 13,0 1,-1 -14,0 z"
         style="display:inline;opacity:0.2;fill:#ffffff;fill-opacity:1;stroke:none;enable-background:new" />
      <path
         inkscape:connector-curvature="0"
         id="rect4561"
         d="m 161,247 a 7,7 0 0 1 6.31641,4 L 182,251 l 0,6 -14.68555,0 A 7,7 0 0 1 161,261 a 7,7 0 0 1 -6.31445,-4 l 6.31445,0 0,-6 -6.31641,0 A 7,7 0 0 1 161,247 Z"
         style="opacity:1;fill:#ffffff;fill-opacity:1;stroke:none;stroke-width:1;stroke-linecap:round;stroke-linejoin:round;stroke-miterlimit:4;stroke-dasharray:none;stroke-opacity:1" />
      <path
         sodipodi:nodetypes="ccccccccccc"
         style="opacity:1;fill:#ffffff;fill-opacity:1;stroke:none;stroke-width:1;stroke-linecap:round;stroke-linejoin:round;stroke-miterlimit:4;stroke-dasharray:none;stroke-opacity:1"
         d="m 57,266 c 1.350416,0.002 2.579461,0.77989 3.15821,2 L 67,268 l 0,3 -6.84277,0 c -0.578597,1.21979 -1.807168,1.99805 -3.15723,2 -1.350058,-0.002 -2.578624,-0.78021 -3.15722,-2 L 57,271 l 0,-3 -3.1582,0 c 0.578748,-1.22011 1.807788,-1.99843 3.1582,-2 z"
         id="path4570"
         inkscape:connector-curvature="0" />
      <path
         inkscape:connector-curvature="0"
         id="path4572"
         d="m 21,271.66666 c 0.900277,0.001 1.71964,0.51993 2.105473,1.33334 L 29,273 l 0,2 -5.89518,0 C 22.719088,275.81319 21.900041,276.33203 21,276.33333 20.099961,276.33233 19.280917,275.81319 18.895186,275 L 21,275 l 0,-2 -2.105467,0 C 19.280365,272.18659 20.099725,271.66771 21,271.66666 Z"
         style="opacity:1;fill:#ffffff;fill-opacity:1;stroke:none;stroke-width:1;stroke-linecap:round;stroke-linejoin:round;stroke-miterlimit:4;stroke-dasharray:none;stroke-opacity:1"
         sodipodi:nodetypes="ccccccccccc" />
      <path
         inkscape:connector-curvature="0"
         id="path4574"
         d="m 107,259 a 5,5 0 0 0 -4.58008,3 l 0.36914,0 4.21094,0 0,4 -4.20898,0 -0.36719,0 a 5,5 0 0 0 4.57617,3 5,5 0 0 0 4.57617,-3 l 9.42383,0 0,-4 -9.41992,0 A 5,5 0 0 0 107,259 Z"
         style="opacity:1;fill:#ffffff;fill-opacity:1;stroke:none;stroke-width:1;stroke-linecap:round;stroke-linejoin:round;stroke-miterlimit:4;stroke-dasharray:none;stroke-opacity:1" />
      <path
         transform="matrix(8,0,0,8,-1392,-1988)"
         clip-path="url(#clipPath4463)"
         style="display:inline;opacity:0.2;fill:#000000;fill-opacity:1;stroke:none;filter:url(#filter4467);enable-background:new"
         d="m 260,258 -21,0 c -1.65685,0 -3,1.34316 -3,3 l 0,21 z"
         id="path4363"
         inkscape:connector-curvature="0"
         sodipodi:nodetypes="csscc" />
      <path
         sodipodi:nodetypes="csscc"
         inkscape:connector-curvature="0"
         id="path4145"
         d="m 688,60 -168,0 c -13.2548,0 -24,10.74528 -24,24 l 0,168 z"
         style="display:inline;opacity:1;fill:#d1d1d1;fill-opacity:1;stroke:none;enable-background:new" />
      <path
         transform="translate(0,-244)"
         id="path4326"
         d="M 520 304 C 506.7452 304 496 314.74528 496 328 L 496 330 C 496 316.74528 506.7452 306 520 306 L 686 306 L 688 304 L 520 304 z "
         style="display:inline;opacity:0.2;fill:#ffffff;fill-opacity:1;stroke:none;enable-background:new" />
      <path
         sodipodi:nodetypes="ccccccccccccc"
         inkscape:connector-curvature="0"
         style="opacity:1;fill:#ffffff;fill-opacity:1;stroke:none;stroke-width:1;stroke-linecap:round;stroke-linejoin:round;stroke-miterlimit:4;stroke-dasharray:none;stroke-opacity:1"
         d="m 364,-148 c -31.79528,0.0159 -60.56317,18.85914 -73.28128,48 l 5.90624,0 67.37504,0 0,64 -67.34368,0 -5.87504,0 C 303.49029,-6.879928 332.22744,11.95928 364,12 395.77256,11.9593 424.50971,-6.879928 437.21872,-36 L 624,-36 l 0,-64 -186.71872,0 C 424.56317,-129.14086 395.79528,-147.98413 364,-148 Z"
         id="path4586" />
    </g>
  </g>
</svg>
