<?xml version="1.0" encoding="UTF-8" standalone="no"?>
<!-- Created with Inkscape (http://www.inkscape.org/) -->

<svg
   xmlns:osb="http://www.openswatchbook.org/uri/2009/osb"
   xmlns:dc="http://purl.org/dc/elements/1.1/"
   xmlns:cc="http://creativecommons.org/ns#"
   xmlns:rdf="http://www.w3.org/1999/02/22-rdf-syntax-ns#"
   xmlns:svg="http://www.w3.org/2000/svg"
   xmlns="http://www.w3.org/2000/svg"
   xmlns:xlink="http://www.w3.org/1999/xlink"
   xmlns:sodipodi="http://sodipodi.sourceforge.net/DTD/sodipodi-0.dtd"
   xmlns:inkscape="http://www.inkscape.org/namespaces/inkscape"
   inkscape:export-ydpi="90.000000"
   inkscape:export-xdpi="90.000000"
   width="736"
   height="544"
   id="svg11300"
   sodipodi:version="0.32"
   inkscape:version="0.91 r13725"
   sodipodi:docname="variety.svg"
   inkscape:output_extension="org.inkscape.output.svg.inkscape"
   version="1.0"
   style="display:inline;enable-background:new"
   inkscape:export-filename="/home/sam/paper-template.png">
  <sodipodi:namedview
     stroke="#646464"
     fill="#909090"
     id="base"
     pagecolor="#434343"
     bordercolor="#666666"
     borderopacity="0.25490196"
     inkscape:pageopacity="0"
     inkscape:pageshadow="2"
     inkscape:zoom="1"
     inkscape:cx="37.652093"
     inkscape:cy="648.62579"
     inkscape:current-layer="g4664"
     showgrid="false"
     inkscape:grid-bbox="true"
     inkscape:document-units="px"
     inkscape:showpageshadow="false"
     inkscape:window-width="1316"
     inkscape:window-height="698"
     inkscape:window-x="25"
     inkscape:window-y="45"
     width="400px"
     height="300px"
     inkscape:snap-nodes="true"
     inkscape:snap-bbox="true"
     gridtolerance="10000"
     inkscape:object-nodes="true"
     inkscape:snap-grids="true"
     showguides="false"
     inkscape:guide-bbox="true"
     inkscape:window-maximized="1"
     inkscape:snap-global="true"
     inkscape:snap-bbox-midpoints="true">
    <inkscape:grid
       snapvisiblegridlinesonly="true"
       empspacing="4"
       visible="true"
       enabled="true"
       type="xygrid"
       id="grid5883"
       spacingx="1px"
       spacingy="1px" />
    <inkscape:grid
       snapvisiblegridlinesonly="true"
       empopacity="0.25098039"
       empcolor="#ff0000"
       opacity="0.1254902"
       color="#ff0000"
       spacingy="0.5px"
       spacingx="0.5px"
       enabled="false"
       visible="true"
       empspacing="2"
       id="grid11592"
       type="xygrid" />
  </sodipodi:namedview>
  <title
     id="title3004">Paper Icon Theme</title>
  <defs
     id="defs3">
    <linearGradient
       id="linearGradient5504"
       inkscape:collect="always">
      <stop
         id="stop5506"
         offset="0"
         style="stop-color:#000000;stop-opacity:1;" />
      <stop
         id="stop5508"
         offset="1"
         style="stop-color:#000000;stop-opacity:0;" />
    </linearGradient>
    <linearGradient
       id="linearGradient5606"
       osb:paint="solid">
      <stop
         id="stop5608"
         offset="0"
         style="stop-color:#000000;stop-opacity:1;" />
    </linearGradient>
    <filter
       height="1.05088"
       y="-0.02544"
       width="1.0454286"
       x="-0.022714286"
       id="filter5521"
       style="color-interpolation-filters:sRGB"
       inkscape:collect="always">
      <feGaussianBlur
         id="feGaussianBlur5523"
         stdDeviation="4.24"
         inkscape:collect="always" />
    </filter>
    <filter
       id="filter5602"
       style="color-interpolation-filters:sRGB"
       inkscape:collect="always">
      <feGaussianBlur
         id="feGaussianBlur5604"
         stdDeviation="2.4"
         inkscape:collect="always" />
    </filter>
    <linearGradient
       gradientTransform="translate(14,0)"
       y2="-472"
       x2="-228"
       y1="-472"
       x1="-180"
       gradientUnits="userSpaceOnUse"
       id="linearGradient4280"
       xlink:href="#linearGradient5504"
       inkscape:collect="always" />
    <filter
       height="1.048"
       y="-0.024"
       width="1.048"
       x="-0.024"
       id="filter4504-9"
       style="color-interpolation-filters:sRGB"
       inkscape:collect="always">
      <feGaussianBlur
         id="feGaussianBlur4506-1"
         stdDeviation="2.4"
         inkscape:collect="always" />
    </filter>
    <linearGradient
       gradientTransform="translate(14,0)"
       y2="-472"
       x2="-228"
       y1="-472"
       x1="-180"
       gradientUnits="userSpaceOnUse"
       id="linearGradient4280-833"
       xlink:href="#linearGradient5504-52"
       inkscape:collect="always" />
    <linearGradient
       id="linearGradient5504-52"
       inkscape:collect="always">
      <stop
         id="stop3468"
         offset="0"
         style="stop-color:#000000;stop-opacity:1;" />
      <stop
         id="stop3470"
         offset="1"
         style="stop-color:#000000;stop-opacity:0;" />
    </linearGradient>
  </defs>
  <metadata
     id="metadata4">
    <rdf:RDF>
      <cc:Work
         rdf:about="">
        <dc:format>image/svg+xml</dc:format>
        <dc:type
           rdf:resource="http://purl.org/dc/dcmitype/StillImage" />
        <dc:creator>
          <cc:Agent>
            <dc:title>Sam Hewitt</dc:title>
          </cc:Agent>
        </dc:creator>
        <dc:source />
        <cc:license
           rdf:resource="http://creativecommons.org/licenses/by-sa/3.0/" />
        <dc:title>Paper Icon Theme</dc:title>
        <dc:subject>
          <rdf:Bag />
        </dc:subject>
        <dc:date />
        <dc:rights>
          <cc:Agent>
            <dc:title />
          </cc:Agent>
        </dc:rights>
        <dc:publisher>
          <cc:Agent>
            <dc:title />
          </cc:Agent>
        </dc:publisher>
        <dc:identifier />
        <dc:relation />
        <dc:language />
        <dc:coverage />
        <dc:description />
        <dc:contributor>
          <cc:Agent>
            <dc:title />
          </cc:Agent>
        </dc:contributor>
      </cc:Work>
      <cc:Work
         rdf:about="">
        <dc:format>image/svg+xml</dc:format>
        <dc:type
           rdf:resource="http://purl.org/dc/dcmitype/StillImage" />
      </cc:Work>
      <cc:License
         rdf:about="http://creativecommons.org/licenses/by-sa/3.0/">
        <cc:permits
           rdf:resource="http://creativecommons.org/ns#Reproduction" />
        <cc:permits
           rdf:resource="http://creativecommons.org/ns#Distribution" />
        <cc:requires
           rdf:resource="http://creativecommons.org/ns#Notice" />
        <cc:requires
           rdf:resource="http://creativecommons.org/ns#Attribution" />
        <cc:permits
           rdf:resource="http://creativecommons.org/ns#DerivativeWorks" />
        <cc:requires
           rdf:resource="http://creativecommons.org/ns#ShareAlike" />
      </cc:License>
    </rdf:RDF>
  </metadata>
  <g
     transform="translate(0,244)"
     id="layer1"
     inkscape:label="variety"
     inkscape:groupmode="layer"
     style="display:inline">
    <g
       inkscape:groupmode="layer"
       id="layer7"
       inkscape:label="Baseplate"
       style="display:none">
      <rect
         transform="scale(-1,1)"
         inkscape:label="48x48"
         y="-228"
         x="-720"
         height="512"
         width="512"
         id="rect3951"
         style="display:inline;overflow:visible;visibility:visible;fill:#e9e9e9;fill-opacity:1;fill-rule:nonzero;stroke:none;stroke-width:2;marker:none;enable-background:accumulate" />
      <text
         id="context"
         inkscape:label="context"
         style="font-style:normal;font-variant:normal;font-weight:normal;font-stretch:normal;font-size:18px;font-family:'DejaVu Sans';-inkscape-font-specification:'DejaVu Sans';display:inline;fill:#000000;fill-opacity:1;stroke:none;enable-background:new"
         x="15.006836"
         xml:space="preserve"
         y="332.48523"><tspan
           id="tspan3933"
           sodipodi:role="line"
           x="15.006836"
           y="332.48523"
           style="font-style:normal;font-variant:normal;font-weight:normal;font-stretch:normal;font-family:'DejaVu Sans';-inkscape-font-specification:'DejaVu Sans'">apps</tspan></text>
      <text
         id="icon-name"
         inkscape:label="icon-name"
         sodipodi:linespacing="125%"
         style="font-style:normal;font-variant:normal;font-weight:bold;font-stretch:normal;font-size:18px;line-height:125%;font-family:'DejaVu Sans';-inkscape-font-specification:'DejaVu Sans Bold';text-align:start;writing-mode:lr-tb;text-anchor:start;display:inline;fill:#000000;fill-opacity:1;stroke:none;enable-background:new"
         x="142.48828"
         xml:space="preserve"
         y="332.48523"><tspan
           id="tspan3937"
           sodipodi:role="line"
           x="142.48828"
           y="332.48523"
           style="font-style:normal;font-variant:normal;font-weight:bold;font-stretch:normal;font-size:18px;font-family:'DejaVu Sans';-inkscape-font-specification:'DejaVu Sans Bold'">variety</tspan></text>
      <rect
         transform="scale(-1,1)"
         inkscape:label="16x16"
         y="268"
         x="-32"
         height="16"
         width="16"
         id="rect16x16"
         style="display:inline;overflow:visible;visibility:visible;fill:#e9e9e9;fill-opacity:1;fill-rule:nonzero;stroke:none;stroke-width:2;marker:none;enable-background:accumulate" />
      <rect
         transform="scale(-1,1)"
         inkscape:label="24x24"
         y="260"
         x="-76"
         height="24"
         width="24"
         id="rect24x24"
         style="display:inline;overflow:visible;visibility:visible;fill:#e9e9e9;fill-opacity:1;fill-rule:nonzero;stroke:none;stroke-width:2;marker:none;enable-background:accumulate" />
      <rect
         transform="scale(-1,1)"
         inkscape:label="32x32"
         y="252"
         x="-128"
         height="32"
         width="32"
         id="rect32x32"
         style="display:inline;overflow:visible;visibility:visible;fill:#e9e9e9;fill-opacity:1;fill-rule:nonzero;stroke:none;stroke-width:2;marker:none;enable-background:accumulate" />
      <rect
         transform="scale(-1,1)"
         style="display:inline;overflow:visible;visibility:visible;fill:#e9e9e9;fill-opacity:1;fill-rule:nonzero;stroke:none;stroke-width:2;marker:none;enable-background:accumulate"
         id="rect48x48"
         width="48"
         height="48"
         x="-192"
         y="236"
         inkscape:label="48x48" />
    </g>
    <g
       style="display:inline"
       inkscape:label="Symbols"
       id="layer6"
       inkscape:groupmode="layer">
      <g
         id="g4596">
        <path
           style="opacity:0.1;fill:#000000;fill-opacity:1;stroke:none;filter:url(#filter5521)"
           d="m 264,-158 c -13.296,0 -24,10.704 -24,24 l 0,304 c 0,13.296 10.704,24 24,24 l 104,0 0,40 c 0,4.432 3.568,8 8,8 l 176,0 c 4.432,0 8,-3.568 8,-8 l 0,-40 104,0 c 13.296,0 24,-10.704 24,-24 l 0,-304 c 0,-13.296 -10.704,-24 -24,-24 l -400,0 z"
           id="path5525"
           inkscape:connector-curvature="0" />
        <path
           inkscape:connector-curvature="0"
           id="path5519"
           d="m 264,-158 c -13.296,0 -24,10.704 -24,24 l 0,304 c 0,13.296 10.704,24 24,24 l 104,0 0,40 c 0,4.432 3.568,8 8,8 l 176,0 c 4.432,0 8,-3.568 8,-8 l 0,-40 104,0 c 13.296,0 24,-10.704 24,-24 l 0,-304 c 0,-13.296 -10.704,-24 -24,-24 l -400,0 z"
           style="opacity:0.2;fill:#000000;fill-opacity:1;stroke:none;filter:url(#filter5521)" />
        <path
           style="opacity:0.2;fill:#000000;fill-opacity:1;stroke:none"
           d="m 264,-160 c -13.296,0 -24,10.704 -24,24 l 0,304 c 0,13.296 10.704,24 24,24 l 104,0 0,40 c 0,4.432 3.568,8 8,8 l 176,0 c 4.432,0 8,-3.568 8,-8 l 0,-40 104,0 c 13.296,0 24,-10.704 24,-24 l 0,-304 c 0,-13.296 -10.704,-24 -24,-24 l -400,0 z"
           id="rect5512"
           inkscape:connector-curvature="0" />
        <rect
           ry="1"
           y="-118"
           x="-283"
           height="12"
           width="7"
           id="rect5500"
           style="opacity:0.2;fill:#000000;fill-opacity:1;stroke:none"
           transform="matrix(0,-1,-1,0,0,0)" />
        <rect
           transform="matrix(0,-1,-1,0,0,0)"
           style="fill:#4d4d4d;fill-opacity:1;stroke:none"
           id="rect5498"
           width="7"
           height="12"
           x="-282"
           y="-118"
           ry="1" />
        <rect
           style="opacity:1;fill:#4d4d4d;fill-opacity:1;stroke:none;stroke-width:2;stroke-miterlimit:4;stroke-dasharray:none;stroke-opacity:1"
           id="rect5490"
           width="8"
           height="3"
           x="20"
           y="281" />
        <rect
           transform="matrix(0,-1,-1,0,0,0)"
           style="fill:#4d4d4d;fill-opacity:1;stroke:none"
           id="rect5480"
           width="104"
           height="192"
           x="-238"
           y="-560"
           ry="8" />
        <rect
           ry="1"
           rx="1"
           y="279"
           x="58"
           height="5"
           width="12"
           id="rect5470"
           style="opacity:0.2;fill:#000000;fill-opacity:1;stroke:none;stroke-width:2;stroke-miterlimit:4;stroke-dasharray:none;stroke-opacity:1" />
        <rect
           style="opacity:1;fill:#4d4d4d;fill-opacity:1;stroke:none;stroke-width:2;stroke-miterlimit:4;stroke-dasharray:none;stroke-opacity:1"
           id="rect5468"
           width="12"
           height="5"
           x="58"
           y="278"
           rx="1"
           ry="1" />
        <rect
           ry="1.5"
           rx="1.5"
           y="269"
           x="160"
           height="9"
           width="16"
           id="rect5466"
           style="opacity:0.2;fill:#000000;fill-opacity:1;stroke:none;stroke-width:2;stroke-miterlimit:4;stroke-dasharray:none;stroke-opacity:1" />
        <rect
           style="opacity:1;fill:#4d4d4d;fill-opacity:1;stroke:none;stroke-width:2;stroke-miterlimit:4;stroke-dasharray:none;stroke-opacity:1"
           id="rect5440"
           width="16"
           height="9"
           x="160"
           y="268"
           rx="1.5"
           ry="1.5" />
        <rect
           y="271"
           x="160"
           height="3"
           width="16"
           id="rect5476"
           style="opacity:0.05;fill:#000000;fill-opacity:1;stroke:none;stroke-width:2;stroke-miterlimit:4;stroke-dasharray:none;stroke-opacity:1" />
        <path
           inkscape:connector-curvature="0"
           id="path4487"
           d="m 150,273 c -1.108,0 -2,-0.892 -2,-2 l 0,-14 40,0 0,14 c 0,1.108 -0.892,2 -2,2 l -36,0 z"
           style="opacity:0.2;fill:#000000;fill-opacity:1;stroke:none" />
        <path
           sodipodi:nodetypes="ssssccs"
           inkscape:connector-curvature="0"
           style="opacity:0.2;fill:#000000;fill-opacity:1;stroke:none"
           d="m 54.000008,279.99999 c 0,0.554 0.446,1 1,1 l 18,0 c 0.554,0 1,-0.446 1,-1 l 0,-7 -20,0 z"
           id="path4489" />
        <path
           sodipodi:nodetypes="scscccs"
           inkscape:connector-curvature="0"
           style="opacity:0.2;fill:#000000;fill-opacity:1;stroke:none"
           d="m 98,278.5 c 0,1.50005 1.5,1.5 1.5,1.5 l 25,0 c 1.5,0 1.5,-1.5 1.5,-1.5 l 0,-9.5 -28,0 z"
           id="path4491" />
        <rect
           ry="8"
           y="-560"
           x="-238"
           height="192"
           width="104"
           id="rect5502"
           style="opacity:0.2;fill:url(#linearGradient4280-833);fill-opacity:1;stroke:none"
           transform="matrix(0,-1,-1,0,0,0)" />
        <rect
           ry="24"
           rx="24"
           y="-688"
           x="-190"
           height="448"
           width="352"
           id="rect4229"
           style="fill:#666666;fill-opacity:1;stroke:none"
           transform="matrix(0,-1,-1,0,0,0)" />
        <path
           style="opacity:0.2;fill:#ffffff;fill-opacity:1;stroke:none"
           d="m 264,-162 c -13.296,0 -24,10.704 -24,24 l 0,2 c 0,-13.296 10.704,-24 24,-24 l 400,0 c 13.296,0 24,10.704 24,24 l 0,-2 c 0,-13.296 -10.704,-24 -24,-24 z"
           id="rect4431"
           inkscape:connector-curvature="0"
           sodipodi:nodetypes="sscsscsss" />
        <rect
           transform="matrix(0,-1,-1,0,0,0)"
           style="fill:#666666;fill-opacity:1;stroke:none"
           id="rect4203"
           width="32"
           height="40"
           x="-272"
           y="-188"
           rx="2"
           ry="2" />
        <path
           style="opacity:0.1;fill:#ffffff;fill-opacity:1;stroke:none"
           d="m 150,240 c -1.108,0 -2,0.892 -2,2 l 0,1 c 0,-1.108 0.892,-2 2,-2 l 36,0 c 1.108,0 2,0.892 2,2 l 0,-1 c 0,-1.108 -0.892,-2 -2,-2 z"
           id="rect4135"
           inkscape:connector-curvature="0"
           sodipodi:nodetypes="sscsscsss" />
        <rect
           transform="matrix(0,-1,-1,0,0,0)"
           style="fill:#666666;fill-opacity:1;stroke:none"
           id="rect3095"
           width="15.999992"
           height="20"
           x="-280"
           y="-74.000008"
           rx="1"
           ry="1" />
        <rect
           transform="matrix(0,-1,-1,0,0,0)"
           style="fill:#666666;fill-opacity:1;stroke:none"
           id="rect4255"
           width="22"
           height="28"
           x="-279"
           y="-126"
           rx="1.5"
           ry="1.5" />
        <rect
           transform="matrix(0,-1,-1,0,0,0)"
           style="display:inline;fill:#666666;fill-opacity:1;stroke:none;enable-background:new"
           id="rect4265"
           width="14"
           height="16"
           x="-282"
           y="-32"
           rx="1"
           ry="1" />
        <path
           id="path3895"
           d="m 54,266 0,-1 c 0,-0.554 0.446,-1 1,-1 l 18,0 c 0.554,0 1,0.446 1,1 l 0,1 c 0,-0.554 -0.446,-1 -1,-1 l -18,0 c -0.554,0 -1,0.446 -1,1 z"
           style="opacity:0.1;fill:#ffffff;fill-opacity:1;stroke:none"
           inkscape:connector-curvature="0" />
        <path
           style="opacity:0.1;fill:#ffffff;fill-opacity:1;stroke:none"
           d="m 99.5,257 c -0.831,0 -1.5,0.669 -1.5,1.5 l 0,1 c 0,-0.831 0.669,-1.5 1.5,-1.5 l 25,0 c 0.831,0 1.5,0.669 1.5,1.5 l 0,-1 c 0,-0.831 -0.669,-1.5 -1.5,-1.5 l -25,0 z"
           id="rect4425"
           inkscape:connector-curvature="0" />
        <path
           style="display:inline;opacity:0.1;fill:#ffffff;fill-opacity:1;stroke:none;enable-background:new"
           d="m 17,268 c -0.554,0 -1,0.446 -1,1 l 0,1 c 0,-0.554 0.446,-1 1,-1 l 14,0 c 0.554,0 1,0.446 1,1 l 0,-1 c 0,-0.554 -0.446,-1 -1,-1 l -14,0 z"
           id="rect4444"
           inkscape:connector-curvature="0" />
        <path
           style="opacity:0.2;fill:none;fill-rule:evenodd;stroke:#000000;stroke-width:2;stroke-linecap:butt;stroke-linejoin:miter;stroke-miterlimit:4;stroke-dasharray:none;stroke-opacity:1;filter:url(#filter5602)"
           d="m 368,191 192,0"
           id="path5596"
           inkscape:connector-curvature="0"
           sodipodi:nodetypes="cc" />
        <rect
           y="-186"
           x="-266"
           height="36"
           width="24"
           id="rect5474"
           style="opacity:1;fill:#b6b6b6;fill-opacity:1;stroke:none"
           transform="matrix(0,-1,-1,0,0,0)" />
        <rect
           transform="matrix(0,1,-1,0,0,0)"
           style="opacity:1;fill:#b6b6b6;fill-opacity:1;stroke:none"
           id="rect5478"
           width="253.99998"
           height="416.00012"
           x="-145.99998"
           y="-672"
           ry="4" />
        <rect
           y="-31"
           x="-280"
           height="14"
           width="11"
           id="rect5492"
           style="display:inline;opacity:1;fill:#b6b6b6;fill-opacity:1;stroke:none;enable-background:new"
           transform="matrix(0,-1,-1,0,0,0)" />
        <rect
           ry="0.5"
           y="-73"
           x="-277"
           height="18"
           width="12"
           id="rect5494"
           style="opacity:1;fill:#b6b6b6;fill-opacity:1;stroke:none"
           transform="matrix(0,-1,-1,0,0,0)" />
        <rect
           ry="0.5"
           y="-125"
           x="-275"
           height="26"
           width="17"
           id="rect5496"
           style="opacity:1;fill:#b6b6b6;fill-opacity:1;stroke:none"
           transform="matrix(0,-1,-1,0,0,0)" />
        <g
           id="layer2"
           inkscape:label="animations"
           transform="translate(-393,-225.50159)" />
        <g
           id="g4449">
          <path
             inkscape:connector-curvature="0"
             d="m 67.5,267 c -0.82842,0 -1.5,0.67158 -1.5,1.5 0,0.82842 0.67158,1.5 1.5,1.5 0.82842,0 1.5,-0.67158 1.5,-1.5 0,-0.82842 -0.67158,-1.5 -1.5,-1.5 z"
             id="path3133"
             sodipodi:nodetypes="sssss"
             style="color:#bebebe;opacity:0.5;fill:#000000;fill-opacity:1;stroke:none" />
          <path
             style="color:#bebebe;opacity:0.5;fill:#000000;fill-opacity:1;stroke:none"
             sodipodi:nodetypes="ssccssss"
             id="path4447"
             d="m 60,271 c -2,0 -4,2 -4,4.53125 L 56,276 l 16,0 0,0 c 0,0 -1.333333,-4 -3.333333,-4 -2,0 -2,2 -3.333334,2 C 64,274 62,271 60,271 Z"
             inkscape:connector-curvature="0" />
        </g>
        <g
           id="g4453"
           transform="matrix(2,0,0,2,40,-288)">
          <path
             style="color:#bebebe;opacity:0.5;fill:#000000;fill-opacity:1;stroke:none"
             sodipodi:nodetypes="sssss"
             id="path4455"
             d="m 67.5,267 c -0.82842,0 -1.5,0.67158 -1.5,1.5 0,0.82842 0.67158,1.5 1.5,1.5 0.82842,0 1.5,-0.67158 1.5,-1.5 0,-0.82842 -0.67158,-1.5 -1.5,-1.5 z"
             inkscape:connector-curvature="0" />
          <path
             inkscape:connector-curvature="0"
             d="m 60,271 c -2,0 -4,2 -4,4.53125 L 56,276 l 16,0 0,0 c 0,0 -1.333333,-4 -3.333333,-4 -2,0 -2,2 -3.333334,2 C 64,274 62,271 60,271 Z"
             id="path4457"
             sodipodi:nodetypes="ssccssss"
             style="color:#bebebe;opacity:0.5;fill:#000000;fill-opacity:1;stroke:none" />
        </g>
        <path
           style="color:#bebebe;opacity:0.5;fill:#000000;fill-opacity:1;stroke:none"
           sodipodi:nodetypes="sssssssccssss"
           id="path3133-3"
           d="m 25,271 c -0.55228,0 -1,0.44772 -1,1 0,0.55228 0.44772,1 1,1 0.55228,0 1,-0.44772 1,-1 0,-0.55228 -0.44772,-1 -1,-1 z m -4,3 c -1.5,0 -3,2 -3,4.53125 L 18,279 l 12,0 0,0 c 0,0 -1,-4 -2.5,-4 -1.5,0 -1.5,2 -2.5,2 -1,0 -2.5,-3 -4,-3 z"
           inkscape:connector-curvature="0" />
        <path
           inkscape:connector-curvature="0"
           d="m 114,260 c -1.10456,0 -2,0.89544 -2,2 0,1.10456 0.89544,2 2,2 1.10456,0 2,-0.89544 2,-2 0,-1.10456 -0.89544,-2 -2,-2 z m -8,6 c -3,0 -6,2 -6,7.0625 l 0,0.9375 24,0 0,0 c 0,0 -2,-6 -5,-6 -3,0 -3,3 -5,3 -2,0 -5,-5 -8,-5 z"
           id="path4577"
           sodipodi:nodetypes="sssssssccssss"
           style="color:#bebebe;opacity:0.5;fill:#000000;fill-opacity:1;stroke:none" />
        <g
           id="g4585"
           transform="matrix(24,0,0,24,-1072,-6532)">
          <path
             style="color:#bebebe;opacity:0.5;fill:#000000;fill-opacity:1;stroke:none"
             sodipodi:nodetypes="sssss"
             id="path4587"
             d="m 67.5,267 c -0.82842,0 -1.5,0.67158 -1.5,1.5 0,0.82842 0.67158,1.5 1.5,1.5 0.82842,0 1.5,-0.67158 1.5,-1.5 0,-0.82842 -0.67158,-1.5 -1.5,-1.5 z"
             inkscape:connector-curvature="0" />
          <path
             inkscape:connector-curvature="0"
             d="m 60,271 c -2,0 -4,2 -4,4.53125 L 56,276 l 16,0 0,0 c 0,0 -1.333333,-4 -3.333333,-4 -2,0 -2,2 -3.333334,2 C 64,274 62,271 60,271 Z"
             id="path4589"
             sodipodi:nodetypes="ssccssss"
             style="color:#bebebe;opacity:0.5;fill:#000000;fill-opacity:1;stroke:none" />
        </g>
      </g>
    </g>
  </g>
  <g
     style="display:inline"
     inkscape:groupmode="layer"
     inkscape:label="variety-slideshow"
     id="g4642"
     transform="translate(0,244)">
    <g
       style="display:none"
       inkscape:label="Baseplate"
       id="g4644"
       inkscape:groupmode="layer">
      <rect
         style="display:inline;overflow:visible;visibility:visible;fill:#e9e9e9;fill-opacity:1;fill-rule:nonzero;stroke:none;stroke-width:2;marker:none;enable-background:accumulate"
         id="rect4646"
         width="512"
         height="512"
         x="-720"
         y="-854"
         inkscape:label="48x48"
         transform="scale(-1,1)" />
      <text
         y="-293.51477"
         xml:space="preserve"
         x="15.006836"
         style="font-style:normal;font-variant:normal;font-weight:normal;font-stretch:normal;font-size:18px;font-family:'DejaVu Sans';-inkscape-font-specification:'DejaVu Sans';display:inline;fill:#000000;fill-opacity:1;stroke:none;enable-background:new"
         inkscape:label="context"
         id="text4648"><tspan
           style="font-style:normal;font-variant:normal;font-weight:normal;font-stretch:normal;font-family:'DejaVu Sans';-inkscape-font-specification:'DejaVu Sans'"
           y="-293.51477"
           x="15.006836"
           sodipodi:role="line"
           id="tspan4650">apps</tspan></text>
      <text
         y="-293.51477"
         xml:space="preserve"
         x="142.48828"
         style="font-style:normal;font-variant:normal;font-weight:bold;font-stretch:normal;font-size:18px;line-height:125%;font-family:'DejaVu Sans';-inkscape-font-specification:'DejaVu Sans Bold';text-align:start;writing-mode:lr-tb;text-anchor:start;display:inline;fill:#000000;fill-opacity:1;stroke:none;enable-background:new"
         sodipodi:linespacing="125%"
         inkscape:label="icon-name"
         id="text4652"><tspan
           style="font-style:normal;font-variant:normal;font-weight:bold;font-stretch:normal;font-size:18px;font-family:'DejaVu Sans';-inkscape-font-specification:'DejaVu Sans Bold'"
           y="-293.51477"
           x="142.48828"
           sodipodi:role="line"
           id="tspan4654">variety-slideshow</tspan></text>
      <rect
         style="display:inline;overflow:visible;visibility:visible;fill:#e9e9e9;fill-opacity:1;fill-rule:nonzero;stroke:none;stroke-width:2;marker:none;enable-background:accumulate"
         id="rect4656"
         width="16"
         height="16"
         x="-32"
         y="-358"
         inkscape:label="16x16"
         transform="scale(-1,1)" />
      <rect
         style="display:inline;overflow:visible;visibility:visible;fill:#e9e9e9;fill-opacity:1;fill-rule:nonzero;stroke:none;stroke-width:2;marker:none;enable-background:accumulate"
         id="rect4658"
         width="24"
         height="24"
         x="-76"
         y="-366"
         inkscape:label="24x24"
         transform="scale(-1,1)" />
      <rect
         style="display:inline;overflow:visible;visibility:visible;fill:#e9e9e9;fill-opacity:1;fill-rule:nonzero;stroke:none;stroke-width:2;marker:none;enable-background:accumulate"
         id="rect4660"
         width="32"
         height="32"
         x="-128"
         y="-374"
         inkscape:label="32x32"
         transform="scale(-1,1)" />
      <rect
         inkscape:label="48x48"
         y="-390"
         x="-192"
         height="48"
         width="48"
         id="rect4662"
         style="display:inline;overflow:visible;visibility:visible;fill:#e9e9e9;fill-opacity:1;fill-rule:nonzero;stroke:none;stroke-width:2;marker:none;enable-background:accumulate"
         transform="scale(-1,1)" />
    </g>
    <g
       inkscape:groupmode="layer"
       id="g4664"
       inkscape:label="Symbols"
       style="display:inline">
      <use
         height="100%"
         width="100%"
         transform="translate(0,-626)"
         id="use4756"
         xlink:href="#g4596"
         y="0"
         x="0"
         style="display:inline;enable-background:new" />
      <circle
         r="12"
         cy="-354"
         cx="-181"
         style="display:inline;opacity:0.2;fill:#000000;fill-opacity:1;stroke:none;enable-background:new"
         id="circle4288-1"
         transform="scale(-1,1)" />
      <circle
         transform="scale(-1,1)"
         id="circle4290-9"
         style="display:inline;fill:#767676;fill-opacity:1;stroke:none;enable-background:new"
         cx="-181"
         cy="-355"
         r="12" />
      <circle
         r="8"
         cy="-350"
         cx="120"
         style="display:inline;opacity:0.2;fill:#000000;fill-opacity:1;fill-rule:evenodd;stroke:none;enable-background:new"
         id="circle4292-4" />
      <circle
         id="circle4294-2"
         style="display:inline;fill:#767676;fill-opacity:1;fill-rule:evenodd;stroke:none;enable-background:new"
         cx="120"
         cy="-351"
         r="8" />
      <circle
         r="5.5"
         id="circle4296-3"
         style="display:inline;opacity:0.2;fill:#000000;fill-opacity:1;stroke:none;stroke-width:2;enable-background:new"
         cx="70.5"
         cy="-347.5" />
      <circle
         cy="-348.5"
         cx="70.5"
         style="display:inline;fill:#767676;fill-opacity:1;stroke:none;stroke-width:2;enable-background:new"
         id="circle4298-1"
         r="5.5" />
      <circle
         r="120"
         cy="-472"
         cx="585"
         style="display:inline;opacity:0.2;fill:#000000;fill-opacity:1;stroke:none;filter:url(#filter4504-9);enable-background:new"
         id="circle4300-7" />
      <circle
         id="circle4302-7"
         style="display:inline;opacity:0.1;fill:#000000;fill-opacity:1;stroke:#000000;stroke-width:8;stroke-miterlimit:4;stroke-dasharray:none;stroke-opacity:1;filter:url(#filter4504-9);enable-background:new"
         cx="585"
         cy="-472"
         r="120" />
      <circle
         id="circle4304-8"
         style="display:inline;fill:#767676;fill-opacity:1;stroke:none;enable-background:new"
         cx="585"
         cy="-478"
         r="120" />
      <circle
         r="4.5"
         id="circle4306-0"
         style="display:inline;fill:#767676;fill-opacity:1;stroke:none;stroke-width:2;enable-background:new"
         cx="28.5"
         cy="-346.5" />
      <g
         transform="matrix(10,0,0,10,-4615,3442)"
         id="g5179">
        <rect
           style="opacity:0.5;fill:none;fill-opacity:1"
           id="rect5177"
           width="16"
           height="16"
           x="512"
           y="-400" />
        <g
           style="enable-background:new"
           id="g5173"
           transform="translate(512.00016,-399.99998)">
          <g
             transform="translate(-301.0002,-9)"
             inkscape:label="actions"
             id="layer12">
            <path
               sodipodi:nodetypes="ccccc"
               id="path3807-1-1-9-38-4"
               d="m 304.00004,10.99998 0,12 11,-6 -9.89923,-5.39958 z"
               inkscape:connector-curvature="0"
               style="fill:#ffffff" />
          </g>
        </g>
      </g>
      <g
         id="g5185"
         transform="translate(-339,37)">
        <rect
           y="-400"
           x="512"
           height="16"
           width="16"
           id="rect5187"
           style="opacity:0.5;fill:none;fill-opacity:1" />
        <g
           transform="translate(512.00016,-399.99998)"
           id="g5189"
           style="enable-background:new">
          <g
             id="g5191"
             inkscape:label="actions"
             transform="translate(-301.0002,-9)">
            <path
               style="fill:#ffffff"
               inkscape:connector-curvature="0"
               d="m 304.00004,10.99998 0,12 11,-6 -9.89923,-5.39958 z"
               id="path5193"
               sodipodi:nodetypes="ccccc" />
          </g>
        </g>
      </g>
      <g
         transform="matrix(0.5,0,0,0.5,66.50008,-352.49999)"
         id="g5199"
         style="enable-background:new">
        <g
           id="g5201"
           inkscape:label="actions"
           transform="translate(-301.0002,-9)">
          <path
             style="fill:#ffffff"
             inkscape:connector-curvature="0"
             d="m 304.00004,10.99998 0,12 11,-6 -9.89923,-5.39958 z"
             id="path5203"
             sodipodi:nodetypes="ccccc" />
        </g>
      </g>
      <g
         transform="matrix(0.75,0,0,0.75,-270,-57)"
         id="g5209">
        <rect
           style="opacity:0.5;fill:none;fill-opacity:1"
           id="rect5211"
           width="16"
           height="16"
           x="512"
           y="-400" />
        <g
           style="enable-background:new"
           id="g5213"
           transform="translate(512.00016,-399.99998)">
          <g
             transform="translate(-301.0002,-9)"
             inkscape:label="actions"
             id="g5215">
            <path
               sodipodi:nodetypes="ccccc"
               id="path5217"
               d="m 305.00004,11.909071 0,10.181818 9.33333,-5.090909 -8.39934,-4.581462 z"
               inkscape:connector-curvature="0"
               style="fill:#ffffff" />
          </g>
        </g>
      </g>
      <g
         style="enable-background:new"
         id="g5219"
         transform="matrix(0.36363636,0,0,0.36363636,25.909149,-349.40908)">
        <g
           transform="translate(-301.0002,-9)"
           inkscape:label="actions"
           id="g5221">
          <path
             sodipodi:nodetypes="ccccc"
             id="path5223"
             d="m 304.00004,10.99998 0,12 11,-6 -9.89923,-5.39958 z"
             inkscape:connector-curvature="0"
             style="fill:#ffffff" />
        </g>
      </g>
    </g>
  </g>
</svg>
