<?xml version="1.0" encoding="UTF-8" standalone="no"?>
<!-- Created with Inkscape (http://www.inkscape.org/) -->

<svg
   xmlns:osb="http://www.openswatchbook.org/uri/2009/osb"
   xmlns:dc="http://purl.org/dc/elements/1.1/"
   xmlns:cc="http://creativecommons.org/ns#"
   xmlns:rdf="http://www.w3.org/1999/02/22-rdf-syntax-ns#"
   xmlns:svg="http://www.w3.org/2000/svg"
   xmlns="http://www.w3.org/2000/svg"
   xmlns:sodipodi="http://sodipodi.sourceforge.net/DTD/sodipodi-0.dtd"
   xmlns:inkscape="http://www.inkscape.org/namespaces/inkscape"
   inkscape:export-ydpi="90.000000"
   inkscape:export-xdpi="90.000000"
   width="736"
   height="544"
   id="svg11300"
   sodipodi:version="0.32"
   inkscape:version="0.91 r13725"
   sodipodi:docname="applications-accessories.svg"
   inkscape:output_extension="org.inkscape.output.svg.inkscape"
   version="1.0"
   style="display:inline;enable-background:new"
   inkscape:export-filename="/home/sam/paper-template.png">
  <sodipodi:namedview
     stroke="#646464"
     fill="#909090"
     id="base"
     pagecolor="#474747"
     bordercolor="#666666"
     borderopacity="0.25490196"
     inkscape:pageopacity="0"
     inkscape:pageshadow="2"
     inkscape:zoom="1"
     inkscape:cx="382.9023"
     inkscape:cy="200.98069"
     inkscape:current-layer="layer6"
     showgrid="false"
     inkscape:grid-bbox="true"
     inkscape:document-units="px"
     inkscape:showpageshadow="false"
     inkscape:window-width="1316"
     inkscape:window-height="698"
     inkscape:window-x="25"
     inkscape:window-y="45"
     width="400px"
     height="300px"
     inkscape:snap-nodes="true"
     inkscape:snap-bbox="true"
     gridtolerance="10000"
     inkscape:object-nodes="true"
     inkscape:snap-grids="true"
     showguides="true"
     inkscape:guide-bbox="true"
     inkscape:window-maximized="1"
     inkscape:bbox-nodes="true"
     inkscape:snap-bbox-edge-midpoints="true"
     inkscape:snap-bbox-midpoints="true">
    <inkscape:grid
       snapvisiblegridlinesonly="true"
       empspacing="4"
       visible="true"
       enabled="true"
       type="xygrid"
       id="grid5883"
       spacingx="1px"
       spacingy="1px" />
    <inkscape:grid
       snapvisiblegridlinesonly="true"
       empopacity="0.25098039"
       empcolor="#ff0000"
       opacity="0.1254902"
       color="#ff0000"
       spacingy="0.5px"
       spacingx="0.5px"
       enabled="false"
       visible="true"
       empspacing="2"
       id="grid11592"
       type="xygrid" />
  </sodipodi:namedview>
  <title
     id="title3004">Paper Icon Theme</title>
  <defs
     id="defs3">
    <clipPath
       id="clipPath4193"
       clipPathUnits="userSpaceOnUse">
      <rect
         ry="3"
         rx="3"
         y="-260"
         x="-280"
         height="56"
         width="56"
         id="rect4195"
         style="fill:#5f5f5f;fill-opacity:1;stroke:none"
         transform="matrix(0,-1,-1,0,0,0)" />
    </clipPath>
    <clipPath
       id="clipPath4255"
       clipPathUnits="userSpaceOnUse">
      <rect
         transform="matrix(0,-1,-1,0,0,0)"
         style="fill:#5f5f5f;fill-opacity:1;stroke:none"
         id="rect4257"
         width="40"
         height="40"
         x="-280"
         y="-180"
         rx="2"
         ry="2" />
    </clipPath>
    <clipPath
       id="clipPath4275"
       clipPathUnits="userSpaceOnUse">
      <rect
         transform="matrix(0,-1,-1,0,0,0)"
         style="display:inline;fill:#5f5f5f;fill-opacity:1;stroke:none;enable-background:new"
         id="rect4277"
         width="16"
         height="16"
         x="-284"
         y="-32"
         rx="1"
         ry="1" />
    </clipPath>
    <linearGradient
       id="linearGradient5606"
       osb:paint="solid">
      <stop
         id="stop5608"
         offset="0"
         style="stop-color:#000000;stop-opacity:1;" />
    </linearGradient>
    <clipPath
       id="clipPath4266-4"
       clipPathUnits="userSpaceOnUse">
      <path
         inkscape:connector-curvature="0"
         style="fill:#ffffff;fill-opacity:1;stroke:none"
         d="m 146,240 c -1.108,0 -2,0.892 -2,2 l 0,36 c 0,1.108 0.892,2 2,2 l 28,0 c 1.108,0 2,-0.892 2,-2 l 0,-26 -12,-12 -18,0 z"
         id="path4268-0" />
    </clipPath>
    <clipPath
       id="clipPath4140-8"
       clipPathUnits="userSpaceOnUse">
      <path
         inkscape:connector-curvature="0"
         style="fill:#e1e1e1;fill-opacity:1;stroke:none"
         d="m 213,224 c -1.662,0 -3,1.338 -3,3 l 0,50 c 0,1.662 1.338,3 3,3 l 38,0 c 1.662,0 3,-1.338 3,-3 l 0,-35 -18,-18 -23,0 z"
         id="path4142-3" />
    </clipPath>
    <clipPath
       id="clipPath4168"
       clipPathUnits="userSpaceOnUse">
      <path
         inkscape:connector-curvature="0"
         style="fill:#e1e1e1;fill-opacity:1;stroke:none"
         d="m 94.5,254 c -0.831,0 -1.5,0.669 -1.5,1.5 l 0,25 c 0,0.831 0.669,1.5 1.5,1.5 l 19,0 c 0.831,0 1.5,-0.669 1.5,-1.5 l 0,-18.5 -8,-8 -12.5,0 z"
         id="path4170" />
    </clipPath>
    <clipPath
       id="clipPath4278"
       clipPathUnits="userSpaceOnUse">
      <path
         inkscape:connector-curvature="0"
         id="path4280"
         d="m 300,196 c -2.216,0 -4,1.784 -4,4 l 0,72 c 0,2.216 1.784,4 4,4 l 56,0 c 2.216,0 4,-1.784 4,-4 l 0,-52 -24,-24 z"
         style="fill:#e1e1e1;fill-opacity:1;stroke:none"
         sodipodi:nodetypes="ssssssccs" />
    </clipPath>
    <clipPath
       id="clipPath4754"
       clipPathUnits="userSpaceOnUse">
      <path
         inkscape:connector-curvature="0"
         id="path4756"
         d="m 300,196 c -2.216,0 -4,1.784 -4,4 l 0,72 c 0,2.216 1.784,4 4,4 l 56,0 c 2.216,0 4,-1.784 4,-4 l 0,-52 -24,-24 z"
         style="fill:#e1e1e1;fill-opacity:1;stroke:none"
         sodipodi:nodetypes="ssssssccs" />
    </clipPath>
    <filter
       height="1.052"
       y="-0.026"
       width="1.0445714"
       x="-0.022285714"
       id="filter4312"
       style="color-interpolation-filters:sRGB"
       inkscape:collect="always">
      <feGaussianBlur
         id="feGaussianBlur4314"
         stdDeviation="4.16"
         inkscape:collect="always" />
    </filter>
    <filter
       height="1.13"
       y="-0.065"
       width="1.1114286"
       x="-0.055714286"
       id="filter4219"
       style="color-interpolation-filters:sRGB"
       inkscape:collect="always">
      <feGaussianBlur
         id="feGaussianBlur4221"
         stdDeviation="10.4"
         inkscape:collect="always" />
    </filter>
    <filter
       height="1.0899998"
       y="-0.044999883"
       width="1.1800009"
       x="-0.090000466"
       id="filter4591"
       style="color-interpolation-filters:sRGB"
       inkscape:collect="always">
      <feGaussianBlur
         id="feGaussianBlur4593"
         stdDeviation="0.33750175"
         inkscape:collect="always" />
    </filter>
    <filter
       height="1.1299995"
       y="-0.064999744"
       width="1.1114289"
       x="-0.055714469"
       id="filter4581"
       style="color-interpolation-filters:sRGB"
       inkscape:collect="always">
      <feGaussianBlur
         id="feGaussianBlur4583"
         stdDeviation="0.48750162"
         inkscape:collect="always" />
    </filter>
    <filter
       height="1.1029779"
       y="-0.051488969"
       width="1.1437639"
       x="-0.071881957"
       id="filter4664"
       style="color-interpolation-filters:sRGB"
       inkscape:collect="always">
      <feGaussianBlur
         id="feGaussianBlur4666"
         stdDeviation="4.8145964"
         inkscape:collect="always" />
    </filter>
    <filter
       height="1.12"
       y="-0.059999999"
       width="1.12"
       x="-0.059999999"
       id="filter4575"
       style="color-interpolation-filters:sRGB"
       inkscape:collect="always">
      <feGaussianBlur
         id="feGaussianBlur4577"
         stdDeviation="0.1"
         inkscape:collect="always" />
    </filter>
  </defs>
  <metadata
     id="metadata4">
    <rdf:RDF>
      <cc:Work
         rdf:about="">
        <dc:format>image/svg+xml</dc:format>
        <dc:type
           rdf:resource="http://purl.org/dc/dcmitype/StillImage" />
        <dc:creator>
          <cc:Agent>
            <dc:title>Sam Hewitt</dc:title>
          </cc:Agent>
        </dc:creator>
        <dc:source />
        <cc:license
           rdf:resource="http://creativecommons.org/licenses/by-sa/3.0/" />
        <dc:title>Paper Icon Theme</dc:title>
        <dc:subject>
          <rdf:Bag />
        </dc:subject>
        <dc:date />
        <dc:rights>
          <cc:Agent>
            <dc:title />
          </cc:Agent>
        </dc:rights>
        <dc:publisher>
          <cc:Agent>
            <dc:title />
          </cc:Agent>
        </dc:publisher>
        <dc:identifier />
        <dc:relation />
        <dc:language />
        <dc:coverage />
        <dc:description />
        <dc:contributor>
          <cc:Agent>
            <dc:title />
          </cc:Agent>
        </dc:contributor>
      </cc:Work>
      <cc:Work
         rdf:about="">
        <dc:format>image/svg+xml</dc:format>
        <dc:type
           rdf:resource="http://purl.org/dc/dcmitype/StillImage" />
      </cc:Work>
    </rdf:RDF>
  </metadata>
  <g
     transform="translate(0,244)"
     id="layer1"
     inkscape:label="Icon"
     inkscape:groupmode="layer"
     style="display:inline">
    <g
       inkscape:groupmode="layer"
       id="layer7"
       inkscape:label="Baseplate"
       style="display:none">
      <text
         id="context"
         inkscape:label="context"
         style="font-style:normal;font-variant:normal;font-weight:normal;font-stretch:normal;font-size:18px;font-family:'DejaVu Sans';-inkscape-font-specification:'DejaVu Sans';display:inline;fill:#000000;fill-opacity:1;stroke:none;enable-background:new"
         x="15.006836"
         xml:space="preserve"
         y="332.76685"><tspan
           id="tspan3933"
           sodipodi:role="line"
           x="15.006836"
           y="332.76685"
           style="font-style:normal;font-variant:normal;font-weight:normal;font-stretch:normal;font-family:'DejaVu Sans';-inkscape-font-specification:'DejaVu Sans'">categories</tspan></text>
      <text
         id="icon-name"
         inkscape:label="icon-name"
         sodipodi:linespacing="125%"
         style="font-style:normal;font-variant:normal;font-weight:bold;font-stretch:normal;font-size:18px;line-height:125%;font-family:'DejaVu Sans';-inkscape-font-specification:'DejaVu Sans Bold';text-align:start;writing-mode:lr-tb;text-anchor:start;display:inline;fill:#000000;fill-opacity:1;stroke:none;enable-background:new"
         x="142.48828"
         xml:space="preserve"
         y="332.76685"><tspan
           id="tspan3937"
           sodipodi:role="line"
           x="142.48828"
           y="332.76685"
           style="font-style:normal;font-variant:normal;font-weight:bold;font-stretch:normal;font-size:18px;font-family:'DejaVu Sans';-inkscape-font-specification:'DejaVu Sans Bold'">applications-accessories</tspan></text>
      <rect
         transform="scale(-1,1)"
         inkscape:label="16x16"
         y="268"
         x="-32"
         height="16"
         width="16"
         id="rect16x16"
         style="display:inline;overflow:visible;visibility:visible;fill:#e9e9e9;fill-opacity:1;fill-rule:nonzero;stroke:none;stroke-width:2;marker:none;enable-background:accumulate" />
      <rect
         transform="scale(-1,1)"
         inkscape:label="24x24"
         y="260"
         x="-76"
         height="24"
         width="24"
         id="rect24x24"
         style="display:inline;overflow:visible;visibility:visible;fill:#e9e9e9;fill-opacity:1;fill-rule:nonzero;stroke:none;stroke-width:2;marker:none;enable-background:accumulate" />
      <rect
         transform="scale(-1,1)"
         inkscape:label="32x32"
         y="252"
         x="-130"
         height="32"
         width="32"
         id="rect32x32"
         style="display:inline;overflow:visible;visibility:visible;fill:#e9e9e9;fill-opacity:1;fill-rule:nonzero;stroke:none;stroke-width:2;marker:none;enable-background:accumulate" />
      <rect
         transform="scale(-1,1)"
         style="display:inline;overflow:visible;visibility:visible;fill:#e9e9e9;fill-opacity:1;fill-rule:nonzero;stroke:none;stroke-width:2;marker:none;enable-background:accumulate"
         id="rect48x48"
         width="48"
         height="48"
         x="-194"
         y="236"
         inkscape:label="48x48" />
      <rect
         transform="scale(-1,1)"
         inkscape:label="48x48"
         y="-228"
         x="-720"
         height="512"
         width="512"
         id="rect3951"
         style="display:inline;overflow:visible;visibility:visible;fill:#e9e9e9;fill-opacity:1;fill-rule:nonzero;stroke:none;stroke-width:2;marker:none;enable-background:accumulate" />
    </g>
    <g
       style="display:inline"
       inkscape:label="Symbols"
       id="layer6"
       inkscape:groupmode="layer">
      <g
         transform="matrix(4.0008799,0,0,4.0008799,-1532.4518,272.01408)"
         style="display:inline;fill:#ffffff;fill-opacity:1;enable-background:new"
         inkscape:label="actions"
         id="g4635" />
      <g
         id="g4627"
         inkscape:label="actions"
         style="display:inline;fill:#ffffff;fill-opacity:1;enable-background:new"
         transform="matrix(2.00044,0,0,2.00044,-682.22612,278.00704)" />
      <path
         inkscape:connector-curvature="0"
         style="opacity:0.2;fill:#000000;fill-opacity:1;stroke:none"
         d="m 100,257 0,22 c 0,2 2,2 2,2 l 26,0 -28,-24 z m 5,10.87109 L 114.48242,276 105,276 l 0,-8.12891 z"
         id="path4570" />
      <path
         inkscape:connector-curvature="0"
         style="opacity:0.2;fill:#000000;fill-opacity:1;stroke:none"
         d="m 54,265 0,14 c 0,2 2,2 2,2 l 18,0 -20,-16 z m 4,8.32227 L 62.597656,277 58,277 l 0,-3.67773 z"
         id="path4566" />
      <path
         inkscape:connector-curvature="0"
         id="rect4243-5"
         d="m 54,264 0,14 c 0,2 2,2 2,2 l 18,0 -20,-16 z m 4,8.32227 L 62.597656,276 58,276 l 0,-3.67773 z"
         style="fill:#686868;fill-opacity:1;stroke:none;opacity:0.8" />
      <path
         inkscape:connector-curvature="0"
         id="rect4255-1"
         d="m 100,256 0,22 c 0,2 2,2 2,2 l 26,0 -28,-24 z m 5,10.87109 L 114.48242,275 105,275 l 0,-8.12891 z"
         style="fill:#686868;fill-opacity:1;stroke:none;opacity:0.8" />
      <path
         id="path4228"
         d="m 150,245 0,30 c 0,2 2,2 2,2 l 37,0 z m 7,13.85742 L 169.75,270 157,270 Z"
         style="opacity:0.2;fill:#000000;fill-opacity:1;stroke:none"
         inkscape:connector-curvature="0"
         sodipodi:nodetypes="ccccccccc" />
      <path
         sodipodi:nodetypes="ccccccccc"
         inkscape:connector-curvature="0"
         style="fill:#686868;fill-opacity:1;stroke:none;opacity:0.8"
         d="m 150,244 0,30 c 0,2 2,2 2,2 l 37,0 z m 7,13.85742 L 169.75,269 157,269 Z"
         id="path4411" />
      <path
         inkscape:connector-curvature="0"
         id="rect4265-9"
         d="m 16,269 0,13 c 0,1 1,1 1,1 l 15,0 -16,-14 z m 3,6.61133 L 24.015625,280 19,280 l 0,-4.38867 z"
         style="display:inline;fill:#686868;fill-opacity:1;stroke:none;enable-background:new;opacity:0.8" />
      <g
         transform="translate(186.5001,-174.5)"
         style="display:inline"
         inkscape:label="places"
         id="layer1-2" />
      <g
         transform="translate(-54.5001,442.5)"
         style="display:inline"
         inkscape:label="mimetypes"
         id="layer14" />
      <g
         transform="translate(-54.5001,442.5)"
         style="display:inline"
         inkscape:label="emblems"
         id="layer15" />
      <g
         transform="translate(-54.5001,442.5)"
         style="display:inline"
         inkscape:label="emotes"
         id="g71291" />
      <g
         transform="translate(186.5001,-24.5)"
         style="display:inline"
         inkscape:label="categories"
         id="layer2" />
      <g
         transform="translate(186.5001,-24.5)"
         style="display:inline"
         inkscape:label="apps"
         id="g6058" />
      <g
         transform="translate(-54.5001,442.5)"
         style="display:inline"
         inkscape:label="actions"
         id="layer12" />
      <path
         style="opacity:0.2;fill:#000000;fill-opacity:1;stroke:none;filter:url(#filter4312)"
         d="m 240,-160 0,360 c 0,24 24,24 24,24 l 424,0 -448,-384 z M 320,13.9375 471.74023,144 320,144 320,13.9375 Z"
         id="path4310"
         inkscape:connector-curvature="0" />
      <path
         inkscape:connector-curvature="0"
         id="path4316"
         d="m 240,-152 0,360 c 0,24 24,24 24,24 l 424,0 -448,-384 z M 320,21.9375 471.74023,152 320,152 320,21.9375 Z"
         style="opacity:0.2;fill:#000000;fill-opacity:1;stroke:#000000;stroke-width:8;stroke-miterlimit:4;stroke-dasharray:none;stroke-opacity:1;filter:url(#filter4219)" />
      <path
         inkscape:connector-curvature="0"
         id="rect4229-5"
         d="m 240,-164 0,360 c 0,24 24,24 24,24 l 424,0 -448,-384 z M 320,9.9375 471.74023,140 320,140 320,9.9375 Z"
         style="fill:#686868;fill-opacity:1;stroke:none;opacity:0.8" />
      <path
         inkscape:connector-curvature="0"
         id="path4514"
         d="m 54,264 0,1 18.75,15 1.25,0 -20,-16 z m 4,12 0,1 4.597656,0 -1.25,-1 L 58,276 Z"
         style="opacity:0.2;fill:#ffffff;fill-opacity:1;stroke:none" />
      <path
         inkscape:connector-curvature="0"
         id="path4535"
         d="m 100,256 0,1 26.83398,23 1.16602,0 -28,-24 z m 5,19 0,1 9.48242,0 -1.16601,-1 L 105,275 Z"
         style="opacity:0.2;fill:#ffffff;fill-opacity:1;stroke:none" />
      <path
         inkscape:connector-curvature="0"
         style="opacity:0.1;fill:#000000;fill-opacity:1;stroke:none"
         d="M 688,220 685.66602,218 264,218 c 0,0 -24,0 -24,-24 l 0,2 c 0,24 24,24 24,24 l 424,0 z M 471.74023,138 320,7.9375 l 0,2 L 469.40625,138 l 2.33398,0 z"
         id="path4629" />
      <path
         inkscape:connector-curvature="0"
         id="path4615"
         d="m 240,-164 0,2 L 685.66602,220 688,220 240,-164 Z m 80,304 0,2 151.74023,0 -2.33398,-2 L 320,140 Z"
         style="opacity:0.2;fill:#ffffff;fill-opacity:1;stroke:none" />
      <path
         transform="translate(0,-244)"
         sodipodi:nodetypes="cccccccccc"
         inkscape:connector-curvature="0"
         id="path4223"
         d="m 150,488 0,1 37.78125,31 1.21875,0 z m 7,25 0,1 12.75,0 -1.14453,-1 z"
         style="opacity:0.2;fill:#ffffff;fill-opacity:1;stroke:none" />
      <path
         sodipodi:nodetypes="cccccc"
         inkscape:connector-curvature="0"
         id="path4474"
         d="m 169.51172,257.0429 12,22 0.24414,3.95703 -3.75586,-2.04297 -12,-22 z"
         style="color:#000000;font-style:normal;font-variant:normal;font-weight:normal;font-stretch:normal;font-size:medium;line-height:normal;font-family:sans-serif;text-indent:0;text-align:start;text-decoration:none;text-decoration-line:none;text-decoration-style:solid;text-decoration-color:#000000;letter-spacing:normal;word-spacing:normal;text-transform:none;direction:ltr;block-progression:tb;writing-mode:lr-tb;baseline-shift:baseline;text-anchor:start;white-space:normal;clip-rule:nonzero;display:inline;overflow:visible;visibility:visible;opacity:0.2;isolation:auto;mix-blend-mode:normal;color-interpolation:sRGB;color-interpolation-filters:linearRGB;solid-color:#000000;solid-opacity:1;fill:#000000;fill-opacity:1;fill-rule:evenodd;stroke:none;stroke-width:4;stroke-linecap:butt;stroke-linejoin:miter;stroke-miterlimit:4;stroke-dasharray:none;stroke-dashoffset:0;stroke-opacity:1;color-rendering:auto;image-rendering:auto;shape-rendering:auto;text-rendering:auto;enable-background:accumulate" />
      <path
         inkscape:connector-curvature="0"
         style="opacity:0.2;fill:#000000;fill-opacity:1;stroke:none;stroke-width:2;stroke-miterlimit:4;stroke-dasharray:none;stroke-opacity:1"
         d="m 166.24414,257.0429 -12,22 -0.24414,3.95703 3.75586,-2.04297 1.64844,-3.02148 a 19,19 0 0 0 8.5957,2.06445 19,19 0 0 0 19,-19 l -4,0 a 15,15 0 0 1 -15,15 15,15 0 0 1 -6.67188,-1.5918 l 8.42774,-15.45117 -3.51172,-1.91406 z"
         id="path4476" />
      <path
         style="color:#000000;font-style:normal;font-variant:normal;font-weight:normal;font-stretch:normal;font-size:medium;line-height:normal;font-family:sans-serif;text-indent:0;text-align:start;text-decoration:none;text-decoration-line:none;text-decoration-style:solid;text-decoration-color:#000000;letter-spacing:normal;word-spacing:normal;text-transform:none;direction:ltr;block-progression:tb;writing-mode:lr-tb;baseline-shift:baseline;text-anchor:start;white-space:normal;clip-rule:nonzero;display:inline;overflow:visible;visibility:visible;opacity:1;isolation:auto;mix-blend-mode:normal;color-interpolation:sRGB;color-interpolation-filters:linearRGB;solid-color:#000000;solid-opacity:1;fill:#c6c6c6;fill-opacity:1;fill-rule:evenodd;stroke:none;stroke-width:4;stroke-linecap:butt;stroke-linejoin:miter;stroke-miterlimit:4;stroke-dasharray:none;stroke-dashoffset:0;stroke-opacity:1;color-rendering:auto;image-rendering:auto;shape-rendering:auto;text-rendering:auto;enable-background:accumulate"
         d="m 169.51172,256.0429 12,22 0.24414,3.95703 -3.75586,-2.04297 -12,-22 z"
         id="path4466"
         inkscape:connector-curvature="0"
         sodipodi:nodetypes="cccccc" />
      <path
         inkscape:connector-curvature="0"
         id="circle4446"
         d="m 166.24414,256.0429 -12,22 -0.24414,3.95703 3.75586,-2.04297 1.64844,-3.02148 a 19,19 0 0 0 8.5957,2.06445 19,19 0 0 0 19,-19 l -4,0 a 15,15 0 0 1 -15,15 15,15 0 0 1 -6.67188,-1.5918 l 8.42774,-15.45117 -3.51172,-1.91406 z"
         style="opacity:1;fill:#e6e6e6;fill-opacity:1;stroke:none;stroke-width:2;stroke-miterlimit:4;stroke-dasharray:none;stroke-opacity:1" />
      <path
         sodipodi:nodetypes="ccscccccccccc"
         inkscape:connector-curvature="0"
         id="path4478"
         d="m 166,248.99993 0,4 -2,0 c -2,0 -2,2 -2,2 l 0,8 4,4 c 1.32864,1.0738 2.76745,1.24915 4,0 l 4,-4 0,-8 c 0,-2 -2,-2 -2,-2 l -2,0 0,-4 z"
         style="opacity:0.2;fill:#000000;fill-opacity:1;stroke:none;stroke-width:1;stroke-linecap:round;stroke-linejoin:round;stroke-miterlimit:4;stroke-dasharray:none;stroke-opacity:1" />
      <path
         inkscape:connector-curvature="0"
         id="path4487"
         d="m 166.24414,256.0429 -12,22 -0.24414,3.95703 0.0644,-0.0352 0.17969,-2.92187 12,-22 3.0918,1.68555 0.41992,-0.77149 -3.51172,-1.91406 z M 183,259.99993 a 15,15 0 0 1 -15,15 15,15 0 0 1 -6.23633,-1.39062 l -0.43555,0.79882 a 15,15 0 0 0 6.67188,1.5918 15,15 0 0 0 15,-15 l 3.96484,0 a 19,19 0 0 0 0.0352,-1 l -4,0 z"
         style="opacity:0.5;fill:#ffffff;fill-opacity:1;stroke:none;stroke-width:2;stroke-miterlimit:4;stroke-dasharray:none;stroke-opacity:1" />
      <path
         inkscape:connector-curvature="0"
         style="color:#000000;font-style:normal;font-variant:normal;font-weight:normal;font-stretch:normal;font-size:medium;line-height:normal;font-family:sans-serif;text-indent:0;text-align:start;text-decoration:none;text-decoration-line:none;text-decoration-style:solid;text-decoration-color:#000000;letter-spacing:normal;word-spacing:normal;text-transform:none;direction:ltr;block-progression:tb;writing-mode:lr-tb;baseline-shift:baseline;text-anchor:start;white-space:normal;clip-rule:nonzero;display:inline;overflow:visible;visibility:visible;opacity:1;isolation:auto;mix-blend-mode:normal;color-interpolation:sRGB;color-interpolation-filters:linearRGB;solid-color:#000000;solid-opacity:1;fill:#c6c6c6;fill-opacity:1;fill-rule:evenodd;stroke:none;stroke-width:2;stroke-linecap:butt;stroke-linejoin:round;stroke-miterlimit:4;stroke-dasharray:none;stroke-dashoffset:0;stroke-opacity:1;color-rendering:auto;image-rendering:auto;shape-rendering:auto;text-rendering:auto;enable-background:accumulate"
         d="m 64.037109,269.99993 c 0.349968,0.0127 0.667792,0.20756 0.837891,0.51367 l 5,9 0.125,2.48633 -1.875,-1.51367 -4.125,-7.42578 0,-3.05664 c 0.01263,0 0.02442,-0.004 0.03711,-0.004 z"
         id="path4711" />
      <path
         id="path4682"
         d="m 63.962891,269.99993 c -0.349968,0.0127 -0.667792,0.20756 -0.837891,0.51367 l -5,9 -0.125,2.48633 1.875,-1.51367 0.703125,-1.26367 A 8,8 0 0 0 64,279.99993 a 8,8 0 0 0 8,-8 l -2,0 a 6,6 0 0 1 -6,6 6,6 0 0 1 -2.447266,-0.5332 L 64,273.06048 l 0,-3.05664 c -0.01263,0 -0.02442,-0.004 -0.03711,-0.004 z"
         style="opacity:1;fill:#e6e6e6;fill-opacity:1;stroke:none;stroke-width:1;stroke-linecap:round;stroke-linejoin:round;stroke-miterlimit:4;stroke-dasharray:none;stroke-opacity:1"
         inkscape:connector-curvature="0" />
      <path
         sodipodi:nodetypes="ccssccccccccssccc"
         inkscape:connector-curvature="0"
         id="rect4672"
         d="m 63,265.99993 0,2 -1,0 c -0.554,0 -1,0.446 -1,1 l 0,1 0,1 0,2 2,2 c 0.531455,0.42952 1.506979,0.49966 2,0 l 2,-2 0,-2 0,-1 0,-1 c 0,-0.554 -0.446,-1 -1,-1 l -1,0 0,-2 z"
         style="opacity:1;fill:#6a6a6a;fill-opacity:1;stroke:none;stroke-width:1;stroke-linecap:round;stroke-linejoin:round;stroke-miterlimit:4;stroke-dasharray:none;stroke-opacity:1" />
      <circle
         r="1"
         cy="270.99994"
         cx="64"
         id="path4680"
         style="opacity:1;fill:#ffffff;fill-opacity:1;stroke:none;stroke-width:1;stroke-linecap:round;stroke-linejoin:round;stroke-miterlimit:4;stroke-dasharray:none;stroke-opacity:1" />
      <path
         inkscape:connector-curvature="0"
         style="color:#000000;font-style:normal;font-variant:normal;font-weight:normal;font-stretch:normal;font-size:medium;line-height:normal;font-family:sans-serif;text-indent:0;text-align:start;text-decoration:none;text-decoration-line:none;text-decoration-style:solid;text-decoration-color:#000000;letter-spacing:normal;word-spacing:normal;text-transform:none;direction:ltr;block-progression:tb;writing-mode:lr-tb;baseline-shift:baseline;text-anchor:start;white-space:normal;clip-rule:nonzero;display:inline;overflow:visible;visibility:visible;opacity:0.2;isolation:auto;mix-blend-mode:normal;color-interpolation:sRGB;color-interpolation-filters:linearRGB;solid-color:#000000;solid-opacity:1;fill:#000000;fill-opacity:1;fill-rule:evenodd;stroke:none;stroke-width:2;stroke-linecap:butt;stroke-linejoin:round;stroke-miterlimit:4;stroke-dasharray:none;stroke-dashoffset:0;stroke-opacity:1;color-rendering:auto;image-rendering:auto;shape-rendering:auto;text-rendering:auto;enable-background:accumulate"
         d="m 112.05566,265.99993 c 0.52496,0.019 1.00169,0.31134 1.25684,0.7705 l 7.5,13.5 0.1875,3.7295 -2.8125,-2.2705 -6.1875,-11.13868 0,-4.58496 c 0.019,0 0.0366,-0.006 0.0557,-0.006 z"
         id="path4386" />
      <path
         inkscape:connector-curvature="0"
         id="path4384"
         d="m 111.94434,265.99993 c -0.52496,0.019 -1.00169,0.31134 -1.25684,0.77051 l -7.5,13.5 -0.1875,3.72949 2.8125,-2.27051 1.05469,-1.8955 a 12,12 0 0 0 5.13281,1.16601 12,12 0 0 0 12,-12 l -3,0 a 9,9 0 0 1 -9,9 9,9 0 0 1 -3.6709,-0.7998 l 3.6709,-6.60938 0,-4.58495 c -0.019,0 -0.0366,-0.006 -0.0557,-0.006 z"
         style="opacity:0.2;fill:#000000;fill-opacity:1;stroke:none;stroke-width:1;stroke-linecap:round;stroke-linejoin:round;stroke-miterlimit:4;stroke-dasharray:none;stroke-opacity:1" />
      <path
         id="path4723"
         d="m 112.05566,264.99993 c 0.52496,0.019 1.00169,0.31134 1.25684,0.7705 l 7.5,13.5 0.1875,3.7295 -2.8125,-2.2705 -6.1875,-11.13868 0,-4.58496 c 0.019,0 0.0366,-0.006 0.0557,-0.006 z"
         style="color:#000000;font-style:normal;font-variant:normal;font-weight:normal;font-stretch:normal;font-size:medium;line-height:normal;font-family:sans-serif;text-indent:0;text-align:start;text-decoration:none;text-decoration-line:none;text-decoration-style:solid;text-decoration-color:#000000;letter-spacing:normal;word-spacing:normal;text-transform:none;direction:ltr;block-progression:tb;writing-mode:lr-tb;baseline-shift:baseline;text-anchor:start;white-space:normal;clip-rule:nonzero;display:inline;overflow:visible;visibility:visible;opacity:1;isolation:auto;mix-blend-mode:normal;color-interpolation:sRGB;color-interpolation-filters:linearRGB;solid-color:#000000;solid-opacity:1;fill:#c6c6c6;fill-opacity:1;fill-rule:evenodd;stroke:none;stroke-width:2;stroke-linecap:butt;stroke-linejoin:round;stroke-miterlimit:4;stroke-dasharray:none;stroke-dashoffset:0;stroke-opacity:1;color-rendering:auto;image-rendering:auto;shape-rendering:auto;text-rendering:auto;enable-background:accumulate"
         inkscape:connector-curvature="0" />
      <path
         style="opacity:1;fill:#e6e6e6;fill-opacity:1;stroke:none;stroke-width:1;stroke-linecap:round;stroke-linejoin:round;stroke-miterlimit:4;stroke-dasharray:none;stroke-opacity:1"
         d="m 111.94434,264.99993 c -0.52496,0.019 -1.00169,0.31134 -1.25684,0.77051 l -7.5,13.5 -0.1875,3.72949 2.8125,-2.27051 1.05469,-1.8955 a 12,12 0 0 0 5.13281,1.16601 12,12 0 0 0 12,-12 l -3,0 a 9,9 0 0 1 -9,9 9,9 0 0 1 -3.6709,-0.7998 l 3.6709,-6.60938 0,-4.58495 c -0.019,0 -0.0366,-0.006 -0.0557,-0.006 z"
         id="path4725"
         inkscape:connector-curvature="0" />
      <path
         sodipodi:nodetypes="cccccccccccccc"
         inkscape:connector-curvature="0"
         id="path4380"
         d="m 110,259.99993 0,3 -1,0 c -2,0 -2,2 -2,2 l 0,5 c 0,0 2.5,2.50002 3.5,3.50003 0.8992,0.69992 2.39217,0.75609 3.16496,-0.16495 L 117,269.99993 l 0,-5 c 0,0 0,-2 -2,-2 l -1,0 0,-3 -4,0 z"
         style="opacity:0.2;fill:#000000;fill-opacity:1;stroke:none;stroke-width:1;stroke-linecap:round;stroke-linejoin:round;stroke-miterlimit:4;stroke-dasharray:none;stroke-opacity:1" />
      <path
         id="path4375"
         d="m 111.94336,264.99993 c -0.52419,0.0197 -1.00103,0.31288 -1.25586,0.77148 l -7.5,13.5 -0.1875,3.72852 0.0527,-0.043 0.13477,-2.68555 7.5,-13.5 c 0.25483,-0.4586 0.73167,-0.75183 1.25586,-0.77148 l 0.002,0 c 0.0184,3.8e-4 0.0363,0.006 0.0547,0.006 l 0,-1 c -0.0183,0 -0.0363,-0.005 -0.0547,-0.006 l -0.002,0 z m 9.05664,3 a 9,9 0 0 1 -9,9 9,9 0 0 1 -3.2168,-0.61914 l -0.45508,0.82031 a 9,9 0 0 0 3.67188,0.79883 9,9 0 0 0 9,-9 l 2.95312,0 a 12,12 0 0 0 0.0469,-1 l -3,0 z"
         style="opacity:0.2;fill:#ffffff;fill-opacity:1;stroke:none;stroke-width:1;stroke-linecap:round;stroke-linejoin:round;stroke-miterlimit:4;stroke-dasharray:none;stroke-opacity:1"
         inkscape:connector-curvature="0" />
      <path
         style="opacity:1;fill:#6a6a6a;fill-opacity:1;stroke:none;stroke-width:1;stroke-linecap:round;stroke-linejoin:round;stroke-miterlimit:4;stroke-dasharray:none;stroke-opacity:1"
         d="m 110,258.99993 0,3 -1,0 c -2,0 -2,2 -2,2 l 0,5 c 0,0 2.5,2.50002 3.5,3.50003 0.8992,0.69992 2.39217,0.75609 3.16496,-0.16495 L 117,268.99993 l 0,-5 c 0,0 0,-2 -2,-2 l -1,0 0,-3 -4,0 z"
         id="path4727"
         inkscape:connector-curvature="0"
         sodipodi:nodetypes="cccccccccccccc" />
      <circle
         r="2"
         cy="266.99994"
         cx="112"
         id="circle4382"
         style="opacity:0.2;fill:#000000;fill-opacity:1;stroke:none;stroke-width:1;stroke-linecap:round;stroke-linejoin:round;stroke-miterlimit:4;stroke-dasharray:none;stroke-opacity:1" />
      <circle
         style="opacity:1;fill:#ffffff;fill-opacity:1;stroke:none;stroke-width:1;stroke-linecap:round;stroke-linejoin:round;stroke-miterlimit:4;stroke-dasharray:none;stroke-opacity:1"
         id="circle4729"
         cx="112"
         cy="265.99994"
         r="2" />
      <path
         id="path4370"
         d="m 110,258.99993 0,1 4,0 0,-1 -4,0 z m -1,3 c -2,0 -2,2 -2,2 l 0,1 c 0,0 0,-2 2,-2 l 1,0 0,-1 -1,0 z m 5,0 0,1 1,0 c 2,0 2,2 2,2 l 0,-1 c 0,0 0,-2 -2,-2 l -1,0 z"
         style="opacity:0.1;fill:#ffffff;fill-opacity:1;stroke:none;stroke-width:1;stroke-linecap:round;stroke-linejoin:round;stroke-miterlimit:4;stroke-dasharray:none;stroke-opacity:1"
         inkscape:connector-curvature="0" />
      <path
         style="opacity:1;fill:#6a6a6a;fill-opacity:1;stroke:none;stroke-width:1;stroke-linecap:round;stroke-linejoin:round;stroke-miterlimit:4;stroke-dasharray:none;stroke-opacity:1"
         d="m 166,247.99993 0,4 -2,0 c -2,0 -2,2 -2,2 l 0,8 4,4 c 1.32864,1.0738 2.76745,1.24915 4,0 l 4,-4 0,-8 c 0,-2 -2,-2 -2,-2 l -2,0 0,-4 z"
         id="path4436"
         inkscape:connector-curvature="0"
         sodipodi:nodetypes="ccscccccccccc" />
      <circle
         r="2"
         cy="258.99991"
         cx="168"
         id="circle4480"
         style="opacity:0.2;fill:#000000;fill-opacity:1;stroke:none;stroke-width:1;stroke-linecap:round;stroke-linejoin:round;stroke-miterlimit:4;stroke-dasharray:none;stroke-opacity:1" />
      <circle
         style="opacity:1;fill:#ffffff;fill-opacity:1;stroke:none;stroke-width:1;stroke-linecap:round;stroke-linejoin:round;stroke-miterlimit:4;stroke-dasharray:none;stroke-opacity:1"
         id="circle4438"
         cx="168"
         cy="257.99991"
         r="2" />
      <path
         inkscape:connector-curvature="0"
         id="path4482"
         d="m 166,247.99993 0,1 4,0 0,-1 -4,0 z m -2,4 c -2,0 -2,2 -2,2 l 0,1 c 0,0 0,-2 2,-2 l 2,0 0,-1 -2,0 z m 6,0 0,1 2,0 c 0,0 2,0 2,2 l 0,-1 c 0,-2 -2,-2 -2,-2 l -2,0 z"
         style="opacity:0.2;fill:#ffffff;fill-opacity:1;stroke:none;stroke-width:1;stroke-linecap:round;stroke-linejoin:round;stroke-miterlimit:4;stroke-dasharray:none;stroke-opacity:1" />
      <path
         id="path4494"
         d="m 24.037109,271.99993 c 0.349968,0.0127 0.667792,0.20756 0.837891,0.51367 l 5,9 0.125,2.48633 -1.875,-1.51367 -4.125,-7.42578 0,-3.05664 c 0.01263,0 0.02442,-0.004 0.03711,-0.004 z"
         style="color:#000000;font-style:normal;font-variant:normal;font-weight:normal;font-stretch:normal;font-size:medium;line-height:normal;font-family:sans-serif;text-indent:0;text-align:start;text-decoration:none;text-decoration-line:none;text-decoration-style:solid;text-decoration-color:#000000;letter-spacing:normal;word-spacing:normal;text-transform:none;direction:ltr;block-progression:tb;writing-mode:lr-tb;baseline-shift:baseline;text-anchor:start;white-space:normal;clip-rule:nonzero;display:inline;overflow:visible;visibility:visible;opacity:1;isolation:auto;mix-blend-mode:normal;color-interpolation:sRGB;color-interpolation-filters:linearRGB;solid-color:#000000;solid-opacity:1;fill:#c6c6c6;fill-opacity:1;fill-rule:evenodd;stroke:none;stroke-width:2;stroke-linecap:butt;stroke-linejoin:round;stroke-miterlimit:4;stroke-dasharray:none;stroke-dashoffset:0;stroke-opacity:1;color-rendering:auto;image-rendering:auto;shape-rendering:auto;text-rendering:auto;enable-background:accumulate"
         inkscape:connector-curvature="0" />
      <path
         style="opacity:1;fill:#e6e6e6;fill-opacity:1;stroke:none;stroke-width:1;stroke-linecap:round;stroke-linejoin:round;stroke-miterlimit:4;stroke-dasharray:none;stroke-opacity:1"
         d="m 23.962891,271.99993 c -0.349968,0.0127 -0.667792,0.20756 -0.837891,0.51367 l -5,9 -0.125,2.48633 1.875,-1.51367 0.703125,-1.26367 A 8,8 0 0 0 24,281.99993 a 8,8 0 0 0 8,-8 l -2,0 a 6,6 0 0 1 -6,6 6,6 0 0 1 -2.447266,-0.5332 L 24,275.06048 l 0,-3.05664 c -0.01263,0 -0.02442,-0.004 -0.03711,-0.004 z"
         id="path4496"
         inkscape:connector-curvature="0" />
      <path
         style="opacity:1;fill:#6a6a6a;fill-opacity:1;stroke:none;stroke-width:1;stroke-linecap:round;stroke-linejoin:round;stroke-miterlimit:4;stroke-dasharray:none;stroke-opacity:1"
         d="m 23,267.99993 0,2 -1,0 c -0.554,0 -1,0.446 -1,1 l 0,1 0,1 0,2 2,2 c 0.531455,0.42952 1.506979,0.49966 2,0 l 2,-2 0,-2 0,-1 0,-1 c 0,-0.554 -0.446,-1 -1,-1 l -1,0 0,-2 z"
         id="path4498"
         inkscape:connector-curvature="0"
         sodipodi:nodetypes="ccssccccccccssccc" />
      <circle
         style="opacity:1;fill:#ffffff;fill-opacity:1;stroke:none;stroke-width:1;stroke-linecap:round;stroke-linejoin:round;stroke-miterlimit:4;stroke-dasharray:none;stroke-opacity:1"
         id="circle4500"
         cx="24"
         cy="272.99994"
         r="1" />
      <path
         transform="matrix(16,0,0,16,-1327.2499,-4260.0001)"
         id="path4585"
         d="m 112.05566,265.5 c 0.52496,0.019 1.00169,0.31134 1.25684,0.7705 l 7.5,13.5 L 121,283.5 118.1875,281.2295 112,270.09082 l 0,-4.58496 c 0.019,0 0.0366,-0.006 0.0557,-0.006 z"
         style="color:#000000;font-style:normal;font-variant:normal;font-weight:normal;font-stretch:normal;font-size:medium;line-height:normal;font-family:sans-serif;text-indent:0;text-align:start;text-decoration:none;text-decoration-line:none;text-decoration-style:solid;text-decoration-color:#000000;letter-spacing:normal;word-spacing:normal;text-transform:none;direction:ltr;block-progression:tb;writing-mode:lr-tb;baseline-shift:baseline;text-anchor:start;white-space:normal;clip-rule:nonzero;display:inline;overflow:visible;visibility:visible;opacity:0.2;isolation:auto;mix-blend-mode:normal;color-interpolation:sRGB;color-interpolation-filters:linearRGB;solid-color:#000000;solid-opacity:1;fill:#000000;fill-opacity:1;fill-rule:evenodd;stroke:none;stroke-width:2;stroke-linecap:butt;stroke-linejoin:round;stroke-miterlimit:4;stroke-dasharray:none;stroke-dashoffset:0;stroke-opacity:1;filter:url(#filter4591);color-rendering:auto;image-rendering:auto;shape-rendering:auto;text-rendering:auto;enable-background:accumulate"
         inkscape:connector-curvature="0" />
      <path
         inkscape:connector-curvature="0"
         style="color:#000000;font-style:normal;font-variant:normal;font-weight:normal;font-stretch:normal;font-size:medium;line-height:normal;font-family:sans-serif;text-indent:0;text-align:start;text-decoration:none;text-decoration-line:none;text-decoration-style:solid;text-decoration-color:#000000;letter-spacing:normal;word-spacing:normal;text-transform:none;direction:ltr;block-progression:tb;writing-mode:lr-tb;baseline-shift:baseline;text-anchor:start;white-space:normal;clip-rule:nonzero;display:inline;overflow:visible;visibility:visible;opacity:1;isolation:auto;mix-blend-mode:normal;color-interpolation:sRGB;color-interpolation-filters:linearRGB;solid-color:#000000;solid-opacity:1;fill:#c6c6c6;fill-opacity:1;fill-rule:evenodd;stroke:none;stroke-width:2;stroke-linecap:butt;stroke-linejoin:round;stroke-miterlimit:4;stroke-dasharray:none;stroke-dashoffset:0;stroke-opacity:1;color-rendering:auto;image-rendering:auto;shape-rendering:auto;text-rendering:auto;enable-background:accumulate"
         d="m 465.64066,-20.00007 c 8.39936,0.304 16.02704,4.98144 20.10944,12.3279999 l 120,216.0000001 3,59.672 -45,-36.328 -99,-178.21888 0,-73.35936 c 0.304,0 0.5856,-0.096 0.8912,-0.096 z"
         id="path4551" />
      <path
         transform="matrix(16,0,0,16,-1327.2499,-4260.0001)"
         style="opacity:0.2;fill:#000000;fill-opacity:1;stroke:none;stroke-width:1;stroke-linecap:round;stroke-linejoin:round;stroke-miterlimit:4;stroke-dasharray:none;stroke-opacity:1;filter:url(#filter4581)"
         d="m 111.94434,265.375 c -0.52496,0.019 -1.00169,0.31134 -1.25684,0.77051 l -7.5,13.5 -0.1875,3.72949 2.8125,-2.27051 1.05469,-1.8955 A 12,12 0 0 0 112,280.375 a 12,12 0 0 0 12,-12 l -3,0 a 9,9 0 0 1 -9,9 9,9 0 0 1 -3.6709,-0.7998 l 3.6709,-6.60938 0,-4.58495 c -0.019,0 -0.0366,-0.006 -0.0557,-0.006 z"
         id="path4579"
         inkscape:connector-curvature="0" />
      <path
         inkscape:connector-curvature="0"
         id="path4671"
         d="m 465.64062,-20.00202 c -0.30559,0 -0.58662,0.0957 -0.89062,0.0957 l 0,2 c 0.304,0 0.58503,-0.0957 0.89062,-0.0957 l 0,0.002 c 8.39937,0.304 16.02698,4.98156 20.10938,12.32812 l 120,216 2.89453,57.5879 0.10547,0.084 -3,-59.67188 -120,-216 c -4.0824,-7.34663 -11.71001,-12.02419 -20.10938,-12.32819 l 0,-0.002 z"
         style="color:#000000;font-style:normal;font-variant:normal;font-weight:normal;font-stretch:normal;font-size:medium;line-height:normal;font-family:sans-serif;text-indent:0;text-align:start;text-decoration:none;text-decoration-line:none;text-decoration-style:solid;text-decoration-color:#000000;letter-spacing:normal;word-spacing:normal;text-transform:none;direction:ltr;block-progression:tb;writing-mode:lr-tb;baseline-shift:baseline;text-anchor:start;white-space:normal;clip-rule:nonzero;display:inline;overflow:visible;visibility:visible;opacity:0.5;isolation:auto;mix-blend-mode:normal;color-interpolation:sRGB;color-interpolation-filters:linearRGB;solid-color:#000000;solid-opacity:1;fill:#ffffff;fill-opacity:1;fill-rule:evenodd;stroke:none;stroke-width:2;stroke-linecap:butt;stroke-linejoin:round;stroke-miterlimit:4;stroke-dasharray:none;stroke-dashoffset:0;stroke-opacity:1;color-rendering:auto;image-rendering:auto;shape-rendering:auto;text-rendering:auto;enable-background:accumulate" />
      <path
         inkscape:connector-curvature="0"
         id="path4553"
         d="m 463.85954,-20.00007 c -8.39936,0.304 -16.02704,4.98144 -20.10944,12.3281599 l -120,216.0000001 -3,59.67184 45,-36.32816 16.87504,-30.328 a 192,192 0 0 0 82.12496,18.65616 192,192 0 0 0 192,-192 l -48,0 a 144,144 0 0 1 -144,144 144,144 0 0 1 -58.7344,-12.7968 l 58.7344,-105.75008 0,-73.3592 c -0.304,0 -0.5856,-0.096 -0.8912,-0.096 z"
         style="opacity:1;fill:#e6e6e6;fill-opacity:1;stroke:none;stroke-width:1;stroke-linecap:round;stroke-linejoin:round;stroke-miterlimit:4;stroke-dasharray:none;stroke-opacity:1" />
      <path
         sodipodi:nodetypes="cccccccccccccccccccccc"
         inkscape:connector-curvature="0"
         id="path4557"
         d="m 463.84375,-20.00007 c -8.38704,0.3152 -16.01647,5.00615 -20.09375,12.34375 l -120,216 -3,59.65625 0.10547,-0.0859 2.89453,-57.57031 120,-216 c 4.07728,-7.33764 11.70671,-12.02859 20.09375,-12.34379 l 0.0312,0 c 0.2944,0.016 0.5822,0.0957 0.875,0.0957 l 0,-2 c -0.2928,0 -0.5806,-0.0797 -0.875,-0.0957 z m 144.90625,48 c 0,79.529 -64.471,144 -144,144 -17.6178,-0.12571 -35.06297,-3.4834 -51.46875,-9.90625 l 0,2 c 16.40578,6.42285 33.85095,9.78054 51.46875,9.90625 79.529,0 144,-64.471 144,-144 l 47.90625,0 c 0.0347,-0.6665 0.066,-1.33317 0.0937,-2 z"
         style="opacity:0.5;fill:#ffffff;fill-opacity:1;stroke:none;stroke-width:1;stroke-linecap:round;stroke-linejoin:round;stroke-miterlimit:4;stroke-dasharray:none;stroke-opacity:1" />
      <path
         style="opacity:0.2;fill:#000000;fill-opacity:1;stroke:none;stroke-width:1;stroke-linecap:round;stroke-linejoin:round;stroke-miterlimit:4;stroke-dasharray:none;stroke-opacity:1;filter:url(#filter4664)"
         d="m 436.7501,-112.00007 0,48 -28.7501,0 c -24,0 -24,24 -24,24 l 0.7501,88 c 0,0 40,40.00032 56,56.00048 14.3872,11.19872 38.27472,12.09744 50.63936,-2.6392 l 53.36064,-53.36128 -0.7501,-88 c 0,0 0,-24 -24,-24 l -27.2499,0 0,-48 z"
         id="path4662"
         inkscape:connector-curvature="0"
         sodipodi:nodetypes="ccccccccccccc" />
      <path
         sodipodi:nodetypes="ccccccccccccc"
         inkscape:connector-curvature="0"
         id="path4559"
         d="m 436.7501,-116.00007 0,48 -28.7501,0 c -24,0 -24,24 -24,24 l 0.7501,88 c 0,0 40,40.00032 56,56.00048 14.3872,11.19872 38.27472,12.09744 50.63936,-2.6392 l 53.36064,-53.36128 -0.7501,-88 c 0,0 0,-24 -24,-24 l -27.2499,0 0,-48 z"
         style="opacity:1;fill:#6a6a6a;fill-opacity:1;stroke:none;stroke-width:1;stroke-linecap:round;stroke-linejoin:round;stroke-miterlimit:4;stroke-dasharray:none;stroke-opacity:1" />
      <circle
         transform="matrix(16,0,0,16,-1327.2499,-4260.0001)"
         style="opacity:0.2;fill:#000000;fill-opacity:1;stroke:none;stroke-width:1;stroke-linecap:round;stroke-linejoin:round;stroke-miterlimit:4;stroke-dasharray:none;stroke-opacity:1;filter:url(#filter4575)"
         id="circle4573"
         cx="112"
         cy="266.25"
         r="2" />
      <circle
         r="32"
         cy="-4.0000701"
         cx="464.75009"
         id="circle4563"
         style="opacity:1;fill:#ffffff;fill-opacity:1;stroke:none;stroke-width:1;stroke-linecap:round;stroke-linejoin:round;stroke-miterlimit:4;stroke-dasharray:none;stroke-opacity:1" />
      <path
         inkscape:connector-curvature="0"
         id="path4657"
         d="m 436.75,-116.00007 0,2 56,0 0,-2 -56,0 z m -28.75,48 c -24,0 -24,24 -24,24 l 0.0137,1.68359 c 0.0339,-1.70225 0.90666,-23.68359 23.9863,-23.68359 l 28.75,0 0,-2 -28.75,0 z m 84.75,0 0,2 27.25,0 c 24,0 24,24 24,24 l 0.73242,86.01758 0.0176,-0.01758 -0.75,-88 c 0,0 0,-24 -24,-24 l -27.25,0 z"
         style="opacity:0.3;fill:#ffffff;fill-opacity:1;stroke:none;stroke-width:1;stroke-linecap:round;stroke-linejoin:round;stroke-miterlimit:4;stroke-dasharray:none;stroke-opacity:1" />
    </g>
  </g>
</svg>
