<?xml version="1.0" encoding="UTF-8" standalone="no"?>
<!-- Created with Inkscape (http://www.inkscape.org/) -->

<svg
   xmlns:osb="http://www.openswatchbook.org/uri/2009/osb"
   xmlns:dc="http://purl.org/dc/elements/1.1/"
   xmlns:cc="http://creativecommons.org/ns#"
   xmlns:rdf="http://www.w3.org/1999/02/22-rdf-syntax-ns#"
   xmlns:svg="http://www.w3.org/2000/svg"
   xmlns="http://www.w3.org/2000/svg"
   xmlns:xlink="http://www.w3.org/1999/xlink"
   xmlns:sodipodi="http://sodipodi.sourceforge.net/DTD/sodipodi-0.dtd"
   xmlns:inkscape="http://www.inkscape.org/namespaces/inkscape"
   inkscape:export-ydpi="90.000000"
   inkscape:export-xdpi="90.000000"
   width="736"
   height="544"
   id="svg11300"
   sodipodi:version="0.32"
   inkscape:version="0.91 r13725"
   sodipodi:docname="computer.svg"
   inkscape:output_extension="org.inkscape.output.svg.inkscape"
   version="1.0"
   style="display:inline;enable-background:new"
   inkscape:export-filename="/home/sam/paper-template.png">
  <sodipodi:namedview
     stroke="#646464"
     fill="#909090"
     id="base"
     pagecolor="#434343"
     bordercolor="#666666"
     borderopacity="0.25490196"
     inkscape:pageopacity="0"
     inkscape:pageshadow="2"
     inkscape:zoom="1"
     inkscape:cx="151.61046"
     inkscape:cy="1361.3932"
     inkscape:current-layer="g4245"
     showgrid="false"
     inkscape:grid-bbox="true"
     inkscape:document-units="px"
     inkscape:showpageshadow="false"
     inkscape:window-width="1316"
     inkscape:window-height="698"
     inkscape:window-x="25"
     inkscape:window-y="45"
     width="400px"
     height="300px"
     inkscape:snap-nodes="true"
     inkscape:snap-bbox="true"
     gridtolerance="10000"
     inkscape:object-nodes="true"
     inkscape:snap-grids="true"
     showguides="false"
     inkscape:guide-bbox="true"
     inkscape:window-maximized="1"
     inkscape:snap-global="true"
     inkscape:snap-bbox-midpoints="true">
    <inkscape:grid
       snapvisiblegridlinesonly="true"
       empspacing="4"
       visible="true"
       enabled="true"
       type="xygrid"
       id="grid5883"
       spacingx="1px"
       spacingy="1px" />
    <inkscape:grid
       snapvisiblegridlinesonly="true"
       empopacity="0.25098039"
       empcolor="#ff0000"
       opacity="0.1254902"
       color="#ff0000"
       spacingy="0.5px"
       spacingx="0.5px"
       enabled="false"
       visible="true"
       empspacing="2"
       id="grid11592"
       type="xygrid" />
  </sodipodi:namedview>
  <title
     id="title3004">Paper Icon Theme</title>
  <defs
     id="defs3">
    <linearGradient
       id="linearGradient5504"
       inkscape:collect="always">
      <stop
         id="stop5506"
         offset="0"
         style="stop-color:#000000;stop-opacity:1;" />
      <stop
         id="stop5508"
         offset="1"
         style="stop-color:#000000;stop-opacity:0;" />
    </linearGradient>
    <linearGradient
       id="linearGradient5606"
       osb:paint="solid">
      <stop
         id="stop5608"
         offset="0"
         style="stop-color:#000000;stop-opacity:1;" />
    </linearGradient>
    <filter
       height="1.05088"
       y="-0.02544"
       width="1.0454286"
       x="-0.022714286"
       id="filter5521"
       style="color-interpolation-filters:sRGB"
       inkscape:collect="always">
      <feGaussianBlur
         id="feGaussianBlur5523"
         stdDeviation="4.24"
         inkscape:collect="always" />
    </filter>
    <filter
       id="filter5602"
       style="color-interpolation-filters:sRGB"
       inkscape:collect="always">
      <feGaussianBlur
         id="feGaussianBlur5604"
         stdDeviation="2.4"
         inkscape:collect="always" />
    </filter>
    <linearGradient
       gradientTransform="translate(14,0)"
       y2="-472"
       x2="-228"
       y1="-472"
       x1="-180"
       gradientUnits="userSpaceOnUse"
       id="linearGradient4280"
       xlink:href="#linearGradient5504"
       inkscape:collect="always" />
    <linearGradient
       gradientTransform="translate(14,0)"
       y2="-472"
       x2="-228"
       y1="-472"
       x1="-180"
       gradientUnits="userSpaceOnUse"
       id="linearGradient4280-713"
       xlink:href="#linearGradient5504-398"
       inkscape:collect="always" />
    <linearGradient
       id="linearGradient5504-398"
       inkscape:collect="always">
      <stop
         id="stop3466"
         offset="0"
         style="stop-color:#000000;stop-opacity:1;" />
      <stop
         id="stop3468"
         offset="1"
         style="stop-color:#000000;stop-opacity:0;" />
    </linearGradient>
  </defs>
  <metadata
     id="metadata4">
    <rdf:RDF>
      <cc:Work
         rdf:about="">
        <dc:format>image/svg+xml</dc:format>
        <dc:type
           rdf:resource="http://purl.org/dc/dcmitype/StillImage" />
        <dc:creator>
          <cc:Agent>
            <dc:title>Sam Hewitt</dc:title>
          </cc:Agent>
        </dc:creator>
        <dc:source />
        <cc:license
           rdf:resource="http://creativecommons.org/licenses/by-sa/3.0/" />
        <dc:title>Paper Icon Theme</dc:title>
        <dc:subject>
          <rdf:Bag />
        </dc:subject>
        <dc:date />
        <dc:rights>
          <cc:Agent>
            <dc:title />
          </cc:Agent>
        </dc:rights>
        <dc:publisher>
          <cc:Agent>
            <dc:title />
          </cc:Agent>
        </dc:publisher>
        <dc:identifier />
        <dc:relation />
        <dc:language />
        <dc:coverage />
        <dc:description />
        <dc:contributor>
          <cc:Agent>
            <dc:title />
          </cc:Agent>
        </dc:contributor>
      </cc:Work>
      <cc:Work
         rdf:about="">
        <dc:format>image/svg+xml</dc:format>
        <dc:type
           rdf:resource="http://purl.org/dc/dcmitype/StillImage" />
      </cc:Work>
      <cc:License
         rdf:about="http://creativecommons.org/licenses/by-sa/3.0/">
        <cc:permits
           rdf:resource="http://creativecommons.org/ns#Reproduction" />
        <cc:permits
           rdf:resource="http://creativecommons.org/ns#Distribution" />
        <cc:requires
           rdf:resource="http://creativecommons.org/ns#Notice" />
        <cc:requires
           rdf:resource="http://creativecommons.org/ns#Attribution" />
        <cc:permits
           rdf:resource="http://creativecommons.org/ns#DerivativeWorks" />
        <cc:requires
           rdf:resource="http://creativecommons.org/ns#ShareAlike" />
      </cc:License>
    </rdf:RDF>
  </metadata>
  <g
     transform="translate(0,244)"
     id="layer1"
     inkscape:label="computer"
     inkscape:groupmode="layer"
     style="display:inline">
    <g
       inkscape:groupmode="layer"
       id="layer7"
       inkscape:label="Baseplate"
       style="display:none">
      <rect
         transform="scale(-1,1)"
         inkscape:label="48x48"
         y="-228"
         x="-720"
         height="512"
         width="512"
         id="rect3951"
         style="display:inline;overflow:visible;visibility:visible;fill:#e9e9e9;fill-opacity:1;fill-rule:nonzero;stroke:none;stroke-width:2;marker:none;enable-background:accumulate" />
      <text
         id="context"
         inkscape:label="context"
         style="font-style:normal;font-variant:normal;font-weight:normal;font-stretch:normal;font-size:18px;font-family:'DejaVu Sans';-inkscape-font-specification:'DejaVu Sans';display:inline;fill:#000000;fill-opacity:1;stroke:none;enable-background:new"
         x="15.006836"
         xml:space="preserve"
         y="332.48523"><tspan
           id="tspan3933"
           sodipodi:role="line"
           x="15.006836"
           y="332.48523"
           style="font-style:normal;font-variant:normal;font-weight:normal;font-stretch:normal;font-family:'DejaVu Sans';-inkscape-font-specification:'DejaVu Sans'">devices</tspan></text>
      <text
         id="icon-name"
         inkscape:label="icon-name"
         sodipodi:linespacing="125%"
         style="font-style:normal;font-variant:normal;font-weight:bold;font-stretch:normal;font-size:18px;line-height:125%;font-family:'DejaVu Sans';-inkscape-font-specification:'DejaVu Sans Bold';text-align:start;writing-mode:lr-tb;text-anchor:start;display:inline;fill:#000000;fill-opacity:1;stroke:none;enable-background:new"
         x="142.48828"
         xml:space="preserve"
         y="332.48523"><tspan
           id="tspan3937"
           sodipodi:role="line"
           x="142.48828"
           y="332.48523"
           style="font-style:normal;font-variant:normal;font-weight:bold;font-stretch:normal;font-size:18px;font-family:'DejaVu Sans';-inkscape-font-specification:'DejaVu Sans Bold'">computer</tspan></text>
      <rect
         transform="scale(-1,1)"
         inkscape:label="16x16"
         y="268"
         x="-32"
         height="16"
         width="16"
         id="rect16x16"
         style="display:inline;overflow:visible;visibility:visible;fill:#e9e9e9;fill-opacity:1;fill-rule:nonzero;stroke:none;stroke-width:2;marker:none;enable-background:accumulate" />
      <rect
         transform="scale(-1,1)"
         inkscape:label="24x24"
         y="260"
         x="-76"
         height="24"
         width="24"
         id="rect24x24"
         style="display:inline;overflow:visible;visibility:visible;fill:#e9e9e9;fill-opacity:1;fill-rule:nonzero;stroke:none;stroke-width:2;marker:none;enable-background:accumulate" />
      <rect
         transform="scale(-1,1)"
         inkscape:label="32x32"
         y="252"
         x="-128"
         height="32"
         width="32"
         id="rect32x32"
         style="display:inline;overflow:visible;visibility:visible;fill:#e9e9e9;fill-opacity:1;fill-rule:nonzero;stroke:none;stroke-width:2;marker:none;enable-background:accumulate" />
      <rect
         transform="scale(-1,1)"
         style="display:inline;overflow:visible;visibility:visible;fill:#e9e9e9;fill-opacity:1;fill-rule:nonzero;stroke:none;stroke-width:2;marker:none;enable-background:accumulate"
         id="rect48x48"
         width="48"
         height="48"
         x="-192"
         y="236"
         inkscape:label="48x48" />
    </g>
    <g
       style="display:inline"
       inkscape:label="Symbols"
       id="layer6"
       inkscape:groupmode="layer">
      <g
         id="g4317">
        <path
           style="opacity:0.1;fill:#000000;fill-opacity:1;stroke:none;filter:url(#filter5521)"
           d="m 264,-158 c -13.296,0 -24,10.704 -24,24 l 0,304 c 0,13.296 10.704,24 24,24 l 104,0 0,40 c 0,4.432 3.568,8 8,8 l 176,0 c 4.432,0 8,-3.568 8,-8 l 0,-40 104,0 c 13.296,0 24,-10.704 24,-24 l 0,-304 c 0,-13.296 -10.704,-24 -24,-24 l -400,0 z"
           id="path5525"
           inkscape:connector-curvature="0" />
        <path
           inkscape:connector-curvature="0"
           id="path5519"
           d="m 264,-158 c -13.296,0 -24,10.704 -24,24 l 0,304 c 0,13.296 10.704,24 24,24 l 104,0 0,40 c 0,4.432 3.568,8 8,8 l 176,0 c 4.432,0 8,-3.568 8,-8 l 0,-40 104,0 c 13.296,0 24,-10.704 24,-24 l 0,-304 c 0,-13.296 -10.704,-24 -24,-24 l -400,0 z"
           style="opacity:0.2;fill:#000000;fill-opacity:1;stroke:none;filter:url(#filter5521)" />
        <path
           style="opacity:0.2;fill:#000000;fill-opacity:1;stroke:none"
           d="m 264,-160 c -13.296,0 -24,10.704 -24,24 l 0,304 c 0,13.296 10.704,24 24,24 l 104,0 0,40 c 0,4.432 3.568,8 8,8 l 176,0 c 4.432,0 8,-3.568 8,-8 l 0,-40 104,0 c 13.296,0 24,-10.704 24,-24 l 0,-304 c 0,-13.296 -10.704,-24 -24,-24 l -400,0 z"
           id="rect5512"
           inkscape:connector-curvature="0" />
        <rect
           ry="1"
           y="-118"
           x="-283"
           height="12"
           width="7"
           id="rect5500"
           style="opacity:0.2;fill:#000000;fill-opacity:1;stroke:none"
           transform="matrix(0,-1,-1,0,0,0)" />
        <rect
           transform="matrix(0,-1,-1,0,0,0)"
           style="fill:#bbbbbb;fill-opacity:1;stroke:none"
           id="rect5498"
           width="7"
           height="12"
           x="-282"
           y="-118"
           ry="1" />
        <rect
           style="opacity:1;fill:#bbbbbb;fill-opacity:1;stroke:none;stroke-width:2;stroke-miterlimit:4;stroke-dasharray:none;stroke-opacity:1"
           id="rect5490"
           width="8"
           height="3"
           x="20"
           y="281" />
        <rect
           transform="matrix(0,-1,-1,0,0,0)"
           style="fill:#bbbbbb;fill-opacity:1;stroke:none"
           id="rect5480"
           width="104"
           height="192"
           x="-238"
           y="-560"
           ry="8" />
        <rect
           ry="1"
           rx="1"
           y="279"
           x="58"
           height="5"
           width="12"
           id="rect5470"
           style="opacity:0.2;fill:#000000;fill-opacity:1;stroke:none;stroke-width:2;stroke-miterlimit:4;stroke-dasharray:none;stroke-opacity:1" />
        <rect
           style="opacity:1;fill:#bbbbbb;fill-opacity:1;stroke:none;stroke-width:2;stroke-miterlimit:4;stroke-dasharray:none;stroke-opacity:1"
           id="rect5468"
           width="12"
           height="5"
           x="58"
           y="278"
           rx="1"
           ry="1" />
        <rect
           ry="1.5"
           rx="1.5"
           y="269"
           x="160"
           height="9"
           width="16"
           id="rect5466"
           style="opacity:0.2;fill:#000000;fill-opacity:1;stroke:none;stroke-width:2;stroke-miterlimit:4;stroke-dasharray:none;stroke-opacity:1" />
        <rect
           style="opacity:1;fill:#bbbbbb;fill-opacity:1;stroke:none;stroke-width:2;stroke-miterlimit:4;stroke-dasharray:none;stroke-opacity:1"
           id="rect5440"
           width="16"
           height="9"
           x="160"
           y="268"
           rx="1.5"
           ry="1.5" />
        <rect
           y="271"
           x="160"
           height="3"
           width="16"
           id="rect5476"
           style="opacity:0.05;fill:#000000;fill-opacity:1;stroke:none;stroke-width:2;stroke-miterlimit:4;stroke-dasharray:none;stroke-opacity:1" />
        <path
           inkscape:connector-curvature="0"
           id="path4487"
           d="m 150,273 c -1.108,0 -2,-0.892 -2,-2 l 0,-14 40,0 0,14 c 0,1.108 -0.892,2 -2,2 l -36,0 z"
           style="opacity:0.2;fill:#000000;fill-opacity:1;stroke:none" />
        <path
           sodipodi:nodetypes="ssssccs"
           inkscape:connector-curvature="0"
           style="opacity:0.2;fill:#000000;fill-opacity:1;stroke:none"
           d="m 54.000008,279.99999 c 0,0.554 0.446,1 1,1 l 18,0 c 0.554,0 1,-0.446 1,-1 l 0,-7 -20,0 z"
           id="path4489" />
        <path
           sodipodi:nodetypes="scscccs"
           inkscape:connector-curvature="0"
           style="opacity:0.2;fill:#000000;fill-opacity:1;stroke:none"
           d="m 98,278.5 c 0,1.50005 1.5,1.5 1.5,1.5 l 25,0 c 1.5,0 1.5,-1.5 1.5,-1.5 l 0,-9.5 -28,0 z"
           id="path4491" />
        <rect
           ry="8"
           y="-560"
           x="-238"
           height="192"
           width="104"
           id="rect5502"
           style="opacity:0.2;fill:url(#linearGradient4280-713);fill-opacity:1;stroke:none"
           transform="matrix(0,-1,-1,0,0,0)" />
        <rect
           ry="24"
           rx="24"
           y="-688"
           x="-190"
           height="448"
           width="352"
           id="rect4229"
           style="fill:#d6d6d6;fill-opacity:1;stroke:none"
           transform="matrix(0,-1,-1,0,0,0)" />
        <path
           style="opacity:0.2;fill:#ffffff;fill-opacity:1;stroke:none"
           d="m 264,-162 c -13.296,0 -24,10.704 -24,24 l 0,2 c 0,-13.296 10.704,-24 24,-24 l 400,0 c 13.296,0 24,10.704 24,24 l 0,-2 c 0,-13.296 -10.704,-24 -24,-24 z"
           id="rect4431"
           inkscape:connector-curvature="0"
           sodipodi:nodetypes="sscsscsss" />
        <rect
           transform="matrix(0,-1,-1,0,0,0)"
           style="fill:#d6d6d6;fill-opacity:1;stroke:none"
           id="rect4203"
           width="32"
           height="40"
           x="-272"
           y="-188"
           rx="2"
           ry="2" />
        <path
           style="opacity:0.1;fill:#ffffff;fill-opacity:1;stroke:none"
           d="m 150,240 c -1.108,0 -2,0.892 -2,2 l 0,1 c 0,-1.108 0.892,-2 2,-2 l 36,0 c 1.108,0 2,0.892 2,2 l 0,-1 c 0,-1.108 -0.892,-2 -2,-2 z"
           id="rect4135"
           inkscape:connector-curvature="0"
           sodipodi:nodetypes="sscsscsss" />
        <rect
           transform="matrix(0,-1,-1,0,0,0)"
           style="fill:#d6d6d6;fill-opacity:1;stroke:none"
           id="rect3095"
           width="15.999992"
           height="20"
           x="-280"
           y="-74.000008"
           rx="1"
           ry="1" />
        <rect
           transform="matrix(0,-1,-1,0,0,0)"
           style="fill:#d6d6d6;fill-opacity:1;stroke:none"
           id="rect4255"
           width="22"
           height="28"
           x="-279"
           y="-126"
           rx="1.5"
           ry="1.5" />
        <rect
           transform="matrix(0,-1,-1,0,0,0)"
           style="display:inline;fill:#d6d6d6;fill-opacity:1;stroke:none;enable-background:new"
           id="rect4265"
           width="14"
           height="16"
           x="-282"
           y="-32"
           rx="1"
           ry="1" />
        <path
           id="path3895"
           d="m 54,266 0,-1 c 0,-0.554 0.446,-1 1,-1 l 18,0 c 0.554,0 1,0.446 1,1 l 0,1 c 0,-0.554 -0.446,-1 -1,-1 l -18,0 c -0.554,0 -1,0.446 -1,1 z"
           style="opacity:0.1;fill:#ffffff;fill-opacity:1;stroke:none"
           inkscape:connector-curvature="0" />
        <path
           style="opacity:0.1;fill:#ffffff;fill-opacity:1;stroke:none"
           d="m 99.5,257 c -0.831,0 -1.5,0.669 -1.5,1.5 l 0,1 c 0,-0.831 0.669,-1.5 1.5,-1.5 l 25,0 c 0.831,0 1.5,0.669 1.5,1.5 l 0,-1 c 0,-0.831 -0.669,-1.5 -1.5,-1.5 l -25,0 z"
           id="rect4425"
           inkscape:connector-curvature="0" />
        <path
           style="display:inline;opacity:0.1;fill:#ffffff;fill-opacity:1;stroke:none;enable-background:new"
           d="m 17,268 c -0.554,0 -1,0.446 -1,1 l 0,1 c 0,-0.554 0.446,-1 1,-1 l 14,0 c 0.554,0 1,0.446 1,1 l 0,-1 c 0,-0.554 -0.446,-1 -1,-1 l -14,0 z"
           id="rect4444"
           inkscape:connector-curvature="0" />
        <path
           style="opacity:0.2;fill:none;fill-rule:evenodd;stroke:#000000;stroke-width:2;stroke-linecap:butt;stroke-linejoin:miter;stroke-miterlimit:4;stroke-dasharray:none;stroke-opacity:1;filter:url(#filter5602)"
           d="m 368,191 192,0"
           id="path5596"
           inkscape:connector-curvature="0"
           sodipodi:nodetypes="cc" />
      </g>
      <g
         id="g4346">
        <rect
           y="-186"
           x="-266"
           height="36"
           width="24"
           id="rect5474"
           style="opacity:0.8;fill:#2f2f2f;fill-opacity:1;stroke:none"
           transform="matrix(0,-1,-1,0,0,0)" />
        <rect
           ry="4"
           y="-672"
           x="-112"
           height="416.00012"
           width="255.99998"
           id="rect5527"
           style="opacity:0.5;fill:#ffffff;fill-opacity:1;stroke:none"
           transform="matrix(0,-1,-1,0,0,0)" />
        <rect
           transform="matrix(0,-1,-1,0,0,0)"
           style="opacity:0.8;fill:#2f2f2f;fill-opacity:1;stroke:none"
           id="rect5478"
           width="255.99998"
           height="416.00012"
           x="-110"
           y="-672"
           ry="4" />
        <rect
           y="-31"
           x="-280"
           height="14"
           width="11"
           id="rect5492"
           style="display:inline;opacity:0.8;fill:#2f2f2f;fill-opacity:1;stroke:none;enable-background:new"
           transform="matrix(0,-1,-1,0,0,0)" />
        <rect
           ry="0.5"
           y="-73"
           x="-277"
           height="18"
           width="12"
           id="rect5494"
           style="opacity:0.8;fill:#2f2f2f;fill-opacity:1;stroke:none"
           transform="matrix(0,-1,-1,0,0,0)" />
        <rect
           ry="0.5"
           y="-125"
           x="-275"
           height="26"
           width="17"
           id="rect5496"
           style="opacity:0.8;fill:#2f2f2f;fill-opacity:1;stroke:none"
           transform="matrix(0,-1,-1,0,0,0)" />
      </g>
    </g>
  </g>
  <g
     style="display:inline"
     inkscape:groupmode="layer"
     inkscape:label="computer-fail"
     id="g4190"
     transform="translate(0,244)">
    <g
       style="display:none"
       inkscape:label="Baseplate"
       id="g4192"
       inkscape:groupmode="layer">
      <rect
         style="display:inline;overflow:visible;visibility:visible;fill:#e9e9e9;fill-opacity:1;fill-rule:nonzero;stroke:none;stroke-width:2;marker:none;enable-background:accumulate"
         id="rect4194"
         width="512"
         height="512"
         x="-720"
         y="-870"
         inkscape:label="48x48"
         transform="scale(-1,1)" />
      <text
         y="-309.51477"
         xml:space="preserve"
         x="15.006836"
         style="font-style:normal;font-variant:normal;font-weight:normal;font-stretch:normal;font-size:18px;font-family:'DejaVu Sans';-inkscape-font-specification:'DejaVu Sans';display:inline;fill:#000000;fill-opacity:1;stroke:none;enable-background:new"
         inkscape:label="context"
         id="text4196"><tspan
           style="font-style:normal;font-variant:normal;font-weight:normal;font-stretch:normal;font-family:'DejaVu Sans';-inkscape-font-specification:'DejaVu Sans'"
           y="-309.51477"
           x="15.006836"
           sodipodi:role="line"
           id="tspan4198">status</tspan></text>
      <text
         y="-309.51477"
         xml:space="preserve"
         x="142.48828"
         style="font-style:normal;font-variant:normal;font-weight:bold;font-stretch:normal;font-size:18px;line-height:125%;font-family:'DejaVu Sans';-inkscape-font-specification:'DejaVu Sans Bold';text-align:start;writing-mode:lr-tb;text-anchor:start;display:inline;fill:#000000;fill-opacity:1;stroke:none;enable-background:new"
         sodipodi:linespacing="125%"
         inkscape:label="icon-name"
         id="text4200"><tspan
           style="font-style:normal;font-variant:normal;font-weight:bold;font-stretch:normal;font-size:18px;font-family:'DejaVu Sans';-inkscape-font-specification:'DejaVu Sans Bold'"
           y="-309.51477"
           x="142.48828"
           sodipodi:role="line"
           id="tspan4202">computer-fail</tspan></text>
      <rect
         style="display:inline;overflow:visible;visibility:visible;fill:#e9e9e9;fill-opacity:1;fill-rule:nonzero;stroke:none;stroke-width:2;marker:none;enable-background:accumulate"
         id="rect4204"
         width="16"
         height="16"
         x="-32"
         y="-374"
         inkscape:label="16x16"
         transform="scale(-1,1)" />
      <rect
         style="display:inline;overflow:visible;visibility:visible;fill:#e9e9e9;fill-opacity:1;fill-rule:nonzero;stroke:none;stroke-width:2;marker:none;enable-background:accumulate"
         id="rect4206"
         width="24"
         height="24"
         x="-76"
         y="-382"
         inkscape:label="24x24"
         transform="scale(-1,1)" />
      <rect
         style="display:inline;overflow:visible;visibility:visible;fill:#e9e9e9;fill-opacity:1;fill-rule:nonzero;stroke:none;stroke-width:2;marker:none;enable-background:accumulate"
         id="rect4208"
         width="32"
         height="32"
         x="-128"
         y="-390"
         inkscape:label="32x32"
         transform="scale(-1,1)" />
      <rect
         inkscape:label="48x48"
         y="-406"
         x="-192"
         height="48"
         width="48"
         id="rect4210"
         style="display:inline;overflow:visible;visibility:visible;fill:#e9e9e9;fill-opacity:1;fill-rule:nonzero;stroke:none;stroke-width:2;marker:none;enable-background:accumulate"
         transform="scale(-1,1)" />
    </g>
    <g
       inkscape:groupmode="layer"
       id="g4212"
       inkscape:label="Symbols"
       style="display:inline">
      <use
         height="100%"
         width="100%"
         transform="translate(0,-642)"
         id="use4356"
         xlink:href="#g4317"
         y="0"
         x="0"
         style="display:inline;enable-background:new" />
      <rect
         y="-186"
         x="376"
         height="36"
         width="24"
         id="rect4363"
         style="opacity:1;fill:#767676;fill-opacity:1;stroke:none"
         transform="matrix(0,-1,-1,0,0,0)" />
      <rect
         ry="4"
         y="-672"
         x="530"
         height="416.00012"
         width="255.99998"
         id="rect4365"
         style="opacity:0.5;fill:#ffffff;fill-opacity:1;stroke:none"
         transform="matrix(0,-1,-1,0,0,0)" />
      <rect
         transform="matrix(0,-1,-1,0,0,0)"
         style="opacity:1;fill:#767676;fill-opacity:1;stroke:none"
         id="rect4367"
         width="255.99998"
         height="416.00012"
         x="532"
         y="-672"
         ry="4" />
      <rect
         y="-31"
         x="362"
         height="14"
         width="11"
         id="rect4369"
         style="display:inline;opacity:1;fill:#767676;fill-opacity:1;stroke:none;enable-background:new"
         transform="matrix(0,-1,-1,0,0,0)" />
      <rect
         y="-73"
         x="365"
         height="18"
         width="12"
         id="rect4371"
         style="opacity:1;fill:#767676;fill-opacity:1;stroke:none"
         transform="matrix(0,-1,-1,0,0,0)" />
      <rect
         ry="0.5"
         y="-125"
         x="367"
         height="26"
         width="17"
         id="rect4373"
         style="opacity:1;fill:#767676;fill-opacity:1;stroke:none"
         transform="matrix(0,-1,-1,0,0,0)" />
      <g
         transform="translate(-469.0002,-98)"
         style="display:inline;fill:#ffffff"
         inkscape:label="status"
         id="layer9">
        <path
           style="display:inline;fill:#ffffff;fill-opacity:1;stroke:none;enable-background:new"
           sodipodi:nodetypes="ccccccccccccccccccccccccccccc"
           id="rect5735"
           d="m 490.0002,-272 0,2 1,0 0,-2 z m 5,0 0,2 1,0 0,-2 z m -5,4 0,1 1,0 4,0 1,0 0,-1 -1,0 -4,0 z m 6,1 0,1 1,0 0,-1 z m -6,0 -1,0 0,1 1,0 z"
           inkscape:connector-curvature="0" />
      </g>
      <g
         id="g4571"
         inkscape:label="status"
         style="display:inline;fill:#ffffff"
         transform="matrix(2,0,0,2,-874.0004,162)">
        <path
           inkscape:connector-curvature="0"
           d="m 490.5002,-271.5 0,2 1,0 0,-2 z m 4,0 0,2 1,0 0,-2 z m -4,3.5 0,1 1,0 3,0 1,0 0,-1 -1,0 -3,0 z m 5,1 0,1 1,0 0,-1 z m -5,0 -1,0 0,1 1,0 z"
           id="path4573"
           sodipodi:nodetypes="ccccccccccccccccccccccccccccc"
           style="display:inline;fill:#ffffff;fill-opacity:1;stroke:none;enable-background:new" />
      </g>
      <g
         transform="matrix(2,0,0,2,-818.0004,150)"
         style="display:inline;fill:#ffffff"
         inkscape:label="status"
         id="g4579">
        <path
           style="display:inline;fill:#ffffff;fill-opacity:1;stroke:none;enable-background:new"
           sodipodi:nodetypes="ccccccccccccccccccccccccccccc"
           id="path4581"
           d="m 490.0002,-272.5 0,3 1,0 0,-3 z m 5,0 0,3 1,0 0,-3 z m -6,5 0,1 1,0 6,0 1,0 0,-1 -1,0 -6,0 z m 8,1 0,1 1,0 0,-1 z m -8,0 -1,0 0,1 1,0 z"
           inkscape:connector-curvature="0" />
      </g>
      <g
         id="g4583"
         inkscape:label="status"
         style="display:inline;fill:#ffffff"
         transform="translate(-429.0002,-102)">
        <path
           inkscape:connector-curvature="0"
           d="m 490.0002,-273 0,3 1,0 0,-3 z m 5,0 0,3 1,0 0,-3 z m -6,5 0,1 1,0 6,0 1,0 0,-1 -1,0 -6,0 z m 8,1 0,1 1,0 0,-1 z m -8,0 -1,0 0,1 1,0 z"
           id="path4585"
           sodipodi:nodetypes="ccccccccccccccccccccccccccccc"
           style="display:inline;fill:#ffffff;fill-opacity:1;stroke:none;enable-background:new" />
      </g>
      <g
         transform="matrix(32,0,0,32,-15312.006,7948)"
         style="display:inline;fill:#ffffff"
         inkscape:label="status"
         id="g4587">
        <path
           style="display:inline;fill:#ffffff;fill-opacity:1;stroke:none;enable-background:new"
           sodipodi:nodetypes="ccccccccccccccccccccccccccc"
           id="path4589"
           d="m 490.50019,-271.5 0,2 1,0 0,-2 z m 4,0 0,2 1,0 0,-2 z m -4,3 0,1 5,0 0,-1 0,0 -5,0 z m 5,1 0,1 1,0 0,-1 z m -5,0 -1,0 0,1 1,0 z"
           inkscape:connector-curvature="0" />
      </g>
      <path
         inkscape:connector-curvature="0"
         id="rect4591"
         transform="translate(0,-244)"
         d="m 260,-544 c -2.216,0 -4,1.784 -4,4 l 0,2 c 0,-2.216 1.784,-4 4,-4 l 408,0 c 2.216,0 4,1.784 4,4 l 0,-2 c 0,-2.216 -1.784,-4 -4,-4 l -408,0 z"
         style="opacity:0.2;fill:#000000;fill-opacity:1;stroke:none" />
      <rect
         transform="matrix(0,-1,-1,0,0,0)"
         style="opacity:0.1;fill:#000000;fill-opacity:1;stroke:none"
         id="rect4596"
         width="1"
         height="36"
         x="399"
         y="-186" />
    </g>
  </g>
  <g
     transform="translate(0,244)"
     id="g4223"
     inkscape:label="system-lock-screen"
     inkscape:groupmode="layer"
     style="display:inline">
    <g
       inkscape:groupmode="layer"
       id="g4225"
       inkscape:label="Baseplate"
       style="display:none">
      <rect
         transform="scale(-1,1)"
         inkscape:label="48x48"
         y="-1510"
         x="-720"
         height="512"
         width="512"
         id="rect4227"
         style="display:inline;overflow:visible;visibility:visible;fill:#e9e9e9;fill-opacity:1;fill-rule:nonzero;stroke:none;stroke-width:2;marker:none;enable-background:accumulate" />
      <text
         id="text4229"
         inkscape:label="context"
         style="font-style:normal;font-variant:normal;font-weight:normal;font-stretch:normal;font-size:18px;font-family:'DejaVu Sans';-inkscape-font-specification:'DejaVu Sans';display:inline;fill:#000000;fill-opacity:1;stroke:none;enable-background:new"
         x="15.006836"
         xml:space="preserve"
         y="-949.51477"><tspan
           id="tspan4231"
           sodipodi:role="line"
           x="15.006836"
           y="-949.51477"
           style="font-style:normal;font-variant:normal;font-weight:normal;font-stretch:normal;font-family:'DejaVu Sans';-inkscape-font-specification:'DejaVu Sans'">actions</tspan></text>
      <text
         id="text4233"
         inkscape:label="icon-name"
         sodipodi:linespacing="125%"
         style="font-style:normal;font-variant:normal;font-weight:bold;font-stretch:normal;font-size:18px;line-height:125%;font-family:'DejaVu Sans';-inkscape-font-specification:'DejaVu Sans Bold';text-align:start;writing-mode:lr-tb;text-anchor:start;display:inline;fill:#000000;fill-opacity:1;stroke:none;enable-background:new"
         x="142.48828"
         xml:space="preserve"
         y="-949.51477"><tspan
           id="tspan4235"
           sodipodi:role="line"
           x="142.48828"
           y="-949.51477"
           style="font-style:normal;font-variant:normal;font-weight:bold;font-stretch:normal;font-size:18px;font-family:'DejaVu Sans';-inkscape-font-specification:'DejaVu Sans Bold'">system-lock-screen</tspan></text>
      <rect
         transform="scale(-1,1)"
         inkscape:label="16x16"
         y="-1014"
         x="-32"
         height="16"
         width="16"
         id="rect4237"
         style="display:inline;overflow:visible;visibility:visible;fill:#e9e9e9;fill-opacity:1;fill-rule:nonzero;stroke:none;stroke-width:2;marker:none;enable-background:accumulate" />
      <rect
         transform="scale(-1,1)"
         inkscape:label="24x24"
         y="-1022"
         x="-76"
         height="24"
         width="24"
         id="rect4239"
         style="display:inline;overflow:visible;visibility:visible;fill:#e9e9e9;fill-opacity:1;fill-rule:nonzero;stroke:none;stroke-width:2;marker:none;enable-background:accumulate" />
      <rect
         transform="scale(-1,1)"
         inkscape:label="32x32"
         y="-1030"
         x="-128"
         height="32"
         width="32"
         id="rect4241"
         style="display:inline;overflow:visible;visibility:visible;fill:#e9e9e9;fill-opacity:1;fill-rule:nonzero;stroke:none;stroke-width:2;marker:none;enable-background:accumulate" />
      <rect
         transform="scale(-1,1)"
         style="display:inline;overflow:visible;visibility:visible;fill:#e9e9e9;fill-opacity:1;fill-rule:nonzero;stroke:none;stroke-width:2;marker:none;enable-background:accumulate"
         id="rect4243"
         width="48"
         height="48"
         x="-192"
         y="-1046"
         inkscape:label="48x48" />
    </g>
    <g
       style="display:inline"
       inkscape:label="Symbols"
       id="g4245"
       inkscape:groupmode="layer">
      <use
         style="display:inline;enable-background:new"
         x="0"
         y="0"
         xlink:href="#g4317"
         id="use4247"
         transform="translate(0,-1282)"
         width="100%"
         height="100%" />
      <rect
         transform="matrix(0,-1,-1,0,0,0)"
         style="opacity:1;fill:#8a8a8a;fill-opacity:1;stroke:none"
         id="rect4249"
         width="24"
         height="36"
         x="1016"
         y="-186" />
      <rect
         rx="4"
         transform="matrix(0,-1,-1,0,0,0)"
         style="opacity:0.5;fill:#ffffff;fill-opacity:1;stroke:none"
         id="rect4251"
         width="255.99998"
         height="416.00012"
         x="1170"
         y="-672"
         ry="4" />
      <rect
         rx="4"
         ry="4"
         y="-672"
         x="1172"
         height="416.00012"
         width="255.99998"
         id="rect4253"
         style="opacity:1;fill:#8a8a8a;fill-opacity:1;stroke:none"
         transform="matrix(0,-1,-1,0,0,0)" />
      <rect
         transform="matrix(0,-1,-1,0,0,0)"
         style="display:inline;opacity:1;fill:#8a8a8a;fill-opacity:1;stroke:none;enable-background:new"
         id="rect4256"
         width="11"
         height="14"
         x="1002"
         y="-31" />
      <rect
         transform="matrix(0,-1,-1,0,0,0)"
         style="opacity:1;fill:#8a8a8a;fill-opacity:1;stroke:none"
         id="rect4258"
         width="12"
         height="18"
         x="1005"
         y="-73" />
      <rect
         rx="0.5"
         transform="matrix(0,-1,-1,0,0,0)"
         style="opacity:1;fill:#8a8a8a;fill-opacity:1;stroke:none"
         id="rect4260"
         width="17"
         height="26"
         x="1007"
         y="-125"
         ry="0.5" />
      <path
         inkscape:connector-curvature="0"
         style="opacity:0.2;fill:#000000;fill-opacity:1;stroke:none"
         d="m 260,-1428 c -2.216,0 -4,1.784 -4,4 l 0,2 c 0,-2.216 1.784,-4 4,-4 l 408,0 c 2.216,0 4,1.784 4,4 l 0,-2 c 0,-2.216 -1.784,-4 -4,-4 l -408,0 z"
         id="path4282" />
      <path
         inkscape:connector-curvature="0"
         id="path3000"
         d="m 112,-1021 c -1.51878,0 -2.75,1.2312 -2.75,2.75 0,1.1391 0.68263,2.1116 1.66965,2.529 l -1.66965,5.721 5.5,0 -1.66965,-5.721 c 0.98702,-0.4174 1.66965,-1.3899 1.66965,-2.529 0,-1.5188 -1.23122,-2.75 -2.75,-2.75 z"
         style="color:#000000;display:inline;overflow:visible;visibility:visible;fill:#434343;fill-opacity:1;fill-rule:nonzero;stroke:none;stroke-width:1;marker:none;enable-background:accumulate" />
      <path
         style="color:#000000;display:inline;overflow:visible;visibility:visible;fill:#434343;fill-opacity:1;fill-rule:nonzero;stroke:none;stroke-width:1;marker:none;enable-background:accumulate"
         d="m 64,-1015 c -1.10457,0 -2,0.8954 -2,2 0,0.8284 0.49645,1.5357 1.21429,1.8393 L 62,-1007 l 4,0 -1.21429,-4.1607 C 65.50355,-1011.4643 66,-1012.1716 66,-1013 c 0,-1.1046 -0.89543,-2 -2,-2 z"
         id="path4333"
         inkscape:connector-curvature="0" />
      <path
         inkscape:connector-curvature="0"
         id="path4337"
         d="m 24,-1011 c -0.966499,0 -1.75,0.7835 -1.75,1.75 0,0.7249 0.434393,1.3438 1.062503,1.6094 L 22.25,-1004 l 3.5,0 -1.062504,-3.6406 c 0.62811,-0.2656 1.062504,-0.8845 1.062504,-1.6094 0,-0.9665 -0.783501,-1.75 -1.75,-1.75 z"
         style="color:#000000;display:inline;overflow:visible;visibility:visible;fill:#434343;fill-opacity:1;fill-rule:nonzero;stroke:none;stroke-width:1;marker:none;enable-background:accumulate" />
      <path
         style="color:#000000;display:inline;overflow:visible;visibility:visible;fill:#434343;fill-opacity:1;fill-rule:nonzero;stroke:none;stroke-width:1;marker:none;enable-background:accumulate"
         d="m 168,-1036 c -2.20913,0 -4,1.7908 -4,4 0,1.6568 0.99291,3.0713 2.42857,3.6785 L 164,-1020 l 8,0 -2.42857,-8.3215 c 1.43566,-0.6072 2.42857,-2.0217 2.42857,-3.6785 0,-2.2092 -1.79087,-4 -4,-4 z"
         id="path4341"
         inkscape:connector-curvature="0" />
      <path
         inkscape:connector-curvature="0"
         id="path4343"
         d="m 464,-1380 c -22.0913,0 -40,17.908 -40,40 0,16.568 9.9291,30.713 24.2857,36.785 L 424,-1220 l 80,0 -24.2857,-83.215 C 494.0709,-1309.287 504,-1323.432 504,-1340 c 0,-22.092 -17.9087,-40 -40,-40 z"
         style="color:#000000;display:inline;overflow:visible;visibility:visible;fill:#434343;fill-opacity:1;fill-rule:nonzero;stroke:none;stroke-width:1;marker:none;enable-background:accumulate" />
    </g>
  </g>
</svg>
