<?xml version="1.0" encoding="UTF-8" standalone="no"?>
<!-- Created with Inkscape (http://www.inkscape.org/) -->

<svg
   xmlns:osb="http://www.openswatchbook.org/uri/2009/osb"
   xmlns:dc="http://purl.org/dc/elements/1.1/"
   xmlns:cc="http://creativecommons.org/ns#"
   xmlns:rdf="http://www.w3.org/1999/02/22-rdf-syntax-ns#"
   xmlns:svg="http://www.w3.org/2000/svg"
   xmlns="http://www.w3.org/2000/svg"
   xmlns:sodipodi="http://sodipodi.sourceforge.net/DTD/sodipodi-0.dtd"
   xmlns:inkscape="http://www.inkscape.org/namespaces/inkscape"
   inkscape:export-ydpi="90.000000"
   inkscape:export-xdpi="90.000000"
   width="736"
   height="544"
   id="svg11300"
   sodipodi:version="0.32"
   inkscape:version="0.91 r13725"
   sodipodi:docname="network-wireless.svg"
   inkscape:output_extension="org.inkscape.output.svg.inkscape"
   version="1.0"
   style="display:inline;enable-background:new"
   inkscape:export-filename="/home/sam/paper-template.png">
  <sodipodi:namedview
     stroke="#646464"
     fill="#909090"
     id="base"
     pagecolor="#474747"
     bordercolor="#666666"
     borderopacity="0.25490196"
     inkscape:pageopacity="0"
     inkscape:pageshadow="2"
     inkscape:zoom="1"
     inkscape:cx="102.41611"
     inkscape:cy="36.250015"
     inkscape:current-layer="layer6"
     showgrid="false"
     inkscape:grid-bbox="true"
     inkscape:document-units="px"
     inkscape:showpageshadow="false"
     inkscape:window-width="1316"
     inkscape:window-height="698"
     inkscape:window-x="25"
     inkscape:window-y="45"
     width="400px"
     height="300px"
     inkscape:snap-nodes="true"
     inkscape:snap-bbox="true"
     gridtolerance="10000"
     inkscape:object-nodes="true"
     inkscape:snap-grids="true"
     showguides="true"
     inkscape:guide-bbox="true"
     inkscape:window-maximized="1"
     inkscape:bbox-nodes="true"
     inkscape:snap-bbox-edge-midpoints="true">
    <inkscape:grid
       snapvisiblegridlinesonly="true"
       empspacing="4"
       visible="true"
       enabled="true"
       type="xygrid"
       id="grid5883"
       spacingx="1px"
       spacingy="1px" />
    <inkscape:grid
       snapvisiblegridlinesonly="true"
       empopacity="0.25098039"
       empcolor="#ff0000"
       opacity="0.1254902"
       color="#ff0000"
       spacingy="0.5px"
       spacingx="0.5px"
       enabled="false"
       visible="true"
       empspacing="2"
       id="grid11592"
       type="xygrid" />
  </sodipodi:namedview>
  <title
     id="title3004">Paper Icon Theme</title>
  <defs
     id="defs3">
    <linearGradient
       id="linearGradient5606"
       osb:paint="solid">
      <stop
         id="stop5608"
         offset="0"
         style="stop-color:#000000;stop-opacity:1;" />
    </linearGradient>
    <filter
       height="1.2885293"
       y="-0.14426464"
       width="1.2054451"
       x="-0.10272255"
       id="filter5060"
       style="color-interpolation-filters:sRGB"
       inkscape:collect="always">
      <feGaussianBlur
         id="feGaussianBlur5062"
         stdDeviation="1.442647"
         inkscape:collect="always" />
    </filter>
    <filter
       height="1.3847057"
       y="-0.19235283"
       width="1.2739267"
       x="-0.13696335"
       id="filter5064"
       style="color-interpolation-filters:sRGB"
       inkscape:collect="always">
      <feGaussianBlur
         id="feGaussianBlur5066"
         stdDeviation="1.442647"
         inkscape:collect="always" />
    </filter>
    <clipPath
       id="clipPath5078"
       clipPathUnits="userSpaceOnUse">
      <path
         style="color:#000000;display:inline;overflow:visible;visibility:visible;opacity:1;fill:#7d7d7d;fill-opacity:1;fill-rule:nonzero;stroke:none;stroke-width:1;marker:none;enable-background:accumulate"
         sodipodi:nodetypes="scccs"
         id="path5080"
         d="m 160,246.99997 c -7.91339,0 -15.03704,2.81174 -20.94497,7.17182 L 160,276.99121 180.78197,254.09029 C 174.89688,249.77862 167.85262,246.99997 160,246.99997 Z"
         inkscape:connector-curvature="0" />
    </clipPath>
    <clipPath
       id="clipPath5085"
       clipPathUnits="userSpaceOnUse">
      <path
         style="color:#000000;display:inline;overflow:visible;visibility:visible;opacity:1;fill:#7d7d7d;fill-opacity:1;fill-rule:nonzero;stroke:none;stroke-width:1;marker:none;enable-background:accumulate"
         sodipodi:nodetypes="scccs"
         id="path5087"
         d="m 160,246.99997 c -7.91339,0 -15.03704,2.81174 -20.94497,7.17182 L 160,276.99121 180.78197,254.09029 C 174.89688,249.77862 167.85262,246.99997 160,246.99997 Z"
         inkscape:connector-curvature="0" />
    </clipPath>
    <clipPath
       id="clipPath5091"
       clipPathUnits="userSpaceOnUse">
      <path
         style="color:#000000;display:inline;overflow:visible;visibility:visible;opacity:1;fill:#7d7d7d;fill-opacity:1;fill-rule:nonzero;stroke:none;stroke-width:1;marker:none;enable-background:accumulate"
         sodipodi:nodetypes="scccs"
         id="path5093"
         d="m 160,246.99997 c -7.91339,0 -15.03704,2.81174 -20.94497,7.17182 L 160,276.99121 180.78197,254.09029 C 174.89688,249.77862 167.85262,246.99997 160,246.99997 Z"
         inkscape:connector-curvature="0" />
    </clipPath>
    <filter
       height="1.0573913"
       y="-0.02869565"
       width="1.04125"
       x="-0.020625001"
       id="filter4308"
       style="color-interpolation-filters:sRGB"
       inkscape:collect="always">
      <feGaussianBlur
         id="feGaussianBlur4310"
         stdDeviation="3.8260868"
         inkscape:collect="always" />
    </filter>
    <filter
       height="1.0573913"
       y="-0.02869565"
       width="1.04125"
       x="-0.020625001"
       id="filter4312"
       style="color-interpolation-filters:sRGB"
       inkscape:collect="always">
      <feGaussianBlur
         id="feGaussianBlur4314"
         stdDeviation="3.8260868"
         inkscape:collect="always" />
    </filter>
  </defs>
  <metadata
     id="metadata4">
    <rdf:RDF>
      <cc:Work
         rdf:about="">
        <dc:format>image/svg+xml</dc:format>
        <dc:type
           rdf:resource="http://purl.org/dc/dcmitype/StillImage" />
        <dc:creator>
          <cc:Agent>
            <dc:title>Sam Hewitt</dc:title>
          </cc:Agent>
        </dc:creator>
        <dc:source />
        <cc:license
           rdf:resource="http://creativecommons.org/licenses/by-sa/3.0/" />
        <dc:title>Paper Icon Theme</dc:title>
        <dc:subject>
          <rdf:Bag />
        </dc:subject>
        <dc:date />
        <dc:rights>
          <cc:Agent>
            <dc:title />
          </cc:Agent>
        </dc:rights>
        <dc:publisher>
          <cc:Agent>
            <dc:title />
          </cc:Agent>
        </dc:publisher>
        <dc:identifier />
        <dc:relation />
        <dc:language />
        <dc:coverage />
        <dc:description />
        <dc:contributor>
          <cc:Agent>
            <dc:title />
          </cc:Agent>
        </dc:contributor>
      </cc:Work>
      <cc:Work
         rdf:about="">
        <dc:format>image/svg+xml</dc:format>
        <dc:type
           rdf:resource="http://purl.org/dc/dcmitype/StillImage" />
      </cc:Work>
      <cc:License
         rdf:about="http://creativecommons.org/licenses/by-sa/3.0/">
        <cc:permits
           rdf:resource="http://creativecommons.org/ns#Reproduction" />
        <cc:permits
           rdf:resource="http://creativecommons.org/ns#Distribution" />
        <cc:requires
           rdf:resource="http://creativecommons.org/ns#Notice" />
        <cc:requires
           rdf:resource="http://creativecommons.org/ns#Attribution" />
        <cc:permits
           rdf:resource="http://creativecommons.org/ns#DerivativeWorks" />
        <cc:requires
           rdf:resource="http://creativecommons.org/ns#ShareAlike" />
      </cc:License>
    </rdf:RDF>
  </metadata>
  <g
     transform="translate(0,244)"
     id="layer1"
     inkscape:label="Icon"
     inkscape:groupmode="layer"
     style="display:inline">
    <g
       inkscape:groupmode="layer"
       id="layer7"
       inkscape:label="Baseplate"
       style="display:none">
      <text
         id="context"
         inkscape:label="context"
         style="font-style:normal;font-variant:normal;font-weight:normal;font-stretch:normal;font-size:18px;font-family:'DejaVu Sans';-inkscape-font-specification:'DejaVu Sans';display:inline;fill:#000000;fill-opacity:1;stroke:none;enable-background:new"
         x="15.006836"
         xml:space="preserve"
         y="339.74512"><tspan
           id="tspan3933"
           sodipodi:role="line"
           x="15.006836"
           y="339.74512"
           style="font-style:normal;font-variant:normal;font-weight:normal;font-stretch:normal;font-family:'DejaVu Sans';-inkscape-font-specification:'DejaVu Sans'">devices</tspan></text>
      <text
         id="icon-name"
         inkscape:label="icon-name"
         sodipodi:linespacing="125%"
         style="font-style:normal;font-variant:normal;font-weight:bold;font-stretch:normal;font-size:18px;line-height:125%;font-family:'DejaVu Sans';-inkscape-font-specification:'DejaVu Sans Bold';text-align:start;writing-mode:lr-tb;text-anchor:start;display:inline;fill:#000000;fill-opacity:1;stroke:none;enable-background:new"
         x="142.48828"
         xml:space="preserve"
         y="339.74512"><tspan
           id="tspan3937"
           sodipodi:role="line"
           x="142.48828"
           y="339.74512"
           style="font-style:normal;font-variant:normal;font-weight:bold;font-stretch:normal;font-size:18px;font-family:'DejaVu Sans';-inkscape-font-specification:'DejaVu Sans Bold'">network-wireless</tspan></text>
      <rect
         transform="scale(-1,1)"
         inkscape:label="16x16"
         y="268"
         x="-32"
         height="16"
         width="16"
         id="rect16x16"
         style="display:inline;overflow:visible;visibility:visible;fill:#e9e9e9;fill-opacity:1;fill-rule:nonzero;stroke:none;stroke-width:2;marker:none;enable-background:accumulate" />
      <rect
         transform="scale(-1,1)"
         inkscape:label="24x24"
         y="260"
         x="-76"
         height="24"
         width="24"
         id="rect24x24"
         style="display:inline;overflow:visible;visibility:visible;fill:#e9e9e9;fill-opacity:1;fill-rule:nonzero;stroke:none;stroke-width:2;marker:none;enable-background:accumulate" />
      <rect
         transform="scale(-1,1)"
         inkscape:label="32x32"
         y="252"
         x="-128"
         height="32"
         width="32"
         id="rect32x32"
         style="display:inline;overflow:visible;visibility:visible;fill:#e9e9e9;fill-opacity:1;fill-rule:nonzero;stroke:none;stroke-width:2;marker:none;enable-background:accumulate" />
      <rect
         transform="scale(-1,1)"
         style="display:inline;overflow:visible;visibility:visible;fill:#e9e9e9;fill-opacity:1;fill-rule:nonzero;stroke:none;stroke-width:2;marker:none;enable-background:accumulate"
         id="rect48x48"
         width="48"
         height="48"
         x="-192"
         y="236"
         inkscape:label="48x48" />
      <g
         transform="translate(322.49999,-78.49832)"
         style="display:inline"
         inkscape:label="places"
         id="layer1-1" />
      <g
         transform="translate(81.49979,538.50168)"
         style="display:inline"
         inkscape:label="mimetypes"
         id="layer14" />
      <g
         transform="translate(81.49979,538.50168)"
         style="display:inline"
         inkscape:label="emblems"
         id="layer15" />
      <g
         transform="translate(81.49979,538.50168)"
         style="display:inline"
         inkscape:label="emotes"
         id="g71291" />
      <g
         transform="translate(322.49999,71.501679)"
         style="display:inline"
         inkscape:label="categories"
         id="layer2" />
      <g
         transform="translate(322.49999,71.501679)"
         style="display:inline"
         inkscape:label="apps"
         id="g6058" />
      <g
         transform="translate(81.49979,538.50168)"
         style="display:inline"
         inkscape:label="actions"
         id="layer12" />
      <rect
         transform="scale(-1,1)"
         inkscape:label="48x48"
         y="-228"
         x="-720"
         height="512"
         width="512"
         id="rect3951"
         style="display:inline;overflow:visible;visibility:visible;fill:#e9e9e9;fill-opacity:1;fill-rule:nonzero;stroke:none;stroke-width:2;marker:none;enable-background:accumulate" />
    </g>
    <g
       style="display:inline"
       inkscape:label="Symbols"
       id="layer6"
       inkscape:groupmode="layer">
      <path
         inkscape:connector-curvature="0"
         d="m 464,-128 c -84.43416,0 -160.442,30.00064 -223.47832,76.52176 L 464,192 685.73904,-52.34784 C 622.94648,-98.3524 547.78576,-128 464,-128 Z"
         id="path4337"
         sodipodi:nodetypes="scccs"
         style="color:#000000;display:inline;overflow:visible;visibility:visible;opacity:0.2;fill:#000000;fill-opacity:1;fill-rule:nonzero;stroke:none;stroke-width:1;marker:none;enable-background:accumulate" />
      <path
         inkscape:connector-curvature="0"
         d="m 464,-126 c -84.43416,0 -160.442,30.00064 -223.47832,76.52176 L 464,194 685.73904,-50.34784 C 622.94648,-96.3524 547.78576,-126 464,-126 Z"
         id="path4306"
         sodipodi:nodetypes="scccs"
         style="color:#000000;display:inline;overflow:visible;visibility:visible;opacity:0.1;fill:#000000;fill-opacity:1;fill-rule:nonzero;stroke:#000000;stroke-width:8;stroke-miterlimit:4;stroke-dasharray:none;stroke-opacity:1;marker:none;filter:url(#filter4308);enable-background:accumulate" />
      <path
         inkscape:connector-curvature="0"
         d="m 112.05435,259 c -5.27713,0 -10.02762,1.87504 -13.967392,4.78261 L 112.05435,279 125.91304,263.72826 C 121.9885,260.85297 117.29096,259 112.05435,259 Z"
         id="path4283"
         sodipodi:nodetypes="scccs"
         style="color:#000000;display:inline;overflow:visible;visibility:visible;opacity:0.2;fill:#000000;fill-opacity:1;fill-rule:nonzero;stroke:none;stroke-width:1;marker:none;enable-background:accumulate;" />
      <path
         style="color:#000000;display:inline;overflow:visible;visibility:visible;opacity:0.2;fill:#000000;fill-opacity:1;fill-rule:nonzero;stroke:none;stroke-width:1;marker:none;enable-background:accumulate;"
         sodipodi:nodetypes="scccs"
         id="path5095"
         d="m 168.0815,245.99997 c -7.91339,0 -15.03704,2.81174 -20.94497,7.17182 l 20.94497,22.81942 20.78197,-22.90092 c -5.88509,-4.31167 -12.92935,-7.09032 -20.78197,-7.09032 z"
         inkscape:connector-curvature="0" />
      <path
         inkscape:connector-curvature="0"
         d="m 168.0815,244.99997 c -7.91339,0 -15.03704,2.81174 -20.94497,7.17182 l 20.94497,22.81942 20.78197,-22.90092 c -5.88509,-4.31167 -12.92935,-7.09032 -20.78197,-7.09032 z"
         id="path5907"
         sodipodi:nodetypes="scccs"
         style="color:#000000;display:inline;overflow:visible;visibility:visible;opacity:1;fill:#767676;fill-opacity:1;fill-rule:nonzero;stroke:none;stroke-width:1;marker:none;enable-background:accumulate;" />
      <path
         inkscape:connector-curvature="0"
         d="m 167.99997,250.9912 c -6.30366,0 -12.1542,2.06736 -16.85291,5.55887 l 16.94116,18.44114 16.76471,-18.44114 c -4.69873,-3.49151 -10.54922,-5.55887 -16.85296,-5.55887 z"
         id="path5949"
         style="color:#000000;display:inline;overflow:visible;visibility:visible;fill:#9f9f9f;fill-opacity:1;fill-rule:nonzero;stroke:none;stroke-width:1;marker:none;enable-background:accumulate;" />
      <path
         style="color:#000000;display:inline;overflow:visible;visibility:visible;fill:#eeeeee;fill-opacity:1;fill-rule:nonzero;stroke:none;stroke-width:1;marker:none;enable-background:accumulate;"
         id="path5015"
         d="m 167.99998,256.9912 c -4.72776,0 -9.11564,1.55052 -12.63969,4.16915 l 12.70589,13.83086 12.57353,-13.83086 c -3.52405,-2.61863 -7.91194,-4.16915 -12.63973,-4.16915 z"
         inkscape:connector-curvature="0" />
      <path
         inkscape:connector-curvature="0"
         d="m 64,266 c -3.95785,0 -7.520716,1.40628 -10.475543,3.58696 L 64,281 74.39402,269.54619 C 71.450616,267.38973 67.927457,266 64,266 Z"
         id="path5182"
         sodipodi:nodetypes="scccs"
         style="color:#000000;display:inline;overflow:visible;visibility:visible;opacity:0.2;fill:#000000;fill-opacity:1;fill-rule:nonzero;stroke:none;stroke-width:1;marker:none;enable-background:accumulate;" />
      <path
         style="color:#000000;display:inline;overflow:visible;visibility:visible;opacity:1;fill:#767676;fill-opacity:1;fill-rule:nonzero;stroke:none;stroke-width:1;marker:none;enable-background:accumulate;"
         sodipodi:nodetypes="scccs"
         id="path5152"
         d="m 64,265 c -3.95785,0 -7.520716,1.40628 -10.475543,3.58695 L 64,280 74.39402,268.54619 C 71.450616,266.38973 67.927457,265 64,265 Z"
         inkscape:connector-curvature="0" />
      <path
         style="color:#000000;display:inline;overflow:visible;visibility:visible;fill:#9f9f9f;fill-opacity:1;fill-rule:nonzero;stroke:none;stroke-width:1;marker:none;enable-background:accumulate;"
         id="path5156"
         d="m 63.951881,267.99649 c -3.15275,0 -6.078875,1.03398 -8.428916,2.78024 L 63.996019,280 l 8.384804,-9.22327 c -2.350057,-1.74626 -5.276151,-2.78024 -8.428942,-2.78024 z"
         inkscape:connector-curvature="0" />
      <path
         inkscape:connector-curvature="0"
         d="m 63.951881,270.99736 c -2.364575,0 -4.559151,0.77549 -6.321691,2.08519 L 63.984986,280 l 6.288601,-6.91745 c -1.762539,-1.3097 -3.95712,-2.08519 -6.321706,-2.08519 z"
         id="path5160"
         style="color:#000000;display:inline;overflow:visible;visibility:visible;fill:#eeeeee;fill-opacity:1;fill-rule:nonzero;stroke:none;stroke-width:1;marker:none;enable-background:accumulate;" />
      <path
         inkscape:connector-curvature="0"
         d="m 24,271 c -3.034352,0 -5.765882,1.07815 -8.031251,2.75 L 24,282.5 31.968749,273.71875 C 29.712139,272.06546 27.011051,271 24,271 Z"
         id="path5168"
         sodipodi:nodetypes="scccs"
         style="color:#000000;display:inline;overflow:visible;visibility:visible;opacity:1;fill:#767676;fill-opacity:1;fill-rule:nonzero;stroke:none;stroke-width:1;marker:none;enable-background:accumulate;" />
      <path
         sodipodi:nodetypes="scccs"
         inkscape:connector-curvature="0"
         d="m 23.965691,274 c -2.232545,0 -4.30461,0.73219 -5.968737,1.96876 l 5.999994,6.53124 5.9375,-6.53124 C 28.27031,274.73219 26.198266,274 23.965691,274 Z"
         id="path5172"
         style="color:#000000;display:inline;overflow:visible;visibility:visible;fill:#9f9f9f;fill-opacity:1;fill-rule:nonzero;stroke:none;stroke-width:1;marker:none;enable-background:accumulate;" />
      <path
         style="color:#000000;display:inline;overflow:visible;visibility:visible;fill:#eeeeee;fill-opacity:1;fill-rule:nonzero;stroke:none;stroke-width:1;marker:none;enable-background:accumulate;"
         id="path5176"
         d="m 23.981613,277.5 c -1.313268,0 -2.53212,0.4307 -3.511022,1.15809 L 24,282.5 27.492644,278.65809 C 26.513743,277.9307 25.294889,277.5 23.981613,277.5 Z"
         inkscape:connector-curvature="0" />
      <path
         inkscape:connector-curvature="0"
         d="m 112.05435,258 c -5.27714,0 -10.02762,1.87504 -13.967393,4.78261 L 112.05435,278 125.91304,262.72826 C 121.9885,259.85297 117.29096,258 112.05435,258 Z"
         id="path4269"
         sodipodi:nodetypes="scccs"
         style="color:#000000;display:inline;overflow:visible;visibility:visible;opacity:1;fill:#767676;fill-opacity:1;fill-rule:nonzero;stroke:none;stroke-width:1;marker:none;enable-background:accumulate;" />
      <path
         inkscape:connector-curvature="0"
         d="m 111.99998,261.99532 c -4.20367,0 -8.10517,1.37864 -11.23855,3.707 L 112.05883,278 123.23857,265.70232 c -3.13341,-2.32836 -7.03487,-3.707 -11.23859,-3.707 z"
         id="path4273"
         style="color:#000000;display:inline;overflow:visible;visibility:visible;fill:#9f9f9f;fill-opacity:1;fill-rule:nonzero;stroke:none;stroke-width:1;marker:none;enable-background:accumulate;" />
      <path
         style="color:#000000;display:inline;overflow:visible;visibility:visible;fill:#eeeeee;fill-opacity:1;fill-rule:nonzero;stroke:none;stroke-width:1;marker:none;enable-background:accumulate;"
         id="path4277"
         d="m 111.99999,265.99649 c -3.15277,0 -6.07887,1.03398 -8.42892,2.78024 l 8.47306,9.22327 8.3848,-9.22327 c -2.35005,-1.74626 -5.27616,-2.78024 -8.42894,-2.78024 z"
         inkscape:connector-curvature="0" />
      <path
         inkscape:connector-curvature="0"
         id="path4360"
         d="m 168.08203,245 c -7.91339,0 -15.03738,2.8118 -20.94531,7.17188 l 0.5625,0.61328 C 153.49678,248.65415 160.41365,246 168.08203,246 c 7.60912,0 14.44877,2.62235 20.2207,6.70703 l 0.56055,-0.61719 C 182.97819,247.77817 175.93465,245 168.08203,245 Z"
         style="color:#000000;display:inline;overflow:visible;visibility:visible;opacity:0.1;fill:#ffffff;fill-opacity:1;fill-rule:nonzero;stroke:none;stroke-width:1;marker:none;enable-background:accumulate;" />
      <path
         inkscape:connector-curvature="0"
         id="path4366"
         d="m 64,265 c -3.95785,0 -7.519782,1.40722 -10.474609,3.58789 l 0.5625,0.61328 C 56.929598,267.24781 60.287276,266 64,266 c 3.68403,0 7.006234,1.23266 9.833984,3.16406 l 0.560547,-0.61718 C 71.451127,266.39041 67.927457,265 64,265 Z"
         style="color:#000000;display:inline;overflow:visible;visibility:visible;opacity:0.1;fill:#ffffff;fill-opacity:1;fill-rule:nonzero;stroke:none;stroke-width:1;marker:none;enable-background:accumulate;" />
      <path
         inkscape:connector-curvature="0"
         id="path4372"
         d="m 112.05371,258 c -5.27714,0 -10.02703,1.87563 -13.966796,4.7832 l 0.5625,0.61328 C 102.47753,260.71696 107.02146,259 112.05371,259 c 4.99324,0 9.48866,1.69637 13.29883,4.3457 l 0.56055,-0.61718 C 121.98855,259.85323 117.29032,258 112.05371,258 Z"
         style="color:#000000;display:inline;overflow:visible;visibility:visible;opacity:0.1;fill:#ffffff;fill-opacity:1;fill-rule:nonzero;stroke:none;stroke-width:1;marker:none;enable-background:accumulate;" />
      <path
         inkscape:connector-curvature="0"
         id="path4395"
         d="m 168.00098,250.99023 c -6.30366,0 -12.15481,2.06904 -16.85352,5.56055 l 0.56445,0.61328 c 4.60106,-3.24829 10.23059,-5.17383 16.28907,-5.17383 6.0605,0 11.68913,1.92754 16.29101,5.17774 l 0.56055,-0.61719 c -4.69874,-3.49151 -10.54782,-5.56055 -16.85156,-5.56055 z"
         style="color:#000000;display:inline;overflow:visible;visibility:visible;opacity:0.1;fill:#ffffff;fill-opacity:1;fill-rule:nonzero;stroke:none;stroke-width:1;marker:none;enable-background:accumulate;" />
      <path
         inkscape:connector-curvature="0"
         id="path4401"
         d="m 63.951172,267.99609 c -3.15275,0 -6.077694,1.03499 -8.427734,2.78125 l 0.564453,0.61328 c 2.247854,-1.50625 4.955965,-2.39453 7.863281,-2.39453 2.909658,0 5.620237,0.89 7.86914,2.39844 l 0.560547,-0.61719 c -2.350057,-1.74626 -5.276896,-2.78125 -8.429687,-2.78125 z"
         style="color:#000000;display:inline;overflow:visible;visibility:visible;opacity:0.1;fill:#ffffff;fill-opacity:1;fill-rule:nonzero;stroke:none;stroke-width:1;marker:none;enable-background:accumulate;" />
      <path
         inkscape:connector-curvature="0"
         id="path4407"
         d="m 112.00097,261.99609 c -4.20367,0 -8.10684,1.37868 -11.24023,3.70703 l 0.56445,0.61329 c 3.03356,-2.08697 6.71719,-3.32032 10.67578,-3.32032 3.96059,0 7.64332,1.23539 10.67774,3.32422 l 0.56055,-0.61719 c -3.13341,-2.32835 -7.03457,-3.70703 -11.23829,-3.70703 z"
         style="color:#000000;display:inline;overflow:visible;visibility:visible;opacity:0.1;fill:#ffffff;fill-opacity:1;fill-rule:nonzero;stroke:none;stroke-width:1;marker:none;enable-background:accumulate;" />
      <path
         inkscape:connector-curvature="0"
         id="path4429"
         d="m 168.00098,256.99023 c -4.72777,0 -9.11658,1.5513 -12.64063,4.16993 l 0.56445,0.61328 c 3.42494,-2.37662 7.59353,-3.78321 12.07618,-3.78321 4.48461,0 8.65236,1.40861 12.07812,3.78711 l 0.56055,-0.61718 c -3.52405,-2.61863 -7.91088,-4.16993 -12.63867,-4.16993 z"
         style="color:#000000;display:inline;overflow:visible;visibility:visible;opacity:0.1;fill:#ffffff;fill-opacity:1;fill-rule:nonzero;stroke:none;stroke-width:1;marker:none;enable-background:accumulate;" />
      <path
         inkscape:connector-curvature="0"
         id="path4435"
         d="m 63.951172,270.99805 c -2.364575,0 -4.557773,0.77428 -6.320313,2.08398 l 0.564453,0.61328 c 1.657365,-1.07189 3.636884,-1.69726 5.75586,-1.69726 2.120934,0 4.103428,0.62747 5.761719,1.70117 l 0.560547,-0.61719 c -1.76254,-1.3097 -3.95768,-2.08398 -6.322266,-2.08398 z"
         style="color:#000000;display:inline;overflow:visible;visibility:visible;opacity:0.1;fill:#ffffff;fill-opacity:1;fill-rule:nonzero;stroke:none;stroke-width:1;marker:none;enable-background:accumulate;" />
      <path
         style="color:#000000;display:inline;overflow:visible;visibility:visible;opacity:0.2;fill:#000000;fill-opacity:1;fill-rule:nonzero;stroke:none;stroke-width:1;marker:none;filter:url(#filter4312);enable-background:accumulate"
         sodipodi:nodetypes="scccs"
         id="path4246"
         d="m 464,-126 c -84.43416,0 -160.442,30.00064 -223.47832,76.52176 L 464,194 685.73904,-50.34784 C 622.94648,-96.3524 547.78576,-126 464,-126 Z"
         inkscape:connector-curvature="0" />
      <path
         style="color:#000000;display:inline;overflow:visible;visibility:visible;opacity:1;fill:#767676;fill-opacity:1;fill-rule:nonzero;stroke:none;stroke-width:1;marker:none;enable-background:accumulate"
         sodipodi:nodetypes="scccs"
         id="path4232"
         d="m 465.02656,-132 c -84.43416,0 -160.442,30.00064 -223.47832,76.52176 L 465.02656,188 686.7656,-56.34784 C 623.97304,-102.3524 548.81232,-132 465.02656,-132 Z"
         inkscape:connector-curvature="0" />
      <path
         transform="matrix(10.669782,0,0,10.669782,-1242.1386,-2767.4359)"
         inkscape:connector-curvature="0"
         d="m 159.90379,252.9912 c -6.30366,0 -12.1542,2.06736 -16.85291,5.55887 l 16.94116,18.44114 16.76471,-18.44114 c -4.69874,-3.49151 -10.54922,-5.55887 -16.85296,-5.55887 z"
         id="path4234"
         style="color:#000000;display:inline;overflow:visible;visibility:visible;opacity:0.2;fill:#000000;fill-opacity:1;fill-rule:nonzero;stroke:none;stroke-width:1;marker:none;filter:url(#filter5060);enable-background:accumulate"
         clip-path="url(#clipPath5078)" />
      <path
         style="color:#000000;display:inline;overflow:visible;visibility:visible;fill:#9f9f9f;fill-opacity:1;fill-rule:nonzero;stroke:none;stroke-width:1;marker:none;enable-background:accumulate"
         id="path4236"
         d="m 464,-68.07488 c -67.25872,0 -129.68264,22.05824 -179.81688,59.31192 L 464.9416,188 643.81744,-8.76296 C 593.68288,-46.01664 531.25952,-68.07488 464,-68.07488 Z"
         inkscape:connector-curvature="0" />
      <path
         transform="matrix(10.669782,0,0,10.669782,-1242.1386,-2767.4359)"
         style="color:#000000;display:inline;overflow:visible;visibility:visible;opacity:0.2;fill:#000000;fill-opacity:1;fill-rule:nonzero;stroke:none;stroke-width:1;marker:none;filter:url(#filter5064);enable-background:accumulate"
         id="path4238"
         d="m 159.90379,258.9912 c -4.72777,0 -9.11564,1.55052 -12.63969,4.16915 l 12.70588,13.83086 12.57353,-13.83086 c -3.52405,-2.61863 -7.91193,-4.16915 -12.63972,-4.16915 z"
         inkscape:connector-curvature="0"
         clip-path="url(#clipPath5085)" />
      <path
         inkscape:connector-curvature="0"
         d="m 464,-4.05616 c -50.44432,0 -97.26192,16.54368 -134.86272,44.48392 L 464.70624,188 598.86304,40.42776 C 561.26224,12.48752 514.44448,-4.05616 464,-4.05616 Z"
         id="path4240"
         style="color:#000000;display:inline;overflow:visible;visibility:visible;fill:#eeeeee;fill-opacity:1;fill-rule:nonzero;stroke:none;stroke-width:1;marker:none;enable-background:accumulate" />
      <path
         inkscape:connector-curvature="0"
         id="path4370"
         transform="translate(0,76)"
         d="m 465.03125,-208 c -84.43416,0 -160.44805,29.99451 -223.48437,76.51562 l 1.10156,1.20118 C 305.4691,-176.34438 381.08582,-206 465.03125,-206 c 83.30081,0 158.06544,29.31755 220.63672,74.86719 l 1.09765,-1.21094 C 623.97307,-178.34831 548.81701,-208 465.03125,-208 Z"
         style="color:#000000;display:inline;overflow:visible;visibility:visible;opacity:0.2;fill:#ffffff;fill-opacity:1;fill-rule:nonzero;stroke:none;stroke-width:1;marker:none;enable-background:accumulate" />
      <path
         inkscape:connector-curvature="0"
         id="path4405"
         transform="translate(0,76)"
         d="m 464,-144.07812 c -67.25872,0 -129.67826,22.05882 -179.8125,59.312495 l 1.10156,1.199219 C 335.2359,-120.3299 397.22991,-142.07812 464,-142.07812 c 66.77495,0 128.772,21.75 178.7207,58.517573 l 1.0918,-1.205078 C 593.67794,-122.01931 531.25952,-144.07812 464,-144.07812 Z"
         style="color:#000000;display:inline;overflow:visible;visibility:visible;opacity:0.2;fill:#ffffff;fill-opacity:1;fill-rule:nonzero;stroke:none;stroke-width:1;marker:none;enable-background:accumulate" />
      <path
         inkscape:connector-curvature="0"
         id="path4439"
         transform="translate(0,76)"
         d="m 464,-80.0625 c -50.44432,0 -97.25858,16.544135 -134.85938,44.484375 l 1.09961,1.199219 C 367.65331,-61.83002 414.04367,-78.0625 464,-78.0625 c 49.95901,0 96.35157,16.233865 133.76562,43.6875 l 1.09376,-1.203125 C 561.25857,-63.518365 514.44448,-80.0625 464,-80.0625 Z"
         style="color:#000000;display:inline;overflow:visible;visibility:visible;opacity:0.3;fill:#ffffff;fill-opacity:1;fill-rule:nonzero;stroke:none;stroke-width:1;marker:none;enable-background:accumulate" />
      <path
         inkscape:connector-curvature="0"
         id="path4441"
         d="m 112.00097,265.99609 c -3.15277,0 -6.07963,1.03499 -8.42968,2.78125 l 0.56445,0.61328 c 2.24802,-1.50659 4.95754,-2.39453 7.86523,-2.39453 2.90965,0 5.61829,0.89 7.86719,2.39844 l 0.56055,-0.61719 c -2.35005,-1.74626 -5.27495,-2.78125 -8.42774,-2.78125 z"
         style="color:#000000;display:inline;overflow:visible;visibility:visible;opacity:0.1;fill:#ffffff;fill-opacity:1;fill-rule:nonzero;stroke:none;stroke-width:1;marker:none;enable-background:accumulate;" />
    </g>
  </g>
</svg>
