<?xml version="1.0" encoding="UTF-8" standalone="no"?>
<!-- Created with Inkscape (http://www.inkscape.org/) -->

<svg
   xmlns:osb="http://www.openswatchbook.org/uri/2009/osb"
   xmlns:dc="http://purl.org/dc/elements/1.1/"
   xmlns:cc="http://creativecommons.org/ns#"
   xmlns:rdf="http://www.w3.org/1999/02/22-rdf-syntax-ns#"
   xmlns:svg="http://www.w3.org/2000/svg"
   xmlns="http://www.w3.org/2000/svg"
   xmlns:xlink="http://www.w3.org/1999/xlink"
   xmlns:sodipodi="http://sodipodi.sourceforge.net/DTD/sodipodi-0.dtd"
   xmlns:inkscape="http://www.inkscape.org/namespaces/inkscape"
   inkscape:export-ydpi="90.000000"
   inkscape:export-xdpi="90.000000"
   width="736"
   height="544"
   id="svg11300"
   sodipodi:version="0.32"
   inkscape:version="0.91 r13725"
   sodipodi:docname="network-wired.svg"
   inkscape:output_extension="org.inkscape.output.svg.inkscape"
   version="1.0"
   style="display:inline;enable-background:new"
   inkscape:export-filename="/home/sam/paper-template.png">
  <sodipodi:namedview
     stroke="#646464"
     fill="#909090"
     id="base"
     pagecolor="#a6a6a6"
     bordercolor="#666666"
     borderopacity="0.25490196"
     inkscape:pageopacity="0"
     inkscape:pageshadow="2"
     inkscape:zoom="1"
     inkscape:cx="339.47493"
     inkscape:cy="739.4476"
     inkscape:current-layer="g4230"
     showgrid="false"
     inkscape:grid-bbox="true"
     inkscape:document-units="px"
     inkscape:showpageshadow="false"
     inkscape:window-width="1316"
     inkscape:window-height="698"
     inkscape:window-x="25"
     inkscape:window-y="45"
     width="400px"
     height="300px"
     inkscape:snap-nodes="true"
     inkscape:snap-bbox="true"
     gridtolerance="10000"
     inkscape:object-nodes="true"
     inkscape:snap-grids="true"
     showguides="true"
     inkscape:guide-bbox="true"
     inkscape:window-maximized="1"
     inkscape:bbox-nodes="true"
     inkscape:snap-bbox-edge-midpoints="true"
     inkscape:snap-intersection-paths="true"
     inkscape:object-paths="true"
     inkscape:snap-smooth-nodes="true"
     inkscape:snap-midpoints="true">
    <inkscape:grid
       snapvisiblegridlinesonly="true"
       empspacing="4"
       visible="true"
       enabled="true"
       type="xygrid"
       id="grid5883"
       spacingx="1px"
       spacingy="1px" />
    <inkscape:grid
       snapvisiblegridlinesonly="true"
       empopacity="0.25098039"
       empcolor="#ff0000"
       opacity="0.1254902"
       color="#ff0000"
       spacingy="0.5px"
       spacingx="0.5px"
       enabled="false"
       visible="true"
       empspacing="2"
       id="grid11592"
       type="xygrid" />
  </sodipodi:namedview>
  <title
     id="title3004">Paper Icon Theme</title>
  <defs
     id="defs3">
    <linearGradient
       id="linearGradient5606"
       osb:paint="solid">
      <stop
         id="stop5608"
         offset="0"
         style="stop-color:#000000;stop-opacity:1;" />
    </linearGradient>
    <clipPath
       id="clipPath4617"
       clipPathUnits="userSpaceOnUse">
      <path
         style="opacity:1;fill:#3f3f3f;fill-opacity:1;stroke:none;stroke-width:2;stroke-linecap:round;stroke-linejoin:round;stroke-miterlimit:4;stroke-dasharray:none;stroke-opacity:1"
         sodipodi:nodetypes="ccccccccc"
         id="path4619"
         d="m 212,237 40,0 0,28 -8,0 -4,4 -16,0 -4,-4 -8,0 z"
         inkscape:connector-curvature="0" />
    </clipPath>
    <clipPath
       id="clipPath4301"
       clipPathUnits="userSpaceOnUse">
      <path
         style="color:#000000;font-style:normal;font-variant:normal;font-weight:normal;font-stretch:normal;font-size:medium;line-height:normal;font-family:sans-serif;text-indent:0;text-align:start;text-decoration:none;text-decoration-line:none;text-decoration-style:solid;text-decoration-color:#000000;letter-spacing:normal;word-spacing:normal;text-transform:none;direction:ltr;block-progression:tb;writing-mode:lr-tb;baseline-shift:baseline;text-anchor:start;white-space:normal;clip-rule:nonzero;display:inline;overflow:visible;visibility:visible;opacity:1;isolation:auto;mix-blend-mode:normal;color-interpolation:sRGB;color-interpolation-filters:linearRGB;solid-color:#000000;solid-opacity:1;fill:#3f3f3f;fill-opacity:1;fill-rule:nonzero;stroke:none;stroke-width:12;stroke-linecap:butt;stroke-linejoin:miter;stroke-miterlimit:4;stroke-dasharray:none;stroke-dashoffset:0;stroke-opacity:1;color-rendering:auto;image-rendering:auto;shape-rendering:auto;text-rendering:auto;enable-background:accumulate"
         d="m 146,250 28,0 0,18 -4.48438,0 -4,4 -11.03124,0 -4,-4 L 146,268 Z"
         id="path4303"
         inkscape:connector-curvature="0"
         sodipodi:nodetypes="ccccccccc" />
    </clipPath>
    <filter
       height="1.052"
       y="-0.026000001"
       width="1.0445714"
       x="-0.022285715"
       id="filter4225"
       style="color-interpolation-filters:sRGB"
       inkscape:collect="always">
      <feGaussianBlur
         id="feGaussianBlur4227"
         stdDeviation="4.16"
         inkscape:collect="always" />
    </filter>
    <filter
       height="1.12"
       y="-0.059999999"
       width="1.12"
       x="-0.059999999"
       id="filter4360-0"
       style="color-interpolation-filters:sRGB"
       inkscape:collect="always">
      <feGaussianBlur
         id="feGaussianBlur4362-0"
         stdDeviation="0.6"
         inkscape:collect="always" />
    </filter>
    <filter
       height="1.048"
       y="-0.024"
       width="1.048"
       x="-0.024"
       id="filter4345"
       style="color-interpolation-filters:sRGB"
       inkscape:collect="always">
      <feGaussianBlur
         id="feGaussianBlur4347"
         stdDeviation="2.4"
         inkscape:collect="always" />
    </filter>
    <filter
       height="1.12"
       y="-0.06"
       width="1.12"
       x="-0.06"
       id="filter4379"
       style="color-interpolation-filters:sRGB"
       inkscape:collect="always">
      <feGaussianBlur
         id="feGaussianBlur4381"
         stdDeviation="6"
         inkscape:collect="always" />
    </filter>
  </defs>
  <metadata
     id="metadata4">
    <rdf:RDF>
      <cc:Work
         rdf:about="">
        <dc:format>image/svg+xml</dc:format>
        <dc:type
           rdf:resource="http://purl.org/dc/dcmitype/StillImage" />
        <dc:creator>
          <cc:Agent>
            <dc:title>Sam Hewitt</dc:title>
          </cc:Agent>
        </dc:creator>
        <dc:source />
        <cc:license
           rdf:resource="http://creativecommons.org/licenses/by-sa/3.0/" />
        <dc:title>Paper Icon Theme</dc:title>
        <dc:subject>
          <rdf:Bag />
        </dc:subject>
        <dc:date />
        <dc:rights>
          <cc:Agent>
            <dc:title />
          </cc:Agent>
        </dc:rights>
        <dc:publisher>
          <cc:Agent>
            <dc:title />
          </cc:Agent>
        </dc:publisher>
        <dc:identifier />
        <dc:relation />
        <dc:language />
        <dc:coverage />
        <dc:description />
        <dc:contributor>
          <cc:Agent>
            <dc:title />
          </cc:Agent>
        </dc:contributor>
      </cc:Work>
      <cc:Work
         rdf:about="">
        <dc:format>image/svg+xml</dc:format>
        <dc:type
           rdf:resource="http://purl.org/dc/dcmitype/StillImage" />
      </cc:Work>
      <cc:License
         rdf:about="http://creativecommons.org/licenses/by-sa/3.0/">
        <cc:permits
           rdf:resource="http://creativecommons.org/ns#Reproduction" />
        <cc:permits
           rdf:resource="http://creativecommons.org/ns#Distribution" />
        <cc:requires
           rdf:resource="http://creativecommons.org/ns#Notice" />
        <cc:requires
           rdf:resource="http://creativecommons.org/ns#Attribution" />
        <cc:permits
           rdf:resource="http://creativecommons.org/ns#DerivativeWorks" />
        <cc:requires
           rdf:resource="http://creativecommons.org/ns#ShareAlike" />
      </cc:License>
    </rdf:RDF>
  </metadata>
  <g
     transform="translate(0,244)"
     id="layer1"
     inkscape:label="network-wired"
     inkscape:groupmode="layer"
     style="display:inline">
    <g
       inkscape:groupmode="layer"
       id="layer7"
       inkscape:label="Baseplate"
       style="display:none">
      <text
         id="context"
         inkscape:label="context"
         style="font-style:normal;font-variant:normal;font-weight:normal;font-stretch:normal;font-size:18px;font-family:'DejaVu Sans';-inkscape-font-specification:'DejaVu Sans';display:inline;fill:#000000;fill-opacity:1;stroke:none;enable-background:new"
         x="15.006836"
         xml:space="preserve"
         y="339.74512"><tspan
           id="tspan3933"
           sodipodi:role="line"
           x="15.006836"
           y="339.74512"
           style="font-style:normal;font-variant:normal;font-weight:normal;font-stretch:normal;font-family:'DejaVu Sans';-inkscape-font-specification:'DejaVu Sans'">devices</tspan></text>
      <text
         id="icon-name"
         inkscape:label="icon-name"
         sodipodi:linespacing="125%"
         style="font-style:normal;font-variant:normal;font-weight:bold;font-stretch:normal;font-size:18px;line-height:125%;font-family:'DejaVu Sans';-inkscape-font-specification:'DejaVu Sans Bold';text-align:start;writing-mode:lr-tb;text-anchor:start;display:inline;fill:#000000;fill-opacity:1;stroke:none;enable-background:new"
         x="142.48828"
         xml:space="preserve"
         y="339.74512"><tspan
           id="tspan4607"
           sodipodi:role="line"
           x="142.48828"
           y="339.74512"
           style="font-style:normal;font-variant:normal;font-weight:bold;font-stretch:normal;font-size:18px;font-family:'DejaVu Sans';-inkscape-font-specification:'DejaVu Sans Bold'">network-wired</tspan></text>
      <rect
         transform="scale(-1,1)"
         inkscape:label="16x16"
         y="268"
         x="-32"
         height="16"
         width="16"
         id="rect16x16"
         style="display:inline;overflow:visible;visibility:visible;fill:#e9e9e9;fill-opacity:1;fill-rule:nonzero;stroke:none;stroke-width:2;marker:none;enable-background:accumulate" />
      <rect
         transform="scale(-1,1)"
         inkscape:label="24x24"
         y="260"
         x="-74"
         height="24"
         width="24"
         id="rect24x24"
         style="display:inline;overflow:visible;visibility:visible;fill:#e9e9e9;fill-opacity:1;fill-rule:nonzero;stroke:none;stroke-width:2;marker:none;enable-background:accumulate" />
      <rect
         transform="scale(-1,1)"
         inkscape:label="32x32"
         y="252"
         x="-128"
         height="32"
         width="32"
         id="rect32x32"
         style="display:inline;overflow:visible;visibility:visible;fill:#e9e9e9;fill-opacity:1;fill-rule:nonzero;stroke:none;stroke-width:2;marker:none;enable-background:accumulate" />
      <rect
         transform="scale(-1,1)"
         style="display:inline;overflow:visible;visibility:visible;fill:#e9e9e9;fill-opacity:1;fill-rule:nonzero;stroke:none;stroke-width:2;marker:none;enable-background:accumulate"
         id="rect48x48"
         width="48"
         height="48"
         x="-192"
         y="236"
         inkscape:label="48x48" />
      <rect
         transform="scale(-1,1)"
         inkscape:label="48x48"
         y="-228"
         x="-720"
         height="512"
         width="512"
         id="rect3951"
         style="display:inline;overflow:visible;visibility:visible;fill:#e9e9e9;fill-opacity:1;fill-rule:nonzero;stroke:none;stroke-width:2;marker:none;enable-background:accumulate" />
    </g>
    <g
       style="display:inline"
       inkscape:label="Symbols"
       id="layer6"
       inkscape:groupmode="layer">
      <g
         id="g4181">
        <path
           inkscape:connector-curvature="0"
           d="m 272,-154 c 0,0 -32,0 -32,32 l 0,288 c 0,32 32,32 32,32 l 64,0 32,32 192,0 32,-32 64,0 c 0,0 32,4.15808 32,-32 l 0,-288 c 0,-32 -32,-32 -32,-32 z"
           id="path4179"
           sodipodi:nodetypes="cssccccccsscc"
           style="opacity:0.2;fill:#000000;fill-opacity:1;stroke:none;stroke-width:2;stroke-linecap:round;stroke-linejoin:round;stroke-miterlimit:4;stroke-dasharray:none;stroke-opacity:1" />
        <path
           inkscape:connector-curvature="0"
           d="m 272,-152 c 0,0 -32,0 -32,32 l 0,288 c 0,32 32,32 32,32 l 64,0 32,32 192,0 32,-32 64,0 c 0,0 32,4.15808 32,-32 l 0,-288 c 0,-32 -32,-32 -32,-32 z"
           id="path4229"
           sodipodi:nodetypes="cssccccccsscc"
           style="opacity:0.1;fill:#000000;fill-opacity:1;stroke:#000000;stroke-width:8;stroke-linecap:round;stroke-linejoin:round;stroke-miterlimit:4;stroke-dasharray:none;stroke-opacity:1;filter:url(#filter4225)" />
        <path
           style="opacity:0.2;fill:#000000;fill-opacity:1;stroke:none"
           d="m 53.5,265 c 0,0 -1.5,0 -1.5,1.5 l 0,12 c 0,0 0,1.5 1.5,1.5 l 2.5,0 2,2 8,0 2,-2 2.5,0 c 0,0 1.5,0 1.5,-1.5 l 0,-12 C 72,265 70.5,265 70.5,265 Z"
           id="path4220"
           inkscape:connector-curvature="0"
           sodipodi:nodetypes="cscscccccsscc" />
        <path
           sodipodi:nodetypes="cscscccccsscc"
           inkscape:connector-curvature="0"
           id="path4213"
           d="m 53.5,264 c 0,0 -1.5,0 -1.5,1.5 l 0,12 c 0,0 0,1.5 1.5,1.5 l 2.5,0 2,2 8,0 2,-2 2.5,0 c 0,0 1.5,0 1.5,-1.5 l 0,-12 C 72,264 70.5,264 70.5,264 Z"
           style="fill:#e6e6e6;fill-opacity:1;stroke:none" />
        <path
           style="color:#000000;font-style:normal;font-variant:normal;font-weight:normal;font-stretch:normal;font-size:medium;line-height:normal;font-family:sans-serif;text-indent:0;text-align:start;text-decoration:none;text-decoration-line:none;text-decoration-style:solid;text-decoration-color:#000000;letter-spacing:normal;word-spacing:normal;text-transform:none;direction:ltr;block-progression:tb;writing-mode:lr-tb;baseline-shift:baseline;text-anchor:start;white-space:normal;clip-rule:nonzero;display:inline;overflow:visible;visibility:visible;opacity:0.4;isolation:auto;mix-blend-mode:normal;color-interpolation:sRGB;color-interpolation-filters:linearRGB;solid-color:#000000;solid-opacity:1;fill:#ffffff;fill-opacity:1;fill-rule:nonzero;stroke:none;stroke-width:12;stroke-linecap:butt;stroke-linejoin:miter;stroke-miterlimit:4;stroke-dasharray:none;stroke-dashoffset:0;stroke-opacity:1;color-rendering:auto;image-rendering:auto;shape-rendering:auto;text-rendering:auto;enable-background:accumulate"
           d="m 55,268 14,0 0,9 -2.24219,0 -2,2 -5.51562,0 -2,-2 L 55,277 Z"
           id="path4283"
           inkscape:connector-curvature="0"
           sodipodi:nodetypes="ccccccccc" />
        <path
           sodipodi:nodetypes="ccccccccc"
           inkscape:connector-curvature="0"
           id="path4215"
           d="m 55,267 14,0 0,9 -2.24219,0 -2,2 -5.51562,0 -2,-2 L 55,276 Z"
           style="color:#000000;font-style:normal;font-variant:normal;font-weight:normal;font-stretch:normal;font-size:medium;line-height:normal;font-family:sans-serif;text-indent:0;text-align:start;text-decoration:none;text-decoration-line:none;text-decoration-style:solid;text-decoration-color:#000000;letter-spacing:normal;word-spacing:normal;text-transform:none;direction:ltr;block-progression:tb;writing-mode:lr-tb;baseline-shift:baseline;text-anchor:start;white-space:normal;clip-rule:nonzero;display:inline;overflow:visible;visibility:visible;opacity:1;isolation:auto;mix-blend-mode:normal;color-interpolation:sRGB;color-interpolation-filters:linearRGB;solid-color:#000000;solid-opacity:1;fill:#4d4d4d;fill-opacity:1;fill-rule:nonzero;stroke:none;stroke-width:12;stroke-linecap:butt;stroke-linejoin:miter;stroke-miterlimit:4;stroke-dasharray:none;stroke-dashoffset:0;stroke-opacity:1;color-rendering:auto;image-rendering:auto;shape-rendering:auto;text-rendering:auto;enable-background:accumulate" />
        <path
           sodipodi:nodetypes="cscscccccsscc"
           inkscape:connector-curvature="0"
           id="path4196"
           d="m 151,245 c 0,0 -3,0 -3,3 l 0,24 c 0,0 0,3 3,3 l 5,0 4,4 16,0 4,-4 5,0 c 0,0 3,0 3,-3 l 0,-24 c 0,-3 -3,-3 -3,-3 z"
           style="opacity:0.2;fill:#000000;fill-opacity:1;stroke:none" />
        <path
           inkscape:connector-curvature="0"
           d="m 100,258 c 0,0 -2,0 -2,2 l 0,18 c 0,2 2,2 2,2 l 4,0 2,2 12,0 2,-2 4,0 c 0,0 2,0.25988 2,-2 l 0,-18 c 0,-2 -2,-2 -2,-2 z"
           id="path4625"
           sodipodi:nodetypes="cssccccccsscc"
           style="opacity:0.2;fill:#000000;fill-opacity:1;stroke:none;stroke-width:2;stroke-linecap:round;stroke-linejoin:round;stroke-miterlimit:4;stroke-dasharray:none;stroke-opacity:1" />
        <path
           style="opacity:1;fill:#e6e6e6;fill-opacity:1;stroke:none;stroke-width:2;stroke-linecap:round;stroke-linejoin:round;stroke-miterlimit:4;stroke-dasharray:none;stroke-opacity:1"
           sodipodi:nodetypes="cssccccccsscc"
           id="path4601"
           d="m 100,257 c 0,0 -2,0 -2,2 l 0,18 c 0,2 2,2 2,2 l 4,0 2,2 12,0 2,-2 4,0 c 0,0 2,0.25988 2,-2 l 0,-18 c 0,-2 -2,-2 -2,-2 z"
           inkscape:connector-curvature="0" />
        <path
           inkscape:connector-curvature="0"
           d="m 18,270 c 0,0 -1,0 -1,1 l 0,9 c 0,1 1,1 1,1 l 2,0 1,1 6,0 1,-1 2,0 c 0,0 1,0.12994 1,-1 l 0,-9 c 0,-1 -1,-1 -1,-1 z"
           id="path6542"
           sodipodi:nodetypes="cssccccccsscc"
           style="opacity:1;fill:#e6e6e6;fill-opacity:1;stroke:none;stroke-width:2;stroke-linecap:round;stroke-linejoin:round;stroke-miterlimit:4;stroke-dasharray:none;stroke-opacity:1" />
        <path
           style="opacity:0.4;fill:#ffffff;fill-opacity:1;stroke:none;stroke-width:2;stroke-linecap:round;stroke-linejoin:round;stroke-miterlimit:4;stroke-dasharray:none;stroke-opacity:1"
           sodipodi:nodetypes="ccccccccc"
           id="path4287"
           d="m 102,262 20,0 0,14 -4,0 -2,2 -8,0 -2,-2 -4,0 z"
           inkscape:connector-curvature="0" />
        <path
           inkscape:connector-curvature="0"
           d="m 102,261 20,0 0,14 -4,0 -2,2 -8,0 -2,-2 -4,0 z"
           id="path4621"
           sodipodi:nodetypes="ccccccccc"
           style="opacity:1;fill:#4d4d4d;fill-opacity:1;stroke:none;stroke-width:2;stroke-linecap:round;stroke-linejoin:round;stroke-miterlimit:4;stroke-dasharray:none;stroke-opacity:1" />
        <path
           inkscape:connector-curvature="0"
           d="m 19,273 10,0 0,7 -2,0 -1,1 -4,0 -1,-1 -2,0 z"
           id="path4289"
           sodipodi:nodetypes="ccccccccc"
           style="opacity:0.4;fill:#ffffff;fill-opacity:1;stroke:none;stroke-width:2;stroke-linecap:round;stroke-linejoin:round;stroke-miterlimit:4;stroke-dasharray:none;stroke-opacity:1" />
        <path
           style="opacity:1;fill:#4d4d4d;fill-opacity:1;stroke:none;stroke-width:2;stroke-linecap:round;stroke-linejoin:round;stroke-miterlimit:4;stroke-dasharray:none;stroke-opacity:1"
           sodipodi:nodetypes="ccccccccc"
           id="path4623"
           d="m 19,272 10,0 0,7 -2,0 -1,1 -4,0 -1,-1 -2,0 z"
           inkscape:connector-curvature="0" />
        <path
           style="opacity:0.1;fill:#ffffff;fill-opacity:1;stroke:none;stroke-width:2;stroke-linecap:round;stroke-linejoin:round;stroke-miterlimit:4;stroke-dasharray:none;stroke-opacity:1"
           d="m 100,257 c 0,0 -2,0 -2,2 l 0,1 c 0,-2 2,-2 2,-2 l 24,0 c 0,0 2,0 2,2 l 0,-1 c 0,-2 -2,-2 -2,-2 l -24,0 z"
           id="path4637"
           inkscape:connector-curvature="0" />
        <path
           style="opacity:0.2;fill:#000000;fill-opacity:1;stroke:none;stroke-width:2;stroke-linecap:round;stroke-linejoin:round;stroke-miterlimit:4;stroke-dasharray:none;stroke-opacity:1;filter:url(#filter4225)"
           sodipodi:nodetypes="cssccccccsscc"
           id="path4631"
           d="m 272,-152 c 0,0 -32,0 -32,32 l 0,288 c 0,32 32,32 32,32 l 64,0 32,32 192,0 32,-32 64,0 c 0,0 32,4.15808 32,-32 l 0,-288 c 0,-32 -32,-32 -32,-32 z"
           inkscape:connector-curvature="0" />
        <path
           inkscape:connector-curvature="0"
           d="m 272,-156 c 0,0 -32,0 -32,32 l 0,288 c 0,32 32,32 32,32 l 64,0 32,32 192,0 32,-32 64,0 c 0,0 32,4.15808 32,-32 l 0,-288 c 0,-32 -32,-32 -32,-32 z"
           id="path4603"
           sodipodi:nodetypes="cssccccccsscc"
           style="opacity:1;fill:#e6e6e6;fill-opacity:1;stroke:none;stroke-width:2;stroke-linecap:round;stroke-linejoin:round;stroke-miterlimit:4;stroke-dasharray:none;stroke-opacity:1" />
        <path
           inkscape:connector-curvature="0"
           d="m 304,-90 320,0 0,224 -64,0 -32,32 -128,0 -32,-32 -64,0 z"
           id="path4285"
           sodipodi:nodetypes="ccccccccc"
           style="opacity:0.4;fill:#ffffff;fill-opacity:1;stroke:none;stroke-width:2;stroke-linecap:round;stroke-linejoin:round;stroke-miterlimit:4;stroke-dasharray:none;stroke-opacity:1" />
        <path
           style="opacity:1;fill:#4d4d4d;fill-opacity:1;stroke:none;stroke-width:2;stroke-linecap:round;stroke-linejoin:round;stroke-miterlimit:4;stroke-dasharray:none;stroke-opacity:1"
           sodipodi:nodetypes="ccccccccc"
           id="path4611"
           d="m 304,-92 320,0 0,224 -64,0 -32,32 -128,0 -32,-32 -64,0 z"
           inkscape:connector-curvature="0" />
        <path
           inkscape:connector-curvature="0"
           style="opacity:0.2;fill:#ffffff;fill-opacity:1;stroke:none;stroke-width:2;stroke-linecap:round;stroke-linejoin:round;stroke-miterlimit:4;stroke-dasharray:none;stroke-opacity:1"
           d="m 272,88 c 0,0 -32,0 -32,32 l 0,2 c 0,-32 32,-32 32,-32 l 384,0 c 0,0 32,0 32,32 l 0,-2 C 688,88 656,88 656,88 l -384,0 z"
           transform="translate(0,-244)"
           id="path4639" />
        <path
           style="fill:#e6e6e6;fill-opacity:1;stroke:none"
           d="m 151,244 c 0,0 -3,0 -3,3 l 0,24 c 0,0 0,3 3,3 l 5,0 4,4 16,0 4,-4 5,0 c 0,0 3,0 3,-3 l 0,-24 c 0,-3 -3,-3 -3,-3 z"
           id="rect4203"
           inkscape:connector-curvature="0"
           sodipodi:nodetypes="cscscccccsscc" />
        <path
           sodipodi:nodetypes="ccccccccc"
           inkscape:connector-curvature="0"
           id="path4291"
           d="m 154,251 28,0 0,18 -4.48438,0 -4,4 -11.03124,0 -4,-4 L 154,269 Z"
           style="color:#000000;font-style:normal;font-variant:normal;font-weight:normal;font-stretch:normal;font-size:medium;line-height:normal;font-family:sans-serif;text-indent:0;text-align:start;text-decoration:none;text-decoration-line:none;text-decoration-style:solid;text-decoration-color:#000000;letter-spacing:normal;word-spacing:normal;text-transform:none;direction:ltr;block-progression:tb;writing-mode:lr-tb;baseline-shift:baseline;text-anchor:start;white-space:normal;clip-rule:nonzero;display:inline;overflow:visible;visibility:visible;opacity:0.4;isolation:auto;mix-blend-mode:normal;color-interpolation:sRGB;color-interpolation-filters:linearRGB;solid-color:#000000;solid-opacity:1;fill:#ffffff;fill-opacity:1;fill-rule:nonzero;stroke:none;stroke-width:12;stroke-linecap:butt;stroke-linejoin:miter;stroke-miterlimit:4;stroke-dasharray:none;stroke-dashoffset:0;stroke-opacity:1;color-rendering:auto;image-rendering:auto;shape-rendering:auto;text-rendering:auto;enable-background:accumulate" />
        <path
           style="color:#000000;font-style:normal;font-variant:normal;font-weight:normal;font-stretch:normal;font-size:medium;line-height:normal;font-family:sans-serif;text-indent:0;text-align:start;text-decoration:none;text-decoration-line:none;text-decoration-style:solid;text-decoration-color:#000000;letter-spacing:normal;word-spacing:normal;text-transform:none;direction:ltr;block-progression:tb;writing-mode:lr-tb;baseline-shift:baseline;text-anchor:start;white-space:normal;clip-rule:nonzero;display:inline;overflow:visible;visibility:visible;opacity:1;isolation:auto;mix-blend-mode:normal;color-interpolation:sRGB;color-interpolation-filters:linearRGB;solid-color:#000000;solid-opacity:1;fill:#4d4d4d;fill-opacity:1;fill-rule:nonzero;stroke:none;stroke-width:12;stroke-linecap:butt;stroke-linejoin:miter;stroke-miterlimit:4;stroke-dasharray:none;stroke-dashoffset:0;stroke-opacity:1;color-rendering:auto;image-rendering:auto;shape-rendering:auto;text-rendering:auto;enable-background:accumulate"
           d="m 154,250 28,0 0,18 -4.48438,0 -4,4 -11.03124,0 -4,-4 L 154,268 Z"
           id="path4189"
           inkscape:connector-curvature="0"
           sodipodi:nodetypes="ccccccccc" />
        <path
           style="opacity:0.1;fill:#ffffff;fill-opacity:1;stroke:none"
           d="m 151,244 c 0,0 -3,0 -3,3 l 0,1 c 0,-3 3,-3 3,-3 l 34,0 c 0,0 3,0 3,3 l 0,-1 c 0,-3 -3,-3 -3,-3 l -34,0 z"
           id="path4202"
           inkscape:connector-curvature="0" />
        <path
           style="opacity:0.1;fill:#ffffff;fill-opacity:1;stroke:none"
           d="m 53.5,264 c 0,0 -1.5,0 -1.5,1.5 l 0,1 c 0,-1.5 1.5,-1.5 1.5,-1.5 l 17,0 c 0,0 1.5,0 1.5,1.5 l 0,-1 C 72,264 70.5,264 70.5,264 l -17,0 z"
           id="path4224"
           inkscape:connector-curvature="0" />
      </g>
    </g>
  </g>
  <g
     style="display:inline"
     inkscape:groupmode="layer"
     inkscape:label="network-wired-disconnected"
     id="g4208"
     transform="translate(0,244)">
    <g
       style="display:none"
       inkscape:label="Baseplate"
       id="g4210"
       inkscape:groupmode="layer">
      <text
         y="-300.25488"
         xml:space="preserve"
         x="15.006836"
         style="font-style:normal;font-variant:normal;font-weight:normal;font-stretch:normal;font-size:18px;font-family:'DejaVu Sans';-inkscape-font-specification:'DejaVu Sans';display:inline;fill:#000000;fill-opacity:1;stroke:none;enable-background:new"
         inkscape:label="context"
         id="text4212"><tspan
           style="font-style:normal;font-variant:normal;font-weight:normal;font-stretch:normal;font-family:'DejaVu Sans';-inkscape-font-specification:'DejaVu Sans'"
           y="-300.25488"
           x="15.006836"
           sodipodi:role="line"
           id="tspan4214">status</tspan></text>
      <text
         y="-300.25488"
         xml:space="preserve"
         x="142.48828"
         style="font-style:normal;font-variant:normal;font-weight:bold;font-stretch:normal;font-size:18px;line-height:125%;font-family:'DejaVu Sans';-inkscape-font-specification:'DejaVu Sans Bold';text-align:start;writing-mode:lr-tb;text-anchor:start;display:inline;fill:#000000;fill-opacity:1;stroke:none;enable-background:new"
         sodipodi:linespacing="125%"
         inkscape:label="icon-name"
         id="text4216"><tspan
           style="font-style:normal;font-variant:normal;font-weight:bold;font-stretch:normal;font-size:18px;font-family:'DejaVu Sans';-inkscape-font-specification:'DejaVu Sans Bold'"
           y="-300.25488"
           x="142.48828"
           sodipodi:role="line"
           id="tspan4218">network-wired-disconnected</tspan></text>
      <rect
         style="display:inline;overflow:visible;visibility:visible;fill:#e9e9e9;fill-opacity:1;fill-rule:nonzero;stroke:none;stroke-width:2;marker:none;enable-background:accumulate"
         id="rect4220"
         width="16"
         height="16"
         x="-32"
         y="-372"
         inkscape:label="16x16"
         transform="scale(-1,1)" />
      <rect
         style="display:inline;overflow:visible;visibility:visible;fill:#e9e9e9;fill-opacity:1;fill-rule:nonzero;stroke:none;stroke-width:2;marker:none;enable-background:accumulate"
         id="rect4222"
         width="24"
         height="24"
         x="-74"
         y="-380"
         inkscape:label="24x24"
         transform="scale(-1,1)" />
      <rect
         style="display:inline;overflow:visible;visibility:visible;fill:#e9e9e9;fill-opacity:1;fill-rule:nonzero;stroke:none;stroke-width:2;marker:none;enable-background:accumulate"
         id="rect4224"
         width="32"
         height="32"
         x="-128"
         y="-388"
         inkscape:label="32x32"
         transform="scale(-1,1)" />
      <rect
         inkscape:label="48x48"
         y="-404"
         x="-192"
         height="48"
         width="48"
         id="rect4226"
         style="display:inline;overflow:visible;visibility:visible;fill:#e9e9e9;fill-opacity:1;fill-rule:nonzero;stroke:none;stroke-width:2;marker:none;enable-background:accumulate"
         transform="scale(-1,1)" />
      <rect
         style="display:inline;overflow:visible;visibility:visible;fill:#e9e9e9;fill-opacity:1;fill-rule:nonzero;stroke:none;stroke-width:2;marker:none;enable-background:accumulate"
         id="rect4228"
         width="512"
         height="512"
         x="-720"
         y="-868"
         inkscape:label="48x48"
         transform="scale(-1,1)" />
    </g>
    <g
       inkscape:groupmode="layer"
       id="g4230"
       inkscape:label="Symbols"
       style="display:inline">
      <use
         height="100%"
         width="100%"
         transform="translate(0,-640)"
         id="use4284"
         xlink:href="#g4181"
         y="0"
         x="0"
         style="display:inline;enable-background:new" />
      <g
         id="g4481"
         style="display:inline;enable-background:new"
         transform="translate(0,1200.1001)">
        <circle
           id="circle5244"
           style="display:inline;opacity:0.5;fill:#000000;fill-opacity:1;stroke:none;filter:url(#filter4360-0);enable-background:new"
           cx="168"
           cy="271"
           r="12"
           transform="matrix(0.83333333,0,0,0.83333333,40,-1793.8334)" />
        <circle
           transform="scale(-1,1)"
           id="circle5246"
           style="display:inline;opacity:0.2;fill:#000000;fill-opacity:1;stroke:none;enable-background:new"
           cx="-180"
           cy="-1568"
           r="12" />
        <circle
           r="12"
           cy="-1569"
           cx="-180"
           style="display:inline;fill:#767676;fill-opacity:1;stroke:none;enable-background:new"
           id="circle5248"
           transform="scale(-1,1)" />
        <circle
           id="circle5250"
           style="display:inline;opacity:0.2;fill:#000000;fill-opacity:1;fill-rule:evenodd;stroke:none;enable-background:new"
           cx="120"
           cy="-1564"
           r="8" />
        <circle
           r="8"
           cy="-1565"
           cx="120"
           style="display:inline;fill:#767676;fill-opacity:1;fill-rule:evenodd;stroke:none;enable-background:new"
           id="circle5252" />
        <circle
           cy="-1562.1001"
           cx="68"
           style="display:inline;opacity:0.2;fill:#000000;fill-opacity:1;stroke:none;stroke-width:2;enable-background:new"
           id="circle5254"
           r="6" />
        <circle
           r="6"
           id="circle5256"
           style="display:inline;fill:#767676;fill-opacity:1;stroke:none;stroke-width:2;enable-background:new"
           cx="68"
           cy="-1563.1001" />
        <circle
           id="circle5258"
           style="display:inline;opacity:0.2;fill:#000000;fill-opacity:1;stroke:none;filter:url(#filter4345);enable-background:new"
           cx="584"
           cy="-1688.0001"
           r="120" />
        <circle
           r="120"
           cy="-1684.0001"
           cx="584"
           style="display:inline;opacity:0.2;fill:#000000;fill-opacity:1;stroke:none;filter:url(#filter4379);enable-background:new"
           id="circle4349" />
        <circle
           r="120"
           cy="-1692"
           cx="584"
           style="display:inline;fill:#767676;fill-opacity:1;stroke:none;enable-background:new"
           id="circle5260" />
        <circle
           cy="-1560.5"
           cx="27.5"
           style="display:inline;fill:#767676;fill-opacity:1;stroke:none;stroke-width:2;enable-background:new"
           id="circle5262"
           r="4.5" />
        <path
           style="opacity:1;fill:#ffffff;fill-opacity:1;stroke:none;stroke-width:1;stroke-linecap:round;stroke-linejoin:miter;stroke-miterlimit:4;stroke-dasharray:none;stroke-opacity:1"
           d="m 538.74609,-1504.5684 -11.31445,11.3125 45.25391,45.2559 -45.25391,45.2539 11.31445,11.3145 45.25391,-45.2539 45.25391,45.2539 11.31445,-11.3145 -45.25391,-45.2539 45.25391,-45.2559 -11.31445,-11.3125 -45.25391,45.2539 -45.25391,-45.2539 z"
           transform="translate(0,-244)"
           id="rect5264"
           inkscape:connector-curvature="0" />
        <rect
           y="-1237.7299"
           x="-990.17139"
           height="2"
           width="16"
           id="rect5266"
           style="opacity:1;fill:#ffffff;fill-opacity:1;stroke:none;stroke-width:1;stroke-linecap:round;stroke-linejoin:miter;stroke-miterlimit:4;stroke-dasharray:none;stroke-opacity:1"
           transform="matrix(0.70710678,0.70710678,-0.70710678,0.70710678,0,0)" />
        <rect
           y="-1192.475"
           x="-1026.7694"
           height="2"
           width="10"
           id="rect5268"
           style="opacity:1;fill:#ffffff;fill-opacity:1;stroke:none;stroke-width:1;stroke-linecap:round;stroke-linejoin:miter;stroke-miterlimit:4;stroke-dasharray:none;stroke-opacity:1"
           transform="matrix(0.70710678,0.70710678,-0.70710678,0.70710678,0,0)" />
        <rect
           y="-1154.3621"
           x="-1061.1956"
           height="2"
           width="8"
           id="rect5270"
           style="opacity:1;fill:#ffffff;fill-opacity:1;stroke:none;stroke-width:1;stroke-linecap:round;stroke-linejoin:miter;stroke-miterlimit:4;stroke-dasharray:none;stroke-opacity:1"
           transform="matrix(0.70710678,0.70710678,-0.70710678,0.70710678,0,0)" />
        <rect
           y="-1123.3856"
           x="-1086.4948"
           height="1"
           width="5"
           id="rect5272"
           style="opacity:1;fill:#ffffff;fill-opacity:1;stroke:none;stroke-width:1;stroke-linecap:round;stroke-linejoin:miter;stroke-miterlimit:4;stroke-dasharray:none;stroke-opacity:1"
           transform="matrix(0.70710678,0.70710678,-0.70710678,0.70710678,0,0)" />
        <rect
           transform="matrix(-0.70710678,0.70710678,-0.70710678,-0.70710678,0,0)"
           style="opacity:1;fill:#ffffff;fill-opacity:1;stroke:none;stroke-width:1;stroke-linecap:round;stroke-linejoin:miter;stroke-miterlimit:4;stroke-dasharray:none;stroke-opacity:1"
           id="rect5281"
           width="16"
           height="2"
           x="-1244.7299"
           y="981.17139" />
        <rect
           transform="matrix(-0.70710678,0.70710678,-0.70710678,-0.70710678,0,0)"
           style="opacity:1;fill:#ffffff;fill-opacity:1;stroke:none;stroke-width:1;stroke-linecap:round;stroke-linejoin:miter;stroke-miterlimit:4;stroke-dasharray:none;stroke-opacity:1"
           id="rect5283"
           width="10"
           height="2"
           x="-1196.475"
           y="1020.7694" />
        <rect
           transform="matrix(-0.70710678,0.70710678,-0.70710678,-0.70710678,0,0)"
           style="opacity:1;fill:#ffffff;fill-opacity:1;stroke:none;stroke-width:1;stroke-linecap:round;stroke-linejoin:miter;stroke-miterlimit:4;stroke-dasharray:none;stroke-opacity:1"
           id="rect5285"
           width="8"
           height="2"
           x="-1157.3621"
           y="1056.1956" />
        <rect
           transform="matrix(-0.70710678,0.70710678,-0.70710678,-0.70710678,0,0)"
           style="opacity:1;fill:#ffffff;fill-opacity:1;stroke:none;stroke-width:1;stroke-linecap:round;stroke-linejoin:miter;stroke-miterlimit:4;stroke-dasharray:none;stroke-opacity:1"
           id="rect5287"
           width="5"
           height="1"
           x="-1125.3856"
           y="1083.4948" />
      </g>
    </g>
  </g>
</svg>
