<?xml version="1.0" encoding="UTF-8" standalone="no"?>
<!-- Created with Inkscape (http://www.inkscape.org/) -->

<svg
   xmlns:dc="http://purl.org/dc/elements/1.1/"
   xmlns:cc="http://creativecommons.org/ns#"
   xmlns:rdf="http://www.w3.org/1999/02/22-rdf-syntax-ns#"
   xmlns:svg="http://www.w3.org/2000/svg"
   xmlns="http://www.w3.org/2000/svg"
   xmlns:xlink="http://www.w3.org/1999/xlink"
   xmlns:sodipodi="http://sodipodi.sourceforge.net/DTD/sodipodi-0.dtd"
   xmlns:inkscape="http://www.inkscape.org/namespaces/inkscape"
   inkscape:export-ydpi="90.000000"
   inkscape:export-xdpi="90.000000"
   width="736"
   height="544"
   id="svg11300"
   sodipodi:version="0.32"
   inkscape:version="0.91 r13725"
   sodipodi:docname="web-youtube.svg"
   inkscape:output_extension="org.inkscape.output.svg.inkscape"
   version="1.0"
   style="display:inline;enable-background:new"
   inkscape:export-filename="/home/sam/paper-template.png">
  <sodipodi:namedview
     stroke="#646464"
     fill="#909090"
     id="base"
     pagecolor="#6b6b6b"
     bordercolor="#000000"
     borderopacity="0.25490196"
     inkscape:pageopacity="0"
     inkscape:pageshadow="2"
     inkscape:zoom="1"
     inkscape:cx="356.27431"
     inkscape:cy="635.57496"
     inkscape:current-layer="layer6"
     showgrid="false"
     inkscape:grid-bbox="true"
     inkscape:document-units="px"
     inkscape:showpageshadow="false"
     inkscape:window-width="1316"
     inkscape:window-height="698"
     inkscape:window-x="25"
     inkscape:window-y="45"
     width="400px"
     height="300px"
     inkscape:snap-nodes="true"
     inkscape:snap-bbox="true"
     gridtolerance="10000"
     inkscape:object-nodes="true"
     inkscape:snap-grids="true"
     showguides="true"
     inkscape:guide-bbox="true"
     inkscape:window-maximized="1"
     inkscape:bbox-paths="true"
     inkscape:snap-bbox-midpoints="true"
     inkscape:snap-global="true"
     inkscape:object-paths="true"
     inkscape:snap-intersection-paths="true"
     inkscape:snap-smooth-nodes="true">
    <inkscape:grid
       snapvisiblegridlinesonly="true"
       empspacing="4"
       visible="true"
       enabled="true"
       type="xygrid"
       id="grid5883"
       spacingx="1px"
       spacingy="1px" />
    <inkscape:grid
       snapvisiblegridlinesonly="true"
       empopacity="0.25098039"
       empcolor="#ff0000"
       opacity="0.1254902"
       color="#ff0000"
       spacingy="0.5px"
       spacingx="0.5px"
       enabled="false"
       visible="true"
       empspacing="2"
       id="grid11592"
       type="xygrid" />
  </sodipodi:namedview>
  <title
     id="title3004">Paper Icon Theme Template</title>
  <defs
     id="defs3">
    <filter
       height="1.0581231"
       y="-0.029061537"
       width="1.0408801"
       x="-0.020440037"
       id="filter4330"
       style="color-interpolation-filters:sRGB"
       inkscape:collect="always">
      <feGaussianBlur
         id="feGaussianBlur4332"
         stdDeviation="4.0880076"
         inkscape:collect="always" />
    </filter>
    <filter
       height="1.0581231"
       y="-0.029061537"
       width="1.0408801"
       x="-0.020440037"
       id="filter4334"
       style="color-interpolation-filters:sRGB"
       inkscape:collect="always">
      <feGaussianBlur
         id="feGaussianBlur4336"
         stdDeviation="4.0880076"
         inkscape:collect="always" />
    </filter>
    <filter
       height="1.12"
       y="-0.059999999"
       width="1.12"
       x="-0.059999999"
       id="filter4395"
       style="color-interpolation-filters:sRGB"
       inkscape:collect="always">
      <feGaussianBlur
         id="feGaussianBlur4397"
         stdDeviation="6"
         inkscape:collect="always" />
    </filter>
  </defs>
  <metadata
     id="metadata4">
    <rdf:RDF>
      <cc:Work
         rdf:about="">
        <dc:format>image/svg+xml</dc:format>
        <dc:type
           rdf:resource="http://purl.org/dc/dcmitype/StillImage" />
        <dc:creator>
          <cc:Agent>
            <dc:title>Sam Hewitt</dc:title>
          </cc:Agent>
        </dc:creator>
        <dc:source />
        <cc:license
           rdf:resource="http://creativecommons.org/licenses/by-sa/3.0/" />
        <dc:title>Paper Icon Theme Template</dc:title>
        <dc:subject>
          <rdf:Bag />
        </dc:subject>
        <dc:date />
        <dc:rights>
          <cc:Agent>
            <dc:title />
          </cc:Agent>
        </dc:rights>
        <dc:publisher>
          <cc:Agent>
            <dc:title />
          </cc:Agent>
        </dc:publisher>
        <dc:identifier />
        <dc:relation />
        <dc:language />
        <dc:coverage />
        <dc:description />
        <dc:contributor>
          <cc:Agent>
            <dc:title />
          </cc:Agent>
        </dc:contributor>
      </cc:Work>
      <cc:Work
         rdf:about="">
        <dc:format>image/svg+xml</dc:format>
        <dc:type
           rdf:resource="http://purl.org/dc/dcmitype/StillImage" />
      </cc:Work>
      <cc:License
         rdf:about="http://creativecommons.org/licenses/by-sa/3.0/">
        <cc:permits
           rdf:resource="http://creativecommons.org/ns#Reproduction" />
        <cc:permits
           rdf:resource="http://creativecommons.org/ns#Distribution" />
        <cc:requires
           rdf:resource="http://creativecommons.org/ns#Notice" />
        <cc:requires
           rdf:resource="http://creativecommons.org/ns#Attribution" />
        <cc:permits
           rdf:resource="http://creativecommons.org/ns#DerivativeWorks" />
        <cc:requires
           rdf:resource="http://creativecommons.org/ns#ShareAlike" />
      </cc:License>
    </rdf:RDF>
  </metadata>
  <g
     transform="translate(0,244)"
     id="layer1"
     inkscape:label="web-youtube"
     inkscape:groupmode="layer"
     style="display:inline">
    <g
       inkscape:groupmode="layer"
       id="layer7"
       inkscape:label="Baseplate"
       style="display:none">
      <text
         id="context"
         inkscape:label="context"
         style="font-style:normal;font-variant:normal;font-weight:normal;font-stretch:normal;font-size:18px;font-family:'DejaVu Sans';-inkscape-font-specification:'DejaVu Sans';display:inline;fill:#000000;fill-opacity:1;stroke:none;enable-background:new"
         x="15.006836"
         xml:space="preserve"
         y="337.74512"><tspan
           id="tspan3933"
           sodipodi:role="line"
           x="15.006836"
           y="337.74512"
           style="font-style:normal;font-variant:normal;font-weight:normal;font-stretch:normal;font-family:'DejaVu Sans';-inkscape-font-specification:'DejaVu Sans'">web</tspan></text>
      <text
         id="icon-name"
         inkscape:label="icon-name"
         sodipodi:linespacing="125%"
         style="font-style:normal;font-variant:normal;font-weight:bold;font-stretch:normal;font-size:18px;line-height:125%;font-family:'DejaVu Sans';-inkscape-font-specification:'DejaVu Sans Bold';text-align:start;writing-mode:lr-tb;text-anchor:start;display:inline;fill:#000000;fill-opacity:1;stroke:none;enable-background:new"
         x="142.48828"
         xml:space="preserve"
         y="337.74512"><tspan
           id="tspan4194"
           sodipodi:role="line"
           x="142.48828"
           y="337.74512"
           style="font-style:normal;font-variant:normal;font-weight:bold;font-stretch:normal;font-size:18px;font-family:'DejaVu Sans';-inkscape-font-specification:'DejaVu Sans Bold'">web-youtube</tspan></text>
      <rect
         transform="scale(-1,1)"
         inkscape:label="16x16"
         y="268"
         x="-32"
         height="16"
         width="16"
         id="rect16x16"
         style="display:inline;overflow:visible;visibility:visible;fill:#d5d5d5;fill-opacity:1;fill-rule:nonzero;stroke:none;stroke-width:2;marker:none;enable-background:accumulate" />
      <rect
         transform="scale(-1,1)"
         inkscape:label="24x24"
         y="260"
         x="-76"
         height="24"
         width="24"
         id="rect24x24"
         style="display:inline;overflow:visible;visibility:visible;fill:#d5d5d5;fill-opacity:1;fill-rule:nonzero;stroke:none;stroke-width:2;marker:none;enable-background:accumulate" />
      <rect
         transform="scale(-1,1)"
         inkscape:label="32x32"
         y="252"
         x="-128"
         height="32"
         width="32"
         id="rect32x32"
         style="display:inline;overflow:visible;visibility:visible;fill:#d5d5d5;fill-opacity:1;fill-rule:nonzero;stroke:none;stroke-width:2;marker:none;enable-background:accumulate" />
      <rect
         transform="scale(-1,1)"
         style="display:inline;overflow:visible;visibility:visible;fill:#d5d5d5;fill-opacity:1;fill-rule:nonzero;stroke:none;stroke-width:2;marker:none;enable-background:accumulate"
         id="rect48x48"
         width="48"
         height="48"
         x="-192"
         y="236"
         inkscape:label="48x48" />
      <rect
         transform="scale(-1,1)"
         inkscape:label="48x48"
         y="-228"
         x="-720"
         height="512"
         width="512"
         id="rect3951"
         style="display:inline;overflow:visible;visibility:visible;fill:#d5d5d5;fill-opacity:1;fill-rule:nonzero;stroke:none;stroke-width:2;marker:none;enable-background:accumulate" />
    </g>
    <g
       style="display:inline"
       inkscape:label="Symbols"
       id="layer6"
       inkscape:groupmode="layer">
      <g
         id="g4343">
        <path
           sodipodi:nodetypes="ccccccccsscccccccssc"
           d="m 699.10296,-65.169416 c 0,0 -4.6898,-33.077214 -19.08252,-47.643324 -18.25263,-19.11777 -38.71203,-19.2127 -48.09445,-20.33204 C 564.75701,-138 464.00001,-138 464.00001,-138 l -0.20866,0 c 0,0 -100.75465,0 -167.92598,4.85522 -9.3829,1.11934 -29.835,1.21427 -48.09416,20.33204 -14.39146,14.56611 -19.07473,47.643324 -19.07473,47.643324 0,0 -4.80034,38.843606 -4.80034,77.686741 l 0,36.415527 c 0,38.842664 4.80034,77.685798 4.80034,77.685798 0,0 4.68327,33.07764 19.07473,47.64385 18.25916,19.11823 42.24412,18.5134 52.92682,20.51718 38.40047,3.68226 163.19812,4.82181 163.19812,4.82181 0,0 100.86086,-0.15181 168.02984,-5.00705 9.38242,-1.11934 29.84182,-1.21371 48.09445,-20.33194 14.39272,-14.56621 19.08252,-47.64385 19.08252,-47.64385 0,0 4.7932,-38.843134 4.7932,-77.685798 l 0,-36.415527 c 0,-38.843135 -4.7932,-77.686741 -4.7932,-77.686741"
           style="display:inline;opacity:0.2;fill:#000000;fill-opacity:1;fill-rule:nonzero;stroke:none;enable-background:new"
           id="path4320"
           inkscape:connector-curvature="0" />
        <path
           sodipodi:nodetypes="ccccccccsscccccccssc"
           d="m 699.10296,-63.169416 c 0,0 -4.6898,-33.077214 -19.08252,-47.643324 -18.25263,-19.11777 -38.71203,-19.2127 -48.09445,-20.33204 C 564.75701,-136 464.00001,-136 464.00001,-136 l -0.20866,0 c 0,0 -100.75465,0 -167.92598,4.85522 -9.3829,1.11934 -29.835,1.21427 -48.09416,20.33204 -14.39146,14.56611 -19.07473,47.643324 -19.07473,47.643324 0,0 -4.80034,38.843606 -4.80034,77.686741 l 0,36.415527 c 0,38.842664 4.80034,77.685798 4.80034,77.685798 0,0 4.68327,33.07764 19.07473,47.64385 18.25916,19.11823 42.24412,18.5134 52.92682,20.51718 38.40047,3.68226 163.19812,4.82181 163.19812,4.82181 0,0 100.86086,-0.15181 168.02984,-5.00705 9.38242,-1.11934 29.84182,-1.21371 48.09445,-20.33194 14.39272,-14.56621 19.08252,-47.64385 19.08252,-47.64385 0,0 4.7932,-38.843134 4.7932,-77.685798 l 0,-36.415527 c 0,-38.843135 -4.7932,-77.686741 -4.7932,-77.686741"
           style="display:inline;opacity:0.1;fill:#000000;fill-opacity:1;fill-rule:nonzero;stroke:none;filter:url(#filter4330);enable-background:new"
           id="path4328"
           inkscape:connector-curvature="0" />
        <path
           inkscape:connector-curvature="0"
           id="path4322"
           style="display:inline;opacity:0.2;fill:#000000;fill-opacity:1;fill-rule:nonzero;stroke:none;filter:url(#filter4334);enable-background:new"
           d="m 699.10296,-63.169416 c 0,0 -4.6898,-33.077214 -19.08252,-47.643324 -18.25263,-19.11777 -38.71203,-19.2127 -48.09445,-20.33204 C 564.75701,-136 464.00001,-136 464.00001,-136 l -0.20866,0 c 0,0 -100.75465,0 -167.92598,4.85522 -9.3829,1.11934 -29.835,1.21427 -48.09416,20.33204 -14.39146,14.56611 -19.07473,47.643324 -19.07473,47.643324 0,0 -4.80034,38.843606 -4.80034,77.686741 l 0,36.415527 c 0,38.842664 4.80034,77.685798 4.80034,77.685798 0,0 4.68327,33.07764 19.07473,47.64385 18.25916,19.11823 42.24412,18.5134 52.92682,20.51718 38.40047,3.68226 163.19812,4.82181 163.19812,4.82181 0,0 100.86086,-0.15181 168.02984,-5.00705 9.38242,-1.11934 29.84182,-1.21371 48.09445,-20.33194 14.39272,-14.56621 19.08252,-47.64385 19.08252,-47.64385 0,0 4.7932,-38.843134 4.7932,-77.685798 l 0,-36.415527 c 0,-38.843135 -4.7932,-77.686741 -4.7932,-77.686741"
           sodipodi:nodetypes="ccccccccsscccccccssc" />
        <path
           inkscape:connector-curvature="0"
           id="path4299"
           style="display:inline;opacity:0.2;fill:#000000;fill-opacity:1;fill-rule:nonzero;stroke:none;enable-background:new"
           d="m 189.57023,251.67614 c 0,0 -0.4299,-3.03208 -1.74923,-4.36731 -1.67316,-1.75246 -3.5486,-1.76116 -4.40866,-1.86377 C 177.25518,245 168.01913,245 168.01913,245 L 168,245 c 0,0 -9.23584,0 -15.39321,0.44506 -0.8601,0.10261 -2.73488,0.11131 -4.40863,1.86377 -1.31922,1.33523 -1.74852,4.36731 -1.74852,4.36731 0,0 -0.43224,3.56067 -0.44003,7.12128 l -0.01,4.39129 c -0.008,3.56057 0.44003,7.1212 0.44003,7.1212 0,0 0.4293,3.03211 1.74852,4.36735 1.67375,1.7525 3.87238,1.69706 4.85162,1.88074 C 156.56022,276.89554 168,277 168,277 c 0,0 9.24558,-0.0139 15.40273,-0.45898 0.86006,-0.10261 2.7355,-0.11126 4.40866,-1.86376 1.31933,-1.33524 1.74923,-4.36735 1.74923,-4.36735 0,0 0.43159,-3.56063 0.43938,-7.1212 l 0.01,-4.39129 c 0.008,-3.56061 -0.43938,-7.12128 -0.43938,-7.12128"
           sodipodi:nodetypes="ccccccccsscccccccssc" />
        <path
           inkscape:connector-curvature="0"
           id="path4301"
           style="display:inline;opacity:0.2;fill:#000000;fill-opacity:1;fill-rule:nonzero;stroke:none;enable-background:new"
           d="m 125.72654,262.24845 c 0,0 -0.27357,-1.9295 -1.11315,-2.77919 -1.06474,-1.1152 -2.2582,-1.12074 -2.80551,-1.18604 C 117.88969,258 112.0122,258 112.0122,258 L 112,258 c 0,0 -5.87736,0 -9.79568,0.28322 -0.54734,0.0653 -1.74038,0.0708 -2.805497,1.18604 -0.839502,0.84969 -1.112693,2.77919 -1.112693,2.77919 0,0 -0.276895,2.26588 -0.28002,4.53173 L 98,271.211 c -0.0031,2.26582 0.28002,4.53167 0.28002,4.53167 0,0 0.273191,1.92953 1.112693,2.77923 1.065117,1.11523 2.464237,1.07994 3.087397,1.19683 C 104.72014,279.93353 112,280 112,280 c 0,0 5.88355,-0.009 9.80174,-0.29207 0.54731,-0.0653 1.74077,-0.0708 2.80551,-1.18603 0.83958,-0.8497 1.11315,-2.77923 1.11315,-2.77923 0,0 0.27653,-2.26585 0.2796,-4.53167 l 0.006,-4.43082 c 0.003,-2.26585 -0.2796,-4.53173 -0.2796,-4.53173"
           sodipodi:nodetypes="ccccccccsscccccccssc" />
        <path
           inkscape:connector-curvature="0"
           id="path4303"
           style="display:inline;opacity:0.2;fill:#000000;fill-opacity:1;fill-rule:nonzero;stroke:none;enable-background:new"
           d="m 74.785151,268.33807 c 0,0 -0.214949,-1.51604 -0.874616,-2.18365 -0.836579,-0.87623 -1.774301,-0.88058 -2.204329,-0.93189 C 68.627628,265 64.0096,265 64.0096,265 L 64,265 c 0,0 -4.617921,0 -7.696607,0.22253 -0.430049,0.0513 -1.367437,0.0557 -2.204315,0.93189 -0.659609,0.66761 -0.874259,2.18365 -0.874259,2.18365 0,0 -0.216121,1.78033 -0.220015,3.56064 l -0.0048,2.19565 c -0.0039,1.78029 0.220015,3.5606 0.220015,3.5606 0,0 0.21465,1.51606 0.874259,2.18367 0.836878,0.87626 1.936188,0.84853 2.425812,0.94037 C 58.280108,280.94777 64,281 64,281 c 0,0 4.622789,-0.007 7.701367,-0.22949 0.430028,-0.0513 1.36775,-0.0556 2.204329,-0.93188 0.659667,-0.66761 0.874616,-2.18367 0.874616,-2.18367 0,0 0.215794,-1.78031 0.219688,-3.5606 l 0.0048,-2.19565 c 0.0039,-1.78031 -0.219688,-3.56064 -0.219688,-3.56064"
           sodipodi:nodetypes="ccccccccsscccccccssc" />
        <path
           inkscape:connector-curvature="0"
           id="path16"
           style="display:inline;fill:#6c6c6c;fill-opacity:1;fill-rule:nonzero;stroke:none;enable-background:new"
           d="m 699.10296,-67.169416 c 0,0 -4.6898,-33.077214 -19.08252,-47.643324 -18.25263,-19.11777 -38.71203,-19.2127 -48.09445,-20.33204 C 564.75701,-140 464.00001,-140 464.00001,-140 l -0.20866,0 c 0,0 -100.75465,0 -167.92598,4.85522 -9.3829,1.11934 -29.835,1.21427 -48.09416,20.33204 -14.39146,14.56611 -19.07473,47.643324 -19.07473,47.643324 0,0 -4.80034,38.843606 -4.80034,77.686741 l 0,36.415527 c 0,38.842664 4.80034,77.685798 4.80034,77.685798 0,0 4.68327,33.07764 19.07473,47.64385 18.25916,19.11823 42.24412,18.5134 52.92682,20.51718 38.40047,3.68226 163.19812,4.82181 163.19812,4.82181 0,0 100.86086,-0.15181 168.02984,-5.00705 9.38242,-1.11934 29.84182,-1.21371 48.09445,-20.33194 14.39272,-14.56621 19.08252,-47.64385 19.08252,-47.64385 0,0 4.7932,-38.843134 4.7932,-77.685798 l 0,-36.415527 c 0,-38.843135 -4.7932,-77.686741 -4.7932,-77.686741"
           sodipodi:nodetypes="ccccccccsscccccccssc" />
        <path
           d="M 400.02452,102.60869 400,-47.130432 544,28 Z"
           style="fill:#ffffff;fill-opacity:1;fill-rule:nonzero;stroke:none"
           id="path4146"
           inkscape:connector-curvature="0"
           sodipodi:nodetypes="cccc" />
        <path
           inkscape:connector-curvature="0"
           id="path14"
           style="fill:#e2e2e2;fill-opacity:1;fill-rule:nonzero;stroke:none"
           d="M 526.28277,37.195652 400,-47.130432 544,28 526.28277,37.195652" />
        <path
           sodipodi:nodetypes="ccccccccsscccccccssc"
           d="m 189.57023,250.67614 c 0,0 -0.4299,-3.03208 -1.74923,-4.36731 -1.67316,-1.75246 -3.5486,-1.76116 -4.40866,-1.86377 C 177.25518,244 168.01913,244 168.01913,244 L 168,244 c 0,0 -9.23584,0 -15.39321,0.44506 -0.8601,0.10261 -2.73488,0.11131 -4.40863,1.86377 -1.31922,1.33523 -1.74852,4.36731 -1.74852,4.36731 0,0 -0.43224,3.56067 -0.44003,7.12128 l -0.01,4.39129 c -0.008,3.56057 0.44003,7.1212 0.44003,7.1212 0,0 0.4293,3.03211 1.74852,4.36735 1.67375,1.7525 3.87238,1.69706 4.85162,1.88074 C 156.56022,275.89554 168,276 168,276 c 0,0 9.24558,-0.0139 15.40273,-0.45898 0.86006,-0.10261 2.7355,-0.11126 4.40866,-1.86376 1.31933,-1.33524 1.74923,-4.36735 1.74923,-4.36735 0,0 0.43159,-3.56063 0.43938,-7.1212 l 0.01,-4.39129 c 0.008,-3.56061 -0.43938,-7.12128 -0.43938,-7.12128"
           style="display:inline;fill:#6c6c6c;fill-opacity:1;fill-rule:nonzero;stroke:none;enable-background:new"
           id="path4205"
           inkscape:connector-curvature="0" />
        <path
           sodipodi:nodetypes="cccc"
           inkscape:connector-curvature="0"
           id="path4207"
           style="fill:#ffffff;fill-opacity:1;fill-rule:nonzero;stroke:none"
           d="M 162.00222,266.76572 162,253.24761 l 13,6.78261 z" />
        <path
           d="M 173.40053,260.86038 162,253.24761 l 13,6.78261 -1.59947,0.83016"
           style="fill:#e2e2e2;fill-opacity:1;fill-rule:nonzero;stroke:none"
           id="path4209"
           inkscape:connector-curvature="0" />
        <path
           sodipodi:nodetypes="ccccccccsscccccccssc"
           d="m 125.72654,261.24845 c 0,0 -0.27357,-1.9295 -1.11315,-2.77919 -1.06474,-1.1152 -2.2582,-1.12074 -2.80551,-1.18604 C 117.88969,257 112.0122,257 112.0122,257 L 112,257 c 0,0 -5.87736,0 -9.79568,0.28322 -0.54734,0.0653 -1.74038,0.0708 -2.805497,1.18604 -0.839502,0.84969 -1.112693,2.77919 -1.112693,2.77919 0,0 -0.276895,2.26588 -0.28002,4.53173 L 98,270.211 c -0.0031,2.26582 0.28002,4.53167 0.28002,4.53167 0,0 0.273191,1.92953 1.112693,2.77923 1.065117,1.11523 2.464237,1.07994 3.087397,1.19683 C 104.72014,278.93353 112,279 112,279 c 0,0 5.88355,-0.009 9.80174,-0.29207 0.54731,-0.0653 1.74077,-0.0708 2.80551,-1.18603 0.83958,-0.8497 1.11315,-2.77923 1.11315,-2.77923 0,0 0.27653,-2.26585 0.2796,-4.53167 l 0.006,-4.43082 c 0.003,-2.26585 -0.2796,-4.53173 -0.2796,-4.53173"
           style="display:inline;fill:#6c6c6c;fill-opacity:1;fill-rule:nonzero;stroke:none;enable-background:new"
           id="path4239"
           inkscape:connector-curvature="0" />
        <path
           sodipodi:nodetypes="cccc"
           inkscape:connector-curvature="0"
           id="path4243"
           style="fill:#ffffff;fill-opacity:1;fill-rule:nonzero;stroke:none"
           d="m 108.00153,272.67934 -0.002,-9.35869 9,4.69565 z" />
        <path
           d="M 115.89267,268.59103 108,263.32065 l 9,4.69565 -1.10733,0.57473"
           style="fill:#e2e2e2;fill-opacity:1;fill-rule:nonzero;stroke:none"
           id="path4245"
           inkscape:connector-curvature="0" />
        <path
           sodipodi:nodetypes="ccccccccsscccccccssc"
           d="m 74.785151,267.33807 c 0,0 -0.214949,-1.51604 -0.874616,-2.18365 -0.836579,-0.87623 -1.774301,-0.88058 -2.204329,-0.93189 C 68.627628,264 64.0096,264 64.0096,264 L 64,264 c 0,0 -4.617921,0 -7.696607,0.22253 -0.430049,0.0513 -1.367437,0.0557 -2.204315,0.93189 -0.659609,0.66761 -0.874259,2.18365 -0.874259,2.18365 0,0 -0.216121,1.78033 -0.220015,3.56064 l -0.0048,2.19565 c -0.0039,1.78029 0.220015,3.5606 0.220015,3.5606 0,0 0.21465,1.51606 0.874259,2.18367 0.836878,0.87626 1.936188,0.84853 2.425812,0.94037 C 58.280108,279.94777 64,280 64,280 c 0,0 4.622789,-0.007 7.701367,-0.22949 0.430028,-0.0513 1.36775,-0.0556 2.204329,-0.93188 0.659667,-0.66761 0.874616,-2.18367 0.874616,-2.18367 0,0 0.215794,-1.78031 0.219688,-3.5606 l 0.0048,-2.19565 c 0.0039,-1.78031 -0.219688,-3.56064 -0.219688,-3.56064"
           style="display:inline;fill:#6c6c6c;fill-opacity:1;fill-rule:nonzero;stroke:none;enable-background:new"
           id="path4255"
           inkscape:connector-curvature="0" />
        <path
           sodipodi:nodetypes="cccc"
           inkscape:connector-curvature="0"
           id="path4259"
           style="fill:#ffffff;fill-opacity:1;fill-rule:nonzero;stroke:none"
           d="M 61.001192,275.63949 61,268.36051 l 7,3.65217 z" />
        <path
           d="M 67.138746,272.45969 61,268.36051 l 7,3.65217 -0.861254,0.44701"
           style="fill:#e2e2e2;fill-opacity:1;fill-rule:nonzero;stroke:none"
           id="path4261"
           inkscape:connector-curvature="0" />
        <path
           sodipodi:nodetypes="ccccccccsscccccccssc"
           d="m 31.84372,272.42769 c 0,0 -0.156327,-1.10258 -0.636084,-1.58811 -0.608421,-0.63726 -1.290401,-0.64043 -1.603149,-0.67774 C 27.365522,270 24.006955,270 24.006955,270 L 24,270 c 0,0 -3.358488,0 -5.597532,0.16184 -0.312763,0.0373 -0.9945,0.0405 -1.603139,0.67774 -0.479715,0.48553 -0.635824,1.58811 -0.635824,1.58811 0,0 -0.157704,1.29478 -0.160011,2.58955 L 16,276.97771 c -0.0023,1.29476 0.160012,2.58953 0.160012,2.58953 0,0 0.156109,1.10259 0.635824,1.58813 0.608639,0.63727 1.408137,0.61711 1.764227,0.6839 C 19.840079,281.96201 24,282 24,282 c 0,0 3.362028,-0.005 5.600994,-0.1669 0.312747,-0.0373 0.994727,-0.0405 1.603148,-0.67773 0.479758,-0.48554 0.636084,-1.58813 0.636084,-1.58813 0,0 0.157466,-1.29477 0.159773,-2.58953 l 0.0035,-1.96047 c 0.0023,-1.29477 -0.159773,-2.58955 -0.159773,-2.58955"
           style="display:inline;fill:#6c6c6c;fill-opacity:1;fill-rule:nonzero;stroke:none;enable-background:new"
           id="path4269"
           inkscape:connector-curvature="0" />
        <path
           sodipodi:nodetypes="cccc"
           inkscape:connector-curvature="0"
           id="path4273"
           style="fill:#ffffff;fill-opacity:1;fill-rule:nonzero;stroke:none"
           d="M 21.001022,279.11956 21,272.88043 l 6,3.13044 z" />
        <path
           d="M 26.261783,276.39402 21,272.88043 l 6,3.13044 -0.738217,0.38315"
           style="fill:#e2e2e2;fill-opacity:1;fill-rule:nonzero;stroke:none"
           id="path4275"
           inkscape:connector-curvature="0" />
        <path
           inkscape:connector-curvature="0"
           style="display:inline;opacity:0.2;fill:#ffffff;fill-opacity:1;fill-rule:nonzero;stroke:none;enable-background:new"
           d="m 168,488 c 0,0 -9.23521,2.5e-4 -15.39258,0.44531 -0.8601,0.10261 -2.7364,0.11082 -4.41015,1.86328 -1.31922,1.33523 -1.74805,4.36719 -1.74805,4.36719 0,0 -0.43166,3.56048 -0.43945,7.1211 l -0.01,4.39257 c -6e-5,0.0279 0.002,0.0541 0.002,0.082 l 0.008,-3.4746 c 0.008,-3.56062 0.43945,-7.1211 0.43945,-7.1211 0,0 0.42883,-3.03196 1.74805,-4.36719 1.67375,-1.75246 3.55005,-1.76067 4.41015,-1.86328 C 158.76479,489.00025 168,489 168,489 l 0.0195,0 c 0,0 9.23542,2.5e-4 15.39258,0.44531 0.86006,0.10261 2.73504,0.11082 4.4082,1.86328 1.31933,1.33523 1.75,4.36719 1.75,4.36719 0,0 0.43841,3.50659 0.4375,7.03906 l 0.002,-0.91796 c 0.008,-3.56061 -0.43946,-7.1211 -0.43946,-7.1211 0,0 -0.43067,-3.03196 -1.75,-4.36719 -1.67316,-1.75246 -3.54814,-1.76067 -4.4082,-1.86328 C 177.25495,488.00025 168.01953,488 168.01953,488 L 168,488 Z"
           transform="translate(0,-244)"
           id="path4305" />
        <path
           inkscape:connector-curvature="0"
           style="display:inline;opacity:0.2;fill:#ffffff;fill-opacity:1;fill-rule:nonzero;stroke:none;enable-background:new"
           d="m 112,257 c 0,0 -5.8766,-2e-5 -9.79492,0.2832 -0.54734,0.0653 -1.74153,0.0703 -2.806642,1.18555 -0.839502,0.84969 -1.113282,2.7793 -1.113282,2.7793 0,0 -0.273602,2.26541 -0.279297,4.53125 L 98,268.21094 c -7.7e-5,0.0306 0.0019,0.0593 0.002,0.0898 l 0.0039,-1.52148 c 0.0057,-2.26584 0.279297,-4.53125 0.279297,-4.53125 0,0 0.27378,-1.92961 1.113282,-2.7793 1.065111,-1.11524 2.259301,-1.12025 2.806641,-1.18555 C 106.1234,257.99998 112,258 112,258 l 0.0117,0 c 0,0 5.87868,-2e-5 9.79687,0.2832 0.54731,0.0653 1.73995,0.0703 2.80469,1.18555 0.83958,0.84969 1.11328,2.7793 1.11328,2.7793 0,0 0.2756,2.20655 0.27735,4.4414 l 0.002,-0.91015 c 0.006,-2.26584 -0.2793,-4.53125 -0.2793,-4.53125 0,0 -0.2737,-1.92961 -1.11328,-2.7793 -1.06474,-1.1152 -2.25738,-1.12025 -2.80469,-1.18555 C 117.8904,256.99998 112.01172,257 112.01172,257 L 112,257 Z"
           id="path4307" />
        <path
           inkscape:connector-curvature="0"
           style="display:inline;opacity:0.2;fill:#ffffff;fill-opacity:1;fill-rule:nonzero;stroke:none;enable-background:new"
           d="m 64,508 c 0,0 -4.61858,1.3e-4 -7.697266,0.22266 -0.430049,0.0513 -1.366247,0.0555 -2.203125,0.93164 -0.659609,0.66761 -0.875,2.18359 -0.875,2.18359 0,0 -0.216809,1.78024 -0.220703,3.56055 L 53,517.09375 c -4.9e-5,0.0226 0.0019,0.0438 0.002,0.0664 l 0.002,-1.26172 c 0.0039,-1.78031 0.220703,-3.56055 0.220703,-3.56055 0,0 0.215391,-1.51598 0.875,-2.18359 0.836878,-0.87619 1.773076,-0.88034 2.203125,-0.93164 C 59.38142,509.00013 64,509 64,509 l 0.0098,0 c 0,0 4.618687,1.3e-4 7.697265,0.22266 0.430028,0.0513 1.366546,0.0554 2.203125,0.93164 0.659667,0.66761 0.875,2.18359 0.875,2.18359 0,0 0.214849,1.73547 0.216797,3.49219 l 0.002,-0.93164 c 0.0039,-1.78031 -0.21875,-3.56055 -0.21875,-3.56055 0,0 -0.215333,-1.51598 -0.875,-2.18359 -0.836579,-0.87623 -1.773097,-0.88033 -2.203125,-0.93164 C 68.628453,508.00013 64.009766,508 64.009766,508 L 64,508 Z"
           transform="translate(0,-244)"
           id="path4309" />
        <path
           inkscape:connector-curvature="0"
           style="display:inline;opacity:0.2;fill:#ffffff;fill-opacity:1;fill-rule:nonzero;stroke:none;enable-background:new"
           d="m 463.79102,104 c 0,0 -100.75446,2.5e-4 -167.92579,4.85547 -9.3829,1.11934 -29.83459,1.21426 -48.09375,20.33203 -14.39146,14.56611 -19.07421,47.64258 -19.07421,47.64258 0,0 -4.80079,38.84436 -4.80079,77.6875 l 0,2 c 0,-38.84314 4.80079,-77.6875 4.80079,-77.6875 0,0 4.68275,-33.07647 19.07421,-47.64258 18.25916,-19.11777 38.71085,-19.21269 48.09375,-20.33203 C 363.03656,106.00025 463.79102,106 463.79102,106 L 464,106 c 0,0 100.7568,2.5e-4 167.92578,4.85547 9.38242,1.11934 29.84112,1.21426 48.09375,20.33203 14.39272,14.56611 19.08399,47.64258 19.08399,47.64258 0,0 4.79296,38.84436 4.79296,77.6875 l 0,-2 c 0,-38.84314 -4.79296,-77.6875 -4.79296,-77.6875 0,0 -4.69127,-33.07647 -19.08399,-47.64258 C 661.7669,110.06973 641.3082,109.97481 631.92578,108.85547 564.7568,104.00025 464,104 464,104 l -0.20898,0 z"
           transform="translate(0,-244)"
           id="path4338" />
      </g>
    </g>
  </g>
  <g
     style="display:inline"
     inkscape:groupmode="layer"
     inkscape:label="youtube-dl"
     id="g4370"
     transform="translate(0,244)">
    <g
       style="display:none"
       inkscape:label="Baseplate"
       id="g4372"
       inkscape:groupmode="layer">
      <text
         y="-302.25488"
         xml:space="preserve"
         x="15.006836"
         style="font-style:normal;font-variant:normal;font-weight:normal;font-stretch:normal;font-size:18px;font-family:'DejaVu Sans';-inkscape-font-specification:'DejaVu Sans';display:inline;fill:#000000;fill-opacity:1;stroke:none;enable-background:new"
         inkscape:label="context"
         id="text4374"><tspan
           style="font-style:normal;font-variant:normal;font-weight:normal;font-stretch:normal;font-family:'DejaVu Sans';-inkscape-font-specification:'DejaVu Sans'"
           y="-302.25488"
           x="15.006836"
           sodipodi:role="line"
           id="tspan4376">apps</tspan></text>
      <text
         y="-302.25488"
         xml:space="preserve"
         x="142.48828"
         style="font-style:normal;font-variant:normal;font-weight:bold;font-stretch:normal;font-size:18px;line-height:125%;font-family:'DejaVu Sans';-inkscape-font-specification:'DejaVu Sans Bold';text-align:start;writing-mode:lr-tb;text-anchor:start;display:inline;fill:#000000;fill-opacity:1;stroke:none;enable-background:new"
         sodipodi:linespacing="125%"
         inkscape:label="icon-name"
         id="text4378"><tspan
           style="font-style:normal;font-variant:normal;font-weight:bold;font-stretch:normal;font-size:18px;font-family:'DejaVu Sans';-inkscape-font-specification:'DejaVu Sans Bold'"
           y="-302.25488"
           x="142.48828"
           sodipodi:role="line"
           id="tspan4380">youtube-dl</tspan></text>
      <rect
         style="display:inline;overflow:visible;visibility:visible;fill:#d5d5d5;fill-opacity:1;fill-rule:nonzero;stroke:none;stroke-width:2;marker:none;enable-background:accumulate"
         id="rect4382"
         width="16"
         height="16"
         x="-32"
         y="-372"
         inkscape:label="16x16"
         transform="scale(-1,1)" />
      <rect
         style="display:inline;overflow:visible;visibility:visible;fill:#d5d5d5;fill-opacity:1;fill-rule:nonzero;stroke:none;stroke-width:2;marker:none;enable-background:accumulate"
         id="rect4384"
         width="24"
         height="24"
         x="-76"
         y="-380"
         inkscape:label="24x24"
         transform="scale(-1,1)" />
      <rect
         style="display:inline;overflow:visible;visibility:visible;fill:#d5d5d5;fill-opacity:1;fill-rule:nonzero;stroke:none;stroke-width:2;marker:none;enable-background:accumulate"
         id="rect4386"
         width="32"
         height="32"
         x="-128"
         y="-388"
         inkscape:label="32x32"
         transform="scale(-1,1)" />
      <rect
         inkscape:label="48x48"
         y="-404"
         x="-192"
         height="48"
         width="48"
         id="rect4388"
         style="display:inline;overflow:visible;visibility:visible;fill:#d5d5d5;fill-opacity:1;fill-rule:nonzero;stroke:none;stroke-width:2;marker:none;enable-background:accumulate"
         transform="scale(-1,1)" />
      <rect
         style="display:inline;overflow:visible;visibility:visible;fill:#d5d5d5;fill-opacity:1;fill-rule:nonzero;stroke:none;stroke-width:2;marker:none;enable-background:accumulate"
         id="rect4390"
         width="512"
         height="512"
         x="-720"
         y="-868"
         inkscape:label="48x48"
         transform="scale(-1,1)" />
    </g>
    <g
       inkscape:groupmode="layer"
       id="g4392"
       inkscape:label="Symbols"
       style="display:inline">
      <use
         height="100%"
         width="100%"
         transform="translate(0,-640)"
         id="use4446"
         xlink:href="#g4343"
         y="0"
         x="0"
         style="display:inline;enable-background:new" />
      <path
         id="path4412"
         d="m 179,-381 c -6.62741,0 -12,5.37259 -12,12 0,6.62741 5.37259,12 12,12 6.62741,0 12,-5.37259 12,-12 0,-6.62741 -5.37259,-12 -12,-12 z"
         style="display:inline;opacity:0.2;fill:#000000;fill-opacity:1;stroke:none;enable-background:new"
         inkscape:connector-curvature="0"
         sodipodi:nodetypes="sssss" />
      <path
         sodipodi:nodetypes="sssss"
         inkscape:connector-curvature="0"
         style="display:inline;fill:#808080;fill-opacity:1;stroke:none;enable-background:new"
         d="m 179,-382 c -6.62741,0 -12,5.37259 -12,12 0,6.62741 5.37259,12 12,12 6.62741,0 12,-5.37259 12,-12 0,-6.62741 -5.37259,-12 -12,-12 z"
         id="path4408" />
      <path
         sodipodi:nodetypes="ccccccccccccc"
         inkscape:connector-curvature="0"
         id="path4058"
         d="m 177,-377 4,0 0,5.05273 2.625,0 L 179,-365 l 5,0 0,2 -10,0 0,-2 5,0 -4.625,-7 2.625,0 z"
         style="display:inline;fill:#ffffff;fill-opacity:1;stroke:none;enable-background:new" />
      <circle
         r="5.5"
         id="circle4473"
         style="display:inline;opacity:0.2;fill:#000000;fill-opacity:1;stroke:none;stroke-width:2;enable-background:new"
         cx="69.5"
         cy="-361.5" />
      <circle
         cy="-362.5"
         cx="69.5"
         style="display:inline;fill:#808080;fill-opacity:1;stroke:none;stroke-width:2;enable-background:new"
         id="circle7479"
         r="5.5" />
      <path
         inkscape:connector-curvature="0"
         id="path7481"
         d="m 71.00006,-366 -6e-5,3 1.312485,0 -2.812485,3 -2.812485,-3 1.312485,0 0,-3 3,0 z M 67,-360 l 5,0 0,1 -5,0 z"
         style="fill:#ffffff;fill-opacity:1;stroke:none;stroke-width:2"
         sodipodi:nodetypes="cccccccccccccc" />
      <g
         transform="matrix(0.33333333,0,0,0.33333333,-28.666666,-450)"
         id="g7483"
         style="stroke-width:3">
        <circle
           r="13.5"
           cy="268.5"
           cx="168.5"
           style="display:inline;fill:#808080;fill-opacity:1;stroke:none;stroke-width:2.57142878;enable-background:new"
           id="circle7485" />
        <path
           inkscape:connector-curvature="0"
           id="path7487"
           d="m 170,261 0,6 3,0 -4.5,6.00001 L 164,267 l 3,0 0,-6 3,0 z m -6,12.00001 9,-10e-6 0,3 -9,10e-6 z"
           style="fill:#ffffff;fill-opacity:1;stroke:none;stroke-width:3"
           sodipodi:nodetypes="cccccccccccccc" />
      </g>
      <circle
         r="7.5"
         cy="-363.5"
         cx="119.5"
         style="display:inline;opacity:0.2;fill:#000000;fill-opacity:1;fill-rule:evenodd;stroke:none;enable-background:new"
         id="circle4437" />
      <circle
         id="circle4426"
         style="display:inline;fill:#808080;fill-opacity:1;fill-rule:evenodd;stroke:none;enable-background:new"
         cx="119.5"
         cy="-364.5"
         r="7.5" />
      <path
         inkscape:connector-curvature="0"
         id="path4428"
         d="m 121,-369.04017 0,4.04017 1.49991,-0.0402 -2.99991,4.04018 -3.00009,-4.04018 1.5,0 0,-4 3,0 z m -5,8.04017 7,0 0,1 -7,0 z"
         style="fill:#ffffff;fill-opacity:1;stroke:none"
         sodipodi:nodetypes="cccccccccccccc" />
      <circle
         transform="matrix(1,0,0,-1,-1.5e-7,-356)"
         id="circle4393"
         style="display:inline;opacity:0.2;fill:#000000;fill-opacity:1;fill-rule:evenodd;stroke:none;filter:url(#filter4395);enable-background:new"
         cx="584"
         cy="144"
         r="120" />
      <circle
         r="120"
         cy="-508"
         cx="584"
         style="display:inline;fill:#808080;fill-opacity:1;fill-rule:evenodd;stroke:none;enable-background:new"
         id="path8386" />
      <path
         sodipodi:nodetypes="ccccccccccccc"
         style="fill:#ffffff;fill-opacity:1;stroke:none"
         d="m 608,-516 32,0 -56,62 -56,-62 32,0 0,-64 48,0 z m -80,64 112,0 0,16 -112,0 z"
         id="path8405"
         inkscape:connector-curvature="0" />
    </g>
  </g>
</svg>
