<?xml version="1.0" encoding="UTF-8" standalone="no"?>
<!-- Created with Inkscape (http://www.inkscape.org/) -->

<svg
   xmlns:dc="http://purl.org/dc/elements/1.1/"
   xmlns:cc="http://creativecommons.org/ns#"
   xmlns:rdf="http://www.w3.org/1999/02/22-rdf-syntax-ns#"
   xmlns:svg="http://www.w3.org/2000/svg"
   xmlns="http://www.w3.org/2000/svg"
   xmlns:sodipodi="http://sodipodi.sourceforge.net/DTD/sodipodi-0.dtd"
   xmlns:inkscape="http://www.inkscape.org/namespaces/inkscape"
   inkscape:export-ydpi="90.000000"
   inkscape:export-xdpi="90.000000"
   width="736"
   height="544"
   id="svg11300"
   sodipodi:version="0.32"
   inkscape:version="0.91 r13725"
   sodipodi:docname="web-google-drive.svg"
   inkscape:output_extension="org.inkscape.output.svg.inkscape"
   version="1.0"
   style="display:inline;enable-background:new"
   inkscape:export-filename="/home/sam/paper-template.png">
  <sodipodi:namedview
     stroke="#646464"
     fill="#909090"
     id="base"
     pagecolor="#6b6b6b"
     bordercolor="#000000"
     borderopacity="0.25490196"
     inkscape:pageopacity="0"
     inkscape:pageshadow="2"
     inkscape:zoom="1"
     inkscape:cx="297.84614"
     inkscape:cy="8.2941559"
     inkscape:current-layer="layer6"
     showgrid="false"
     inkscape:grid-bbox="true"
     inkscape:document-units="px"
     inkscape:showpageshadow="false"
     inkscape:window-width="1316"
     inkscape:window-height="698"
     inkscape:window-x="25"
     inkscape:window-y="45"
     width="400px"
     height="300px"
     inkscape:snap-nodes="true"
     inkscape:snap-bbox="true"
     gridtolerance="10000"
     inkscape:object-nodes="true"
     inkscape:snap-grids="true"
     showguides="true"
     inkscape:guide-bbox="true"
     inkscape:window-maximized="1"
     inkscape:bbox-paths="true"
     inkscape:snap-bbox-midpoints="true"
     inkscape:snap-global="true"
     inkscape:object-paths="true"
     inkscape:snap-intersection-paths="true"
     inkscape:snap-smooth-nodes="true">
    <inkscape:grid
       snapvisiblegridlinesonly="true"
       empspacing="4"
       visible="true"
       enabled="true"
       type="xygrid"
       id="grid5883"
       spacingx="1px"
       spacingy="1px" />
    <inkscape:grid
       snapvisiblegridlinesonly="true"
       empopacity="0.25098039"
       empcolor="#ff0000"
       opacity="0.1254902"
       color="#ff0000"
       spacingy="0.5px"
       spacingx="0.5px"
       enabled="false"
       visible="true"
       empspacing="2"
       id="grid11592"
       type="xygrid" />
  </sodipodi:namedview>
  <title
     id="title3004">Paper Icon Theme Template</title>
  <defs
     id="defs3">
    <filter
       height="1.0517061"
       y="-0.025853028"
       width="1.0447897"
       x="-0.02239484"
       id="filter4459"
       style="color-interpolation-filters:sRGB"
       inkscape:collect="always">
      <feGaussianBlur
         id="feGaussianBlur4461"
         stdDeviation="4.1364844"
         inkscape:collect="always" />
    </filter>
  </defs>
  <metadata
     id="metadata4">
    <rdf:RDF>
      <cc:Work
         rdf:about="">
        <dc:format>image/svg+xml</dc:format>
        <dc:type
           rdf:resource="http://purl.org/dc/dcmitype/StillImage" />
        <dc:creator>
          <cc:Agent>
            <dc:title>Sam Hewitt</dc:title>
          </cc:Agent>
        </dc:creator>
        <dc:source />
        <cc:license
           rdf:resource="http://creativecommons.org/licenses/by-sa/3.0/" />
        <dc:title>Paper Icon Theme Template</dc:title>
        <dc:subject>
          <rdf:Bag />
        </dc:subject>
        <dc:date />
        <dc:rights>
          <cc:Agent>
            <dc:title />
          </cc:Agent>
        </dc:rights>
        <dc:publisher>
          <cc:Agent>
            <dc:title />
          </cc:Agent>
        </dc:publisher>
        <dc:identifier />
        <dc:relation />
        <dc:language />
        <dc:coverage />
        <dc:description />
        <dc:contributor>
          <cc:Agent>
            <dc:title />
          </cc:Agent>
        </dc:contributor>
      </cc:Work>
      <cc:Work
         rdf:about="">
        <dc:format>image/svg+xml</dc:format>
        <dc:type
           rdf:resource="http://purl.org/dc/dcmitype/StillImage" />
      </cc:Work>
      <cc:License
         rdf:about="http://creativecommons.org/licenses/by-sa/3.0/">
        <cc:permits
           rdf:resource="http://creativecommons.org/ns#Reproduction" />
        <cc:permits
           rdf:resource="http://creativecommons.org/ns#Distribution" />
        <cc:requires
           rdf:resource="http://creativecommons.org/ns#Notice" />
        <cc:requires
           rdf:resource="http://creativecommons.org/ns#Attribution" />
        <cc:permits
           rdf:resource="http://creativecommons.org/ns#DerivativeWorks" />
        <cc:requires
           rdf:resource="http://creativecommons.org/ns#ShareAlike" />
      </cc:License>
    </rdf:RDF>
  </metadata>
  <g
     transform="translate(0,244)"
     id="layer1"
     inkscape:label="Icon"
     inkscape:groupmode="layer"
     style="display:inline">
    <g
       inkscape:groupmode="layer"
       id="layer7"
       inkscape:label="Baseplate"
       style="display:none">
      <text
         id="context"
         inkscape:label="context"
         style="font-style:normal;font-variant:normal;font-weight:normal;font-stretch:normal;font-size:18px;font-family:'DejaVu Sans';-inkscape-font-specification:'DejaVu Sans';display:inline;fill:#000000;fill-opacity:1;stroke:none;enable-background:new"
         x="15.006836"
         xml:space="preserve"
         y="337.74512"><tspan
           id="tspan3933"
           sodipodi:role="line"
           x="15.006836"
           y="337.74512"
           style="font-style:normal;font-variant:normal;font-weight:normal;font-stretch:normal;font-family:'DejaVu Sans';-inkscape-font-specification:'DejaVu Sans'">web</tspan></text>
      <text
         id="icon-name"
         inkscape:label="icon-name"
         sodipodi:linespacing="125%"
         style="font-style:normal;font-variant:normal;font-weight:bold;font-stretch:normal;font-size:18px;line-height:125%;font-family:'DejaVu Sans';-inkscape-font-specification:'DejaVu Sans Bold';text-align:start;writing-mode:lr-tb;text-anchor:start;display:inline;fill:#000000;fill-opacity:1;stroke:none;enable-background:new"
         x="142.48828"
         xml:space="preserve"
         y="337.74512"><tspan
           id="tspan3937"
           sodipodi:role="line"
           x="142.48828"
           y="337.74512"
           style="font-style:normal;font-variant:normal;font-weight:bold;font-stretch:normal;font-size:18px;font-family:'DejaVu Sans';-inkscape-font-specification:'DejaVu Sans Bold'">web-google-drive</tspan></text>
      <rect
         transform="scale(-1,1)"
         inkscape:label="16x16"
         y="268"
         x="-32"
         height="16"
         width="16"
         id="rect16x16"
         style="display:inline;overflow:visible;visibility:visible;fill:#d5d5d5;fill-opacity:1;fill-rule:nonzero;stroke:none;stroke-width:2;marker:none;enable-background:accumulate" />
      <rect
         transform="scale(-1,1)"
         inkscape:label="24x24"
         y="260"
         x="-76"
         height="24"
         width="24"
         id="rect24x24"
         style="display:inline;overflow:visible;visibility:visible;fill:#d5d5d5;fill-opacity:1;fill-rule:nonzero;stroke:none;stroke-width:2;marker:none;enable-background:accumulate" />
      <rect
         transform="scale(-1,1)"
         inkscape:label="32x32"
         y="252"
         x="-128"
         height="32"
         width="32"
         id="rect32x32"
         style="display:inline;overflow:visible;visibility:visible;fill:#d5d5d5;fill-opacity:1;fill-rule:nonzero;stroke:none;stroke-width:2;marker:none;enable-background:accumulate" />
      <rect
         transform="scale(-1,1)"
         style="display:inline;overflow:visible;visibility:visible;fill:#d5d5d5;fill-opacity:1;fill-rule:nonzero;stroke:none;stroke-width:2;marker:none;enable-background:accumulate"
         id="rect48x48"
         width="48"
         height="48"
         x="-192"
         y="236"
         inkscape:label="48x48" />
      <rect
         transform="scale(-1,1)"
         inkscape:label="48x48"
         y="-228"
         x="-720"
         height="512"
         width="512"
         id="rect3951"
         style="display:inline;overflow:visible;visibility:visible;fill:#d5d5d5;fill-opacity:1;fill-rule:nonzero;stroke:none;stroke-width:2;marker:none;enable-background:accumulate" />
    </g>
    <g
       style="display:inline"
       inkscape:label="Symbols"
       id="layer6"
       inkscape:groupmode="layer">
      <path
         inkscape:connector-curvature="0"
         id="path4463"
         d="m 387.91016,-160 0.004,0.0215 L 271.52734,41.59961 242.35156,92.15039 318.25195,224 318.30075,223.9141 318.2793,224 609.40234,224 685.64844,92.30078 540.08789,-159.81836 387.92773,-160 l -0.0176,0 z m 75.77343,131.24414 35.13086,60.84766 34.65625,60.02734 0.10938,0.02539 L 394.56445,92 423.70117,41.59961 458.91797,-19.25781 463.99805,-28 l -0.0645,-0.11328 -0.25,-0.64258 z"
         style="opacity:0.1;fill:#000000;fill-opacity:1;stroke:none;filter:url(#filter4459)" />
      <path
         style="opacity:0.2;fill:#000000;fill-opacity:1;stroke:none;filter:url(#filter4459)"
         d="m 387.91016,-160 0.004,0.0215 L 271.52734,41.59961 242.35156,92.15039 318.25195,224 318.30075,223.9141 318.2793,224 609.40234,224 685.64844,92.30078 540.08789,-159.81836 387.92773,-160 l -0.0176,0 z m 75.77343,131.24414 35.13086,60.84766 34.65625,60.02734 0.10938,0.02539 L 394.56445,92 423.70117,41.59961 458.91797,-19.25781 463.99805,-28 l -0.0645,-0.11328 -0.25,-0.64258 z"
         id="path4453"
         inkscape:connector-curvature="0" />
      <path
         inkscape:connector-curvature="0"
         id="path4431"
         d="m 387.91016,-162 0.004,0.0215 L 271.52734,39.59961 242.35156,90.15039 318.25195,222 l 0.0488,-0.0859 L 318.2793,222 609.40234,222 685.64844,90.30078 540.08789,-161.81836 387.92773,-162 l -0.0176,0 z m 75.77343,131.24414 35.13086,60.84766 34.65625,60.02734 0.10938,0.02539 L 394.56445,90 423.70117,39.59961 458.91797,-21.25781 463.99805,-30 l -0.0645,-0.11328 -0.25,-0.64258 z"
         style="fill:#000000;fill-opacity:1;stroke:none;opacity:0.2" />
      <path
         inkscape:connector-curvature="0"
         id="path4365"
         d="m 60.433594,264 -5.455078,9.44922 -1.369141,2.37109 3.558594,6.17969 0.002,0 13.646484,0 3.574219,-6.17383 -6.824219,-11.8164 -7.132812,-0.01 z m 3.554687,6.16016 3.267578,5.6582 -6.511718,-0.006 1.367187,-2.36328 1.5,-2.59375 0.05664,-0.0977 L 64,270.1875 l -0.0059,-0.01 0,-0.002 -0.0059,-0.0156 z"
         style="fill:#000000;fill-opacity:1;stroke:none;opacity:0.2" />
      <path
         inkscape:connector-curvature="0"
         id="path4241"
         d="m 107.24414,257 0,0.002 -7.273437,12.59766 -1.824219,3.16016 4.744136,8.24023 0.004,-0.006 -0.002,0.006 18.19531,0 4.76563,-8.23047 -9.09766,-15.75781 -9.50977,-0.0117 -0.002,0 z m 4.73438,8.20117 2.19726,3.80469 2.16602,3.75195 0.006,0.002 -8.6875,-0.01 1.82031,-3.15039 2.0293,-3.50391 L 112,265.25 l -0.006,-0.01 -0.0156,-0.0391 z"
         style="fill:#000000;fill-opacity:1;stroke:none;opacity:0.2" />
      <path
         inkscape:connector-curvature="0"
         id="path4333"
         d="m 160.4707,242 0,0.002 -11.51758,19.94727 -2.88671,5.0039 7.50976,13.04688 0.008,-0.0117 -0.004,0.0117 28.80859,0 7.54492,-13.0332 L 175.5293,242.01758 160.47266,242 l -0.002,0 z m 7.5,12.99023 3.47461,6.01954 3.42969,5.93945 0.01,0.002 -13.75782,-0.0137 2.88477,-4.98828 3.50976,-6.06445 0.47852,-0.82227 -0.006,-0.01 -0.0234,-0.0625 z"
         style="fill:#000000;fill-opacity:1;stroke:none;opacity:0.2" />
      <g
         transform="matrix(0.15,0,0,0.15,139.08761,243.4)"
         id="g4106"
         style="display:inline;enable-background:new">
        <path
           inkscape:connector-curvature="0"
           style="fill:#6f6f6f;fill-opacity:1;stroke:none"
           d="m -212.28125,88 -48.5,84 63.40625,0 16.78125,-29 -12,-31 -19.6875,-24 z"
           transform="translate(0,-4)"
           id="path4098" />
        <path
           sodipodi:nodetypes="cccccc"
           style="fill:#cecece;fill-opacity:1;stroke:none"
           d="m -212.28838,84.000001 63.40718,0.07592 L -88.230669,189.12572 -120.5848,196 l -31.05304,-6.9502 z"
           id="path4076"
           inkscape:connector-curvature="0" />
        <path
           sodipodi:nodetypes="cccccc"
           style="fill:#7f7f7f;fill-opacity:1;stroke:none"
           d="M -241.30106,244 -232,208 -209.52412,189 -88.230669,189.12571 -120,244 Z"
           id="path4072"
           inkscape:connector-curvature="0" />
        <path
           sodipodi:nodetypes="cccc"
           style="opacity:0.1;fill:#000000;fill-opacity:1;stroke:none"
           d="m -241.30106,244 31.77694,-55 28.87359,0.12571 z"
           id="path4078"
           inkscape:connector-curvature="0" />
        <path
           inkscape:connector-curvature="0"
           id="path4080"
           d="m -88.230669,189.12572 -63.407171,-0.0759 -14.4406,-25.01185 z"
           style="opacity:0.1;fill:#000000;fill-opacity:1;stroke:none" />
        <path
           sodipodi:nodetypes="cccc"
           style="opacity:0.1;fill:#000000;fill-opacity:1;stroke:none"
           d="M -212.28838,84.000015 -180.58479,139 l -14.50634,24.96205 z"
           id="path4082"
           inkscape:connector-curvature="0" />
        <path
           style="fill:#6f6f6f;fill-opacity:1;stroke:none"
           d="M -260.78125,172 -272.9375,193.0625 -241.3125,248 -197.375,172 -224,156 Z"
           transform="translate(0,-4)"
           id="path4074"
           inkscape:connector-curvature="0"
           sodipodi:nodetypes="cccccc" />
      </g>
      <g
         style="display:inline;enable-background:new"
         id="g4175"
         transform="matrix(0.2375,0,0,0.2375,210.88872,221.05)">
        <path
           id="path4177"
           transform="translate(0,-4)"
           d="m -212.28125,88 -48.5,84 63.40625,0 16.78125,-29 -12,-31 -19.6875,-24 z"
           style="fill:#6f6f6f;fill-opacity:1;stroke:none"
           inkscape:connector-curvature="0" />
        <path
           inkscape:connector-curvature="0"
           id="path4179"
           d="m -212.28838,84.000001 63.40718,0.07592 L -88.230669,189.12572 -120.5848,196 l -31.05304,-6.9502 z"
           style="fill:#cecece;fill-opacity:1;stroke:none"
           sodipodi:nodetypes="cccccc" />
        <path
           inkscape:connector-curvature="0"
           id="path4181"
           d="M -241.30106,244 -232,208 -209.52412,189 -88.230669,189.12571 -120,244 Z"
           style="fill:#7f7f7f;fill-opacity:1;stroke:none"
           sodipodi:nodetypes="cccccc" />
        <path
           inkscape:connector-curvature="0"
           id="path4183"
           d="m -241.30106,244 31.77694,-55 28.87359,0.12571 z"
           style="opacity:0.1;fill:#000000;fill-opacity:1;stroke:none"
           sodipodi:nodetypes="cccc" />
        <path
           style="opacity:0.1;fill:#000000;fill-opacity:1;stroke:none"
           d="m -88.230669,189.12572 -63.407171,-0.0759 -14.4406,-25.01185 z"
           id="path4185"
           inkscape:connector-curvature="0" />
        <path
           inkscape:connector-curvature="0"
           id="path4187"
           d="M -212.28838,84.000015 -180.58479,139 l -14.50634,24.96205 z"
           style="opacity:0.1;fill:#000000;fill-opacity:1;stroke:none"
           sodipodi:nodetypes="cccc" />
        <path
           sodipodi:nodetypes="cccccc"
           inkscape:connector-curvature="0"
           id="path4189"
           transform="translate(0,-4)"
           d="M -260.78125,172 -272.9375,193.0625 -241.3125,248 -197.375,172 -224,156 Z"
           style="fill:#6f6f6f;fill-opacity:1;stroke:none" />
      </g>
      <g
         style="display:inline;enable-background:new"
         id="g4191"
         transform="matrix(2.4,0,0,2.4,897.4018,-365.6)">
        <path
           id="path4193"
           transform="translate(0,-4)"
           d="m -212.28125,88 -48.5,84 63.40625,0 16.78125,-29 -12,-31 -19.6875,-24 z"
           style="fill:#6f6f6f;fill-opacity:1;stroke:none"
           inkscape:connector-curvature="0" />
        <path
           inkscape:connector-curvature="0"
           id="path4195"
           d="m -212.28838,84.000001 63.40718,0.07592 L -88.230669,189.12572 -120.5848,196 l -31.05304,-6.9502 z"
           style="fill:#cecece;fill-opacity:1;stroke:none"
           sodipodi:nodetypes="cccccc" />
        <path
           inkscape:connector-curvature="0"
           id="path4197"
           d="M -241.30106,244 -232,208 -209.52412,189 -88.230669,189.12571 -120,244 Z"
           style="fill:#7f7f7f;fill-opacity:1;stroke:none"
           sodipodi:nodetypes="cccccc" />
        <path
           inkscape:connector-curvature="0"
           id="path4199"
           d="m -241.30106,244 31.77694,-55 28.87359,0.12571 z"
           style="opacity:0.1;fill:#000000;fill-opacity:1;stroke:none"
           sodipodi:nodetypes="cccc" />
        <path
           style="opacity:0.1;fill:#000000;fill-opacity:1;stroke:none"
           d="m -88.230669,189.12572 -63.407171,-0.0759 -14.4406,-25.01185 z"
           id="path4201"
           inkscape:connector-curvature="0" />
        <path
           inkscape:connector-curvature="0"
           id="path4203"
           d="M -212.28838,84.000015 -180.58479,139 l -14.50634,24.96205 z"
           style="opacity:0.1;fill:#000000;fill-opacity:1;stroke:none"
           sodipodi:nodetypes="cccc" />
        <path
           sodipodi:nodetypes="cccccc"
           inkscape:connector-curvature="0"
           id="path4205"
           transform="translate(0,-4)"
           d="M -260.78125,172 -272.9375,193.0625 -241.3125,248 -197.375,172 -224,156 Z"
           style="fill:#6f6f6f;fill-opacity:1;stroke:none" />
      </g>
      <g
         style="display:inline;enable-background:new"
         id="g4207"
         transform="matrix(0.1125,0,0,0.1125,84.31571,253.55)">
        <path
           id="path4209"
           transform="translate(0,-4)"
           d="m -212.28125,88 -48.5,84 63.40625,0 16.78125,-29 -12,-31 -19.6875,-24 z"
           style="fill:#6f6f6f;fill-opacity:1;stroke:none"
           inkscape:connector-curvature="0" />
        <path
           inkscape:connector-curvature="0"
           id="path4211"
           d="m -212.28838,84.000001 63.40718,0.07592 L -88.230669,189.12572 -120.5848,196 l -31.05304,-6.9502 z"
           style="fill:#cecece;fill-opacity:1;stroke:none"
           sodipodi:nodetypes="cccccc" />
        <path
           inkscape:connector-curvature="0"
           id="path4213"
           d="M -241.30106,244 -232,208 -209.52412,189 -88.230669,189.12571 -120,244 Z"
           style="fill:#7f7f7f;fill-opacity:1;stroke:none"
           sodipodi:nodetypes="cccccc" />
        <path
           inkscape:connector-curvature="0"
           id="path4215"
           d="m -241.30106,244 31.77694,-55 28.87359,0.12571 z"
           style="opacity:0.1;fill:#000000;fill-opacity:1;stroke:none"
           sodipodi:nodetypes="cccc" />
        <path
           style="opacity:0.1;fill:#000000;fill-opacity:1;stroke:none"
           d="m -88.230669,189.12572 -63.407171,-0.0759 -14.4406,-25.01185 z"
           id="path4217"
           inkscape:connector-curvature="0" />
        <path
           inkscape:connector-curvature="0"
           id="path4219"
           d="M -212.28838,84.000015 -180.58479,139 l -14.50634,24.96205 z"
           style="opacity:0.1;fill:#000000;fill-opacity:1;stroke:none"
           sodipodi:nodetypes="cccc" />
        <path
           sodipodi:nodetypes="cccccc"
           inkscape:connector-curvature="0"
           id="path4221"
           transform="translate(0,-4)"
           d="M -260.78125,172 -272.9375,193.0625 -241.3125,248 -197.375,172 -224,156 Z"
           style="fill:#6f6f6f;fill-opacity:1;stroke:none" />
      </g>
      <g
         transform="matrix(0.075,0,0,0.075,37.543806,263.7)"
         id="g4223"
         style="display:inline;enable-background:new">
        <path
           inkscape:connector-curvature="0"
           style="fill:#6f6f6f;fill-opacity:1;stroke:none"
           d="m -212.28125,88 -48.5,84 63.40625,0 16.78125,-29 -12,-31 -19.6875,-24 z"
           transform="translate(0,-4)"
           id="path4225" />
        <path
           sodipodi:nodetypes="cccccc"
           style="fill:#cecece;fill-opacity:1;stroke:none"
           d="m -212.28838,84.000001 63.40718,0.07592 L -88.230669,189.12572 -120.5848,196 l -31.05304,-6.9502 z"
           id="path4227"
           inkscape:connector-curvature="0" />
        <path
           sodipodi:nodetypes="cccccc"
           style="fill:#7f7f7f;fill-opacity:1;stroke:none"
           d="M -241.30106,244 -232,208 -209.52412,189 -88.230669,189.12571 -120,244 Z"
           id="path4229"
           inkscape:connector-curvature="0" />
        <path
           sodipodi:nodetypes="cccc"
           style="opacity:0.1;fill:#000000;fill-opacity:1;stroke:none"
           d="m -241.30106,244 31.77694,-55 28.87359,0.12571 z"
           id="path4231"
           inkscape:connector-curvature="0" />
        <path
           inkscape:connector-curvature="0"
           id="path4233"
           d="m -88.230669,189.12572 -63.407171,-0.0759 -14.4406,-25.01185 z"
           style="opacity:0.1;fill:#000000;fill-opacity:1;stroke:none" />
        <path
           sodipodi:nodetypes="cccc"
           style="opacity:0.1;fill:#000000;fill-opacity:1;stroke:none"
           d="M -212.28838,84.000015 -180.58479,139 l -14.50634,24.96205 z"
           id="path4235"
           inkscape:connector-curvature="0" />
        <path
           style="fill:#6f6f6f;fill-opacity:1;stroke:none"
           d="M -260.78125,172 -272.9375,193.0625 -241.3125,248 -197.375,172 -224,156 Z"
           transform="translate(0,-4)"
           id="path4237"
           inkscape:connector-curvature="0"
           sodipodi:nodetypes="cccccc" />
      </g>
      <g
         transform="matrix(0.2375,0,0,0.2375,210.88872,221.05)"
         id="g4255"
         style="display:inline;enable-background:new">
        <path
           inkscape:connector-curvature="0"
           style="fill:#6f6f6f;fill-opacity:1;stroke:none"
           d="m -212.28125,88 -48.5,84 63.40625,0 16.78125,-29 -12,-31 -19.6875,-24 z"
           transform="translate(0,-4)"
           id="path4257" />
        <path
           sodipodi:nodetypes="cccccc"
           style="fill:#cecece;fill-opacity:1;stroke:none"
           d="m -212.28838,84.000001 63.40718,0.07592 L -88.230669,189.12572 -120.5848,196 l -31.05304,-6.9502 z"
           id="path4259"
           inkscape:connector-curvature="0" />
        <path
           sodipodi:nodetypes="cccccc"
           style="fill:#7f7f7f;fill-opacity:1;stroke:none"
           d="M -241.30106,244 -232,208 -209.52412,189 -88.230669,189.12571 -120,244 Z"
           id="path4261"
           inkscape:connector-curvature="0" />
        <path
           sodipodi:nodetypes="cccc"
           style="opacity:0.1;fill:#000000;fill-opacity:1;stroke:none"
           d="m -241.30106,244 31.77694,-55 28.87359,0.12571 z"
           id="path4263"
           inkscape:connector-curvature="0" />
        <path
           inkscape:connector-curvature="0"
           id="path4265"
           d="m -88.230669,189.12572 -63.407171,-0.0759 -14.4406,-25.01185 z"
           style="opacity:0.1;fill:#000000;fill-opacity:1;stroke:none" />
        <path
           sodipodi:nodetypes="cccc"
           style="opacity:0.1;fill:#000000;fill-opacity:1;stroke:none"
           d="M -212.28838,84.000015 -180.58479,139 l -14.50634,24.96205 z"
           id="path4267"
           inkscape:connector-curvature="0" />
        <path
           style="fill:#6f6f6f;fill-opacity:1;stroke:none"
           d="M -260.78125,172 -272.9375,193.0625 -241.3125,248 -197.375,172 -224,156 Z"
           transform="translate(0,-4)"
           id="path4269"
           inkscape:connector-curvature="0"
           sodipodi:nodetypes="cccccc" />
      </g>
      <g
         transform="matrix(0.1125,0,0,0.1125,84.31571,253.55)"
         id="g4271"
         style="display:inline;enable-background:new">
        <path
           inkscape:connector-curvature="0"
           style="fill:#6f6f6f;fill-opacity:1;stroke:none"
           d="m -212.28125,88 -48.5,84 63.40625,0 16.78125,-29 -12,-31 -19.6875,-24 z"
           transform="translate(0,-4)"
           id="path4273" />
        <path
           sodipodi:nodetypes="cccccc"
           style="fill:#cecece;fill-opacity:1;stroke:none"
           d="m -212.28838,84.000001 63.40718,0.07592 L -88.230669,189.12572 -120.5848,196 l -31.05304,-6.9502 z"
           id="path4275"
           inkscape:connector-curvature="0" />
        <path
           sodipodi:nodetypes="cccccc"
           style="fill:#7f7f7f;fill-opacity:1;stroke:none"
           d="M -241.30106,244 -232,208 -209.52412,189 -88.230669,189.12571 -120,244 Z"
           id="path4277"
           inkscape:connector-curvature="0" />
        <path
           sodipodi:nodetypes="cccc"
           style="opacity:0.1;fill:#000000;fill-opacity:1;stroke:none"
           d="m -241.30106,244 31.77694,-55 28.87359,0.12571 z"
           id="path4279"
           inkscape:connector-curvature="0" />
        <path
           inkscape:connector-curvature="0"
           id="path4281"
           d="m -88.230669,189.12572 -63.407171,-0.0759 -14.4406,-25.01185 z"
           style="opacity:0.1;fill:#000000;fill-opacity:1;stroke:none" />
        <path
           sodipodi:nodetypes="cccc"
           style="opacity:0.1;fill:#000000;fill-opacity:1;stroke:none"
           d="M -212.28838,84.000015 -180.58479,139 l -14.50634,24.96205 z"
           id="path4283"
           inkscape:connector-curvature="0" />
        <path
           style="fill:#6f6f6f;fill-opacity:1;stroke:none"
           d="M -260.78125,172 -272.9375,193.0625 -241.3125,248 -197.375,172 -224,156 Z"
           transform="translate(0,-4)"
           id="path4285"
           inkscape:connector-curvature="0"
           sodipodi:nodetypes="cccccc" />
      </g>
      <g
         style="display:inline;enable-background:new"
         id="g4287"
         transform="matrix(0.075,0,0,0.075,37.543806,263.7)">
        <path
           id="path4289"
           transform="translate(0,-4)"
           d="m -212.28125,88 -48.5,84 63.40625,0 16.78125,-29 -12,-31 -19.6875,-24 z"
           style="fill:#6f6f6f;fill-opacity:1;stroke:none"
           inkscape:connector-curvature="0" />
        <path
           inkscape:connector-curvature="0"
           id="path4291"
           d="m -212.28838,84.000001 63.40718,0.07592 L -88.230669,189.12572 -120.5848,196 l -31.05304,-6.9502 z"
           style="fill:#cecece;fill-opacity:1;stroke:none"
           sodipodi:nodetypes="cccccc" />
        <path
           inkscape:connector-curvature="0"
           id="path4293"
           d="M -241.30106,244 -232,208 -209.52412,189 -88.230669,189.12571 -120,244 Z"
           style="fill:#7f7f7f;fill-opacity:1;stroke:none"
           sodipodi:nodetypes="cccccc" />
        <path
           inkscape:connector-curvature="0"
           id="path4295"
           d="m -241.30106,244 31.77694,-55 28.87359,0.12571 z"
           style="opacity:0.1;fill:#000000;fill-opacity:1;stroke:none"
           sodipodi:nodetypes="cccc" />
        <path
           style="opacity:0.1;fill:#000000;fill-opacity:1;stroke:none"
           d="m -88.230669,189.12572 -63.407171,-0.0759 -14.4406,-25.01185 z"
           id="path4297"
           inkscape:connector-curvature="0" />
        <path
           inkscape:connector-curvature="0"
           id="path4299"
           d="M -212.28838,84.000015 -180.58479,139 l -14.50634,24.96205 z"
           style="opacity:0.1;fill:#000000;fill-opacity:1;stroke:none"
           sodipodi:nodetypes="cccc" />
        <path
           sodipodi:nodetypes="cccccc"
           inkscape:connector-curvature="0"
           id="path4301"
           transform="translate(0,-4)"
           d="M -260.78125,172 -272.9375,193.0625 -241.3125,248 -197.375,172 -224,156 Z"
           style="fill:#6f6f6f;fill-opacity:1;stroke:none" />
      </g>
      <path
         id="path4412"
         transform="translate(0,-244)"
         d="M 160.4707 485 L 160.4707 485.00195 L 148.95312 504.94922 L 146.06641 509.95312 L 146.35547 510.45312 L 148.95312 505.94922 L 160.4707 486.00195 L 160.4707 486 L 160.47266 486 L 175.5293 486.01758 L 189.64453 510.4668 L 189.93359 509.9668 L 175.5293 485.01758 L 160.47266 485 L 160.4707 485 z M 161.70508 509.9375 L 161.12695 510.9375 L 174.88477 510.95117 L 174.875 510.94922 L 174.29883 509.95117 L 161.70508 509.9375 z "
         style="opacity:0.2;fill:#ffffff;fill-opacity:1;stroke:none" />
      <path
         id="path4419"
         transform="translate(0,-244)"
         d="M 60.433594 507 L 54.978516 516.44922 L 53.609375 518.82031 L 53.898438 519.32031 L 54.978516 517.44922 L 60.433594 508 L 67.566406 508.00977 L 74.101562 519.32617 L 74.390625 518.82617 L 67.566406 507.00977 L 60.433594 507 z M 61.322266 518.8125 L 60.744141 519.8125 L 67.255859 519.81836 L 66.677734 518.81836 L 61.322266 518.8125 z "
         style="opacity:0.2;fill:#ffffff;fill-opacity:1;stroke:none" />
      <path
         id="path4421"
         transform="translate(0,-244)"
         d="M 107.24414 500 L 107.24414 500.00195 L 99.970703 512.59961 L 98.146484 515.75977 L 98.435547 516.25977 L 99.970703 513.59961 L 107.24414 501.00195 L 107.24414 501 L 107.24609 501 L 116.75586 501.01172 L 125.56445 516.26953 L 125.85352 515.76953 L 116.75586 500.01172 L 107.24609 500 L 107.24414 500 z M 108.23828 515.75 L 107.66016 516.75 L 116.34766 516.75977 L 116.3418 516.75781 L 115.76562 515.75977 L 108.23828 515.75 z "
         style="opacity:0.2;fill:#ffffff;fill-opacity:1;stroke:none" />
      <path
         id="path4467"
         transform="translate(0,-244)"
         d="M 387.91016 80 L 387.91406 80.021484 L 271.52734 281.59961 L 242.35156 332.15039 L 242.92773 333.15234 L 271.52734 283.59961 L 387.91406 82.021484 L 387.91016 82 L 387.92773 82 L 540.08789 82.181641 L 685.07031 333.29883 L 685.64844 332.30078 L 540.08789 80.181641 L 387.92773 80 L 387.91016 80 z M 395.7207 332.00195 L 394.56445 334 L 533.58008 334.14453 L 533.4707 334.11914 L 532.33008 332.14258 L 395.7207 332.00195 z "
         style="opacity:0.2;fill:#ffffff;fill-opacity:1;stroke:none" />
    </g>
  </g>
</svg>
