<?xml version="1.0" encoding="UTF-8" standalone="no"?>
<!-- Created with Inkscape (http://www.inkscape.org/) -->

<svg
   xmlns:dc="http://purl.org/dc/elements/1.1/"
   xmlns:cc="http://creativecommons.org/ns#"
   xmlns:rdf="http://www.w3.org/1999/02/22-rdf-syntax-ns#"
   xmlns:svg="http://www.w3.org/2000/svg"
   xmlns="http://www.w3.org/2000/svg"
   xmlns:sodipodi="http://sodipodi.sourceforge.net/DTD/sodipodi-0.dtd"
   xmlns:inkscape="http://www.inkscape.org/namespaces/inkscape"
   inkscape:export-ydpi="90.000000"
   inkscape:export-xdpi="90.000000"
   width="736"
   height="544"
   id="svg11300"
   sodipodi:version="0.32"
   inkscape:version="0.91 r13725"
   sodipodi:docname="preferences-desktop-background.svg"
   inkscape:output_extension="org.inkscape.output.svg.inkscape"
   version="1.0"
   style="display:inline;enable-background:new"
   inkscape:export-filename="/home/sam/paper-template.png">
  <sodipodi:namedview
     stroke="#646464"
     fill="#909090"
     id="base"
     pagecolor="#434343"
     bordercolor="#666666"
     borderopacity="0.25490196"
     inkscape:pageopacity="0"
     inkscape:pageshadow="2"
     inkscape:zoom="1"
     inkscape:cx="63.965552"
     inkscape:cy="29.4891"
     inkscape:current-layer="g4368"
     showgrid="false"
     inkscape:grid-bbox="true"
     inkscape:document-units="px"
     inkscape:showpageshadow="false"
     inkscape:window-width="1316"
     inkscape:window-height="698"
     inkscape:window-x="25"
     inkscape:window-y="45"
     width="400px"
     height="300px"
     inkscape:snap-nodes="true"
     inkscape:snap-bbox="true"
     gridtolerance="10000"
     inkscape:object-nodes="true"
     inkscape:snap-grids="true"
     showguides="true"
     inkscape:guide-bbox="true"
     inkscape:window-maximized="1"
     inkscape:bbox-nodes="true"
     inkscape:snap-bbox-edge-midpoints="true"
     inkscape:object-paths="true"
     inkscape:snap-intersection-paths="true"
     inkscape:snap-smooth-nodes="true"
     inkscape:snap-bbox-midpoints="true">
    <inkscape:grid
       snapvisiblegridlinesonly="true"
       empspacing="4"
       visible="true"
       enabled="true"
       type="xygrid"
       id="grid5883"
       spacingx="1px"
       spacingy="1px" />
    <inkscape:grid
       snapvisiblegridlinesonly="true"
       empopacity="0.25098039"
       empcolor="#ff0000"
       opacity="0.1254902"
       color="#ff0000"
       spacingy="0.5px"
       spacingx="0.5px"
       enabled="false"
       visible="true"
       empspacing="2"
       id="grid11592"
       type="xygrid" />
  </sodipodi:namedview>
  <title
     id="title3004">Paper Icon Theme</title>
  <defs
     id="defs3">
    <filter
       height="1.0545454"
       y="-0.027272684"
       width="1.0428572"
       x="-0.021428598"
       id="filter4235"
       style="color-interpolation-filters:sRGB"
       inkscape:collect="always">
      <feGaussianBlur
         id="feGaussianBlur4237"
         stdDeviation="3.9999896"
         inkscape:collect="always" />
    </filter>
    <clipPath
       id="clipPath4352"
       clipPathUnits="userSpaceOnUse">
      <path
         style="fill:#a6a6a6;fill-opacity:1;stroke:none"
         d="m 150,244 c 0,0 -2,0 -2,2 l 0,10 0,7 c 0,0.554 0.446,1 1,1 0.554,0 1,-0.446 1,-1 l 0,-4 c 0,-0.554 0.446,-1 1,-1 0.554,0 1,0.446 1,1 l 0,6 c 0,0.554 0.446,1 1,1 0.554,0 1,-0.446 1,-1 l 0,-8 c 0,-0.554 0.446,-1 1,-1 0.554,0 1,0.446 1,1 l 0,2 c 0,0.554 0.446,1 1,1 0.554,0 1,-0.446 1,-1 l 0,-4 c 0,-0.554 0.446,-1 1,-1 0.554,0 1,0.446 1,1 l 0,2 c 0,0.554 0.446,1 1,1 0.554,0 1,-0.446 1,-1 l 0,-3 0,-1 c 0,-1 1,-1 1,-1 0,0 1,0 1,1 l 0,2 c 0,0.554 0.446,1 1,1 0.554,0 1,-0.446 1,-1 l 0,-4 c 0,0 0,-1 1,-1 1,0 1,1 1,1 0,0.554 0.446,1 1,1 0.554,0 1,-0.446 1,-1 l 18,0 0,-5 c 0,-1.108 -0.892,-2 -2,-2 l -26,0 -4,0 z m 10.93359,16 C 160.41633,260 160,260.41633 160,260.93359 l 0,1.13282 c 0,0.51726 0.41633,0.93359 0.93359,0.93359 l 0.13282,0 C 161.58367,263 162,262.58367 162,262.06641 l 0,-1.13282 C 162,260.41633 161.58367,260 161.06641,260 Z m -4,2 C 156.41633,262 156,262.41633 156,262.93359 l 0,3.13282 c 0,0.51726 0.41633,0.93359 0.93359,0.93359 l 0.13282,0 C 157.58367,267 158,266.58367 158,266.06641 l 0,-3.13282 C 158,262.41633 157.58367,262 157.06641,262 Z M 149,266 c -0.554,0 -1,0.446 -1,1 l 0,1 c 0,0.554 0.446,1 1,1 0.554,0 1,-0.446 1,-1 l 0,-1 c 0,-0.554 -0.446,-1 -1,-1 z"
         id="path4354"
         inkscape:connector-curvature="0"
         sodipodi:nodetypes="cscssssssssssssssssssssscscsssscscsccsscccsssssssssssssssssssssssss" />
    </clipPath>
  </defs>
  <metadata
     id="metadata4">
    <rdf:RDF>
      <cc:Work
         rdf:about="">
        <dc:format>image/svg+xml</dc:format>
        <dc:type
           rdf:resource="http://purl.org/dc/dcmitype/StillImage" />
        <dc:creator>
          <cc:Agent>
            <dc:title>Sam Hewitt</dc:title>
          </cc:Agent>
        </dc:creator>
        <dc:source />
        <cc:license
           rdf:resource="http://creativecommons.org/licenses/by-sa/3.0/" />
        <dc:title>Paper Icon Theme</dc:title>
        <dc:subject>
          <rdf:Bag />
        </dc:subject>
        <dc:date />
        <dc:rights>
          <cc:Agent>
            <dc:title />
          </cc:Agent>
        </dc:rights>
        <dc:publisher>
          <cc:Agent>
            <dc:title />
          </cc:Agent>
        </dc:publisher>
        <dc:identifier />
        <dc:relation />
        <dc:language />
        <dc:coverage />
        <dc:description />
        <dc:contributor>
          <cc:Agent>
            <dc:title />
          </cc:Agent>
        </dc:contributor>
      </cc:Work>
      <cc:Work
         rdf:about="">
        <dc:format>image/svg+xml</dc:format>
        <dc:type
           rdf:resource="http://purl.org/dc/dcmitype/StillImage" />
      </cc:Work>
      <cc:License
         rdf:about="http://creativecommons.org/licenses/by-sa/3.0/">
        <cc:permits
           rdf:resource="http://creativecommons.org/ns#Reproduction" />
        <cc:permits
           rdf:resource="http://creativecommons.org/ns#Distribution" />
        <cc:requires
           rdf:resource="http://creativecommons.org/ns#Notice" />
        <cc:requires
           rdf:resource="http://creativecommons.org/ns#Attribution" />
        <cc:permits
           rdf:resource="http://creativecommons.org/ns#DerivativeWorks" />
        <cc:requires
           rdf:resource="http://creativecommons.org/ns#ShareAlike" />
      </cc:License>
    </rdf:RDF>
  </metadata>
  <g
     transform="translate(0,244)"
     id="g4344"
     inkscape:label="Icon"
     inkscape:groupmode="layer"
     style="display:inline">
    <g
       inkscape:groupmode="layer"
       id="g4346"
       inkscape:label="Baseplate"
       style="display:none">
      <text
         id="text4348"
         inkscape:label="context"
         style="font-style:normal;font-variant:normal;font-weight:normal;font-stretch:normal;font-size:18px;font-family:'DejaVu Sans';-inkscape-font-specification:'DejaVu Sans';display:inline;fill:#000000;fill-opacity:1;stroke:none;enable-background:new"
         x="15.006836"
         xml:space="preserve"
         y="332.76678"><tspan
           id="tspan4350"
           sodipodi:role="line"
           x="15.006836"
           y="332.76678"
           style="font-style:normal;font-variant:normal;font-weight:normal;font-stretch:normal;font-family:'DejaVu Sans';-inkscape-font-specification:'DejaVu Sans'">cate</tspan></text>
      <text
         id="text4352"
         inkscape:label="icon-name"
         sodipodi:linespacing="125%"
         style="font-style:normal;font-variant:normal;font-weight:bold;font-stretch:normal;font-size:18px;line-height:125%;font-family:'DejaVu Sans';-inkscape-font-specification:'DejaVu Sans Bold';text-align:start;writing-mode:lr-tb;text-anchor:start;display:inline;fill:#000000;fill-opacity:1;stroke:none;enable-background:new"
         x="142.48828"
         xml:space="preserve"
         y="332.76678"><tspan
           sodipodi:role="line"
           x="142.48828"
           y="332.76678"
           style="font-style:normal;font-variant:normal;font-weight:bold;font-stretch:normal;font-size:18px;font-family:'DejaVu Sans';-inkscape-font-specification:'DejaVu Sans Bold'"
           id="tspan4356">preferences-desktop-wallpaper</tspan></text>
      <rect
         transform="scale(-1,1)"
         inkscape:label="16x16"
         y="268"
         x="-32"
         height="16"
         width="16"
         id="rect4358"
         style="display:inline;overflow:visible;visibility:visible;fill:#e9e9e9;fill-opacity:1;fill-rule:nonzero;stroke:none;stroke-width:2;marker:none;enable-background:accumulate" />
      <rect
         transform="scale(-1,1)"
         inkscape:label="24x24"
         y="260"
         x="-76"
         height="24"
         width="24"
         id="rect4360"
         style="display:inline;overflow:visible;visibility:visible;fill:#e9e9e9;fill-opacity:1;fill-rule:nonzero;stroke:none;stroke-width:2;marker:none;enable-background:accumulate" />
      <rect
         transform="scale(-1,1)"
         inkscape:label="32x32"
         y="252"
         x="-128"
         height="32"
         width="32"
         id="rect4362"
         style="display:inline;overflow:visible;visibility:visible;fill:#e9e9e9;fill-opacity:1;fill-rule:nonzero;stroke:none;stroke-width:2;marker:none;enable-background:accumulate" />
      <rect
         transform="scale(-1,1)"
         style="display:inline;overflow:visible;visibility:visible;fill:#e9e9e9;fill-opacity:1;fill-rule:nonzero;stroke:none;stroke-width:2;marker:none;enable-background:accumulate"
         id="rect4364"
         width="48"
         height="48"
         x="-192"
         y="236"
         inkscape:label="48x48" />
      <rect
         transform="scale(-1,1)"
         inkscape:label="48x48"
         y="-228"
         x="-720"
         height="512"
         width="512"
         id="rect4366"
         style="display:inline;overflow:visible;visibility:visible;fill:#e9e9e9;fill-opacity:1;fill-rule:nonzero;stroke:none;stroke-width:2;marker:none;enable-background:accumulate" />
    </g>
    <g
       style="display:inline"
       inkscape:label="Symbols"
       id="g4368"
       inkscape:groupmode="layer">
      <path
         inkscape:connector-curvature="0"
         id="path4576"
         d="m 99.50195,280 c -0.831,0 -1.5,-0.669 -1.5,-1.5 l 0,-1 c 0,0.831 0.669,1.5 1.5,1.5 l 25,0 c 0.831,0 1.5,-0.669 1.5,-1.5 l 0,1 c 0,0.831 -0.669,1.5 -1.5,1.5 l -25,0 z"
         style="opacity:0.2;fill:#000000;fill-opacity:1;stroke:none" />
      <path
         sodipodi:nodetypes="sscsscsss"
         inkscape:connector-curvature="0"
         id="path4578"
         d="m 55.501958,281 c -0.831,0 -1.5,-0.669 -1.5,-1.5 l 0,-1 c 0,0.831 0.669,1.5 1.5,1.5 l 15.999021,0 c 0.831,0 1.5,-0.669 1.5,-1.5 l 0,1 c 0,0.831 -0.669,1.5 -1.5,1.5 z"
         style="opacity:0.2;fill:#000000;fill-opacity:1;stroke:none" />
      <path
         inkscape:connector-curvature="0"
         id="path4580"
         d="m 150.00195,277 c -1.108,0 -2,-0.892 -2,-2 l 0,-1 c 0,1.108 0.892,2 2,2 l 36,0 c 1.108,0 2,-0.892 2,-2 l 0,1 c 0,1.108 -0.892,2 -2,2 l -36,0 z"
         style="opacity:0.2;fill:#000000;fill-opacity:1;stroke:none" />
      <rect
         ry="24"
         rx="24"
         y="-688"
         x="-208"
         height="447.99829"
         width="351.99963"
         id="rect4582"
         style="opacity:0.2;fill:#000000;fill-opacity:1;stroke:none;filter:url(#filter4235)"
         transform="matrix(0,-1,-1,0,0.00195,0)" />
      <rect
         transform="matrix(0,-1,-1,0,0.00195,0)"
         style="opacity:0.1;fill:#000000;fill-opacity:1;stroke:#000000;stroke-width:8;stroke-miterlimit:4;stroke-dasharray:none;stroke-opacity:1;filter:url(#filter4235)"
         id="rect4584"
         width="351.99963"
         height="447.99829"
         x="-208"
         y="-688"
         rx="24"
         ry="24" />
      <path
         sodipodi:nodetypes="sssssssss"
         inkscape:connector-curvature="0"
         id="rect4586"
         d="m -278.5,-73.000974 13,0 c 0.831,0 1.5,0.669 1.5,1.5 l 0,15.999006 c 0,0.831 -0.669,1.5 -1.5,1.5 l -13,0 c -0.831,0 -1.5,-0.669 -1.5,-1.5 l 0,-15.999006 c 0,-0.831 0.669,-1.5 1.5,-1.5 z"
         style="fill:#636363;fill-opacity:1;stroke:none"
         transform="matrix(0,-1,-1,0,0,0)" />
      <path
         sodipodi:nodetypes="sssssssss"
         inkscape:connector-curvature="0"
         id="rect4588"
         d="m -281,-30.001974 10,0 c 0.554,0 1,0.446 1,1 l 0,11.000025 c 0,0.554 -0.446,1 -1,1 l -10,0 c -0.554,0 -1,-0.446 -1,-1 l 0,-11.000025 c 0,-0.554 0.446,-1 1,-1 z"
         style="display:inline;fill:#636363;fill-opacity:1;stroke:none;enable-background:new"
         transform="matrix(0,-1,-1,0,0,0)" />
      <path
         inkscape:connector-curvature="0"
         id="path4590"
         d="m 150.00195,244 c 0,0 -2,0 -2,2 l 0,14 0,14 c 0,1.108 0.892,2 2,2 l 36,0 c 1.108,0 2,-0.892 2,-2 l 0,-28 c 0,-1.108 -0.892,-2 -2,-2 l -18,0 -18,0 z"
         style="fill:#636363;fill-opacity:1;stroke:none" />
      <path
         inkscape:connector-curvature="0"
         id="path4594"
         d="m 264.0039,-148 c -13.296,0 -24,10.704 -24,24 l 0,24 0,280 c 0,13.296 10.704,24 24,24 l 399.99805,0 c 13.296,0 24,-10.704 24,-24 l 0,-280 0,-24 c 0,-13.296 -10.704,-24 -24,-24 l -399.99805,0 z"
         style="fill:#636363;fill-opacity:1;stroke:none" />
      <path
         id="path4596"
         d="m 264.00195,-148 c -13.296,0 -24,10.704 -24,24 l 0,2 c 0,-13.296 10.704,-24 24,-24 l 400,0 c 13.296,0 24,10.704 24,24 l 0,-2 c 0,-13.296 -10.704,-24 -24,-24 l -400,0 z"
         style="opacity:0.2;fill:#ffffff;fill-opacity:1;stroke:none"
         inkscape:connector-curvature="0" />
      <rect
         ry="1.5"
         rx="1.5"
         y="-126.00195"
         x="-279"
         height="27.999924"
         width="21.999969"
         id="rect4598"
         style="fill:#636363;fill-opacity:1;stroke:none"
         transform="matrix(0,-1,-1,0,0,0)" />
      <path
         inkscape:connector-curvature="0"
         id="path4600"
         d="m 99.50195,257 c -0.831,0 -1.5,0.669 -1.5,1.5 l 0,1 c 0,-0.831 0.669,-1.5 1.5,-1.5 l 25,0 c 0.831,0 1.5,0.669 1.5,1.5 l 0,-1 c 0,-0.831 -0.669,-1.5 -1.5,-1.5 l -25,0 z"
         style="opacity:0.2;fill:#ffffff;fill-opacity:1;stroke:none" />
      <path
         sodipodi:nodetypes="ccssssssssssssssssssssscscsssscscssscsccssscccssssssssssssssscccccssssssssssssssssssssssssssssssssss"
         inkscape:connector-curvature="0"
         id="path4391"
         d="m 54.001968,265.5 0,4.5 0,3.5 c 0,0.277 0.223,0.5 0.5,0.5 0.277,0 0.5,-0.223 0.5,-0.5 l 0,-2 c 0,-0.277 0.223,-0.5 0.5,-0.5 0.277,0 0.5,0.223 0.5,0.5 l 0,4 c 0,0.277 0.223,0.5 0.5,0.5 0.277,0 0.5,-0.223 0.5,-0.5 l 0,-4 c 0,-0.277 0.223,-0.5 0.5,-0.5 0.277,0 0.5,0.5 0.5,0.5 l 0,1 c 0,0 0.223,0.5 0.5,0.5 0.277,0 0.5,-0.5 0.5,-0.5 l 0,-2 c 0,0 0.223,-0.5 0.5,-0.5 0.277,0 0.5,0.5 0.5,0.5 l 0,1 c 0,0 0.223,0.5 0.5,0.5 0.277,0 0.5,-0.223 0.5,-0.5 l 0,-1.5 0,-0.5 c 0,-0.5 0.5,-0.5 0.5,-0.5 0.498032,0 0.5,0.5 0.5,0.5 l 0,1 c 0,0 0.223,0.5 0.5,0.5 0.277,0 0.5,-0.5 0.5,-0.5 l 0,-2 c 0,0 0,-0.5 0.5,-0.5 0.5,0 0.5,0.5 0.5,0.5 l 0,2 c 0,0 0.223,0.5 0.5,0.5 0.277,0 0.5,-0.223 0.5,-0.5 l 0,-1 c 0,0 0,-0.5 0.5,-0.5 0.5,0 0.5,0.5 0.5,0.5 l 0,1 c 0,0 0.223,0.5 0.5,0.5 0.277,0 0.5,-0.223 0.5,-0.5 l 0,-0.5 c 0,-0.5 0.5,-0.5 0.5,-0.5 0.5,0 0.5,0.5 0.5,0.5 l 0,1 0,0.5 c 0,0.277 0.223,0.5 0.5,0.5 0.277,0 0.5,-0.223 0.5,-0.5 l 0,-2 c 0,-0.277 0.223,-0.5 0.5,-0.5 0.277,0 0.5,0.223 0.5,0.5 l 0,3 c 0,0.277 0.223,0.5 0.5,0.5 0.277,0 0.5,-0.223 0.5,-0.5 l 0,-2 c 0,-0.277 0.223,-0.5 0.5,-0.5 0.277,0 0.5,0.223 0.5,0.5 l 0,3 c 0,0.277 0.223,0.5 0.5,0.5 0.277,0 0.5,-0.5 0.5,-0.5 l 0,-1 0,-7 c 0,0 -0.002,-1.5 -1.501968,-1.5 l -16,0 c 0,0 -1.5,0 -1.498032,1.5 z m 6.466797,7.5 c -0.25863,0 -0.466797,0.20817 -0.466797,0.4668 l 0,0.5664 c 0,0.25863 0.208167,0.4668 0.466797,0.4668 l 0.06641,0 c 0.258626,0 0.466797,-0.20817 0.466797,-0.4668 l 0,-0.5664 c 0,-0.25864 -0.208167,-0.4668 -0.466797,-0.4668 z m 8,0 c -0.25863,0 -0.466797,0.20817 -0.466797,0.4668 l 0,0.5664 c 0,0.25863 0.208167,0.4668 0.466797,0.4668 l 0.06641,0 c 0.258626,0 0.466797,-0.20817 0.466797,-0.4668 l 0,-0.5664 c 0,-0.25864 -0.208167,-0.4668 -0.466797,-0.4668 z m -10,1 c -0.25863,0 -0.466797,0.20817 -0.466797,0.4668 l 0,1.5664 c 0,0.25863 0.208167,0.4668 0.466797,0.4668 l 0.06641,0 c 0.258626,0 0.466797,-0.20817 0.466797,-0.4668 l 0,-1.5664 c 0,-0.25864 -0.208167,-0.4668 -0.466797,-0.4668 z m -3.966797,1 c -0.277,0 -0.5,0.223 -0.5,0.5 l 0,0.5 c 0,0.277 0.223,0.5 0.5,0.5 0.277,0 0.5,-0.223 0.5,-0.5 l 0,-0.5 c 0,-0.277 -0.223,-0.5 -0.5,-0.5 z"
         style="fill:#a6a6a6;fill-opacity:1;stroke:none" />
      <path
         sodipodi:nodetypes="sscsscsss"
         inkscape:connector-curvature="0"
         id="path4602"
         d="m 55.50195,264 c -0.831,0 -1.5,0.669 -1.5,1.5 l 0,1 c 0,-0.831 0.669,-1.5 1.5,-1.5 l 15.999021,0 c 0.831,0 1.5,0.669 1.5,1.5 l 0,-1 c 0,-0.831 -0.669,-1.5 -1.5,-1.5 z"
         style="opacity:0.2;fill:#ffffff;fill-opacity:1;stroke:none" />
      <path
         sodipodi:nodetypes="sscsscsss"
         style="display:inline;opacity:0.1;fill:#000000;fill-opacity:1;stroke:none;enable-background:new"
         d="m 18.00195,283 c -0.554,0 -1,-0.446 -1,-1 l 0,-1 c 0,0.554 0.446,1 1,1 l 11.000025,0 c 0.554,0 1,-0.446 1,-1 l 0,1 c 0,0.554 -0.446,1 -1,1 z"
         id="path4604"
         inkscape:connector-curvature="0" />
      <path
         inkscape:connector-curvature="0"
         style="opacity:0.1;fill:#000000;fill-opacity:1;stroke:none"
         d="m 264.00195,204 c -13.296,0 -24,-10.704 -24,-24 l 0,-2 c 0,13.296 10.704,24 24,24 l 400,0 c 13.296,0 24,-10.704 24,-24 l 0,2 c 0,13.296 -10.704,24 -24,24 l -400,0 z"
         id="path4606" />
      <path
         transform="translate(0,-244)"
         sodipodi:nodetypes="cscssssssssssssssssssssscscsssscscssscscsssscscssssssssssssssssscccsscccssssssssssssssssssssssssssssssssss"
         inkscape:connector-curvature="0"
         id="path4258"
         d="m 150,488 c 0,0 -2,0 -2,2 l 0,10 0,7 c 0,0.554 0.446,1 1,1 0.554,0 1,-0.446 1,-1 l 0,-4 c 0,-0.554 0.446,-1 1,-1 0.554,0 1,0.446 1,1 l 0,6 c 0,0.554 0.446,1 1,1 0.554,0 1,-0.446 1,-1 l 0,-8 c 0,-0.554 0.446,-1 1,-1 0.554,0 1,0.446 1,1 l 0,2 c 0,0.554 0.446,1 1,1 0.554,0 1,-0.446 1,-1 l 0,-4 c 0,-0.554 0.446,-1 1,-1 0.554,0 1,0.446 1,1 l 0,2 c 0,0.554 0.446,1 1,1 0.554,0 1,-0.446 1,-1 l 0,-3 0,-1 c 0,-1 1,-1 1,-1 0,0 1,0 1,1 l 0,2 c 0,0.554 0.446,1 1,1 0.554,0 1,-0.446 1,-1 l 0,-4 c 0,0 0,-1 1,-1 1,0 1,1 1,1 l 0,4 c 0,0.554 0.446,1 1,1 0.554,0 1,-0.446 1,-1 l 0,-2 c 0,0 0,-1 1,-1 1,0 1,1 1,1 l 0,2 c 0,0 0.446,1 1,1 0.554,0 1,-0.446 1,-1 l 0,-1 c 0,-1 1,-1 1,-1 1,0 1,1 1,1 l 0,2 0,1 c 0,0.554 0.446,1 1,1 0.554,0 1,-0.446 1,-1 l 0,-4 c 0,-0.554 0.446,-1 1,-1 0.554,0 1,0.446 1,1 l 0,6 c 0,0.554 0.446,1 1,1 0.554,0 1,-0.446 1,-1 l 0,-4 c 0,-0.554 0.446,-1 1,-1 0.554,0 1,0.446 1,1 l 0,6 c 0,0.554 0.446,1 1,1 0.554,0 1,-0.446 1,-1 l 0,-2 c 0,-0.554 0.446,-1 1,-1 0.554,0 1,0.446 1,1 l 0,-8 0,-3 0,-2 c 0,-1.108 -0.892,-2 -2,-2 l -26,0 -4,0 z m 10.93359,16 C 160.41633,504 160,504.41633 160,504.93359 l 0,1.13282 c 0,0.51726 0.41633,0.93359 0.93359,0.93359 l 0.13282,0 C 161.58367,507 162,506.58367 162,506.06641 l 0,-1.13282 C 162,504.41633 161.58367,504 161.06641,504 Z m 16,0 C 176.41633,504 176,504.41633 176,504.93359 l 0,1.13282 c 0,0.51726 0.41633,0.93359 0.93359,0.93359 l 0.13282,0 C 177.58367,507 178,506.58367 178,506.06641 l 0,-1.13282 C 178,504.41633 177.58367,504 177.06641,504 Z m -20,2 C 156.41633,506 156,506.41633 156,506.93359 l 0,3.13282 c 0,0.51726 0.41633,0.93359 0.93359,0.93359 l 0.13282,0 C 157.58367,511 158,510.58367 158,510.06641 l 0,-3.13282 C 158,506.41633 157.58367,506 157.06641,506 Z M 149,510 c -0.554,0 -1,0.446 -1,1 l 0,1 c 0,0.554 0.446,1 1,1 0.554,0 1,-0.446 1,-1 l 0,-1 c 0,-0.554 -0.446,-1 -1,-1 z"
         style="fill:#a6a6a6;fill-opacity:1;stroke:none" />
      <path
         inkscape:connector-curvature="0"
         id="path4592"
         d="m 150.00195,244 c -1.108,0 -2,0.892 -2,2 l 0,1 c 0,-1.108 0.892,-2 2,-2 l 36,0 c 1.108,0 2,0.892 2,2 l 0,-1 c 0,-1.108 -0.892,-2 -2,-2 l -36,0 z"
         style="opacity:0.2;fill:#ffffff;fill-opacity:1;stroke:none" />
      <path
         id="rect4348"
         d="m 151,252 c 0.554,0 1,0.446 1,1 l 0,7 c 0,0.554 -0.446,1 -1,1 -0.554,0 -1,-0.446 -1,-1 l 0,-7 c 0,-0.554 0.446,-1 1,-1 z"
         clip-path="url(#clipPath4352)"
         style="opacity:0.1;fill:#000000;fill-opacity:1;stroke:none;stroke-width:2;stroke-miterlimit:4;stroke-dasharray:none;stroke-opacity:1" />
      <path
         sodipodi:nodetypes="sssssss"
         inkscape:connector-curvature="0"
         id="rect4356"
         d="m 151,250 c 0.554,0 1,0.446 1,1 l 0,9 c 0,0.554 -0.446,1 -1,1 -0.554,0 -1,-0.446 -1,-1 l 0,-9 c 0,-0.554 0.446,-1 1,-1 z"
         clip-path="url(#clipPath4352)"
         style="opacity:0.1;fill:#000000;fill-opacity:1;stroke:none;stroke-width:2;stroke-miterlimit:4;stroke-dasharray:none;stroke-opacity:1"
         transform="translate(4,-2)" />
      <path
         sodipodi:nodetypes="sssssss"
         inkscape:connector-curvature="0"
         transform="translate(8,-4)"
         style="opacity:0.1;fill:#000000;fill-opacity:1;stroke:none;stroke-width:2;stroke-miterlimit:4;stroke-dasharray:none;stroke-opacity:1"
         clip-path="url(#clipPath4352)"
         d="m 151,254 c 0.554,0 1,0.446 1,1 l 0,5 c 0,0.554 -0.446,1 -1,1 -0.554,0 -1,-0.446 -1,-1 l 0,-5 c 0,-0.554 0.446,-1 1,-1 z"
         id="path4360" />
      <path
         sodipodi:nodetypes="sssssss"
         id="path4362"
         d="m 151,256 c 0.554,0 1,0.446 1,1 l 0,3 c 0,0.554 -0.446,1 -1,1 -0.554,0 -1,-0.446 -1,-1 l 0,-3 c 0,-0.554 0.446,-1 1,-1 z"
         clip-path="url(#clipPath4352)"
         style="opacity:0.1;fill:#000000;fill-opacity:1;stroke:none;stroke-width:2;stroke-miterlimit:4;stroke-dasharray:none;stroke-opacity:1"
         transform="translate(12,-6)"
         inkscape:connector-curvature="0" />
      <path
         sodipodi:nodetypes="sssssss"
         inkscape:connector-curvature="0"
         transform="translate(16,-8)"
         style="opacity:0.1;fill:#000000;fill-opacity:1;stroke:none;stroke-width:2;stroke-miterlimit:4;stroke-dasharray:none;stroke-opacity:1"
         clip-path="url(#clipPath4352)"
         d="m 151,256 c 0.554,0 1,0.446 1,1 l 0,3 c 0,0.554 -0.446,1 -1,1 -0.554,0 -1,-0.446 -1,-1 l 0,-3 c 0,-0.554 0.446,-1 1,-1 z"
         id="path4364" />
      <path
         id="path4366"
         d="m 151,256 c 0.554,0 1,0.446 1,1 l 0,3 c 0,0.554 -0.446,1 -1,1 -0.554,0 -1,-0.446 -1,-1 l 0,-3 c 0,-0.554 0.446,-1 1,-1 z"
         clip-path="url(#clipPath4352)"
         style="opacity:0.1;fill:#000000;fill-opacity:1;stroke:none;stroke-width:2;stroke-miterlimit:4;stroke-dasharray:none;stroke-opacity:1"
         transform="translate(20,-6)"
         inkscape:connector-curvature="0"
         sodipodi:nodetypes="sssssss" />
      <path
         id="path4377"
         d="m 151,254 c 0.554,0 1,0.446 1,1 l 0,5 c 0,0.554 -0.446,1 -1,1 -0.554,0 -1,-0.446 -1,-1 l 0,-5 c 0,-0.554 0.446,-1 1,-1 z"
         clip-path="url(#clipPath4352)"
         style="opacity:0.1;fill:#000000;fill-opacity:1;stroke:none;stroke-width:2;stroke-miterlimit:4;stroke-dasharray:none;stroke-opacity:1"
         transform="matrix(-1,0,0,1,334,-4)"
         inkscape:connector-curvature="0"
         sodipodi:nodetypes="sssssss" />
      <path
         inkscape:connector-curvature="0"
         transform="matrix(-1,0,0,1,330,-6)"
         style="opacity:0.1;fill:#000000;fill-opacity:1;stroke:none;stroke-width:2;stroke-miterlimit:4;stroke-dasharray:none;stroke-opacity:1"
         clip-path="url(#clipPath4352)"
         d="m 151,256 c 0.554,0 1,0.446 1,1 l 0,3 c 0,0.554 -0.446,1 -1,1 -0.554,0 -1,-0.446 -1,-1 l 0,-3 c 0,-0.554 0.446,-1 1,-1 z"
         id="path4379"
         sodipodi:nodetypes="sssssss" />
      <path
         sodipodi:nodetypes="sssssss"
         id="path4381"
         d="m 151,252 c 0.554,0 1,0.446 1,1 l 0,7 c 0,0.554 -0.446,1 -1,1 -0.554,0 -1,-0.446 -1,-1 l 0,-7 c 0,-0.554 0.446,-1 1,-1 z"
         clip-path="url(#clipPath4352)"
         style="opacity:0.1;fill:#000000;fill-opacity:1;stroke:none;stroke-width:2;stroke-miterlimit:4;stroke-dasharray:none;stroke-opacity:1"
         transform="matrix(-1,0,0,1,326,-5)"
         inkscape:connector-curvature="0" />
      <path
         sodipodi:nodetypes="sssssss"
         inkscape:connector-curvature="0"
         transform="matrix(-1,0,0,1,338,0)"
         style="opacity:0.1;fill:#000000;fill-opacity:1;stroke:none;stroke-width:2;stroke-miterlimit:4;stroke-dasharray:none;stroke-opacity:1"
         clip-path="url(#clipPath4352)"
         d="m 151,254 c 0.554,0 1,0.446 1,1 l 0,5 c 0,0.554 -0.446,1 -1,1 -0.554,0 -1,-0.446 -1,-1 l 0,-5 c 0,-0.554 0.446,-1 1,-1 z"
         id="path4383" />
    </g>
  </g>
</svg>
