<?xml version="1.0" encoding="UTF-8" standalone="no"?>
<!-- Created with Inkscape (http://www.inkscape.org/) -->

<svg
   xmlns:dc="http://purl.org/dc/elements/1.1/"
   xmlns:cc="http://creativecommons.org/ns#"
   xmlns:rdf="http://www.w3.org/1999/02/22-rdf-syntax-ns#"
   xmlns:svg="http://www.w3.org/2000/svg"
   xmlns="http://www.w3.org/2000/svg"
   xmlns:sodipodi="http://sodipodi.sourceforge.net/DTD/sodipodi-0.dtd"
   xmlns:inkscape="http://www.inkscape.org/namespaces/inkscape"
   inkscape:export-ydpi="90.000000"
   inkscape:export-xdpi="90.000000"
   width="736"
   height="544"
   id="svg11300"
   sodipodi:version="0.32"
   inkscape:version="0.91 r13725"
   sodipodi:docname="changes.svg"
   inkscape:output_extension="org.inkscape.output.svg.inkscape"
   version="1.0"
   style="display:inline;enable-background:new"
   inkscape:export-filename="/home/sam/paper-template.png">
  <sodipodi:namedview
     stroke="#646464"
     fill="#909090"
     id="base"
     pagecolor="#ffffff"
     bordercolor="#666666"
     borderopacity="0.25490196"
     inkscape:pageopacity="0"
     inkscape:pageshadow="2"
     inkscape:zoom="1"
     inkscape:cx="98.39513"
     inkscape:cy="151.63969"
     inkscape:current-layer="layer7"
     showgrid="false"
     inkscape:grid-bbox="true"
     inkscape:document-units="px"
     inkscape:showpageshadow="false"
     inkscape:window-width="1316"
     inkscape:window-height="698"
     inkscape:window-x="25"
     inkscape:window-y="45"
     width="400px"
     height="300px"
     inkscape:snap-nodes="true"
     inkscape:snap-bbox="true"
     gridtolerance="10000"
     inkscape:object-nodes="true"
     inkscape:snap-grids="true"
     showguides="true"
     inkscape:guide-bbox="true"
     inkscape:window-maximized="1"
     inkscape:bbox-nodes="true"
     inkscape:snap-bbox-edge-midpoints="true">
    <inkscape:grid
       snapvisiblegridlinesonly="true"
       empspacing="4"
       visible="true"
       enabled="true"
       type="xygrid"
       id="grid5883"
       spacingx="1px"
       spacingy="1px" />
    <inkscape:grid
       snapvisiblegridlinesonly="true"
       empopacity="0.25098039"
       empcolor="#ff0000"
       opacity="0.1254902"
       color="#ff0000"
       spacingy="0.5px"
       spacingx="0.5px"
       enabled="false"
       visible="true"
       empspacing="2"
       id="grid11592"
       type="xygrid" />
  </sodipodi:namedview>
  <title
     id="title3004">Paper Icon Theme</title>
  <defs
     id="defs3">
    <filter
       height="1.0428571"
       y="-0.02142857"
       width="1.0545455"
       x="-0.027272727"
       id="filter4241"
       style="color-interpolation-filters:sRGB"
       inkscape:collect="always">
      <feGaussianBlur
         id="feGaussianBlur4243"
         stdDeviation="4"
         inkscape:collect="always" />
    </filter>
    <filter
       height="1.0416"
       y="-0.0208"
       width="1.0567273"
       x="-0.028363636"
       id="filter4336"
       style="color-interpolation-filters:sRGB"
       inkscape:collect="always">
      <feGaussianBlur
         id="feGaussianBlur4338"
         stdDeviation="4.16"
         inkscape:collect="always" />
    </filter>
  </defs>
  <metadata
     id="metadata4">
    <rdf:RDF>
      <cc:Work
         rdf:about="">
        <dc:format>image/svg+xml</dc:format>
        <dc:type
           rdf:resource="http://purl.org/dc/dcmitype/StillImage" />
        <dc:creator>
          <cc:Agent>
            <dc:title>Sam Hewitt</dc:title>
          </cc:Agent>
        </dc:creator>
        <dc:source />
        <cc:license
           rdf:resource="http://creativecommons.org/licenses/by-sa/3.0/" />
        <dc:title>Paper Icon Theme</dc:title>
        <dc:subject>
          <rdf:Bag />
        </dc:subject>
        <dc:date />
        <dc:rights>
          <cc:Agent>
            <dc:title />
          </cc:Agent>
        </dc:rights>
        <dc:publisher>
          <cc:Agent>
            <dc:title />
          </cc:Agent>
        </dc:publisher>
        <dc:identifier />
        <dc:relation />
        <dc:language />
        <dc:coverage />
        <dc:description />
        <dc:contributor>
          <cc:Agent>
            <dc:title />
          </cc:Agent>
        </dc:contributor>
      </cc:Work>
      <cc:Work
         rdf:about="">
        <dc:format>image/svg+xml</dc:format>
        <dc:type
           rdf:resource="http://purl.org/dc/dcmitype/StillImage" />
      </cc:Work>
      <cc:License
         rdf:about="http://creativecommons.org/licenses/by-sa/3.0/">
        <cc:permits
           rdf:resource="http://creativecommons.org/ns#Reproduction" />
        <cc:permits
           rdf:resource="http://creativecommons.org/ns#Distribution" />
        <cc:requires
           rdf:resource="http://creativecommons.org/ns#Notice" />
        <cc:requires
           rdf:resource="http://creativecommons.org/ns#Attribution" />
        <cc:permits
           rdf:resource="http://creativecommons.org/ns#DerivativeWorks" />
        <cc:requires
           rdf:resource="http://creativecommons.org/ns#ShareAlike" />
      </cc:License>
    </rdf:RDF>
  </metadata>
  <g
     transform="translate(0,244)"
     id="layer1"
     inkscape:label="changes-prevent"
     inkscape:groupmode="layer"
     style="display:inline">
    <g
       inkscape:groupmode="layer"
       id="layer7"
       inkscape:label="Baseplate"
       style="display:none">
      <text
         id="context"
         inkscape:label="context"
         style="font-style:normal;font-variant:normal;font-weight:normal;font-stretch:normal;font-size:18px;font-family:'DejaVu Sans';-inkscape-font-specification:'DejaVu Sans';display:inline;fill:#000000;fill-opacity:1;stroke:none;enable-background:new"
         x="15.006836"
         xml:space="preserve"
         y="332.48523"><tspan
           id="tspan3933"
           sodipodi:role="line"
           x="15.006836"
           y="332.48523"
           style="font-style:normal;font-variant:normal;font-weight:normal;font-stretch:normal;font-family:'DejaVu Sans';-inkscape-font-specification:'DejaVu Sans'">status</tspan></text>
      <text
         id="icon-name"
         inkscape:label="icon-name"
         sodipodi:linespacing="125%"
         style="font-style:normal;font-variant:normal;font-weight:bold;font-stretch:normal;font-size:18px;line-height:125%;font-family:'DejaVu Sans';-inkscape-font-specification:'DejaVu Sans Bold';text-align:start;writing-mode:lr-tb;text-anchor:start;display:inline;fill:#000000;fill-opacity:1;stroke:none;enable-background:new"
         x="142.48828"
         xml:space="preserve"
         y="332.48523"><tspan
           id="tspan3937"
           sodipodi:role="line"
           x="142.48828"
           y="332.48523"
           style="font-style:normal;font-variant:normal;font-weight:bold;font-stretch:normal;font-size:18px;font-family:'DejaVu Sans';-inkscape-font-specification:'DejaVu Sans Bold'">changes-prevent</tspan></text>
      <rect
         transform="scale(-1,1)"
         inkscape:label="16x16"
         y="268"
         x="-32"
         height="16"
         width="16"
         id="rect16x16"
         style="display:inline;overflow:visible;visibility:visible;fill:#e9e9e9;fill-opacity:1;fill-rule:nonzero;stroke:none;stroke-width:2;marker:none;enable-background:accumulate" />
      <rect
         transform="scale(-1,1)"
         inkscape:label="24x24"
         y="260"
         x="-76"
         height="24"
         width="24"
         id="rect24x24"
         style="display:inline;overflow:visible;visibility:visible;fill:#e9e9e9;fill-opacity:1;fill-rule:nonzero;stroke:none;stroke-width:2;marker:none;enable-background:accumulate" />
      <rect
         transform="scale(-1,1)"
         inkscape:label="32x32"
         y="252"
         x="-128"
         height="32"
         width="32"
         id="rect32x32"
         style="display:inline;overflow:visible;visibility:visible;fill:#e9e9e9;fill-opacity:1;fill-rule:nonzero;stroke:none;stroke-width:2;marker:none;enable-background:accumulate" />
      <rect
         transform="scale(-1,1)"
         style="display:inline;overflow:visible;visibility:visible;fill:#e9e9e9;fill-opacity:1;fill-rule:nonzero;stroke:none;stroke-width:2;marker:none;enable-background:accumulate"
         id="rect48x48"
         width="48"
         height="48"
         x="-192"
         y="236"
         inkscape:label="48x48" />
      <rect
         transform="scale(-1,1)"
         inkscape:label="48x48"
         y="-228"
         x="-720"
         height="512"
         width="512"
         id="rect3951"
         style="display:inline;overflow:visible;visibility:visible;fill:#e9e9e9;fill-opacity:1;fill-rule:nonzero;stroke:none;stroke-width:2;marker:none;enable-background:accumulate" />
    </g>
    <g
       style="display:inline"
       inkscape:label="Symbols"
       id="layer6"
       inkscape:groupmode="layer">
      <path
         id="rect4235"
         transform="translate(0,-244)"
         d="M 24 513 C 21.784 513 20 514.784 20 517 L 20 519 L 22 519 L 22 517 C 22 515.892 22.892 515 24 515 C 25.108 515 26 515.892 26 517 L 26 519 L 28 519 L 28 517 C 28 514.784 26.216 513 24 513 z "
         style="opacity:1;fill:#666666;fill-opacity:1;stroke:none;stroke-width:16;stroke-linecap:round;stroke-linejoin:miter;stroke-miterlimit:4;stroke-dasharray:none;stroke-opacity:1" />
      <path
         style="opacity:0.1;fill:#000000;fill-opacity:1;stroke:none;stroke-width:8;stroke-linecap:round;stroke-linejoin:round;stroke-miterlimit:4;stroke-dasharray:none;stroke-opacity:1;filter:url(#filter4241)"
         d="m 464,-192 c -70.912,0 -128,57.088 -128,128 l 0,48 -25.59376,0 C 297.99664,-16 288,-6.00336 288,6.40624 l 0,227.18752 C 288,246.00336 297.99664,256 310.40624,256 l 307.18752,0 C 630.00336,256 640,246.00336 640,233.59376 L 640,6.40624 C 640,-6.00336 630.00336,-16 617.59376,-16 L 592,-16 l 0,-48 c 0,-70.912 -57.088,-128 -128,-128 z m 0,48 c 44.32,0 80,35.68 80,80 l 0,48 -160,0 0,-48 c 0,-44.32 35.68,-80 80,-80 z"
         id="path4245"
         inkscape:connector-curvature="0" />
      <path
         inkscape:connector-curvature="0"
         id="path4355"
         d="m 464,-194 c -70.912,0 -128,57.088 -128,128 l 0,48 -25.59376,0 C 297.99664,-18 288,-8.00336 288,4.40624 l 0,227.18752 C 288,244.00336 297.99664,254 310.40624,254 l 307.18752,0 C 630.00336,254 640,244.00336 640,231.59376 L 640,4.40624 C 640,-8.00336 630.00336,-18 617.59376,-18 L 592,-18 l 0,-48 c 0,-70.912 -57.088,-128 -128,-128 z m 0,48 c 44.32,0 80,35.68 80,80 l 0,48 -160,0 0,-48 c 0,-44.32 35.68,-80 80,-80 z"
         style="opacity:0.2;fill:#000000;fill-opacity:1;stroke:none;stroke-width:8;stroke-linecap:round;stroke-linejoin:round;stroke-miterlimit:4;stroke-dasharray:none;stroke-opacity:1" />
      <path
         inkscape:connector-curvature="0"
         id="path4373"
         d="m 112,255 c -4.432,0 -8,3.568 -8,8 l 0,3 -1.59961,0 C 101.62479,266 101,266.62479 101,267.40039 l 0,14.19922 c 0,0.7756 0.62479,1.40039 1.40039,1.40039 l 19.19922,0 C 122.37521,283 123,282.37521 123,281.59961 l 0,-14.19922 C 123,266.62479 122.37521,266 121.59961,266 L 120,266 l 0,-3 c 0,-4.432 -3.568,-8 -8,-8 z m 0,3 c 2.77,0 5,2.23 5,5 l 0,3 -10,0 0,-3 c 0,-2.77 2.23,-5 5,-5 z"
         style="opacity:0.2;fill:#000000;fill-opacity:1;stroke:none;stroke-width:2;stroke-linecap:round;stroke-linejoin:round;stroke-miterlimit:4;stroke-dasharray:none;stroke-opacity:1" />
      <path
         inkscape:connector-curvature="0"
         id="path4311"
         d="m 64,263 c -3.324,0 -6,2.67597 -6,6 l 0,2 -1,0 c -0.554,0 -1,0.446 -1,1 l 0,10 c 0,0.554 0.446,1 1,1 l 14,0 c 0.554,0 1,-0.446 1,-1 l 0,-10 c 0,-0.554 -0.446,-1 -1,-1 l -1,0 0,-2 c 0,-3.32403 -2.676,-6 -6,-6 z m 0,2 c 2.216,0 4,1.78399 4,4 l 0,2 -8,0 0,-2 c 0,-2.21601 1.784,-4 4,-4 z"
         style="opacity:0.2;fill:#000000;fill-opacity:1;stroke:none" />
      <path
         inkscape:connector-curvature="0"
         id="path4204"
         d="m 168,241 c -6.648,0 -12,5.35195 -12,12 l 0,4 -2,0 c -1.108,0 -2,0.892 -2,2 l 0,20 c 0,1.108 0.892,2 2,2 l 28,0 c 1.108,0 2,-0.892 2,-2 l 0,-20 c 0,-1.108 -0.892,-2 -2,-2 l -2,0 0,-4 c 0,-6.64805 -5.352,-12 -12,-12 z m 0,4 c 4.432,0 8,3.56798 8,8 l 0,4 -16,0 0,-4 c 0,-4.43202 3.568,-8 8,-8 z"
         style="opacity:0.2;fill:#000000;fill-opacity:1;stroke:none" />
      <path
         inkscape:connector-curvature="0"
         id="rect4185"
         d="m 168,240 c -6.648,0 -12,5.35195 -12,12 l 0,4 4,0 0,-3 0,-1 c 0,-4.43202 3.568,-8 8,-8 4.432,0 8,3.56798 8,8 l 0,1 0,3 4,0 0,-4 c 0,-6.64805 -5.352,-12 -12,-12 z"
         style="fill:#666666;fill-opacity:1;stroke:none" />
      <rect
         ry="2"
         rx="2"
         y="-184"
         x="-280"
         height="32"
         width="24.000046"
         id="rect4203"
         style="fill:#c7c7c7;fill-opacity:1;stroke:none"
         transform="matrix(0,-1,-1,0,0,0)" />
      <rect
         ry="1"
         rx="1"
         y="-30"
         x="-284"
         height="12"
         width="9"
         id="rect4265"
         style="display:inline;fill:#c7c7c7;fill-opacity:1;stroke:none;enable-background:new"
         transform="matrix(0,-1,-1,0,0,0)" />
      <path
         style="fill:#666666;fill-opacity:1;stroke:none"
         d="m 64,262 c -3.324,0 -6,2.67597 -6,6 l 0,2 2,0 0,-2 c 0,-2.21601 1.784,-4 4,-4 2.216,0 4,1.78399 4,4 l 0,2 2,0 0,-2 c 0,-3.32403 -2.676,-6 -6,-6 z"
         id="path4295"
         inkscape:connector-curvature="0" />
      <rect
         transform="matrix(0,-1,-1,0,0,0)"
         style="fill:#c7c7c7;fill-opacity:1;stroke:none"
         id="rect4297"
         width="12.000023"
         height="16"
         x="-282"
         y="-72"
         rx="1"
         ry="1" />
      <path
         inkscape:connector-curvature="0"
         id="path4367"
         d="m 112,254 c -4.432,0 -8,3.568 -8,8 l 0,3 3,0 0,-3 c 0,-2.77 2.23,-5 5,-5 2.77,0 5,2.23 5,5 l 0,3 3,0 0,-3 c 0,-4.432 -3.568,-8 -8,-8 z"
         style="opacity:1;fill:#666666;fill-opacity:1;stroke:none;stroke-width:2;stroke-linecap:round;stroke-linejoin:round;stroke-miterlimit:4;stroke-dasharray:none;stroke-opacity:1" />
      <rect
         transform="matrix(0,-1,-1,0,0,0)"
         style="fill:#c7c7c7;fill-opacity:1;stroke:none"
         id="rect4369"
         width="17"
         height="22"
         x="-282"
         y="-123"
         rx="1.4"
         ry="1.4" />
      <rect
         ry="0"
         rx="0"
         y="260"
         x="152"
         height="16"
         width="32"
         id="rect4544"
         style="opacity:1;fill:#d7d7d7;fill-opacity:1;stroke:none;stroke-width:2;stroke-linecap:round;stroke-linejoin:round;stroke-miterlimit:4;stroke-dasharray:none;stroke-opacity:1" />
      <path
         inkscape:connector-curvature="0"
         id="path4352"
         d="m 464,-192 c -70.912,0 -128,57.088 -128,128 l 0,48 -25.59376,0 C 297.99664,-16 288,-6.00336 288,6.40624 l 0,227.18752 C 288,246.00336 297.99664,256 310.40624,256 l 307.18752,0 C 630.00336,256 640,246.00336 640,233.59376 L 640,6.40624 C 640,-6.00336 630.00336,-16 617.59376,-16 L 592,-16 l 0,-48 c 0,-70.912 -57.088,-128 -128,-128 z m 0,48 c 44.32,0 80,35.68 80,80 l 0,48 -160,0 0,-48 c 0,-44.32 35.68,-80 80,-80 z"
         style="opacity:0.2;fill:#000000;fill-opacity:1;stroke:none;stroke-width:2;stroke-linecap:round;stroke-linejoin:round;stroke-miterlimit:4;stroke-dasharray:none;stroke-opacity:1;filter:url(#filter4241)" />
      <path
         inkscape:connector-curvature="0"
         id="rect4324"
         d="m 464,-196 c -70.912,0 -128,57.088 -128,128 l 0,48 48,0 0,-32 0,-8 0,-8 c 0,-44.32 35.68,-80 80,-80 44.32,0 80,35.68 80,80 l 0,8 0,8 0,32 48,0 0,-48 c 0,-70.912 -57.088,-128 -128,-128 z"
         style="opacity:1;fill:#666666;fill-opacity:1;stroke:none;stroke-width:2;stroke-linecap:round;stroke-linejoin:round;stroke-miterlimit:4;stroke-dasharray:none;stroke-opacity:1" />
      <rect
         ry="22.4"
         rx="22.4"
         y="-640"
         x="-252"
         height="352"
         width="272"
         id="rect4322"
         style="fill:#c7c7c7;fill-opacity:1;stroke:none"
         transform="matrix(0,-1,-1,0,0,0)" />
      <rect
         style="opacity:1;fill:#d7d7d7;fill-opacity:1;stroke:none;stroke-width:2;stroke-linecap:round;stroke-linejoin:round;stroke-miterlimit:4;stroke-dasharray:none;stroke-opacity:1"
         id="rect4550"
         width="352"
         height="176"
         x="288"
         y="28"
         rx="0"
         ry="0" />
      <rect
         ry="0"
         rx="0"
         y="268"
         x="101"
         height="11"
         width="22"
         id="rect4552"
         style="opacity:1;fill:#d7d7d7;fill-opacity:1;stroke:none;stroke-width:2;stroke-linecap:round;stroke-linejoin:round;stroke-miterlimit:4;stroke-dasharray:none;stroke-opacity:1" />
      <rect
         style="opacity:1;fill:#d7d7d7;fill-opacity:1;stroke:none;stroke-width:2;stroke-linecap:round;stroke-linejoin:round;stroke-miterlimit:4;stroke-dasharray:none;stroke-opacity:1"
         id="rect4554"
         width="16"
         height="8"
         x="56"
         y="272"
         rx="0"
         ry="0" />
      <rect
         ry="0"
         rx="0"
         y="277"
         x="18"
         height="5"
         width="12"
         id="rect4556"
         style="opacity:1;fill:#d7d7d7;fill-opacity:1;stroke:none;stroke-width:2;stroke-linecap:round;stroke-linejoin:round;stroke-miterlimit:4;stroke-dasharray:none;stroke-opacity:1" />
    </g>
  </g>
  <g
     style="display:inline"
     inkscape:groupmode="layer"
     inkscape:label="changes-allow"
     id="g4220"
     transform="translate(0,244)">
    <g
       style="display:none"
       inkscape:label="Baseplate"
       id="g4222"
       inkscape:groupmode="layer">
      <text
         y="-307.51477"
         xml:space="preserve"
         x="15.006836"
         style="font-style:normal;font-variant:normal;font-weight:normal;font-stretch:normal;font-size:18px;font-family:'DejaVu Sans';-inkscape-font-specification:'DejaVu Sans';display:inline;fill:#000000;fill-opacity:1;stroke:none;enable-background:new"
         inkscape:label="context"
         id="text4224"><tspan
           style="font-style:normal;font-variant:normal;font-weight:normal;font-stretch:normal;font-family:'DejaVu Sans';-inkscape-font-specification:'DejaVu Sans'"
           y="-307.51477"
           x="15.006836"
           sodipodi:role="line"
           id="tspan4226">status</tspan></text>
      <text
         y="-307.51477"
         xml:space="preserve"
         x="142.48828"
         style="font-style:normal;font-variant:normal;font-weight:bold;font-stretch:normal;font-size:18px;line-height:125%;font-family:'DejaVu Sans';-inkscape-font-specification:'DejaVu Sans Bold';text-align:start;writing-mode:lr-tb;text-anchor:start;display:inline;fill:#000000;fill-opacity:1;stroke:none;enable-background:new"
         sodipodi:linespacing="125%"
         inkscape:label="icon-name"
         id="text4228"><tspan
           style="font-style:normal;font-variant:normal;font-weight:bold;font-stretch:normal;font-size:18px;font-family:'DejaVu Sans';-inkscape-font-specification:'DejaVu Sans Bold'"
           y="-307.51477"
           x="142.48828"
           sodipodi:role="line"
           id="tspan4230">changes-allow</tspan></text>
      <rect
         style="display:inline;overflow:visible;visibility:visible;fill:#e9e9e9;fill-opacity:1;fill-rule:nonzero;stroke:none;stroke-width:2;marker:none;enable-background:accumulate"
         id="rect4232"
         width="16"
         height="16"
         x="-32"
         y="-372"
         inkscape:label="16x16"
         transform="scale(-1,1)" />
      <rect
         style="display:inline;overflow:visible;visibility:visible;fill:#e9e9e9;fill-opacity:1;fill-rule:nonzero;stroke:none;stroke-width:2;marker:none;enable-background:accumulate"
         id="rect4234"
         width="24"
         height="24"
         x="-76"
         y="-380"
         inkscape:label="24x24"
         transform="scale(-1,1)" />
      <rect
         style="display:inline;overflow:visible;visibility:visible;fill:#e9e9e9;fill-opacity:1;fill-rule:nonzero;stroke:none;stroke-width:2;marker:none;enable-background:accumulate"
         id="rect4236"
         width="32"
         height="32"
         x="-128"
         y="-388"
         inkscape:label="32x32"
         transform="scale(-1,1)" />
      <rect
         inkscape:label="48x48"
         y="-404"
         x="-192"
         height="48"
         width="48"
         id="rect4238"
         style="display:inline;overflow:visible;visibility:visible;fill:#e9e9e9;fill-opacity:1;fill-rule:nonzero;stroke:none;stroke-width:2;marker:none;enable-background:accumulate"
         transform="scale(-1,1)" />
      <rect
         style="display:inline;overflow:visible;visibility:visible;fill:#e9e9e9;fill-opacity:1;fill-rule:nonzero;stroke:none;stroke-width:2;marker:none;enable-background:accumulate"
         id="rect4240"
         width="512"
         height="512"
         x="-720"
         y="-868"
         inkscape:label="48x48"
         transform="scale(-1,1)" />
    </g>
    <g
       inkscape:groupmode="layer"
       id="g4262"
       inkscape:label="Symbols"
       style="display:inline">
      <path
         inkscape:connector-curvature="0"
         id="path4289"
         d="m 180,-401 c 6.648,0 12,5.35195 12,12 l 0,2 -4,0 0,-1 0,-1 c 0,-4.43202 -3.568,-8 -8,-8 -4.432,0 -8,3.56798 -8,8 l 0,1 0,9 -4,0 0,-10 c 0,-6.64805 5.352,-12 12,-12 z"
         style="opacity:0.2;fill:#000000;fill-opacity:1;stroke:none"
         sodipodi:nodetypes="sscccssscccss" />
      <rect
         ry="2"
         rx="2"
         y="-176"
         x="357"
         height="32"
         width="24.000046"
         id="rect4291"
         style="opacity:0.2;fill:#000000;fill-opacity:1;stroke:none"
         transform="matrix(0,-1,-1,0,0,0)" />
      <path
         style="opacity:0.2;fill:#000000;fill-opacity:1;stroke:none"
         d="m 70,-378 c 3.324,0 6,2.67597 6,6 l 0,1 -2,0 0,-1 c 0,-2.21601 -1.784,-4 -4,-4 -2.216,0 -4,1.78399 -4,4 l 0,4 -2,0 0,-4 c 0,-3.32403 2.676,-6 6,-6 z"
         id="path4293"
         inkscape:connector-curvature="0"
         sodipodi:nodetypes="ssccsssccss" />
      <rect
         transform="matrix(0,-1,-1,0,0,0)"
         style="opacity:0.2;fill:#000000;fill-opacity:1;stroke:none"
         id="rect4295"
         width="12.000023"
         height="16"
         x="356"
         y="-68"
         rx="1"
         ry="1" />
      <path
         inkscape:connector-curvature="0"
         id="path4297"
         d="m 120,-386 c 4.432,0 8,3.568 8,8 l 0,1 -3,0 0,-1 c 0,-2.77 -2.23,-5 -5,-5 -2.77,0 -5,2.23 -5,5 l 0,7 -3,0 0,-7 c 0,-4.432 3.568,-8 8,-8 z"
         style="opacity:0.2;fill:#000000;fill-opacity:1;stroke:none;stroke-width:2;stroke-linecap:round;stroke-linejoin:round;stroke-miterlimit:4;stroke-dasharray:none;stroke-opacity:1"
         sodipodi:nodetypes="ssccsssccss" />
      <rect
         transform="matrix(0,-1,-1,0,0,0)"
         style="opacity:0.2;fill:#000000;fill-opacity:1;stroke:none"
         id="rect4299"
         width="17"
         height="22"
         x="356"
         y="-118"
         rx="1.4"
         ry="1.4" />
      <path
         sodipodi:nodetypes="ssccsssccss"
         style="display:inline;opacity:1;fill:#666666;fill-opacity:1;stroke:none;stroke-width:16;stroke-linecap:round;stroke-linejoin:miter;stroke-miterlimit:4;stroke-dasharray:none;stroke-opacity:1;enable-background:new"
         d="m 28,-372 c 2.216,0 4,1.784 4,4 l 0,1 -2,0 0,-1 c 0,-1.108 -0.892,-2 -2,-2 -1.108,0 -2,0.892 -2,2 l 0,6 -2,0 0,-6 c 0,-2.216 1.784,-4 4,-4 z"
         id="path4244"
         inkscape:connector-curvature="0" />
      <path
         inkscape:connector-curvature="0"
         id="path4340"
         d="m 464,-848 c -70.912,0 -128,57.088 -128,128 l 0,32 48,0 0,-16 0,-8 0,-8 c 0,-44.32 35.68,-80 80,-80 44.32,0 80,35.68 80,80 l 0,8 0,8 0,64 -233.59961,0 C 297.99079,-640 288,-630.00921 288,-617.59961 l 0,227.19922 c 0,12.4096 9.99079,22.40039 22.40039,22.40039 l 307.19922,0 C 630.00921,-368 640,-377.99079 640,-390.40039 l 0,-227.19922 C 640,-630.00921 630.00921,-640 617.59961,-640 L 592,-640 l 0,-80 c 0,-70.912 -57.088,-128 -128,-128 z"
         style="opacity:0.1;fill:#000000;fill-opacity:1;stroke:none;stroke-width:2;stroke-linecap:round;stroke-linejoin:round;stroke-miterlimit:4;stroke-dasharray:none;stroke-opacity:1;filter:url(#filter4336)" />
      <path
         style="opacity:0.2;fill:#000000;fill-opacity:1;stroke:none;stroke-width:2;stroke-linecap:round;stroke-linejoin:round;stroke-miterlimit:4;stroke-dasharray:none;stroke-opacity:1;filter:url(#filter4336)"
         d="m 464,-848 c -70.912,0 -128,57.088 -128,128 l 0,32 48,0 0,-16 0,-8 0,-8 c 0,-44.32 35.68,-80 80,-80 44.32,0 80,35.68 80,80 l 0,8 0,8 0,64 -233.59961,0 C 297.99079,-640 288,-630.00921 288,-617.59961 l 0,227.19922 c 0,12.4096 9.99079,22.40039 22.40039,22.40039 l 307.19922,0 C 630.00921,-368 640,-377.99079 640,-390.40039 l 0,-227.19922 C 640,-630.00921 630.00921,-640 617.59961,-640 L 592,-640 l 0,-80 c 0,-70.912 -57.088,-128 -128,-128 z"
         id="path4334"
         inkscape:connector-curvature="0" />
      <path
         inkscape:connector-curvature="0"
         id="path4329"
         d="m 464,-850 c -70.912,0 -128,57.088 -128,128 l 0,32 48,0 0,-16 0,-8 0,-8 c 0,-44.32 35.68,-80 80,-80 44.32,0 80,35.68 80,80 l 0,8 0,8 0,64 -233.59961,0 C 297.99079,-642 288,-632.00921 288,-619.59961 l 0,227.19922 c 0,12.4096 9.99079,22.40039 22.40039,22.40039 l 307.19922,0 C 630.00921,-370 640,-379.99079 640,-392.40039 l 0,-227.19922 C 640,-632.00921 630.00921,-642 617.59961,-642 L 592,-642 l 0,-80 c 0,-70.912 -57.088,-128 -128,-128 z"
         style="opacity:0.2;fill:#000000;fill-opacity:1;stroke:none;stroke-width:2;stroke-linecap:round;stroke-linejoin:round;stroke-miterlimit:4;stroke-dasharray:none;stroke-opacity:1" />
      <path
         sodipodi:nodetypes="sscccssscccss"
         style="fill:#666666;fill-opacity:1;stroke:none"
         d="m 180,-402 c 6.648,0 12,5.35195 12,12 l 0,2 -4,0 0,-1 0,-1 c 0,-4.43202 -3.568,-8 -8,-8 -4.432,0 -8,3.56798 -8,8 l 0,1 0,9 -4,0 0,-10 c 0,-6.64805 5.352,-12 12,-12 z"
         id="path4272"
         inkscape:connector-curvature="0" />
      <rect
         transform="matrix(0,-1,-1,0,0,0)"
         style="fill:#c7c7c7;fill-opacity:1;stroke:none"
         id="rect4274"
         width="24.000046"
         height="32"
         x="358"
         y="-176"
         rx="2"
         ry="2" />
      <rect
         transform="matrix(0,-1,-1,0,0,0)"
         style="display:inline;fill:#c7c7c7;fill-opacity:1;stroke:none;enable-background:new"
         id="rect4276"
         width="9"
         height="12"
         x="356"
         y="-28"
         rx="1"
         ry="1" />
      <path
         sodipodi:nodetypes="ssccsssccss"
         inkscape:connector-curvature="0"
         id="path4282"
         d="m 70,-379 c 3.324,0 6,2.67597 6,6 l 0,1 -2,0 0,-1 c 0,-2.21601 -1.784,-4 -4,-4 -2.216,0 -4,1.78399 -4,4 l 0,4 -2,0 0,-4 c 0,-3.32403 2.676,-6 6,-6 z"
         style="fill:#666666;fill-opacity:1;stroke:none" />
      <rect
         ry="1"
         rx="1"
         y="-68"
         x="357"
         height="16"
         width="12.000023"
         id="rect4284"
         style="fill:#c7c7c7;fill-opacity:1;stroke:none"
         transform="matrix(0,-1,-1,0,0,0)" />
      <path
         sodipodi:nodetypes="ssccsssccss"
         style="opacity:1;fill:#666666;fill-opacity:1;stroke:none;stroke-width:2;stroke-linecap:round;stroke-linejoin:round;stroke-miterlimit:4;stroke-dasharray:none;stroke-opacity:1"
         d="m 120,-387 c 4.432,0 8,3.568 8,8 l 0,1 -3,0 0,-1 c 0,-2.77 -2.23,-5 -5,-5 -2.77,0 -5,2.23 -5,5 l 0,7 -3,0 0,-7 c 0,-4.432 3.568,-8 8,-8 z"
         id="path4290"
         inkscape:connector-curvature="0" />
      <rect
         ry="1.4"
         rx="1.4"
         y="-118"
         x="357"
         height="22"
         width="17"
         id="rect4292"
         style="fill:#c7c7c7;fill-opacity:1;stroke:none"
         transform="matrix(0,-1,-1,0,0,0)" />
      <rect
         style="opacity:1;fill:#d7d7d7;fill-opacity:1;stroke:none;stroke-width:2;stroke-linecap:round;stroke-linejoin:round;stroke-miterlimit:4;stroke-dasharray:none;stroke-opacity:1"
         id="rect4304"
         width="32"
         height="16"
         x="144"
         y="-378"
         rx="0"
         ry="0" />
      <path
         sodipodi:nodetypes="ssccccsssccccss"
         style="opacity:1;fill:#666666;fill-opacity:1;stroke:none;stroke-width:2;stroke-linecap:round;stroke-linejoin:round;stroke-miterlimit:4;stroke-dasharray:none;stroke-opacity:1"
         d="m 464,-852 c -70.912,0 -128,57.088 -128,128 l 0,32 48,0 0,-16 0,-8 0,-8 c 0,-44.32 35.68,-80 80,-80 44.32,0 80,35.68 80,80 l 0,8 0,8 0,92 48,0 0,-108 c 0,-70.912 -57.088,-128 -128,-128 z"
         id="path4308"
         inkscape:connector-curvature="0" />
      <rect
         transform="matrix(0,-1,-1,0,0,0)"
         style="fill:#c7c7c7;fill-opacity:1;stroke:none"
         id="rect4310"
         width="272"
         height="352"
         x="372"
         y="-640"
         rx="22.4"
         ry="22.4" />
      <rect
         ry="0"
         rx="0"
         y="-596"
         x="288"
         height="176"
         width="352"
         id="rect4316"
         style="opacity:1;fill:#d7d7d7;fill-opacity:1;stroke:none;stroke-width:2;stroke-linecap:round;stroke-linejoin:round;stroke-miterlimit:4;stroke-dasharray:none;stroke-opacity:1" />
      <rect
         style="opacity:1;fill:#d7d7d7;fill-opacity:1;stroke:none;stroke-width:2;stroke-linecap:round;stroke-linejoin:round;stroke-miterlimit:4;stroke-dasharray:none;stroke-opacity:1"
         id="rect4318"
         width="22"
         height="11"
         x="96"
         y="-371"
         rx="0"
         ry="0" />
      <rect
         ry="0"
         rx="0"
         y="-367"
         x="52"
         height="8"
         width="16"
         id="rect4320"
         style="opacity:1;fill:#d7d7d7;fill-opacity:1;stroke:none;stroke-width:2;stroke-linecap:round;stroke-linejoin:round;stroke-miterlimit:4;stroke-dasharray:none;stroke-opacity:1" />
      <rect
         style="opacity:1;fill:#d7d7d7;fill-opacity:1;stroke:none;stroke-width:2;stroke-linecap:round;stroke-linejoin:round;stroke-miterlimit:4;stroke-dasharray:none;stroke-opacity:1"
         id="rect4323"
         width="12"
         height="5"
         x="16"
         y="-363"
         rx="0"
         ry="0" />
    </g>
  </g>
</svg>
