<?xml version="1.0" encoding="UTF-8" standalone="no"?>
<!-- Created with Inkscape (http://www.inkscape.org/) -->

<svg
   xmlns:osb="http://www.openswatchbook.org/uri/2009/osb"
   xmlns:dc="http://purl.org/dc/elements/1.1/"
   xmlns:cc="http://creativecommons.org/ns#"
   xmlns:rdf="http://www.w3.org/1999/02/22-rdf-syntax-ns#"
   xmlns:svg="http://www.w3.org/2000/svg"
   xmlns="http://www.w3.org/2000/svg"
   xmlns:sodipodi="http://sodipodi.sourceforge.net/DTD/sodipodi-0.dtd"
   xmlns:inkscape="http://www.inkscape.org/namespaces/inkscape"
   inkscape:export-ydpi="90.000000"
   inkscape:export-xdpi="90.000000"
   width="736"
   height="544"
   id="svg11300"
   sodipodi:version="0.32"
   inkscape:version="0.91 r13725"
   sodipodi:docname="folder-visiting.svg"
   inkscape:output_extension="org.inkscape.output.svg.inkscape"
   version="1.0"
   style="display:inline;enable-background:new"
   inkscape:export-filename="/home/sam/paper-template.png">
  <sodipodi:namedview
     stroke="#646464"
     fill="#909090"
     id="base"
     pagecolor="#ffffff"
     bordercolor="#666666"
     borderopacity="0.25490196"
     inkscape:pageopacity="0"
     inkscape:pageshadow="2"
     inkscape:zoom="1"
     inkscape:cx="320.99289"
     inkscape:cy="231.8389"
     inkscape:current-layer="g4527"
     showgrid="false"
     inkscape:grid-bbox="true"
     inkscape:document-units="px"
     inkscape:showpageshadow="false"
     inkscape:window-width="1316"
     inkscape:window-height="698"
     inkscape:window-x="25"
     inkscape:window-y="45"
     width="400px"
     height="300px"
     inkscape:snap-nodes="true"
     inkscape:snap-bbox="true"
     gridtolerance="10000"
     inkscape:object-nodes="true"
     inkscape:snap-grids="true"
     showguides="true"
     inkscape:guide-bbox="true"
     inkscape:window-maximized="1"
     inkscape:object-paths="false"
     inkscape:snap-intersection-paths="false"
     inkscape:snap-smooth-nodes="false"
     inkscape:snap-midpoints="true"
     inkscape:snap-global="true">
    <inkscape:grid
       snapvisiblegridlinesonly="true"
       empspacing="4"
       visible="true"
       enabled="true"
       type="xygrid"
       id="grid5883"
       spacingx="1px"
       spacingy="1px" />
    <inkscape:grid
       snapvisiblegridlinesonly="true"
       empopacity="0.25098039"
       empcolor="#ff0000"
       opacity="0.1254902"
       color="#ff0000"
       spacingy="0.5px"
       spacingx="0.5px"
       enabled="false"
       visible="true"
       empspacing="2"
       id="grid11592"
       type="xygrid" />
  </sodipodi:namedview>
  <title
     id="title3004">Paper Icon Theme</title>
  <defs
     id="defs3">
    <clipPath
       id="clipPath4718"
       clipPathUnits="userSpaceOnUse">
      <path
         sodipodi:nodetypes="sssccccssss"
         inkscape:connector-curvature="0"
         id="path4720"
         d="m 288,260 0,-56 c 0,-2.216 1.79756,-4.24472 4,-4 l 32,0 8,8 32.20504,0 c 0,0 3.79496,0 3.79496,4 l 0,48 c 0,2.21598 -1.784,4 -4,4 l -72,0 c -2.216,0 -4,-1.784 -4,-4 z"
         style="fill:#a3a3a3;fill-opacity:1;stroke:none" />
    </clipPath>
    <clipPath
       id="clipPath7328"
       clipPathUnits="userSpaceOnUse">
      <path
         sodipodi:nodetypes="scsccssssss"
         inkscape:connector-curvature="0"
         id="path7330"
         d="m 240,100 0,-256 c 0,-0.2208 0,-24 24,-24 l 176,0 48,48 176,0 c 13.296,0 24,10.704 24,24 l 0,208 c 0,13.296 -10.704,24 -24,24 l -400,0 c -13.296,0 -24,-10.704 -24,-24 z"
         style="fill:#a3a3a3;fill-opacity:1;stroke:none" />
    </clipPath>
    <filter
       height="1.05088"
       y="-0.02544"
       width="1.0454286"
       x="-0.022714286"
       id="filter4198"
       style="color-interpolation-filters:sRGB"
       inkscape:collect="always">
      <feGaussianBlur
         id="feGaussianBlur4200"
         stdDeviation="4.24"
         inkscape:collect="always" />
    </filter>
    <linearGradient
       id="linearGradient5606"
       osb:paint="solid">
      <stop
         id="stop5608"
         offset="0"
         style="stop-color:#000000;stop-opacity:1;" />
    </linearGradient>
    <linearGradient
       id="linearGradient6882"
       osb:paint="solid">
      <stop
         id="stop6884"
         offset="0"
         style="stop-color:#555555;stop-opacity:1;" />
    </linearGradient>
  </defs>
  <metadata
     id="metadata4">
    <rdf:RDF>
      <cc:Work
         rdf:about="">
        <dc:format>image/svg+xml</dc:format>
        <dc:type
           rdf:resource="http://purl.org/dc/dcmitype/StillImage" />
        <dc:creator>
          <cc:Agent>
            <dc:title>Sam Hewitt</dc:title>
          </cc:Agent>
        </dc:creator>
        <dc:source />
        <cc:license
           rdf:resource="http://creativecommons.org/licenses/by-sa/3.0/" />
        <dc:title>Paper Icon Theme</dc:title>
        <dc:subject>
          <rdf:Bag />
        </dc:subject>
        <dc:date />
        <dc:rights>
          <cc:Agent>
            <dc:title />
          </cc:Agent>
        </dc:rights>
        <dc:publisher>
          <cc:Agent>
            <dc:title />
          </cc:Agent>
        </dc:publisher>
        <dc:identifier />
        <dc:relation />
        <dc:language />
        <dc:coverage />
        <dc:description />
        <dc:contributor>
          <cc:Agent>
            <dc:title />
          </cc:Agent>
        </dc:contributor>
      </cc:Work>
      <cc:Work
         rdf:about="">
        <dc:format>image/svg+xml</dc:format>
        <dc:type
           rdf:resource="http://purl.org/dc/dcmitype/StillImage" />
      </cc:Work>
      <cc:License
         rdf:about="http://creativecommons.org/licenses/by-sa/3.0/">
        <cc:permits
           rdf:resource="http://creativecommons.org/ns#Reproduction" />
        <cc:permits
           rdf:resource="http://creativecommons.org/ns#Distribution" />
        <cc:requires
           rdf:resource="http://creativecommons.org/ns#Notice" />
        <cc:requires
           rdf:resource="http://creativecommons.org/ns#Attribution" />
        <cc:permits
           rdf:resource="http://creativecommons.org/ns#DerivativeWorks" />
        <cc:requires
           rdf:resource="http://creativecommons.org/ns#ShareAlike" />
      </cc:License>
    </rdf:RDF>
  </metadata>
  <g
     transform="translate(0,244)"
     id="g4505"
     inkscape:label="Icon"
     inkscape:groupmode="layer"
     style="display:inline">
    <g
       style="display:none"
       inkscape:label="Baseplate"
       id="g4507"
       inkscape:groupmode="layer">
      <text
         y="331.74512"
         xml:space="preserve"
         x="15.006836"
         style="font-style:normal;font-variant:normal;font-weight:normal;font-stretch:normal;font-size:18px;font-family:'DejaVu Sans';-inkscape-font-specification:'DejaVu Sans';display:inline;fill:#000000;fill-opacity:1;stroke:none;enable-background:new"
         inkscape:label="context"
         id="text4509"><tspan
           style="font-style:normal;font-variant:normal;font-weight:normal;font-stretch:normal;font-family:'DejaVu Sans';-inkscape-font-specification:'DejaVu Sans'"
           y="331.74512"
           x="15.006836"
           sodipodi:role="line"
           id="tspan4511">status</tspan></text>
      <text
         y="331.74512"
         xml:space="preserve"
         x="142.48828"
         style="font-style:normal;font-variant:normal;font-weight:bold;font-stretch:normal;font-size:18px;line-height:125%;font-family:'DejaVu Sans';-inkscape-font-specification:'DejaVu Sans Bold';text-align:start;writing-mode:lr-tb;text-anchor:start;display:inline;fill:#000000;fill-opacity:1;stroke:none;enable-background:new"
         sodipodi:linespacing="125%"
         inkscape:label="icon-name"
         id="text4513"><tspan
           id="tspan4567"
           style="font-style:normal;font-variant:normal;font-weight:bold;font-stretch:normal;font-size:18px;font-family:'DejaVu Sans';-inkscape-font-specification:'DejaVu Sans Bold'"
           y="331.74512"
           x="142.48828"
           sodipodi:role="line">folder-visiting</tspan></text>
      <rect
         style="display:inline;overflow:visible;visibility:visible;fill:#e9e9e9;fill-opacity:1;fill-rule:nonzero;stroke:none;stroke-width:2;marker:none;enable-background:accumulate"
         id="rect4517"
         width="16"
         height="16"
         x="-32"
         y="268"
         inkscape:label="16x16"
         transform="scale(-1,1)" />
      <rect
         style="display:inline;overflow:visible;visibility:visible;fill:#e9e9e9;fill-opacity:1;fill-rule:nonzero;stroke:none;stroke-width:2;marker:none;enable-background:accumulate"
         id="rect4519"
         width="24"
         height="24"
         x="-76"
         y="260"
         inkscape:label="24x24"
         transform="scale(-1,1)" />
      <rect
         style="display:inline;overflow:visible;visibility:visible;fill:#e9e9e9;fill-opacity:1;fill-rule:nonzero;stroke:none;stroke-width:2;marker:none;enable-background:accumulate"
         id="rect4521"
         width="32"
         height="32"
         x="-128"
         y="252"
         inkscape:label="32x32"
         transform="scale(-1,1)" />
      <rect
         inkscape:label="48x48"
         y="236"
         x="-192"
         height="48"
         width="48"
         id="rect4523"
         style="display:inline;overflow:visible;visibility:visible;fill:#e9e9e9;fill-opacity:1;fill-rule:nonzero;stroke:none;stroke-width:2;marker:none;enable-background:accumulate"
         transform="scale(-1,1)" />
      <rect
         style="display:inline;overflow:visible;visibility:visible;fill:#e9e9e9;fill-opacity:1;fill-rule:nonzero;stroke:none;stroke-width:2;marker:none;enable-background:accumulate"
         id="rect4525"
         width="512"
         height="512"
         x="-720"
         y="-228"
         inkscape:label="48x48"
         transform="scale(-1,1)" />
    </g>
    <g
       style="display:inline"
       inkscape:label="Symbols"
       id="g4527"
       inkscape:groupmode="layer">
      <path
         inkscape:connector-curvature="0"
         style="opacity:0.2;fill:#000000;fill-opacity:1;stroke:none"
         d="m 240,210 0,2 0,2 c 0,13.296 10.704,24 24,24 l 400,0 c 13.296,0 24,-10.704 24,-24 l 0,-2 0,-2 c 0,13.296 -10.704,24 -24,24 l -400,0 c -13.296,0 -24,-10.704 -24,-24 z"
         id="path3514" />
      <path
         style="opacity:0.2;fill:#000000;fill-opacity:1;stroke:#000000;stroke-width:0;stroke-miterlimit:4;stroke-dasharray:none;stroke-opacity:1;filter:url(#filter4198)"
         d="m 264,-160 c -24,0 -24,23.7792 -24,24 l 0,96 0,160 0,96 c 0,13.296 10.704,24 24,24 l 400,0 c 13.296,0 24,-10.704 24,-24 l 0,-96 0,-208 c 0,-3.40647 -0.70777,-6.64054 -1.97656,-9.57031 -2.46961,-6.44528 -8.04418,-13.84886 -20.58203,-14.38281 C 664.96415,-111.98116 664.48454,-112 664,-112 l -176,0 -48,-48 -176,0 z"
         id="path3500"
         inkscape:connector-curvature="0" />
      <path
         inkscape:connector-curvature="0"
         id="path3502"
         d="m 264,-160 c -24,0 -24,23.7792 -24,24 l 0,96 0,160 0,96 c 0,13.296 10.704,24 24,24 l 400,0 c 13.296,0 24,-10.704 24,-24 l 0,-96 0,-208 c 0,-3.40647 -0.70777,-6.64054 -1.97656,-9.57031 -2.46961,-6.44528 -8.04418,-13.84886 -20.58203,-14.38281 C 664.96415,-111.98116 664.48454,-112 664,-112 l -176,0 -48,-48 -176,0 z"
         style="opacity:0.05;fill:#000000;fill-opacity:1;stroke:#000000;stroke-width:0;stroke-miterlimit:4;stroke-dasharray:none;stroke-opacity:1;filter:url(#filter4198)" />
      <path
         style="fill:#8a8a8a;fill-opacity:1;stroke:none"
         d="m 240,212 0,-352 c 0,-0.2208 0,-24 24,-24 l 176,0 48,48 176,0 c 13.296,0 24,10.704 24,24 l 0,304 c 0,13.296 -10.704,24 -24,24 l -400,0 c -13.296,0 -24,-10.704 -24,-24 z"
         id="path3504"
         inkscape:connector-curvature="0"
         sodipodi:nodetypes="scsccssssss" />
      <path
         inkscape:connector-curvature="0"
         id="path3506"
         d="m 264,-164 c -24,0 -24,23.7792 -24,24 l 0,2 c 0,-0.2208 0,-24 24,-24 l 176,0 48,48 176,0 c 13.296,0 24,10.704 24,24 l 0,-2 c 0,-13.296 -10.704,-24 -24,-24 l -176,0 -48,-48 -176,0 z"
         style="opacity:0.2;fill:#ffffff;fill-opacity:1;stroke:none" />
      <path
         style="fill:#8a8a8a;fill-opacity:1;stroke:none"
         d="m 148,276 0,-32 c 0,-1.108 0.89878,-2.12236 2,-2 l 16,0 4,4 16.10252,0 c 0,0 1.89748,0 1.89748,2 l 0,28 c 0,1.10799 -0.892,2 -2,2 l -36,0 c -1.108,0 -2,-0.892 -2,-2 z"
         id="path3516"
         inkscape:connector-curvature="0"
         sodipodi:nodetypes="sssccccssss" />
      <path
         sodipodi:nodetypes="sssccssssss"
         inkscape:connector-curvature="0"
         id="path3524"
         d="m 97.999999,279.50827 0,-21.98236 c 0,-0.83008 0.691182,-1.69206 1.498346,-1.49834 l 10.987875,0 2.99669,2.99669 10.98787,0 c 0.83008,0 1.49834,0.66826 1.49834,1.49835 l 0,18.98566 c 0,0.83009 -0.66826,1.49835 -1.49834,1.49835 l -24.972435,0 c -0.830084,0 -1.498346,-0.66826 -1.498346,-1.49835 z"
         style="fill:#8a8a8a;fill-opacity:1;stroke:none" />
      <path
         inkscape:connector-curvature="0"
         id="path3532"
         d="m 110.5,256.03125 2.96875,3 11,0 c 0.83008,0 1.5,0.66991 1.5,1.5 l 0,1 c 0,-0.83009 -0.66992,-1.5 -1.5,-1.5 l -11,0 -2.96875,-3 -11,0 c -0.82668,-0.0752 -1.5,0.66991 -1.5,1.5 l 0,-1 c 0,-0.83009 0.67332,-1.57515 1.5,-1.5 l 11,0 z"
         style="opacity:0.1;fill:#ffffff;fill-opacity:1;stroke:none" />
      <path
         sodipodi:nodetypes="sssccccssss"
         inkscape:connector-curvature="0"
         id="path3534"
         d="m 54.000279,279.99581 0,-15.99609 c 0,-0.55385 0.449264,-1.06088 0.999721,-0.99972 l 7.997767,0 1.999442,1.99944 8.049014,0 c 0,0 0.948475,0 0.948475,0.99972 l 0,13.99665 c 0,0.55384 -0.445875,0.99972 -0.999721,0.99972 l -17.994977,0 c -0.553846,0 -0.999721,-0.44587 -0.999721,-0.99972 z"
         style="fill:#8a8a8a;fill-opacity:1;stroke:none" />
      <path
         inkscape:connector-curvature="0"
         id="path3538"
         d="M 54.8125,263 C 54.357745,263.06365 54,263.51538 54,264 l 0,1 c 0,-0.55385 0.449543,-1.06116 1,-1 l 8,0 1.5,1.5 0.5,-0.5 -2,-2 -8,0 c -0.06881,-0.008 -0.122535,-0.009 -0.1875,0 z m 18.90625,2.3125 C 73.888351,265.49935 74,265.73326 74,266 c 0,-0.34007 -0.133321,-0.5394 -0.28125,-0.6875 z M 73.03125,266 c 0,0 0.188133,0.0313 0.40625,0.125 -0.129014,-0.0664 -0.252191,-0.13564 -0.40625,-0.125 z"
         style="opacity:0.2;fill:#ffffff;fill-opacity:1;stroke:none" />
      <path
         style="opacity:0.4;fill:none;stroke:none"
         d="m 54.875,263.5 c -0.578732,0.25534 -0.314857,0.96999 -0.375,1.46873 0,5.01043 0,10.02085 0,15.03127 0.06001,0.68358 0.83869,0.46293 1.307279,0.5 5.730907,0 11.461814,0 17.192721,0 0.683582,-0.06 0.462928,-0.83869 0.5,-1.30728 -0.0065,-4.44195 0.01307,-8.88485 -0.0098,-13.3262 -0.127761,-0.48918 -0.588941,-0.34535 -0.997103,-0.36647 -2.570604,0 -5.141209,0 -7.711814,0 -0.624056,-0.6955 -1.317418,-1.32896 -1.96875,-2.00005 -2.645833,0 -5.291667,0 -7.9375,0 z"
         id="path3544"
         inkscape:connector-curvature="0" />
      <path
         style="opacity:0.1;fill:#000000;fill-opacity:1;stroke:none"
         d="m 98,279.50195 0,1 C 98,281.33203 98.667963,282 99.498047,282 l 24.972653,0 c 0.83008,0 1.49805,-0.66797 1.49805,-1.49805 l 0,-1 c 0,0.83008 -0.66797,1.49805 -1.49805,1.49805 l -24.972653,0 C 98.667963,281 98,280.33203 98,279.50195 Z"
         id="path3548"
         inkscape:connector-curvature="0" />
      <path
         style="opacity:0.1;fill:#000000;fill-opacity:1;stroke:none"
         d="m 148,276 0,1 c 0,1.10799 0.892,2 2,2 l 36,0 c 1.108,0 2,-0.892 2,-2 l 0,-1 c 0,1.108 -0.892,2 -2,2 l -36,0 c -1.108,0 -2,-0.89201 -2,-2 z"
         id="path3550"
         inkscape:connector-curvature="0" />
      <path
         style="opacity:0.1;fill:#000000;fill-opacity:1;stroke:none"
         d="m 54,279.99609 0,1 c 0,0.55384 0.446154,0.99805 1,0.99805 l 17.994141,0 c 0.553846,0 1,-0.44421 1,-0.99805 l 0,-1 c 0,0.55384 -0.446154,0.99805 -1,0.99805 l -17.994141,0 c -0.553846,0 -1,-0.44421 -1,-0.99805 z"
         id="path3552"
         inkscape:connector-curvature="0" />
      <path
         sodipodi:nodetypes="sssccccssss"
         inkscape:connector-curvature="0"
         id="path4441"
         d="m 31.994698,281.99917 0,-11.00001 c 0,-0.55384 -0.445877,-0.99972 -0.999721,-0.99972 l -5.997768,0 -1.999442,-2.00056 -5.997767,0 c -0.999721,0 -0.999721,0.95811 -0.999721,0.95811 l 0,13.04218 c 0,0.55384 0.445875,0.99972 0.999721,0.99972 l 13.994977,0 c 0.553846,0 0.999721,-0.44588 0.999721,-0.99972 z"
         style="display:inline;fill:#8a8a8a;fill-opacity:1;stroke:none;enable-background:new" />
      <path
         style="opacity:0.2;fill:#ffffff;fill-opacity:1;stroke:none"
         d="m 166,242 4,4 16,0 c 2,0 2,1.90625 2,1.90625 l 0,1 c 0,0 0,-1.90625 -2,-1.90625 l -16,0 -4,-4 -16,0 c -1.10122,-0.12236 -2,0.892 -2,2 l 0,-1 c 0,-1.108 0.89878,-2.12236 2,-2 l 16,0 z"
         id="path3585"
         inkscape:connector-curvature="0" />
    </g>
  </g>
</svg>
