<?xml version="1.0" encoding="UTF-8" standalone="no"?>
<!-- Created with Inkscape (http://www.inkscape.org/) -->

<svg
   xmlns:osb="http://www.openswatchbook.org/uri/2009/osb"
   xmlns:dc="http://purl.org/dc/elements/1.1/"
   xmlns:cc="http://creativecommons.org/ns#"
   xmlns:rdf="http://www.w3.org/1999/02/22-rdf-syntax-ns#"
   xmlns:svg="http://www.w3.org/2000/svg"
   xmlns="http://www.w3.org/2000/svg"
   xmlns:sodipodi="http://sodipodi.sourceforge.net/DTD/sodipodi-0.dtd"
   xmlns:inkscape="http://www.inkscape.org/namespaces/inkscape"
   inkscape:export-ydpi="90.000000"
   inkscape:export-xdpi="90.000000"
   width="736"
   height="544"
   id="svg11300"
   sodipodi:version="0.32"
   inkscape:version="0.91 r13725"
   sodipodi:docname="help-contents.svg"
   inkscape:output_extension="org.inkscape.output.svg.inkscape"
   version="1.0"
   style="display:inline;enable-background:new"
   inkscape:export-filename="/home/sam/paper-template.png">
  <sodipodi:namedview
     stroke="#646464"
     fill="#909090"
     id="base"
     pagecolor="#484848"
     bordercolor="#666666"
     borderopacity="0.25490196"
     inkscape:pageopacity="0"
     inkscape:pageshadow="2"
     inkscape:zoom="1"
     inkscape:cx="389.5299"
     inkscape:cy="55.261562"
     inkscape:current-layer="layer6"
     showgrid="false"
     inkscape:grid-bbox="true"
     inkscape:document-units="px"
     inkscape:showpageshadow="false"
     inkscape:window-width="648"
     inkscape:window-height="698"
     inkscape:window-x="25"
     inkscape:window-y="45"
     width="400px"
     height="300px"
     inkscape:snap-nodes="true"
     inkscape:snap-bbox="true"
     gridtolerance="10000"
     inkscape:object-nodes="true"
     inkscape:snap-grids="true"
     showguides="true"
     inkscape:guide-bbox="true"
     inkscape:window-maximized="1"
     inkscape:snap-global="true"
     inkscape:snap-intersection-paths="true"
     inkscape:object-paths="true"
     inkscape:snap-smooth-nodes="true">
    <inkscape:grid
       snapvisiblegridlinesonly="true"
       empspacing="4"
       visible="true"
       enabled="true"
       type="xygrid"
       id="grid5883"
       spacingx="1px"
       spacingy="1px" />
    <inkscape:grid
       snapvisiblegridlinesonly="true"
       empopacity="0.25098039"
       empcolor="#ff0000"
       opacity="0.1254902"
       color="#ff0000"
       spacingy="0.5px"
       spacingx="0.5px"
       enabled="false"
       visible="true"
       empspacing="2"
       id="grid11592"
       type="xygrid" />
  </sodipodi:namedview>
  <title
     id="title3004">Paper Icon Theme</title>
  <defs
     id="defs3">
    <linearGradient
       id="linearGradient5606"
       osb:paint="solid">
      <stop
         id="stop5608"
         offset="0"
         style="stop-color:#000000;stop-opacity:1;" />
    </linearGradient>
    <clipPath
       id="clipPath4260"
       clipPathUnits="userSpaceOnUse">
      <path
         inkscape:connector-curvature="0"
         style="fill:#d8d8d8;fill-opacity:1;stroke:none"
         d="m 232,148 0,56 19,0 c 1.662,0 3,-1.338 3,-3 l 0,-50 c 0,-1.662 -1.338,-3 -3,-3 l -19,0 z"
         id="path4262" />
    </clipPath>
    <filter
       height="1.0428571"
       y="-0.02142857"
       width="1.0545455"
       x="-0.027272727"
       id="filter4332"
       style="color-interpolation-filters:sRGB"
       inkscape:collect="always">
      <feGaussianBlur
         id="feGaussianBlur4334"
         stdDeviation="4"
         inkscape:collect="always" />
    </filter>
    <clipPath
       id="clipPath4419"
       clipPathUnits="userSpaceOnUse">
      <path
         style="fill:#d8d8d8;fill-opacity:1;stroke:none"
         d="m 168,240 0,40 14.02148,0 c 1.108,0 2,-0.892 2,-2 l 0,-36 c 0,-1.108 -0.892,-2 -2,-2 L 168,240 Z"
         id="path4421"
         inkscape:connector-curvature="0" />
    </clipPath>
  </defs>
  <metadata
     id="metadata4">
    <rdf:RDF>
      <cc:Work
         rdf:about="">
        <dc:format>image/svg+xml</dc:format>
        <dc:type
           rdf:resource="http://purl.org/dc/dcmitype/StillImage" />
        <dc:creator>
          <cc:Agent>
            <dc:title>Sam Hewitt</dc:title>
          </cc:Agent>
        </dc:creator>
        <dc:source />
        <cc:license
           rdf:resource="http://creativecommons.org/licenses/by-sa/3.0/" />
        <dc:title>Paper Icon Theme</dc:title>
        <dc:subject>
          <rdf:Bag />
        </dc:subject>
        <dc:date />
        <dc:rights>
          <cc:Agent>
            <dc:title />
          </cc:Agent>
        </dc:rights>
        <dc:publisher>
          <cc:Agent>
            <dc:title />
          </cc:Agent>
        </dc:publisher>
        <dc:identifier />
        <dc:relation />
        <dc:language />
        <dc:coverage />
        <dc:description />
        <dc:contributor>
          <cc:Agent>
            <dc:title />
          </cc:Agent>
        </dc:contributor>
      </cc:Work>
      <cc:Work
         rdf:about="">
        <dc:format>image/svg+xml</dc:format>
        <dc:type
           rdf:resource="http://purl.org/dc/dcmitype/StillImage" />
      </cc:Work>
    </rdf:RDF>
  </metadata>
  <g
     transform="translate(0,244)"
     id="layer1"
     inkscape:label="Icon"
     inkscape:groupmode="layer"
     style="display:inline">
    <g
       inkscape:groupmode="layer"
       id="layer7"
       inkscape:label="Baseplate"
       style="display:none">
      <text
         id="context"
         inkscape:label="context"
         style="font-style:normal;font-variant:normal;font-weight:normal;font-stretch:normal;font-size:18px;font-family:'DejaVu Sans';-inkscape-font-specification:'DejaVu Sans';display:inline;fill:#000000;fill-opacity:1;stroke:none;enable-background:new"
         x="15.006836"
         xml:space="preserve"
         y="332.48523"><tspan
           id="tspan3933"
           sodipodi:role="line"
           x="15.006836"
           y="332.48523"
           style="font-style:normal;font-variant:normal;font-weight:normal;font-stretch:normal;font-family:'DejaVu Sans';-inkscape-font-specification:'DejaVu Sans'">actions</tspan></text>
      <text
         id="icon-name"
         inkscape:label="icon-name"
         sodipodi:linespacing="125%"
         style="font-style:normal;font-variant:normal;font-weight:bold;font-stretch:normal;font-size:18px;line-height:125%;font-family:'DejaVu Sans';-inkscape-font-specification:'DejaVu Sans Bold';text-align:start;writing-mode:lr-tb;text-anchor:start;display:inline;fill:#000000;fill-opacity:1;stroke:none;enable-background:new"
         x="142.48828"
         xml:space="preserve"
         y="332.48523"><tspan
           id="tspan3937"
           sodipodi:role="line"
           x="142.48828"
           y="332.48523"
           style="font-style:normal;font-variant:normal;font-weight:bold;font-stretch:normal;font-size:18px;font-family:'DejaVu Sans';-inkscape-font-specification:'DejaVu Sans Bold'">help-contents</tspan></text>
      <rect
         transform="scale(-1,1)"
         inkscape:label="16x16"
         y="268"
         x="-32"
         height="16"
         width="16"
         id="rect16x16"
         style="display:inline;overflow:visible;visibility:visible;fill:#e9e9e9;fill-opacity:1;fill-rule:nonzero;stroke:none;stroke-width:2;marker:none;enable-background:accumulate" />
      <rect
         transform="scale(-1,1)"
         inkscape:label="24x24"
         y="260"
         x="-76"
         height="24"
         width="24"
         id="rect24x24"
         style="display:inline;overflow:visible;visibility:visible;fill:#e9e9e9;fill-opacity:1;fill-rule:nonzero;stroke:none;stroke-width:2;marker:none;enable-background:accumulate" />
      <rect
         transform="scale(-1,1)"
         inkscape:label="32x32"
         y="252"
         x="-128"
         height="32"
         width="32"
         id="rect32x32"
         style="display:inline;overflow:visible;visibility:visible;fill:#e9e9e9;fill-opacity:1;fill-rule:nonzero;stroke:none;stroke-width:2;marker:none;enable-background:accumulate" />
      <rect
         transform="scale(-1,1)"
         style="display:inline;overflow:visible;visibility:visible;fill:#e9e9e9;fill-opacity:1;fill-rule:nonzero;stroke:none;stroke-width:2;marker:none;enable-background:accumulate"
         id="rect48x48"
         width="48"
         height="48"
         x="-192"
         y="236"
         inkscape:label="48x48" />
      <rect
         transform="scale(-1,1)"
         inkscape:label="48x48"
         y="-228"
         x="-720"
         height="512"
         width="512"
         id="rect3951"
         style="display:inline;overflow:visible;visibility:visible;fill:#e9e9e9;fill-opacity:1;fill-rule:nonzero;stroke:none;stroke-width:2;marker:none;enable-background:accumulate" />
    </g>
    <g
       style="display:inline"
       inkscape:label="Symbols"
       id="layer6"
       inkscape:groupmode="layer">
      <rect
         ry="0.63636363"
         rx="0.66666663"
         y="269"
         x="18"
         height="14"
         width="12"
         id="rect4477"
         style="opacity:1;fill:#f2f2f2;fill-opacity:1;stroke:none;stroke-width:8;stroke-linecap:round;stroke-linejoin:miter;stroke-miterlimit:4;stroke-dasharray:none;stroke-opacity:1" />
      <path
         style="opacity:0.2;fill:#000000;fill-opacity:1;stroke:none"
         d="m 312,254 c -13.296,0 -24,-10.704 -24,-24 l 0,-2 c 0,13.296 10.704,24 24,24 l 152,0 152,0 c 13.296,0 24,-10.704 24,-24 l 0,2 c 0,13.296 -10.704,24 -24,24 l -152,0 -152,0 z"
         id="path4271"
         inkscape:connector-curvature="0" />
      <rect
         ry="1"
         rx="1"
         y="262"
         x="55"
         height="22"
         width="18"
         id="rect4489"
         style="opacity:0.2;fill:#000000;fill-opacity:1;stroke:none;stroke-width:8;stroke-linecap:round;stroke-linejoin:miter;stroke-miterlimit:4;stroke-dasharray:none;stroke-opacity:1" />
      <rect
         transform="scale(-1,1)"
         ry="1"
         rx="1"
         y="261"
         x="-73"
         height="22"
         width="18"
         id="rect4480"
         style="opacity:1;fill:#f2f2f2;fill-opacity:1;stroke:none;stroke-width:8;stroke-linecap:round;stroke-linejoin:miter;stroke-miterlimit:4;stroke-dasharray:none;stroke-opacity:1" />
      <rect
         ry="1.5"
         rx="1.5"
         y="-123"
         x="-283"
         height="22"
         width="28"
         id="rect4460"
         style="fill:#000000;fill-opacity:1;stroke:none;opacity:0.2"
         transform="matrix(0,-1,-1,0,0,0)" />
      <path
         id="rect4255"
         transform="translate(0,-244)"
         d="M 102.5 498 C 101.669 498 101 498.669 101 499.5 L 101 524.5 C 101 525.331 101.669 526 102.5 526 L 112 526 L 121.5 526 C 122.331 526 123 525.331 123 524.5 L 123 499.5 C 123 498.669 122.331 498 121.5 498 L 112 498 L 102.5 498 z "
         style="fill:#f2f2f2;fill-opacity:1;stroke:none" />
      <path
         inkscape:connector-curvature="0"
         id="path4410"
         d="m 154.02148,241 c -1.108,0 -2,0.892 -2,2 l 0,36 c 0,1.108 0.892,2 2,2 L 168,281 l 14.02148,0 c 1.108,0 2,-0.892 2,-2 l 0,-36 c 0,-1.108 -0.892,-2 -2,-2 L 168,241 l -13.97852,0 z"
         style="opacity:0.2;fill:#000000;fill-opacity:1;stroke:none" />
      <path
         transform="matrix(-1,0,0,1,928.00002,0)"
         style="opacity:0.1;fill:#000000;fill-opacity:1;stroke:#000000;stroke-width:8;stroke-miterlimit:4;stroke-dasharray:none;stroke-opacity:1;filter:url(#filter4332)"
         d="m 312,-192 c -13.296,0 -24,10.704 -24,24 l 0,400 c 0,13.296 10.704,24 24,24 l 152,0 152,0 c 13.296,0 24,-10.704 24,-24 l 0,-400 c 0,-13.296 -10.704,-24 -24,-24 l -152,0 -152,0 z"
         id="path4336"
         inkscape:connector-curvature="0" />
      <path
         id="path8375"
         transform="translate(0,-244)"
         d="M 154.02148 484 C 152.91348 484 152.02148 484.892 152.02148 486 L 152.02148 522 C 152.02148 523.108 152.91348 524 154.02148 524 L 168 524 L 182.02148 524 C 183.12948 524 184.02148 523.108 184.02148 522 L 184.02148 486 C 184.02148 484.892 183.12948 484 182.02148 484 L 168 484 L 154.02148 484 z "
         style="opacity:1;fill:#f2f2f2;fill-opacity:1;stroke:none" />
      <path
         inkscape:connector-curvature="0"
         id="path4281"
         d="m 312,-192 c -13.296,0 -24,10.704 -24,24 l 0,400 c 0,13.296 10.704,24 24,24 l 152,0 152,0 c 13.296,0 24,-10.704 24,-24 l 0,-400 c 0,-13.296 -10.704,-24 -24,-24 l -152,0 -152,0 z"
         style="opacity:0.2;fill:#000000;fill-opacity:1;stroke:none;filter:url(#filter4332)" />
      <path
         transform="translate(0,-244)"
         id="rect4239"
         d="M 312 48 C 298.704 48 288 58.704 288 72 L 288 472 C 288 485.296 298.704 496 312 496 L 464 496 L 616 496 C 629.296 496 640 485.296 640 472 L 640 72 C 640 58.704 629.296 48 616 48 L 464 48 L 312 48 z "
         style="fill:#f2f2f2;fill-opacity:1;stroke:none" />
      <rect
         style="opacity:1;fill:#f2f2f2;fill-opacity:1;stroke:none;stroke-width:8;stroke-linecap:round;stroke-linejoin:miter;stroke-miterlimit:4;stroke-dasharray:none;stroke-opacity:1"
         id="rect4482"
         width="18"
         height="22"
         x="55"
         y="261"
         rx="1"
         ry="1" />
      <path
         transform="translate(0,-244)"
         id="rect4491"
         d="M 56 505 C 55.446 505 55 505.446 55 506 L 55 507 C 55 506.446 55.446 506 56 506 L 72 506 C 72.554 506 73 506.446 73 507 L 73 506 C 73 505.446 72.554 505 72 505 L 56 505 z "
         style="opacity:0.2;fill:#ffffff;fill-opacity:1;stroke:none;stroke-width:8;stroke-linecap:round;stroke-linejoin:miter;stroke-miterlimit:4;stroke-dasharray:none;stroke-opacity:1" />
      <path
         id="path4374"
         transform="translate(0,-244)"
         d="M 154.02148 484 C 152.91348 484 152.02148 484.892 152.02148 486 L 152.02148 487 C 152.02148 485.892 152.91348 485 154.02148 485 L 168 485 L 182.02148 485 C 183.12948 485 184.02148 485.892 184.02148 487 L 184.02148 486 C 184.02148 484.892 183.12948 484 182.02148 484 L 168 484 L 154.02148 484 z "
         style="opacity:0.2;fill:#ffffff;fill-opacity:1;stroke:none" />
      <path
         inkscape:connector-curvature="0"
         id="path4286"
         transform="translate(0,76)"
         d="m 312,-272 c -13.296,0 -24,10.704 -24,24 l 0,2 c 0,-13.296 10.704,-24 24,-24 l 152,0 152,0 c 13.296,0 24,10.704 24,24 l 0,-2 c 0,-13.296 -10.704,-24 -24,-24 l -152,0 -152,0 z"
         style="opacity:0.2;fill:#ffffff;fill-opacity:1;stroke:none" />
      <path
         id="rect4448"
         transform="translate(0,-244)"
         d="M 102.5 498 C 101.669 498 101 498.669 101 499.5 L 101 500.5 C 101 499.669 101.669 499 102.5 499 L 121.5 499 C 122.331 499 123 499.669 123 500.5 L 123 499.5 C 123 498.669 122.331 498 121.5 498 L 102.5 498 z "
         style="fill:#ffffff;fill-opacity:1;stroke:none;opacity:0.2" />
      <path
         inkscape:connector-curvature="0"
         d="m 170,273 -4,0 0,-4 4,0 z m 4.13999,-13.5 -1.8,1.84 c -1.44,1.45999 -2.34,2.66 -2.34,5.66 l -4,0 0,-1 c 0,-2.20001 0.9,-4.20001 2.34,-5.66 l 2.48,-2.52 c 0.74,-0.72 1.18,-1.72 1.18,-2.82 0,-2.20001 -1.8,-4 -4,-4 -2.2,0 -4,1.79999 -4,4 l -4,0 c 0,-4.42 3.58,-8 8,-8 4.42,0 8,3.58 8,8 0,1.76 -0.72,3.36 -1.86,4.5 z"
         id="path4382"
         style="display:inline;fill:#999999;fill-opacity:1;stroke:none;enable-background:new"
         sodipodi:nodetypes="cccccccccsccssccssc" />
      <path
         inkscape:connector-curvature="0"
         d="m 114,278 -3,0 0,-3 3,0 z m 3.10501,-10.625 -1.35001,1.38 C 114.67499,269.85 114,270.75 114,273 l -3,0 0,-0.75 c 0,-1.65 0.675,-3.15 1.755,-4.245 l 1.86,-1.88999 c 0.55501,-0.54001 0.885,-1.29001 0.885,-2.11502 0,-1.64999 -1.34999,-3 -3,-3 -1.64999,0 -3,1.35001 -3,3 l -3,0 c 0,-3.31498 2.685,-6 6,-6 3.315,0 6,2.68502 6,6 0,1.32002 -0.54,2.52001 -1.39499,3.375 z"
         id="path4406"
         style="display:inline;fill:#999999;fill-opacity:1;stroke:none;enable-background:new"
         sodipodi:nodetypes="cccccccccsccssccsscc" />
      <path
         sodipodi:nodetypes="cccccccccsccssccssc"
         style="display:inline;fill:#999999;fill-opacity:1;stroke:none;enable-background:new"
         id="path4-7"
         d="m 65,279 -2,0 0,-2 2,0 z m 2.07,-7.75 -0.89999,0.91999 C 65.45,272.9 65,273.5 65,275 l -2,0 0,-0.5 c 0,-1.1 0.45,-2.1 1.17001,-2.83001 l 1.24,-1.25999 C 65.78001,270.04999 66,269.54999 66,269 c 0,-1.1 -0.89999,-2 -2,-2 -1.09999,0 -2,0.9 -2,2 l -2,0 c 0,-2.21001 1.79001,-4 4,-4 2.21,0 4,1.78999 4,4 0,0.88 -0.36,1.67999 -0.93,2.25 z"
         inkscape:connector-curvature="0" />
      <path
         sodipodi:nodetypes="cccsscccscccccssccccccc"
         id="path4388"
         d="m 463.8301,-100 c -40.68943,0 -73.71263,31.83893 -75.79881,72 l 32.20704,0 c 2.07015,-22.29999 20.77898,-40 43.59179,-40 24.18183,0 44,19.81818 44,44 0,12.06666 -4.851,23.13009 -13.00977,31.06836 l -24.74023,25.14062 -0.002,0 C 456.37545,46.10197 447.83006,65.09092 447.83006,86 l 0,6 L 480,92 c 0.86984,-27.90071 10.46893,-41.29937 24.37109,-55.39648 l 17.99999,-18.40039 0.0156,-0.0156 0.0156,-0.0156 c 10.67222,-10.67222 17.42774,-25.66278 17.42774,-42.17187 0,-42.04012 -33.95989,-76 -76.00001,-76 z M 448,124 l 0,32 32,0 0,-32 z"
         style="display:inline;fill:#999999;fill-opacity:1;stroke:none;stroke-width:8;stroke-miterlimit:4;stroke-dasharray:none;stroke-opacity:1;enable-background:new"
         inkscape:connector-curvature="0" />
      <path
         sodipodi:nodetypes="ssccccsssccsccccc"
         inkscape:connector-curvature="0"
         id="path5701"
         d="m 24,273 c 1.10457,0 2,0.89543 2,2 0,1.10457 -0.89543,2 -2,2 l 0,1 -1,0 0,-2 1,0 c 0.55229,0 1,-0.44772 1,-1 0,-0.55228 -0.44771,-1 -1,-1 -0.55228,0 -1,0.44772 -1,1 l -1,0 c 0,-1.10457 0.89543,-2 2,-2 z m -1,6 1,0 0,1 -1,0 z"
         style="display:inline;opacity:1;fill:#999999;fill-opacity:1;stroke:none;enable-background:new" />
    </g>
  </g>
</svg>
