/* XPM */
static char * bottom_inactive_xpm[] = {
"5 3 3 1",
" 	c None",
".	c #525252",
"+	c #535353",
".....",
".....",
"....+"};
