/* XPM */
static char * close_pressed_xpm[] = {
"24 26 28 1",
" 	c None",
".	c #505050",
"+	c #DD4E4E",
"@	c #DB4545",
"#	c #DC3B3B",
"$	c #DE6060",
"%	c #DA2424",
"&	c #D90000",
"*	c #DB3434",
"=	c #DB2727",
"-	c #DC3939",
";	c #DA1D1D",
">	c #DB2F2F",
",	c #DB2626",
"'	c #DA2323",
")	c #D91A1A",
"!	c #DA2121",
"~	c #DB2323",
"{	c #DA2D2D",
"]	c #DB2828",
"^	c #DA1F1F",
"/	c #DA1B1B",
"(	c #DA3333",
"_	c #DC4444",
":	c #DB3737",
"<	c #DC2D2D",
"[	c #DA2222",
"}	c #DD4C4C",
"                        ",
"                        ",
"                        ",
"                        ",
"                        ",
"                        ",
"                        ",
"........................",
"........................",
"........................",
"........................",
"........................",
"........+@....#$........",
"........%&*..=&-........",
".........;&>,&'.........",
"..........)&&!..........",
"..........~&&{..........",
".........]&^/&(.........",
"........>&=../&_........",
"........:<....[}........",
"........................",
"........................",
"........................",
"........................",
"........................",
"........................"};
