/* XPM */
static char * close_inactive_xpm[] = {
"24 26 17 1",
" 	c None",
".	c #505050",
"+	c #B2B2B2",
"@	c #AFAFAF",
"#	c #ABABAB",
"$	c #B8B8B8",
"%	c #A5A5A5",
"&	c #999999",
"*	c #A6A6A6",
"=	c #ACACAC",
"-	c #A2A2A2",
";	c #A8A8A8",
">	c #A4A4A4",
",	c #A1A1A1",
"'	c #A3A3A3",
")	c #A9A9A9",
"!	c #AEAEAE",
"                        ",
"                        ",
"                        ",
"                        ",
"                        ",
"                        ",
"                        ",
"........................",
"........................",
"........................",
"........................",
"........................",
"........+@....#$........",
"........%&#..*&=........",
".........-&;%&>.........",
"..........,&&>..........",
"..........>&&;..........",
".........*&''&).........",
"........;&*..-&!........",
"........#;....>+........",
"........................",
"........................",
"........................",
"........................",
"........................",
"........................"};
