/* XPM */
static char * close_prelight_xpm[] = {
"24 26 25 1",
" 	c None",
".	c #505050",
"+	c #F64E4E",
"@	c #F74545",
"#	c #F83B3B",
"$	c #F46060",
"%	c #FA2424",
"&	c #FF0000",
"*	c #F83434",
"=	c #FA2727",
"-	c #F83939",
";	c #FB1D1D",
">	c #F92F2F",
",	c #FA2626",
"'	c #FA2323",
")	c #FB1A1A",
"!	c #FB2222",
"~	c #F92D2D",
"{	c #FA2828",
"]	c #FB1F1F",
"^	c #FB1B1B",
"/	c #F93333",
"(	c #F74444",
"_	c #F83737",
":	c #F64C4C",
"                        ",
"                        ",
"                        ",
"                        ",
"                        ",
"                        ",
"                        ",
"........................",
"........................",
"........................",
"........................",
"........................",
"........+@....#$........",
"........%&*..=&-........",
".........;&>,&'.........",
"..........)&&!..........",
"..........'&&~..........",
".........{&]^&/.........",
"........>&=..^&(........",
"........_~....!:........",
"........................",
"........................",
"........................",
"........................",
"........................",
"........................"};
