/* XPM */
static char * close_active_xpm[] = {
"24 26 30 1",
" 	c None",
".	c #505050",
"+	c #DA1A1A",
"@	c #D81414",
"#	c #564B4B",
"$	c #5B4949",
"%	c #D90F0F",
"&	c #DB2828",
"*	c #D90505",
"=	c #D90000",
"-	c #D90C0C",
";	c #5C4949",
">	c #DA0606",
",	c #DA0E0E",
"'	c #604646",
")	c #D90303",
"!	c #D90909",
"~	c #5D4848",
"{	c #D80303",
"]	c #D90404",
"^	c #DA0505",
"/	c #D80909",
"(	c #574B4B",
"_	c #D90707",
":	c #D80B0B",
"<	c #604545",
"[	c #D91414",
"}	c #D90D0D",
"|	c #DA0909",
"1	c #DB1919",
"                        ",
"                        ",
"                        ",
"                        ",
"                        ",
"                        ",
"                        ",
"........................",
"........................",
"........................",
"........................",
"........................",
"........+@#..$%&........",
"........*=-#;>=,........",
"........')=!>=*~........",
".........'{==]~.........",
".........$^==/(.........",
"........$_=])=:(........",
"........!=>;<)=[........",
"........}|;..<*1........",
"........................",
"........................",
"........................",
"........................",
"........................",
"........................"};
