/* XPM */
static char * hide_inactive_xpm[] = {
"24 26 3 1",
" 	c None",
".	c #505050",
"+	c #999999",
"                        ",
"                        ",
"                        ",
"                        ",
"                        ",
"                        ",
"                        ",
"........................",
"........................",
"........................",
"........................",
"........................",
"........................",
"........................",
"........................",
"........................",
"........................",
"........................",
"........+++++++++.......",
"........+++++++++.......",
"........................",
"........................",
"........................",
"........................",
"........................",
"........................"};
