/* XPM */
static char * hide_pressed_xpm[] = {
"24 26 3 1",
" 	c None",
".	c #505050",
"+	c #00D900",
"                        ",
"                        ",
"                        ",
"                        ",
"                        ",
"                        ",
"                        ",
"........................",
"........................",
"........................",
"........................",
"........................",
"........................",
"........................",
"........................",
"........................",
"........................",
"........................",
"........+++++++++.......",
"........+++++++++.......",
"........................",
"........................",
"........................",
"........................",
"........................",
"........................"};
