/* XPM */
static char * maximize_active_xpm[] = {
"24 26 3 1",
" 	c None",
".	c #505050",
"+	c #0075FD",
"                        ",
"                        ",
"                        ",
"                        ",
"                        ",
"                        ",
"                        ",
"........................",
"........................",
"........................",
"........................",
".......+++++++++........",
".......+++++++++........",
".......++.....++........",
".......++.....++........",
".......++.....++........",
".......++.....++........",
".......++.....++........",
".......+++++++++........",
".......+++++++++........",
"........................",
"........................",
"........................",
"........................",
"........................",
"........................"};
