<?xml version="1.0" encoding="UTF-8" standalone="no"?>
<svg
   xmlns:dc="http://purl.org/dc/elements/1.1/"
   xmlns:cc="http://creativecommons.org/ns#"
   xmlns:rdf="http://www.w3.org/1999/02/22-rdf-syntax-ns#"
   xmlns:svg="http://www.w3.org/2000/svg"
   xmlns="http://www.w3.org/2000/svg"
   xmlns:sodipodi="http://sodipodi.sourceforge.net/DTD/sodipodi-0.dtd"
   xmlns:inkscape="http://www.inkscape.org/namespaces/inkscape"
   width="48"
   viewBox="0 0 13.546667 13.546667"
   height="48"
   id="svg2"
   version="1.1"
   inkscape:version="0.48.4 r9939"
   sodipodi:docname="accessories-text-editor.svg">
  <metadata
     id="metadata62">
    <rdf:RDF>
      <cc:Work
         rdf:about="">
        <dc:format>image/svg+xml</dc:format>
        <dc:type
           rdf:resource="http://purl.org/dc/dcmitype/StillImage" />
        <dc:title />
      </cc:Work>
    </rdf:RDF>
  </metadata>
  <sodipodi:namedview
     pagecolor="#6c6c6c"
     bordercolor="#666666"
     borderopacity="1"
     objecttolerance="10"
     gridtolerance="10"
     guidetolerance="10"
     inkscape:pageopacity="1"
     inkscape:pageshadow="2"
     inkscape:window-width="1366"
     inkscape:window-height="716"
     id="namedview60"
     showgrid="false"
     inkscape:zoom="8"
     inkscape:cx="33.358346"
     inkscape:cy="15.233933"
     inkscape:window-x="0"
     inkscape:window-y="28"
     inkscape:window-maximized="1"
     inkscape:current-layer="g38" />
  <defs
     id="defs4">
    <clipPath
       clipPathUnits="userSpaceOnUse"
       id="clipPath6">
      <rect
         width="20"
         x="1"
         y="1"
         rx="2"
         height="20"
         style="fill:#fff;fill-rule:evenodd"
         id="rect8" />
    </clipPath>
    <clipPath
       clipPathUnits="userSpaceOnUse"
       id="clipPath10">
      <rect
         width="84"
         x="6"
         y="6"
         rx="6"
         height="84"
         style="fill:#fff"
         id="rect12" />
    </clipPath>
    <clipPath
       clipPathUnits="userSpaceOnUse"
       id="clipPath14">
      <path
         d="M 54.1,12.5 12.9,54.7 C -2.7,70.3 23,69 32.3,74.9 36.6,77.7 18.5,81.3 22.2,85 c 3.6,3.7 21.7,7.1 25.3,10.7 3.6,3.7 -7.3,7.6 -3.7,11.3 3.5,3.7 11.9,0.2 13.4,8.6 1.1,6.2 15.4,3.1 21.8,-2.2 4,-3.4 -6.9,-3.4 -3.3,-7.1 9,-9.1 17,-4.1 20.3,-12.5 1.8,-4.5 -13.6,-7.7 -9.5,-10.6 9.8,-6.9 45.8,-10.4 29.2,-27 L 73,12.5 c -5.3,-5 -14,-5 -18.9,0 z m -9.9,64.7 c 0.9,0 30.8,4 19.3,7.1 -4.4,1.2 -24.6,-7.1 -19.3,-7.1 z m 57.2,16.6 c 0,2.1 16.3,3.3 15.4,-0.5 -1.3,-6.4 -13.6,-5.9 -15.4,0.5 z m -69.5,11.1 c 3.7,3.2 9.3,-0.7 11.1,-5.2 -3.6,-4.7 -16.9,0.3 -11.1,5.2 z m 67.5,-6.7 c -4.6,4.2 0.8,8.6 5.3,5.7 1.2,-0.8 -0.1,-4.7 -5.3,-5.7 z"
         id="path16" />
    </clipPath>
    <clipPath
       clipPathUnits="userSpaceOnUse"
       id="clipPath18">
      <rect
         width="96"
         x="-100"
         y="-0"
         height="96"
         style="fill:#fff"
         id="rect20" />
    </clipPath>
    <clipPath
       clipPathUnits="userSpaceOnUse"
       id="clipPath22">
      <path
         d="M 95.311,352.545 L 476.403,352.545 L 476.403,71.4229 L 95.311,71.4229 L 95.311,352.545 z"
         id="path24" />
    </clipPath>
    <clipPath
       clipPathUnits="userSpaceOnUse"
       id="clipPath26">
      <path
         d="M 93.311,354.545 L 478.511,354.545 L 478.511,69.1846 L 93.311,69.1846 L 93.311,354.545 z"
         id="path28" />
    </clipPath>
    <clipPath
       clipPathUnits="userSpaceOnUse"
       id="clipPath30">
      <path
         d="M 93.311,69.185 L 478.511,69.185 L 478.511,354.545 L 93.311,354.545 L 93.311,69.185 z"
         id="path32" />
    </clipPath>
    <clipPath
       clipPathUnits="userSpaceOnUse"
       id="clipPath34">
      <path
         d="M 92.311,355.545 L 479.511,355.545 L 479.511,68.1846 L 92.311,68.1846 L 92.311,355.545 z"
         id="path36" />
    </clipPath>
  </defs>
  <g
     style="fill-rule:evenodd"
     id="g38">
    <rect
       width="11.746"
       x=".9"
       y=".901"
       rx="5.873"
       height="11.746"
       style="fill:#ffffff;stroke-width:0.02822222000000000;stroke-miterlimit:4;stroke-dasharray:none;stroke:none;stroke-opacity:1;fill-opacity:1"
       id="rect42" />
    <rect
       style="fill:#69b2d1;fill-opacity:1;stroke:none"
       id="rect859"
       width="9.5338202"
       height="0.086837612"
       x="1.9105312"
       y="3.4500802" />
    <rect
       y="5.0039039"
       x="1.8487951"
       height="0.086837612"
       width="9.5955563"
       id="rect861"
       style="fill:#69b2d1;fill-opacity:1;stroke:none" />
    <rect
       style="fill:#69b2d1;fill-opacity:1;stroke:none"
       id="rect863"
       width="9.5955563"
       height="0.086837612"
       x="1.8487951"
       y="6.5577116" />
    <rect
       y="8.1115351"
       x="1.8487951"
       height="0.086837612"
       width="9.5955563"
       id="rect889"
       style="fill:#69b2d1;fill-opacity:1;stroke:none" />
    <rect
       style="fill:#69b2d1;fill-opacity:1;stroke:none"
       id="rect891"
       width="9.5955563"
       height="0.086837612"
       x="1.8487951"
       y="9.6653423" />
    <ellipse
       sodipodi:ry="3.5001078"
       sodipodi:rx="3.5"
       sodipodi:cy="713.8125"
       sodipodi:cx="224.7366"
       transform="matrix(0.28222223,0,0,0.28222223,-50.993537,-194.99461)"
       ry="3.5001078"
       rx="3.5"
       cy="713.8125"
       cx="224.7366"
       id="ellipse3285"
       style="fill:none;stroke:none"
       d="m 228.2366,713.8125 c 0,1.93306 -1.567,3.50011 -3.5,3.50011 -1.93299,0 -3.5,-1.56705 -3.5,-3.50011 0,-1.93306 1.56701,-3.50011 3.5,-3.50011 1.933,0 3.5,1.56705 3.5,3.50011 z" />
    <rect
       style="fill:#69b2d1;fill-opacity:1;fill-rule:evenodd;stroke:none"
       id="rect891-8"
       width="8.0457258"
       height="0.086837612"
       x="2.7217705"
       y="10.920197" />
    <rect
       y="3.7753203"
       x="-11.868354"
       height="0.14111112"
       width="10.16"
       id="rect895"
       style="fill:#ffa294;fill-opacity:1;stroke:none"
       transform="matrix(0,-1,1,0,0,0)" />
    <rect
       width="4.8969774"
       x="-1.6195383"
       y="11.913448"
       height="1.4240738"
       style="fill:#424242;fill-opacity:1"
       id="rect30"
       transform="matrix(0.70451358,-0.7096905,0.68196738,0.73138259,0,0)" />
    <path
       style="fill:#ffd5d5"
       d="m 10.248408,6.5740574 0.971068,1.0414315 0.61057,-0.6150555 c 0,0 0.06221,-0.2267524 -0.344633,-0.6626524 C 11.093692,5.9176636 10.843322,5.9747718 10.843322,5.9747718 l -0.594914,0.5992856 z"
       id="path32-8"
       inkscape:connector-curvature="0" />
    <path
       style="fill:#ffecc3;fill-opacity:1"
       d="M 6.9921315,9.8544621 6.4757093,11.384505 7.9632085,10.895902 6.9921315,9.8544621 z"
       id="path34"
       inkscape:connector-curvature="0" />
    <path
       style="fill:#2d2d2d"
       d="M 6.7298057,10.615071 6.4757093,11.384505 7.2235742,11.144616 6.7298057,10.615071 z"
       id="path36-7"
       inkscape:connector-curvature="0" />
  </g>
</svg>
