<?xml version="1.0" encoding="UTF-8" standalone="no"?>
<svg
   xmlns:dc="http://purl.org/dc/elements/1.1/"
   xmlns:cc="http://creativecommons.org/ns#"
   xmlns:rdf="http://www.w3.org/1999/02/22-rdf-syntax-ns#"
   xmlns:svg="http://www.w3.org/2000/svg"
   xmlns="http://www.w3.org/2000/svg"
   xmlns:sodipodi="http://sodipodi.sourceforge.net/DTD/sodipodi-0.dtd"
   xmlns:inkscape="http://www.inkscape.org/namespaces/inkscape"
   width="48"
   viewBox="0 0 13.546667 13.546667"
   height="48"
   id="svg2"
   version="1.1"
   inkscape:version="0.48.4 r9939"
   sodipodi:docname="base.svg">
  <metadata
     id="metadata62">
    <rdf:RDF>
      <cc:Work
         rdf:about="">
        <dc:format>image/svg+xml</dc:format>
        <dc:type
           rdf:resource="http://purl.org/dc/dcmitype/StillImage" />
        <dc:title></dc:title>
      </cc:Work>
    </rdf:RDF>
  </metadata>
  <sodipodi:namedview
     pagecolor="#ffffff"
     bordercolor="#666666"
     borderopacity="1"
     objecttolerance="10"
     gridtolerance="10"
     guidetolerance="10"
     inkscape:pageopacity="0"
     inkscape:pageshadow="2"
     inkscape:window-width="1366"
     inkscape:window-height="716"
     id="namedview60"
     showgrid="false"
     inkscape:zoom="1.2291666"
     inkscape:cx="100.75066"
     inkscape:cy="197.37882"
     inkscape:window-x="0"
     inkscape:window-y="28"
     inkscape:window-maximized="1"
     inkscape:current-layer="g38"
     inkscape:snap-grids="true" />
  <defs
     id="defs4">
    <clipPath
       clipPathUnits="userSpaceOnUse"
       id="clipPath6">
      <rect
         width="20"
         x="1"
         y="1"
         rx="2"
         height="20"
         style="fill:#fff;fill-rule:evenodd"
         id="rect8" />
    </clipPath>
    <clipPath
       clipPathUnits="userSpaceOnUse"
       id="clipPath10">
      <rect
         width="84"
         x="6"
         y="6"
         rx="6"
         height="84"
         style="fill:#fff"
         id="rect12" />
    </clipPath>
    <clipPath
       clipPathUnits="userSpaceOnUse"
       id="clipPath14">
      <path
         d="M 54.1,12.5 12.9,54.7 C -2.7,70.3 23,69 32.3,74.9 36.6,77.7 18.5,81.3 22.2,85 c 3.6,3.7 21.7,7.1 25.3,10.7 3.6,3.7 -7.3,7.6 -3.7,11.3 3.5,3.7 11.9,0.2 13.4,8.6 1.1,6.2 15.4,3.1 21.8,-2.2 4,-3.4 -6.9,-3.4 -3.3,-7.1 9,-9.1 17,-4.1 20.3,-12.5 1.8,-4.5 -13.6,-7.7 -9.5,-10.6 9.8,-6.9 45.8,-10.4 29.2,-27 L 73,12.5 c -5.3,-5 -14,-5 -18.9,0 z m -9.9,64.7 c 0.9,0 30.8,4 19.3,7.1 -4.4,1.2 -24.6,-7.1 -19.3,-7.1 z m 57.2,16.6 c 0,2.1 16.3,3.3 15.4,-0.5 -1.3,-6.4 -13.6,-5.9 -15.4,0.5 z m -69.5,11.1 c 3.7,3.2 9.3,-0.7 11.1,-5.2 -3.6,-4.7 -16.9,0.3 -11.1,5.2 z m 67.5,-6.7 c -4.6,4.2 0.8,8.6 5.3,5.7 1.2,-0.8 -0.1,-4.7 -5.3,-5.7 z"
         id="path16" />
    </clipPath>
    <clipPath
       clipPathUnits="userSpaceOnUse"
       id="clipPath18">
      <rect
         width="96"
         x="-100"
         y="-0"
         height="96"
         style="fill:#fff"
         id="rect20" />
    </clipPath>
    <clipPath
       clipPathUnits="userSpaceOnUse"
       id="clipPath22">
      <path
         d="M 95.311,352.545 L 476.403,352.545 L 476.403,71.4229 L 95.311,71.4229 L 95.311,352.545 z"
         id="path24" />
    </clipPath>
    <clipPath
       clipPathUnits="userSpaceOnUse"
       id="clipPath26">
      <path
         d="M 93.311,354.545 L 478.511,354.545 L 478.511,69.1846 L 93.311,69.1846 L 93.311,354.545 z"
         id="path28" />
    </clipPath>
    <clipPath
       clipPathUnits="userSpaceOnUse"
       id="clipPath30">
      <path
         d="M 93.311,69.185 L 478.511,69.185 L 478.511,354.545 L 93.311,354.545 L 93.311,69.185 z"
         id="path32" />
    </clipPath>
    <clipPath
       clipPathUnits="userSpaceOnUse"
       id="clipPath34">
      <path
         d="M 92.311,355.545 L 479.511,355.545 L 479.511,68.1846 L 92.311,68.1846 L 92.311,355.545 z"
         id="path36" />
    </clipPath>
  </defs>
  <g
     style="fill-rule:evenodd"
     id="g38">
    <rect
       width="11.746"
       x=".9"
       y=".901"
       rx="5.873"
       height="11.746"
       style="fill:#cccccc;stroke-width:0.02822222000000000;stroke-miterlimit:4;stroke-dasharray:none;stroke:none;stroke-opacity:1;fill-opacity:1"
       id="rect42" />
    <path
       style="fill:#0088aa;fill-opacity:1;stroke:none"
       d="m 8.1402168,5.8632047 0,1.9809929 0,0.4523564 0,1.98101 2.1112172,0 0,-1.98101 0,-0.4523564 0,-1.9809929 -2.1112172,0 z"
       id="rect4056"
       inkscape:connector-curvature="0" />
    <rect
       style="fill:#002255;fill-opacity:1;stroke:none"
       id="rect3330"
       width="1.7273586"
       height="1.7273586"
       x="3.7258556"
       y="5.8632092" />
    <rect
       y="8.5502005"
       x="3.7258556"
       height="1.7273586"
       width="1.7273586"
       id="rect3324"
       style="fill:#002255;fill-opacity:1;stroke:none" />
    <rect
       style="fill:#002255;fill-opacity:1;stroke:none"
       id="rect3328"
       width="1.7273586"
       height="1.7273586"
       x="5.8370709"
       y="8.5502005" />
    <ellipse
       sodipodi:ry="1.0000308"
       sodipodi:rx="1.0000005"
       sodipodi:cy="24"
       sodipodi:cx="-1047.3622"
       style="fill:none;stroke:none"
       id="ellipse3312"
       cx="-1047.3622"
       cy="24"
       rx="1.0000005"
       ry="1.0000308"
       transform="matrix(0,-0.19192876,0.19192876,0,2.3823541,-190.5494)"
       d="m -1046.3622,24 c 0,0.552302 -0.4477,1.000031 -1,1.000031 -0.5523,0 -1,-0.447729 -1,-1.000031 0,-0.552302 0.4477,-1.000031 1,-1.000031 0.5523,0 1,0.447729 1,1.000031 z" />
    <ellipse
       sodipodi:ry="1.0000308"
       sodipodi:rx="1.0006928"
       sodipodi:cy="17"
       sodipodi:cx="-1041.8628"
       transform="matrix(0,-0.19192876,0.19192876,0,2.3823541,-190.5494)"
       ry="1.0000308"
       rx="1.0006928"
       cy="17"
       cx="-1041.8628"
       id="ellipse3326"
       style="fill:none;stroke:none"
       d="m -1040.8621,17 c 0,0.552302 -0.448,1.000031 -1.0007,1.000031 -0.5527,0 -1.0007,-0.447729 -1.0007,-1.000031 0,-0.552302 0.448,-1.000031 1.0007,-1.000031 0.5527,0 1.0007,0.447729 1.0007,1.000031 z" />
    <rect
       y="6.3430195"
       x="4.4935703"
       height="0.76771504"
       width="0.19192877"
       id="rect3334"
       style="fill:#ffffff;fill-opacity:1;stroke:none" />
    <ellipse
       sodipodi:ry="1.0000308"
       sodipodi:rx="1.0006928"
       sodipodi:cy="17"
       sodipodi:cx="-1027.8628"
       transform="matrix(0,-0.19192876,0.19192876,0,2.3823541,-190.5494)"
       ry="1.0000308"
       rx="1.0006928"
       cy="17"
       cx="-1027.8628"
       id="ellipse3336"
       style="fill:none;stroke:none"
       d="m -1026.8621,17 c 0,0.552302 -0.448,1.000031 -1.0007,1.000031 -0.5527,0 -1.0007,-0.447729 -1.0007,-1.000031 0,-0.552302 0.448,-1.000031 1.0007,-1.000031 0.5527,0 1.0007,0.447729 1.0007,1.000031 z" />
    <rect
       y="5.8632092"
       x="5.8370709"
       height="1.7273586"
       width="1.7273586"
       id="rect3338"
       style="fill:#002255;fill-opacity:1;stroke:none" />
    <rect
       style="fill:#ffffff;fill-opacity:1;stroke:none"
       id="rect3342"
       width="0.19192876"
       height="0.7677151"
       x="6.6309128"
       y="-4.973393"
       transform="matrix(0,1,-1,0,0,0)" />
    <rect
       transform="matrix(0,1,-1,0,0,0)"
       y="-7.0846086"
       x="6.6309128"
       height="0.7677151"
       width="0.19192876"
       id="rect3344"
       style="fill:#ffffff;fill-opacity:1;stroke:none" />
    <rect
       transform="matrix(0,1,-1,0,0,0)"
       y="-4.973393"
       x="9.317914"
       height="0.7677151"
       width="0.19192876"
       id="rect3346"
       style="fill:#ffffff;fill-opacity:1;stroke:none" />
    <ellipse
       sodipodi:ry="0.50001538"
       sodipodi:rx="0.50034642"
       sodipodi:cy="11.5"
       sodipodi:cx="-1043.3624"
       style="fill:#ffffff;stroke:none"
       id="ellipse3348"
       cx="-1043.3624"
       cy="11.5"
       rx="0.50034642"
       ry="0.50001538"
       transform="matrix(0,-0.19192876,0.19192876,0,2.3823541,-190.5494)"
       d="m -1042.8621,11.5 c 0,0.276151 -0.224,0.500015 -0.5003,0.500015 -0.2764,0 -0.5004,-0.223864 -0.5004,-0.500015 0,-0.276151 0.224,-0.500015 0.5004,-0.500015 0.2763,0 0.5003,0.223864 0.5003,0.500015 z" />
    <ellipse
       sodipodi:ry="0.50001538"
       sodipodi:rx="0.50034642"
       sodipodi:cy="11.5"
       sodipodi:cx="-1040.3624"
       transform="matrix(0,-0.19192876,0.19192876,0,2.3823541,-190.5494)"
       ry="0.50001538"
       rx="0.50034642"
       cy="11.5"
       cx="-1040.3624"
       id="ellipse3354"
       style="fill:#ffffff;stroke:none"
       d="m -1039.8621,11.5 c 0,0.276151 -0.224,0.500015 -0.5003,0.500015 -0.2764,0 -0.5004,-0.223864 -0.5004,-0.500015 0,-0.276151 0.224,-0.500015 0.5004,-0.500015 0.2763,0 0.5003,0.223864 0.5003,0.500015 z" />
    <rect
       style="fill:#ffffff;fill-opacity:1;stroke:none"
       id="rect3358"
       width="0.19192876"
       height="0.7677151"
       x="8.2623072"
       y="-9.5796824"
       transform="matrix(0,1,-1,0,0,0)" />
    <ellipse
       sodipodi:ry="1.0000308"
       sodipodi:rx="1.0006928"
       sodipodi:cy="35.5"
       sodipodi:cx="-1034.8628"
       style="fill:none;stroke:none"
       id="ellipse3360"
       cx="-1034.8628"
       cy="35.5"
       rx="1.0006928"
       ry="1.0000308"
       transform="matrix(0,-0.19192876,0.19192876,0,2.3823541,-190.5494)"
       d="m -1033.8621,35.5 c 0,0.552302 -0.448,1.000031 -1.0007,1.000031 -0.5527,0 -1.0007,-0.447729 -1.0007,-1.000031 0,-0.552302 0.448,-1.000031 1.0007,-1.000031 0.5527,0 1.0007,0.447729 1.0007,1.000031 z" />
    <rect
       style="fill:#ffffff;fill-opacity:1;stroke:none"
       id="rect3362"
       width="0.19192876"
       height="0.7677151"
       x="7.6865206"
       y="-9.5796824"
       transform="matrix(0,1,-1,0,0,0)" />
    <rect
       y="9.0300226"
       x="6.3168936"
       height="0.76771504"
       width="0.7677151"
       id="rect3376"
       style="fill:none;stroke:none" />
    <rect
       style="fill:#ffffff;fill-opacity:1;stroke:none"
       id="rect3372"
       width="0.19192877"
       height="0.89381218"
       x="-2.0144284"
       y="10.947845"
       transform="matrix(0.70710678,-0.70710678,0.70710678,0.70710678,0,0)" />
    <rect
       transform="matrix(0.70710678,0.70710678,0.70710678,-0.70710678,0,0)"
       y="-2.3653688"
       x="11.298785"
       height="0.89381218"
       width="0.19192877"
       id="rect3378"
       style="fill:#ffffff;fill-opacity:1;stroke:none" />
    <rect
       y="2.8213916"
       x="3.2387886"
       height="2.3738472"
       width="7.337347"
       id="rect4036"
       style="fill:#303339;fill-opacity:1;stroke:none" />
    <g
       style="font-size:24.8214283px;font-style:normal;font-variant:normal;font-weight:500;font-stretch:normal;text-align:start;line-height:125%;letter-spacing:0px;word-spacing:0px;writing-mode:lr-tb;text-anchor:start;fill:#ffffff;fill-opacity:1;stroke:none;font-family:Helvetica 65 Medium;-inkscape-font-specification:'Helvetica 65 Medium, Medium'"
       id="text4056"
       transform="matrix(0.21639165,0,0,0.21639165,1.8977809,-215.87042)">
      <path
         d="m 36.558936,1018.8294 0,-5.4297 -1.551339,0 0,5.4297 1.551339,0 z m -2.327009,0.7757 0,-0.7757 -0.77567,0 0,-5.4297 0.77567,0 0,-0.7756 3.102679,0 0,0.7756 0.775669,0 0,5.4297 -0.775669,0 0,0.7757 -3.102679,0 z"
         style="font-weight:normal;font-family:Game Over;-inkscape-font-specification:Game Over"
         id="path4061"
         inkscape:connector-curvature="0" />
    </g>
    <ellipse
       sodipodi:ry="1.0000308"
       sodipodi:rx="1.0006928"
       sodipodi:cy="40"
       sodipodi:cx="-1015.8628"
       style="fill:none;stroke:none"
       id="ellipse3300"
       cx="-1015.8628"
       cy="40"
       rx="1.0006928"
       ry="1.0000308"
       transform="matrix(0,-0.21580431,0.21580431,0,1.7281584,-215.21909)"
       d="m -1014.8621,40 c 0,0.552302 -0.448,1.000031 -1.0007,1.000031 -0.5527,0 -1.0007,-0.447729 -1.0007,-1.000031 0,-0.552302 0.448,-1.000031 1.0007,-1.000031 0.5527,0 1.0007,0.447729 1.0007,1.000031 z" />
    <ellipse
       sodipodi:ry="1.0000308"
       sodipodi:rx="1"
       sodipodi:cy="24"
       sodipodi:cx="-1011.3622"
       style="fill:none;stroke:none"
       id="ellipse3302"
       cx="-1011.3622"
       cy="24"
       rx="1"
       ry="1.0000308"
       transform="matrix(0,-0.21580431,0.21580431,0,1.7281584,-215.21909)"
       d="m -1010.3622,24 c 0,0.552302 -0.4477,1.000031 -1,1.000031 -0.5523,0 -1,-0.447729 -1,-1.000031 0,-0.552302 0.4477,-1.000031 1,-1.000031 0.5523,0 1,0.447729 1,1.000031 z" />
    <ellipse
       sodipodi:ry="1.0000308"
       sodipodi:rx="1.0006928"
       sodipodi:cy="8"
       sodipodi:cx="-1015.8628"
       transform="matrix(0,-0.21580431,0.21580431,0,1.7281584,-215.21909)"
       ry="1.0000308"
       rx="1.0006928"
       cy="8"
       cx="-1015.8628"
       id="ellipse3308"
       style="fill:none;stroke:none"
       d="m -1014.8621,8 c 0,0.5523017 -0.448,1.0000308 -1.0007,1.0000308 -0.5527,0 -1.0007,-0.4477291 -1.0007,-1.0000308 0,-0.5523017 0.448,-1.0000308 1.0007,-1.0000308 0.5527,0 1.0007,0.4477291 1.0007,1.0000308 z" />
    <g
       style="font-size:24.8214283px;font-style:normal;font-variant:normal;font-weight:500;font-stretch:normal;text-align:start;line-height:125%;letter-spacing:0px;word-spacing:0px;writing-mode:lr-tb;text-anchor:start;fill:#ffffff;fill-opacity:1;fill-rule:evenodd;stroke:none;font-family:Helvetica 65 Medium;-inkscape-font-specification:'Helvetica 65 Medium, Medium'"
       id="text4056-0"
       transform="matrix(0.21639165,0,0,0.21639165,0.45572407,-215.91099)">
      <path
         d="m 36.558936,1018.8294 0,-5.4297 -1.551339,0 0,5.4297 1.551339,0 z m -2.327009,0.7757 0,-0.7757 -0.77567,0 0,-5.4297 0.77567,0 0,-0.7756 3.102679,0 0,0.7756 0.775669,0 0,5.4297 -0.775669,0 0,0.7757 -3.102679,0 z"
         style="font-weight:normal;font-family:Game Over;-inkscape-font-specification:Game Over"
         id="path4061-6"
         inkscape:connector-curvature="0" />
    </g>
  </g>
</svg>
