<?xml version="1.0" encoding="UTF-8" standalone="no"?>
<svg
   xmlns:dc="http://purl.org/dc/elements/1.1/"
   xmlns:cc="http://creativecommons.org/ns#"
   xmlns:rdf="http://www.w3.org/1999/02/22-rdf-syntax-ns#"
   xmlns:svg="http://www.w3.org/2000/svg"
   xmlns="http://www.w3.org/2000/svg"
   xmlns:xlink="http://www.w3.org/1999/xlink"
   xmlns:sodipodi="http://sodipodi.sourceforge.net/DTD/sodipodi-0.dtd"
   xmlns:inkscape="http://www.inkscape.org/namespaces/inkscape"
   width="48"
   viewBox="0 0 13.546667 13.546667"
   height="48"
   id="svg2"
   version="1.1"
   inkscape:version="0.48.4 r9939"
   sodipodi:docname="gnome-power-statistics.svg">
  <metadata
     id="metadata62">
    <rdf:RDF>
      <cc:Work
         rdf:about="">
        <dc:format>image/svg+xml</dc:format>
        <dc:type
           rdf:resource="http://purl.org/dc/dcmitype/StillImage" />
        <dc:title></dc:title>
      </cc:Work>
    </rdf:RDF>
  </metadata>
  <sodipodi:namedview
     pagecolor="#828282"
     bordercolor="#666666"
     borderopacity="1"
     objecttolerance="10"
     gridtolerance="10"
     guidetolerance="10"
     inkscape:pageopacity="0.19215686"
     inkscape:pageshadow="2"
     inkscape:window-width="1366"
     inkscape:window-height="716"
     id="namedview60"
     showgrid="false"
     inkscape:zoom="5.6568543"
     inkscape:cx="-3.2276927"
     inkscape:cy="28.655234"
     inkscape:window-x="0"
     inkscape:window-y="28"
     inkscape:window-maximized="1"
     inkscape:current-layer="g38" />
  <defs
     id="defs4">
    <linearGradient
       id="linearGradient3922">
      <stop
         style="stop-color:#004455;stop-opacity:1;"
         offset="0"
         id="stop3924" />
      <stop
         style="stop-color:#005b72;stop-opacity:1;"
         offset="1"
         id="stop3926" />
    </linearGradient>
    <clipPath
       clipPathUnits="userSpaceOnUse"
       id="clipPath6">
      <rect
         width="20"
         x="1"
         y="1"
         rx="2"
         height="20"
         style="fill:#fff;fill-rule:evenodd"
         id="rect8" />
    </clipPath>
    <clipPath
       clipPathUnits="userSpaceOnUse"
       id="clipPath10">
      <rect
         width="84"
         x="6"
         y="6"
         rx="6"
         height="84"
         style="fill:#fff"
         id="rect12" />
    </clipPath>
    <clipPath
       clipPathUnits="userSpaceOnUse"
       id="clipPath14">
      <path
         d="M 54.1,12.5 12.9,54.7 C -2.7,70.3 23,69 32.3,74.9 36.6,77.7 18.5,81.3 22.2,85 c 3.6,3.7 21.7,7.1 25.3,10.7 3.6,3.7 -7.3,7.6 -3.7,11.3 3.5,3.7 11.9,0.2 13.4,8.6 1.1,6.2 15.4,3.1 21.8,-2.2 4,-3.4 -6.9,-3.4 -3.3,-7.1 9,-9.1 17,-4.1 20.3,-12.5 1.8,-4.5 -13.6,-7.7 -9.5,-10.6 9.8,-6.9 45.8,-10.4 29.2,-27 L 73,12.5 c -5.3,-5 -14,-5 -18.9,0 z m -9.9,64.7 c 0.9,0 30.8,4 19.3,7.1 -4.4,1.2 -24.6,-7.1 -19.3,-7.1 z m 57.2,16.6 c 0,2.1 16.3,3.3 15.4,-0.5 -1.3,-6.4 -13.6,-5.9 -15.4,0.5 z m -69.5,11.1 c 3.7,3.2 9.3,-0.7 11.1,-5.2 -3.6,-4.7 -16.9,0.3 -11.1,5.2 z m 67.5,-6.7 c -4.6,4.2 0.8,8.6 5.3,5.7 1.2,-0.8 -0.1,-4.7 -5.3,-5.7 z"
         id="path16" />
    </clipPath>
    <clipPath
       clipPathUnits="userSpaceOnUse"
       id="clipPath18">
      <rect
         width="96"
         x="-100"
         y="-0"
         height="96"
         style="fill:#fff"
         id="rect20" />
    </clipPath>
    <clipPath
       clipPathUnits="userSpaceOnUse"
       id="clipPath22">
      <path
         d="M 95.311,352.545 L 476.403,352.545 L 476.403,71.4229 L 95.311,71.4229 L 95.311,352.545 z"
         id="path24" />
    </clipPath>
    <clipPath
       clipPathUnits="userSpaceOnUse"
       id="clipPath26">
      <path
         d="M 93.311,354.545 L 478.511,354.545 L 478.511,69.1846 L 93.311,69.1846 L 93.311,354.545 z"
         id="path28" />
    </clipPath>
    <clipPath
       clipPathUnits="userSpaceOnUse"
       id="clipPath30">
      <path
         d="M 93.311,69.185 L 478.511,69.185 L 478.511,354.545 L 93.311,354.545 L 93.311,69.185 z"
         id="path32" />
    </clipPath>
    <clipPath
       clipPathUnits="userSpaceOnUse"
       id="clipPath34">
      <path
         d="M 92.311,355.545 L 479.511,355.545 L 479.511,68.1846 L 92.311,68.1846 L 92.311,355.545 z"
         id="path36" />
    </clipPath>
    <linearGradient
       inkscape:collect="always"
       xlink:href="#linearGradient2251"
       id="linearGradient2258"
       x1="21.5"
       y1="43.467159"
       x2="21.5"
       y2="47.532516"
       gradientUnits="userSpaceOnUse" />
    <linearGradient
       inkscape:collect="always"
       id="linearGradient2251">
      <stop
         style="stop-color:#729fcf;stop-opacity:1;"
         offset="0"
         id="stop2253" />
      <stop
         style="stop-color:#729fcf;stop-opacity:0;"
         offset="1"
         id="stop2255" />
    </linearGradient>
    <linearGradient
       inkscape:collect="always"
       xlink:href="#linearGradient3619"
       id="linearGradient3588"
       gradientUnits="userSpaceOnUse"
       gradientTransform="translate(-6.676487,1.334465)"
       x1="20.29458"
       y1="28.568218"
       x2="13.14384"
       y2="14.963111" />
    <linearGradient
       id="linearGradient3619"
       inkscape:collect="always">
      <stop
         id="stop3621"
         offset="0"
         style="stop-color:#82a02b;stop-opacity:1" />
      <stop
         id="stop3623"
         offset="1"
         style="stop-color:#e6edab;stop-opacity:1" />
    </linearGradient>
    <linearGradient
       x1="37.330212"
       y1="33.946251"
       x2="40.628307"
       y2="33.946251"
       id="linearGradient5427"
       xlink:href="#linearGradient5421"
       gradientUnits="userSpaceOnUse"
       gradientTransform="matrix(0.21857168,0,0,0.21857168,1.4498015,1.5683769)" />
    <linearGradient
       id="linearGradient5421">
      <stop
         style="stop-color:#cc0000;stop-opacity:1"
         offset="0"
         id="stop5423" />
      <stop
         style="stop-color:#cc0000;stop-opacity:0"
         offset="1"
         id="stop5425" />
    </linearGradient>
    <linearGradient
       x1="37.330212"
       y1="24.135145"
       x2="41.688969"
       y2="24.135145"
       id="linearGradient5419"
       xlink:href="#linearGradient5413"
       gradientUnits="userSpaceOnUse"
       gradientTransform="translate(0,-2)" />
    <linearGradient
       id="linearGradient5413">
      <stop
         style="stop-color:#204a87;stop-opacity:1"
         offset="0"
         id="stop5415" />
      <stop
         style="stop-color:#204a87;stop-opacity:0"
         offset="1"
         id="stop5417" />
    </linearGradient>
  </defs>
  <g
     style="fill-rule:evenodd"
     id="g38">
    <rect
       width="11.746"
       x="0.89999998"
       y="0.90100002"
       rx="5.8730001"
       height="11.746"
       style="fill:#a02c2c;fill-opacity:1;stroke:none"
       id="rect42" />
    <g
       transform="matrix(0.11531627,0,0,0.11531627,3.9211615,3.8898451)"
       id="layer1" />
    <g
       id="g3389"
       style="fill:#f9f9f9;stroke:#f9f9f9;stroke-linejoin:round"
       transform="matrix(0.93639221,0.01779363,-0.01779363,0.93639221,0.58795522,0.39238226)">
      <g
         id="g3393"
         style="fill-opacity:0;stroke-width:0.58899999" />
    </g>
    <g
       style="fill:#ff0000"
       transform="matrix(0.6257,-0.17122,0.16355,0.62365,-1.682749,2.2385598)"
       id="g34" />
    <g
       id="layer0"
       transform="matrix(0.37899963,0,0,0.37899963,-2.1648819,-2.9145557)" />
    <rect
       style="fill:#ffffff;fill-opacity:1;stroke:none"
       id="rect858"
       width="6.7262964"
       height="6.1148157"
       x="0.9852618"
       y="5.5173922"
       transform="matrix(0.94877161,-0.3159627,0.3159627,0.94877161,0,0)" />
    <path
       inkscape:connector-curvature="0"
       style="fill:#bfccd7;fill-opacity:1;fill-rule:evenodd;stroke:none"
       d="M 5.8801068,7.1601436 4.4048546,10.108585 4.6101351,10.725001 10.991853,8.5997424 10.786573,7.9833268 7.8381342,6.5080755 7.1851545,7.8131233 5.8801068,7.1601436 z"
       id="path4254" />
    <path
       inkscape:connector-curvature="0"
       style="fill:#bfccd7;fill-opacity:1;fill-rule:evenodd;stroke:none"
       d="M 2.6780815,4.9234373 2.9437391,5.721153 7.1972297,7.8493825 9.3254569,3.5958947 9.0597993,2.798179 2.6780815,4.9234373 z"
       id="path4251" />
    <path
       inkscape:connector-curvature="0"
       style="fill:#ffffff;fill-opacity:1;fill-rule:evenodd;stroke:none"
       d="M 5.9888481,7.2447728 4.4652311,10.289884 4.6101351,10.725001 10.991853,8.5997424 10.846949,8.1646253 7.8018378,6.6410057 7.1972297,7.8493825 5.9888481,7.2447728 z"
       id="path4238" />
    <ellipse
       sodipodi:ry="1.0000308"
       sodipodi:rx="1"
       sodipodi:cy="713.8125"
       sodipodi:cx="181.2366"
       transform="matrix(0.14503907,-0.04830133,0.04830133,0.14503907,-57.265409,-86.904183)"
       style="fill:none;stroke:none"
       id="path3265"
       cx="181.2366"
       cy="713.8125"
       rx="1"
       ry="1.0000308" />
    <ellipse
       sodipodi:ry="1.0000308"
       sodipodi:rx="1"
       sodipodi:cy="713.8125"
       sodipodi:cx="227.2366"
       transform="matrix(0.14503907,-0.04830133,0.04830133,0.14503907,-57.265409,-86.904183)"
       ry="1.0000308"
       rx="1"
       cy="713.8125"
       cx="227.2366"
       id="ellipse3267"
       style="fill:none;stroke:none" />
    <ellipse
       sodipodi:ry="2.0000615"
       sodipodi:rx="2"
       sodipodi:cy="-204.2366"
       sodipodi:cx="731.8125"
       transform="matrix(0.04830133,0.14503907,-0.14503907,0.04830133,-57.265409,-86.904183)"
       ry="2.0000615"
       rx="2"
       cy="-204.2366"
       cx="731.8125"
       id="ellipse3325"
       style="fill:none;stroke:none" />
    <ellipse
       sodipodi:ry="2.0000615"
       sodipodi:rx="2"
       sodipodi:cy="-204.2366"
       sodipodi:cx="695.8125"
       style="fill:none;stroke:none"
       id="ellipse3323"
       cx="695.8125"
       cy="-204.2366"
       rx="2"
       ry="2.0000615"
       transform="matrix(0.04830133,0.14503907,-0.14503907,0.04830133,-57.265409,-86.904183)" />
    <path
       inkscape:connector-curvature="0"
       style="fill:#ffffff;fill-opacity:1;fill-rule:evenodd;stroke:none"
       d="M 2.6780815,4.9234373 2.8229855,5.3585544 7.0764763,7.4867847 9.2047032,3.2332961 9.0597993,2.798179 2.6780815,4.9234373 z"
       id="path4219" />
    <ellipse
       sodipodi:ry="2.0000615"
       sodipodi:rx="2.0013857"
       sodipodi:cy="-204.2366"
       sodipodi:cx="716.8111"
       transform="matrix(0.04830133,0.14503907,-0.14503907,0.04830133,-57.265409,-86.904183)"
       style="fill:none;stroke:none"
       id="ellipse4227"
       cx="716.8111"
       cy="-204.2366"
       rx="2.0013857"
       ry="2.0000615"
       d="m 718.81248,-204.2366 a 2.0013857,2.0000615 0 0 1 -2.00138,2.00006 2.0013857,2.0000615 0 0 1 -2.00139,-2.00006 2.0013857,2.0000615 0 0 1 2.00139,-2.00006 2.0013857,2.0000615 0 0 1 2.00138,2.00006 z" />
    <ellipse
       sodipodi:ry="1.0000308"
       sodipodi:rx="1.0006928"
       sodipodi:cy="-204.2366"
       sodipodi:cx="719.81177"
       transform="matrix(0.04830133,0.14503907,-0.14503907,0.04830133,-57.265409,-86.904183)"
       ry="1.0000308"
       rx="1.0006928"
       cy="-204.2366"
       cx="719.81177"
       id="ellipse4234"
       style="fill:none;stroke:none"
       d="m 720.81246,-204.2366 a 1.0006928,1.0000308 0 0 1 -1.00069,1.00003 1.0006928,1.0000308 0 0 1 -1.0007,-1.00003 1.0006928,1.0000308 0 0 1 1.0007,-1.00003 1.0006928,1.0000308 0 0 1 1.00069,1.00003 z" />
  </g>
</svg>
