<?xml version="1.0" encoding="UTF-8" standalone="no"?>
<svg
   xmlns:dc="http://purl.org/dc/elements/1.1/"
   xmlns:cc="http://creativecommons.org/ns#"
   xmlns:rdf="http://www.w3.org/1999/02/22-rdf-syntax-ns#"
   xmlns:svg="http://www.w3.org/2000/svg"
   xmlns="http://www.w3.org/2000/svg"
   xmlns:sodipodi="http://sodipodi.sourceforge.net/DTD/sodipodi-0.dtd"
   xmlns:inkscape="http://www.inkscape.org/namespaces/inkscape"
   width="48"
   viewBox="0 0 13.546667 13.546667"
   height="48"
   id="svg2"
   version="1.1"
   inkscape:version="0.48.4 r9939"
   sodipodi:docname="user-desktop.svg">
  <metadata
     id="metadata62">
    <rdf:RDF>
      <cc:Work
         rdf:about="">
        <dc:format>image/svg+xml</dc:format>
        <dc:type
           rdf:resource="http://purl.org/dc/dcmitype/StillImage" />
        <dc:title></dc:title>
      </cc:Work>
    </rdf:RDF>
  </metadata>
  <sodipodi:namedview
     pagecolor="#ffffff"
     bordercolor="#666666"
     borderopacity="1"
     objecttolerance="10"
     gridtolerance="10"
     guidetolerance="10"
     inkscape:pageopacity="0"
     inkscape:pageshadow="2"
     inkscape:window-width="1366"
     inkscape:window-height="716"
     id="namedview60"
     showgrid="false"
     inkscape:zoom="4.9166667"
     inkscape:cx="-6.6197805"
     inkscape:cy="16.380026"
     inkscape:window-x="0"
     inkscape:window-y="28"
     inkscape:window-maximized="1"
     inkscape:current-layer="g38" />
  <defs
     id="defs4">
    <clipPath
       clipPathUnits="userSpaceOnUse"
       id="clipPath6">
      <rect
         width="20"
         x="1"
         y="1"
         rx="2"
         height="20"
         style="fill:#fff;fill-rule:evenodd"
         id="rect8" />
    </clipPath>
    <clipPath
       clipPathUnits="userSpaceOnUse"
       id="clipPath10">
      <rect
         width="84"
         x="6"
         y="6"
         rx="6"
         height="84"
         style="fill:#fff"
         id="rect12" />
    </clipPath>
    <clipPath
       clipPathUnits="userSpaceOnUse"
       id="clipPath14">
      <path
         d="M 54.1,12.5 12.9,54.7 C -2.7,70.3 23,69 32.3,74.9 36.6,77.7 18.5,81.3 22.2,85 c 3.6,3.7 21.7,7.1 25.3,10.7 3.6,3.7 -7.3,7.6 -3.7,11.3 3.5,3.7 11.9,0.2 13.4,8.6 1.1,6.2 15.4,3.1 21.8,-2.2 4,-3.4 -6.9,-3.4 -3.3,-7.1 9,-9.1 17,-4.1 20.3,-12.5 1.8,-4.5 -13.6,-7.7 -9.5,-10.6 9.8,-6.9 45.8,-10.4 29.2,-27 L 73,12.5 c -5.3,-5 -14,-5 -18.9,0 z m -9.9,64.7 c 0.9,0 30.8,4 19.3,7.1 -4.4,1.2 -24.6,-7.1 -19.3,-7.1 z m 57.2,16.6 c 0,2.1 16.3,3.3 15.4,-0.5 -1.3,-6.4 -13.6,-5.9 -15.4,0.5 z m -69.5,11.1 c 3.7,3.2 9.3,-0.7 11.1,-5.2 -3.6,-4.7 -16.9,0.3 -11.1,5.2 z m 67.5,-6.7 c -4.6,4.2 0.8,8.6 5.3,5.7 1.2,-0.8 -0.1,-4.7 -5.3,-5.7 z"
         id="path16" />
    </clipPath>
    <clipPath
       clipPathUnits="userSpaceOnUse"
       id="clipPath18">
      <rect
         width="96"
         x="-100"
         y="-0"
         height="96"
         style="fill:#fff"
         id="rect20" />
    </clipPath>
    <clipPath
       clipPathUnits="userSpaceOnUse"
       id="clipPath22">
      <path
         d="M 95.311,352.545 L 476.403,352.545 L 476.403,71.4229 L 95.311,71.4229 L 95.311,352.545 z"
         id="path24" />
    </clipPath>
    <clipPath
       clipPathUnits="userSpaceOnUse"
       id="clipPath26">
      <path
         d="M 93.311,354.545 L 478.511,354.545 L 478.511,69.1846 L 93.311,69.1846 L 93.311,354.545 z"
         id="path28" />
    </clipPath>
    <clipPath
       clipPathUnits="userSpaceOnUse"
       id="clipPath30">
      <path
         d="M 93.311,69.185 L 478.511,69.185 L 478.511,354.545 L 93.311,354.545 L 93.311,69.185 z"
         id="path32" />
    </clipPath>
    <clipPath
       clipPathUnits="userSpaceOnUse"
       id="clipPath34">
      <path
         d="M 92.311,355.545 L 479.511,355.545 L 479.511,68.1846 L 92.311,68.1846 L 92.311,355.545 z"
         id="path36" />
    </clipPath>
  </defs>
  <g
     style="fill-rule:evenodd"
     id="g38">
    <rect
       width="11.746"
       x=".9"
       y=".901"
       rx="5.873"
       height="11.746"
       style="fill:#3771c8;stroke-width:0.02822222000000000;stroke-miterlimit:4;stroke-dasharray:none;stroke:none;stroke-opacity:1;fill-opacity:1"
       id="rect42" />
    <rect
       style="fill:#efefef;fill-opacity:0.96396399;stroke:none"
       id="rect825"
       width="1.0135934"
       height="1.0135933"
       x="3.3818839"
       y="6.4994125" />
    <rect
       y="8.2788477"
       x="3.3479085"
       height="1.0135933"
       width="1.0135934"
       id="rect827"
       style="fill:#efefef;fill-opacity:0.96396399;stroke:none" />
    <path
       transform="matrix(0.42333335,0,0,0.42333335,-7.7357793,-423.01699)"
       d="m 39.605666,1013.3622 a 1.0006928,1.0000308 0 1 1 -2.001386,0 1.0006928,1.0000308 0 1 1 2.001386,0 z"
       sodipodi:ry="1.0000308"
       sodipodi:rx="1.0006928"
       sodipodi:cy="1013.3622"
       sodipodi:cx="38.604973"
       id="path3305"
       style="fill:none;stroke:none"
       sodipodi:type="arc" />
    <path
       transform="matrix(0.42333335,0,0,0.42333335,-7.7357793,-423.01699)"
       sodipodi:type="arc"
       style="fill:none;stroke:none"
       id="path3307"
       sodipodi:cx="34.210655"
       sodipodi:cy="1013.3622"
       sodipodi:rx="1.0006928"
       sodipodi:ry="1.0000308"
       d="m 35.211348,1013.3622 a 1.0006928,1.0000308 0 1 1 -2.001386,0 1.0006928,1.0000308 0 1 1 2.001386,0 z" />
    <rect
       y="4.5477743"
       x="3.3584588"
       height="1.0135933"
       width="1.0135934"
       id="rect3309"
       style="fill:#efefef;fill-opacity:0.96396399;stroke:none" />
    <path
       style="fill:#5b5b5b;fill-opacity:1;stroke:none"
       d="M 24.988435,3.12868 C 20.26424,3.1088671 16.68918,3.8521967 13.123423,6.2567288 L 35.343355,6.58032 C 34.792964,5.925383 30.226099,3.3826698 24.988435,3.12868 z"
       id="path3951"
       inkscape:connector-curvature="0"
       transform="scale(0.28222223,0.28222223)"
       sodipodi:nodetypes="cccc" />
    <path
       sodipodi:type="arc"
       style="fill:#f9f9f9;fill-opacity:1;stroke:none"
       id="path4461"
       sodipodi:cx="23.618645"
       sodipodi:cy="-3.3305101"
       sodipodi:rx="2.1101696"
       sodipodi:ry="1.8050848"
       d="m 25.728814,-3.3305101 a 2.1101696,1.8050848 0 1 1 -4.220339,0 2.1101696,1.8050848 0 1 1 4.220339,0 z"
       transform="matrix(0.07055556,0,0,0.07055556,2.6583899,1.8009602)" />
    <path
       sodipodi:type="arc"
       style="fill:#f9f9f9;fill-opacity:1;fill-rule:evenodd;stroke:none"
       id="path4461-8"
       sodipodi:cx="23.618645"
       sodipodi:cy="-3.3305101"
       sodipodi:rx="2.1101696"
       sodipodi:ry="1.8050848"
       d="m 25.728814,-3.3305101 a 2.1101696,1.8050848 0 1 1 -4.220339,0 2.1101696,1.8050848 0 1 1 4.220339,0 z"
       transform="matrix(0.07055556,0,0,0.07055556,6.8432913,1.827867)" />
    <path
       sodipodi:type="arc"
       style="fill:#f9f9f9;fill-opacity:1;fill-rule:evenodd;stroke:none"
       id="path4461-2"
       sodipodi:cx="23.618645"
       sodipodi:cy="-3.3305101"
       sodipodi:rx="2.1101696"
       sodipodi:ry="1.8050848"
       d="m 25.728814,-3.3305101 a 2.1101696,1.8050848 0 1 1 -4.220339,0 2.1101696,1.8050848 0 1 1 4.220339,0 z"
       transform="matrix(0.07055556,0,0,0.07055556,7.2163989,1.8422173)" />
    <path
       sodipodi:type="arc"
       style="fill:#f9f9f9;fill-opacity:1;fill-rule:evenodd;stroke:none"
       id="path4461-5"
       sodipodi:cx="23.618645"
       sodipodi:cy="-3.3305101"
       sodipodi:rx="2.1101696"
       sodipodi:ry="1.8050848"
       d="m 25.728814,-3.3305101 a 2.1101696,1.8050848 0 1 1 -4.220339,0 2.1101696,1.8050848 0 1 1 4.220339,0 z"
       transform="matrix(0.07055556,0,0,0.07055556,7.5895061,1.8565676)" />
    <rect
       style="fill:#ffffff;fill-opacity:1;fill-rule:evenodd;stroke:none"
       id="rect3427"
       width="6.7733335"
       height="6.7733335"
       x="3.5875702"
       y="3.2144637"
       ry="3.3866668" />
    <circle
       style="fill:none;stroke:none"
       id="circle3308"
       cx="1"
       cy="1028.3622"
       r="1"
       d="m 2,1028.3622 c 0,0.5523 -0.4477153,1 -1,1 -0.55228475,0 -1,-0.4477 -1,-1 0,-0.5523 0.44771525,-1 1,-1 0.5522847,0 1,0.4477 1,1 z"
       sodipodi:cx="1"
       sodipodi:cy="1028.3622"
       sodipodi:rx="1"
       sodipodi:ry="1"
       transform="matrix(0.28222223,0,0,0.28222223,0.20090402,-283.20221)" />
    <rect
       ry="2.8222222"
       y="3.7789083"
       x="4.1520157"
       height="5.6444445"
       width="5.6444445"
       id="rect3429"
       style="fill:#000000;fill-opacity:1;fill-rule:evenodd;stroke:none" />
    <rect
       style="fill:#435564;fill-opacity:1;fill-rule:evenodd;stroke:none"
       id="rect3431"
       width="4.5155559"
       height="4.5155559"
       x="4.7164593"
       y="4.3433528"
       ry="2.2577779" />
    <rect
       ry="1.6933334"
       y="4.9077964"
       x="5.2809048"
       height="3.3866668"
       width="3.3866668"
       id="rect3433"
       style="fill:#103151;fill-opacity:1;fill-rule:evenodd;stroke:none" />
    <rect
       style="fill:#202332;fill-opacity:1;fill-rule:evenodd;stroke:none"
       id="rect3435"
       width="2.2577779"
       height="2.2577779"
       x="5.8453484"
       y="5.4722409"
       ry="1.128889" />
    <rect
       ry="0.56444448"
       y="5.4722409"
       x="6.9742374"
       height="1.128889"
       width="1.128889"
       id="rect3437"
       style="fill:#8ea6bb;fill-opacity:1;fill-rule:evenodd;stroke:none" />
    <rect
       style="fill:#8ea6bb;fill-opacity:1;fill-rule:evenodd;stroke:none"
       id="rect3439"
       width="0.56444448"
       height="0.56444448"
       x="5.8453484"
       y="7.1655746"
       ry="0.28222224" />
  </g>
</svg>
