<?xml version="1.0" encoding="UTF-8" standalone="no"?>
<svg
   xmlns:dc="http://purl.org/dc/elements/1.1/"
   xmlns:cc="http://creativecommons.org/ns#"
   xmlns:rdf="http://www.w3.org/1999/02/22-rdf-syntax-ns#"
   xmlns:svg="http://www.w3.org/2000/svg"
   xmlns="http://www.w3.org/2000/svg"
   xmlns:xlink="http://www.w3.org/1999/xlink"
   xmlns:sodipodi="http://sodipodi.sourceforge.net/DTD/sodipodi-0.dtd"
   xmlns:inkscape="http://www.inkscape.org/namespaces/inkscape"
   width="48"
   viewBox="0 0 13.546667 13.546667"
   height="48"
   id="svg2"
   version="1.1"
   inkscape:version="0.48.4 r9939"
   sodipodi:docname="scanner.svg">
  <metadata
     id="metadata62">
    <rdf:RDF>
      <cc:Work
         rdf:about="">
        <dc:format>image/svg+xml</dc:format>
        <dc:type
           rdf:resource="http://purl.org/dc/dcmitype/StillImage" />
        <dc:title></dc:title>
      </cc:Work>
    </rdf:RDF>
  </metadata>
  <sodipodi:namedview
     pagecolor="#ffffff"
     bordercolor="#666666"
     borderopacity="1"
     objecttolerance="10"
     gridtolerance="10"
     guidetolerance="10"
     inkscape:pageopacity="0"
     inkscape:pageshadow="2"
     inkscape:window-width="1366"
     inkscape:window-height="716"
     id="namedview60"
     showgrid="false"
     inkscape:zoom="5.6568543"
     inkscape:cx="-15.326387"
     inkscape:cy="11.305139"
     inkscape:window-x="0"
     inkscape:window-y="28"
     inkscape:window-maximized="1"
     inkscape:current-layer="g38"
     showguides="true"
     inkscape:guide-bbox="true" />
  <defs
     id="defs4">
    <linearGradient
       id="linearGradient3922">
      <stop
         style="stop-color:#004455;stop-opacity:1;"
         offset="0"
         id="stop3924" />
      <stop
         style="stop-color:#005b72;stop-opacity:1;"
         offset="1"
         id="stop3926" />
    </linearGradient>
    <clipPath
       clipPathUnits="userSpaceOnUse"
       id="clipPath6">
      <rect
         width="20"
         x="1"
         y="1"
         rx="2"
         height="20"
         style="fill:#fff;fill-rule:evenodd"
         id="rect8" />
    </clipPath>
    <clipPath
       clipPathUnits="userSpaceOnUse"
       id="clipPath10">
      <rect
         width="84"
         x="6"
         y="6"
         rx="6"
         height="84"
         style="fill:#fff"
         id="rect12" />
    </clipPath>
    <clipPath
       clipPathUnits="userSpaceOnUse"
       id="clipPath14">
      <path
         d="M 54.1,12.5 12.9,54.7 C -2.7,70.3 23,69 32.3,74.9 36.6,77.7 18.5,81.3 22.2,85 c 3.6,3.7 21.7,7.1 25.3,10.7 3.6,3.7 -7.3,7.6 -3.7,11.3 3.5,3.7 11.9,0.2 13.4,8.6 1.1,6.2 15.4,3.1 21.8,-2.2 4,-3.4 -6.9,-3.4 -3.3,-7.1 9,-9.1 17,-4.1 20.3,-12.5 1.8,-4.5 -13.6,-7.7 -9.5,-10.6 9.8,-6.9 45.8,-10.4 29.2,-27 L 73,12.5 c -5.3,-5 -14,-5 -18.9,0 z m -9.9,64.7 c 0.9,0 30.8,4 19.3,7.1 -4.4,1.2 -24.6,-7.1 -19.3,-7.1 z m 57.2,16.6 c 0,2.1 16.3,3.3 15.4,-0.5 -1.3,-6.4 -13.6,-5.9 -15.4,0.5 z m -69.5,11.1 c 3.7,3.2 9.3,-0.7 11.1,-5.2 -3.6,-4.7 -16.9,0.3 -11.1,5.2 z m 67.5,-6.7 c -4.6,4.2 0.8,8.6 5.3,5.7 1.2,-0.8 -0.1,-4.7 -5.3,-5.7 z"
         id="path16" />
    </clipPath>
    <clipPath
       clipPathUnits="userSpaceOnUse"
       id="clipPath18">
      <rect
         width="96"
         x="-100"
         y="-0"
         height="96"
         style="fill:#fff"
         id="rect20" />
    </clipPath>
    <clipPath
       clipPathUnits="userSpaceOnUse"
       id="clipPath22">
      <path
         d="M 95.311,352.545 L 476.403,352.545 L 476.403,71.4229 L 95.311,71.4229 L 95.311,352.545 z"
         id="path24" />
    </clipPath>
    <clipPath
       clipPathUnits="userSpaceOnUse"
       id="clipPath26">
      <path
         d="M 93.311,354.545 L 478.511,354.545 L 478.511,69.1846 L 93.311,69.1846 L 93.311,354.545 z"
         id="path28" />
    </clipPath>
    <clipPath
       clipPathUnits="userSpaceOnUse"
       id="clipPath30">
      <path
         d="M 93.311,69.185 L 478.511,69.185 L 478.511,354.545 L 93.311,354.545 L 93.311,69.185 z"
         id="path32" />
    </clipPath>
    <clipPath
       clipPathUnits="userSpaceOnUse"
       id="clipPath34">
      <path
         d="M 92.311,355.545 L 479.511,355.545 L 479.511,68.1846 L 92.311,68.1846 L 92.311,355.545 z"
         id="path36" />
    </clipPath>
    <linearGradient
       inkscape:collect="always"
       xlink:href="#linearGradient2251"
       id="linearGradient2258"
       x1="21.5"
       y1="43.467159"
       x2="21.5"
       y2="47.532516"
       gradientUnits="userSpaceOnUse" />
    <linearGradient
       inkscape:collect="always"
       id="linearGradient2251">
      <stop
         style="stop-color:#729fcf;stop-opacity:1;"
         offset="0"
         id="stop2253" />
      <stop
         style="stop-color:#729fcf;stop-opacity:0;"
         offset="1"
         id="stop2255" />
    </linearGradient>
    <linearGradient
       gradientTransform="matrix(0.13,0,0,0.14103,2.41492,-32.46617)"
       xlink:href="#linearGradient3896"
       id="linearGradient3006"
       x1="5.3039999"
       gradientUnits="userSpaceOnUse"
       x2="61.748001" />
    <linearGradient
       id="linearGradient3896">
      <stop
         offset="0"
         style="stop-color:#5dac12"
         id="stop9" />
      <stop
         offset="1"
         style="stop-color:#76c925"
         id="stop11" />
    </linearGradient>
    <linearGradient
       inkscape:collect="always"
       xlink:href="#linearGradient6963-199-896"
       id="linearGradient6457"
       gradientUnits="userSpaceOnUse"
       gradientTransform="matrix(4.895429,-1.3086414,1.1623533,4.3761806,-614.63541,-97.40367)"
       x1="15.194299"
       y1="13.018784"
       x2="14.486301"
       y2="26.07235" />
    <linearGradient
       inkscape:collect="always"
       id="linearGradient6963-199-896">
      <stop
         offset="0"
         id="stop7684"
         style="stop-color:#a2c6ff;stop-opacity:1" />
      <stop
         offset="1"
         id="stop7686"
         style="stop-color:#9f7e42;stop-opacity:1" />
    </linearGradient>
    <linearGradient
       id="linearGradient2911-613-519">
      <stop
         offset="0"
         id="stop7648"
         style="stop-color:#ffffe0;stop-opacity:1;" />
      <stop
         offset="1"
         id="stop7650"
         style="stop-color:#ffe588;stop-opacity:0;" />
    </linearGradient>
    <linearGradient
       id="linearGradient2911-198-956">
      <stop
         offset="0"
         id="stop7654"
         style="stop-color:#ffffe0;stop-opacity:1;" />
      <stop
         offset="1"
         id="stop7656"
         style="stop-color:#ffe588;stop-opacity:0;" />
    </linearGradient>
    <linearGradient
       id="linearGradient2911-977-39">
      <stop
         offset="0"
         id="stop7660"
         style="stop-color:#ffffe0;stop-opacity:1;" />
      <stop
         offset="1"
         id="stop7662"
         style="stop-color:#ffe588;stop-opacity:0;" />
    </linearGradient>
    <linearGradient
       inkscape:collect="always"
       xlink:href="#linearGradient2782-839-396"
       id="linearGradient7090"
       gradientUnits="userSpaceOnUse"
       gradientTransform="matrix(4.9036558,0,0,4.3816704,-363.57105,-134.91588)"
       x1="20"
       y1="13.577349"
       x2="17.269999"
       y2="32.698772" />
    <linearGradient
       inkscape:collect="always"
       id="linearGradient2782-839-396">
      <stop
         offset="0"
         id="stop7582"
         style="stop-color:#8dc5ff;stop-opacity:1" />
      <stop
         offset="1"
         id="stop7584"
         style="stop-color:#f2c600;stop-opacity:1" />
    </linearGradient>
    <linearGradient
       inkscape:collect="always"
       xlink:href="#linearGradient6963-199-896-0"
       id="linearGradient6457-9"
       gradientUnits="userSpaceOnUse"
       gradientTransform="matrix(4.895429,-1.3086414,1.1623533,4.3761806,-614.63541,-97.40367)"
       x1="15.194299"
       y1="13.018784"
       x2="14.486301"
       y2="26.07235" />
    <linearGradient
       inkscape:collect="always"
       id="linearGradient6963-199-896-0">
      <stop
         offset="0"
         id="stop7684-1"
         style="stop-color:#a2c6ff;stop-opacity:1" />
      <stop
         offset="1"
         id="stop7686-7"
         style="stop-color:#9f7e42;stop-opacity:1" />
    </linearGradient>
    <clipPath
       id="clipPath198"
       clipPathUnits="userSpaceOnUse">
      <path
         inkscape:connector-curvature="0"
         d="m 3213.98,3344.37 c -15.44,0 -31.06,4.19 -45.1,12.98 -226.76,141.73 -488.58,216.65 -757.12,216.65 -149.2,0 -296.38,-22.94 -437.44,-68.2 -44.84,-14.35 -92.86,10.31 -107.25,55.16 -14.38,44.83 10.32,92.85 55.16,107.24 157.92,50.65 322.63,76.35 489.53,76.35 300.53,0 593.59,-83.89 847.49,-242.58 39.95,-24.97 52.07,-77.57 27.12,-117.51 -16.17,-25.86 -43.97,-40.09 -72.39,-40.09 z"
         id="path7" />
    </clipPath>
    <clipPath
       id="clipPath182"
       clipPathUnits="userSpaceOnUse">
      <path
         inkscape:connector-curvature="0"
         d="m 3369.85,3687.72 c -16.29,0 -32.8,4.21 -47.88,13.08 -274.98,161.5 -589.72,246.88 -910.21,246.88 -173.15,0 -344.61,-24.65 -509.62,-73.28 -50.25,-14.79 -102.87,13.93 -117.67,64.11 -14.77,50.2 13.93,102.88 64.12,117.66 182.42,53.74 371.89,80.99 563.17,80.99 354.19,0 702.15,-94.39 1006.18,-272.98 45.13,-26.5 60.22,-84.55 33.72,-129.68 -17.66,-30.05 -49.31,-46.78 -81.81,-46.78 z"
         id="path10" />
    </clipPath>
    <clipPath
       id="clipPath182-9"
       clipPathUnits="userSpaceOnUse">
      <path
         inkscape:connector-curvature="0"
         d="m 3369.85,3687.72 c -16.29,0 -32.8,4.21 -47.88,13.08 -274.98,161.5 -589.72,246.88 -910.21,246.88 -173.15,0 -344.61,-24.65 -509.62,-73.28 -50.25,-14.79 -102.87,13.93 -117.67,64.11 -14.77,50.2 13.93,102.88 64.12,117.66 182.42,53.74 371.89,80.99 563.17,80.99 354.19,0 702.15,-94.39 1006.18,-272.98 45.13,-26.5 60.22,-84.55 33.72,-129.68 -17.66,-30.05 -49.31,-46.78 -81.81,-46.78 z"
         id="path10-0" />
    </clipPath>
    <clipPath
       id="clipPath198-0"
       clipPathUnits="userSpaceOnUse">
      <path
         inkscape:connector-curvature="0"
         d="m 3213.98,3344.37 c -15.44,0 -31.06,4.19 -45.1,12.98 -226.76,141.73 -488.58,216.65 -757.12,216.65 -149.2,0 -296.38,-22.94 -437.44,-68.2 -44.84,-14.35 -92.86,10.31 -107.25,55.16 -14.38,44.83 10.32,92.85 55.16,107.24 157.92,50.65 322.63,76.35 489.53,76.35 300.53,0 593.59,-83.89 847.49,-242.58 39.95,-24.97 52.07,-77.57 27.12,-117.51 -16.17,-25.86 -43.97,-40.09 -72.39,-40.09 z"
         id="path7-2" />
    </clipPath>
    <clipPath
       id="clipPath182-96"
       clipPathUnits="userSpaceOnUse">
      <path
         inkscape:connector-curvature="0"
         d="m 3369.85,3687.72 c -16.29,0 -32.8,4.21 -47.88,13.08 -274.98,161.5 -589.72,246.88 -910.21,246.88 -173.15,0 -344.61,-24.65 -509.62,-73.28 -50.25,-14.79 -102.87,13.93 -117.67,64.11 -14.77,50.2 13.93,102.88 64.12,117.66 182.42,53.74 371.89,80.99 563.17,80.99 354.19,0 702.15,-94.39 1006.18,-272.98 45.13,-26.5 60.22,-84.55 33.72,-129.68 -17.66,-30.05 -49.31,-46.78 -81.81,-46.78 z"
         id="path10-6" />
    </clipPath>
    <clipPath
       id="clipPath198-4"
       clipPathUnits="userSpaceOnUse">
      <path
         inkscape:connector-curvature="0"
         d="m 3213.98,3344.37 c -15.44,0 -31.06,4.19 -45.1,12.98 -226.76,141.73 -488.58,216.65 -757.12,216.65 -149.2,0 -296.38,-22.94 -437.44,-68.2 -44.84,-14.35 -92.86,10.31 -107.25,55.16 -14.38,44.83 10.32,92.85 55.16,107.24 157.92,50.65 322.63,76.35 489.53,76.35 300.53,0 593.59,-83.89 847.49,-242.58 39.95,-24.97 52.07,-77.57 27.12,-117.51 -16.17,-25.86 -43.97,-40.09 -72.39,-40.09 z"
         id="path7-23" />
    </clipPath>
    <clipPath
       id="clipPath198-4-5"
       clipPathUnits="userSpaceOnUse">
      <path
         inkscape:connector-curvature="0"
         d="m 3213.98,3344.37 c -15.44,0 -31.06,4.19 -45.1,12.98 -226.76,141.73 -488.58,216.65 -757.12,216.65 -149.2,0 -296.38,-22.94 -437.44,-68.2 -44.84,-14.35 -92.86,10.31 -107.25,55.16 -14.38,44.83 10.32,92.85 55.16,107.24 157.92,50.65 322.63,76.35 489.53,76.35 300.53,0 593.59,-83.89 847.49,-242.58 39.95,-24.97 52.07,-77.57 27.12,-117.51 -16.17,-25.86 -43.97,-40.09 -72.39,-40.09 z"
         id="path7-23-6" />
    </clipPath>
    <clipPath
       id="clipPath182-96-3"
       clipPathUnits="userSpaceOnUse">
      <path
         inkscape:connector-curvature="0"
         d="m 3369.85,3687.72 c -16.29,0 -32.8,4.21 -47.88,13.08 -274.98,161.5 -589.72,246.88 -910.21,246.88 -173.15,0 -344.61,-24.65 -509.62,-73.28 -50.25,-14.79 -102.87,13.93 -117.67,64.11 -14.77,50.2 13.93,102.88 64.12,117.66 182.42,53.74 371.89,80.99 563.17,80.99 354.19,0 702.15,-94.39 1006.18,-272.98 45.13,-26.5 60.22,-84.55 33.72,-129.68 -17.66,-30.05 -49.31,-46.78 -81.81,-46.78 z"
         id="path10-6-8" />
    </clipPath>
    <clipPath
       id="clipPath198-07"
       clipPathUnits="userSpaceOnUse">
      <path
         inkscape:connector-curvature="0"
         d="m 3213.98,3344.37 c -15.44,0 -31.06,4.19 -45.1,12.98 -226.76,141.73 -488.58,216.65 -757.12,216.65 -149.2,0 -296.38,-22.94 -437.44,-68.2 -44.84,-14.35 -92.86,10.31 -107.25,55.16 -14.38,44.83 10.32,92.85 55.16,107.24 157.92,50.65 322.63,76.35 489.53,76.35 300.53,0 593.59,-83.89 847.49,-242.58 39.95,-24.97 52.07,-77.57 27.12,-117.51 -16.17,-25.86 -43.97,-40.09 -72.39,-40.09 z"
         id="path7-4" />
    </clipPath>
    <clipPath
       id="clipPath182-6"
       clipPathUnits="userSpaceOnUse">
      <path
         inkscape:connector-curvature="0"
         d="m 3369.85,3687.72 c -16.29,0 -32.8,4.21 -47.88,13.08 -274.98,161.5 -589.72,246.88 -910.21,246.88 -173.15,0 -344.61,-24.65 -509.62,-73.28 -50.25,-14.79 -102.87,13.93 -117.67,64.11 -14.77,50.2 13.93,102.88 64.12,117.66 182.42,53.74 371.89,80.99 563.17,80.99 354.19,0 702.15,-94.39 1006.18,-272.98 45.13,-26.5 60.22,-84.55 33.72,-129.68 -17.66,-30.05 -49.31,-46.78 -81.81,-46.78 z"
         id="path10-7" />
    </clipPath>
  </defs>
  <g
     style="fill-rule:evenodd"
     id="g38">
    <rect
       width="11.746"
       x=".9"
       y=".901"
       rx="5.873"
       height="11.746"
       style="fill:#b3b3b3;stroke-width:0.02822222000000000;stroke-miterlimit:4;stroke-dasharray:none;stroke:none;stroke-opacity:1;fill-opacity:1"
       id="rect42" />
    <g
       transform="matrix(0.11531627,0,0,0.11531627,3.9211615,3.8898451)"
       id="layer1" />
    <g
       id="g3389"
       style="fill:#f9f9f9;stroke:#f9f9f9;stroke-linejoin:round"
       transform="matrix(0.93639221,0.01779363,-0.01779363,0.93639221,0.58795522,0.39238226)">
      <g
         id="g3393"
         style="fill-opacity:0;stroke-width:0.58899999" />
    </g>
    <path
       style="fill:#f9f9f9"
       d="M 4.3281672,3.9400612 C 4.1743301,3.9812417 4.0810643,4.1426826 4.1222859,4.2963141 l 1.5606179,5.8189119 c 0.041218,0.153722 0.20276,0.246895 0.3565991,0.205731 L 9.5413464,9.3834838 c 0.153837,-0.04118 0.247095,-0.2025396 0.205875,-0.3562446 L 8.1866024,3.2083514 C 8.1453834,3.0546216 7.9838514,2.9614895 7.8300144,3.0026537 L 4.3281672,3.9400612 z m 2.2103539,1.2443749 c 0,0 1.1274023,0.4001406 1.4723853,0.8492629 0.243956,0.3176482 0.511518,0.8134393 0.31115,1.1601682 -0.05635,0.097496 -0.155722,0.1598986 -0.267773,0.1979786 -0.186705,0.063657 -0.416912,0.059638 -0.603151,0.035192 l 0.09237,0.3444319 0.29031,-0.077685 0.07779,0.2900195 L 6.7503684,8.2946598 6.6725811,8.004583 6.9628884,7.9268977 6.8705164,7.5825149 C 6.6320757,7.7653091 6.2598725,7.9657732 5.9995921,7.8156445 5.6525479,7.6155086 5.6361368,7.0524259 5.6884389,6.6554927 5.7624235,6.0941984 6.5385211,5.1845182 6.5385211,5.1845182 z"
       id="path20"
       inkscape:connector-curvature="0" />
  </g>
</svg>
