<?xml version="1.0" encoding="UTF-8" standalone="no"?>
<svg
   xmlns:dc="http://purl.org/dc/elements/1.1/"
   xmlns:cc="http://creativecommons.org/ns#"
   xmlns:rdf="http://www.w3.org/1999/02/22-rdf-syntax-ns#"
   xmlns:svg="http://www.w3.org/2000/svg"
   xmlns="http://www.w3.org/2000/svg"
   xmlns:xlink="http://www.w3.org/1999/xlink"
   xmlns:sodipodi="http://sodipodi.sourceforge.net/DTD/sodipodi-0.dtd"
   xmlns:inkscape="http://www.inkscape.org/namespaces/inkscape"
   width="48"
   viewBox="0 0 13.546667 13.546667"
   height="48"
   id="svg2"
   version="1.1"
   inkscape:version="0.48.4 r9939"
   sodipodi:docname="five-or-more.svg">
  <metadata
     id="metadata62">
    <rdf:RDF>
      <cc:Work
         rdf:about="">
        <dc:format>image/svg+xml</dc:format>
        <dc:type
           rdf:resource="http://purl.org/dc/dcmitype/StillImage" />
        <dc:title></dc:title>
      </cc:Work>
    </rdf:RDF>
  </metadata>
  <sodipodi:namedview
     pagecolor="#ffffff"
     bordercolor="#666666"
     borderopacity="1"
     objecttolerance="10"
     gridtolerance="10"
     guidetolerance="10"
     inkscape:pageopacity="0"
     inkscape:pageshadow="2"
     inkscape:window-width="1366"
     inkscape:window-height="716"
     id="namedview60"
     showgrid="false"
     inkscape:zoom="3.4766082"
     inkscape:cx="27.668619"
     inkscape:cy="50.6387"
     inkscape:window-x="0"
     inkscape:window-y="28"
     inkscape:window-maximized="1"
     inkscape:current-layer="g38" />
  <defs
     id="defs4">
    <clipPath
       clipPathUnits="userSpaceOnUse"
       id="clipPath6">
      <rect
         width="20"
         x="1"
         y="1"
         rx="2"
         height="20"
         style="fill:#fff;fill-rule:evenodd"
         id="rect8" />
    </clipPath>
    <clipPath
       clipPathUnits="userSpaceOnUse"
       id="clipPath10">
      <rect
         width="84"
         x="6"
         y="6"
         rx="6"
         height="84"
         style="fill:#fff"
         id="rect12" />
    </clipPath>
    <clipPath
       clipPathUnits="userSpaceOnUse"
       id="clipPath14">
      <path
         d="M 54.1,12.5 12.9,54.7 C -2.7,70.3 23,69 32.3,74.9 36.6,77.7 18.5,81.3 22.2,85 c 3.6,3.7 21.7,7.1 25.3,10.7 3.6,3.7 -7.3,7.6 -3.7,11.3 3.5,3.7 11.9,0.2 13.4,8.6 1.1,6.2 15.4,3.1 21.8,-2.2 4,-3.4 -6.9,-3.4 -3.3,-7.1 9,-9.1 17,-4.1 20.3,-12.5 1.8,-4.5 -13.6,-7.7 -9.5,-10.6 9.8,-6.9 45.8,-10.4 29.2,-27 L 73,12.5 c -5.3,-5 -14,-5 -18.9,0 z m -9.9,64.7 c 0.9,0 30.8,4 19.3,7.1 -4.4,1.2 -24.6,-7.1 -19.3,-7.1 z m 57.2,16.6 c 0,2.1 16.3,3.3 15.4,-0.5 -1.3,-6.4 -13.6,-5.9 -15.4,0.5 z m -69.5,11.1 c 3.7,3.2 9.3,-0.7 11.1,-5.2 -3.6,-4.7 -16.9,0.3 -11.1,5.2 z m 67.5,-6.7 c -4.6,4.2 0.8,8.6 5.3,5.7 1.2,-0.8 -0.1,-4.7 -5.3,-5.7 z"
         id="path16" />
    </clipPath>
    <clipPath
       clipPathUnits="userSpaceOnUse"
       id="clipPath18">
      <rect
         width="96"
         x="-100"
         y="-0"
         height="96"
         style="fill:#fff"
         id="rect20" />
    </clipPath>
    <clipPath
       clipPathUnits="userSpaceOnUse"
       id="clipPath22">
      <path
         d="M 95.311,352.545 L 476.403,352.545 L 476.403,71.4229 L 95.311,71.4229 L 95.311,352.545 z"
         id="path24" />
    </clipPath>
    <clipPath
       clipPathUnits="userSpaceOnUse"
       id="clipPath26">
      <path
         d="M 93.311,354.545 L 478.511,354.545 L 478.511,69.1846 L 93.311,69.1846 L 93.311,354.545 z"
         id="path28" />
    </clipPath>
    <clipPath
       clipPathUnits="userSpaceOnUse"
       id="clipPath30">
      <path
         d="M 93.311,69.185 L 478.511,69.185 L 478.511,354.545 L 93.311,354.545 L 93.311,69.185 z"
         id="path32" />
    </clipPath>
    <clipPath
       clipPathUnits="userSpaceOnUse"
       id="clipPath34">
      <path
         d="M 92.311,355.545 L 479.511,355.545 L 479.511,68.1846 L 92.311,68.1846 L 92.311,355.545 z"
         id="path36" />
    </clipPath>
    <radialGradient
       cx="6.3499999"
       cy="28.450001"
       r="5.6209993"
       fx="6.3499999"
       fy="28.450001"
       id="radialGradient9880"
       xlink:href="#linearGradient9097"
       gradientUnits="userSpaceOnUse" />
    <linearGradient
       id="linearGradient9097">
      <stop
         style="stop-color:#2e3436;stop-opacity:1"
         offset="0"
         id="stop9099" />
      <stop
         style="stop-color:#2e3436;stop-opacity:0"
         offset="1"
         id="stop9101" />
    </linearGradient>
    <radialGradient
       cx="6.3499999"
       cy="28.450001"
       r="5.6209993"
       fx="6.3499999"
       fy="28.450001"
       id="radialGradient9882"
       xlink:href="#linearGradient9097"
       gradientUnits="userSpaceOnUse" />
    <linearGradient
       id="linearGradient4343">
      <stop
         style="stop-color:#2e3436;stop-opacity:1"
         offset="0"
         id="stop4345" />
      <stop
         style="stop-color:#2e3436;stop-opacity:0"
         offset="1"
         id="stop4347" />
    </linearGradient>
    <radialGradient
       cx="6.3499999"
       cy="28.450001"
       r="5.6209993"
       fx="6.3499999"
       fy="28.450001"
       id="radialGradient9884"
       xlink:href="#linearGradient9097"
       gradientUnits="userSpaceOnUse" />
    <linearGradient
       id="linearGradient4350">
      <stop
         style="stop-color:#2e3436;stop-opacity:1"
         offset="0"
         id="stop4352" />
      <stop
         style="stop-color:#2e3436;stop-opacity:0"
         offset="1"
         id="stop4354" />
    </linearGradient>
    <radialGradient
       cx="6.3499999"
       cy="28.450001"
       r="5.6209993"
       fx="6.3499999"
       fy="28.450001"
       id="radialGradient9886"
       xlink:href="#linearGradient9097"
       gradientUnits="userSpaceOnUse" />
    <linearGradient
       id="linearGradient4357">
      <stop
         style="stop-color:#2e3436;stop-opacity:1"
         offset="0"
         id="stop4359" />
      <stop
         style="stop-color:#2e3436;stop-opacity:0"
         offset="1"
         id="stop4361" />
    </linearGradient>
    <radialGradient
       cx="6.3499999"
       cy="28.450001"
       r="5.6209993"
       fx="6.3499999"
       fy="28.450001"
       id="radialGradient9888"
       xlink:href="#linearGradient9097"
       gradientUnits="userSpaceOnUse" />
    <linearGradient
       id="linearGradient4364">
      <stop
         style="stop-color:#2e3436;stop-opacity:1"
         offset="0"
         id="stop4366" />
      <stop
         style="stop-color:#2e3436;stop-opacity:0"
         offset="1"
         id="stop4368" />
    </linearGradient>
    <radialGradient
       cx="6.3499999"
       cy="28.450001"
       r="5.6209993"
       fx="6.3499999"
       fy="28.450001"
       id="radialGradient9890"
       xlink:href="#linearGradient9097"
       gradientUnits="userSpaceOnUse" />
    <linearGradient
       id="linearGradient4371">
      <stop
         style="stop-color:#2e3436;stop-opacity:1"
         offset="0"
         id="stop4373" />
      <stop
         style="stop-color:#2e3436;stop-opacity:0"
         offset="1"
         id="stop4375" />
    </linearGradient>
    <radialGradient
       cx="6.3499999"
       cy="28.450001"
       r="5.6209993"
       fx="6.3499999"
       fy="28.450001"
       id="radialGradient9892"
       xlink:href="#linearGradient9097"
       gradientUnits="userSpaceOnUse" />
    <linearGradient
       id="linearGradient4378">
      <stop
         style="stop-color:#2e3436;stop-opacity:1"
         offset="0"
         id="stop4380" />
      <stop
         style="stop-color:#2e3436;stop-opacity:0"
         offset="1"
         id="stop4382" />
    </linearGradient>
    <radialGradient
       cx="6.3499999"
       cy="28.450001"
       r="5.6209993"
       fx="6.3499999"
       fy="28.450001"
       id="radialGradient9894"
       xlink:href="#linearGradient9097"
       gradientUnits="userSpaceOnUse" />
    <linearGradient
       id="linearGradient4385">
      <stop
         style="stop-color:#2e3436;stop-opacity:1"
         offset="0"
         id="stop4387" />
      <stop
         style="stop-color:#2e3436;stop-opacity:0"
         offset="1"
         id="stop4389" />
    </linearGradient>
    <radialGradient
       cx="6.3499999"
       cy="28.450001"
       r="5.6209993"
       fx="6.3499999"
       fy="28.450001"
       id="radialGradient9896"
       xlink:href="#linearGradient9097"
       gradientUnits="userSpaceOnUse" />
    <linearGradient
       id="linearGradient4392">
      <stop
         style="stop-color:#2e3436;stop-opacity:1"
         offset="0"
         id="stop4394" />
      <stop
         style="stop-color:#2e3436;stop-opacity:0"
         offset="1"
         id="stop4396" />
    </linearGradient>
    <radialGradient
       cx="6.3499999"
       cy="28.450001"
       r="5.6209993"
       fx="6.3499999"
       fy="28.450001"
       id="radialGradient9898"
       xlink:href="#linearGradient9097"
       gradientUnits="userSpaceOnUse" />
    <linearGradient
       id="linearGradient4399">
      <stop
         style="stop-color:#2e3436;stop-opacity:1"
         offset="0"
         id="stop4401" />
      <stop
         style="stop-color:#2e3436;stop-opacity:0"
         offset="1"
         id="stop4403" />
    </linearGradient>
  </defs>
  <g
     style="fill-rule:evenodd"
     id="g38">
    <rect
       width="11.746"
       x=".9"
       y=".901"
       rx="5.873"
       height="11.746"
       style="fill:#e6e6e6;stroke-width:0.02822222000000000;stroke-miterlimit:4;stroke-dasharray:none;stroke:none;stroke-opacity:1;fill-opacity:1"
       id="rect42" />
    <g
       transform="matrix(0.20108334,0,0,0.20108334,1.4089001,1.6769112)"
       id="g9868">
      <g
         transform="matrix(1.0526316,0,0,1.0526316,1.712759,-1.9044354)"
         id="layer1">
        <path
           style="fill:#88c941;fill-rule:evenodd;stroke:#003bc3;stroke-width:0;stroke-linecap:square;stroke-linejoin:miter;stroke-miterlimit:2.01260185"
           inkscape:connector-curvature="0"
           id="shape0"
           transform="translate(11.8972,4.42926)"
           stroke-miterlimit="2.01260185242"
           d="M 24.4486,11.2006 C 23.6706,4.3859 17.7953,-0.554148 11.1869,0.0499827 4.57839,0.654113 -0.368135,6.58345 0.0215224,13.4337 0.41118,20.284 5.9958,25.5725 12.6272,25.3709 c 6.6313,-0.2017 11.906,-5.8203 11.906,-12.6823" />
        <path
           style="fill:#2980b9;fill-rule:evenodd;stroke:#003bc3;stroke-width:0;stroke-linecap:square;stroke-linejoin:miter;stroke-miterlimit:2"
           inkscape:connector-curvature="0"
           id="shape1"
           transform="translate(19.7177,18.5707)"
           stroke-miterlimit="2.00000000000"
           d="M 24.4486,11.2006 C 23.6706,4.3859 17.7953,-0.554148 11.1869,0.0499827 4.57839,0.654113 -0.368135,6.58345 0.0215224,13.4337 0.41118,20.284 5.9958,25.5725 12.6272,25.3709 c 6.6313,-0.2017 11.906,-5.8203 11.906,-12.6823" />
        <path
           style="fill:#de6143;fill-rule:evenodd;stroke:#003bc3;stroke-width:0;stroke-linecap:square;stroke-linejoin:miter;stroke-miterlimit:2.01260185"
           inkscape:connector-curvature="0"
           id="shape2"
           transform="translate(4.00394,18.618)"
           stroke-miterlimit="2.01260185242"
           d="M 24.4486,11.2006 C 23.6706,4.3859 17.7953,-0.554148 11.1869,0.0499827 4.57839,0.654113 -0.368135,6.58345 0.0215224,13.4337 0.41118,20.284 5.9958,25.5725 12.6272,25.3709 c 6.6313,-0.2017 11.906,-5.8203 11.906,-12.6823" />
        <path
           style="fill:#9b59b6;fill-rule:evenodd;stroke:#003bc3;stroke-width:0;stroke-linecap:square;stroke-linejoin:bevel"
           inkscape:connector-curvature="0"
           id="shape01"
           transform="translate(19.82,21.5468)"
           d="M 4.27873,0 C 12.1325,6.05777 8.29227,16.6725 4.34708,19.4734 -0.456512,15.435 -2.33675,6.79632 4.27873,0 z" />
        <path
           style="fill:#f1cb6d;fill-rule:evenodd;stroke:#003bc3;stroke-width:0;stroke-linecap:square;stroke-linejoin:bevel"
           inkscape:connector-curvature="0"
           id="shape11"
           transform="matrix(0.456245,-0.889854,0.889854,0.456245,10.0304,23.3802)"
           d="M 4.52342,0 C 12.4627,5.89828 8.1415,15.7613 4.15335,18.4884 -0.702539,14.5564 -2.16408,6.61738 4.52342,0 z" />
        <path
           style="fill:#1abc9c;fill-rule:evenodd;stroke:#003bc3;stroke-width:0;stroke-linecap:square;stroke-linejoin:bevel"
           inkscape:connector-curvature="0"
           id="shape21"
           transform="matrix(0.555658,-0.831411,0.831411,0.555658,19.3614,27.9089)"
           d="M 0,1.00323 C 11.7133,-2.97211 15.7351,5.92394 16.4885,9.285 10.7662,11.9476 2.67721,10.0833 0,1.00323 z" />
        <path
           style="fill:#c4cbcf;fill-rule:evenodd;stroke:#003bc3;stroke-width:0;stroke-linecap:square;stroke-linejoin:bevel"
           inkscape:connector-curvature="0"
           id="shape3"
           transform="translate(20.1722,21.0987)"
           d="M 4.14684,0 C 5.08167,0.737228 7.76133,3.94617 8.32405,7.53418 6.01927,8.3927 2.85694,8.30725 0,7.38228 0.582335,5.31199 1.49073,2.43433 4.14684,0 z" />
      </g>
    </g>
  </g>
</svg>
