<?xml version="1.0" encoding="UTF-8" standalone="no"?>
<svg
   xmlns:dc="http://purl.org/dc/elements/1.1/"
   xmlns:cc="http://creativecommons.org/ns#"
   xmlns:rdf="http://www.w3.org/1999/02/22-rdf-syntax-ns#"
   xmlns:svg="http://www.w3.org/2000/svg"
   xmlns="http://www.w3.org/2000/svg"
   xmlns:xlink="http://www.w3.org/1999/xlink"
   xmlns:sodipodi="http://sodipodi.sourceforge.net/DTD/sodipodi-0.dtd"
   xmlns:inkscape="http://www.inkscape.org/namespaces/inkscape"
   width="48"
   viewBox="0 0 13.546667 13.546667"
   height="48"
   id="svg2"
   version="1.1"
   inkscape:version="0.48.4 r9939"
   sodipodi:docname="gnome-nibbles.svg">
  <metadata
     id="metadata62">
    <rdf:RDF>
      <cc:Work
         rdf:about="">
        <dc:format>image/svg+xml</dc:format>
        <dc:type
           rdf:resource="http://purl.org/dc/dcmitype/StillImage" />
        <dc:title></dc:title>
      </cc:Work>
    </rdf:RDF>
  </metadata>
  <sodipodi:namedview
     pagecolor="#ffffff"
     bordercolor="#666666"
     borderopacity="1"
     objecttolerance="10"
     gridtolerance="10"
     guidetolerance="10"
     inkscape:pageopacity="0"
     inkscape:pageshadow="2"
     inkscape:window-width="1366"
     inkscape:window-height="716"
     id="namedview60"
     showgrid="false"
     inkscape:zoom="5.6568543"
     inkscape:cx="14.673134"
     inkscape:cy="31.563716"
     inkscape:window-x="0"
     inkscape:window-y="28"
     inkscape:window-maximized="1"
     inkscape:current-layer="layer1-6"
     showguides="true"
     inkscape:guide-bbox="true" />
  <defs
     id="defs4">
    <linearGradient
       id="linearGradient3922">
      <stop
         style="stop-color:#004455;stop-opacity:1;"
         offset="0"
         id="stop3924" />
      <stop
         style="stop-color:#005b72;stop-opacity:1;"
         offset="1"
         id="stop3926" />
    </linearGradient>
    <clipPath
       clipPathUnits="userSpaceOnUse"
       id="clipPath6">
      <rect
         width="20"
         x="1"
         y="1"
         rx="2"
         height="20"
         style="fill:#fff;fill-rule:evenodd"
         id="rect8" />
    </clipPath>
    <clipPath
       clipPathUnits="userSpaceOnUse"
       id="clipPath10">
      <rect
         width="84"
         x="6"
         y="6"
         rx="6"
         height="84"
         style="fill:#fff"
         id="rect12" />
    </clipPath>
    <clipPath
       clipPathUnits="userSpaceOnUse"
       id="clipPath14">
      <path
         d="M 54.1,12.5 12.9,54.7 C -2.7,70.3 23,69 32.3,74.9 36.6,77.7 18.5,81.3 22.2,85 c 3.6,3.7 21.7,7.1 25.3,10.7 3.6,3.7 -7.3,7.6 -3.7,11.3 3.5,3.7 11.9,0.2 13.4,8.6 1.1,6.2 15.4,3.1 21.8,-2.2 4,-3.4 -6.9,-3.4 -3.3,-7.1 9,-9.1 17,-4.1 20.3,-12.5 1.8,-4.5 -13.6,-7.7 -9.5,-10.6 9.8,-6.9 45.8,-10.4 29.2,-27 L 73,12.5 c -5.3,-5 -14,-5 -18.9,0 z m -9.9,64.7 c 0.9,0 30.8,4 19.3,7.1 -4.4,1.2 -24.6,-7.1 -19.3,-7.1 z m 57.2,16.6 c 0,2.1 16.3,3.3 15.4,-0.5 -1.3,-6.4 -13.6,-5.9 -15.4,0.5 z m -69.5,11.1 c 3.7,3.2 9.3,-0.7 11.1,-5.2 -3.6,-4.7 -16.9,0.3 -11.1,5.2 z m 67.5,-6.7 c -4.6,4.2 0.8,8.6 5.3,5.7 1.2,-0.8 -0.1,-4.7 -5.3,-5.7 z"
         id="path16" />
    </clipPath>
    <clipPath
       clipPathUnits="userSpaceOnUse"
       id="clipPath18">
      <rect
         width="96"
         x="-100"
         y="-0"
         height="96"
         style="fill:#fff"
         id="rect20" />
    </clipPath>
    <clipPath
       clipPathUnits="userSpaceOnUse"
       id="clipPath22">
      <path
         d="M 95.311,352.545 L 476.403,352.545 L 476.403,71.4229 L 95.311,71.4229 L 95.311,352.545 z"
         id="path24" />
    </clipPath>
    <clipPath
       clipPathUnits="userSpaceOnUse"
       id="clipPath26">
      <path
         d="M 93.311,354.545 L 478.511,354.545 L 478.511,69.1846 L 93.311,69.1846 L 93.311,354.545 z"
         id="path28" />
    </clipPath>
    <clipPath
       clipPathUnits="userSpaceOnUse"
       id="clipPath30">
      <path
         d="M 93.311,69.185 L 478.511,69.185 L 478.511,354.545 L 93.311,354.545 L 93.311,69.185 z"
         id="path32" />
    </clipPath>
    <clipPath
       clipPathUnits="userSpaceOnUse"
       id="clipPath34">
      <path
         d="M 92.311,355.545 L 479.511,355.545 L 479.511,68.1846 L 92.311,68.1846 L 92.311,355.545 z"
         id="path36" />
    </clipPath>
    <linearGradient
       inkscape:collect="always"
       xlink:href="#linearGradient2251"
       id="linearGradient2258"
       x1="21.5"
       y1="43.467159"
       x2="21.5"
       y2="47.532516"
       gradientUnits="userSpaceOnUse" />
    <linearGradient
       inkscape:collect="always"
       id="linearGradient2251">
      <stop
         style="stop-color:#729fcf;stop-opacity:1;"
         offset="0"
         id="stop2253" />
      <stop
         style="stop-color:#729fcf;stop-opacity:0;"
         offset="1"
         id="stop2255" />
    </linearGradient>
    <linearGradient
       gradientTransform="matrix(0.13,0,0,0.14103,2.41492,-32.46617)"
       xlink:href="#linearGradient3896"
       id="linearGradient3006"
       x1="5.3039999"
       gradientUnits="userSpaceOnUse"
       x2="61.748001" />
    <linearGradient
       id="linearGradient3896">
      <stop
         offset="0"
         style="stop-color:#5dac12"
         id="stop9" />
      <stop
         offset="1"
         style="stop-color:#76c925"
         id="stop11" />
    </linearGradient>
    <linearGradient
       inkscape:collect="always"
       xlink:href="#linearGradient6963-199-896"
       id="linearGradient6457"
       gradientUnits="userSpaceOnUse"
       gradientTransform="matrix(4.895429,-1.3086414,1.1623533,4.3761806,-614.63541,-97.40367)"
       x1="15.194299"
       y1="13.018784"
       x2="14.486301"
       y2="26.07235" />
    <linearGradient
       inkscape:collect="always"
       id="linearGradient6963-199-896">
      <stop
         offset="0"
         id="stop7684"
         style="stop-color:#a2c6ff;stop-opacity:1" />
      <stop
         offset="1"
         id="stop7686"
         style="stop-color:#9f7e42;stop-opacity:1" />
    </linearGradient>
    <linearGradient
       id="linearGradient2911-613-519">
      <stop
         offset="0"
         id="stop7648"
         style="stop-color:#ffffe0;stop-opacity:1;" />
      <stop
         offset="1"
         id="stop7650"
         style="stop-color:#ffe588;stop-opacity:0;" />
    </linearGradient>
    <linearGradient
       id="linearGradient2911-198-956">
      <stop
         offset="0"
         id="stop7654"
         style="stop-color:#ffffe0;stop-opacity:1;" />
      <stop
         offset="1"
         id="stop7656"
         style="stop-color:#ffe588;stop-opacity:0;" />
    </linearGradient>
    <linearGradient
       id="linearGradient2911-977-39">
      <stop
         offset="0"
         id="stop7660"
         style="stop-color:#ffffe0;stop-opacity:1;" />
      <stop
         offset="1"
         id="stop7662"
         style="stop-color:#ffe588;stop-opacity:0;" />
    </linearGradient>
    <linearGradient
       inkscape:collect="always"
       xlink:href="#linearGradient2782-839-396"
       id="linearGradient7090"
       gradientUnits="userSpaceOnUse"
       gradientTransform="matrix(4.9036558,0,0,4.3816704,-363.57105,-134.91588)"
       x1="20"
       y1="13.577349"
       x2="17.269999"
       y2="32.698772" />
    <linearGradient
       inkscape:collect="always"
       id="linearGradient2782-839-396">
      <stop
         offset="0"
         id="stop7582"
         style="stop-color:#8dc5ff;stop-opacity:1" />
      <stop
         offset="1"
         id="stop7584"
         style="stop-color:#f2c600;stop-opacity:1" />
    </linearGradient>
    <linearGradient
       inkscape:collect="always"
       xlink:href="#linearGradient6963-199-896-0"
       id="linearGradient6457-9"
       gradientUnits="userSpaceOnUse"
       gradientTransform="matrix(4.895429,-1.3086414,1.1623533,4.3761806,-614.63541,-97.40367)"
       x1="15.194299"
       y1="13.018784"
       x2="14.486301"
       y2="26.07235" />
    <linearGradient
       inkscape:collect="always"
       id="linearGradient6963-199-896-0">
      <stop
         offset="0"
         id="stop7684-1"
         style="stop-color:#a2c6ff;stop-opacity:1" />
      <stop
         offset="1"
         id="stop7686-7"
         style="stop-color:#9f7e42;stop-opacity:1" />
    </linearGradient>
    <radialGradient
       cx="7.6232362"
       cy="11.80622"
       r="21.627373"
       fx="7.6232362"
       fy="11.80622"
       id="radialGradient5947"
       xlink:href="#linearGradient5941"
       gradientUnits="userSpaceOnUse"
       gradientTransform="matrix(1,0,0,1.038933,0,-2.127509)" />
    <linearGradient
       id="linearGradient5941">
      <stop
         style="stop-color:#fcaf3e;stop-opacity:1"
         offset="0"
         id="stop5943" />
      <stop
         style="stop-color:#f57900;stop-opacity:1"
         offset="1"
         id="stop5945" />
    </linearGradient>
    <linearGradient
       x1="222.58691"
       y1="499.1156"
       x2="337.48618"
       y2="473.95703"
       id="linearGradient3262"
       xlink:href="#linearGradient2955"
       gradientUnits="userSpaceOnUse"
       gradientTransform="matrix(0.117878,0,0,0.117878,-18.77804,-35.28747)" />
    <linearGradient
       id="linearGradient2955">
      <stop
         style="stop-color:#d0d0d0;stop-opacity:1"
         offset="0"
         id="stop2957" />
      <stop
         style="stop-color:white;stop-opacity:1"
         offset="0.40000001"
         id="stop3689" />
      <stop
         style="stop-color:white;stop-opacity:1"
         offset="0.69999999"
         id="stop3709" />
      <stop
         style="stop-color:#d0d0d0;stop-opacity:1"
         offset="1"
         id="stop2959" />
    </linearGradient>
    <linearGradient
       x1="301.55588"
       y1="483.00668"
       x2="308.30713"
       y2="497.39062"
       id="linearGradient3254"
       xlink:href="#linearGradient3714"
       gradientUnits="userSpaceOnUse"
       gradientTransform="matrix(0.117878,0,0,0.117878,-18.77804,-35.28747)" />
    <linearGradient
       id="linearGradient3714">
      <stop
         style="stop-color:#d0d0d0;stop-opacity:1"
         offset="0"
         id="stop3718" />
      <stop
         style="stop-color:#b0b0b0;stop-opacity:0"
         offset="1"
         id="stop3722" />
    </linearGradient>
  </defs>
  <g
     style="fill-rule:evenodd"
     id="g38">
    <rect
       width="11.746"
       x=".9"
       y=".901"
       rx="5.873"
       height="11.746"
       style="fill:#b3b3b3;stroke-width:0.02822222000000000;stroke-miterlimit:4;stroke-dasharray:none;stroke:none;stroke-opacity:1;fill-opacity:1"
       id="rect42" />
    <g
       transform="matrix(0.11531627,0,0,0.11531627,3.9211615,3.8898451)"
       id="layer1" />
    <g
       id="g3389"
       style="fill:#f9f9f9;stroke:#f9f9f9;stroke-linejoin:round"
       transform="matrix(0.93639221,0.01779363,-0.01779363,0.93639221,0.58795522,0.39238226)">
      <g
         id="g3393"
         style="fill-opacity:0;stroke-width:0.58899999" />
    </g>
    <g
       id="layer1-6"
       transform="matrix(0.1943002,0,0,0.1943002,2.0139884,1.9453938)">
      <path
         d="M 3.492233,14.383134 C 4.2009709,23.907406 12.740777,46.554008 18,46.448183 23.1822,47.25951 25.612945,38.334914 29.419417,34.27828 30.739806,33.486371 33.431359,45.554008 41,45.554008 c 2.301618,0.164078 4.603236,-0.624272 4.682524,-2.682524 0.03188,-3.213592 -6.091142,-0.968218 -8.555583,-9.746602 C 35.250666,26.441552 32.190453,23.205465 30,23.272455 26.59644,24.509025 22.346279,34.105788 20.530097,35.342358 14.356958,29.908054 25.433333,20.769866 23.599029,12.372455 22.188025,-4.7359597 2.1517799,3.5536842 3.492233,14.383134 z"
         style="fill:#ff7f2a;fill-opacity:1;fill-rule:evenodd;stroke:none;stroke-width:1px;stroke-linecap:butt;stroke-linejoin:miter;stroke-opacity:1"
         id="path5054"
         inkscape:connector-curvature="0" />
      <path
         d="m 21.932745,15.702196 c -0.426567,0.185733 -0.852542,0.506476 -1.247301,0.75159 -3.3162,2.059095 -8.810408,4.576537 -12.8450629,5.831297 -0.4050949,0.125983 -0.4560397,0.527353 -0.3941559,0.799363 0.2215808,0.973955 0.9645355,2.24043 1.9486775,3.285861 0.9841423,1.04543 2.4364173,1.848716 4.4683283,1.871319 0.88675,0.0099 1.756747,-0.429023 2.60806,-1.097742 0.851313,-0.66872 1.686145,-1.592296 2.434926,-2.666999 1.49756,-2.149406 2.655296,-4.733194 2.689101,-7.522116 0.0045,-0.37146 0.214152,-0.899845 0.337427,-1.252573 z m -1.615671,2.36505 c -0.286117,1.968584 -1.213528,4.067077 -2.375987,5.735522 -0.693538,0.995414 -1.465323,1.83927 -2.195485,2.412823 -0.730163,0.573553 -1.417209,0.852302 -1.87132,0.847251 -1.740736,-0.01936 -2.814877,-0.642859 -3.621077,-1.499266 C 9.607686,24.877856 9.1810549,24.035989 8.8165617,23.22811 12.639375,22.123828 17.102541,20.006079 20.317074,18.067246 z"
         style="fill:#571e00;fill-opacity:0.32203393;stroke:none"
         id="path2951"
         inkscape:connector-curvature="0" />
      <path
         d="M 11.926727,7.3655475 C 10.198031,7.4236994 8.5928349,7.7329226 7.4423349,8.166746 6.7264545,9.1601578 6.1197238,10.371774 5.7951113,11.871484 5.204603,9.9166518 5.3385848,8.0555864 6.2556375,6.4180564 8.3357717,5.9887455 10.60232,6.5968095 11.926727,7.3655475 z"
         style="fill:#000000;fill-opacity:1;stroke:none"
         id="path2184"
         inkscape:connector-curvature="0" />
      <path
         d="M 19.605029,6.6190682 C 18.145965,5.6901372 16.64691,5.0381362 15.452572,4.745885 14.300572,5.1609125 13.115312,5.8176437 12,6.8714838 c 0.617519,-1.9464684 1.779766,-3.406159 3.461736,-4.2389087 1.958748,0.8213202 3.485059,2.6038326 4.143293,3.9864931 z"
         style="fill:#000000;fill-opacity:1;stroke:none"
         id="path2186"
         inkscape:connector-curvature="0" />
      <path
         d="M 7.9907055,22.855913 C 12.24941,21.74089 17.660243,19.106418 21.004296,16.94946 20.954924,21.825028 16.551203,27.682629 13.86948,27.6528 10.096832,27.610835 8.8142409,24.800374 7.9907055,22.855913 z"
         style="fill:#ffffff;fill-opacity:1;stroke:none;"
         id="path2196"
         inkscape:connector-curvature="0" />
      <path
         d="m 15.655682,8.2614567 c -1.526608,0.155068 -2.727189,2.1916893 -2.921174,4.7482893 -0.645246,-1.385015 -1.618161,-2.259901 -2.611744,-2.154964 -1.5246994,0.16103 -2.5133633,2.547413 -2.2065364,5.32663 0.1777702,1.610222 0.7585995,2.984375 1.5066336,3.838416 1.0629588,-0.858383 2.4108068,-1.593707 3.9562938,-2.129179 0.03076,-0.190609 0.06039,-0.384338 0.07736,-0.585708 0.08295,0.173796 0.186104,0.312652 0.279961,0.46783 0.715666,-0.229099 1.466107,-0.42039 2.250741,-0.556239 0.840266,-0.145481 1.663536,-0.217247 2.464395,-0.235757 0.396857,-0.990712 0.620754,-2.204074 0.570974,-3.510566 -0.116269,-3.051471 -1.626291,-5.3855604 -3.366902,-5.2087523 z"
         style="fill:#ffffff;fill-opacity:1;stroke:none"
         id="path2198"
         inkscape:connector-curvature="0" />
      <path
         d="m 299.14868,418.62723 a 6.443205,12.426182 0 1 1 -12.88641,0 6.443205,12.426182 0 1 1 12.88641,0 z"
         transform="matrix(0.117878,0,0,0.117878,-18.88654,-35.61297)"
         style="fill:#000000;fill-opacity:1;stroke:none"
         id="path2944"
         inkscape:connector-curvature="0" />
      <path
         d="m 20.597035,19.577563 c -0.783188,1.122634 -2.428183,1.976683 -5.168231,3.304279 3.12465,-0.722614 3.064142,-0.02316 3.164298,1.020385 0.6833,-1.036269 1.581628,-2.658009 2.003933,-4.324664 z m -6.582772,3.897355 c -2.898317,0.932813 -4.1734936,1.149812 -5.3855698,0.755159 0.6190477,1.286948 1.6141118,2.356046 2.7443568,2.880653 -0.474164,-1.053782 -0.472368,-2.007991 2.641213,-3.635812 z"
         style="fill:none;fill-opacity:1;stroke:none"
         id="rect2946"
         inkscape:connector-curvature="0" />
      <path
         d="m 299.14868,418.62723 a 6.443205,12.426182 0 1 1 -12.88641,0 6.443205,12.426182 0 1 1 12.88641,0 z"
         transform="matrix(0.117878,0,0,0.117878,-23.74402,-34.36441)"
         style="fill:#000000;fill-opacity:1;stroke:none"
         id="path8632"
         inkscape:connector-curvature="0" />
    </g>
  </g>
</svg>
