<?xml version="1.0" encoding="UTF-8" standalone="no"?>
<svg
   xmlns:dc="http://purl.org/dc/elements/1.1/"
   xmlns:cc="http://creativecommons.org/ns#"
   xmlns:rdf="http://www.w3.org/1999/02/22-rdf-syntax-ns#"
   xmlns:svg="http://www.w3.org/2000/svg"
   xmlns="http://www.w3.org/2000/svg"
   xmlns:sodipodi="http://sodipodi.sourceforge.net/DTD/sodipodi-0.dtd"
   xmlns:inkscape="http://www.inkscape.org/namespaces/inkscape"
   width="48"
   viewBox="0 0 13.546667 13.546667"
   height="48"
   id="svg2"
   version="1.1"
   inkscape:version="0.48.4 r9939"
   sodipodi:docname="plank.svg">
  <metadata
     id="metadata62">
    <rdf:RDF>
      <cc:Work
         rdf:about="">
        <dc:format>image/svg+xml</dc:format>
        <dc:type
           rdf:resource="http://purl.org/dc/dcmitype/StillImage" />
        <dc:title></dc:title>
      </cc:Work>
    </rdf:RDF>
  </metadata>
  <sodipodi:namedview
     pagecolor="#ffffff"
     bordercolor="#666666"
     borderopacity="1"
     objecttolerance="10"
     gridtolerance="10"
     guidetolerance="10"
     inkscape:pageopacity="0"
     inkscape:pageshadow="2"
     inkscape:window-width="1366"
     inkscape:window-height="716"
     id="namedview60"
     showgrid="false"
     inkscape:zoom="6.9532164"
     inkscape:cx="9.6898483"
     inkscape:cy="20.790496"
     inkscape:window-x="0"
     inkscape:window-y="28"
     inkscape:window-maximized="1"
     inkscape:current-layer="g38" />
  <defs
     id="defs4">
    <clipPath
       clipPathUnits="userSpaceOnUse"
       id="clipPath6">
      <rect
         width="20"
         x="1"
         y="1"
         rx="2"
         height="20"
         style="fill:#fff;fill-rule:evenodd"
         id="rect8" />
    </clipPath>
    <clipPath
       clipPathUnits="userSpaceOnUse"
       id="clipPath10">
      <rect
         width="84"
         x="6"
         y="6"
         rx="6"
         height="84"
         style="fill:#fff"
         id="rect12" />
    </clipPath>
    <clipPath
       clipPathUnits="userSpaceOnUse"
       id="clipPath14">
      <path
         d="M 54.1,12.5 12.9,54.7 C -2.7,70.3 23,69 32.3,74.9 36.6,77.7 18.5,81.3 22.2,85 c 3.6,3.7 21.7,7.1 25.3,10.7 3.6,3.7 -7.3,7.6 -3.7,11.3 3.5,3.7 11.9,0.2 13.4,8.6 1.1,6.2 15.4,3.1 21.8,-2.2 4,-3.4 -6.9,-3.4 -3.3,-7.1 9,-9.1 17,-4.1 20.3,-12.5 1.8,-4.5 -13.6,-7.7 -9.5,-10.6 9.8,-6.9 45.8,-10.4 29.2,-27 L 73,12.5 c -5.3,-5 -14,-5 -18.9,0 z m -9.9,64.7 c 0.9,0 30.8,4 19.3,7.1 -4.4,1.2 -24.6,-7.1 -19.3,-7.1 z m 57.2,16.6 c 0,2.1 16.3,3.3 15.4,-0.5 -1.3,-6.4 -13.6,-5.9 -15.4,0.5 z m -69.5,11.1 c 3.7,3.2 9.3,-0.7 11.1,-5.2 -3.6,-4.7 -16.9,0.3 -11.1,5.2 z m 67.5,-6.7 c -4.6,4.2 0.8,8.6 5.3,5.7 1.2,-0.8 -0.1,-4.7 -5.3,-5.7 z"
         id="path16" />
    </clipPath>
    <clipPath
       clipPathUnits="userSpaceOnUse"
       id="clipPath18">
      <rect
         width="96"
         x="-100"
         y="-0"
         height="96"
         style="fill:#fff"
         id="rect20" />
    </clipPath>
    <clipPath
       clipPathUnits="userSpaceOnUse"
       id="clipPath22">
      <path
         d="M 95.311,352.545 L 476.403,352.545 L 476.403,71.4229 L 95.311,71.4229 L 95.311,352.545 z"
         id="path24" />
    </clipPath>
    <clipPath
       clipPathUnits="userSpaceOnUse"
       id="clipPath26">
      <path
         d="M 93.311,354.545 L 478.511,354.545 L 478.511,69.1846 L 93.311,69.1846 L 93.311,354.545 z"
         id="path28" />
    </clipPath>
    <clipPath
       clipPathUnits="userSpaceOnUse"
       id="clipPath30">
      <path
         d="M 93.311,69.185 L 478.511,69.185 L 478.511,354.545 L 93.311,354.545 L 93.311,69.185 z"
         id="path32" />
    </clipPath>
    <clipPath
       clipPathUnits="userSpaceOnUse"
       id="clipPath34">
      <path
         d="M 92.311,355.545 L 479.511,355.545 L 479.511,68.1846 L 92.311,68.1846 L 92.311,355.545 z"
         id="path36" />
    </clipPath>
  </defs>
  <g
     style="fill-rule:evenodd"
     id="g38">
    <rect
       width="11.746"
       x=".9"
       y=".901"
       rx="5.873"
       height="11.746"
       style="fill:#60afe9;stroke-width:0.02822222000000000;stroke-miterlimit:4;stroke-dasharray:none;stroke:none;stroke-opacity:1;fill-opacity:1"
       id="rect42" />
    <path
       style="fill:#ffffff;fill-opacity:1"
       d="m 6.790751,5.3900546 c -0.1445408,0 -0.261401,0.1126992 -0.2613579,0.2515576 -3.51e-5,0.1047756 0.079361,0.1912865 0.1742802,0.228963 l 0,0.2160968 -0.4029674,0 c -0.017353,0 -0.03267,0.022158 -0.03267,0.039916 l 0,0.094332 c 0,0.017766 0.014632,0.043916 0.03267,0.039908 l 0.4029674,0 0,1.0159397 c 0,0.0323 -0.066942,0.032975 -0.098731,0.036358 -0.046574,0 -0.074888,-0.011724 -0.1194504,-0.02358 -0.1006322,-0.028323 -0.1966987,-0.06757 -0.2889222,-0.1149676 -0.038828,-0.020749 -0.076734,-0.040918 -0.1112808,-0.067801 -0.01489,-0.012223 -0.032209,-0.029903 -0.030625,-0.050117 0.002,-0.015282 0.010056,-0.031596 0.027562,-0.034398 0.015775,-0.00253 0.02995,0.00581 0.0439,0.010836 0.012025,0.00493 0.020303,-0.00902 0.018378,-0.018652 -0.00192,-0.025352 -0.01086,-0.048809 -0.024502,-0.070756 -0.028387,-0.04494 -0.072068,-0.078368 -0.117408,-0.1071048 -0.048406,-0.02976 -0.1000116,-0.062479 -0.1306787,-0.1100628 -0.00608,-0.00876 -0.012883,-0.023356 -0.026544,-0.018673 -0.018998,0.00595 -0.029488,0.023864 -0.038795,0.039306 -0.026186,0.047959 -0.039242,0.099697 -0.051048,0.1523119 -0.00971,0.041861 -0.011568,0.086074 -0.00817,0.1287304 0.00352,0.042683 0.00655,0.085931 0.0245,0.1257749 0.011316,0.026194 0.031219,0.047312 0.051047,0.067808 0.012646,-0.012857 0.025852,-0.026694 0.038795,-0.039306 0.016775,-0.016219 0.037728,-0.026731 0.062278,-0.02358 0.03341,0.00414 0.063584,0.02363 0.08984,0.042259 0.036983,0.027676 0.071557,0.056642 0.1092396,0.083525 0.059627,0.043858 0.1253921,0.075967 0.1929549,0.1071084 0.056288,0.025148 0.1141248,0.050291 0.1725368,0.070748 0.010452,0.00436 0.022018,0.00414 0.032669,0.00781 0.1051284,0.042086 0.1936937,0.091074 0.2664623,0.1788457 8.31e-5,0.00131 -8.29e-5,0.00378 0,0.00486 8.64e-4,-0.00102 0.00222,-0.00203 0.00305,-0.00298 8.64e-4,0.00102 0.00222,0.00203 0.00306,0.00298 5.863e-4,-0.00253 -4.937e-4,-0.00545 0,-0.0079 0.072542,-0.086766 0.1619712,-0.1340646 0.2664627,-0.1759032 0.010656,-0.00364 0.022211,-0.00348 0.032669,-0.00782 0.058412,-0.020467 0.1162488,-0.045593 0.1725384,-0.07075 0.067561,-0.031138 0.1333284,-0.06325 0.1929546,-0.1071024 0.037682,-0.026885 0.072257,-0.055852 0.1092396,-0.083528 0.026254,-0.018622 0.05643,-0.038116 0.08984,-0.042259 0.02455,-0.00313 0.045504,0.0074 0.062278,0.02358 0.012936,0.012606 0.026143,0.026426 0.038795,0.039306 0.019829,-0.020495 0.039737,-0.041615 0.051047,-0.067808 0.01796,-0.03985 0.020993,-0.083095 0.024504,-0.1257762 0.0034,-0.042652 0.00156,-0.086869 -0.00817,-0.1287304 -0.011796,-0.052613 -0.024863,-0.1043556 -0.051047,-0.1523148 -0.0093,-0.015457 -0.019794,-0.033367 -0.038796,-0.039298 -0.013663,-0.00464 -0.020442,0.00988 -0.026544,0.018673 -0.030667,0.047582 -0.082273,0.0803 -0.1306786,0.1100592 -0.045338,0.028744 -0.089022,0.062174 -0.117408,0.1071084 -0.013649,0.02194 -0.022564,0.045396 -0.0245,0.070748 -0.0019,0.00961 0.00635,0.02366 0.018377,0.018673 0.013954,-0.00509 0.028122,-0.013213 0.0439,-0.010836 0.017508,0.00284 0.025555,0.019079 0.027566,0.034398 0.00157,0.02022 -0.015737,0.037889 -0.030625,0.050117 -0.034547,0.026884 -0.072452,0.047081 -0.1112808,0.067808 -0.092224,0.047393 -0.1882912,0.086645 -0.288923,0.1149672 -0.044561,0.011868 -0.072876,0.023327 -0.119448,0.02358 -0.040015,0.00683 -0.098734,-0.014041 -0.098734,-0.036358 l 0,-1.0159353 0.4029695,0 c 0.015106,0 0.032671,-0.021068 0.032671,-0.039908 l 0,-0.094338 c 0,-0.018318 -0.015726,-0.036155 -0.032671,-0.039916 l -0.4029695,0 0,-0.2160947 C 6.9727224,5.8328363 7.0521186,5.7463261 7.0520853,5.6415527 7.0521307,5.5026965 6.9352667,5.3899937 6.7907268,5.3899937 z m -0.00511,0.1228353 c 0.070164,0 0.1276361,0.053455 0.127615,0.1208658 2.37e-5,0.06741 -0.05745,0.1228299 -0.127615,0.1228299 -0.070165,0 -0.1286577,-0.055423 -0.1286353,-0.1228299 -2.39e-5,-0.067409 0.058471,-0.1208658 0.1286353,-0.1208658 z"
       id="path18"
       inkscape:connector-curvature="0"
       sodipodi:nodetypes="ccccsssscscccccccccccccccccccccccccccccccccccccccccccccccccccccscsssscccccscscs" />
    <path
       inkscape:connector-curvature="0"
       style="fill:#ffffff;fill-opacity:1;stroke:none"
       d="M 6.791397,2.4519426 C 5.683036,2.4520083 4.581999,2.9084938 3.798849,3.692177 3.015699,4.4758602 2.559717,5.5770814 2.559717,6.6852761 c 0,1.1081947 0.455982,2.209416 1.239132,2.9930991 0.78315,0.7836828 1.884187,1.2401678 2.992548,1.2402338 1.108361,6.6e-5 2.210051,-0.455996 2.9942016,-1.2396826 0.7841484,-0.7836871 1.2407844,-1.885332 1.2407844,-2.9936503 0,-1.1083183 -0.456636,-2.2099631 -1.2407844,-2.9936503 C 9.001448,2.9079387 7.899758,2.4518769 6.791397,2.4519426 z m 5.64e-4,1.6933335 c 0.665017,-3.95e-5 1.325921,0.2739283 1.796411,0.7441407 0.470476,0.4702124 0.7446784,1.1308681 0.7446784,1.7958593 0,0.6649912 -0.2742024,1.3256469 -0.7446924,1.7958594 C 8.117869,8.9513479 7.456964,9.2253157 6.791948,9.2252762 6.126931,9.2252367 5.465979,8.9513457 4.996088,8.4811355 4.526198,8.0109256 4.25305,7.3501931 4.25305,6.6852761 c 0,-0.664917 0.273148,-1.3256494 0.743038,-1.7958593 0.469891,-0.4702102 1.130843,-0.7441012 1.79586,-0.7441407 z"
       id="ellipse3292" />
    <rect
       style="fill:#ffffff;fill-opacity:1;fill-rule:evenodd;stroke:none"
       id="rect3307"
       width="1.9755557"
       height="0.56444472"
       x="5.8052702"
       y="2.4519942" />
    <ellipse
       sodipodi:ry="1.0000308"
       sodipodi:rx="1.0006928"
       sodipodi:cy="699.8125"
       sodipodi:cx="204.23592"
       transform="matrix(0.28222223,0,0,0.28222223,-50.847063,-194.76848)"
       style="fill:#ffffff;fill-opacity:1;stroke:none"
       id="ellipse3311"
       cx="204.23592"
       cy="699.8125"
       rx="1.0006928"
       ry="1.0000308"
       d="m 205.23661,699.8125 c 0,0.5523 -0.44803,1.00003 -1.00069,1.00003 -0.55267,0 -1.0007,-0.44773 -1.0007,-1.00003 0,-0.5523 0.44803,-1.00003 1.0007,-1.00003 0.55266,0 1.00069,0.44773 1.00069,1.00003 z" />
    <path
       style="fill:#ffffff;fill-opacity:1;fill-rule:evenodd;stroke:none"
       d="m 6.369714,1.6053973 0.846667,0 0.564444,0.8465453 -1.975555,0 z"
       id="rect3313"
       inkscape:connector-curvature="0"
       sodipodi:nodetypes="ccccc" />
    <rect
       y="-10.918729"
       x="5.8052702"
       height="0.56444472"
       width="1.9755557"
       id="rect3328"
       style="fill:#ffffff;fill-opacity:1;fill-rule:evenodd;stroke:none"
       transform="scale(1,-1)" />
    <ellipse
       sodipodi:ry="1.0000308"
       sodipodi:rx="1.0006928"
       sodipodi:cy="727.8125"
       sodipodi:cx="204.23592"
       transform="matrix(0.28222223,0,0,0.28222223,-50.847063,-194.76848)"
       ry="1.0000308"
       rx="1.0006928"
       cy="727.8125"
       cx="204.23592"
       id="ellipse3318"
       style="fill:#ffffff;fill-opacity:1;stroke:none"
       d="m 205.23661,727.8125 c 0,0.5523 -0.44803,1.00003 -1.00069,1.00003 -0.55267,0 -1.0007,-0.44773 -1.0007,-1.00003 0,-0.5523 0.44803,-1.00003 1.0007,-1.00003 0.55266,0 1.00069,0.44773 1.00069,1.00003 z" />
    <path
       sodipodi:nodetypes="ccccc"
       inkscape:connector-curvature="0"
       id="path3330"
       d="m 6.369714,11.765275 0.846667,0 0.564444,-0.846545 -1.975555,0 z"
       style="fill:#ffffff;fill-opacity:1;fill-rule:evenodd;stroke:none" />
    <rect
       y="-6.7736216"
       x="8.1984081"
       height="0.56444472"
       width="1.9755555"
       id="rect3332"
       style="fill:#ffffff;fill-opacity:1;fill-rule:evenodd;stroke:none"
       transform="matrix(0.5,0.8660254,-0.8660254,0.5,0,0)" />
    <path
       sodipodi:nodetypes="ccccc"
       inkscape:connector-curvature="0"
       id="path3334"
       d="M 10.980736,3.7787484 11.40407,4.5119843 10.953163,5.4240786 9.9653865,3.7131994 z"
       style="fill:#ffffff;fill-opacity:1;fill-rule:evenodd;stroke:none" />
    <rect
       transform="matrix(0.5,0.8660254,0.8660254,-0.5,0,0)"
       style="fill:#ffffff;fill-opacity:1;fill-rule:evenodd;stroke:none"
       id="rect3336"
       width="1.9755555"
       height="0.56444472"
       x="8.1984081"
       y="-1.6931132" />
    <path
       style="fill:#ffffff;fill-opacity:1;fill-rule:evenodd;stroke:none"
       d="M 2.182024,8.8586865 2.605358,9.5919224 3.620709,9.6574744 2.632931,7.9465925 z"
       id="path3338"
       inkscape:connector-curvature="0"
       sodipodi:nodetypes="ccccc" />
    <rect
       transform="matrix(-0.5,0.8660254,-0.8660254,-0.5,0,0)"
       style="fill:#ffffff;fill-opacity:1;fill-rule:evenodd;stroke:none"
       id="rect3340"
       width="1.9755555"
       height="0.56444472"
       x="1.4053704"
       y="-13.458958" />
    <path
       style="fill:#ffffff;fill-opacity:1;fill-rule:evenodd;stroke:none"
       d="M 11.40407,8.8586865 10.980736,9.5919224 9.9653865,9.6574744 10.953161,7.9465925 z"
       id="path3342"
       inkscape:connector-curvature="0"
       sodipodi:nodetypes="ccccc" />
    <rect
       y="4.9922214"
       x="1.4053704"
       height="0.56444472"
       width="1.9755555"
       id="rect3344"
       style="fill:#ffffff;fill-opacity:1;fill-rule:evenodd;stroke:none"
       transform="matrix(-0.5,0.8660254,0.8660254,0.5,0,0)" />
    <path
       sodipodi:nodetypes="ccccc"
       inkscape:connector-curvature="0"
       id="path3346"
       d="M 2.605358,3.7787484 2.182024,4.5119843 2.632931,5.4240786 3.620709,3.7131966 z"
       style="fill:#ffffff;fill-opacity:1;fill-rule:evenodd;stroke:none" />
    <ellipse
       sodipodi:ry="1.0000308"
       sodipodi:rx="1.0006928"
       sodipodi:cy="166.03214"
       sodipodi:cx="720.29742"
       ry="1.0000308"
       rx="1.0006928"
       cy="166.03214"
       cx="720.29742"
       id="ellipse3324"
       style="fill:#ffffff;fill-opacity:1;stroke:none"
       transform="matrix(0.14111111,0.24441162,-0.24441162,0.14111111,-50.847063,-194.76848)"
       d="m 721.29812,166.03214 c 0,0.5523 -0.44803,1.00003 -1.0007,1.00003 -0.55266,0 -1.00069,-0.44773 -1.00069,-1.00003 0,-0.55231 0.44803,-1.00004 1.00069,-1.00004 0.55267,0 1.0007,0.44773 1.0007,1.00004 z" />
    <ellipse
       sodipodi:ry="1.0000308"
       sodipodi:rx="1.0006928"
       sodipodi:cy="194.03214"
       sodipodi:cx="720.29742"
       style="fill:#ffffff;fill-opacity:1;stroke:none"
       id="ellipse3326"
       cx="720.29742"
       cy="194.03214"
       rx="1.0006928"
       ry="1.0000308"
       transform="matrix(0.14111111,0.24441162,-0.24441162,0.14111111,-50.847063,-194.76848)"
       d="m 721.29812,194.03214 c 0,0.5523 -0.44803,1.00003 -1.0007,1.00003 -0.55266,0 -1.00069,-0.44773 -1.00069,-1.00003 0,-0.55231 0.44803,-1.00004 1.00069,-1.00004 0.55267,0 1.0007,0.44773 1.0007,1.00004 z" />
    <ellipse
       sodipodi:ry="1.0000308"
       sodipodi:rx="1.0006928"
       sodipodi:cy="-547.78009"
       sodipodi:cx="-516.06201"
       transform="matrix(0.14111111,-0.24441162,-0.24441162,-0.14111111,-50.847063,-194.76848)"
       style="fill:#ffffff;fill-opacity:1;stroke:none"
       id="ellipse3348"
       cx="-516.06201"
       cy="-547.78009"
       rx="1.0006928"
       ry="1.0000308"
       d="m -515.06132,-547.78009 c 0,0.5523 -0.44802,1.00003 -1.00069,1.00003 -0.55267,0 -1.00069,-0.44773 -1.00069,-1.00003 0,-0.5523 0.44802,-1.00003 1.00069,-1.00003 0.55267,0 1.00069,0.44773 1.00069,1.00003 z" />
    <ellipse
       sodipodi:ry="1.0000308"
       sodipodi:rx="1.0006928"
       sodipodi:cy="-519.78009"
       sodipodi:cx="-516.06201"
       transform="matrix(0.14111111,-0.24441162,-0.24441162,-0.14111111,-50.847063,-194.76848)"
       ry="1.0000308"
       rx="1.0006928"
       cy="-519.78009"
       cx="-516.06201"
       id="ellipse3350"
       style="fill:#ffffff;fill-opacity:1;stroke:none"
       d="m -515.06132,-519.78009 c 0,0.5523 -0.44802,1.00003 -1.00069,1.00003 -0.55267,0 -1.00069,-0.44773 -1.00069,-1.00003 0,-0.5523 0.44802,-1.00003 1.00069,-1.00003 0.55267,0 1.00069,0.44773 1.00069,1.00003 z" />
    <path
       inkscape:connector-curvature="0"
       style="fill:#ffffff;fill-opacity:1;fill-rule:evenodd;stroke:none"
       d="m 6.822306,4.8703309 c -0.9347177,5.55e-5 -1.7844217,0.850478 -1.7844217,1.7850556 0,0.9345776 0.849704,1.7850001 1.7844217,1.7850556 0.9347177,5.55e-5 1.7856901,-0.8503739 1.7856901,-1.7850556 0,-0.9346818 -0.8509724,-1.7851111 -1.7856902,-1.7850556 z m 0,0.3245556 c 0.7647695,-4.55e-5 1.4611336,0.6957604 1.4611336,1.4605 0,0.7647396 -0.6963641,1.4605455 -1.4611337,1.4605001 -0.7647695,-4.55e-5 -1.4598663,-0.6958459 -1.4598663,-1.4605001 0,-0.7646543 0.6950968,-1.4604546 1.4598663,-1.4605 z"
       id="path3363" />
  </g>
</svg>
