<?xml version="1.0" encoding="UTF-8" standalone="no"?>
<svg
   xmlns:dc="http://purl.org/dc/elements/1.1/"
   xmlns:cc="http://creativecommons.org/ns#"
   xmlns:rdf="http://www.w3.org/1999/02/22-rdf-syntax-ns#"
   xmlns:svg="http://www.w3.org/2000/svg"
   xmlns="http://www.w3.org/2000/svg"
   xmlns:xlink="http://www.w3.org/1999/xlink"
   xmlns:sodipodi="http://sodipodi.sourceforge.net/DTD/sodipodi-0.dtd"
   xmlns:inkscape="http://www.inkscape.org/namespaces/inkscape"
   width="48"
   viewBox="0 0 13.546667 13.546667"
   height="48"
   id="svg2"
   version="1.1"
   inkscape:version="0.48.4 r9939"
   sodipodi:docname="rubymine.svg">
  <metadata
     id="metadata396">
    <rdf:RDF>
      <cc:Work
         rdf:about="">
        <dc:format>image/svg+xml</dc:format>
        <dc:type
           rdf:resource="http://purl.org/dc/dcmitype/StillImage" />
        <dc:title />
      </cc:Work>
    </rdf:RDF>
  </metadata>
  <sodipodi:namedview
     pagecolor="#ffffff"
     bordercolor="#666666"
     borderopacity="1"
     objecttolerance="10"
     gridtolerance="10"
     guidetolerance="10"
     inkscape:pageopacity="0"
     inkscape:pageshadow="2"
     inkscape:window-width="1366"
     inkscape:window-height="716"
     id="namedview394"
     showgrid="false"
     inkscape:zoom="6.9532167"
     inkscape:cx="33.102657"
     inkscape:cy="24.912224"
     inkscape:window-x="0"
     inkscape:window-y="28"
     inkscape:window-maximized="1"
     inkscape:current-layer="svg2" />
  <defs
     id="defs4">
    <clipPath
       clipPathUnits="userSpaceOnUse"
       id="clipPath6">
      <path
         style="fill:url(#radialGradient4225-7);clip-path:none"
         d="m 328,256 15,11 0,-27 -15,0 z"
         id="path8"
         clip-path="none" />
    </clipPath>
    <clipPath
       clipPathUnits="userSpaceOnUse"
       id="clipPath10">
      <rect
         width="90"
         x="307"
         y="31"
         rx="18.75"
         height="90"
         style="fill:url(#linearGradient4825-8);color:#bebebe"
         id="rect12" />
    </clipPath>
    <clipPath
       clipPathUnits="userSpaceOnUse"
       id="clipPath14">
      <path
         style="fill:url(#linearGradient4338);color:#bebebe"
         d="m 328,242.09376 c -7.73199,0 -14,6.26801 -14,14 0,7.73199 6.26801,14 14,14 7.73199,0 14,-6.26801 14,-14 0,-7.73199 -6.26801,-14 -14,-14 z m 0,9.90625 c 2.20914,0 4,1.79086 4,4 0,2.20914 -1.79086,4 -4,4 -2.20914,0 -4,-1.79086 -4,-4 0,-2.20914 1.79086,-4 4,-4 z m 0,1 c -1.65685,0 -3,1.34315 -3,3 0,1.65685 1.34315,3 3,3 1.65685,0 3,-1.34315 3,-3 0,-1.65685 -1.34315,-3 -3,-3 z m 0,1 c 1.10457,0 2,0.89543 2,2 0,1.10457 -0.89543,2 -2,2 -1.10457,0 -2,-0.89543 -2,-2 0,-1.10457 0.89543,-2 2,-2 z"
         id="path16" />
    </clipPath>
    <clipPath
       clipPathUnits="userSpaceOnUse"
       id="clipPath18">
      <rect
         width="42"
         x="307"
         y="223"
         rx="9"
         height="42"
         style="fill:url(#linearGradient4895-2);color:#bebebe"
         transform="rotate(90)"
         id="rect20" />
    </clipPath>
    <clipPath
       clipPathUnits="userSpaceOnUse"
       id="clipPath22">
      <rect
         width="60"
         x="306"
         y="142"
         rx="12.5"
         height="60"
         style="fill:url(#linearGradient4863-9);color:#bebebe"
         transform="matrix(0 -1 1 0 0 0)"
         id="rect24" />
    </clipPath>
    <clipPath
       clipPathUnits="userSpaceOnUse"
       id="clipPath26">
      <rect
         width="16"
         x="432"
         y="116"
         rx="2"
         height="16"
         style="opacity:.2;fill:#6d6d6d;color:#bebebe"
         id="rect28" />
    </clipPath>
    <clipPath
       clipPathUnits="userSpaceOnUse"
       id="clipPath30">
      <rect
         width="42"
         x="307"
         y="223"
         rx="9"
         height="42"
         style="fill:url(#linearGradient4895-0);color:#bebebe"
         transform="rotate(90)"
         id="rect32" />
    </clipPath>
    <clipPath
       clipPathUnits="userSpaceOnUse"
       id="clipPath34">
      <rect
         width="22"
         x="433"
         y="77"
         rx="3"
         height="22"
         style="opacity:.2;fill:#6d6d6d;color:#bebebe"
         id="rect36" />
    </clipPath>
    <clipPath
       clipPathUnits="userSpaceOnUse"
       id="clipPath38">
      <rect
         width="22"
         x="433"
         y="77"
         rx="5"
         height="22"
         style="color:#bebebe"
         id="rect40" />
    </clipPath>
    <clipPath
       clipPathUnits="userSpaceOnUse"
       id="clipPath42">
      <rect
         width="30"
         x="433"
         y="29"
         rx="6"
         height="30"
         style="color:#bebebe"
         id="rect44" />
    </clipPath>
    <clipPath
       clipPathUnits="userSpaceOnUse"
       id="clipPath46">
      <rect
         width="20"
         x="434"
         y="78"
         rx="4"
         height="20"
         style="color:#bebebe"
         id="rect48" />
    </clipPath>
    <clipPath
       clipPathUnits="userSpaceOnUse"
       id="clipPath50">
      <rect
         width="22"
         x="433"
         y="77"
         rx="3"
         height="22"
         style="opacity:.2;fill:#6d6d6d;color:#bebebe"
         id="rect52" />
    </clipPath>
    <clipPath
       clipPathUnits="userSpaceOnUse"
       id="clipPath54">
      <path
         style="opacity:.1;fill:#b74049;clip-path:url(#clipPath4112-2)"
         d="m 328,256 15,11 0,-27 -15,0 z"
         id="path56"
         clip-path="url(#clipPath4112-2)" />
    </clipPath>
    <clipPath
       clipPathUnits="userSpaceOnUse"
       id="clipPath58">
      <rect
         width="16"
         x="432"
         y="116"
         rx="2"
         height="16"
         style="opacity:.2;fill:#6d6d6d;color:#bebebe"
         id="rect60" />
    </clipPath>
    <clipPath
       clipPathUnits="userSpaceOnUse"
       id="clipPath62">
      <rect
         width="30"
         x="433"
         y="29"
         rx="4"
         height="30"
         style="opacity:.2;fill:#6d6d6d;color:#bebebe"
         id="rect64" />
    </clipPath>
    <clipPath
       clipPathUnits="userSpaceOnUse"
       id="clipPath66">
      <rect
         width="22"
         x="433"
         y="77"
         rx="4"
         height="22"
         style="color:#bebebe"
         id="rect68" />
    </clipPath>
    <clipPath
       clipPathUnits="userSpaceOnUse"
       id="clipPath70">
      <rect
         width="16"
         x="432"
         y="116"
         rx="3"
         height="16"
         style="color:#bebebe"
         id="rect72" />
    </clipPath>
    <clipPath
       clipPathUnits="userSpaceOnUse"
       id="clipPath74">
      <rect
         width="240"
         x="24"
         y="36"
         rx="50"
         height="240"
         style="fill:#986767;color:#bebebe"
         id="rect76" />
    </clipPath>
    <clipPath
       clipPathUnits="userSpaceOnUse"
       id="clipPath78">
      <rect
         width="60"
         x="306"
         y="142"
         rx="12.5"
         height="60"
         style="fill:url(#linearGradient4863-4);color:#bebebe"
         transform="matrix(0 -1 1 0 0 0)"
         id="rect80" />
    </clipPath>
    <clipPath
       clipPathUnits="userSpaceOnUse"
       id="clipPath82">
      <path
         style="opacity:.2;color:#bebebe"
         d="m 328,238 c -7.73199,0 -14,6.26801 -14,14 0,7.73199 6.26801,14 14,14 7.73199,0 14,-6.26801 14,-14 0,-7.73199 -6.26801,-14 -14,-14 z m 0,8.75 c 2.89949,0 5.25,2.35051 5.25,5.25 0,2.89949 -2.35051,5.25 -5.25,5.25 -2.89949,0 -5.25,-2.35051 -5.25,-5.25 0,-2.89949 2.35051,-5.25 5.25,-5.25 z m 0,1.75 c -1.933,0 -3.5,1.567 -3.5,3.5 0,1.933 1.567,3.5 3.5,3.5 1.933,0 3.5,-1.567 3.5,-3.5 0,-1.933 -1.567,-3.5 -3.5,-3.5 z m 0,1.75 c 0.96649,0 1.75,0.78351 1.75,1.75 0,0.96649 -0.78351,1.75 -1.75,1.75 -0.96649,0 -1.75,-0.78351 -1.75,-1.75 0,-0.96649 0.78351,-1.75 1.75,-1.75 z"
         id="path84" />
    </clipPath>
    <clipPath
       clipPathUnits="userSpaceOnUse"
       id="clipPath86">
      <path
         style="fill:url(#linearGradient4344-8);color:#bebebe"
         d="m 144.00001,75.999997 c -44.1828,0 -80,35.817203 -80,80.000003 0,44.1828 35.8172,80 80,80 44.1828,0 80,-35.8172 80,-80 0,-44.1828 -35.8172,-80.000003 -80,-80.000003 z m 0,56.607143 c 12.62366,0 22.85714,10.23349 22.85714,22.85714 0,12.62366 -10.23348,22.85714 -22.85714,22.85714 -12.62366,0 -22.85714,-10.23348 -22.85714,-22.85714 0,-12.62365 10.23348,-22.85714 22.85714,-22.85714 z m 0,5.71429 c -9.46771,0 -17.14286,7.67514 -17.14286,17.14285 0,9.46772 7.67515,17.14286 17.14286,17.14286 9.46771,0 17.14286,-7.67514 17.14286,-17.14286 0,-9.46771 -7.67515,-17.14285 -17.14286,-17.14285 z m 0,5.71428 c 6.31183,0 11.42857,5.11674 11.42857,11.42857 0,6.31183 -5.11674,11.42857 -11.42857,11.42857 -6.31183,0 -11.42857,-5.11674 -11.42857,-11.42857 0,-6.31183 5.11674,-11.42857 11.42857,-11.42857 z"
         id="path88" />
    </clipPath>
    <clipPath
       clipPathUnits="userSpaceOnUse"
       id="clipPath90">
      <path
         style="fill:url(#linearGradient4227-3);color:#bebebe"
         d="m 440,126 c -3.31371,0 -6,2.68629 -6,6 0,3.31371 2.68629,6 6,6 3.31371,0 6,-2.68629 6,-6 0,-3.31371 -2.68629,-6 -6,-6 z m 0,3 c 1.65685,0 3,1.34315 3,3 0,1.65685 -1.34315,3 -3,3 -1.65685,0 -3,-1.34315 -3,-3 0,-1.65685 1.34315,-3 3,-3 z m 0,1 c -1.10457,0 -2,0.89543 -2,2 0,1.10457 0.89543,2 2,2 1.10457,0 2,-0.89543 2,-2 0,-1.10457 -0.89543,-2 -2,-2 z m 0,1 c 0.55228,0 1,0.44772 1,1 0,0.55228 -0.44772,1 -1,1 -0.55228,0 -1,-0.44772 -1,-1 0,-0.55228 0.44772,-1 1,-1 z"
         id="path92" />
    </clipPath>
    <clipPath
       clipPathUnits="userSpaceOnUse"
       id="clipPath94">
      <rect
         width="20"
         x="434"
         y="78"
         rx="4"
         height="20"
         style="color:#bebebe"
         id="rect96" />
    </clipPath>
    <clipPath
       clipPathUnits="userSpaceOnUse"
       id="clipPath98">
      <rect
         width="240"
         x="24"
         y="36"
         rx="50"
         height="240"
         style="fill:#986767;color:#bebebe"
         id="rect100" />
    </clipPath>
    <clipPath
       clipPathUnits="userSpaceOnUse"
       id="clipPath102">
      <path
         style="fill:url(#linearGradient4203-4);color:#bebebe"
         d="m 444,88 c -4.41828,0 -8,3.58172 -8,8 0,4.41828 3.58172,8 8,8 4.41828,0 8,-3.58172 8,-8 0,-4.41828 -3.58172,-8 -8,-8 z m 0,5 c 1.65685,0 3,1.34315 3,3 0,1.65685 -1.34315,3 -3,3 -1.65685,0 -3,-1.34315 -3,-3 0,-1.65685 1.34315,-3 3,-3 z m 0,1 c -1.10457,0 -2,0.89543 -2,2 0,1.10457 0.89543,2 2,2 1.10457,0 2,-0.89543 2,-2 0,-1.10457 -0.89543,-2 -2,-2 z m 0,1 c 0.55228,0 1,0.44772 1,1 0,0.55228 -0.44772,1 -1,1 -0.55228,0 -1,-0.44772 -1,-1 0,-0.55228 0.44772,-1 1,-1 z"
         id="path104" />
    </clipPath>
    <clipPath
       clipPathUnits="userSpaceOnUse"
       id="clipPath106">
      <rect
         width="30"
         x="433"
         y="29"
         rx="6"
         height="30"
         style="color:#bebebe"
         id="rect108" />
    </clipPath>
    <clipPath
       clipPathUnits="userSpaceOnUse"
       id="clipPath110">
      <rect
         width="22"
         x="433"
         y="77"
         rx="4"
         height="22"
         style="color:#bebebe"
         id="rect112" />
    </clipPath>
    <clipPath
       clipPathUnits="userSpaceOnUse"
       id="clipPath114">
      <path
         style="opacity:.1;fill:#b74049;clip-path:url(#clipPath4112-5)"
         d="m 328,256 15,11 0,-27 -15,0 z"
         id="path116"
         clip-path="url(#clipPath4112-5)" />
    </clipPath>
    <clipPath
       id="clipPath4112-5"
       clipPathUnits="userSpaceOnUse">
      <path
         style="opacity:.2;color:#bebebe"
         d="m 328,242.09375 c -7.73199,0 -14,6.26801 -14,14 0,7.73199 6.26801,14 14,14 7.73199,0 14,-6.26801 14,-14 0,-7.73199 -6.26801,-14 -14,-14 z M 328,252 c 2.20914,0 4,1.79086 4,4 0,2.20914 -1.79086,4 -4,4 -2.20914,0 -4,-1.79086 -4,-4 0,-2.20914 1.79086,-4 4,-4 z m 0,1 c -1.65685,0 -3,1.34315 -3,3 0,1.65685 1.34315,3 3,3 1.65685,0 3,-1.34315 3,-3 0,-1.65685 -1.34315,-3 -3,-3 z m 0,1 c 1.10457,0 2,0.89543 2,2 0,1.10457 -0.89543,2 -2,2 -1.10457,0 -2,-0.89543 -2,-2 0,-1.10457 0.89543,-2 2,-2 z"
         id="path119" />
    </clipPath>
    <clipPath
       clipPathUnits="userSpaceOnUse"
       id="clipPath121">
      <path
         style="fill:url(#linearGradient4326-1);color:#bebebe"
         d="m 328,242.09376 c -7.73199,0 -14,6.26801 -14,14 0,7.73199 6.26801,14 14,14 7.73199,0 14,-6.26801 14,-14 0,-7.73199 -6.26801,-14 -14,-14 z m 0,9.90625 c 2.20914,0 4,1.79086 4,4 0,2.20914 -1.79086,4 -4,4 -2.20914,0 -4,-1.79086 -4,-4 0,-2.20914 1.79086,-4 4,-4 z m 0,1 c -1.65685,0 -3,1.34315 -3,3 0,1.65685 1.34315,3 3,3 1.65685,0 3,-1.34315 3,-3 0,-1.65685 -1.34315,-3 -3,-3 z m 0,1 c 1.10457,0 2,0.89543 2,2 0,1.10457 -0.89543,2 -2,2 -1.10457,0 -2,-0.89543 -2,-2 0,-1.10457 0.89543,-2 2,-2 z"
         id="path123" />
    </clipPath>
    <clipPath
       clipPathUnits="userSpaceOnUse"
       id="clipPath125">
      <rect
         width="16"
         x="432"
         y="116"
         rx="3"
         height="16"
         style="color:#bebebe"
         id="rect127" />
    </clipPath>
    <clipPath
       clipPathUnits="userSpaceOnUse"
       id="clipPath129">
      <path
         style="fill:url(#linearGradient4326-1);color:#bebebe"
         d="m 328,242.09376 c -7.73199,0 -14,6.26801 -14,14 0,7.73199 6.26801,14 14,14 7.73199,0 14,-6.26801 14,-14 0,-7.73199 -6.26801,-14 -14,-14 z m 0,9.90625 c 2.20914,0 4,1.79086 4,4 0,2.20914 -1.79086,4 -4,4 -2.20914,0 -4,-1.79086 -4,-4 0,-2.20914 1.79086,-4 4,-4 z m 0,1 c -1.65685,0 -3,1.34315 -3,3 0,1.65685 1.34315,3 3,3 1.65685,0 3,-1.34315 3,-3 0,-1.65685 -1.34315,-3 -3,-3 z m 0,1 c 1.10457,0 2,0.89543 2,2 0,1.10457 -0.89543,2 -2,2 -1.10457,0 -2,-0.89543 -2,-2 0,-1.10457 0.89543,-2 2,-2 z"
         id="path131" />
    </clipPath>
    <clipPath
       clipPathUnits="userSpaceOnUse"
       id="clipPath133">
      <path
         style="fill:url(#radialGradient4225-6);clip-path:none"
         d="m 328,256 15,11 0,-27 -15,0 z"
         id="path135"
         clip-path="none" />
    </clipPath>
    <clipPath
       clipPathUnits="userSpaceOnUse"
       id="clipPath137">
      <path
         style="opacity:.2;color:#bebebe"
         d="m 328,238 c -7.73199,0 -14,6.26801 -14,14 0,7.73199 6.26801,14 14,14 7.73199,0 14,-6.26801 14,-14 0,-7.73199 -6.26801,-14 -14,-14 z m 0,9.90625 c 2.20914,0 4,1.79086 4,4 0,2.20914 -1.79086,4 -4,4 -2.20914,0 -4,-1.79086 -4,-4 0,-2.20914 1.79086,-4 4,-4 z m 0,1 c -1.65685,0 -3,1.34315 -3,3 0,1.65685 1.34315,3 3,3 1.65685,0 3,-1.34315 3,-3 0,-1.65685 -1.34315,-3 -3,-3 z m 0,1 c 1.10457,0 2,0.89543 2,2 0,1.10457 -0.89543,2 -2,2 -1.10457,0 -2,-0.89543 -2,-2 0,-1.10457 0.89543,-2 2,-2 z"
         id="path139" />
    </clipPath>
    <clipPath
       clipPathUnits="userSpaceOnUse"
       id="clipPath141">
      <rect
         width="90"
         x="307"
         y="31"
         rx="18.75"
         height="90"
         style="fill:url(#linearGradient4825-6);color:#bebebe"
         id="rect143" />
    </clipPath>
    <clipPath
       clipPathUnits="userSpaceOnUse"
       id="clipPath145">
      <rect
         width="22"
         x="433"
         y="77"
         rx="5"
         height="22"
         style="color:#bebebe"
         id="rect147" />
    </clipPath>
    <clipPath
       clipPathUnits="userSpaceOnUse"
       id="clipPath149">
      <path
         style="fill:url(#linearGradient4296-6);color:#bebebe"
         d="m 451.38843,127.3713 c -3.31371,0 -6,2.68629 -6,6 0,3.31371 2.68629,6 6,6 3.31371,0 6,-2.68629 6,-6 0,-3.31371 -2.68629,-6 -6,-6 z m 0,3 c 1.65685,0 3,1.34315 3,3 0,1.65685 -1.34315,3 -3,3 -1.65685,0 -3,-1.34315 -3,-3 0,-1.65685 1.34315,-3 3,-3 z m 0,1 c -1.10457,0 -2,0.89543 -2,2 0,1.10457 0.89543,2 2,2 1.10457,0 2,-0.89543 2,-2 0,-1.10457 -0.89543,-2 -2,-2 z m 0,1 c 0.55228,0 1,0.44772 1,1 0,0.55228 -0.44772,1 -1,1 -0.55228,0 -1,-0.44772 -1,-1 0,-0.55228 0.44772,-1 1,-1 z"
         id="path151" />
    </clipPath>
    <clipPath
       clipPathUnits="userSpaceOnUse"
       id="clipPath153">
      <path
         style="fill:url(#radialGradient4229-8);clip-path:none"
         d="m 451.38843,133.3713 6.42857,4.71429 0,-11.57143 -6.42857,0 z"
         id="path155"
         clip-path="none" />
    </clipPath>
    <clipPath
       clipPathUnits="userSpaceOnUse"
       id="clipPath157">
      <path
         style="fill:url(#linearGradient4326-13);color:#bebebe"
         d="m 328,242.09376 c -7.73199,0 -14,6.26801 -14,14 0,7.73199 6.26801,14 14,14 7.73199,0 14,-6.26801 14,-14 0,-7.73199 -6.26801,-14 -14,-14 z m 0,9.90625 c 2.20914,0 4,1.79086 4,4 0,2.20914 -1.79086,4 -4,4 -2.20914,0 -4,-1.79086 -4,-4 0,-2.20914 1.79086,-4 4,-4 z m 0,1 c -1.65685,0 -3,1.34315 -3,3 0,1.65685 1.34315,3 3,3 1.65685,0 3,-1.34315 3,-3 0,-1.65685 -1.34315,-3 -3,-3 z m 0,1 c 1.10457,0 2,0.89543 2,2 0,1.10457 -0.89543,2 -2,2 -1.10457,0 -2,-0.89543 -2,-2 0,-1.10457 0.89543,-2 2,-2 z"
         id="path159" />
    </clipPath>
    <clipPath
       id="clipPath4112-2"
       clipPathUnits="userSpaceOnUse">
      <path
         style="opacity:.2;color:#bebebe"
         d="m 328,242.09375 c -7.73199,0 -14,6.26801 -14,14 0,7.73199 6.26801,14 14,14 7.73199,0 14,-6.26801 14,-14 0,-7.73199 -6.26801,-14 -14,-14 z M 328,252 c 2.20914,0 4,1.79086 4,4 0,2.20914 -1.79086,4 -4,4 -2.20914,0 -4,-1.79086 -4,-4 0,-2.20914 1.79086,-4 4,-4 z m 0,1 c -1.65685,0 -3,1.34315 -3,3 0,1.65685 1.34315,3 3,3 1.65685,0 3,-1.34315 3,-3 0,-1.65685 -1.34315,-3 -3,-3 z m 0,1 c 1.10457,0 2,0.89543 2,2 0,1.10457 -0.89543,2 -2,2 -1.10457,0 -2,-0.89543 -2,-2 0,-1.10457 0.89543,-2 2,-2 z"
         id="path162" />
    </clipPath>
    <clipPath
       clipPathUnits="userSpaceOnUse"
       id="clipPath164">
      <path
         style="opacity:.2;color:#bebebe"
         d="m 328,238 c -7.73199,0 -14,6.26801 -14,14 0,7.73199 6.26801,14 14,14 7.73199,0 14,-6.26801 14,-14 0,-7.73199 -6.26801,-14 -14,-14 z m 0,9.90625 c 2.20914,0 4,1.79086 4,4 0,2.20914 -1.79086,4 -4,4 -2.20914,0 -4,-1.79086 -4,-4 0,-2.20914 1.79086,-4 4,-4 z m 0,1 c -1.65685,0 -3,1.34315 -3,3 0,1.65685 1.34315,3 3,3 1.65685,0 3,-1.34315 3,-3 0,-1.65685 -1.34315,-3 -3,-3 z m 0,1 c 1.10457,0 2,0.89543 2,2 0,1.10457 -0.89543,2 -2,2 -1.10457,0 -2,-0.89543 -2,-2 0,-1.10457 0.89543,-2 2,-2 z"
         id="path166" />
    </clipPath>
    <clipPath
       clipPathUnits="userSpaceOnUse"
       id="clipPath168">
      <rect
         width="16"
         x="432"
         y="116"
         rx="2"
         height="16"
         style="opacity:.2;fill:#6d6d6d;color:#bebebe"
         id="rect170" />
    </clipPath>
    <clipPath
       clipPathUnits="userSpaceOnUse"
       id="clipPath172">
      <path
         style="fill:url(#linearGradient4326-13);color:#bebebe"
         d="m 328,242.09376 c -7.73199,0 -14,6.26801 -14,14 0,7.73199 6.26801,14 14,14 7.73199,0 14,-6.26801 14,-14 0,-7.73199 -6.26801,-14 -14,-14 z m 0,9.90625 c 2.20914,0 4,1.79086 4,4 0,2.20914 -1.79086,4 -4,4 -2.20914,0 -4,-1.79086 -4,-4 0,-2.20914 1.79086,-4 4,-4 z m 0,1 c -1.65685,0 -3,1.34315 -3,3 0,1.65685 1.34315,3 3,3 1.65685,0 3,-1.34315 3,-3 0,-1.65685 -1.34315,-3 -3,-3 z m 0,1 c 1.10457,0 2,0.89543 2,2 0,1.10457 -0.89543,2 -2,2 -1.10457,0 -2,-0.89543 -2,-2 0,-1.10457 0.89543,-2 2,-2 z"
         id="path174" />
    </clipPath>
    <clipPath
       clipPathUnits="userSpaceOnUse"
       id="clipPath176">
      <path
         style="fill:url(#radialGradient4279);clip-path:none"
         d="m 451.38843,133.3713 6.42857,4.71429 0,-11.57143 -6.42857,0 z"
         id="path178"
         clip-path="none" />
    </clipPath>
    <clipPath
       clipPathUnits="userSpaceOnUse"
       id="clipPath180">
      <path
         style="fill:url(#linearGradient4296);color:#bebebe"
         d="m 451.38843,127.3713 c -3.31371,0 -6,2.68629 -6,6 0,3.31371 2.68629,6 6,6 3.31371,0 6,-2.68629 6,-6 0,-3.31371 -2.68629,-6 -6,-6 z m 0,3 c 1.65685,0 3,1.34315 3,3 0,1.65685 -1.34315,3 -3,3 -1.65685,0 -3,-1.34315 -3,-3 0,-1.65685 1.34315,-3 3,-3 z m 0,1 c -1.10457,0 -2,0.89543 -2,2 0,1.10457 0.89543,2 2,2 1.10457,0 2,-0.89543 2,-2 0,-1.10457 -0.89543,-2 -2,-2 z m 0,1 c 0.55228,0 1,0.44772 1,1 0,0.55228 -0.44772,1 -1,1 -0.55228,0 -1,-0.44772 -1,-1 0,-0.55228 0.44772,-1 1,-1 z"
         id="path182" />
    </clipPath>
    <clipPath
       clipPathUnits="userSpaceOnUse"
       id="clipPath184">
      <path
         style="opacity:.2;color:#bebebe"
         d="m 328,238 c -7.73199,0 -14,6.26801 -14,14 0,7.73199 6.26801,14 14,14 7.73199,0 14,-6.26801 14,-14 0,-7.73199 -6.26801,-14 -14,-14 z m 0,9.90625 c 2.20914,0 4,1.79086 4,4 0,2.20914 -1.79086,4 -4,4 -2.20914,0 -4,-1.79086 -4,-4 0,-2.20914 1.79086,-4 4,-4 z m 0,1 c -1.65685,0 -3,1.34315 -3,3 0,1.65685 1.34315,3 3,3 1.65685,0 3,-1.34315 3,-3 0,-1.65685 -1.34315,-3 -3,-3 z m 0,1 c 1.10457,0 2,0.89543 2,2 0,1.10457 -0.89543,2 -2,2 -1.10457,0 -2,-0.89543 -2,-2 0,-1.10457 0.89543,-2 2,-2 z"
         id="path186" />
    </clipPath>
    <clipPath
       clipPathUnits="userSpaceOnUse"
       id="clipPath188">
      <path
         style="fill:url(#radialGradient4250);clip-path:none"
         d="m 328,256 15,11 0,-27 -15,0 z"
         id="path190"
         clip-path="none" />
    </clipPath>
    <clipPath
       clipPathUnits="userSpaceOnUse"
       id="clipPath192">
      <path
         style="opacity:.1;fill:#b74049;clip-path:url(#clipPath4112)"
         d="m 328,256 15,11 0,-27 -15,0 z"
         id="path194"
         clip-path="url(#clipPath4112)" />
    </clipPath>
    <clipPath
       clipPathUnits="userSpaceOnUse"
       id="clipPath196">
      <path
         style="fill:url(#linearGradient4326-1);color:#bebebe"
         d="m 328,242.09376 c -7.73199,0 -14,6.26801 -14,14 0,7.73199 6.26801,14 14,14 7.73199,0 14,-6.26801 14,-14 0,-7.73199 -6.26801,-14 -14,-14 z m 0,9.90625 c 2.20914,0 4,1.79086 4,4 0,2.20914 -1.79086,4 -4,4 -2.20914,0 -4,-1.79086 -4,-4 0,-2.20914 1.79086,-4 4,-4 z m 0,1 c -1.65685,0 -3,1.34315 -3,3 0,1.65685 1.34315,3 3,3 1.65685,0 3,-1.34315 3,-3 0,-1.65685 -1.34315,-3 -3,-3 z m 0,1 c 1.10457,0 2,0.89543 2,2 0,1.10457 -0.89543,2 -2,2 -1.10457,0 -2,-0.89543 -2,-2 0,-1.10457 0.89543,-2 2,-2 z"
         id="path198" />
    </clipPath>
    <clipPath
       clipPathUnits="userSpaceOnUse"
       id="clipPath200">
      <path
         style="fill:url(#linearGradient4306);color:#bebebe"
         d="m 440,126 c -3.31371,0 -6,2.68629 -6,6 0,3.31371 2.68629,6 6,6 3.31371,0 6,-2.68629 6,-6 0,-3.31371 -2.68629,-6 -6,-6 z m 0,3 c 1.65685,0 3,1.34315 3,3 0,1.65685 -1.34315,3 -3,3 -1.65685,0 -3,-1.34315 -3,-3 0,-1.65685 1.34315,-3 3,-3 z m 0,1 c -1.10457,0 -2,0.89543 -2,2 0,1.10457 0.89543,2 2,2 1.10457,0 2,-0.89543 2,-2 0,-1.10457 -0.89543,-2 -2,-2 z m 0,1 c 0.55228,0 1,0.44772 1,1 0,0.55228 -0.44772,1 -1,1 -0.55228,0 -1,-0.44772 -1,-1 0,-0.55228 0.44772,-1 1,-1 z"
         id="path202" />
    </clipPath>
    <clipPath
       clipPathUnits="userSpaceOnUse"
       id="clipPath204">
      <path
         style="fill:url(#linearGradient4344-1);color:#bebebe"
         d="m 144.00001,75.999997 c -44.1828,0 -80,35.817203 -80,80.000003 0,44.1828 35.8172,80 80,80 44.1828,0 80,-35.8172 80,-80 0,-44.1828 -35.8172,-80.000003 -80,-80.000003 z m 0,56.607143 c 12.62366,0 22.85714,10.23349 22.85714,22.85714 0,12.62366 -10.23348,22.85714 -22.85714,22.85714 -12.62366,0 -22.85714,-10.23348 -22.85714,-22.85714 0,-12.62365 10.23348,-22.85714 22.85714,-22.85714 z m 0,5.71429 c -9.46771,0 -17.14286,7.67514 -17.14286,17.14285 0,9.46772 7.67515,17.14286 17.14286,17.14286 9.46771,0 17.14286,-7.67514 17.14286,-17.14286 0,-9.46771 -7.67515,-17.14285 -17.14286,-17.14285 z m 0,5.71428 c 6.31183,0 11.42857,5.11674 11.42857,11.42857 0,6.31183 -5.11674,11.42857 -11.42857,11.42857 -6.31183,0 -11.42857,-5.11674 -11.42857,-11.42857 0,-6.31183 5.11674,-11.42857 11.42857,-11.42857 z"
         id="path206" />
    </clipPath>
    <clipPath
       clipPathUnits="userSpaceOnUse"
       id="clipPath208">
      <path
         style="fill:url(#linearGradient4377);color:#bebebe"
         d="m 444,88 c -4.41828,0 -8,3.58172 -8,8 0,4.41828 3.58172,8 8,8 4.41828,0 8,-3.58172 8,-8 0,-4.41828 -3.58172,-8 -8,-8 z m 0,5 c 1.65685,0 3,1.34315 3,3 0,1.65685 -1.34315,3 -3,3 -1.65685,0 -3,-1.34315 -3,-3 0,-1.65685 1.34315,-3 3,-3 z m 0,1 c -1.10457,0 -2,0.89543 -2,2 0,1.10457 0.89543,2 2,2 1.10457,0 2,-0.89543 2,-2 0,-1.10457 -0.89543,-2 -2,-2 z m 0,1 c 0.55228,0 1,0.44772 1,1 0,0.55228 -0.44772,1 -1,1 -0.55228,0 -1,-0.44772 -1,-1 0,-0.55228 0.44772,-1 1,-1 z"
         id="path210" />
    </clipPath>
    <clipPath
       clipPathUnits="userSpaceOnUse"
       id="clipPath212">
      <rect
         width="30"
         x="433"
         y="29"
         rx="4"
         height="30"
         style="opacity:.2;fill:#6d6d6d;color:#bebebe"
         id="rect214" />
    </clipPath>
    <clipPath
       clipPathUnits="userSpaceOnUse"
       id="clipPath216">
      <path
         style="opacity:.2;color:#bebebe"
         d="m 328,238 c -7.73199,0 -14,6.26801 -14,14 0,7.73199 6.26801,14 14,14 7.73199,0 14,-6.26801 14,-14 0,-7.73199 -6.26801,-14 -14,-14 z m 0,8.75 c 2.89949,0 5.25,2.35051 5.25,5.25 0,2.89949 -2.35051,5.25 -5.25,5.25 -2.89949,0 -5.25,-2.35051 -5.25,-5.25 0,-2.89949 2.35051,-5.25 5.25,-5.25 z m 0,1.75 c -1.933,0 -3.5,1.567 -3.5,3.5 0,1.933 1.567,3.5 3.5,3.5 1.933,0 3.5,-1.567 3.5,-3.5 0,-1.933 -1.567,-3.5 -3.5,-3.5 z m 0,1.75 c 0.96649,0 1.75,0.78351 1.75,1.75 0,0.96649 -0.78351,1.75 -1.75,1.75 -0.96649,0 -1.75,-0.78351 -1.75,-1.75 0,-0.96649 0.78351,-1.75 1.75,-1.75 z"
         id="path218" />
    </clipPath>
    <clipPath
       clipPathUnits="userSpaceOnUse"
       id="clipPath220">
      <path
         style="fill:url(#linearGradient4338);color:#bebebe"
         d="m 328,242.09376 c -7.73199,0 -14,6.26801 -14,14 0,7.73199 6.26801,14 14,14 7.73199,0 14,-6.26801 14,-14 0,-7.73199 -6.26801,-14 -14,-14 z m 0,9.90625 c 2.20914,0 4,1.79086 4,4 0,2.20914 -1.79086,4 -4,4 -2.20914,0 -4,-1.79086 -4,-4 0,-2.20914 1.79086,-4 4,-4 z m 0,1 c -1.65685,0 -3,1.34315 -3,3 0,1.65685 1.34315,3 3,3 1.65685,0 3,-1.34315 3,-3 0,-1.65685 -1.34315,-3 -3,-3 z m 0,1 c 1.10457,0 2,0.89543 2,2 0,1.10457 -0.89543,2 -2,2 -1.10457,0 -2,-0.89543 -2,-2 0,-1.10457 0.89543,-2 2,-2 z"
         id="path222" />
    </clipPath>
    <clipPath
       clipPathUnits="userSpaceOnUse"
       id="clipPath224">
      <path
         style="fill:url(#linearGradient4203-6);color:#bebebe"
         d="m 444,88 c -4.41828,0 -8,3.58172 -8,8 0,4.41828 3.58172,8 8,8 4.41828,0 8,-3.58172 8,-8 0,-4.41828 -3.58172,-8 -8,-8 z m 0,5 c 1.65685,0 3,1.34315 3,3 0,1.65685 -1.34315,3 -3,3 -1.65685,0 -3,-1.34315 -3,-3 0,-1.65685 1.34315,-3 3,-3 z m 0,1 c -1.10457,0 -2,0.89543 -2,2 0,1.10457 0.89543,2 2,2 1.10457,0 2,-0.89543 2,-2 0,-1.10457 -0.89543,-2 -2,-2 z m 0,1 c 0.55228,0 1,0.44772 1,1 0,0.55228 -0.44772,1 -1,1 -0.55228,0 -1,-0.44772 -1,-1 0,-0.55228 0.44772,-1 1,-1 z"
         id="path226" />
    </clipPath>
    <clipPath
       clipPathUnits="userSpaceOnUse"
       id="clipPath228">
      <rect
         width="16"
         x="432"
         y="116"
         rx="3"
         height="16"
         style="color:#bebebe"
         id="rect230" />
    </clipPath>
    <clipPath
       clipPathUnits="userSpaceOnUse"
       id="clipPath232">
      <path
         style="fill:url(#linearGradient4296-69);color:#bebebe"
         d="m 451.38843,127.3713 c -3.31371,0 -6,2.68629 -6,6 0,3.31371 2.68629,6 6,6 3.31371,0 6,-2.68629 6,-6 0,-3.31371 -2.68629,-6 -6,-6 z m 0,3 c 1.65685,0 3,1.34315 3,3 0,1.65685 -1.34315,3 -3,3 -1.65685,0 -3,-1.34315 -3,-3 0,-1.65685 1.34315,-3 3,-3 z m 0,1 c -1.10457,0 -2,0.89543 -2,2 0,1.10457 0.89543,2 2,2 1.10457,0 2,-0.89543 2,-2 0,-1.10457 -0.89543,-2 -2,-2 z m 0,1 c 0.55228,0 1,0.44772 1,1 0,0.55228 -0.44772,1 -1,1 -0.55228,0 -1,-0.44772 -1,-1 0,-0.55228 0.44772,-1 1,-1 z"
         id="path234" />
    </clipPath>
    <clipPath
       clipPathUnits="userSpaceOnUse"
       id="clipPath236">
      <path
         style="fill:url(#linearGradient4344);color:#bebebe"
         d="m 144.00001,75.999997 c -44.1828,0 -80,35.817203 -80,80.000003 0,44.1828 35.8172,80 80,80 44.1828,0 80,-35.8172 80,-80 0,-44.1828 -35.8172,-80.000003 -80,-80.000003 z m 0,56.607143 c 12.62366,0 22.85714,10.23349 22.85714,22.85714 0,12.62366 -10.23348,22.85714 -22.85714,22.85714 -12.62366,0 -22.85714,-10.23348 -22.85714,-22.85714 0,-12.62365 10.23348,-22.85714 22.85714,-22.85714 z m 0,5.71429 c -9.46771,0 -17.14286,7.67514 -17.14286,17.14285 0,9.46772 7.67515,17.14286 17.14286,17.14286 9.46771,0 17.14286,-7.67514 17.14286,-17.14286 0,-9.46771 -7.67515,-17.14285 -17.14286,-17.14285 z m 0,5.71428 c 6.31183,0 11.42857,5.11674 11.42857,11.42857 0,6.31183 -5.11674,11.42857 -11.42857,11.42857 -6.31183,0 -11.42857,-5.11674 -11.42857,-11.42857 0,-6.31183 5.11674,-11.42857 11.42857,-11.42857 z"
         id="path238" />
    </clipPath>
    <clipPath
       clipPathUnits="userSpaceOnUse"
       id="clipPath240">
      <rect
         width="240"
         x="24"
         y="36"
         rx="50"
         height="240"
         style="fill:#986767;color:#bebebe"
         id="rect242" />
    </clipPath>
    <clipPath
       clipPathUnits="userSpaceOnUse"
       id="clipPath244">
      <rect
         width="22"
         x="433"
         y="77"
         rx="5"
         height="22"
         style="color:#bebebe"
         id="rect246" />
    </clipPath>
    <clipPath
       id="clipPath4112"
       clipPathUnits="userSpaceOnUse">
      <path
         style="opacity:.2;color:#bebebe"
         d="m 328,242.09375 c -7.73199,0 -14,6.26801 -14,14 0,7.73199 6.26801,14 14,14 7.73199,0 14,-6.26801 14,-14 0,-7.73199 -6.26801,-14 -14,-14 z M 328,252 c 2.20914,0 4,1.79086 4,4 0,2.20914 -1.79086,4 -4,4 -2.20914,0 -4,-1.79086 -4,-4 0,-2.20914 1.79086,-4 4,-4 z m 0,1 c -1.65685,0 -3,1.34315 -3,3 0,1.65685 1.34315,3 3,3 1.65685,0 3,-1.34315 3,-3 0,-1.65685 -1.34315,-3 -3,-3 z m 0,1 c 1.10457,0 2,0.89543 2,2 0,1.10457 -0.89543,2 -2,2 -1.10457,0 -2,-0.89543 -2,-2 0,-1.10457 0.89543,-2 2,-2 z"
         id="path249" />
    </clipPath>
    <clipPath
       clipPathUnits="userSpaceOnUse"
       id="clipPath251">
      <rect
         width="22"
         x="433"
         y="77"
         rx="4"
         height="22"
         style="color:#bebebe"
         id="rect253" />
    </clipPath>
    <clipPath
       clipPathUnits="userSpaceOnUse"
       id="clipPath255">
      <rect
         width="20"
         x="434"
         y="78"
         rx="4"
         height="20"
         style="color:#bebebe"
         id="rect257" />
    </clipPath>
    <clipPath
       clipPathUnits="userSpaceOnUse"
       id="clipPath259">
      <rect
         width="90"
         x="307"
         y="31"
         rx="18.75"
         height="90"
         style="fill:url(#linearGradient4825);color:#bebebe"
         id="rect261" />
    </clipPath>
    <clipPath
       clipPathUnits="userSpaceOnUse"
       id="clipPath263">
      <path
         style="fill:url(#radialGradient4229-9);clip-path:none"
         d="m 451.38843,133.3713 6.42857,4.71429 0,-11.57143 -6.42857,0 z"
         id="path265"
         clip-path="none" />
    </clipPath>
    <clipPath
       clipPathUnits="userSpaceOnUse"
       id="clipPath267">
      <path
         style="opacity:.2;color:#bebebe"
         d="m 328,238 c -7.73199,0 -14,6.26801 -14,14 0,7.73199 6.26801,14 14,14 7.73199,0 14,-6.26801 14,-14 0,-7.73199 -6.26801,-14 -14,-14 z m 0,8.75 c 2.89949,0 5.25,2.35051 5.25,5.25 0,2.89949 -2.35051,5.25 -5.25,5.25 -2.89949,0 -5.25,-2.35051 -5.25,-5.25 0,-2.89949 2.35051,-5.25 5.25,-5.25 z m 0,1.75 c -1.933,0 -3.5,1.567 -3.5,3.5 0,1.933 1.567,3.5 3.5,3.5 1.933,0 3.5,-1.567 3.5,-3.5 0,-1.933 -1.567,-3.5 -3.5,-3.5 z m 0,1.75 c 0.96649,0 1.75,0.78351 1.75,1.75 0,0.96649 -0.78351,1.75 -1.75,1.75 -0.96649,0 -1.75,-0.78351 -1.75,-1.75 0,-0.96649 0.78351,-1.75 1.75,-1.75 z"
         id="path269" />
    </clipPath>
    <clipPath
       clipPathUnits="userSpaceOnUse"
       id="clipPath271">
      <rect
         width="30"
         x="433"
         y="29"
         rx="6"
         height="30"
         style="color:#bebebe"
         id="rect273" />
    </clipPath>
    <clipPath
       clipPathUnits="userSpaceOnUse"
       id="clipPath275">
      <path
         style="fill:url(#linearGradient4326-13);color:#bebebe"
         d="m 328,242.09376 c -7.73199,0 -14,6.26801 -14,14 0,7.73199 6.26801,14 14,14 7.73199,0 14,-6.26801 14,-14 0,-7.73199 -6.26801,-14 -14,-14 z m 0,9.90625 c 2.20914,0 4,1.79086 4,4 0,2.20914 -1.79086,4 -4,4 -2.20914,0 -4,-1.79086 -4,-4 0,-2.20914 1.79086,-4 4,-4 z m 0,1 c -1.65685,0 -3,1.34315 -3,3 0,1.65685 1.34315,3 3,3 1.65685,0 3,-1.34315 3,-3 0,-1.65685 -1.34315,-3 -3,-3 z m 0,1 c 1.10457,0 2,0.89543 2,2 0,1.10457 -0.89543,2 -2,2 -1.10457,0 -2,-0.89543 -2,-2 0,-1.10457 0.89543,-2 2,-2 z"
         id="path277" />
    </clipPath>
    <clipPath
       clipPathUnits="userSpaceOnUse"
       id="clipPath279">
      <path
         style="fill:url(#linearGradient4338);color:#bebebe"
         d="m 328,242.09376 c -7.73199,0 -14,6.26801 -14,14 0,7.73199 6.26801,14 14,14 7.73199,0 14,-6.26801 14,-14 0,-7.73199 -6.26801,-14 -14,-14 z m 0,9.90625 c 2.20914,0 4,1.79086 4,4 0,2.20914 -1.79086,4 -4,4 -2.20914,0 -4,-1.79086 -4,-4 0,-2.20914 1.79086,-4 4,-4 z m 0,1 c -1.65685,0 -3,1.34315 -3,3 0,1.65685 1.34315,3 3,3 1.65685,0 3,-1.34315 3,-3 0,-1.65685 -1.34315,-3 -3,-3 z m 0,1 c 1.10457,0 2,0.89543 2,2 0,1.10457 -0.89543,2 -2,2 -1.10457,0 -2,-0.89543 -2,-2 0,-1.10457 0.89543,-2 2,-2 z"
         id="path281" />
    </clipPath>
    <clipPath
       clipPathUnits="userSpaceOnUse"
       id="clipPath283">
      <rect
         width="22"
         x="433"
         y="77"
         rx="3"
         height="22"
         style="opacity:.2;fill:#6d6d6d;color:#bebebe"
         id="rect285" />
    </clipPath>
    <clipPath
       clipPathUnits="userSpaceOnUse"
       id="clipPath287">
      <rect
         width="60"
         x="306"
         y="142"
         rx="12.5"
         height="60"
         style="fill:url(#linearGradient4863);color:#bebebe"
         transform="matrix(0 -1 1 0 0 0)"
         id="rect289" />
    </clipPath>
    <clipPath
       clipPathUnits="userSpaceOnUse"
       id="clipPath291">
      <rect
         width="42"
         x="307"
         y="223"
         rx="9"
         height="42"
         style="fill:url(#linearGradient4895);color:#bebebe"
         transform="rotate(90)"
         id="rect293" />
    </clipPath>
    <clipPath
       clipPathUnits="userSpaceOnUse"
       id="clipPath295">
      <path
         style="fill:url(#linearGradient4227-4);color:#bebebe"
         d="m 440,126 c -3.31371,0 -6,2.68629 -6,6 0,3.31371 2.68629,6 6,6 3.31371,0 6,-2.68629 6,-6 0,-3.31371 -2.68629,-6 -6,-6 z m 0,3 c 1.65685,0 3,1.34315 3,3 0,1.65685 -1.34315,3 -3,3 -1.65685,0 -3,-1.34315 -3,-3 0,-1.65685 1.34315,-3 3,-3 z m 0,1 c -1.10457,0 -2,0.89543 -2,2 0,1.10457 0.89543,2 2,2 1.10457,0 2,-0.89543 2,-2 0,-1.10457 -0.89543,-2 -2,-2 z m 0,1 c 0.55228,0 1,0.44772 1,1 0,0.55228 -0.44772,1 -1,1 -0.55228,0 -1,-0.44772 -1,-1 0,-0.55228 0.44772,-1 1,-1 z"
         id="path297" />
    </clipPath>
    <clipPath
       clipPathUnits="userSpaceOnUse"
       id="clipPath299">
      <rect
         width="30"
         x="433"
         y="29"
         rx="4"
         height="30"
         style="opacity:.2;fill:#6d6d6d;color:#bebebe"
         id="rect301" />
    </clipPath>
    <linearGradient
       gradientTransform="translate(0 4.09376)"
       xlink:href="#linearGradient4174-6"
       id="linearGradient4326-13"
       y1="273"
       y2="231"
       gradientUnits="userSpaceOnUse"
       x2="0" />
    <linearGradient
       id="outerBackgroundGradient-77">
      <stop
         offset="0"
         style="stop-color:#f0f0f0"
         id="stop305" />
      <stop
         offset="1"
         style="stop-color:#f8f8f8"
         id="stop307" />
    </linearGradient>
    <linearGradient
       gradientTransform="matrix(.25 0 0 .25 299.99999 131.99999)"
       xlink:href="#outerBackgroundGradient-77"
       id="linearGradient4863-4"
       y1="230"
       y2="90"
       gradientUnits="userSpaceOnUse"
       x2="0" />
    <linearGradient
       gradientTransform="translate(11.38843 1.3713)"
       xlink:href="#linearGradient4174-6"
       id="linearGradient4296-69"
       y1="140"
       y2="124"
       gradientUnits="userSpaceOnUse"
       x2="0" />
    <linearGradient
       gradientTransform="matrix(5.71429 0 0 5.71429 -1730.2857 -1284)"
       xlink:href="#linearGradient4174-6"
       id="linearGradient4344-1"
       y1="273"
       y2="231"
       gradientUnits="userSpaceOnUse"
       x2="0" />
    <linearGradient
       gradientTransform="matrix(.175 0 0 .175 302.79999 215.99997)"
       xlink:href="#outerBackgroundGradient-77"
       id="linearGradient4895-2"
       y1="280"
       y2="40"
       gradientUnits="userSpaceOnUse"
       x2="0" />
    <linearGradient
       gradientTransform="matrix(.375 0 0 .375 298 16)"
       xlink:href="#outerBackgroundGradient-77"
       id="linearGradient4825-6"
       y1="230"
       y2="90"
       gradientUnits="userSpaceOnUse"
       x2="0" />
    <linearGradient
       id="linearGradient4520">
      <stop
         offset="0"
         style="stop-color:#ccc"
         id="stop315" />
      <stop
         offset="1"
         style="stop-color:#eaeaea"
         id="stop317" />
    </linearGradient>
    <linearGradient
       id="outerBackgroundGradient">
      <stop
         offset="0"
         style="stop-color:#f0f0f0"
         id="stop320" />
      <stop
         offset="1"
         style="stop-color:#f8f8f8"
         id="stop322" />
    </linearGradient>
    <linearGradient
       id="linearGradient4227-3"
       xlink:href="#linearGradient4174-3"
       y1="140"
       y2="124"
       x2="0"
       gradientUnits="userSpaceOnUse" />
    <linearGradient
       id="linearGradient4126-5">
      <stop
         offset="0"
         style="stop-color:#eaba31"
         id="stop326" />
      <stop
         offset="1"
         style="stop-color:#ff9200"
         id="stop328" />
    </linearGradient>
    <linearGradient
       gradientTransform="translate(11.38843 1.3713)"
       id="linearGradient4296"
       xlink:href="#linearGradient4174"
       y1="140"
       y2="124"
       x2="0"
       gradientUnits="userSpaceOnUse" />
    <linearGradient
       id="linearGradient4203-4"
       xlink:href="#linearGradient4174-3"
       y1="107"
       y2="85"
       x2="0"
       gradientUnits="userSpaceOnUse" />
    <linearGradient
       id="linearGradient4174-3">
      <stop
         offset="0"
         style="stop-color:#818181"
         id="stop333" />
      <stop
         offset="1"
         style="stop-color:#c5c5c5"
         id="stop335" />
    </linearGradient>
    <linearGradient
       gradientTransform="matrix(.375 0 0 .375 298 16)"
       id="linearGradient4825"
       xlink:href="#outerBackgroundGradient"
       y1="230"
       y2="90"
       x2="0"
       gradientUnits="userSpaceOnUse" />
    <linearGradient
       id="linearGradient4377"
       xlink:href="#linearGradient4174"
       y1="107"
       y2="85"
       x2="0"
       gradientUnits="userSpaceOnUse" />
    <linearGradient
       id="linearGradient4174">
      <stop
         offset="0"
         style="stop-color:#818181"
         id="stop340" />
      <stop
         offset="1"
         style="stop-color:#c5c5c5"
         id="stop342" />
    </linearGradient>
    <linearGradient
       gradientTransform="matrix(5.71429 0 0 5.71429 -1730.2857 -1284)"
       id="linearGradient4344"
       xlink:href="#linearGradient4174"
       y1="273"
       y2="231"
       x2="0"
       gradientUnits="userSpaceOnUse" />
    <linearGradient
       id="linearGradient4306"
       xlink:href="#linearGradient4174"
       y1="140"
       y2="124"
       x2="0"
       gradientUnits="userSpaceOnUse" />
    <linearGradient
       gradientTransform="matrix(5.71429 0 0 5.71429 -1730.2857 -1284)"
       xlink:href="#linearGradient4174-3"
       id="linearGradient4344-8"
       y1="273"
       y2="231"
       gradientUnits="userSpaceOnUse"
       x2="0" />
    <linearGradient
       gradientTransform="matrix(.175 0 0 .175 302.79999 215.99997)"
       id="linearGradient4895"
       xlink:href="#outerBackgroundGradient"
       y1="280"
       y2="40"
       x2="0"
       gradientUnits="userSpaceOnUse" />
    <linearGradient
       id="linearGradient4203-6"
       xlink:href="#linearGradient4174-6"
       y1="107"
       y2="85"
       x2="0"
       gradientUnits="userSpaceOnUse" />
    <linearGradient
       id="linearGradient4126-5-5">
      <stop
         offset="0"
         style="stop-color:#eaba31"
         id="stop350" />
      <stop
         offset="1"
         style="stop-color:#ff9200"
         id="stop352" />
    </linearGradient>
    <linearGradient
       gradientTransform="translate(11.38843 1.3713)"
       xlink:href="#linearGradient4174-3"
       id="linearGradient4296-6"
       y1="140"
       y2="124"
       gradientUnits="userSpaceOnUse"
       x2="0" />
    <linearGradient
       gradientTransform="translate(0 4.09376)"
       xlink:href="#linearGradient4174-3"
       id="linearGradient4326-1"
       y1="273"
       y2="231"
       gradientUnits="userSpaceOnUse"
       x2="0" />
    <linearGradient
       id="linearGradient4126-5-6">
      <stop
         offset="0"
         style="stop-color:#eaba31"
         id="stop357" />
      <stop
         offset="1"
         style="stop-color:#ff9200"
         id="stop359" />
    </linearGradient>
    <linearGradient
       gradientTransform="translate(0 4.09376)"
       id="linearGradient4338"
       xlink:href="#linearGradient4174"
       y1="273"
       y2="231"
       x2="0"
       gradientUnits="userSpaceOnUse" />
    <linearGradient
       id="linearGradient4174-6">
      <stop
         offset="0"
         style="stop-color:#818181"
         id="stop363" />
      <stop
         offset="1"
         style="stop-color:#c5c5c5"
         id="stop365" />
    </linearGradient>
    <linearGradient
       id="linearGradient4227-4"
       xlink:href="#linearGradient4174-6"
       y1="140"
       y2="124"
       x2="0"
       gradientUnits="userSpaceOnUse" />
    <linearGradient
       gradientTransform="matrix(.375 0 0 .375 298 16)"
       xlink:href="#outerBackgroundGradient-7"
       id="linearGradient4825-8"
       y1="230"
       y2="90"
       gradientUnits="userSpaceOnUse"
       x2="0" />
    <linearGradient
       id="outerBackgroundGradient-7">
      <stop
         offset="0"
         style="stop-color:#f0f0f0"
         id="stop370" />
      <stop
         offset="1"
         style="stop-color:#f8f8f8"
         id="stop372" />
    </linearGradient>
    <linearGradient
       gradientTransform="matrix(.175 0 0 .175 302.79999 215.99997)"
       xlink:href="#outerBackgroundGradient-7"
       id="linearGradient4895-0"
       y1="280"
       y2="40"
       gradientUnits="userSpaceOnUse"
       x2="0" />
    <linearGradient
       gradientTransform="matrix(1.10525 0 0 1.10525 -134.27874 -295.76115)"
       xlink:href="#linearGradient4520"
       id="linearGradient5390"
       y1="279.088"
       y2="268.363"
       gradientUnits="userSpaceOnUse"
       x2="0" />
    <linearGradient
       gradientTransform="matrix(.25 0 0 .25 299.99999 131.99999)"
       xlink:href="#outerBackgroundGradient-7"
       id="linearGradient4863-9"
       y1="230"
       y2="90"
       gradientUnits="userSpaceOnUse"
       x2="0" />
    <linearGradient
       gradientTransform="matrix(.25 0 0 .25 299.99999 131.99999)"
       id="linearGradient4863"
       xlink:href="#outerBackgroundGradient"
       y1="230"
       y2="90"
       x2="0"
       gradientUnits="userSpaceOnUse" />
    <radialGradient
       cx="328"
       cy="255.416"
       gradientTransform="matrix(1.22449 0 0 1.22449 49.7555 -179.34296)"
       r="7"
       id="radialGradient4229-8"
       xlink:href="#linearGradient4126-5-6"
       gradientUnits="userSpaceOnUse" />
    <radialGradient
       cx="328"
       cy="255.416"
       gradientTransform="matrix(2.85714 0 0 2.85714 -609.14349 -473.66662)"
       r="7"
       id="radialGradient4225-6"
       xlink:href="#linearGradient4126-5-6"
       gradientUnits="userSpaceOnUse" />
    <radialGradient
       cx="328"
       cy="255.416"
       gradientTransform="matrix(2.85714 0 0 2.85714 -609.14349 -473.66662)"
       r="7"
       id="radialGradient4225-7"
       xlink:href="#linearGradient4126-5-5"
       gradientUnits="userSpaceOnUse" />
    <radialGradient
       cx="328"
       cy="255.416"
       gradientTransform="matrix(1.22449 0 0 1.22449 49.7555 -179.34296)"
       r="7"
       id="radialGradient4279"
       xlink:href="#linearGradient4126-5"
       gradientUnits="userSpaceOnUse" />
    <radialGradient
       cx="328"
       cy="255.416"
       gradientTransform="matrix(2.85714 0 0 2.85714 -609.14349 -473.66662)"
       r="7"
       id="radialGradient4250"
       xlink:href="#linearGradient4126-5"
       gradientUnits="userSpaceOnUse" />
    <radialGradient
       cx="328"
       cy="255.416"
       gradientTransform="matrix(1.22449 0 0 1.22449 49.7555 -179.34296)"
       r="7"
       id="radialGradient4229-9"
       xlink:href="#linearGradient4126-5-5"
       gradientUnits="userSpaceOnUse" />
  </defs>
  <g
     style="fill-rule:evenodd;fill:#ffffff;stroke:none;stroke-opacity:0"
     id="g386">
    <rect
       width="11.853"
       x=".838"
       y=".857"
       rx="5.926"
       height="11.853"
       style="fill:#ffffff;color:#000;stroke:none;stroke-opacity:0"
       id="rect388" />
  </g>
  <path
     style="fill:#f28e09"
     d="M 9.4117745,9.9367342 C 9.2716083,9.8660542 9.1768685,9.7480332 8.6172213,8.9469552 8.2677453,8.4467162 7.9479757,7.9732262 7.9066226,7.8947572 7.7939889,7.6810322 7.775476,7.2244102 7.8718246,7.0364772 c 0.087968,-0.171586 0.1660158,-0.243706 0.4970962,-0.459337 0.2618043,-0.170513 0.4417582,-0.359733 0.5081248,-0.53429 0.020205,-0.05314 0.036736,-0.188733 0.036736,-0.301307 0,-0.294277 -0.1342426,-0.5509 -0.3623628,-0.692706 l -0.1726529,-0.107328 0,-0.713104 0,-0.713103 0.2050893,0.02181 c 0.3074461,0.03271 0.6277678,0.155183 0.9238978,0.353246 0.540658,0.361614 0.830959,0.944641 0.832209,1.671367 0.0011,0.650797 -0.226975,1.188967 -0.7051947,1.663847 -0.2421564,0.240465 -0.2897528,0.305266 -0.2619809,0.356677 0.018665,0.03456 0.2214769,0.327658 0.4506921,0.651342 0.4986985,0.704236 0.5555175,0.80925 0.5775585,1.06745 0.02421,0.283568 -0.08695,0.483242 -0.343656,0.617348 -0.2330435,0.1217438 -0.4294826,0.1273238 -0.6456076,0.01834 z m -6.3322799,-0.10988 c -0.010018,-0.02609 -0.012802,-1.073396 -0.00619,-2.327318 0.010521,-1.99491 0.019288,-2.300629 0.07016,-2.446062 0.2222565,-0.635401 0.5968456,-1.071926 1.1513496,-1.34172 0.3320005,-0.161535 0.532933,-0.204124 0.9630281,-0.204124 0.4872294,0 0.8022457,0.09275 1.1853774,0.349001 L 6.704822,4.0316032 6.9352681,3.8814602 C 7.2301235,3.6893552 7.5499922,3.5605272 7.794875,3.5352532 l 0.1930883,-0.01993 -0.00969,0.705654 c -0.00911,0.663395 -0.013961,0.708014 -0.081023,0.745085 -0.1877169,0.103761 -0.3107452,0.217176 -0.3837577,0.353768 l -0.079923,0.149521 -0.00996,2.202482 -0.00996,2.202481 -0.7123106,0 -0.7123109,0 -7.75e-4,-2.184648 c -7.25e-4,-2.050339 -0.00485,-2.193416 -0.066838,-2.327317 -0.2729161,-0.589471 -1.0898856,-0.589471 -1.3628017,0 -0.061994,0.133901 -0.066103,0.276978 -0.066838,2.327317 l -7.75e-4,2.184648 -0.6966399,0 c -0.5469276,0 -0.7005538,-0.0102 -0.7148522,-0.04746 z"
     id="path3010"
     inkscape:connector-curvature="0" />
  <path
     style="fill:#b2284f"
     d="M 9.4312797,9.9282691 C 9.2917486,9.857907 9.1974372,9.7404234 8.6403244,8.9429727 8.2924315,8.4449986 7.9741097,7.9736539 7.9329434,7.8955408 7.8208203,7.6827826 7.8023909,7.228229 7.8983076,7.0411463 7.9858817,6.8703379 8.0635708,6.7985443 8.3931532,6.5838893 8.653772,6.4141489 8.8329107,6.2257852 8.8989763,6.0520181 c 0.020119,-0.052908 0.036575,-0.1878771 0.036575,-0.2999417 0,-0.2929439 -0.1336346,-0.5484048 -0.3607218,-0.6895698 l -0.1718715,-0.1068405 0,-0.7098754 0,-0.7098744 0.2041602,0.021724 c 0.3060543,0.032561 0.6249249,0.1544795 0.9197143,0.351647 0.5382087,0.3599766 0.8271967,0.9403614 0.8284427,1.6637979 0.0011,0.6478491 -0.225948,1.1835818 -0.7020029,1.6563115 -0.2410596,0.2393767 -0.2884404,0.3038847 -0.2607943,0.3550622 0.018574,0.034394 0.2204738,0.3261746 0.4486502,0.6483929 0.49644,0.7010453 0.553001,0.8055841 0.574942,1.0626159 0.0241,0.2822835 -0.08655,0.4810521 -0.342099,0.6145524 -0.2319871,0.1211928 -0.4275376,0.1267468 -0.6426833,0.018242 z"
     id="path3008"
     inkscape:connector-curvature="0" />
</svg>
