<?xml version="1.0" encoding="UTF-8" standalone="no"?>
<svg
   xmlns:dc="http://purl.org/dc/elements/1.1/"
   xmlns:cc="http://creativecommons.org/ns#"
   xmlns:rdf="http://www.w3.org/1999/02/22-rdf-syntax-ns#"
   xmlns:svg="http://www.w3.org/2000/svg"
   xmlns="http://www.w3.org/2000/svg"
   xmlns:xlink="http://www.w3.org/1999/xlink"
   xmlns:sodipodi="http://sodipodi.sourceforge.net/DTD/sodipodi-0.dtd"
   xmlns:inkscape="http://www.inkscape.org/namespaces/inkscape"
   width="48"
   viewBox="0 0 13.546667 13.546667"
   height="48"
   id="svg2"
   version="1.1"
   inkscape:version="0.48.4 r9939"
   sodipodi:docname="web-browser.svg">
  <metadata
     id="metadata62">
    <rdf:RDF>
      <cc:Work
         rdf:about="">
        <dc:format>image/svg+xml</dc:format>
        <dc:type
           rdf:resource="http://purl.org/dc/dcmitype/StillImage" />
        <dc:title></dc:title>
      </cc:Work>
    </rdf:RDF>
  </metadata>
  <sodipodi:namedview
     pagecolor="#ffffff"
     bordercolor="#666666"
     borderopacity="1"
     objecttolerance="10"
     gridtolerance="10"
     guidetolerance="10"
     inkscape:pageopacity="0"
     inkscape:pageshadow="2"
     inkscape:window-width="1366"
     inkscape:window-height="716"
     id="namedview60"
     showgrid="false"
     inkscape:zoom="5.6568543"
     inkscape:cx="-14.796057"
     inkscape:cy="11.305139"
     inkscape:window-x="0"
     inkscape:window-y="28"
     inkscape:window-maximized="1"
     inkscape:current-layer="g38"
     showguides="true"
     inkscape:guide-bbox="true" />
  <defs
     id="defs4">
    <linearGradient
       id="linearGradient3922">
      <stop
         style="stop-color:#004455;stop-opacity:1;"
         offset="0"
         id="stop3924" />
      <stop
         style="stop-color:#005b72;stop-opacity:1;"
         offset="1"
         id="stop3926" />
    </linearGradient>
    <clipPath
       clipPathUnits="userSpaceOnUse"
       id="clipPath6">
      <rect
         width="20"
         x="1"
         y="1"
         rx="2"
         height="20"
         style="fill:#fff;fill-rule:evenodd"
         id="rect8" />
    </clipPath>
    <clipPath
       clipPathUnits="userSpaceOnUse"
       id="clipPath10">
      <rect
         width="84"
         x="6"
         y="6"
         rx="6"
         height="84"
         style="fill:#fff"
         id="rect12" />
    </clipPath>
    <clipPath
       clipPathUnits="userSpaceOnUse"
       id="clipPath14">
      <path
         d="M 54.1,12.5 12.9,54.7 C -2.7,70.3 23,69 32.3,74.9 36.6,77.7 18.5,81.3 22.2,85 c 3.6,3.7 21.7,7.1 25.3,10.7 3.6,3.7 -7.3,7.6 -3.7,11.3 3.5,3.7 11.9,0.2 13.4,8.6 1.1,6.2 15.4,3.1 21.8,-2.2 4,-3.4 -6.9,-3.4 -3.3,-7.1 9,-9.1 17,-4.1 20.3,-12.5 1.8,-4.5 -13.6,-7.7 -9.5,-10.6 9.8,-6.9 45.8,-10.4 29.2,-27 L 73,12.5 c -5.3,-5 -14,-5 -18.9,0 z m -9.9,64.7 c 0.9,0 30.8,4 19.3,7.1 -4.4,1.2 -24.6,-7.1 -19.3,-7.1 z m 57.2,16.6 c 0,2.1 16.3,3.3 15.4,-0.5 -1.3,-6.4 -13.6,-5.9 -15.4,0.5 z m -69.5,11.1 c 3.7,3.2 9.3,-0.7 11.1,-5.2 -3.6,-4.7 -16.9,0.3 -11.1,5.2 z m 67.5,-6.7 c -4.6,4.2 0.8,8.6 5.3,5.7 1.2,-0.8 -0.1,-4.7 -5.3,-5.7 z"
         id="path16" />
    </clipPath>
    <clipPath
       clipPathUnits="userSpaceOnUse"
       id="clipPath18">
      <rect
         width="96"
         x="-100"
         y="-0"
         height="96"
         style="fill:#fff"
         id="rect20" />
    </clipPath>
    <clipPath
       clipPathUnits="userSpaceOnUse"
       id="clipPath22">
      <path
         d="M 95.311,352.545 L 476.403,352.545 L 476.403,71.4229 L 95.311,71.4229 L 95.311,352.545 z"
         id="path24" />
    </clipPath>
    <clipPath
       clipPathUnits="userSpaceOnUse"
       id="clipPath26">
      <path
         d="M 93.311,354.545 L 478.511,354.545 L 478.511,69.1846 L 93.311,69.1846 L 93.311,354.545 z"
         id="path28" />
    </clipPath>
    <clipPath
       clipPathUnits="userSpaceOnUse"
       id="clipPath30">
      <path
         d="M 93.311,69.185 L 478.511,69.185 L 478.511,354.545 L 93.311,354.545 L 93.311,69.185 z"
         id="path32" />
    </clipPath>
    <clipPath
       clipPathUnits="userSpaceOnUse"
       id="clipPath34">
      <path
         d="M 92.311,355.545 L 479.511,355.545 L 479.511,68.1846 L 92.311,68.1846 L 92.311,355.545 z"
         id="path36" />
    </clipPath>
    <linearGradient
       inkscape:collect="always"
       xlink:href="#linearGradient2251"
       id="linearGradient2258"
       x1="21.5"
       y1="43.467159"
       x2="21.5"
       y2="47.532516"
       gradientUnits="userSpaceOnUse" />
    <linearGradient
       inkscape:collect="always"
       id="linearGradient2251">
      <stop
         style="stop-color:#729fcf;stop-opacity:1;"
         offset="0"
         id="stop2253" />
      <stop
         style="stop-color:#729fcf;stop-opacity:0;"
         offset="1"
         id="stop2255" />
    </linearGradient>
    <linearGradient
       gradientTransform="matrix(0.13,0,0,0.14103,2.41492,-32.46617)"
       xlink:href="#linearGradient3896"
       id="linearGradient3006"
       x1="5.3039999"
       gradientUnits="userSpaceOnUse"
       x2="61.748001" />
    <linearGradient
       id="linearGradient3896">
      <stop
         offset="0"
         style="stop-color:#5dac12"
         id="stop9" />
      <stop
         offset="1"
         style="stop-color:#76c925"
         id="stop11" />
    </linearGradient>
    <linearGradient
       inkscape:collect="always"
       xlink:href="#linearGradient6963-199-896"
       id="linearGradient6457"
       gradientUnits="userSpaceOnUse"
       gradientTransform="matrix(4.895429,-1.3086414,1.1623533,4.3761806,-614.63541,-97.40367)"
       x1="15.194299"
       y1="13.018784"
       x2="14.486301"
       y2="26.07235" />
    <linearGradient
       inkscape:collect="always"
       id="linearGradient6963-199-896">
      <stop
         offset="0"
         id="stop7684"
         style="stop-color:#a2c6ff;stop-opacity:1" />
      <stop
         offset="1"
         id="stop7686"
         style="stop-color:#9f7e42;stop-opacity:1" />
    </linearGradient>
    <linearGradient
       id="linearGradient2911-613-519">
      <stop
         offset="0"
         id="stop7648"
         style="stop-color:#ffffe0;stop-opacity:1;" />
      <stop
         offset="1"
         id="stop7650"
         style="stop-color:#ffe588;stop-opacity:0;" />
    </linearGradient>
    <linearGradient
       id="linearGradient2911-198-956">
      <stop
         offset="0"
         id="stop7654"
         style="stop-color:#ffffe0;stop-opacity:1;" />
      <stop
         offset="1"
         id="stop7656"
         style="stop-color:#ffe588;stop-opacity:0;" />
    </linearGradient>
    <linearGradient
       id="linearGradient2911-977-39">
      <stop
         offset="0"
         id="stop7660"
         style="stop-color:#ffffe0;stop-opacity:1;" />
      <stop
         offset="1"
         id="stop7662"
         style="stop-color:#ffe588;stop-opacity:0;" />
    </linearGradient>
    <linearGradient
       inkscape:collect="always"
       xlink:href="#linearGradient2782-839-396"
       id="linearGradient7090"
       gradientUnits="userSpaceOnUse"
       gradientTransform="matrix(4.9036558,0,0,4.3816704,-363.57105,-134.91588)"
       x1="20"
       y1="13.577349"
       x2="17.269999"
       y2="32.698772" />
    <linearGradient
       inkscape:collect="always"
       id="linearGradient2782-839-396">
      <stop
         offset="0"
         id="stop7582"
         style="stop-color:#8dc5ff;stop-opacity:1" />
      <stop
         offset="1"
         id="stop7584"
         style="stop-color:#f2c600;stop-opacity:1" />
    </linearGradient>
    <linearGradient
       inkscape:collect="always"
       xlink:href="#linearGradient6963-199-896-0"
       id="linearGradient6457-9"
       gradientUnits="userSpaceOnUse"
       gradientTransform="matrix(4.895429,-1.3086414,1.1623533,4.3761806,-614.63541,-97.40367)"
       x1="15.194299"
       y1="13.018784"
       x2="14.486301"
       y2="26.07235" />
    <linearGradient
       inkscape:collect="always"
       id="linearGradient6963-199-896-0">
      <stop
         offset="0"
         id="stop7684-1"
         style="stop-color:#a2c6ff;stop-opacity:1" />
      <stop
         offset="1"
         id="stop7686-7"
         style="stop-color:#9f7e42;stop-opacity:1" />
    </linearGradient>
  </defs>
  <g
     style="fill-rule:evenodd"
     id="g38">
    <rect
       width="11.746"
       x=".9"
       y=".901"
       rx="5.873"
       height="11.746"
       style="fill:#4d73aa;stroke-width:0.02822222000000000;stroke-miterlimit:4;stroke-dasharray:none;stroke:none;stroke-opacity:1;fill-opacity:1"
       id="rect42" />
    <g
       transform="matrix(0.11531627,0,0,0.11531627,3.9211615,3.8898451)"
       id="layer1" />
    <g
       id="g3389"
       style="fill:#f9f9f9;stroke:#f9f9f9;stroke-linejoin:round"
       transform="matrix(0.93639221,0.01779363,-0.01779363,0.93639221,0.58795522,0.39238226)">
      <g
         id="g3393"
         style="fill-opacity:0;stroke-width:0.58899999" />
    </g>
    <path
       inkscape:connector-curvature="0"
       style="fill:#15ad8f;fill-opacity:1"
       d="M 1.3641064,6.9156422 1.4239924,6.6161956 2.0799762,6.8898594 2.5323914,7.308126 2.9212228,7.364812 C 2.7823691,7.6780622 2.5012482,8.1829583 2.5524244,8.5326507 2.5821863,8.7360345 2.7910225,9.0258688 2.910352,9.191403 3.0770529,9.4226049 3.3909624,9.5591517 3.4748977,9.8502131 l 0.014019,0.4791139 0.091391,0.359335 c -0.018238,0.152239 -0.1612819,0.416261 -0.066981,0.557599 0.1036934,0.155442 0.487319,0.35092 0.6654295,0.39979 0.1700543,0.04665 0.1886209,-0.130379 0.1199248,-0.238719 l 0.2221285,-0.304896 0.28112,-0.207395 0.1979638,-0.683756 0.4258123,-0.2752199 c 0.1744572,-0.2606087 0.048,-0.4769583 0.1132867,-0.7446325 L 5.8258613,8.3829279 C 5.5013518,8.2617469 5.0366709,8.1129774 4.8077442,7.843925 L 4.7478585,7.8738774 4.6879728,7.6043765 4.3286376,7.4247079 4.2687519,7.4845936 4.1789138,7.0653689 3.6997996,7.0273975 3.3404643,6.8309603 C 3.185472,6.8089127 2.9795729,7.0626422 2.9212415,7.1851451 L 2.7116291,7.1551927 2.7715149,7.095307 2.5918472,6.9755299 2.6217996,7.095307 C 2.4926368,6.9617889 2.4705682,6.7936194 2.5020111,6.6161975 L 2.2923987,6.5263689 2.2624463,6.6161975 C 2.2249987,6.4680013 2.2403987,6.2765661 2.3522844,6.167028 2.1881644,6.0550956 2.0773387,6.1601709 1.9630044,6.2868051 L 1.7234473,5.8076918 C 1.6574763,5.9546604 1.6813333,6.101329 1.6934953,6.2568604 l -0.059886,0 C 1.6203806,6.0892909 1.5789902,5.9061795 1.6639425,5.7482519 1.8226911,5.4531176 2.2990701,5.3280995 2.591833,5.3884681 L 2.561881,5.4483541 2.8313838,5.6879112 C 2.8326215,5.2300271 3.0125177,5.1816376 3.2656091,4.8482938 L 3.442792,4.5268091 C 3.6391986,4.3107881 3.9440948,4.1636405 4.2076367,4.0665015 L 4.5382252,3.8612901 C 4.4313176,3.6762625 4.1496938,3.7295044 3.9692776,3.7415129 4.2936967,3.5569044 4.7352309,3.6565606 4.957449,3.3222882 4.7150176,3.1458844 4.7149281,2.6855473 4.3286128,2.8731187 L 4.3884986,2.6934521 4.0591091,2.5437292 3.8188624,3.044552 3.4901615,3.4420663 3.4602091,3.2324549 C 3.3335443,3.1736168 2.9845996,3.070693 2.9778015,2.9029749 2.9703729,2.7207016 3.5335138,2.4447235 3.6698215,2.3341168 l -0.059886,0.1497229 0.2320705,-0.021629 c 0.0492,-0.031067 0.5165143,-0.6893599 0.5764343,-0.27782 0.3246885,0.1230658 0.3612809,0.2635219 0.6887256,0.059886 L 4.8975538,2.1544388 C 4.8645252,1.8586997 4.6034681,1.855154 4.35855,1.8549921 L 5.1371099,1.4956569 C 5.2237959,1.7082664 5.495727,1.7518055 5.5837042,1.9476226 5.6461992,2.086754 5.4604518,2.1706559 5.4651585,2.3041607 5.4709685,2.4687616 5.6309023,2.670354 5.7060623,2.8132197 L 6.1565194,2.3208673 C 6.4050898,2.1883359 6.8047298,2.1739835 7.0026936,1.9598464 7.2318898,1.7118997 7.1058822,1.3174988 7.5326831,1.3159903 c -0.0866,-0.036429 -0.2260819,-0.064086 -0.2994466,0 l -0.089829,-0.089838 0.1197771,0 C 7.2005755,1.140276 7.158285,1.0940512 7.0535727,1.0764293 6.9332536,0.92766932 6.6563574,0.99778172 6.4846251,0.98150552 5.8865413,0.92481982 5.2405471,1.1171179 4.687949,1.3059074 2.8026368,1.9499826 1.1148093,4.023032 1.0411074,6.0771728 1.0327264,6.3103804 1.2309892,6.4139585 1.3292311,6.5924889 l 0.034867,0.3231314 M 9.2994173,1.8849283 C 9.1941592,1.9711093 9.014883,2.0139712 8.8801925,2.0346512 l -0.24396,0.3365771 -0.2855504,0.23788 c -0.045914,0.1090628 0.027762,0.2739933 0.050391,0.3837695 L 8.7005173,2.8431549 C 8.743584,2.9919501 8.860063,3.0301892 8.9700201,3.1126568 9.1475316,2.7758092 8.9946963,2.4539445 9.4191887,2.2742073 l -0.2695019,0.3293905 0.089838,-0.059886 0.029952,0.1796676 0.029952,-0.2395571 c 0.079086,0.2701304 -0.00362,0.6417732 -0.2994466,0.7437342 l -0.2994467,-0.025057 0,-0.1796676 C 8.5302087,3.0583749 8.5358687,3.143213 8.5807564,3.292333 8.4651668,3.2594854 8.3964488,3.2652663 8.3112564,3.3522187 8.2197802,3.2582187 8.1451526,3.1860863 8.1315878,3.052772 8.0734354,2.9948578 8.0477497,2.9553968 8.0417593,2.8731044 L 7.8321469,2.8431616 7.921985,3.3222749 C 7.8420993,3.1724016 7.7592069,3.1364387 7.5925955,3.172552 l 0.089838,0.3593352 0.1197771,-0.029952 -0.089829,-0.029933 0.1197772,-0.2096123 0.059886,0.3293904 0.2695019,-0.059886 c -0.075495,0.072143 -0.13544,0.089676 -0.2395581,0.089838 l 0.029952,0.089838 -0.1497238,0 0.2096123,0.3593352 c -0.4906409,0.0041 -0.4964504,0.2550381 -0.4791133,0.6587819 0.095763,0.00686 0.1427162,0.021086 0.2096124,0.089838 C 8.1385564,4.61075 8.2301564,4.2226091 8.7005554,4.1008539 c 0.076333,0.2373704 0.3119933,0.222698 0.2395562,0.509059 0.2311133,-0.047162 0.2957942,-0.2415943 0.1497247,-0.4192248 0.1969152,0.1172896 0.25366,0.3581972 0.389279,0.5390029 0.095467,-0.1253486 0.05821,-0.2686638 0.2096124,-0.3593352 l 0,0.089838 c 0.2536616,0.2250934 0.4285973,0.27564 0.7486163,0.389281 C 10.327357,5.0056062 10.194731,5.1588014 9.9881747,5.1459852 9.735322,5.1303186 9.4126687,4.8823243 9.2395582,5.1788709 L 8.7577506,4.7970472 C 8.4904945,4.6843386 8.2274011,4.7903805 7.9519412,4.7596472 l -0.1197772,0.059886 0.059886,0.029952 C 7.3434345,5.0963186 7.0393184,5.7463861 6.9822441,6.2868251 L 6.8775279,6.6461613 C 6.9358609,6.9970518 7.2328803,7.3606089 7.4825593,7.599387 7.658364,7.7674955 7.7847297,7.4383155 7.9519412,7.604437 8.1732611,7.520656 8.507323,7.3750313 8.7103173,7.608917 c 0.1333428,0.1536447 -0.00543,0.2803409 0.040848,0.4447371 0.080038,0.2844438 0.270759,0.6175771 0.2703095,0.9282818 l -0.075076,0.7486154 c 0.0656,0.4560857 0.3191495,0.8396467 0.3231019,1.3175627 0.3671514,-0.03782 0.7797283,-0.222549 0.9836203,-0.539002 l 0.08756,-0.266807 0.151281,-0.185059 -0.05698,-0.2940557 c 0.0857,-0.2056886 0.432161,-0.2275792 0.484354,-0.4523134 0.07109,-0.3059438 -0.114654,-0.6689314 -0.0039,-0.9877228 0.170805,-0.4915095 0.646714,-0.8510238 0.659798,-1.4073952 L 11.2159,6.9457109 c 0.323193,-0.3966162 1.008205,-0.5961666 0.658781,-1.1977837 l -0.149723,0.1796666 -0.05988,0 C 11.549442,5.6849747 11.365826,5.6599109 11.365587,5.3586376 c 0.280311,0.2412638 0.570772,0.24896 0.838448,0.5390038 0.289983,-0.1569705 -0.002,-0.8411743 -0.07999,-1.0780057 C 11.864874,4.032392 11.439961,3.286112 10.85643,2.6935692 10.647807,2.4817168 10.481134,2.225193 10.167794,2.1845102 l 0.02995,-0.089838 C 9.9543557,2.0624531 9.5471391,2.060415 9.3592963,1.8850597 l -0.059886,0 z"
       id="path18" />
    <path
       sodipodi:type="star"
       style="fill:#ffffff;fill-opacity:1;stroke:none"
       id="path7242"
       sodipodi:sides="3"
       sodipodi:cx="-27.753941"
       sodipodi:cy="40.221825"
       sodipodi:r1="8.253787"
       sodipodi:r2="4.1268935"
       sodipodi:arg1="-0.17219081"
       sodipodi:arg2="0.87500674"
       inkscape:flatsided="true"
       inkscape:rounded="0"
       inkscape:randomized="0"
       d="M -19.622213,38.807611 -30.59506,47.971214 -33.044549,33.886648 z"
       transform="matrix(0.24306287,-0.00358104,0.00358104,0.24306287,15.913098,0.43224293)" />
    <rect
       style="fill:#ffffff;fill-opacity:1;stroke:none"
       id="rect7247"
       width="0.87781328"
       height="5.0973406"
       x="-0.21467386"
       y="13.547898"
       rx="0.46919635"
       transform="matrix(0.78557436,-0.61876726,0.66187928,0.74961044,0,0)" />
  </g>
</svg>
